%FSLAX45Y45*%
G04 Gerber Fmt 4.5, Leading zero omitted, Abs format (unit mm)*
G04 Created by KiCad (PCBNEW 5.1.12-84ad8e8a86~92~ubuntu20.04.1) date 2022-05-26 23:51:49*
%MOMM*%
%LPD*%
G01*
G04 APERTURE LIST*
%TA.AperFunction,Profile*%
%ADD10C,0.050000*%
%TD*%
%ADD11C,0.200000*%
%ADD12C,0.300000*%
G04 APERTURE END LIST*
D10*
X10279380Y-10027920D02*
X10279380Y-7493000D01*
X14836140Y-10027920D02*
X10279380Y-10027920D01*
X14836140Y-7493000D02*
X14836140Y-10027920D01*
X10279380Y-7493000D02*
X14836140Y-7493000D01*
D11*
D12*
X10563308Y-10496134D02*
X10563308Y-10196134D01*
X10634737Y-10196134D01*
X10677594Y-10210420D01*
X10706166Y-10238992D01*
X10720451Y-10267563D01*
X10734737Y-10324706D01*
X10734737Y-10367563D01*
X10720451Y-10424706D01*
X10706166Y-10453277D01*
X10677594Y-10481849D01*
X10634737Y-10496134D01*
X10563308Y-10496134D01*
X10863308Y-10496134D02*
X10863308Y-10296134D01*
X10863308Y-10353277D02*
X10877594Y-10324706D01*
X10891880Y-10310420D01*
X10920451Y-10296134D01*
X10949023Y-10296134D01*
X11049023Y-10496134D02*
X11049023Y-10296134D01*
X11049023Y-10196134D02*
X11034737Y-10210420D01*
X11049023Y-10224706D01*
X11063308Y-10210420D01*
X11049023Y-10196134D01*
X11049023Y-10224706D01*
X11234737Y-10496134D02*
X11206166Y-10481849D01*
X11191880Y-10453277D01*
X11191880Y-10196134D01*
X11391880Y-10496134D02*
X11363308Y-10481849D01*
X11349023Y-10453277D01*
X11349023Y-10196134D01*
X11734737Y-10496134D02*
X11734737Y-10196134D01*
X11834737Y-10410420D01*
X11934737Y-10196134D01*
X11934737Y-10496134D01*
X12206166Y-10496134D02*
X12206166Y-10338992D01*
X12191880Y-10310420D01*
X12163308Y-10296134D01*
X12106166Y-10296134D01*
X12077594Y-10310420D01*
X12206166Y-10481849D02*
X12177594Y-10496134D01*
X12106166Y-10496134D01*
X12077594Y-10481849D01*
X12063308Y-10453277D01*
X12063308Y-10424706D01*
X12077594Y-10396134D01*
X12106166Y-10381849D01*
X12177594Y-10381849D01*
X12206166Y-10367563D01*
X12349023Y-10296134D02*
X12349023Y-10596134D01*
X12349023Y-10310420D02*
X12377594Y-10296134D01*
X12434737Y-10296134D01*
X12463308Y-10310420D01*
X12477594Y-10324706D01*
X12491880Y-10353277D01*
X12491880Y-10438992D01*
X12477594Y-10467563D01*
X12463308Y-10481849D01*
X12434737Y-10496134D01*
X12377594Y-10496134D01*
X12349023Y-10481849D01*
X12620451Y-10467563D02*
X12634737Y-10481849D01*
X12620451Y-10496134D01*
X12606166Y-10481849D01*
X12620451Y-10467563D01*
X12620451Y-10496134D01*
X12620451Y-10310420D02*
X12634737Y-10324706D01*
X12620451Y-10338992D01*
X12606166Y-10324706D01*
X12620451Y-10310420D01*
X12620451Y-10338992D01*
M02*
