G04 #@! TF.GenerationSoftware,KiCad,Pcbnew,5.1.5-52549c5~86~ubuntu16.04.1*
G04 #@! TF.CreationDate,2020-08-04T23:04:36-05:00*
G04 #@! TF.ProjectId,keep_breathing_ctrl,6b656570-5f62-4726-9561-7468696e675f,rev?*
G04 #@! TF.SameCoordinates,Original*
G04 #@! TF.FileFunction,Profile,NP*
%FSLAX46Y46*%
G04 Gerber Fmt 4.6, Leading zero omitted, Abs format (unit mm)*
G04 Created by KiCad (PCBNEW 5.1.5-52549c5~86~ubuntu16.04.1) date 2020-08-04 23:04:36*
%MOMM*%
%LPD*%
G04 APERTURE LIST*
%ADD10C,0.150000*%
G04 APERTURE END LIST*
D10*
X173500000Y-111000000D02*
G75*
G02X175500000Y-109000000I2000000J0D01*
G01*
X193000000Y-107000000D02*
G75*
G02X191000000Y-109000000I-2000000J0D01*
G01*
X191000000Y-109000000D02*
X175500000Y-109000000D01*
X193000000Y-23500000D02*
X193000000Y-107000000D01*
X48500000Y-26500000D02*
G75*
G02X53500000Y-21500000I5000000J0D01*
G01*
X51500000Y-139500000D02*
G75*
G02X48500000Y-136500000I0J3000000D01*
G01*
X41000000Y-66000000D02*
X47500000Y-66000000D01*
X48500000Y-65000000D02*
G75*
G02X47500000Y-66000000I-1000000J0D01*
G01*
X48500000Y-26500000D02*
X48500000Y-65000000D01*
X81500000Y-169500000D02*
G75*
G02X80500000Y-168500000I0J1000000D01*
G01*
X173500000Y-167500000D02*
G75*
G02X171500000Y-169500000I-2000000J0D01*
G01*
X173500000Y-111000000D02*
X173500000Y-167500000D01*
X191000000Y-21500000D02*
G75*
G02X193000000Y-23500000I0J-2000000D01*
G01*
X191000000Y-21500000D02*
X53500000Y-21500000D01*
X41000000Y-104500000D02*
X47500000Y-104500000D01*
X47500000Y-104500000D02*
G75*
G02X48500000Y-105500000I0J-1000000D01*
G01*
X41000000Y-104500000D02*
G75*
G02X40000000Y-103500000I0J1000000D01*
G01*
X40000000Y-67000000D02*
G75*
G02X41000000Y-66000000I1000000J0D01*
G01*
X48500000Y-105500000D02*
X48500000Y-136500000D01*
X40000000Y-103500000D02*
X40000000Y-67000000D01*
X80500000Y-168500000D02*
X80500000Y-139500000D01*
X80500000Y-139500000D02*
X51500000Y-139500000D01*
X171500000Y-169500000D02*
X81500000Y-169500000D01*
M02*
