M48
; DRILL file {KiCad 5.1.5-52549c5~86~ubuntu16.04.1} date Tue 04 Aug 2020 11:04:45 PM -05
; FORMAT={3:3/ absolute / metric / suppress leading zeros}
; #@! TF.CreationDate,2020-08-04T23:04:45-05:00
; #@! TF.GenerationSoftware,Kicad,Pcbnew,5.1.5-52549c5~86~ubuntu16.04.1
; #@! TF.FileFunction,Plated,1,4,PTH
FMAT,2
METRIC,TZ
T1C0.300
T2C0.400
T3C0.500
T4C0.800
T5C1.000
T6C1.200
T7C1.400
T8C1.800
%
G90
G05
T1
X62250Y-116500
X64500Y-90500
X65347Y-91973
X69500Y-88000
X69500Y-88750
X69500Y-89500
X69500Y-90250
X69500Y-91000
X69500Y-91750
X69790Y-84703
X69790Y-85465
X69790Y-86291
X69790Y-87053
X69790Y-93212
X69790Y-93974
X69790Y-94736
X69790Y-95498
X70250Y-88000
X70250Y-88750
X70250Y-89500
X70250Y-90250
X70250Y-91000
X70250Y-91750
X70552Y-93212
X70552Y-93974
X70552Y-94736
X70552Y-95498
X70616Y-84703
X70616Y-85465
X70616Y-86291
X70616Y-87053
X71000Y-88000
X71000Y-88750
X71000Y-89500
X71000Y-90250
X71000Y-91000
X71000Y-91750
X71314Y-93212
X71314Y-93974
X71314Y-94736
X71314Y-95498
X71441Y-84703
X71441Y-85465
X71441Y-86291
X71441Y-87053
X71500Y-121000
X71750Y-88000
X71750Y-88750
X71750Y-89500
X71750Y-90250
X71750Y-91000
X71750Y-91750
X72500Y-88000
X72500Y-88750
X72500Y-89500
X72500Y-90250
X72500Y-91000
X72500Y-91750
X72500Y-121000
X72500Y-122000
X72521Y-84703
X72521Y-85465
X72521Y-86291
X72521Y-87053
X72584Y-93212
X72584Y-93974
X72584Y-94736
X72584Y-95498
X73250Y-88000
X73250Y-88750
X73250Y-89500
X73250Y-90250
X73250Y-91000
X73250Y-91750
X73283Y-84703
X73283Y-85465
X73283Y-86291
X73283Y-87053
X73346Y-93212
X73346Y-93974
X73346Y-94736
X73346Y-95498
X73500Y-121000
X73500Y-122000
X74000Y-88000
X74000Y-88750
X74000Y-89500
X74000Y-90250
X74000Y-91000
X74000Y-91750
X74044Y-84703
X74044Y-85465
X74044Y-86291
X74044Y-87053
X74108Y-93212
X74108Y-93974
X74108Y-94736
X74108Y-95498
X74500Y-122000
X74750Y-88000
X77280Y-117500
X77280Y-118500
X77620Y-118000
X77970Y-117500
X77970Y-118500
X78378Y-86972
X78440Y-93150
X78750Y-88450
X79125Y-90124
X79200Y-87070
X79387Y-95917
X81403Y-91318
X81620Y-92200
X81929Y-90715
X82730Y-90410
X82890Y-89490
X86340Y-103690
X93450Y-77460
X94000Y-92450
X94720Y-90550
X97370Y-91180
X98690Y-90410
X99290Y-91820
X99790Y-67060
X99850Y-65050
X103610Y-96450
X103670Y-95550
X104510Y-95170
X105041Y-94534
X105080Y-93570
X106790Y-93890
X110400Y-72610
X111060Y-73150
X111730Y-72580
X112340Y-73150
X112980Y-72610
X113630Y-73090
X115840Y-76920
X117310Y-89890
X120780Y-96800
X121872Y-132875
X121872Y-134719
X121980Y-99910
X122320Y-92590
X122600Y-96598
X122794Y-129980
X122995Y-133961
X123381Y-96771
X123500Y-99880
X123920Y-131929
X125020Y-126147
X125340Y-134090
X125780Y-84340
X126050Y-134090
X126603Y-129390
X126680Y-132810
X126690Y-133470
X126760Y-134110
X126830Y-135460
X126830Y-136120
X126915Y-127344
X127430Y-134110
X127520Y-126220
X127910Y-129080
X128980Y-134220
X129010Y-135580
X129090Y-133120
X129110Y-131840
X129120Y-132460
X129140Y-136710
X129370Y-136110
X129530Y-133730
X129700Y-134510
X130260Y-134030
X130320Y-134690
X130540Y-68310
X130910Y-134050
X130920Y-118620
X130980Y-134690
X131550Y-68980
X131570Y-70250
X131580Y-134300
X131600Y-71290
X132900Y-79900
X133040Y-103840
X133880Y-147020
X134170Y-118320
X137060Y-126660
X137410Y-102260
X137470Y-109800
X138000Y-58030
X141690Y-127080
X142290Y-126380
X146150Y-112280
X146660Y-123180
X150000Y-60810
X150510Y-96410
X150539Y-97541
X157380Y-78290
X158310Y-78310
X159500Y-102000
X159750Y-78370
X161430Y-78450
X161700Y-101500
X162000Y-64790
X162235Y-97765
X162900Y-99980
X164100Y-107900
X164700Y-99400
X164800Y-105100
X168000Y-101500
X169500Y-105500
X169554Y-104054
X173990Y-64020
X176110Y-68460
X177000Y-71690
X177000Y-73090
X177050Y-70190
T2
X52560Y-41760
X52590Y-44910
X52600Y-43830
X52600Y-46140
X52610Y-42810
X54000Y-101000
X54000Y-102000
X54060Y-41760
X54100Y-43830
X54110Y-42810
X54110Y-45010
X54120Y-46160
X55000Y-102000
X55150Y-44640
X56230Y-44230
X56910Y-45070
X57500Y-62500
X57500Y-63500
X57590Y-44200
X58500Y-62500
X58500Y-63500
X59000Y-102000
X59000Y-113500
X59250Y-122500
X60000Y-73000
X60000Y-74000
X60000Y-75000
X60000Y-76000
X60000Y-77000
X60000Y-102000
X60500Y-122500
X61000Y-73000
X61000Y-74000
X61000Y-75000
X61000Y-76000
X61000Y-77000
X61500Y-102500
X61750Y-114500
X61750Y-122500
X62346Y-88710
X62500Y-62500
X62500Y-63500
X62500Y-78500
X63000Y-122500
X63500Y-62500
X63500Y-63500
X63500Y-115000
X63500Y-116000
X63500Y-117000
X63500Y-118000
X64250Y-122500
X64500Y-114500
X64500Y-115500
X64500Y-116500
X64500Y-117500
X65500Y-114000
X65500Y-115000
X65500Y-116000
X65500Y-117000
X65500Y-122500
X68500Y-121000
X70240Y-57310
X70250Y-125500
X70250Y-126750
X70250Y-128250
X71250Y-114500
X72500Y-114000
X72500Y-123500
X73140Y-115020
X73150Y-116000
X73200Y-116960
X73210Y-118100
X73500Y-114000
X74135Y-79261
X74135Y-101168
X74140Y-115020
X74150Y-116000
X74160Y-116950
X74500Y-114000
X74834Y-100469
X74897Y-80022
X75500Y-114000
X75500Y-123500
X75760Y-118360
X76060Y-117610
X76290Y-115900
X77500Y-137500
X78320Y-57310
X79000Y-78000
X79000Y-82000
X79000Y-83000
X79530Y-113500
X79550Y-114480
X79560Y-123090
X79570Y-115510
X80000Y-82000
X80000Y-83000
X80490Y-94360
X80500Y-103000
X80500Y-104000
X80500Y-105000
X80500Y-106000
X80500Y-107000
X80500Y-113500
X80500Y-114500
X80500Y-115500
X80550Y-116480
X81000Y-74500
X81000Y-80000
X81500Y-112500
X81500Y-113500
X81500Y-114500
X81500Y-115500
X81500Y-116500
X81500Y-117500
X81995Y-89020
X82500Y-137500
X82500Y-147500
X82800Y-67020
X85000Y-77000
X85000Y-102000
X85170Y-75710
X85630Y-86110
X86500Y-108000
X86500Y-130500
X86500Y-138000
X86500Y-160500
X86620Y-57230
X87000Y-168000
X89432Y-111815
X91500Y-111500
X94210Y-95320
X94500Y-114000
X94520Y-57280
X95000Y-68030
X95000Y-70000
X95000Y-72500
X95000Y-73550
X95018Y-77482
X95400Y-104010
X95750Y-165090
X95780Y-134060
X96420Y-160420
X96585Y-137390
X96650Y-104270
X96880Y-131970
X97640Y-160070
X98399Y-104460
X98750Y-105860
X98780Y-135200
X99190Y-158590
X99750Y-98843
X100500Y-130000
X100500Y-160000
X101130Y-135090
X101370Y-158540
X101390Y-108730
X101600Y-105120
X103650Y-158440
X103700Y-135150
X103940Y-108690
X103990Y-57990
X104290Y-104600
X105750Y-117500
X106500Y-112500
X107000Y-113500
X107533Y-111800
X108500Y-109000
X109870Y-57240
X110000Y-98500
X110000Y-99560
X110030Y-97520
X110820Y-84500
X111000Y-98500
X111010Y-99550
X111040Y-97520
X111270Y-85410
X111620Y-132560
X111620Y-135400
X112310Y-85710
X113970Y-134110
X114440Y-100220
X114990Y-99510
X115000Y-98500
X115060Y-102020
X115290Y-131130
X115490Y-100240
X115720Y-87390
X115820Y-97500
X115980Y-99480
X116000Y-98500
X116000Y-108000
X116000Y-138000
X116190Y-125600
X116500Y-157000
X116580Y-92600
X117000Y-103000
X117030Y-121930
X117660Y-120700
X118270Y-134310
X118400Y-100020
X118570Y-121950
X118870Y-125748
X118870Y-131440
X119420Y-81330
X120000Y-116000
X120438Y-94042
X120500Y-121500
X120730Y-84930
X121000Y-156500
X121480Y-126610
X121530Y-118530
X121555Y-121725
X121560Y-116260
X121640Y-138310
X121740Y-129970
X121750Y-84700
X121750Y-103500
X121770Y-127450
X122600Y-123280
X122652Y-132426
X122690Y-87830
X122810Y-81020
X122900Y-127450
X123780Y-128160
X124000Y-121500
X124920Y-88780
X125000Y-103500
X125060Y-139120
X125420Y-164700
X125797Y-122961
X126429Y-121284
X126440Y-138880
X126510Y-160601
X126540Y-109380
X126560Y-102500
X127280Y-89540
X127800Y-125230
X128010Y-143565
X128440Y-123250
X128532Y-106972
X128800Y-159504
X129010Y-144290
X129210Y-100985
X129252Y-105477
X129711Y-123739
X129750Y-158498
X130460Y-88570
X130500Y-160000
X130620Y-111660
X131043Y-108966
X131508Y-158502
X131750Y-137460
X131790Y-138660
X132270Y-165190
X133240Y-109120
X133410Y-143730
X134029Y-103899
X134450Y-81730
X135430Y-47740
X135720Y-130030
X137090Y-47710
X137190Y-98291
X139240Y-112580
X140210Y-139480
X140610Y-134660
X141810Y-130710
X141850Y-107840
X141865Y-100955
X143750Y-107870
X143760Y-99950
X143880Y-122980
X144360Y-127650
X145000Y-167000
X145500Y-162500
X146500Y-101500
X146500Y-108500
X146500Y-131500
X146500Y-138000
X147450Y-47710
X148200Y-122310
X149970Y-47760
X151500Y-118500
X153930Y-121390
X154420Y-132485
X154420Y-136295
X154750Y-103790
X155000Y-160000
X156000Y-165500
X156020Y-125430
X156200Y-108320
X156560Y-160544
X156960Y-133755
X157140Y-103410
X158820Y-108940
X158850Y-135390
X158910Y-164900
X159450Y-47660
X160500Y-129000
X160500Y-159500
X160560Y-108920
X160980Y-47520
X161050Y-165150
X161170Y-135320
X162100Y-108790
X163660Y-165470
X163950Y-135430
X169500Y-80500
X171460Y-47750
X172850Y-47550
T3
X55000Y-103000
X55000Y-104000
X55000Y-108000
X55000Y-109000
X59000Y-103000
X59000Y-104000
X59000Y-108000
X59000Y-109000
X60000Y-103000
X60000Y-104000
X60000Y-108000
X60000Y-109000
X63500Y-71500
X63500Y-75000
X64000Y-105000
X64000Y-108000
X64500Y-71500
X64500Y-75000
X65000Y-105000
X65000Y-108000
X65220Y-93430
X65500Y-71500
X65500Y-75000
X65500Y-86500
X66000Y-105000
X66000Y-108000
X66500Y-71500
X66500Y-75000
X67000Y-105000
X67000Y-108000
X67500Y-71500
X67500Y-75000
X68000Y-105000
X68000Y-108000
X68500Y-71500
X68500Y-75000
X69000Y-105000
X69000Y-108000
X69500Y-71500
X69500Y-75000
X70000Y-105000
X70000Y-108000
X70500Y-71500
X70500Y-75000
X71000Y-105000
X71000Y-108000
X71500Y-71500
X71500Y-75000
X72000Y-105000
X72000Y-108000
X72500Y-71500
X72500Y-75000
X73000Y-105000
X73000Y-108000
X73500Y-71500
X73500Y-75000
X74000Y-105000
X74000Y-108000
X74500Y-71500
X74500Y-75000
X75000Y-105000
X75000Y-108000
X75500Y-71500
X75500Y-75000
X76000Y-105000
X76000Y-108000
X76500Y-71500
X76500Y-75000
X77000Y-105000
X77000Y-108000
X77500Y-71500
X77500Y-75000
X77657Y-86466
X78390Y-94070
X78500Y-102000
X114450Y-82980
X139500Y-80500
X146500Y-80500
X152500Y-80500
X164500Y-80500
T4
X115190Y-69680
X116260Y-115890
X116320Y-110870
X118880Y-110801
X118880Y-112293
X139270Y-42090
X150130Y-42090
X165000Y-42090
X176850Y-42090
X87250Y-116250
X87250Y-118750
T5
X97460Y-34380
X97460Y-36920
X97460Y-39460
X97460Y-42000
X100000Y-34380
X100000Y-36920
X100000Y-39460
X100000Y-42000
X184380Y-79230
X184380Y-81770
X184380Y-84310
X184380Y-86850
X184380Y-89390
X184380Y-91930
X184380Y-94470
X184380Y-97010
X184380Y-99550
X184380Y-102090
X184380Y-104630
X186920Y-79230
X186920Y-81770
X186920Y-84310
X186920Y-86850
X186920Y-89390
X186920Y-91930
X186920Y-94470
X186920Y-97010
X186920Y-99550
X186920Y-102090
X186920Y-104630
X108460Y-34380
X108460Y-36920
X108460Y-39460
X108460Y-42000
X111000Y-34380
X111000Y-36920
X111000Y-39460
X111000Y-42000
X78460Y-34380
X78460Y-36920
X78460Y-39460
X78460Y-42000
X81000Y-34380
X81000Y-36920
X81000Y-39460
X81000Y-42000
X119460Y-34380
X119460Y-36920
X119460Y-39460
X119460Y-42000
X122000Y-34380
X122000Y-36920
X122000Y-39460
X122000Y-42000
X67460Y-34290
X67460Y-36830
X67460Y-39370
X67460Y-41910
X70000Y-34290
X70000Y-36830
X70000Y-39370
X70000Y-41910
X56460Y-34380
X56460Y-36920
X56460Y-39460
X56460Y-42000
X59000Y-34380
X59000Y-36920
X59000Y-39460
X59000Y-42000
X184320Y-66420
X184320Y-68960
X184320Y-71500
X184320Y-74040
X186860Y-66420
X186860Y-68960
X186860Y-71500
X186860Y-74040
T6
X116690Y-28500
X120500Y-28500
X94690Y-28500
X98500Y-28500
X53690Y-28500
X57500Y-28500
X64690Y-28500
X68500Y-28500
X75690Y-28500
X79500Y-28500
X105690Y-28500
X109500Y-28500
X57000Y-103000
X57000Y-108000
X55500Y-62500
X60500Y-62500
T7
X49500Y-72500
X49500Y-77580
X49500Y-82660
X49500Y-87740
X49500Y-92820
X49500Y-97900
X150180Y-30100
X155260Y-30100
X135460Y-30100
X140540Y-30100
X184410Y-41950
X184410Y-46950
X164450Y-30100
X169530Y-30100
X178440Y-30010
X183520Y-30010
T8
X56900Y-127300
X56900Y-133000
X62600Y-127300
X62600Y-133000
X68300Y-127300
X68300Y-132950
X74000Y-127300
X74000Y-133000
T0
M30
