%FSLAX45Y45*%
G04 Gerber Fmt 4.5, Leading zero omitted, Abs format (unit mm)*
G04 Created by KiCad (PCBNEW 5.1.12-84ad8e8a86~92~ubuntu20.04.1) date 2022-05-26 21:25:54*
%MOMM*%
%LPD*%
G01*
G04 APERTURE LIST*
%TA.AperFunction,Profile*%
%ADD10C,0.300000*%
%TD*%
%ADD11C,0.200000*%
%ADD12C,0.300000*%
G04 APERTURE END LIST*
D10*
X10045000Y-3508000D02*
G75*
G02*
X9945000Y-3608000I-100000J0D01*
G01*
X9845000Y-3708000D02*
G75*
G02*
X9945000Y-3608000I100000J0D01*
G01*
X10045000Y-3508000D02*
X10045000Y-3008000D01*
X9845000Y-3708000D02*
X9845000Y-5958000D01*
X10045000Y-3008000D02*
X12545000Y-3008000D01*
X12545000Y-3008000D02*
X12545000Y-3508000D01*
X12645000Y-3608000D02*
G75*
G02*
X12545000Y-3508000I0J100000D01*
G01*
X12645000Y-3608000D02*
G75*
G02*
X12745000Y-3708000I0J-100000D01*
G01*
X12745000Y-3708000D02*
X12745000Y-5958000D01*
X12745000Y-5958000D02*
X9845000Y-5958000D01*
D11*
X10263698Y-3304606D02*
X10303698Y-3344606D01*
X10303698Y-3304606D02*
X10263698Y-3344606D01*
X10264460Y-3416366D02*
X10304460Y-3456366D01*
X10304460Y-3416366D02*
X10264460Y-3456366D01*
X10264968Y-3200720D02*
X10304968Y-3240720D01*
X10304968Y-3200720D02*
X10264968Y-3240720D01*
X10265222Y-3513140D02*
X10305222Y-3553140D01*
X10305222Y-3513140D02*
X10265222Y-3553140D01*
X10366822Y-3199450D02*
X10406822Y-3239450D01*
X10406822Y-3199450D02*
X10366822Y-3239450D01*
X10367076Y-3307654D02*
X10407076Y-3347654D01*
X10407076Y-3307654D02*
X10367076Y-3347654D01*
X10369362Y-3421192D02*
X10409362Y-3461192D01*
X10409362Y-3421192D02*
X10369362Y-3461192D01*
X10372664Y-3519744D02*
X10412664Y-3559744D01*
X10412664Y-3519744D02*
X10372664Y-3559744D01*
X10470454Y-3196656D02*
X10510454Y-3236656D01*
X10510454Y-3196656D02*
X10470454Y-3236656D01*
X10472740Y-3306130D02*
X10512740Y-3346130D01*
X10512740Y-3306130D02*
X10472740Y-3346130D01*
X10472740Y-3422716D02*
X10512740Y-3462716D01*
X10512740Y-3422716D02*
X10472740Y-3462716D01*
X10478836Y-3521014D02*
X10518836Y-3561014D01*
X10518836Y-3521014D02*
X10478836Y-3561014D01*
X10571038Y-3194116D02*
X10611038Y-3234116D01*
X10611038Y-3194116D02*
X10571038Y-3234116D01*
X10574594Y-3307654D02*
X10614594Y-3347654D01*
X10614594Y-3307654D02*
X10574594Y-3347654D01*
X10580690Y-3425002D02*
X10620690Y-3465002D01*
X10620690Y-3425002D02*
X10580690Y-3465002D01*
X10583484Y-3522538D02*
X10623484Y-3562538D01*
X10623484Y-3522538D02*
X10583484Y-3562538D01*
X10766872Y-5492308D02*
X10806872Y-5532308D01*
X10806872Y-5492308D02*
X10766872Y-5532308D01*
X11742994Y-4779584D02*
X11782994Y-4819584D01*
X11782994Y-4779584D02*
X11742994Y-4819584D01*
X12017060Y-3190560D02*
X12057060Y-3230560D01*
X12057060Y-3190560D02*
X12017060Y-3230560D01*
X12021124Y-3298002D02*
X12061124Y-3338002D01*
X12061124Y-3298002D02*
X12021124Y-3338002D01*
X12026458Y-3404174D02*
X12066458Y-3444174D01*
X12066458Y-3404174D02*
X12026458Y-3444174D01*
X12028744Y-3509584D02*
X12068744Y-3549584D01*
X12068744Y-3509584D02*
X12028744Y-3549584D01*
X12113834Y-3186496D02*
X12153834Y-3226496D01*
X12153834Y-3186496D02*
X12113834Y-3226496D01*
X12117898Y-3299272D02*
X12157898Y-3339272D01*
X12157898Y-3299272D02*
X12117898Y-3339272D01*
X12124756Y-3401380D02*
X12164756Y-3441380D01*
X12164756Y-3401380D02*
X12124756Y-3441380D01*
X12133646Y-3514410D02*
X12173646Y-3554410D01*
X12173646Y-3514410D02*
X12133646Y-3554410D01*
X12217212Y-3189036D02*
X12257212Y-3229036D01*
X12257212Y-3189036D02*
X12217212Y-3229036D01*
X12224070Y-3302066D02*
X12264070Y-3342066D01*
X12264070Y-3302066D02*
X12224070Y-3342066D01*
X12224070Y-3401380D02*
X12264070Y-3441380D01*
X12264070Y-3401380D02*
X12224070Y-3441380D01*
X12234992Y-3512886D02*
X12274992Y-3552886D01*
X12274992Y-3512886D02*
X12234992Y-3552886D01*
X12318050Y-3189036D02*
X12358050Y-3229036D01*
X12358050Y-3189036D02*
X12318050Y-3229036D01*
X12320844Y-3400110D02*
X12360844Y-3440110D01*
X12360844Y-3400110D02*
X12320844Y-3440110D01*
X12322114Y-3302066D02*
X12362114Y-3342066D01*
X12362114Y-3302066D02*
X12322114Y-3342066D01*
X12330242Y-3519236D02*
X12370242Y-3559236D01*
X12370242Y-3519236D02*
X12330242Y-3559236D01*
X12334560Y-5157790D02*
X12374560Y-5197790D01*
X12374560Y-5157790D02*
X12334560Y-5197790D01*
X12336084Y-5265486D02*
X12376084Y-5305486D01*
X12376084Y-5265486D02*
X12336084Y-5305486D01*
X12340910Y-5376738D02*
X12380910Y-5416738D01*
X12380910Y-5376738D02*
X12340910Y-5416738D01*
X12344212Y-5484688D02*
X12384212Y-5524688D01*
X12384212Y-5484688D02*
X12344212Y-5524688D01*
X12476546Y-5265486D02*
X12516546Y-5305486D01*
X12516546Y-5265486D02*
X12476546Y-5305486D01*
X12476800Y-5157790D02*
X12516800Y-5197790D01*
X12516800Y-5157790D02*
X12476800Y-5197790D01*
X12479594Y-5373436D02*
X12519594Y-5413436D01*
X12519594Y-5373436D02*
X12479594Y-5413436D01*
X12481372Y-5481386D02*
X12521372Y-5521386D01*
X12521372Y-5481386D02*
X12481372Y-5521386D01*
D12*
X10116428Y-6438714D02*
X10116428Y-6138714D01*
X10187857Y-6138714D01*
X10230714Y-6153000D01*
X10259286Y-6181571D01*
X10273571Y-6210143D01*
X10287857Y-6267286D01*
X10287857Y-6310143D01*
X10273571Y-6367286D01*
X10259286Y-6395857D01*
X10230714Y-6424429D01*
X10187857Y-6438714D01*
X10116428Y-6438714D01*
X10416428Y-6438714D02*
X10416428Y-6238714D01*
X10416428Y-6295857D02*
X10430714Y-6267286D01*
X10445000Y-6253000D01*
X10473571Y-6238714D01*
X10502143Y-6238714D01*
X10602143Y-6438714D02*
X10602143Y-6238714D01*
X10602143Y-6138714D02*
X10587857Y-6153000D01*
X10602143Y-6167286D01*
X10616428Y-6153000D01*
X10602143Y-6138714D01*
X10602143Y-6167286D01*
X10787857Y-6438714D02*
X10759286Y-6424429D01*
X10745000Y-6395857D01*
X10745000Y-6138714D01*
X10945000Y-6438714D02*
X10916428Y-6424429D01*
X10902143Y-6395857D01*
X10902143Y-6138714D01*
X11287857Y-6438714D02*
X11287857Y-6138714D01*
X11387857Y-6353000D01*
X11487857Y-6138714D01*
X11487857Y-6438714D01*
X11759286Y-6438714D02*
X11759286Y-6281571D01*
X11745000Y-6253000D01*
X11716428Y-6238714D01*
X11659286Y-6238714D01*
X11630714Y-6253000D01*
X11759286Y-6424429D02*
X11730714Y-6438714D01*
X11659286Y-6438714D01*
X11630714Y-6424429D01*
X11616428Y-6395857D01*
X11616428Y-6367286D01*
X11630714Y-6338714D01*
X11659286Y-6324429D01*
X11730714Y-6324429D01*
X11759286Y-6310143D01*
X11902143Y-6238714D02*
X11902143Y-6538714D01*
X11902143Y-6253000D02*
X11930714Y-6238714D01*
X11987857Y-6238714D01*
X12016428Y-6253000D01*
X12030714Y-6267286D01*
X12045000Y-6295857D01*
X12045000Y-6381571D01*
X12030714Y-6410143D01*
X12016428Y-6424429D01*
X11987857Y-6438714D01*
X11930714Y-6438714D01*
X11902143Y-6424429D01*
X12173571Y-6410143D02*
X12187857Y-6424429D01*
X12173571Y-6438714D01*
X12159286Y-6424429D01*
X12173571Y-6410143D01*
X12173571Y-6438714D01*
X12173571Y-6253000D02*
X12187857Y-6267286D01*
X12173571Y-6281571D01*
X12159286Y-6267286D01*
X12173571Y-6253000D01*
X12173571Y-6281571D01*
X9790000Y-6913000D02*
X9830000Y-6953000D01*
X9830000Y-6913000D02*
X9790000Y-6953000D01*
X10173571Y-6768714D02*
X10202143Y-6768714D01*
X10230714Y-6783000D01*
X10245000Y-6797286D01*
X10259286Y-6825857D01*
X10273571Y-6883000D01*
X10273571Y-6954429D01*
X10259286Y-7011571D01*
X10245000Y-7040143D01*
X10230714Y-7054429D01*
X10202143Y-7068714D01*
X10173571Y-7068714D01*
X10145000Y-7054429D01*
X10130714Y-7040143D01*
X10116428Y-7011571D01*
X10102143Y-6954429D01*
X10102143Y-6883000D01*
X10116428Y-6825857D01*
X10130714Y-6797286D01*
X10145000Y-6783000D01*
X10173571Y-6768714D01*
X10402143Y-7040143D02*
X10416428Y-7054429D01*
X10402143Y-7068714D01*
X10387857Y-7054429D01*
X10402143Y-7040143D01*
X10402143Y-7068714D01*
X10673571Y-6868714D02*
X10673571Y-7068714D01*
X10602143Y-6754429D02*
X10530714Y-6968714D01*
X10716428Y-6968714D01*
X10887857Y-6768714D02*
X10916428Y-6768714D01*
X10945000Y-6783000D01*
X10959286Y-6797286D01*
X10973571Y-6825857D01*
X10987857Y-6883000D01*
X10987857Y-6954429D01*
X10973571Y-7011571D01*
X10959286Y-7040143D01*
X10945000Y-7054429D01*
X10916428Y-7068714D01*
X10887857Y-7068714D01*
X10859286Y-7054429D01*
X10845000Y-7040143D01*
X10830714Y-7011571D01*
X10816428Y-6954429D01*
X10816428Y-6883000D01*
X10830714Y-6825857D01*
X10845000Y-6797286D01*
X10859286Y-6783000D01*
X10887857Y-6768714D01*
X11173571Y-6768714D02*
X11202143Y-6768714D01*
X11230714Y-6783000D01*
X11245000Y-6797286D01*
X11259286Y-6825857D01*
X11273571Y-6883000D01*
X11273571Y-6954429D01*
X11259286Y-7011571D01*
X11245000Y-7040143D01*
X11230714Y-7054429D01*
X11202143Y-7068714D01*
X11173571Y-7068714D01*
X11145000Y-7054429D01*
X11130714Y-7040143D01*
X11116428Y-7011571D01*
X11102143Y-6954429D01*
X11102143Y-6883000D01*
X11116428Y-6825857D01*
X11130714Y-6797286D01*
X11145000Y-6783000D01*
X11173571Y-6768714D01*
X11402143Y-7068714D02*
X11402143Y-6868714D01*
X11402143Y-6897286D02*
X11416428Y-6883000D01*
X11445000Y-6868714D01*
X11487857Y-6868714D01*
X11516428Y-6883000D01*
X11530714Y-6911571D01*
X11530714Y-7068714D01*
X11530714Y-6911571D02*
X11545000Y-6883000D01*
X11573571Y-6868714D01*
X11616428Y-6868714D01*
X11645000Y-6883000D01*
X11659286Y-6911571D01*
X11659286Y-7068714D01*
X11802143Y-7068714D02*
X11802143Y-6868714D01*
X11802143Y-6897286D02*
X11816428Y-6883000D01*
X11845000Y-6868714D01*
X11887857Y-6868714D01*
X11916428Y-6883000D01*
X11930714Y-6911571D01*
X11930714Y-7068714D01*
X11930714Y-6911571D02*
X11945000Y-6883000D01*
X11973571Y-6868714D01*
X12016428Y-6868714D01*
X12045000Y-6883000D01*
X12059286Y-6911571D01*
X12059286Y-7068714D01*
X12645000Y-6754429D02*
X12387857Y-7140143D01*
X13030714Y-6768714D02*
X13059286Y-6768714D01*
X13087857Y-6783000D01*
X13102143Y-6797286D01*
X13116428Y-6825857D01*
X13130714Y-6883000D01*
X13130714Y-6954429D01*
X13116428Y-7011571D01*
X13102143Y-7040143D01*
X13087857Y-7054429D01*
X13059286Y-7068714D01*
X13030714Y-7068714D01*
X13002143Y-7054429D01*
X12987857Y-7040143D01*
X12973571Y-7011571D01*
X12959286Y-6954429D01*
X12959286Y-6883000D01*
X12973571Y-6825857D01*
X12987857Y-6797286D01*
X13002143Y-6783000D01*
X13030714Y-6768714D01*
X13259286Y-7040143D02*
X13273571Y-7054429D01*
X13259286Y-7068714D01*
X13245000Y-7054429D01*
X13259286Y-7040143D01*
X13259286Y-7068714D01*
X13459286Y-6768714D02*
X13487857Y-6768714D01*
X13516428Y-6783000D01*
X13530714Y-6797286D01*
X13545000Y-6825857D01*
X13559286Y-6883000D01*
X13559286Y-6954429D01*
X13545000Y-7011571D01*
X13530714Y-7040143D01*
X13516428Y-7054429D01*
X13487857Y-7068714D01*
X13459286Y-7068714D01*
X13430714Y-7054429D01*
X13416428Y-7040143D01*
X13402143Y-7011571D01*
X13387857Y-6954429D01*
X13387857Y-6883000D01*
X13402143Y-6825857D01*
X13416428Y-6797286D01*
X13430714Y-6783000D01*
X13459286Y-6768714D01*
X13845000Y-7068714D02*
X13673571Y-7068714D01*
X13759286Y-7068714D02*
X13759286Y-6768714D01*
X13730714Y-6811571D01*
X13702143Y-6840143D01*
X13673571Y-6854429D01*
X14116428Y-6768714D02*
X13973571Y-6768714D01*
X13959286Y-6911571D01*
X13973571Y-6897286D01*
X14002143Y-6883000D01*
X14073571Y-6883000D01*
X14102143Y-6897286D01*
X14116428Y-6911571D01*
X14130714Y-6940143D01*
X14130714Y-7011571D01*
X14116428Y-7040143D01*
X14102143Y-7054429D01*
X14073571Y-7068714D01*
X14002143Y-7068714D01*
X13973571Y-7054429D01*
X13959286Y-7040143D01*
X14230714Y-6768714D02*
X14430714Y-6768714D01*
X14302143Y-7068714D01*
X14530714Y-6768714D02*
X14530714Y-6825857D01*
X14645000Y-6768714D02*
X14645000Y-6825857D01*
X15087857Y-7183000D02*
X15073571Y-7168714D01*
X15045000Y-7125857D01*
X15030714Y-7097286D01*
X15016428Y-7054429D01*
X15002143Y-6983000D01*
X15002143Y-6925857D01*
X15016428Y-6854429D01*
X15030714Y-6811571D01*
X15045000Y-6783000D01*
X15073571Y-6740143D01*
X15087857Y-6725857D01*
X15330714Y-6868714D02*
X15330714Y-7068714D01*
X15259286Y-6754429D02*
X15187857Y-6968714D01*
X15373571Y-6968714D01*
X15473571Y-6797286D02*
X15487857Y-6783000D01*
X15516428Y-6768714D01*
X15587857Y-6768714D01*
X15616428Y-6783000D01*
X15630714Y-6797286D01*
X15645000Y-6825857D01*
X15645000Y-6854429D01*
X15630714Y-6897286D01*
X15459286Y-7068714D01*
X15645000Y-7068714D01*
X16002143Y-7068714D02*
X16002143Y-6768714D01*
X16130714Y-7068714D02*
X16130714Y-6911571D01*
X16116428Y-6883000D01*
X16087857Y-6868714D01*
X16045000Y-6868714D01*
X16016428Y-6883000D01*
X16002143Y-6897286D01*
X16316428Y-7068714D02*
X16287857Y-7054429D01*
X16273571Y-7040143D01*
X16259286Y-7011571D01*
X16259286Y-6925857D01*
X16273571Y-6897286D01*
X16287857Y-6883000D01*
X16316428Y-6868714D01*
X16359286Y-6868714D01*
X16387857Y-6883000D01*
X16402143Y-6897286D01*
X16416428Y-6925857D01*
X16416428Y-7011571D01*
X16402143Y-7040143D01*
X16387857Y-7054429D01*
X16359286Y-7068714D01*
X16316428Y-7068714D01*
X16587857Y-7068714D02*
X16559286Y-7054429D01*
X16545000Y-7025857D01*
X16545000Y-6768714D01*
X16816428Y-7054429D02*
X16787857Y-7068714D01*
X16730714Y-7068714D01*
X16702143Y-7054429D01*
X16687857Y-7025857D01*
X16687857Y-6911571D01*
X16702143Y-6883000D01*
X16730714Y-6868714D01*
X16787857Y-6868714D01*
X16816428Y-6883000D01*
X16830714Y-6911571D01*
X16830714Y-6940143D01*
X16687857Y-6968714D01*
X16945000Y-7054429D02*
X16973571Y-7068714D01*
X17030714Y-7068714D01*
X17059286Y-7054429D01*
X17073571Y-7025857D01*
X17073571Y-7011571D01*
X17059286Y-6983000D01*
X17030714Y-6968714D01*
X16987857Y-6968714D01*
X16959286Y-6954429D01*
X16945000Y-6925857D01*
X16945000Y-6911571D01*
X16959286Y-6883000D01*
X16987857Y-6868714D01*
X17030714Y-6868714D01*
X17059286Y-6883000D01*
X17173571Y-7183000D02*
X17187857Y-7168714D01*
X17216428Y-7125857D01*
X17230714Y-7097286D01*
X17245000Y-7054429D01*
X17259286Y-6983000D01*
X17259286Y-6925857D01*
X17245000Y-6854429D01*
X17230714Y-6811571D01*
X17216428Y-6783000D01*
X17187857Y-6740143D01*
X17173571Y-6725857D01*
M02*
