M48
; DRILL file {KiCad 5.1.12-84ad8e8a86~92~ubuntu20.04.1} date mar 01 feb 2022 22:15:26
; FORMAT={3:3/ absolute / metric / suppress leading zeros}
; #@! TF.CreationDate,2022-02-01T22:15:26-05:00
; #@! TF.GenerationSoftware,Kicad,Pcbnew,5.1.12-84ad8e8a86~92~ubuntu20.04.1
; #@! TF.FileFunction,Plated,1,4,PTH
FMAT,2
METRIC,TZ
T1C0.400
%
G90
G05
T1
X102837Y-33246
X102845Y-34364
X102850Y-32207
X102852Y-35331
X103868Y-32195
X103871Y-33277
X103894Y-34412
X103927Y-35397
X104905Y-32167
X104927Y-33261
X104927Y-34427
X104988Y-35410
X105910Y-32141
X105946Y-33277
X106007Y-34450
X106035Y-35425
X107869Y-55123
X117630Y-47996
X120371Y-32106
X120411Y-33180
X120465Y-34242
X120487Y-35296
X121338Y-32065
X121379Y-33193
X121448Y-34214
X121536Y-35344
X122372Y-32090
X122441Y-33221
X122441Y-34214
X122550Y-35329
X123381Y-32090
X123408Y-34201
X123421Y-33221
X123502Y-35392
X123546Y-51778
X123561Y-52855
X123609Y-53967
X123642Y-55047
X124965Y-52855
X124968Y-51778
X124996Y-53934
X125014Y-55014
T0
M30
