G04 #@! TF.GenerationSoftware,KiCad,Pcbnew,5.1.12-84ad8e8a86~92~ubuntu20.04.1*
G04 #@! TF.CreationDate,2022-05-26T21:25:47-05:00*
G04 #@! TF.ProjectId,403SFM3020_sensor_module,34303353-464d-4333-9032-305f73656e73,rev?*
G04 #@! TF.SameCoordinates,Original*
G04 #@! TF.FileFunction,Copper,L1,Top*
G04 #@! TF.FilePolarity,Positive*
%FSLAX46Y46*%
G04 Gerber Fmt 4.6, Leading zero omitted, Abs format (unit mm)*
G04 Created by KiCad (PCBNEW 5.1.12-84ad8e8a86~92~ubuntu20.04.1) date 2022-05-26 21:25:47*
%MOMM*%
%LPD*%
G01*
G04 APERTURE LIST*
G04 #@! TA.AperFunction,SMDPad,CuDef*
%ADD10R,1.200000X2.200000*%
G04 #@! TD*
G04 #@! TA.AperFunction,SMDPad,CuDef*
%ADD11R,2.000000X4.200000*%
G04 #@! TD*
G04 #@! TA.AperFunction,ViaPad*
%ADD12C,0.800000*%
G04 #@! TD*
G04 #@! TA.AperFunction,Conductor*
%ADD13C,0.300000*%
G04 #@! TD*
G04 #@! TA.AperFunction,Conductor*
%ADD14C,0.500000*%
G04 #@! TD*
G04 #@! TA.AperFunction,Conductor*
%ADD15C,0.254000*%
G04 #@! TD*
G04 #@! TA.AperFunction,Conductor*
%ADD16C,0.100000*%
G04 #@! TD*
G04 APERTURE END LIST*
D10*
X109806480Y-48452460D03*
X111806480Y-48452460D03*
X113806480Y-48452460D03*
X115806480Y-48452460D03*
D11*
X119406480Y-42872460D03*
X106206480Y-42872460D03*
D12*
X102849680Y-32207200D03*
X103868220Y-32194500D03*
X104904540Y-32166560D03*
X105910380Y-32141160D03*
X102836980Y-33246060D03*
X103870760Y-33276540D03*
X104927400Y-33261300D03*
X105945940Y-33276540D03*
X102844600Y-34363660D03*
X103893620Y-34411920D03*
X104927400Y-34427160D03*
X106006900Y-34450020D03*
X120370600Y-32105600D03*
X121338340Y-32064960D03*
X122372120Y-32090360D03*
X123380500Y-32090360D03*
X120411240Y-33180020D03*
X121378980Y-33192720D03*
X122440700Y-33220660D03*
X123421140Y-33220660D03*
X120464580Y-34241740D03*
X121447560Y-34213800D03*
X122440700Y-34213800D03*
X123408440Y-34201100D03*
X123545600Y-51777900D03*
X124968000Y-51777900D03*
X123560840Y-52854860D03*
X124965460Y-52854860D03*
X123609100Y-53967380D03*
X124995940Y-53934360D03*
X123642120Y-55046880D03*
X125013720Y-55013860D03*
X102852220Y-35331400D03*
X103926640Y-35397440D03*
X104988360Y-35410140D03*
X106034840Y-35425380D03*
X120487440Y-35295840D03*
X121536460Y-35344100D03*
X122549920Y-35328860D03*
X123502420Y-35392360D03*
X117629940Y-47995840D03*
X107868720Y-55123080D03*
D13*
X117173320Y-48452460D02*
X117629940Y-47995840D01*
X115806480Y-48452460D02*
X117173320Y-48452460D01*
D14*
X111806480Y-51185320D02*
X107868720Y-55123080D01*
X111806480Y-48452460D02*
X111806480Y-51185320D01*
D15*
X124973001Y-35103423D02*
X124975030Y-35124025D01*
X124974987Y-35130214D01*
X124975637Y-35136842D01*
X124996038Y-35330939D01*
X125004734Y-35373303D01*
X125012832Y-35415755D01*
X125014756Y-35422126D01*
X125014757Y-35422132D01*
X125014759Y-35422138D01*
X125072469Y-35608568D01*
X125089220Y-35648418D01*
X125105417Y-35688508D01*
X125108542Y-35694384D01*
X125108544Y-35694389D01*
X125108547Y-35694393D01*
X125201369Y-35866065D01*
X125225564Y-35901936D01*
X125249218Y-35938084D01*
X125253420Y-35943236D01*
X125253426Y-35943244D01*
X125253433Y-35943251D01*
X125377832Y-36093623D01*
X125408498Y-36124076D01*
X125438756Y-36154975D01*
X125443882Y-36159214D01*
X125443888Y-36159220D01*
X125443895Y-36159224D01*
X125595130Y-36282569D01*
X125631133Y-36306489D01*
X125666812Y-36330920D01*
X125672666Y-36334084D01*
X125672670Y-36334087D01*
X125672674Y-36334089D01*
X125844993Y-36425712D01*
X125884972Y-36442190D01*
X125924700Y-36459218D01*
X125931056Y-36461185D01*
X125931063Y-36461188D01*
X125931070Y-36461189D01*
X126117898Y-36517597D01*
X126160337Y-36526000D01*
X126202595Y-36534983D01*
X126209212Y-36535677D01*
X126209220Y-36535679D01*
X126209228Y-36535679D01*
X126403452Y-36554723D01*
X126551139Y-36569204D01*
X126648432Y-36598579D01*
X126738159Y-36646287D01*
X126816911Y-36710517D01*
X126881690Y-36788820D01*
X126930026Y-36878216D01*
X126960077Y-36975296D01*
X126973000Y-37098248D01*
X126973001Y-59103000D01*
X98927000Y-59103000D01*
X98927000Y-55051477D01*
X107141720Y-55051477D01*
X107141720Y-55194683D01*
X107169658Y-55335138D01*
X107224461Y-55467444D01*
X107304022Y-55586516D01*
X107405284Y-55687778D01*
X107524356Y-55767339D01*
X107656662Y-55822142D01*
X107797117Y-55850080D01*
X107940323Y-55850080D01*
X108080778Y-55822142D01*
X108213084Y-55767339D01*
X108332156Y-55687778D01*
X108433418Y-55586516D01*
X108512979Y-55467444D01*
X108567782Y-55335138D01*
X108591400Y-55216401D01*
X112194442Y-51613359D01*
X112216454Y-51595294D01*
X112288559Y-51507435D01*
X112328296Y-51433092D01*
X112342137Y-51407197D01*
X112375131Y-51298432D01*
X112386271Y-51185320D01*
X112383480Y-51156981D01*
X112383480Y-49881042D01*
X112406480Y-49881042D01*
X112470583Y-49874728D01*
X112532223Y-49856030D01*
X112589030Y-49825666D01*
X112619241Y-49800873D01*
X112675943Y-49906954D01*
X112755295Y-50003645D01*
X112851986Y-50082997D01*
X112962300Y-50141962D01*
X113081998Y-50178272D01*
X113206480Y-50190532D01*
X113520730Y-50187460D01*
X113679480Y-50028710D01*
X113679480Y-48579460D01*
X113659480Y-48579460D01*
X113659480Y-48325460D01*
X113679480Y-48325460D01*
X113679480Y-46876210D01*
X113933480Y-46876210D01*
X113933480Y-48325460D01*
X113953480Y-48325460D01*
X113953480Y-48579460D01*
X113933480Y-48579460D01*
X113933480Y-50028710D01*
X114092230Y-50187460D01*
X114406480Y-50190532D01*
X114530962Y-50178272D01*
X114650660Y-50141962D01*
X114760974Y-50082997D01*
X114857665Y-50003645D01*
X114937017Y-49906954D01*
X114993719Y-49800873D01*
X115023930Y-49825666D01*
X115080737Y-49856030D01*
X115142377Y-49874728D01*
X115206480Y-49881042D01*
X116406480Y-49881042D01*
X116470583Y-49874728D01*
X116532223Y-49856030D01*
X116589030Y-49825666D01*
X116638823Y-49784803D01*
X116679686Y-49735010D01*
X116710050Y-49678203D01*
X116728748Y-49616563D01*
X116735062Y-49552460D01*
X116735062Y-48929460D01*
X117149905Y-48929460D01*
X117173320Y-48931766D01*
X117196735Y-48929460D01*
X117196743Y-48929460D01*
X117266828Y-48922557D01*
X117356743Y-48895282D01*
X117439609Y-48850989D01*
X117512241Y-48791381D01*
X117527175Y-48773184D01*
X117577519Y-48722840D01*
X117701543Y-48722840D01*
X117841998Y-48694902D01*
X117974304Y-48640099D01*
X118093376Y-48560538D01*
X118194638Y-48459276D01*
X118274199Y-48340204D01*
X118329002Y-48207898D01*
X118356940Y-48067443D01*
X118356940Y-47924237D01*
X118329002Y-47783782D01*
X118274199Y-47651476D01*
X118194638Y-47532404D01*
X118093376Y-47431142D01*
X117974304Y-47351581D01*
X117841998Y-47296778D01*
X117701543Y-47268840D01*
X117558337Y-47268840D01*
X117417882Y-47296778D01*
X117285576Y-47351581D01*
X117166504Y-47431142D01*
X117065242Y-47532404D01*
X116985681Y-47651476D01*
X116930878Y-47783782D01*
X116902940Y-47924237D01*
X116902940Y-47975460D01*
X116735062Y-47975460D01*
X116735062Y-47352460D01*
X116728748Y-47288357D01*
X116710050Y-47226717D01*
X116679686Y-47169910D01*
X116638823Y-47120117D01*
X116589030Y-47079254D01*
X116532223Y-47048890D01*
X116470583Y-47030192D01*
X116406480Y-47023878D01*
X115206480Y-47023878D01*
X115142377Y-47030192D01*
X115080737Y-47048890D01*
X115023930Y-47079254D01*
X114993719Y-47104047D01*
X114937017Y-46997966D01*
X114857665Y-46901275D01*
X114760974Y-46821923D01*
X114650660Y-46762958D01*
X114530962Y-46726648D01*
X114406480Y-46714388D01*
X114092230Y-46717460D01*
X113933480Y-46876210D01*
X113679480Y-46876210D01*
X113520730Y-46717460D01*
X113206480Y-46714388D01*
X113081998Y-46726648D01*
X112962300Y-46762958D01*
X112851986Y-46821923D01*
X112755295Y-46901275D01*
X112675943Y-46997966D01*
X112619241Y-47104047D01*
X112589030Y-47079254D01*
X112532223Y-47048890D01*
X112470583Y-47030192D01*
X112406480Y-47023878D01*
X111206480Y-47023878D01*
X111142377Y-47030192D01*
X111080737Y-47048890D01*
X111023930Y-47079254D01*
X110974137Y-47120117D01*
X110933274Y-47169910D01*
X110902910Y-47226717D01*
X110884212Y-47288357D01*
X110877898Y-47352460D01*
X110877898Y-49552460D01*
X110884212Y-49616563D01*
X110902910Y-49678203D01*
X110933274Y-49735010D01*
X110974137Y-49784803D01*
X111023930Y-49825666D01*
X111080737Y-49856030D01*
X111142377Y-49874728D01*
X111206480Y-49881042D01*
X111229481Y-49881042D01*
X111229481Y-50946318D01*
X107775399Y-54400400D01*
X107656662Y-54424018D01*
X107524356Y-54478821D01*
X107405284Y-54558382D01*
X107304022Y-54659644D01*
X107224461Y-54778716D01*
X107169658Y-54911022D01*
X107141720Y-55051477D01*
X98927000Y-55051477D01*
X98927000Y-47352460D01*
X108877898Y-47352460D01*
X108877898Y-49552460D01*
X108884212Y-49616563D01*
X108902910Y-49678203D01*
X108933274Y-49735010D01*
X108974137Y-49784803D01*
X109023930Y-49825666D01*
X109080737Y-49856030D01*
X109142377Y-49874728D01*
X109206480Y-49881042D01*
X110406480Y-49881042D01*
X110470583Y-49874728D01*
X110532223Y-49856030D01*
X110589030Y-49825666D01*
X110638823Y-49784803D01*
X110679686Y-49735010D01*
X110710050Y-49678203D01*
X110728748Y-49616563D01*
X110735062Y-49552460D01*
X110735062Y-47352460D01*
X110728748Y-47288357D01*
X110710050Y-47226717D01*
X110679686Y-47169910D01*
X110638823Y-47120117D01*
X110589030Y-47079254D01*
X110532223Y-47048890D01*
X110470583Y-47030192D01*
X110406480Y-47023878D01*
X109206480Y-47023878D01*
X109142377Y-47030192D01*
X109080737Y-47048890D01*
X109023930Y-47079254D01*
X108974137Y-47120117D01*
X108933274Y-47169910D01*
X108902910Y-47226717D01*
X108884212Y-47288357D01*
X108877898Y-47352460D01*
X98927000Y-47352460D01*
X98927000Y-44972460D01*
X104568408Y-44972460D01*
X104580668Y-45096942D01*
X104616978Y-45216640D01*
X104675943Y-45326954D01*
X104755295Y-45423645D01*
X104851986Y-45502997D01*
X104962300Y-45561962D01*
X105081998Y-45598272D01*
X105206480Y-45610532D01*
X105920730Y-45607460D01*
X106079480Y-45448710D01*
X106079480Y-42999460D01*
X106333480Y-42999460D01*
X106333480Y-45448710D01*
X106492230Y-45607460D01*
X107206480Y-45610532D01*
X107330962Y-45598272D01*
X107450660Y-45561962D01*
X107560974Y-45502997D01*
X107657665Y-45423645D01*
X107737017Y-45326954D01*
X107795982Y-45216640D01*
X107832292Y-45096942D01*
X107844552Y-44972460D01*
X117768408Y-44972460D01*
X117780668Y-45096942D01*
X117816978Y-45216640D01*
X117875943Y-45326954D01*
X117955295Y-45423645D01*
X118051986Y-45502997D01*
X118162300Y-45561962D01*
X118281998Y-45598272D01*
X118406480Y-45610532D01*
X119120730Y-45607460D01*
X119279480Y-45448710D01*
X119279480Y-42999460D01*
X119533480Y-42999460D01*
X119533480Y-45448710D01*
X119692230Y-45607460D01*
X120406480Y-45610532D01*
X120530962Y-45598272D01*
X120650660Y-45561962D01*
X120760974Y-45502997D01*
X120857665Y-45423645D01*
X120937017Y-45326954D01*
X120995982Y-45216640D01*
X121032292Y-45096942D01*
X121044552Y-44972460D01*
X121041480Y-43158210D01*
X120882730Y-42999460D01*
X119533480Y-42999460D01*
X119279480Y-42999460D01*
X117930230Y-42999460D01*
X117771480Y-43158210D01*
X117768408Y-44972460D01*
X107844552Y-44972460D01*
X107841480Y-43158210D01*
X107682730Y-42999460D01*
X106333480Y-42999460D01*
X106079480Y-42999460D01*
X104730230Y-42999460D01*
X104571480Y-43158210D01*
X104568408Y-44972460D01*
X98927000Y-44972460D01*
X98927000Y-40772460D01*
X104568408Y-40772460D01*
X104571480Y-42586710D01*
X104730230Y-42745460D01*
X106079480Y-42745460D01*
X106079480Y-40296210D01*
X106333480Y-40296210D01*
X106333480Y-42745460D01*
X107682730Y-42745460D01*
X107841480Y-42586710D01*
X107844552Y-40772460D01*
X117768408Y-40772460D01*
X117771480Y-42586710D01*
X117930230Y-42745460D01*
X119279480Y-42745460D01*
X119279480Y-40296210D01*
X119533480Y-40296210D01*
X119533480Y-42745460D01*
X120882730Y-42745460D01*
X121041480Y-42586710D01*
X121044552Y-40772460D01*
X121032292Y-40647978D01*
X120995982Y-40528280D01*
X120937017Y-40417966D01*
X120857665Y-40321275D01*
X120760974Y-40241923D01*
X120650660Y-40182958D01*
X120530962Y-40146648D01*
X120406480Y-40134388D01*
X119692230Y-40137460D01*
X119533480Y-40296210D01*
X119279480Y-40296210D01*
X119120730Y-40137460D01*
X118406480Y-40134388D01*
X118281998Y-40146648D01*
X118162300Y-40182958D01*
X118051986Y-40241923D01*
X117955295Y-40321275D01*
X117875943Y-40417966D01*
X117816978Y-40528280D01*
X117780668Y-40647978D01*
X117768408Y-40772460D01*
X107844552Y-40772460D01*
X107832292Y-40647978D01*
X107795982Y-40528280D01*
X107737017Y-40417966D01*
X107657665Y-40321275D01*
X107560974Y-40241923D01*
X107450660Y-40182958D01*
X107330962Y-40146648D01*
X107206480Y-40134388D01*
X106492230Y-40137460D01*
X106333480Y-40296210D01*
X106079480Y-40296210D01*
X105920730Y-40137460D01*
X105206480Y-40134388D01*
X105081998Y-40146648D01*
X104962300Y-40182958D01*
X104851986Y-40241923D01*
X104755295Y-40321275D01*
X104675943Y-40417966D01*
X104616978Y-40528280D01*
X104580668Y-40647978D01*
X104568408Y-40772460D01*
X98927000Y-40772460D01*
X98927000Y-37103326D01*
X98939204Y-36978861D01*
X98968579Y-36881568D01*
X99016287Y-36791841D01*
X99080517Y-36713089D01*
X99158820Y-36648310D01*
X99248216Y-36599974D01*
X99345296Y-36569923D01*
X99487966Y-36554927D01*
X99500214Y-36555013D01*
X99506842Y-36554363D01*
X99700939Y-36533962D01*
X99743303Y-36525266D01*
X99785755Y-36517168D01*
X99792126Y-36515244D01*
X99792132Y-36515243D01*
X99792138Y-36515241D01*
X99978568Y-36457531D01*
X100018418Y-36440780D01*
X100058508Y-36424583D01*
X100064384Y-36421458D01*
X100064389Y-36421456D01*
X100064393Y-36421453D01*
X100236065Y-36328631D01*
X100271936Y-36304436D01*
X100308084Y-36280782D01*
X100313236Y-36276580D01*
X100313244Y-36276574D01*
X100313251Y-36276567D01*
X100463623Y-36152168D01*
X100494076Y-36121502D01*
X100524975Y-36091244D01*
X100529214Y-36086118D01*
X100529220Y-36086112D01*
X100529224Y-36086105D01*
X100652569Y-35934870D01*
X100676489Y-35898867D01*
X100700920Y-35863188D01*
X100704084Y-35857334D01*
X100704087Y-35857330D01*
X100704089Y-35857326D01*
X100795712Y-35685007D01*
X100812190Y-35645028D01*
X100829218Y-35605300D01*
X100831187Y-35598939D01*
X100831188Y-35598937D01*
X100831189Y-35598930D01*
X100887597Y-35412102D01*
X100896000Y-35369663D01*
X100904983Y-35327405D01*
X100905677Y-35320788D01*
X100905679Y-35320780D01*
X100905679Y-35320772D01*
X100924723Y-35126548D01*
X100924723Y-35126541D01*
X100927000Y-35103423D01*
X100927000Y-30557000D01*
X124973000Y-30557000D01*
X124973001Y-35103423D01*
G04 #@! TA.AperFunction,Conductor*
D16*
G36*
X124973001Y-35103423D02*
G01*
X124975030Y-35124025D01*
X124974987Y-35130214D01*
X124975637Y-35136842D01*
X124996038Y-35330939D01*
X125004734Y-35373303D01*
X125012832Y-35415755D01*
X125014756Y-35422126D01*
X125014757Y-35422132D01*
X125014759Y-35422138D01*
X125072469Y-35608568D01*
X125089220Y-35648418D01*
X125105417Y-35688508D01*
X125108542Y-35694384D01*
X125108544Y-35694389D01*
X125108547Y-35694393D01*
X125201369Y-35866065D01*
X125225564Y-35901936D01*
X125249218Y-35938084D01*
X125253420Y-35943236D01*
X125253426Y-35943244D01*
X125253433Y-35943251D01*
X125377832Y-36093623D01*
X125408498Y-36124076D01*
X125438756Y-36154975D01*
X125443882Y-36159214D01*
X125443888Y-36159220D01*
X125443895Y-36159224D01*
X125595130Y-36282569D01*
X125631133Y-36306489D01*
X125666812Y-36330920D01*
X125672666Y-36334084D01*
X125672670Y-36334087D01*
X125672674Y-36334089D01*
X125844993Y-36425712D01*
X125884972Y-36442190D01*
X125924700Y-36459218D01*
X125931056Y-36461185D01*
X125931063Y-36461188D01*
X125931070Y-36461189D01*
X126117898Y-36517597D01*
X126160337Y-36526000D01*
X126202595Y-36534983D01*
X126209212Y-36535677D01*
X126209220Y-36535679D01*
X126209228Y-36535679D01*
X126403452Y-36554723D01*
X126551139Y-36569204D01*
X126648432Y-36598579D01*
X126738159Y-36646287D01*
X126816911Y-36710517D01*
X126881690Y-36788820D01*
X126930026Y-36878216D01*
X126960077Y-36975296D01*
X126973000Y-37098248D01*
X126973001Y-59103000D01*
X98927000Y-59103000D01*
X98927000Y-55051477D01*
X107141720Y-55051477D01*
X107141720Y-55194683D01*
X107169658Y-55335138D01*
X107224461Y-55467444D01*
X107304022Y-55586516D01*
X107405284Y-55687778D01*
X107524356Y-55767339D01*
X107656662Y-55822142D01*
X107797117Y-55850080D01*
X107940323Y-55850080D01*
X108080778Y-55822142D01*
X108213084Y-55767339D01*
X108332156Y-55687778D01*
X108433418Y-55586516D01*
X108512979Y-55467444D01*
X108567782Y-55335138D01*
X108591400Y-55216401D01*
X112194442Y-51613359D01*
X112216454Y-51595294D01*
X112288559Y-51507435D01*
X112328296Y-51433092D01*
X112342137Y-51407197D01*
X112375131Y-51298432D01*
X112386271Y-51185320D01*
X112383480Y-51156981D01*
X112383480Y-49881042D01*
X112406480Y-49881042D01*
X112470583Y-49874728D01*
X112532223Y-49856030D01*
X112589030Y-49825666D01*
X112619241Y-49800873D01*
X112675943Y-49906954D01*
X112755295Y-50003645D01*
X112851986Y-50082997D01*
X112962300Y-50141962D01*
X113081998Y-50178272D01*
X113206480Y-50190532D01*
X113520730Y-50187460D01*
X113679480Y-50028710D01*
X113679480Y-48579460D01*
X113659480Y-48579460D01*
X113659480Y-48325460D01*
X113679480Y-48325460D01*
X113679480Y-46876210D01*
X113933480Y-46876210D01*
X113933480Y-48325460D01*
X113953480Y-48325460D01*
X113953480Y-48579460D01*
X113933480Y-48579460D01*
X113933480Y-50028710D01*
X114092230Y-50187460D01*
X114406480Y-50190532D01*
X114530962Y-50178272D01*
X114650660Y-50141962D01*
X114760974Y-50082997D01*
X114857665Y-50003645D01*
X114937017Y-49906954D01*
X114993719Y-49800873D01*
X115023930Y-49825666D01*
X115080737Y-49856030D01*
X115142377Y-49874728D01*
X115206480Y-49881042D01*
X116406480Y-49881042D01*
X116470583Y-49874728D01*
X116532223Y-49856030D01*
X116589030Y-49825666D01*
X116638823Y-49784803D01*
X116679686Y-49735010D01*
X116710050Y-49678203D01*
X116728748Y-49616563D01*
X116735062Y-49552460D01*
X116735062Y-48929460D01*
X117149905Y-48929460D01*
X117173320Y-48931766D01*
X117196735Y-48929460D01*
X117196743Y-48929460D01*
X117266828Y-48922557D01*
X117356743Y-48895282D01*
X117439609Y-48850989D01*
X117512241Y-48791381D01*
X117527175Y-48773184D01*
X117577519Y-48722840D01*
X117701543Y-48722840D01*
X117841998Y-48694902D01*
X117974304Y-48640099D01*
X118093376Y-48560538D01*
X118194638Y-48459276D01*
X118274199Y-48340204D01*
X118329002Y-48207898D01*
X118356940Y-48067443D01*
X118356940Y-47924237D01*
X118329002Y-47783782D01*
X118274199Y-47651476D01*
X118194638Y-47532404D01*
X118093376Y-47431142D01*
X117974304Y-47351581D01*
X117841998Y-47296778D01*
X117701543Y-47268840D01*
X117558337Y-47268840D01*
X117417882Y-47296778D01*
X117285576Y-47351581D01*
X117166504Y-47431142D01*
X117065242Y-47532404D01*
X116985681Y-47651476D01*
X116930878Y-47783782D01*
X116902940Y-47924237D01*
X116902940Y-47975460D01*
X116735062Y-47975460D01*
X116735062Y-47352460D01*
X116728748Y-47288357D01*
X116710050Y-47226717D01*
X116679686Y-47169910D01*
X116638823Y-47120117D01*
X116589030Y-47079254D01*
X116532223Y-47048890D01*
X116470583Y-47030192D01*
X116406480Y-47023878D01*
X115206480Y-47023878D01*
X115142377Y-47030192D01*
X115080737Y-47048890D01*
X115023930Y-47079254D01*
X114993719Y-47104047D01*
X114937017Y-46997966D01*
X114857665Y-46901275D01*
X114760974Y-46821923D01*
X114650660Y-46762958D01*
X114530962Y-46726648D01*
X114406480Y-46714388D01*
X114092230Y-46717460D01*
X113933480Y-46876210D01*
X113679480Y-46876210D01*
X113520730Y-46717460D01*
X113206480Y-46714388D01*
X113081998Y-46726648D01*
X112962300Y-46762958D01*
X112851986Y-46821923D01*
X112755295Y-46901275D01*
X112675943Y-46997966D01*
X112619241Y-47104047D01*
X112589030Y-47079254D01*
X112532223Y-47048890D01*
X112470583Y-47030192D01*
X112406480Y-47023878D01*
X111206480Y-47023878D01*
X111142377Y-47030192D01*
X111080737Y-47048890D01*
X111023930Y-47079254D01*
X110974137Y-47120117D01*
X110933274Y-47169910D01*
X110902910Y-47226717D01*
X110884212Y-47288357D01*
X110877898Y-47352460D01*
X110877898Y-49552460D01*
X110884212Y-49616563D01*
X110902910Y-49678203D01*
X110933274Y-49735010D01*
X110974137Y-49784803D01*
X111023930Y-49825666D01*
X111080737Y-49856030D01*
X111142377Y-49874728D01*
X111206480Y-49881042D01*
X111229481Y-49881042D01*
X111229481Y-50946318D01*
X107775399Y-54400400D01*
X107656662Y-54424018D01*
X107524356Y-54478821D01*
X107405284Y-54558382D01*
X107304022Y-54659644D01*
X107224461Y-54778716D01*
X107169658Y-54911022D01*
X107141720Y-55051477D01*
X98927000Y-55051477D01*
X98927000Y-47352460D01*
X108877898Y-47352460D01*
X108877898Y-49552460D01*
X108884212Y-49616563D01*
X108902910Y-49678203D01*
X108933274Y-49735010D01*
X108974137Y-49784803D01*
X109023930Y-49825666D01*
X109080737Y-49856030D01*
X109142377Y-49874728D01*
X109206480Y-49881042D01*
X110406480Y-49881042D01*
X110470583Y-49874728D01*
X110532223Y-49856030D01*
X110589030Y-49825666D01*
X110638823Y-49784803D01*
X110679686Y-49735010D01*
X110710050Y-49678203D01*
X110728748Y-49616563D01*
X110735062Y-49552460D01*
X110735062Y-47352460D01*
X110728748Y-47288357D01*
X110710050Y-47226717D01*
X110679686Y-47169910D01*
X110638823Y-47120117D01*
X110589030Y-47079254D01*
X110532223Y-47048890D01*
X110470583Y-47030192D01*
X110406480Y-47023878D01*
X109206480Y-47023878D01*
X109142377Y-47030192D01*
X109080737Y-47048890D01*
X109023930Y-47079254D01*
X108974137Y-47120117D01*
X108933274Y-47169910D01*
X108902910Y-47226717D01*
X108884212Y-47288357D01*
X108877898Y-47352460D01*
X98927000Y-47352460D01*
X98927000Y-44972460D01*
X104568408Y-44972460D01*
X104580668Y-45096942D01*
X104616978Y-45216640D01*
X104675943Y-45326954D01*
X104755295Y-45423645D01*
X104851986Y-45502997D01*
X104962300Y-45561962D01*
X105081998Y-45598272D01*
X105206480Y-45610532D01*
X105920730Y-45607460D01*
X106079480Y-45448710D01*
X106079480Y-42999460D01*
X106333480Y-42999460D01*
X106333480Y-45448710D01*
X106492230Y-45607460D01*
X107206480Y-45610532D01*
X107330962Y-45598272D01*
X107450660Y-45561962D01*
X107560974Y-45502997D01*
X107657665Y-45423645D01*
X107737017Y-45326954D01*
X107795982Y-45216640D01*
X107832292Y-45096942D01*
X107844552Y-44972460D01*
X117768408Y-44972460D01*
X117780668Y-45096942D01*
X117816978Y-45216640D01*
X117875943Y-45326954D01*
X117955295Y-45423645D01*
X118051986Y-45502997D01*
X118162300Y-45561962D01*
X118281998Y-45598272D01*
X118406480Y-45610532D01*
X119120730Y-45607460D01*
X119279480Y-45448710D01*
X119279480Y-42999460D01*
X119533480Y-42999460D01*
X119533480Y-45448710D01*
X119692230Y-45607460D01*
X120406480Y-45610532D01*
X120530962Y-45598272D01*
X120650660Y-45561962D01*
X120760974Y-45502997D01*
X120857665Y-45423645D01*
X120937017Y-45326954D01*
X120995982Y-45216640D01*
X121032292Y-45096942D01*
X121044552Y-44972460D01*
X121041480Y-43158210D01*
X120882730Y-42999460D01*
X119533480Y-42999460D01*
X119279480Y-42999460D01*
X117930230Y-42999460D01*
X117771480Y-43158210D01*
X117768408Y-44972460D01*
X107844552Y-44972460D01*
X107841480Y-43158210D01*
X107682730Y-42999460D01*
X106333480Y-42999460D01*
X106079480Y-42999460D01*
X104730230Y-42999460D01*
X104571480Y-43158210D01*
X104568408Y-44972460D01*
X98927000Y-44972460D01*
X98927000Y-40772460D01*
X104568408Y-40772460D01*
X104571480Y-42586710D01*
X104730230Y-42745460D01*
X106079480Y-42745460D01*
X106079480Y-40296210D01*
X106333480Y-40296210D01*
X106333480Y-42745460D01*
X107682730Y-42745460D01*
X107841480Y-42586710D01*
X107844552Y-40772460D01*
X117768408Y-40772460D01*
X117771480Y-42586710D01*
X117930230Y-42745460D01*
X119279480Y-42745460D01*
X119279480Y-40296210D01*
X119533480Y-40296210D01*
X119533480Y-42745460D01*
X120882730Y-42745460D01*
X121041480Y-42586710D01*
X121044552Y-40772460D01*
X121032292Y-40647978D01*
X120995982Y-40528280D01*
X120937017Y-40417966D01*
X120857665Y-40321275D01*
X120760974Y-40241923D01*
X120650660Y-40182958D01*
X120530962Y-40146648D01*
X120406480Y-40134388D01*
X119692230Y-40137460D01*
X119533480Y-40296210D01*
X119279480Y-40296210D01*
X119120730Y-40137460D01*
X118406480Y-40134388D01*
X118281998Y-40146648D01*
X118162300Y-40182958D01*
X118051986Y-40241923D01*
X117955295Y-40321275D01*
X117875943Y-40417966D01*
X117816978Y-40528280D01*
X117780668Y-40647978D01*
X117768408Y-40772460D01*
X107844552Y-40772460D01*
X107832292Y-40647978D01*
X107795982Y-40528280D01*
X107737017Y-40417966D01*
X107657665Y-40321275D01*
X107560974Y-40241923D01*
X107450660Y-40182958D01*
X107330962Y-40146648D01*
X107206480Y-40134388D01*
X106492230Y-40137460D01*
X106333480Y-40296210D01*
X106079480Y-40296210D01*
X105920730Y-40137460D01*
X105206480Y-40134388D01*
X105081998Y-40146648D01*
X104962300Y-40182958D01*
X104851986Y-40241923D01*
X104755295Y-40321275D01*
X104675943Y-40417966D01*
X104616978Y-40528280D01*
X104580668Y-40647978D01*
X104568408Y-40772460D01*
X98927000Y-40772460D01*
X98927000Y-37103326D01*
X98939204Y-36978861D01*
X98968579Y-36881568D01*
X99016287Y-36791841D01*
X99080517Y-36713089D01*
X99158820Y-36648310D01*
X99248216Y-36599974D01*
X99345296Y-36569923D01*
X99487966Y-36554927D01*
X99500214Y-36555013D01*
X99506842Y-36554363D01*
X99700939Y-36533962D01*
X99743303Y-36525266D01*
X99785755Y-36517168D01*
X99792126Y-36515244D01*
X99792132Y-36515243D01*
X99792138Y-36515241D01*
X99978568Y-36457531D01*
X100018418Y-36440780D01*
X100058508Y-36424583D01*
X100064384Y-36421458D01*
X100064389Y-36421456D01*
X100064393Y-36421453D01*
X100236065Y-36328631D01*
X100271936Y-36304436D01*
X100308084Y-36280782D01*
X100313236Y-36276580D01*
X100313244Y-36276574D01*
X100313251Y-36276567D01*
X100463623Y-36152168D01*
X100494076Y-36121502D01*
X100524975Y-36091244D01*
X100529214Y-36086118D01*
X100529220Y-36086112D01*
X100529224Y-36086105D01*
X100652569Y-35934870D01*
X100676489Y-35898867D01*
X100700920Y-35863188D01*
X100704084Y-35857334D01*
X100704087Y-35857330D01*
X100704089Y-35857326D01*
X100795712Y-35685007D01*
X100812190Y-35645028D01*
X100829218Y-35605300D01*
X100831187Y-35598939D01*
X100831188Y-35598937D01*
X100831189Y-35598930D01*
X100887597Y-35412102D01*
X100896000Y-35369663D01*
X100904983Y-35327405D01*
X100905677Y-35320788D01*
X100905679Y-35320780D01*
X100905679Y-35320772D01*
X100924723Y-35126548D01*
X100924723Y-35126541D01*
X100927000Y-35103423D01*
X100927000Y-30557000D01*
X124973000Y-30557000D01*
X124973001Y-35103423D01*
G37*
G04 #@! TD.AperFunction*
M02*
