%FSLAX45Y45*%
G04 Gerber Fmt 4.5, Leading zero omitted, Abs format (unit mm)*
G04 Created by KiCad (PCBNEW 5.1.12-84ad8e8a86~92~ubuntu20.04.1) date 2022-05-26 21:25:54*
%MOMM*%
%LPD*%
G01*
G04 APERTURE LIST*
%TA.AperFunction,Profile*%
%ADD10C,0.300000*%
%TD*%
%ADD11C,0.200000*%
%ADD12C,0.300000*%
G04 APERTURE END LIST*
D10*
X10045000Y-3508000D02*
G75*
G02*
X9945000Y-3608000I-100000J0D01*
G01*
X9845000Y-3708000D02*
G75*
G02*
X9945000Y-3608000I100000J0D01*
G01*
X10045000Y-3508000D02*
X10045000Y-3008000D01*
X9845000Y-3708000D02*
X9845000Y-5958000D01*
X10045000Y-3008000D02*
X12545000Y-3008000D01*
X12545000Y-3008000D02*
X12545000Y-3508000D01*
X12645000Y-3608000D02*
G75*
G02*
X12545000Y-3508000I0J100000D01*
G01*
X12645000Y-3608000D02*
G75*
G02*
X12745000Y-3708000I0J-100000D01*
G01*
X12745000Y-3708000D02*
X12745000Y-5958000D01*
X12745000Y-5958000D02*
X9845000Y-5958000D01*
D11*
D12*
X10116428Y-6438714D02*
X10116428Y-6138714D01*
X10187857Y-6138714D01*
X10230714Y-6153000D01*
X10259286Y-6181571D01*
X10273571Y-6210143D01*
X10287857Y-6267286D01*
X10287857Y-6310143D01*
X10273571Y-6367286D01*
X10259286Y-6395857D01*
X10230714Y-6424429D01*
X10187857Y-6438714D01*
X10116428Y-6438714D01*
X10416428Y-6438714D02*
X10416428Y-6238714D01*
X10416428Y-6295857D02*
X10430714Y-6267286D01*
X10445000Y-6253000D01*
X10473571Y-6238714D01*
X10502143Y-6238714D01*
X10602143Y-6438714D02*
X10602143Y-6238714D01*
X10602143Y-6138714D02*
X10587857Y-6153000D01*
X10602143Y-6167286D01*
X10616428Y-6153000D01*
X10602143Y-6138714D01*
X10602143Y-6167286D01*
X10787857Y-6438714D02*
X10759286Y-6424429D01*
X10745000Y-6395857D01*
X10745000Y-6138714D01*
X10945000Y-6438714D02*
X10916428Y-6424429D01*
X10902143Y-6395857D01*
X10902143Y-6138714D01*
X11287857Y-6438714D02*
X11287857Y-6138714D01*
X11387857Y-6353000D01*
X11487857Y-6138714D01*
X11487857Y-6438714D01*
X11759286Y-6438714D02*
X11759286Y-6281571D01*
X11745000Y-6253000D01*
X11716428Y-6238714D01*
X11659286Y-6238714D01*
X11630714Y-6253000D01*
X11759286Y-6424429D02*
X11730714Y-6438714D01*
X11659286Y-6438714D01*
X11630714Y-6424429D01*
X11616428Y-6395857D01*
X11616428Y-6367286D01*
X11630714Y-6338714D01*
X11659286Y-6324429D01*
X11730714Y-6324429D01*
X11759286Y-6310143D01*
X11902143Y-6238714D02*
X11902143Y-6538714D01*
X11902143Y-6253000D02*
X11930714Y-6238714D01*
X11987857Y-6238714D01*
X12016428Y-6253000D01*
X12030714Y-6267286D01*
X12045000Y-6295857D01*
X12045000Y-6381571D01*
X12030714Y-6410143D01*
X12016428Y-6424429D01*
X11987857Y-6438714D01*
X11930714Y-6438714D01*
X11902143Y-6424429D01*
X12173571Y-6410143D02*
X12187857Y-6424429D01*
X12173571Y-6438714D01*
X12159286Y-6424429D01*
X12173571Y-6410143D01*
X12173571Y-6438714D01*
X12173571Y-6253000D02*
X12187857Y-6267286D01*
X12173571Y-6281571D01*
X12159286Y-6267286D01*
X12173571Y-6253000D01*
X12173571Y-6281571D01*
M02*
