G04 #@! TF.GenerationSoftware,KiCad,Pcbnew,5.1.12-84ad8e8a86~92~ubuntu20.04.1*
G04 #@! TF.CreationDate,2022-05-26T21:25:47-05:00*
G04 #@! TF.ProjectId,403SFM3020_sensor_module,34303353-464d-4333-9032-305f73656e73,rev?*
G04 #@! TF.SameCoordinates,Original*
G04 #@! TF.FileFunction,Soldermask,Bot*
G04 #@! TF.FilePolarity,Negative*
%FSLAX46Y46*%
G04 Gerber Fmt 4.6, Leading zero omitted, Abs format (unit mm)*
G04 Created by KiCad (PCBNEW 5.1.12-84ad8e8a86~92~ubuntu20.04.1) date 2022-05-26 21:25:47*
%MOMM*%
%LPD*%
G01*
G04 APERTURE LIST*
%ADD10R,1.000000X3.150000*%
%ADD11R,1.450000X0.450000*%
G04 APERTURE END LIST*
G36*
G01*
X105021090Y-42941860D02*
X104508590Y-42941860D01*
G75*
G02*
X104289840Y-42723110I0J218750D01*
G01*
X104289840Y-42285610D01*
G75*
G02*
X104508590Y-42066860I218750J0D01*
G01*
X105021090Y-42066860D01*
G75*
G02*
X105239840Y-42285610I0J-218750D01*
G01*
X105239840Y-42723110D01*
G75*
G02*
X105021090Y-42941860I-218750J0D01*
G01*
G37*
G36*
G01*
X105021090Y-41366860D02*
X104508590Y-41366860D01*
G75*
G02*
X104289840Y-41148110I0J218750D01*
G01*
X104289840Y-40710610D01*
G75*
G02*
X104508590Y-40491860I218750J0D01*
G01*
X105021090Y-40491860D01*
G75*
G02*
X105239840Y-40710610I0J-218750D01*
G01*
X105239840Y-41148110D01*
G75*
G02*
X105021090Y-41366860I-218750J0D01*
G01*
G37*
G36*
G01*
X117878570Y-44955980D02*
X117366070Y-44955980D01*
G75*
G02*
X117147320Y-44737230I0J218750D01*
G01*
X117147320Y-44299730D01*
G75*
G02*
X117366070Y-44080980I218750J0D01*
G01*
X117878570Y-44080980D01*
G75*
G02*
X118097320Y-44299730I0J-218750D01*
G01*
X118097320Y-44737230D01*
G75*
G02*
X117878570Y-44955980I-218750J0D01*
G01*
G37*
G36*
G01*
X117878570Y-46530980D02*
X117366070Y-46530980D01*
G75*
G02*
X117147320Y-46312230I0J218750D01*
G01*
X117147320Y-45874730D01*
G75*
G02*
X117366070Y-45655980I218750J0D01*
G01*
X117878570Y-45655980D01*
G75*
G02*
X118097320Y-45874730I0J-218750D01*
G01*
X118097320Y-46312230D01*
G75*
G02*
X117878570Y-46530980I-218750J0D01*
G01*
G37*
G36*
G01*
X112396820Y-43286390D02*
X112396820Y-42773890D01*
G75*
G02*
X112615570Y-42555140I218750J0D01*
G01*
X113053070Y-42555140D01*
G75*
G02*
X113271820Y-42773890I0J-218750D01*
G01*
X113271820Y-43286390D01*
G75*
G02*
X113053070Y-43505140I-218750J0D01*
G01*
X112615570Y-43505140D01*
G75*
G02*
X112396820Y-43286390I0J218750D01*
G01*
G37*
G36*
G01*
X113971820Y-43286390D02*
X113971820Y-42773890D01*
G75*
G02*
X114190570Y-42555140I218750J0D01*
G01*
X114628070Y-42555140D01*
G75*
G02*
X114846820Y-42773890I0J-218750D01*
G01*
X114846820Y-43286390D01*
G75*
G02*
X114628070Y-43505140I-218750J0D01*
G01*
X114190570Y-43505140D01*
G75*
G02*
X113971820Y-43286390I0J218750D01*
G01*
G37*
G36*
G01*
X113971820Y-41676030D02*
X113971820Y-41163530D01*
G75*
G02*
X114190570Y-40944780I218750J0D01*
G01*
X114628070Y-40944780D01*
G75*
G02*
X114846820Y-41163530I0J-218750D01*
G01*
X114846820Y-41676030D01*
G75*
G02*
X114628070Y-41894780I-218750J0D01*
G01*
X114190570Y-41894780D01*
G75*
G02*
X113971820Y-41676030I0J218750D01*
G01*
G37*
G36*
G01*
X112396820Y-41676030D02*
X112396820Y-41163530D01*
G75*
G02*
X112615570Y-40944780I218750J0D01*
G01*
X113053070Y-40944780D01*
G75*
G02*
X113271820Y-41163530I0J-218750D01*
G01*
X113271820Y-41676030D01*
G75*
G02*
X113053070Y-41894780I-218750J0D01*
G01*
X112615570Y-41894780D01*
G75*
G02*
X112396820Y-41676030I0J218750D01*
G01*
G37*
D10*
X105330000Y-52555000D03*
X105330000Y-57605000D03*
X107870000Y-52555000D03*
X107870000Y-57605000D03*
X110410000Y-52555000D03*
X110410000Y-57605000D03*
X112950000Y-52555000D03*
X112950000Y-57605000D03*
X115490000Y-52555000D03*
X115490000Y-57605000D03*
X118030000Y-52555000D03*
X118030000Y-57605000D03*
X120570000Y-52555000D03*
X120570000Y-57605000D03*
X116770000Y-37105000D03*
X116770000Y-32055000D03*
X114230000Y-37105000D03*
X114230000Y-32055000D03*
X111690000Y-37105000D03*
X111690000Y-32055000D03*
X109150000Y-37105000D03*
X109150000Y-32055000D03*
D11*
X115398340Y-44793260D03*
X115398340Y-45443260D03*
X115398340Y-46093260D03*
X115398340Y-46743260D03*
X109498340Y-46743260D03*
X109498340Y-46093260D03*
X109498340Y-45443260D03*
X109498340Y-44793260D03*
G36*
G01*
X109651510Y-43340740D02*
X109139010Y-43340740D01*
G75*
G02*
X108920260Y-43121990I0J218750D01*
G01*
X108920260Y-42684490D01*
G75*
G02*
X109139010Y-42465740I218750J0D01*
G01*
X109651510Y-42465740D01*
G75*
G02*
X109870260Y-42684490I0J-218750D01*
G01*
X109870260Y-43121990D01*
G75*
G02*
X109651510Y-43340740I-218750J0D01*
G01*
G37*
G36*
G01*
X109651510Y-41765740D02*
X109139010Y-41765740D01*
G75*
G02*
X108920260Y-41546990I0J218750D01*
G01*
X108920260Y-41109490D01*
G75*
G02*
X109139010Y-40890740I218750J0D01*
G01*
X109651510Y-40890740D01*
G75*
G02*
X109870260Y-41109490I0J-218750D01*
G01*
X109870260Y-41546990D01*
G75*
G02*
X109651510Y-41765740I-218750J0D01*
G01*
G37*
M02*
