G04 #@! TF.GenerationSoftware,KiCad,Pcbnew,5.1.12-84ad8e8a86~92~ubuntu20.04.1*
G04 #@! TF.CreationDate,2022-02-01T22:15:14-05:00*
G04 #@! TF.ProjectId,403SFM3020_sensor_module,34303353-464d-4333-9032-305f73656e73,rev?*
G04 #@! TF.SameCoordinates,Original*
G04 #@! TF.FileFunction,Legend,Bot*
G04 #@! TF.FilePolarity,Positive*
%FSLAX46Y46*%
G04 Gerber Fmt 4.6, Leading zero omitted, Abs format (unit mm)*
G04 Created by KiCad (PCBNEW 5.1.12-84ad8e8a86~92~ubuntu20.04.1) date 2022-02-01 22:15:14*
%MOMM*%
%LPD*%
G01*
G04 APERTURE LIST*
%ADD10C,0.120000*%
%ADD11C,0.150000*%
G04 APERTURE END LIST*
D10*
X105274840Y-41879639D02*
X105274840Y-41554081D01*
X104254840Y-41879639D02*
X104254840Y-41554081D01*
X117112320Y-45468759D02*
X117112320Y-45143201D01*
X118132320Y-45468759D02*
X118132320Y-45143201D01*
X113459041Y-43540140D02*
X113784599Y-43540140D01*
X113459041Y-42520140D02*
X113784599Y-42520140D01*
X113459041Y-40909780D02*
X113784599Y-40909780D01*
X113459041Y-41929780D02*
X113784599Y-41929780D01*
X104000000Y-52480000D02*
X104000000Y-57680000D01*
X121900000Y-52480000D02*
X121900000Y-57680000D01*
X104570000Y-51040000D02*
X104570000Y-52480000D01*
X104000000Y-52480000D02*
X104570000Y-52480000D01*
X104000000Y-57680000D02*
X104570000Y-57680000D01*
X121330000Y-52480000D02*
X121900000Y-52480000D01*
X121330000Y-57680000D02*
X121900000Y-57680000D01*
X106090000Y-52480000D02*
X107110000Y-52480000D01*
X106090000Y-57680000D02*
X107110000Y-57680000D01*
X108630000Y-52480000D02*
X109650000Y-52480000D01*
X108630000Y-57680000D02*
X109650000Y-57680000D01*
X111170000Y-52480000D02*
X112190000Y-52480000D01*
X111170000Y-57680000D02*
X112190000Y-57680000D01*
X113710000Y-52480000D02*
X114730000Y-52480000D01*
X113710000Y-57680000D02*
X114730000Y-57680000D01*
X116250000Y-52480000D02*
X117270000Y-52480000D01*
X116250000Y-57680000D02*
X117270000Y-57680000D01*
X118790000Y-52480000D02*
X119810000Y-52480000D01*
X118790000Y-57680000D02*
X119810000Y-57680000D01*
X118100000Y-37180000D02*
X118100000Y-31980000D01*
X107820000Y-37180000D02*
X107820000Y-31980000D01*
X117530000Y-38620000D02*
X117530000Y-37180000D01*
X118100000Y-37180000D02*
X117530000Y-37180000D01*
X118100000Y-31980000D02*
X117530000Y-31980000D01*
X108390000Y-37180000D02*
X107820000Y-37180000D01*
X108390000Y-31980000D02*
X107820000Y-31980000D01*
X116010000Y-37180000D02*
X114990000Y-37180000D01*
X116010000Y-31980000D02*
X114990000Y-31980000D01*
X113470000Y-37180000D02*
X112450000Y-37180000D01*
X113470000Y-31980000D02*
X112450000Y-31980000D01*
X110930000Y-37180000D02*
X109910000Y-37180000D01*
X110930000Y-31980000D02*
X109910000Y-31980000D01*
D11*
X114773340Y-44143260D02*
X114773340Y-44243260D01*
X110123340Y-44143260D02*
X110123340Y-44343260D01*
X110123340Y-47393260D02*
X110123340Y-47193260D01*
X114773340Y-47393260D02*
X114773340Y-47193260D01*
X114773340Y-44143260D02*
X110123340Y-44143260D01*
X114773340Y-47393260D02*
X110123340Y-47393260D01*
X114773340Y-44243260D02*
X116123340Y-44243260D01*
D10*
X109905260Y-42278519D02*
X109905260Y-41952961D01*
X108885260Y-42278519D02*
X108885260Y-41952961D01*
D11*
X103752922Y-40785653D02*
X103800541Y-40738034D01*
X103848160Y-40595177D01*
X103848160Y-40499939D01*
X103800541Y-40357081D01*
X103705303Y-40261843D01*
X103610065Y-40214224D01*
X103419589Y-40166605D01*
X103276732Y-40166605D01*
X103086256Y-40214224D01*
X102991018Y-40261843D01*
X102895780Y-40357081D01*
X102848160Y-40499939D01*
X102848160Y-40595177D01*
X102895780Y-40738034D01*
X102943399Y-40785653D01*
X103848160Y-41738034D02*
X103848160Y-41166605D01*
X103848160Y-41452320D02*
X102848160Y-41452320D01*
X102991018Y-41357081D01*
X103086256Y-41261843D01*
X103133875Y-41166605D01*
X119399462Y-45179313D02*
X119447081Y-45131694D01*
X119494700Y-44988837D01*
X119494700Y-44893599D01*
X119447081Y-44750741D01*
X119351843Y-44655503D01*
X119256605Y-44607884D01*
X119066129Y-44560265D01*
X118923272Y-44560265D01*
X118732796Y-44607884D01*
X118637558Y-44655503D01*
X118542320Y-44750741D01*
X118494700Y-44893599D01*
X118494700Y-44988837D01*
X118542320Y-45131694D01*
X118589939Y-45179313D01*
X118589939Y-45560265D02*
X118542320Y-45607884D01*
X118494700Y-45703122D01*
X118494700Y-45941218D01*
X118542320Y-46036456D01*
X118589939Y-46084075D01*
X118685177Y-46131694D01*
X118780415Y-46131694D01*
X118923272Y-46084075D01*
X119494700Y-45512646D01*
X119494700Y-46131694D01*
X116183706Y-43596820D02*
X116517040Y-43120630D01*
X116755135Y-43596820D02*
X116755135Y-42596820D01*
X116374182Y-42596820D01*
X116278944Y-42644440D01*
X116231325Y-42692059D01*
X116183706Y-42787297D01*
X116183706Y-42930154D01*
X116231325Y-43025392D01*
X116278944Y-43073011D01*
X116374182Y-43120630D01*
X116755135Y-43120630D01*
X115231325Y-43596820D02*
X115802754Y-43596820D01*
X115517040Y-43596820D02*
X115517040Y-42596820D01*
X115612278Y-42739678D01*
X115707516Y-42834916D01*
X115802754Y-42882535D01*
X116445326Y-41770560D02*
X116778660Y-41294370D01*
X117016755Y-41770560D02*
X117016755Y-40770560D01*
X116635802Y-40770560D01*
X116540564Y-40818180D01*
X116492945Y-40865799D01*
X116445326Y-40961037D01*
X116445326Y-41103894D01*
X116492945Y-41199132D01*
X116540564Y-41246751D01*
X116635802Y-41294370D01*
X117016755Y-41294370D01*
X116064374Y-40865799D02*
X116016755Y-40818180D01*
X115921517Y-40770560D01*
X115683421Y-40770560D01*
X115588183Y-40818180D01*
X115540564Y-40865799D01*
X115492945Y-40961037D01*
X115492945Y-41056275D01*
X115540564Y-41199132D01*
X116111993Y-41770560D01*
X115492945Y-41770560D01*
X102452380Y-54746666D02*
X103166666Y-54746666D01*
X103309523Y-54699047D01*
X103404761Y-54603809D01*
X103452380Y-54460952D01*
X103452380Y-54365714D01*
X102547619Y-55175238D02*
X102500000Y-55222857D01*
X102452380Y-55318095D01*
X102452380Y-55556190D01*
X102500000Y-55651428D01*
X102547619Y-55699047D01*
X102642857Y-55746666D01*
X102738095Y-55746666D01*
X102880952Y-55699047D01*
X103452380Y-55127619D01*
X103452380Y-55746666D01*
X118552380Y-34246666D02*
X119266666Y-34246666D01*
X119409523Y-34199047D01*
X119504761Y-34103809D01*
X119552380Y-33960952D01*
X119552380Y-33865714D01*
X119552380Y-35246666D02*
X119552380Y-34675238D01*
X119552380Y-34960952D02*
X118552380Y-34960952D01*
X118695238Y-34865714D01*
X118790476Y-34770476D01*
X118838095Y-34675238D01*
X115366704Y-47750480D02*
X115366704Y-48560004D01*
X115319085Y-48655242D01*
X115271466Y-48702861D01*
X115176228Y-48750480D01*
X114985752Y-48750480D01*
X114890514Y-48702861D01*
X114842895Y-48655242D01*
X114795276Y-48560004D01*
X114795276Y-47750480D01*
X114366704Y-47845719D02*
X114319085Y-47798100D01*
X114223847Y-47750480D01*
X113985752Y-47750480D01*
X113890514Y-47798100D01*
X113842895Y-47845719D01*
X113795276Y-47940957D01*
X113795276Y-48036195D01*
X113842895Y-48179052D01*
X114414323Y-48750480D01*
X113795276Y-48750480D01*
X111146862Y-41855093D02*
X111194481Y-41807474D01*
X111242100Y-41664617D01*
X111242100Y-41569379D01*
X111194481Y-41426521D01*
X111099243Y-41331283D01*
X111004005Y-41283664D01*
X110813529Y-41236045D01*
X110670672Y-41236045D01*
X110480196Y-41283664D01*
X110384958Y-41331283D01*
X110289720Y-41426521D01*
X110242100Y-41569379D01*
X110242100Y-41664617D01*
X110289720Y-41807474D01*
X110337339Y-41855093D01*
X110242100Y-42188426D02*
X110242100Y-42807474D01*
X110623053Y-42474140D01*
X110623053Y-42616998D01*
X110670672Y-42712236D01*
X110718291Y-42759855D01*
X110813529Y-42807474D01*
X111051624Y-42807474D01*
X111146862Y-42759855D01*
X111194481Y-42712236D01*
X111242100Y-42616998D01*
X111242100Y-42331283D01*
X111194481Y-42236045D01*
X111146862Y-42188426D01*
M02*
