G04 #@! TF.GenerationSoftware,KiCad,Pcbnew,5.1.12-84ad8e8a86~92~ubuntu20.04.1*
G04 #@! TF.CreationDate,2022-01-25T20:23:26-05:00*
G04 #@! TF.ProjectId,ABPDJJT001PGAA5_sensor_module,41425044-4a4a-4543-9030-315047414135,rev?*
G04 #@! TF.SameCoordinates,Original*
G04 #@! TF.FileFunction,Legend,Top*
G04 #@! TF.FilePolarity,Positive*
%FSLAX46Y46*%
G04 Gerber Fmt 4.6, Leading zero omitted, Abs format (unit mm)*
G04 Created by KiCad (PCBNEW 5.1.12-84ad8e8a86~92~ubuntu20.04.1) date 2022-01-25 20:23:26*
%MOMM*%
%LPD*%
G01*
G04 APERTURE LIST*
%ADD10C,0.150000*%
%ADD11C,0.120000*%
G04 APERTURE END LIST*
D10*
X106397142Y-34896666D02*
X106873333Y-34896666D01*
X106301904Y-35182380D02*
X106635238Y-34182380D01*
X106968571Y-35182380D01*
X107635238Y-34658571D02*
X107778095Y-34706190D01*
X107825714Y-34753809D01*
X107873333Y-34849047D01*
X107873333Y-34991904D01*
X107825714Y-35087142D01*
X107778095Y-35134761D01*
X107682857Y-35182380D01*
X107301904Y-35182380D01*
X107301904Y-34182380D01*
X107635238Y-34182380D01*
X107730476Y-34230000D01*
X107778095Y-34277619D01*
X107825714Y-34372857D01*
X107825714Y-34468095D01*
X107778095Y-34563333D01*
X107730476Y-34610952D01*
X107635238Y-34658571D01*
X107301904Y-34658571D01*
X108301904Y-35182380D02*
X108301904Y-34182380D01*
X108682857Y-34182380D01*
X108778095Y-34230000D01*
X108825714Y-34277619D01*
X108873333Y-34372857D01*
X108873333Y-34515714D01*
X108825714Y-34610952D01*
X108778095Y-34658571D01*
X108682857Y-34706190D01*
X108301904Y-34706190D01*
X109301904Y-35182380D02*
X109301904Y-34182380D01*
X109540000Y-34182380D01*
X109682857Y-34230000D01*
X109778095Y-34325238D01*
X109825714Y-34420476D01*
X109873333Y-34610952D01*
X109873333Y-34753809D01*
X109825714Y-34944285D01*
X109778095Y-35039523D01*
X109682857Y-35134761D01*
X109540000Y-35182380D01*
X109301904Y-35182380D01*
X110587619Y-34182380D02*
X110587619Y-34896666D01*
X110540000Y-35039523D01*
X110444761Y-35134761D01*
X110301904Y-35182380D01*
X110206666Y-35182380D01*
X111349523Y-34182380D02*
X111349523Y-34896666D01*
X111301904Y-35039523D01*
X111206666Y-35134761D01*
X111063809Y-35182380D01*
X110968571Y-35182380D01*
X111682857Y-34182380D02*
X112254285Y-34182380D01*
X111968571Y-35182380D02*
X111968571Y-34182380D01*
X112778095Y-34182380D02*
X112873333Y-34182380D01*
X112968571Y-34230000D01*
X113016190Y-34277619D01*
X113063809Y-34372857D01*
X113111428Y-34563333D01*
X113111428Y-34801428D01*
X113063809Y-34991904D01*
X113016190Y-35087142D01*
X112968571Y-35134761D01*
X112873333Y-35182380D01*
X112778095Y-35182380D01*
X112682857Y-35134761D01*
X112635238Y-35087142D01*
X112587619Y-34991904D01*
X112540000Y-34801428D01*
X112540000Y-34563333D01*
X112587619Y-34372857D01*
X112635238Y-34277619D01*
X112682857Y-34230000D01*
X112778095Y-34182380D01*
X113730476Y-34182380D02*
X113825714Y-34182380D01*
X113920952Y-34230000D01*
X113968571Y-34277619D01*
X114016190Y-34372857D01*
X114063809Y-34563333D01*
X114063809Y-34801428D01*
X114016190Y-34991904D01*
X113968571Y-35087142D01*
X113920952Y-35134761D01*
X113825714Y-35182380D01*
X113730476Y-35182380D01*
X113635238Y-35134761D01*
X113587619Y-35087142D01*
X113540000Y-34991904D01*
X113492380Y-34801428D01*
X113492380Y-34563333D01*
X113540000Y-34372857D01*
X113587619Y-34277619D01*
X113635238Y-34230000D01*
X113730476Y-34182380D01*
X115016190Y-35182380D02*
X114444761Y-35182380D01*
X114730476Y-35182380D02*
X114730476Y-34182380D01*
X114635238Y-34325238D01*
X114540000Y-34420476D01*
X114444761Y-34468095D01*
X115444761Y-35182380D02*
X115444761Y-34182380D01*
X115825714Y-34182380D01*
X115920952Y-34230000D01*
X115968571Y-34277619D01*
X116016190Y-34372857D01*
X116016190Y-34515714D01*
X115968571Y-34610952D01*
X115920952Y-34658571D01*
X115825714Y-34706190D01*
X115444761Y-34706190D01*
X116968571Y-34230000D02*
X116873333Y-34182380D01*
X116730476Y-34182380D01*
X116587619Y-34230000D01*
X116492380Y-34325238D01*
X116444761Y-34420476D01*
X116397142Y-34610952D01*
X116397142Y-34753809D01*
X116444761Y-34944285D01*
X116492380Y-35039523D01*
X116587619Y-35134761D01*
X116730476Y-35182380D01*
X116825714Y-35182380D01*
X116968571Y-35134761D01*
X117016190Y-35087142D01*
X117016190Y-34753809D01*
X116825714Y-34753809D01*
X117397142Y-34896666D02*
X117873333Y-34896666D01*
X117301904Y-35182380D02*
X117635238Y-34182380D01*
X117968571Y-35182380D01*
X118254285Y-34896666D02*
X118730476Y-34896666D01*
X118159047Y-35182380D02*
X118492380Y-34182380D01*
X118825714Y-35182380D01*
X119635238Y-34182380D02*
X119159047Y-34182380D01*
X119111428Y-34658571D01*
X119159047Y-34610952D01*
X119254285Y-34563333D01*
X119492380Y-34563333D01*
X119587619Y-34610952D01*
X119635238Y-34658571D01*
X119682857Y-34753809D01*
X119682857Y-34991904D01*
X119635238Y-35087142D01*
X119587619Y-35134761D01*
X119492380Y-35182380D01*
X119254285Y-35182380D01*
X119159047Y-35134761D01*
X119111428Y-35087142D01*
D11*
X118889920Y-49069760D02*
X112389920Y-49069760D01*
X112609920Y-53719760D02*
X112609920Y-49069760D01*
X114489920Y-49069760D02*
X114489920Y-53719760D01*
X114489920Y-53719760D02*
X112609920Y-53719760D01*
X110509920Y-48719760D02*
X109239920Y-48719760D01*
X110509920Y-53719760D02*
X110509920Y-48719760D01*
X112389920Y-53719760D02*
X110509920Y-53719760D01*
X112389920Y-48719760D02*
X112389920Y-53719760D01*
X114389920Y-41419760D02*
X115539920Y-42569760D01*
X109239920Y-41419760D02*
X114389920Y-41419760D01*
X109239920Y-48719760D02*
X109239920Y-41419760D01*
X115539920Y-48719760D02*
X112389920Y-48719760D01*
X115539920Y-42569760D02*
X115539920Y-48719760D01*
X105889920Y-41069760D02*
X118889920Y-41069760D01*
X105889920Y-49069760D02*
X105889920Y-41069760D01*
X110489920Y-49069760D02*
X105889920Y-49069760D01*
X118889920Y-41069760D02*
X118889920Y-49069760D01*
D10*
X107078015Y-49522140D02*
X107078015Y-50331664D01*
X107125634Y-50426902D01*
X107173253Y-50474521D01*
X107268491Y-50522140D01*
X107458967Y-50522140D01*
X107554205Y-50474521D01*
X107601824Y-50426902D01*
X107649443Y-50331664D01*
X107649443Y-49522140D01*
X108649443Y-50522140D02*
X108078015Y-50522140D01*
X108363729Y-50522140D02*
X108363729Y-49522140D01*
X108268491Y-49664998D01*
X108173253Y-49760236D01*
X108078015Y-49807855D01*
M02*
