G04 #@! TF.GenerationSoftware,KiCad,Pcbnew,5.1.12-84ad8e8a86~92~ubuntu20.04.1*
G04 #@! TF.CreationDate,2022-01-25T20:23:26-05:00*
G04 #@! TF.ProjectId,ABPDJJT001PGAA5_sensor_module,41425044-4a4a-4543-9030-315047414135,rev?*
G04 #@! TF.SameCoordinates,Original*
G04 #@! TF.FileFunction,Copper,L1,Top*
G04 #@! TF.FilePolarity,Positive*
%FSLAX46Y46*%
G04 Gerber Fmt 4.6, Leading zero omitted, Abs format (unit mm)*
G04 Created by KiCad (PCBNEW 5.1.12-84ad8e8a86~92~ubuntu20.04.1) date 2022-01-25 20:23:26*
%MOMM*%
%LPD*%
G01*
G04 APERTURE LIST*
G04 #@! TA.AperFunction,ComponentPad*
%ADD10C,1.524000*%
G04 #@! TD*
G04 #@! TA.AperFunction,Conductor*
%ADD11C,0.254000*%
G04 #@! TD*
G04 #@! TA.AperFunction,Conductor*
%ADD12C,0.100000*%
G04 #@! TD*
G04 APERTURE END LIST*
D10*
X118014920Y-42529760D03*
X118014920Y-45069760D03*
X118014920Y-47609760D03*
X106764920Y-47609760D03*
X106764920Y-45069760D03*
X106764920Y-42529760D03*
D11*
X124973001Y-35103423D02*
X124975030Y-35124025D01*
X124974987Y-35130214D01*
X124975637Y-35136842D01*
X124996038Y-35330939D01*
X125004734Y-35373303D01*
X125012832Y-35415755D01*
X125014756Y-35422126D01*
X125014757Y-35422132D01*
X125014759Y-35422138D01*
X125072469Y-35608568D01*
X125089220Y-35648418D01*
X125105417Y-35688508D01*
X125108542Y-35694384D01*
X125108544Y-35694389D01*
X125108547Y-35694393D01*
X125201369Y-35866065D01*
X125225564Y-35901936D01*
X125249218Y-35938084D01*
X125253420Y-35943236D01*
X125253426Y-35943244D01*
X125253433Y-35943251D01*
X125377832Y-36093623D01*
X125408498Y-36124076D01*
X125438756Y-36154975D01*
X125443882Y-36159214D01*
X125443888Y-36159220D01*
X125443895Y-36159224D01*
X125595130Y-36282569D01*
X125631133Y-36306489D01*
X125666812Y-36330920D01*
X125672666Y-36334084D01*
X125672670Y-36334087D01*
X125672674Y-36334089D01*
X125844993Y-36425712D01*
X125884972Y-36442190D01*
X125924700Y-36459218D01*
X125931056Y-36461185D01*
X125931063Y-36461188D01*
X125931070Y-36461189D01*
X126117898Y-36517597D01*
X126160337Y-36526000D01*
X126202595Y-36534983D01*
X126209212Y-36535677D01*
X126209220Y-36535679D01*
X126209228Y-36535679D01*
X126403452Y-36554723D01*
X126551139Y-36569204D01*
X126648432Y-36598579D01*
X126738159Y-36646287D01*
X126816911Y-36710517D01*
X126881690Y-36788820D01*
X126930026Y-36878216D01*
X126960077Y-36975296D01*
X126973000Y-37098248D01*
X126973001Y-59103000D01*
X98927000Y-59103000D01*
X98927000Y-47502503D01*
X105675920Y-47502503D01*
X105675920Y-47717017D01*
X105717770Y-47927410D01*
X105799861Y-48125595D01*
X105919039Y-48303957D01*
X106070723Y-48455641D01*
X106249085Y-48574819D01*
X106447270Y-48656910D01*
X106657663Y-48698760D01*
X106872177Y-48698760D01*
X107082570Y-48656910D01*
X107280755Y-48574819D01*
X107459117Y-48455641D01*
X107610801Y-48303957D01*
X107729979Y-48125595D01*
X107812070Y-47927410D01*
X107853920Y-47717017D01*
X107853920Y-47502503D01*
X116925920Y-47502503D01*
X116925920Y-47717017D01*
X116967770Y-47927410D01*
X117049861Y-48125595D01*
X117169039Y-48303957D01*
X117320723Y-48455641D01*
X117499085Y-48574819D01*
X117697270Y-48656910D01*
X117907663Y-48698760D01*
X118122177Y-48698760D01*
X118332570Y-48656910D01*
X118530755Y-48574819D01*
X118709117Y-48455641D01*
X118860801Y-48303957D01*
X118979979Y-48125595D01*
X119062070Y-47927410D01*
X119103920Y-47717017D01*
X119103920Y-47502503D01*
X119062070Y-47292110D01*
X118979979Y-47093925D01*
X118860801Y-46915563D01*
X118709117Y-46763879D01*
X118530755Y-46644701D01*
X118332570Y-46562610D01*
X118122177Y-46520760D01*
X117907663Y-46520760D01*
X117697270Y-46562610D01*
X117499085Y-46644701D01*
X117320723Y-46763879D01*
X117169039Y-46915563D01*
X117049861Y-47093925D01*
X116967770Y-47292110D01*
X116925920Y-47502503D01*
X107853920Y-47502503D01*
X107812070Y-47292110D01*
X107729979Y-47093925D01*
X107610801Y-46915563D01*
X107459117Y-46763879D01*
X107280755Y-46644701D01*
X107082570Y-46562610D01*
X106872177Y-46520760D01*
X106657663Y-46520760D01*
X106447270Y-46562610D01*
X106249085Y-46644701D01*
X106070723Y-46763879D01*
X105919039Y-46915563D01*
X105799861Y-47093925D01*
X105717770Y-47292110D01*
X105675920Y-47502503D01*
X98927000Y-47502503D01*
X98927000Y-44962503D01*
X105675920Y-44962503D01*
X105675920Y-45177017D01*
X105717770Y-45387410D01*
X105799861Y-45585595D01*
X105919039Y-45763957D01*
X106070723Y-45915641D01*
X106249085Y-46034819D01*
X106447270Y-46116910D01*
X106657663Y-46158760D01*
X106872177Y-46158760D01*
X107082570Y-46116910D01*
X107280755Y-46034819D01*
X107459117Y-45915641D01*
X107610801Y-45763957D01*
X107729979Y-45585595D01*
X107812070Y-45387410D01*
X107853920Y-45177017D01*
X107853920Y-44962503D01*
X116925920Y-44962503D01*
X116925920Y-45177017D01*
X116967770Y-45387410D01*
X117049861Y-45585595D01*
X117169039Y-45763957D01*
X117320723Y-45915641D01*
X117499085Y-46034819D01*
X117697270Y-46116910D01*
X117907663Y-46158760D01*
X118122177Y-46158760D01*
X118332570Y-46116910D01*
X118530755Y-46034819D01*
X118709117Y-45915641D01*
X118860801Y-45763957D01*
X118979979Y-45585595D01*
X119062070Y-45387410D01*
X119103920Y-45177017D01*
X119103920Y-44962503D01*
X119062070Y-44752110D01*
X118979979Y-44553925D01*
X118860801Y-44375563D01*
X118709117Y-44223879D01*
X118530755Y-44104701D01*
X118332570Y-44022610D01*
X118122177Y-43980760D01*
X117907663Y-43980760D01*
X117697270Y-44022610D01*
X117499085Y-44104701D01*
X117320723Y-44223879D01*
X117169039Y-44375563D01*
X117049861Y-44553925D01*
X116967770Y-44752110D01*
X116925920Y-44962503D01*
X107853920Y-44962503D01*
X107812070Y-44752110D01*
X107729979Y-44553925D01*
X107610801Y-44375563D01*
X107459117Y-44223879D01*
X107280755Y-44104701D01*
X107082570Y-44022610D01*
X106872177Y-43980760D01*
X106657663Y-43980760D01*
X106447270Y-44022610D01*
X106249085Y-44104701D01*
X106070723Y-44223879D01*
X105919039Y-44375563D01*
X105799861Y-44553925D01*
X105717770Y-44752110D01*
X105675920Y-44962503D01*
X98927000Y-44962503D01*
X98927000Y-42422503D01*
X105675920Y-42422503D01*
X105675920Y-42637017D01*
X105717770Y-42847410D01*
X105799861Y-43045595D01*
X105919039Y-43223957D01*
X106070723Y-43375641D01*
X106249085Y-43494819D01*
X106447270Y-43576910D01*
X106657663Y-43618760D01*
X106872177Y-43618760D01*
X107082570Y-43576910D01*
X107279533Y-43495325D01*
X117228960Y-43495325D01*
X117295940Y-43735416D01*
X117544968Y-43852516D01*
X117812055Y-43918783D01*
X118086937Y-43931670D01*
X118359053Y-43890682D01*
X118617943Y-43797396D01*
X118733900Y-43735416D01*
X118800880Y-43495325D01*
X118014920Y-42709365D01*
X117228960Y-43495325D01*
X107279533Y-43495325D01*
X107280755Y-43494819D01*
X107459117Y-43375641D01*
X107610801Y-43223957D01*
X107729979Y-43045595D01*
X107812070Y-42847410D01*
X107853920Y-42637017D01*
X107853920Y-42601777D01*
X116613010Y-42601777D01*
X116653998Y-42873893D01*
X116747284Y-43132783D01*
X116809264Y-43248740D01*
X117049355Y-43315720D01*
X117835315Y-42529760D01*
X118194525Y-42529760D01*
X118980485Y-43315720D01*
X119220576Y-43248740D01*
X119337676Y-42999712D01*
X119403943Y-42732625D01*
X119416830Y-42457743D01*
X119375842Y-42185627D01*
X119282556Y-41926737D01*
X119220576Y-41810780D01*
X118980485Y-41743800D01*
X118194525Y-42529760D01*
X117835315Y-42529760D01*
X117049355Y-41743800D01*
X116809264Y-41810780D01*
X116692164Y-42059808D01*
X116625897Y-42326895D01*
X116613010Y-42601777D01*
X107853920Y-42601777D01*
X107853920Y-42422503D01*
X107812070Y-42212110D01*
X107729979Y-42013925D01*
X107610801Y-41835563D01*
X107459117Y-41683879D01*
X107280755Y-41564701D01*
X107279534Y-41564195D01*
X117228960Y-41564195D01*
X118014920Y-42350155D01*
X118800880Y-41564195D01*
X118733900Y-41324104D01*
X118484872Y-41207004D01*
X118217785Y-41140737D01*
X117942903Y-41127850D01*
X117670787Y-41168838D01*
X117411897Y-41262124D01*
X117295940Y-41324104D01*
X117228960Y-41564195D01*
X107279534Y-41564195D01*
X107082570Y-41482610D01*
X106872177Y-41440760D01*
X106657663Y-41440760D01*
X106447270Y-41482610D01*
X106249085Y-41564701D01*
X106070723Y-41683879D01*
X105919039Y-41835563D01*
X105799861Y-42013925D01*
X105717770Y-42212110D01*
X105675920Y-42422503D01*
X98927000Y-42422503D01*
X98927000Y-37103326D01*
X98939204Y-36978861D01*
X98968579Y-36881568D01*
X99016287Y-36791841D01*
X99080517Y-36713089D01*
X99158820Y-36648310D01*
X99248216Y-36599974D01*
X99345296Y-36569923D01*
X99487966Y-36554927D01*
X99500214Y-36555013D01*
X99506842Y-36554363D01*
X99700939Y-36533962D01*
X99743303Y-36525266D01*
X99785755Y-36517168D01*
X99792126Y-36515244D01*
X99792132Y-36515243D01*
X99792138Y-36515241D01*
X99978568Y-36457531D01*
X100018418Y-36440780D01*
X100058508Y-36424583D01*
X100064384Y-36421458D01*
X100064389Y-36421456D01*
X100064393Y-36421453D01*
X100236065Y-36328631D01*
X100271936Y-36304436D01*
X100308084Y-36280782D01*
X100313236Y-36276580D01*
X100313244Y-36276574D01*
X100313251Y-36276567D01*
X100463623Y-36152168D01*
X100494076Y-36121502D01*
X100524975Y-36091244D01*
X100529214Y-36086118D01*
X100529220Y-36086112D01*
X100529224Y-36086105D01*
X100652569Y-35934870D01*
X100676489Y-35898867D01*
X100700920Y-35863188D01*
X100704084Y-35857334D01*
X100704087Y-35857330D01*
X100704089Y-35857326D01*
X100795712Y-35685007D01*
X100812190Y-35645028D01*
X100829218Y-35605300D01*
X100831187Y-35598939D01*
X100831188Y-35598937D01*
X100831189Y-35598930D01*
X100887597Y-35412102D01*
X100896000Y-35369663D01*
X100904983Y-35327405D01*
X100905677Y-35320788D01*
X100905679Y-35320780D01*
X100905679Y-35320772D01*
X100924723Y-35126548D01*
X100924723Y-35126541D01*
X100927000Y-35103423D01*
X100927000Y-30557000D01*
X124973000Y-30557000D01*
X124973001Y-35103423D01*
G04 #@! TA.AperFunction,Conductor*
D12*
G36*
X124973001Y-35103423D02*
G01*
X124975030Y-35124025D01*
X124974987Y-35130214D01*
X124975637Y-35136842D01*
X124996038Y-35330939D01*
X125004734Y-35373303D01*
X125012832Y-35415755D01*
X125014756Y-35422126D01*
X125014757Y-35422132D01*
X125014759Y-35422138D01*
X125072469Y-35608568D01*
X125089220Y-35648418D01*
X125105417Y-35688508D01*
X125108542Y-35694384D01*
X125108544Y-35694389D01*
X125108547Y-35694393D01*
X125201369Y-35866065D01*
X125225564Y-35901936D01*
X125249218Y-35938084D01*
X125253420Y-35943236D01*
X125253426Y-35943244D01*
X125253433Y-35943251D01*
X125377832Y-36093623D01*
X125408498Y-36124076D01*
X125438756Y-36154975D01*
X125443882Y-36159214D01*
X125443888Y-36159220D01*
X125443895Y-36159224D01*
X125595130Y-36282569D01*
X125631133Y-36306489D01*
X125666812Y-36330920D01*
X125672666Y-36334084D01*
X125672670Y-36334087D01*
X125672674Y-36334089D01*
X125844993Y-36425712D01*
X125884972Y-36442190D01*
X125924700Y-36459218D01*
X125931056Y-36461185D01*
X125931063Y-36461188D01*
X125931070Y-36461189D01*
X126117898Y-36517597D01*
X126160337Y-36526000D01*
X126202595Y-36534983D01*
X126209212Y-36535677D01*
X126209220Y-36535679D01*
X126209228Y-36535679D01*
X126403452Y-36554723D01*
X126551139Y-36569204D01*
X126648432Y-36598579D01*
X126738159Y-36646287D01*
X126816911Y-36710517D01*
X126881690Y-36788820D01*
X126930026Y-36878216D01*
X126960077Y-36975296D01*
X126973000Y-37098248D01*
X126973001Y-59103000D01*
X98927000Y-59103000D01*
X98927000Y-47502503D01*
X105675920Y-47502503D01*
X105675920Y-47717017D01*
X105717770Y-47927410D01*
X105799861Y-48125595D01*
X105919039Y-48303957D01*
X106070723Y-48455641D01*
X106249085Y-48574819D01*
X106447270Y-48656910D01*
X106657663Y-48698760D01*
X106872177Y-48698760D01*
X107082570Y-48656910D01*
X107280755Y-48574819D01*
X107459117Y-48455641D01*
X107610801Y-48303957D01*
X107729979Y-48125595D01*
X107812070Y-47927410D01*
X107853920Y-47717017D01*
X107853920Y-47502503D01*
X116925920Y-47502503D01*
X116925920Y-47717017D01*
X116967770Y-47927410D01*
X117049861Y-48125595D01*
X117169039Y-48303957D01*
X117320723Y-48455641D01*
X117499085Y-48574819D01*
X117697270Y-48656910D01*
X117907663Y-48698760D01*
X118122177Y-48698760D01*
X118332570Y-48656910D01*
X118530755Y-48574819D01*
X118709117Y-48455641D01*
X118860801Y-48303957D01*
X118979979Y-48125595D01*
X119062070Y-47927410D01*
X119103920Y-47717017D01*
X119103920Y-47502503D01*
X119062070Y-47292110D01*
X118979979Y-47093925D01*
X118860801Y-46915563D01*
X118709117Y-46763879D01*
X118530755Y-46644701D01*
X118332570Y-46562610D01*
X118122177Y-46520760D01*
X117907663Y-46520760D01*
X117697270Y-46562610D01*
X117499085Y-46644701D01*
X117320723Y-46763879D01*
X117169039Y-46915563D01*
X117049861Y-47093925D01*
X116967770Y-47292110D01*
X116925920Y-47502503D01*
X107853920Y-47502503D01*
X107812070Y-47292110D01*
X107729979Y-47093925D01*
X107610801Y-46915563D01*
X107459117Y-46763879D01*
X107280755Y-46644701D01*
X107082570Y-46562610D01*
X106872177Y-46520760D01*
X106657663Y-46520760D01*
X106447270Y-46562610D01*
X106249085Y-46644701D01*
X106070723Y-46763879D01*
X105919039Y-46915563D01*
X105799861Y-47093925D01*
X105717770Y-47292110D01*
X105675920Y-47502503D01*
X98927000Y-47502503D01*
X98927000Y-44962503D01*
X105675920Y-44962503D01*
X105675920Y-45177017D01*
X105717770Y-45387410D01*
X105799861Y-45585595D01*
X105919039Y-45763957D01*
X106070723Y-45915641D01*
X106249085Y-46034819D01*
X106447270Y-46116910D01*
X106657663Y-46158760D01*
X106872177Y-46158760D01*
X107082570Y-46116910D01*
X107280755Y-46034819D01*
X107459117Y-45915641D01*
X107610801Y-45763957D01*
X107729979Y-45585595D01*
X107812070Y-45387410D01*
X107853920Y-45177017D01*
X107853920Y-44962503D01*
X116925920Y-44962503D01*
X116925920Y-45177017D01*
X116967770Y-45387410D01*
X117049861Y-45585595D01*
X117169039Y-45763957D01*
X117320723Y-45915641D01*
X117499085Y-46034819D01*
X117697270Y-46116910D01*
X117907663Y-46158760D01*
X118122177Y-46158760D01*
X118332570Y-46116910D01*
X118530755Y-46034819D01*
X118709117Y-45915641D01*
X118860801Y-45763957D01*
X118979979Y-45585595D01*
X119062070Y-45387410D01*
X119103920Y-45177017D01*
X119103920Y-44962503D01*
X119062070Y-44752110D01*
X118979979Y-44553925D01*
X118860801Y-44375563D01*
X118709117Y-44223879D01*
X118530755Y-44104701D01*
X118332570Y-44022610D01*
X118122177Y-43980760D01*
X117907663Y-43980760D01*
X117697270Y-44022610D01*
X117499085Y-44104701D01*
X117320723Y-44223879D01*
X117169039Y-44375563D01*
X117049861Y-44553925D01*
X116967770Y-44752110D01*
X116925920Y-44962503D01*
X107853920Y-44962503D01*
X107812070Y-44752110D01*
X107729979Y-44553925D01*
X107610801Y-44375563D01*
X107459117Y-44223879D01*
X107280755Y-44104701D01*
X107082570Y-44022610D01*
X106872177Y-43980760D01*
X106657663Y-43980760D01*
X106447270Y-44022610D01*
X106249085Y-44104701D01*
X106070723Y-44223879D01*
X105919039Y-44375563D01*
X105799861Y-44553925D01*
X105717770Y-44752110D01*
X105675920Y-44962503D01*
X98927000Y-44962503D01*
X98927000Y-42422503D01*
X105675920Y-42422503D01*
X105675920Y-42637017D01*
X105717770Y-42847410D01*
X105799861Y-43045595D01*
X105919039Y-43223957D01*
X106070723Y-43375641D01*
X106249085Y-43494819D01*
X106447270Y-43576910D01*
X106657663Y-43618760D01*
X106872177Y-43618760D01*
X107082570Y-43576910D01*
X107279533Y-43495325D01*
X117228960Y-43495325D01*
X117295940Y-43735416D01*
X117544968Y-43852516D01*
X117812055Y-43918783D01*
X118086937Y-43931670D01*
X118359053Y-43890682D01*
X118617943Y-43797396D01*
X118733900Y-43735416D01*
X118800880Y-43495325D01*
X118014920Y-42709365D01*
X117228960Y-43495325D01*
X107279533Y-43495325D01*
X107280755Y-43494819D01*
X107459117Y-43375641D01*
X107610801Y-43223957D01*
X107729979Y-43045595D01*
X107812070Y-42847410D01*
X107853920Y-42637017D01*
X107853920Y-42601777D01*
X116613010Y-42601777D01*
X116653998Y-42873893D01*
X116747284Y-43132783D01*
X116809264Y-43248740D01*
X117049355Y-43315720D01*
X117835315Y-42529760D01*
X118194525Y-42529760D01*
X118980485Y-43315720D01*
X119220576Y-43248740D01*
X119337676Y-42999712D01*
X119403943Y-42732625D01*
X119416830Y-42457743D01*
X119375842Y-42185627D01*
X119282556Y-41926737D01*
X119220576Y-41810780D01*
X118980485Y-41743800D01*
X118194525Y-42529760D01*
X117835315Y-42529760D01*
X117049355Y-41743800D01*
X116809264Y-41810780D01*
X116692164Y-42059808D01*
X116625897Y-42326895D01*
X116613010Y-42601777D01*
X107853920Y-42601777D01*
X107853920Y-42422503D01*
X107812070Y-42212110D01*
X107729979Y-42013925D01*
X107610801Y-41835563D01*
X107459117Y-41683879D01*
X107280755Y-41564701D01*
X107279534Y-41564195D01*
X117228960Y-41564195D01*
X118014920Y-42350155D01*
X118800880Y-41564195D01*
X118733900Y-41324104D01*
X118484872Y-41207004D01*
X118217785Y-41140737D01*
X117942903Y-41127850D01*
X117670787Y-41168838D01*
X117411897Y-41262124D01*
X117295940Y-41324104D01*
X117228960Y-41564195D01*
X107279534Y-41564195D01*
X107082570Y-41482610D01*
X106872177Y-41440760D01*
X106657663Y-41440760D01*
X106447270Y-41482610D01*
X106249085Y-41564701D01*
X106070723Y-41683879D01*
X105919039Y-41835563D01*
X105799861Y-42013925D01*
X105717770Y-42212110D01*
X105675920Y-42422503D01*
X98927000Y-42422503D01*
X98927000Y-37103326D01*
X98939204Y-36978861D01*
X98968579Y-36881568D01*
X99016287Y-36791841D01*
X99080517Y-36713089D01*
X99158820Y-36648310D01*
X99248216Y-36599974D01*
X99345296Y-36569923D01*
X99487966Y-36554927D01*
X99500214Y-36555013D01*
X99506842Y-36554363D01*
X99700939Y-36533962D01*
X99743303Y-36525266D01*
X99785755Y-36517168D01*
X99792126Y-36515244D01*
X99792132Y-36515243D01*
X99792138Y-36515241D01*
X99978568Y-36457531D01*
X100018418Y-36440780D01*
X100058508Y-36424583D01*
X100064384Y-36421458D01*
X100064389Y-36421456D01*
X100064393Y-36421453D01*
X100236065Y-36328631D01*
X100271936Y-36304436D01*
X100308084Y-36280782D01*
X100313236Y-36276580D01*
X100313244Y-36276574D01*
X100313251Y-36276567D01*
X100463623Y-36152168D01*
X100494076Y-36121502D01*
X100524975Y-36091244D01*
X100529214Y-36086118D01*
X100529220Y-36086112D01*
X100529224Y-36086105D01*
X100652569Y-35934870D01*
X100676489Y-35898867D01*
X100700920Y-35863188D01*
X100704084Y-35857334D01*
X100704087Y-35857330D01*
X100704089Y-35857326D01*
X100795712Y-35685007D01*
X100812190Y-35645028D01*
X100829218Y-35605300D01*
X100831187Y-35598939D01*
X100831188Y-35598937D01*
X100831189Y-35598930D01*
X100887597Y-35412102D01*
X100896000Y-35369663D01*
X100904983Y-35327405D01*
X100905677Y-35320788D01*
X100905679Y-35320780D01*
X100905679Y-35320772D01*
X100924723Y-35126548D01*
X100924723Y-35126541D01*
X100927000Y-35103423D01*
X100927000Y-30557000D01*
X124973000Y-30557000D01*
X124973001Y-35103423D01*
G37*
G04 #@! TD.AperFunction*
M02*
