G04 #@! TF.GenerationSoftware,KiCad,Pcbnew,5.1.5-52549c5~86~ubuntu16.04.1*
G04 #@! TF.CreationDate,2020-07-05T11:22:45-05:00*
G04 #@! TF.ProjectId,keep_breathing_ctrl,6b656570-5f62-4726-9561-7468696e675f,rev?*
G04 #@! TF.SameCoordinates,Original*
G04 #@! TF.FileFunction,Legend,Top*
G04 #@! TF.FilePolarity,Positive*
%FSLAX46Y46*%
G04 Gerber Fmt 4.6, Leading zero omitted, Abs format (unit mm)*
G04 Created by KiCad (PCBNEW 5.1.5-52549c5~86~ubuntu16.04.1) date 2020-07-05 11:22:45*
%MOMM*%
%LPD*%
G04 APERTURE LIST*
%ADD10C,0.150000*%
%ADD11C,0.300000*%
%ADD12C,0.250000*%
%ADD13C,0.200000*%
%ADD14C,0.140000*%
%ADD15C,0.120000*%
%ADD16C,0.100000*%
%ADD17C,0.152400*%
%ADD18C,0.127000*%
%ADD19C,0.015000*%
G04 APERTURE END LIST*
D10*
X90882285Y-80271737D02*
X90930403Y-80318852D01*
X90979022Y-80413584D01*
X90981528Y-80651666D01*
X90934914Y-80747400D01*
X90887799Y-80795518D01*
X90793067Y-80844137D01*
X90697834Y-80845139D01*
X90554484Y-80799026D01*
X89977072Y-80233644D01*
X89983588Y-80852658D01*
X90083332Y-81280203D02*
X90036217Y-81328320D01*
X89988099Y-81281205D01*
X90035214Y-81233088D01*
X90083332Y-81280203D01*
X89988099Y-81281205D01*
X90566012Y-81894204D02*
X90612626Y-81798470D01*
X90659741Y-81750352D01*
X90754473Y-81701733D01*
X90802089Y-81701232D01*
X90897823Y-81747846D01*
X90945941Y-81794961D01*
X90994560Y-81889693D01*
X90996564Y-82080158D01*
X90949950Y-82175892D01*
X90902835Y-82224010D01*
X90808104Y-82272629D01*
X90760487Y-82273130D01*
X90664753Y-82226516D01*
X90616636Y-82179401D01*
X90568017Y-82084669D01*
X90566012Y-81894204D01*
X90517393Y-81799472D01*
X90469275Y-81752357D01*
X90373541Y-81705743D01*
X90183076Y-81707748D01*
X90088344Y-81756367D01*
X90041229Y-81804484D01*
X89994615Y-81900219D01*
X89996620Y-82090684D01*
X90045239Y-82185416D01*
X90093356Y-82232531D01*
X90189090Y-82279145D01*
X90379556Y-82277140D01*
X90474288Y-82228521D01*
X90521403Y-82180404D01*
X90568017Y-82084669D01*
X91008093Y-83175336D02*
X91003080Y-82699172D01*
X90526415Y-82656568D01*
X90574533Y-82703683D01*
X90623152Y-82798414D01*
X90625658Y-83036496D01*
X90579044Y-83132230D01*
X90531929Y-83180348D01*
X90437197Y-83228967D01*
X90199115Y-83231473D01*
X90103381Y-83184859D01*
X90055263Y-83137744D01*
X90006644Y-83043012D01*
X90004138Y-82804930D01*
X90050752Y-82709196D01*
X90097867Y-82661079D01*
X91015110Y-83841966D02*
X91016112Y-83937198D01*
X90969498Y-84032932D01*
X90922383Y-84081050D01*
X90827651Y-84129669D01*
X90637687Y-84179290D01*
X90399605Y-84181796D01*
X90208638Y-84136185D01*
X90112904Y-84089571D01*
X90064786Y-84042456D01*
X90016168Y-83947724D01*
X90015165Y-83852491D01*
X90061779Y-83756757D01*
X90108894Y-83708640D01*
X90203626Y-83660021D01*
X90393590Y-83610399D01*
X90631672Y-83607893D01*
X90822639Y-83653505D01*
X90918373Y-83700119D01*
X90966491Y-83747234D01*
X91015110Y-83841966D01*
X90031204Y-85376216D02*
X90697834Y-85369199D01*
X90602601Y-85370202D02*
X90650719Y-85417317D01*
X90699338Y-85512049D01*
X90700841Y-85654898D01*
X90654227Y-85750632D01*
X90559496Y-85799251D01*
X90035715Y-85804764D01*
X90559496Y-85799251D02*
X90655230Y-85845865D01*
X90703849Y-85940596D01*
X90705352Y-86083445D01*
X90658739Y-86179179D01*
X90564007Y-86227798D01*
X90040226Y-86233312D01*
X90045239Y-86709476D02*
X90711868Y-86702459D01*
X90616636Y-86703461D02*
X90664753Y-86750576D01*
X90713372Y-86845308D01*
X90714876Y-86988157D01*
X90668262Y-87083891D01*
X90573530Y-87132510D01*
X90049750Y-87138024D01*
X90573530Y-87132510D02*
X90669264Y-87179124D01*
X90717883Y-87273856D01*
X90719387Y-87416705D01*
X90672773Y-87512439D01*
X90578041Y-87561058D01*
X90054261Y-87566571D01*
X89153596Y-82531646D02*
X89183596Y-85381646D01*
X39910000Y-83050000D02*
X89739984Y-82525474D01*
X39940000Y-85900000D02*
X89769984Y-85375474D01*
X89183596Y-85381646D02*
X88585350Y-84261377D01*
X89183596Y-85381646D02*
X89758127Y-84249032D01*
X89153596Y-82531646D02*
X88579065Y-83664260D01*
X89153596Y-82531646D02*
X89751842Y-83651915D01*
X181300000Y-55000000D02*
X178000000Y-51700000D01*
X129260000Y-40060000D02*
X129260000Y-21500000D01*
X131610000Y-42400000D02*
X129260000Y-40060000D01*
X181300000Y-55000000D02*
X193000000Y-55000000D01*
X178000000Y-42400000D02*
X178000000Y-51700000D01*
X67166666Y-137377380D02*
X67166666Y-136377380D01*
X67547619Y-136377380D01*
X67642857Y-136425000D01*
X67690476Y-136472619D01*
X67738095Y-136567857D01*
X67738095Y-136710714D01*
X67690476Y-136805952D01*
X67642857Y-136853571D01*
X67547619Y-136901190D01*
X67166666Y-136901190D01*
X68071428Y-136377380D02*
X68309523Y-137377380D01*
X68500000Y-136663095D01*
X68690476Y-137377380D01*
X68928571Y-136377380D01*
X69880952Y-137377380D02*
X69547619Y-136901190D01*
X69309523Y-137377380D02*
X69309523Y-136377380D01*
X69690476Y-136377380D01*
X69785714Y-136425000D01*
X69833333Y-136472619D01*
X69880952Y-136567857D01*
X69880952Y-136710714D01*
X69833333Y-136805952D01*
X69785714Y-136853571D01*
X69690476Y-136901190D01*
X69309523Y-136901190D01*
X67738095Y-138075000D02*
X67642857Y-138027380D01*
X67500000Y-138027380D01*
X67357142Y-138075000D01*
X67261904Y-138170238D01*
X67214285Y-138265476D01*
X67166666Y-138455952D01*
X67166666Y-138598809D01*
X67214285Y-138789285D01*
X67261904Y-138884523D01*
X67357142Y-138979761D01*
X67500000Y-139027380D01*
X67595238Y-139027380D01*
X67738095Y-138979761D01*
X67785714Y-138932142D01*
X67785714Y-138598809D01*
X67595238Y-138598809D01*
X68214285Y-139027380D02*
X68214285Y-138027380D01*
X68785714Y-139027380D01*
X68785714Y-138027380D01*
X69261904Y-139027380D02*
X69261904Y-138027380D01*
X69500000Y-138027380D01*
X69642857Y-138075000D01*
X69738095Y-138170238D01*
X69785714Y-138265476D01*
X69833333Y-138455952D01*
X69833333Y-138598809D01*
X69785714Y-138789285D01*
X69738095Y-138884523D01*
X69642857Y-138979761D01*
X69500000Y-139027380D01*
X69261904Y-139027380D01*
X62559523Y-136702380D02*
X62083333Y-136702380D01*
X62035714Y-137178571D01*
X62083333Y-137130952D01*
X62178571Y-137083333D01*
X62416666Y-137083333D01*
X62511904Y-137130952D01*
X62559523Y-137178571D01*
X62607142Y-137273809D01*
X62607142Y-137511904D01*
X62559523Y-137607142D01*
X62511904Y-137654761D01*
X62416666Y-137702380D01*
X62178571Y-137702380D01*
X62083333Y-137654761D01*
X62035714Y-137607142D01*
X62892857Y-136702380D02*
X63226190Y-137702380D01*
X63559523Y-136702380D01*
X55559523Y-136797619D02*
X55607142Y-136750000D01*
X55702380Y-136702380D01*
X55940476Y-136702380D01*
X56035714Y-136750000D01*
X56083333Y-136797619D01*
X56130952Y-136892857D01*
X56130952Y-136988095D01*
X56083333Y-137130952D01*
X55511904Y-137702380D01*
X56130952Y-137702380D01*
X56988095Y-137035714D02*
X56988095Y-137702380D01*
X56750000Y-136654761D02*
X56511904Y-137369047D01*
X57130952Y-137369047D01*
X57369047Y-136702380D02*
X57702380Y-137702380D01*
X58035714Y-136702380D01*
X61880952Y-123702380D02*
X61309523Y-123702380D01*
X61595238Y-123702380D02*
X61595238Y-122702380D01*
X61500000Y-122845238D01*
X61404761Y-122940476D01*
X61309523Y-122988095D01*
X62261904Y-122797619D02*
X62309523Y-122750000D01*
X62404761Y-122702380D01*
X62642857Y-122702380D01*
X62738095Y-122750000D01*
X62785714Y-122797619D01*
X62833333Y-122892857D01*
X62833333Y-122988095D01*
X62785714Y-123130952D01*
X62214285Y-123702380D01*
X62833333Y-123702380D01*
X63119047Y-122702380D02*
X63452380Y-123702380D01*
X63785714Y-122702380D01*
X56785714Y-123035714D02*
X56785714Y-123702380D01*
X56547619Y-122654761D02*
X56309523Y-123369047D01*
X56928571Y-123369047D01*
X57452380Y-123130952D02*
X57357142Y-123083333D01*
X57309523Y-123035714D01*
X57261904Y-122940476D01*
X57261904Y-122892857D01*
X57309523Y-122797619D01*
X57357142Y-122750000D01*
X57452380Y-122702380D01*
X57642857Y-122702380D01*
X57738095Y-122750000D01*
X57785714Y-122797619D01*
X57833333Y-122892857D01*
X57833333Y-122940476D01*
X57785714Y-123035714D01*
X57738095Y-123083333D01*
X57642857Y-123130952D01*
X57452380Y-123130952D01*
X57357142Y-123178571D01*
X57309523Y-123226190D01*
X57261904Y-123321428D01*
X57261904Y-123511904D01*
X57309523Y-123607142D01*
X57357142Y-123654761D01*
X57452380Y-123702380D01*
X57642857Y-123702380D01*
X57738095Y-123654761D01*
X57785714Y-123607142D01*
X57833333Y-123511904D01*
X57833333Y-123321428D01*
X57785714Y-123226190D01*
X57738095Y-123178571D01*
X57642857Y-123130952D01*
X58119047Y-122702380D02*
X58452380Y-123702380D01*
X58785714Y-122702380D01*
X73238095Y-137250000D02*
X73142857Y-137202380D01*
X73000000Y-137202380D01*
X72857142Y-137250000D01*
X72761904Y-137345238D01*
X72714285Y-137440476D01*
X72666666Y-137630952D01*
X72666666Y-137773809D01*
X72714285Y-137964285D01*
X72761904Y-138059523D01*
X72857142Y-138154761D01*
X73000000Y-138202380D01*
X73095238Y-138202380D01*
X73238095Y-138154761D01*
X73285714Y-138107142D01*
X73285714Y-137773809D01*
X73095238Y-137773809D01*
X73714285Y-138202380D02*
X73714285Y-137202380D01*
X74285714Y-138202380D01*
X74285714Y-137202380D01*
X74761904Y-138202380D02*
X74761904Y-137202380D01*
X75000000Y-137202380D01*
X75142857Y-137250000D01*
X75238095Y-137345238D01*
X75285714Y-137440476D01*
X75333333Y-137630952D01*
X75333333Y-137773809D01*
X75285714Y-137964285D01*
X75238095Y-138059523D01*
X75142857Y-138154761D01*
X75000000Y-138202380D01*
X74761904Y-138202380D01*
X73238095Y-122750000D02*
X73142857Y-122702380D01*
X73000000Y-122702380D01*
X72857142Y-122750000D01*
X72761904Y-122845238D01*
X72714285Y-122940476D01*
X72666666Y-123130952D01*
X72666666Y-123273809D01*
X72714285Y-123464285D01*
X72761904Y-123559523D01*
X72857142Y-123654761D01*
X73000000Y-123702380D01*
X73095238Y-123702380D01*
X73238095Y-123654761D01*
X73285714Y-123607142D01*
X73285714Y-123273809D01*
X73095238Y-123273809D01*
X73714285Y-123702380D02*
X73714285Y-122702380D01*
X74285714Y-123702380D01*
X74285714Y-122702380D01*
X74761904Y-123702380D02*
X74761904Y-122702380D01*
X75000000Y-122702380D01*
X75142857Y-122750000D01*
X75238095Y-122845238D01*
X75285714Y-122940476D01*
X75333333Y-123130952D01*
X75333333Y-123273809D01*
X75285714Y-123464285D01*
X75238095Y-123559523D01*
X75142857Y-123654761D01*
X75000000Y-123702380D01*
X74761904Y-123702380D01*
X67476190Y-122702380D02*
X67809523Y-123702380D01*
X68142857Y-122702380D01*
X68476190Y-123702380D02*
X68476190Y-123035714D01*
X68476190Y-122702380D02*
X68428571Y-122750000D01*
X68476190Y-122797619D01*
X68523809Y-122750000D01*
X68476190Y-122702380D01*
X68476190Y-122797619D01*
X68952380Y-123035714D02*
X68952380Y-123702380D01*
X68952380Y-123130952D02*
X69000000Y-123083333D01*
X69095238Y-123035714D01*
X69238095Y-123035714D01*
X69333333Y-123083333D01*
X69380952Y-123178571D01*
X69380952Y-123702380D01*
X66500000Y-124500000D02*
X66500000Y-122400000D01*
X72000000Y-133000000D02*
X72000000Y-139000000D01*
X66500000Y-127500000D02*
X72000000Y-133000000D01*
X66500000Y-124500000D02*
X66500000Y-127500000D01*
X49000000Y-43500000D02*
X49000000Y-25750000D01*
X114750000Y-50250000D02*
X124000000Y-43750000D01*
X55118000Y-43434000D02*
X57658000Y-43434000D01*
X55110000Y-40640000D02*
X51808000Y-40640000D01*
X55110000Y-35560000D02*
X51808000Y-35560000D01*
X51808000Y-43434000D02*
X55110000Y-43434000D01*
X52260571Y-36422857D02*
X52303428Y-36380000D01*
X52389142Y-36337142D01*
X52603428Y-36337142D01*
X52689142Y-36380000D01*
X52732000Y-36422857D01*
X52774857Y-36508571D01*
X52774857Y-36594285D01*
X52732000Y-36722857D01*
X52217714Y-37237142D01*
X52774857Y-37237142D01*
X53546285Y-36637142D02*
X53546285Y-37237142D01*
X53332000Y-36294285D02*
X53117714Y-36937142D01*
X53674857Y-36937142D01*
X53889142Y-36337142D02*
X54189142Y-37237142D01*
X54489142Y-36337142D01*
X55130000Y-33050000D02*
X51808000Y-33020000D01*
X51808000Y-33020000D02*
X51808000Y-43434000D01*
X53668571Y-41507142D02*
X53240000Y-41507142D01*
X53197142Y-41935714D01*
X53240000Y-41892857D01*
X53325714Y-41850000D01*
X53540000Y-41850000D01*
X53625714Y-41892857D01*
X53668571Y-41935714D01*
X53711428Y-42021428D01*
X53711428Y-42235714D01*
X53668571Y-42321428D01*
X53625714Y-42364285D01*
X53540000Y-42407142D01*
X53325714Y-42407142D01*
X53240000Y-42364285D01*
X53197142Y-42321428D01*
X53968571Y-41507142D02*
X54268571Y-42407142D01*
X54568571Y-41507142D01*
X51808000Y-38100000D02*
X55110000Y-38100000D01*
X52689142Y-34097142D02*
X52689142Y-34697142D01*
X52474857Y-33754285D02*
X52260571Y-34397142D01*
X52817714Y-34397142D01*
X53289142Y-34182857D02*
X53203428Y-34140000D01*
X53160571Y-34097142D01*
X53117714Y-34011428D01*
X53117714Y-33968571D01*
X53160571Y-33882857D01*
X53203428Y-33840000D01*
X53289142Y-33797142D01*
X53460571Y-33797142D01*
X53546285Y-33840000D01*
X53589142Y-33882857D01*
X53632000Y-33968571D01*
X53632000Y-34011428D01*
X53589142Y-34097142D01*
X53546285Y-34140000D01*
X53460571Y-34182857D01*
X53289142Y-34182857D01*
X53203428Y-34225714D01*
X53160571Y-34268571D01*
X53117714Y-34354285D01*
X53117714Y-34525714D01*
X53160571Y-34611428D01*
X53203428Y-34654285D01*
X53289142Y-34697142D01*
X53460571Y-34697142D01*
X53546285Y-34654285D01*
X53589142Y-34611428D01*
X53632000Y-34525714D01*
X53632000Y-34354285D01*
X53589142Y-34268571D01*
X53546285Y-34225714D01*
X53460571Y-34182857D01*
X53889142Y-33797142D02*
X54189142Y-34697142D01*
X54489142Y-33797142D01*
X52774857Y-39777142D02*
X52260571Y-39777142D01*
X52517714Y-39777142D02*
X52517714Y-38877142D01*
X52432000Y-39005714D01*
X52346285Y-39091428D01*
X52260571Y-39134285D01*
X53117714Y-38962857D02*
X53160571Y-38920000D01*
X53246285Y-38877142D01*
X53460571Y-38877142D01*
X53546285Y-38920000D01*
X53589142Y-38962857D01*
X53632000Y-39048571D01*
X53632000Y-39134285D01*
X53589142Y-39262857D01*
X53074857Y-39777142D01*
X53632000Y-39777142D01*
X53889142Y-38877142D02*
X54189142Y-39777142D01*
X54489142Y-38877142D01*
X55110000Y-43434000D02*
X55130000Y-33050000D01*
X66110000Y-40550000D02*
X62808000Y-40550000D01*
X66110000Y-35470000D02*
X62808000Y-35470000D01*
X62808000Y-43344000D02*
X68707000Y-43344000D01*
X63260571Y-36332857D02*
X63303428Y-36290000D01*
X63389142Y-36247142D01*
X63603428Y-36247142D01*
X63689142Y-36290000D01*
X63732000Y-36332857D01*
X63774857Y-36418571D01*
X63774857Y-36504285D01*
X63732000Y-36632857D01*
X63217714Y-37147142D01*
X63774857Y-37147142D01*
X64546285Y-36547142D02*
X64546285Y-37147142D01*
X64332000Y-36204285D02*
X64117714Y-36847142D01*
X64674857Y-36847142D01*
X64889142Y-36247142D02*
X65189142Y-37147142D01*
X65489142Y-36247142D01*
X66130000Y-32960000D02*
X62808000Y-32930000D01*
X62808000Y-32930000D02*
X62808000Y-43344000D01*
X64668571Y-41417142D02*
X64240000Y-41417142D01*
X64197142Y-41845714D01*
X64240000Y-41802857D01*
X64325714Y-41760000D01*
X64540000Y-41760000D01*
X64625714Y-41802857D01*
X64668571Y-41845714D01*
X64711428Y-41931428D01*
X64711428Y-42145714D01*
X64668571Y-42231428D01*
X64625714Y-42274285D01*
X64540000Y-42317142D01*
X64325714Y-42317142D01*
X64240000Y-42274285D01*
X64197142Y-42231428D01*
X64968571Y-41417142D02*
X65268571Y-42317142D01*
X65568571Y-41417142D01*
X62808000Y-38010000D02*
X66110000Y-38010000D01*
X63689142Y-34007142D02*
X63689142Y-34607142D01*
X63474857Y-33664285D02*
X63260571Y-34307142D01*
X63817714Y-34307142D01*
X64289142Y-34092857D02*
X64203428Y-34050000D01*
X64160571Y-34007142D01*
X64117714Y-33921428D01*
X64117714Y-33878571D01*
X64160571Y-33792857D01*
X64203428Y-33750000D01*
X64289142Y-33707142D01*
X64460571Y-33707142D01*
X64546285Y-33750000D01*
X64589142Y-33792857D01*
X64632000Y-33878571D01*
X64632000Y-33921428D01*
X64589142Y-34007142D01*
X64546285Y-34050000D01*
X64460571Y-34092857D01*
X64289142Y-34092857D01*
X64203428Y-34135714D01*
X64160571Y-34178571D01*
X64117714Y-34264285D01*
X64117714Y-34435714D01*
X64160571Y-34521428D01*
X64203428Y-34564285D01*
X64289142Y-34607142D01*
X64460571Y-34607142D01*
X64546285Y-34564285D01*
X64589142Y-34521428D01*
X64632000Y-34435714D01*
X64632000Y-34264285D01*
X64589142Y-34178571D01*
X64546285Y-34135714D01*
X64460571Y-34092857D01*
X64889142Y-33707142D02*
X65189142Y-34607142D01*
X65489142Y-33707142D01*
X63774857Y-39687142D02*
X63260571Y-39687142D01*
X63517714Y-39687142D02*
X63517714Y-38787142D01*
X63432000Y-38915714D01*
X63346285Y-39001428D01*
X63260571Y-39044285D01*
X64117714Y-38872857D02*
X64160571Y-38830000D01*
X64246285Y-38787142D01*
X64460571Y-38787142D01*
X64546285Y-38830000D01*
X64589142Y-38872857D01*
X64632000Y-38958571D01*
X64632000Y-39044285D01*
X64589142Y-39172857D01*
X64074857Y-39687142D01*
X64632000Y-39687142D01*
X64889142Y-38787142D02*
X65189142Y-39687142D01*
X65489142Y-38787142D01*
X66110000Y-43344000D02*
X66130000Y-32960000D01*
X77110000Y-40640000D02*
X73808000Y-40640000D01*
X77110000Y-35560000D02*
X73808000Y-35560000D01*
X73808000Y-43434000D02*
X79756000Y-43434000D01*
X74260571Y-36422857D02*
X74303428Y-36380000D01*
X74389142Y-36337142D01*
X74603428Y-36337142D01*
X74689142Y-36380000D01*
X74732000Y-36422857D01*
X74774857Y-36508571D01*
X74774857Y-36594285D01*
X74732000Y-36722857D01*
X74217714Y-37237142D01*
X74774857Y-37237142D01*
X75546285Y-36637142D02*
X75546285Y-37237142D01*
X75332000Y-36294285D02*
X75117714Y-36937142D01*
X75674857Y-36937142D01*
X75889142Y-36337142D02*
X76189142Y-37237142D01*
X76489142Y-36337142D01*
X77130000Y-33050000D02*
X73808000Y-33020000D01*
X73808000Y-33020000D02*
X73808000Y-43434000D01*
X75668571Y-41507142D02*
X75240000Y-41507142D01*
X75197142Y-41935714D01*
X75240000Y-41892857D01*
X75325714Y-41850000D01*
X75540000Y-41850000D01*
X75625714Y-41892857D01*
X75668571Y-41935714D01*
X75711428Y-42021428D01*
X75711428Y-42235714D01*
X75668571Y-42321428D01*
X75625714Y-42364285D01*
X75540000Y-42407142D01*
X75325714Y-42407142D01*
X75240000Y-42364285D01*
X75197142Y-42321428D01*
X75968571Y-41507142D02*
X76268571Y-42407142D01*
X76568571Y-41507142D01*
X73808000Y-38100000D02*
X77110000Y-38100000D01*
X74689142Y-34097142D02*
X74689142Y-34697142D01*
X74474857Y-33754285D02*
X74260571Y-34397142D01*
X74817714Y-34397142D01*
X75289142Y-34182857D02*
X75203428Y-34140000D01*
X75160571Y-34097142D01*
X75117714Y-34011428D01*
X75117714Y-33968571D01*
X75160571Y-33882857D01*
X75203428Y-33840000D01*
X75289142Y-33797142D01*
X75460571Y-33797142D01*
X75546285Y-33840000D01*
X75589142Y-33882857D01*
X75632000Y-33968571D01*
X75632000Y-34011428D01*
X75589142Y-34097142D01*
X75546285Y-34140000D01*
X75460571Y-34182857D01*
X75289142Y-34182857D01*
X75203428Y-34225714D01*
X75160571Y-34268571D01*
X75117714Y-34354285D01*
X75117714Y-34525714D01*
X75160571Y-34611428D01*
X75203428Y-34654285D01*
X75289142Y-34697142D01*
X75460571Y-34697142D01*
X75546285Y-34654285D01*
X75589142Y-34611428D01*
X75632000Y-34525714D01*
X75632000Y-34354285D01*
X75589142Y-34268571D01*
X75546285Y-34225714D01*
X75460571Y-34182857D01*
X75889142Y-33797142D02*
X76189142Y-34697142D01*
X76489142Y-33797142D01*
X74774857Y-39777142D02*
X74260571Y-39777142D01*
X74517714Y-39777142D02*
X74517714Y-38877142D01*
X74432000Y-39005714D01*
X74346285Y-39091428D01*
X74260571Y-39134285D01*
X75117714Y-38962857D02*
X75160571Y-38920000D01*
X75246285Y-38877142D01*
X75460571Y-38877142D01*
X75546285Y-38920000D01*
X75589142Y-38962857D01*
X75632000Y-39048571D01*
X75632000Y-39134285D01*
X75589142Y-39262857D01*
X75074857Y-39777142D01*
X75632000Y-39777142D01*
X75889142Y-38877142D02*
X76189142Y-39777142D01*
X76489142Y-38877142D01*
X77110000Y-43434000D02*
X77130000Y-33050000D01*
X96110000Y-40640000D02*
X92808000Y-40640000D01*
X96110000Y-35560000D02*
X92808000Y-35560000D01*
X92808000Y-43434000D02*
X98679000Y-43434000D01*
X93260571Y-36422857D02*
X93303428Y-36380000D01*
X93389142Y-36337142D01*
X93603428Y-36337142D01*
X93689142Y-36380000D01*
X93732000Y-36422857D01*
X93774857Y-36508571D01*
X93774857Y-36594285D01*
X93732000Y-36722857D01*
X93217714Y-37237142D01*
X93774857Y-37237142D01*
X94546285Y-36637142D02*
X94546285Y-37237142D01*
X94332000Y-36294285D02*
X94117714Y-36937142D01*
X94674857Y-36937142D01*
X94889142Y-36337142D02*
X95189142Y-37237142D01*
X95489142Y-36337142D01*
X96130000Y-33050000D02*
X92808000Y-33020000D01*
X92808000Y-33020000D02*
X92808000Y-43434000D01*
X94668571Y-41507142D02*
X94240000Y-41507142D01*
X94197142Y-41935714D01*
X94240000Y-41892857D01*
X94325714Y-41850000D01*
X94540000Y-41850000D01*
X94625714Y-41892857D01*
X94668571Y-41935714D01*
X94711428Y-42021428D01*
X94711428Y-42235714D01*
X94668571Y-42321428D01*
X94625714Y-42364285D01*
X94540000Y-42407142D01*
X94325714Y-42407142D01*
X94240000Y-42364285D01*
X94197142Y-42321428D01*
X94968571Y-41507142D02*
X95268571Y-42407142D01*
X95568571Y-41507142D01*
X92808000Y-38100000D02*
X96110000Y-38100000D01*
X93689142Y-34097142D02*
X93689142Y-34697142D01*
X93474857Y-33754285D02*
X93260571Y-34397142D01*
X93817714Y-34397142D01*
X94289142Y-34182857D02*
X94203428Y-34140000D01*
X94160571Y-34097142D01*
X94117714Y-34011428D01*
X94117714Y-33968571D01*
X94160571Y-33882857D01*
X94203428Y-33840000D01*
X94289142Y-33797142D01*
X94460571Y-33797142D01*
X94546285Y-33840000D01*
X94589142Y-33882857D01*
X94632000Y-33968571D01*
X94632000Y-34011428D01*
X94589142Y-34097142D01*
X94546285Y-34140000D01*
X94460571Y-34182857D01*
X94289142Y-34182857D01*
X94203428Y-34225714D01*
X94160571Y-34268571D01*
X94117714Y-34354285D01*
X94117714Y-34525714D01*
X94160571Y-34611428D01*
X94203428Y-34654285D01*
X94289142Y-34697142D01*
X94460571Y-34697142D01*
X94546285Y-34654285D01*
X94589142Y-34611428D01*
X94632000Y-34525714D01*
X94632000Y-34354285D01*
X94589142Y-34268571D01*
X94546285Y-34225714D01*
X94460571Y-34182857D01*
X94889142Y-33797142D02*
X95189142Y-34697142D01*
X95489142Y-33797142D01*
X93774857Y-39777142D02*
X93260571Y-39777142D01*
X93517714Y-39777142D02*
X93517714Y-38877142D01*
X93432000Y-39005714D01*
X93346285Y-39091428D01*
X93260571Y-39134285D01*
X94117714Y-38962857D02*
X94160571Y-38920000D01*
X94246285Y-38877142D01*
X94460571Y-38877142D01*
X94546285Y-38920000D01*
X94589142Y-38962857D01*
X94632000Y-39048571D01*
X94632000Y-39134285D01*
X94589142Y-39262857D01*
X94074857Y-39777142D01*
X94632000Y-39777142D01*
X94889142Y-38877142D02*
X95189142Y-39777142D01*
X95489142Y-38877142D01*
X96110000Y-43434000D02*
X96130000Y-33050000D01*
X107110000Y-40640000D02*
X103808000Y-40640000D01*
X107110000Y-35560000D02*
X103808000Y-35560000D01*
X103808000Y-43434000D02*
X109728000Y-43434000D01*
X104260571Y-36422857D02*
X104303428Y-36380000D01*
X104389142Y-36337142D01*
X104603428Y-36337142D01*
X104689142Y-36380000D01*
X104732000Y-36422857D01*
X104774857Y-36508571D01*
X104774857Y-36594285D01*
X104732000Y-36722857D01*
X104217714Y-37237142D01*
X104774857Y-37237142D01*
X105546285Y-36637142D02*
X105546285Y-37237142D01*
X105332000Y-36294285D02*
X105117714Y-36937142D01*
X105674857Y-36937142D01*
X105889142Y-36337142D02*
X106189142Y-37237142D01*
X106489142Y-36337142D01*
X107130000Y-33050000D02*
X103808000Y-33020000D01*
X103808000Y-33020000D02*
X103808000Y-43434000D01*
X105668571Y-41507142D02*
X105240000Y-41507142D01*
X105197142Y-41935714D01*
X105240000Y-41892857D01*
X105325714Y-41850000D01*
X105540000Y-41850000D01*
X105625714Y-41892857D01*
X105668571Y-41935714D01*
X105711428Y-42021428D01*
X105711428Y-42235714D01*
X105668571Y-42321428D01*
X105625714Y-42364285D01*
X105540000Y-42407142D01*
X105325714Y-42407142D01*
X105240000Y-42364285D01*
X105197142Y-42321428D01*
X105968571Y-41507142D02*
X106268571Y-42407142D01*
X106568571Y-41507142D01*
X103808000Y-38100000D02*
X107110000Y-38100000D01*
X104689142Y-34097142D02*
X104689142Y-34697142D01*
X104474857Y-33754285D02*
X104260571Y-34397142D01*
X104817714Y-34397142D01*
X105289142Y-34182857D02*
X105203428Y-34140000D01*
X105160571Y-34097142D01*
X105117714Y-34011428D01*
X105117714Y-33968571D01*
X105160571Y-33882857D01*
X105203428Y-33840000D01*
X105289142Y-33797142D01*
X105460571Y-33797142D01*
X105546285Y-33840000D01*
X105589142Y-33882857D01*
X105632000Y-33968571D01*
X105632000Y-34011428D01*
X105589142Y-34097142D01*
X105546285Y-34140000D01*
X105460571Y-34182857D01*
X105289142Y-34182857D01*
X105203428Y-34225714D01*
X105160571Y-34268571D01*
X105117714Y-34354285D01*
X105117714Y-34525714D01*
X105160571Y-34611428D01*
X105203428Y-34654285D01*
X105289142Y-34697142D01*
X105460571Y-34697142D01*
X105546285Y-34654285D01*
X105589142Y-34611428D01*
X105632000Y-34525714D01*
X105632000Y-34354285D01*
X105589142Y-34268571D01*
X105546285Y-34225714D01*
X105460571Y-34182857D01*
X105889142Y-33797142D02*
X106189142Y-34697142D01*
X106489142Y-33797142D01*
X104774857Y-39777142D02*
X104260571Y-39777142D01*
X104517714Y-39777142D02*
X104517714Y-38877142D01*
X104432000Y-39005714D01*
X104346285Y-39091428D01*
X104260571Y-39134285D01*
X105117714Y-38962857D02*
X105160571Y-38920000D01*
X105246285Y-38877142D01*
X105460571Y-38877142D01*
X105546285Y-38920000D01*
X105589142Y-38962857D01*
X105632000Y-39048571D01*
X105632000Y-39134285D01*
X105589142Y-39262857D01*
X105074857Y-39777142D01*
X105632000Y-39777142D01*
X105889142Y-38877142D02*
X106189142Y-39777142D01*
X106489142Y-38877142D01*
X107110000Y-43434000D02*
X107130000Y-33050000D01*
X118110000Y-40640000D02*
X114808000Y-40640000D01*
X114808000Y-38100000D02*
X118110000Y-38100000D01*
X118110000Y-35560000D02*
X114808000Y-35560000D01*
X118110000Y-43434000D02*
X118130000Y-33050000D01*
X114808000Y-43434000D02*
X120650000Y-43434000D01*
X114808000Y-33020000D02*
X114808000Y-43434000D01*
X118130000Y-33050000D02*
X114808000Y-33020000D01*
X115689142Y-34097142D02*
X115689142Y-34697142D01*
X115474857Y-33754285D02*
X115260571Y-34397142D01*
X115817714Y-34397142D01*
X116289142Y-34182857D02*
X116203428Y-34140000D01*
X116160571Y-34097142D01*
X116117714Y-34011428D01*
X116117714Y-33968571D01*
X116160571Y-33882857D01*
X116203428Y-33840000D01*
X116289142Y-33797142D01*
X116460571Y-33797142D01*
X116546285Y-33840000D01*
X116589142Y-33882857D01*
X116632000Y-33968571D01*
X116632000Y-34011428D01*
X116589142Y-34097142D01*
X116546285Y-34140000D01*
X116460571Y-34182857D01*
X116289142Y-34182857D01*
X116203428Y-34225714D01*
X116160571Y-34268571D01*
X116117714Y-34354285D01*
X116117714Y-34525714D01*
X116160571Y-34611428D01*
X116203428Y-34654285D01*
X116289142Y-34697142D01*
X116460571Y-34697142D01*
X116546285Y-34654285D01*
X116589142Y-34611428D01*
X116632000Y-34525714D01*
X116632000Y-34354285D01*
X116589142Y-34268571D01*
X116546285Y-34225714D01*
X116460571Y-34182857D01*
X116889142Y-33797142D02*
X117189142Y-34697142D01*
X117489142Y-33797142D01*
X115260571Y-36422857D02*
X115303428Y-36380000D01*
X115389142Y-36337142D01*
X115603428Y-36337142D01*
X115689142Y-36380000D01*
X115732000Y-36422857D01*
X115774857Y-36508571D01*
X115774857Y-36594285D01*
X115732000Y-36722857D01*
X115217714Y-37237142D01*
X115774857Y-37237142D01*
X116546285Y-36637142D02*
X116546285Y-37237142D01*
X116332000Y-36294285D02*
X116117714Y-36937142D01*
X116674857Y-36937142D01*
X116889142Y-36337142D02*
X117189142Y-37237142D01*
X117489142Y-36337142D01*
X115774857Y-39777142D02*
X115260571Y-39777142D01*
X115517714Y-39777142D02*
X115517714Y-38877142D01*
X115432000Y-39005714D01*
X115346285Y-39091428D01*
X115260571Y-39134285D01*
X116117714Y-38962857D02*
X116160571Y-38920000D01*
X116246285Y-38877142D01*
X116460571Y-38877142D01*
X116546285Y-38920000D01*
X116589142Y-38962857D01*
X116632000Y-39048571D01*
X116632000Y-39134285D01*
X116589142Y-39262857D01*
X116074857Y-39777142D01*
X116632000Y-39777142D01*
X116889142Y-38877142D02*
X117189142Y-39777142D01*
X117489142Y-38877142D01*
X116668571Y-41507142D02*
X116240000Y-41507142D01*
X116197142Y-41935714D01*
X116240000Y-41892857D01*
X116325714Y-41850000D01*
X116540000Y-41850000D01*
X116625714Y-41892857D01*
X116668571Y-41935714D01*
X116711428Y-42021428D01*
X116711428Y-42235714D01*
X116668571Y-42321428D01*
X116625714Y-42364285D01*
X116540000Y-42407142D01*
X116325714Y-42407142D01*
X116240000Y-42364285D01*
X116197142Y-42321428D01*
X116968571Y-41507142D02*
X117268571Y-42407142D01*
X117568571Y-41507142D01*
X164786904Y-81671428D02*
X164786904Y-82128571D01*
X164786904Y-81900000D02*
X163986904Y-81900000D01*
X164101190Y-81976190D01*
X164177380Y-82052380D01*
X164215476Y-82128571D01*
D11*
X112500000Y-169000000D02*
X81500000Y-169000000D01*
X142500000Y-169000000D02*
X113500000Y-169000000D01*
X143500000Y-169000000D02*
X172500000Y-169000000D01*
X142500000Y-146500000D02*
X142500000Y-169000000D01*
X142500000Y-139000000D02*
X113500000Y-139000000D01*
X143500000Y-139000000D02*
X172500000Y-139000000D01*
X142500000Y-116500000D02*
X142500000Y-139000000D01*
X142500000Y-109000000D02*
X113500000Y-109000000D01*
X143500000Y-109000000D02*
X172500000Y-109000000D01*
X143500000Y-86500000D02*
X143500000Y-109000000D01*
X112500000Y-109000000D02*
X81500000Y-109000000D01*
X113500000Y-116500000D02*
X113500000Y-139000000D01*
X113500000Y-146500000D02*
X113500000Y-169000000D01*
X112500000Y-86500000D02*
X112500000Y-109000000D01*
D10*
X81000000Y-110500000D02*
X48500000Y-110500000D01*
X81000000Y-94500000D02*
X81000000Y-110500000D01*
X81500000Y-84000000D02*
X81500000Y-85000000D01*
X81500000Y-78500000D02*
X82000000Y-78000000D01*
X81500000Y-80500000D02*
X81500000Y-78500000D01*
X85500000Y-78000000D02*
X82000000Y-78000000D01*
X85500000Y-63000000D02*
X85500000Y-78000000D01*
X84500000Y-62000000D02*
X85500000Y-63000000D01*
X68500000Y-62000000D02*
X84500000Y-62000000D01*
X68500000Y-62000000D02*
X60980000Y-55310000D01*
X48480000Y-55310000D02*
X60980000Y-55310000D01*
X62500000Y-50250000D02*
X49000000Y-43500000D01*
X114750000Y-50250000D02*
X62500000Y-50250000D01*
X124250000Y-21500000D02*
X124000000Y-43750000D01*
X178000000Y-42400000D02*
X131610000Y-42400000D01*
X158407142Y-76716785D02*
X158407142Y-77231071D01*
X158407142Y-76973928D02*
X157507142Y-76973928D01*
X157635714Y-77059642D01*
X157721428Y-77145357D01*
X157764285Y-77231071D01*
X158321428Y-76331071D02*
X158364285Y-76288214D01*
X158407142Y-76331071D01*
X158364285Y-76373928D01*
X158321428Y-76331071D01*
X158407142Y-76331071D01*
X157592857Y-75945357D02*
X157550000Y-75902500D01*
X157507142Y-75816785D01*
X157507142Y-75602500D01*
X157550000Y-75516785D01*
X157592857Y-75473928D01*
X157678571Y-75431071D01*
X157764285Y-75431071D01*
X157892857Y-75473928D01*
X158407142Y-75988214D01*
X158407142Y-75431071D01*
X158150000Y-75088214D02*
X158150000Y-74659642D01*
X158407142Y-75173928D02*
X157507142Y-74873928D01*
X158407142Y-74573928D01*
X159092857Y-77231071D02*
X159050000Y-77188214D01*
X159007142Y-77102500D01*
X159007142Y-76888214D01*
X159050000Y-76802500D01*
X159092857Y-76759642D01*
X159178571Y-76716785D01*
X159264285Y-76716785D01*
X159392857Y-76759642D01*
X159907142Y-77273928D01*
X159907142Y-76716785D01*
X159007142Y-76159642D02*
X159007142Y-76073928D01*
X159050000Y-75988214D01*
X159092857Y-75945357D01*
X159178571Y-75902500D01*
X159350000Y-75859642D01*
X159564285Y-75859642D01*
X159735714Y-75902500D01*
X159821428Y-75945357D01*
X159864285Y-75988214D01*
X159907142Y-76073928D01*
X159907142Y-76159642D01*
X159864285Y-76245357D01*
X159821428Y-76288214D01*
X159735714Y-76331071D01*
X159564285Y-76373928D01*
X159350000Y-76373928D01*
X159178571Y-76331071D01*
X159092857Y-76288214D01*
X159050000Y-76245357D01*
X159007142Y-76159642D01*
X159007142Y-75302500D02*
X159007142Y-75216785D01*
X159050000Y-75131071D01*
X159092857Y-75088214D01*
X159178571Y-75045357D01*
X159350000Y-75002500D01*
X159564285Y-75002500D01*
X159735714Y-75045357D01*
X159821428Y-75088214D01*
X159864285Y-75131071D01*
X159907142Y-75216785D01*
X159907142Y-75302500D01*
X159864285Y-75388214D01*
X159821428Y-75431071D01*
X159735714Y-75473928D01*
X159564285Y-75516785D01*
X159350000Y-75516785D01*
X159178571Y-75473928D01*
X159092857Y-75431071D01*
X159050000Y-75388214D01*
X159007142Y-75302500D01*
X159007142Y-74745357D02*
X159907142Y-74445357D01*
X159007142Y-74145357D01*
X161150000Y-77231071D02*
X161150000Y-76802500D01*
X161407142Y-77316785D02*
X160507142Y-77016785D01*
X161407142Y-76716785D01*
X161321428Y-75902500D02*
X161364285Y-75945357D01*
X161407142Y-76073928D01*
X161407142Y-76159642D01*
X161364285Y-76288214D01*
X161278571Y-76373928D01*
X161192857Y-76416785D01*
X161021428Y-76459642D01*
X160892857Y-76459642D01*
X160721428Y-76416785D01*
X160635714Y-76373928D01*
X160550000Y-76288214D01*
X160507142Y-76159642D01*
X160507142Y-76073928D01*
X160550000Y-75945357D01*
X160592857Y-75902500D01*
D11*
X143500000Y-146500000D02*
X143500000Y-169000000D01*
X172500000Y-169000000D02*
X172500000Y-146500000D01*
X172500000Y-109000000D02*
X172500000Y-86500000D01*
X142500000Y-109000000D02*
X142500000Y-86500000D01*
X172500000Y-139000000D02*
X172500000Y-116500000D01*
X81500000Y-139000000D02*
X81500000Y-116500000D01*
X112500000Y-139000000D02*
X81500000Y-139000000D01*
X140500000Y-139500000D02*
X115500000Y-139500000D01*
X170500000Y-139500000D02*
X145500000Y-139500000D01*
X171500000Y-85500000D02*
G75*
G02X172500000Y-86500000I0J-1000000D01*
G01*
X171500000Y-85500000D02*
G75*
G02X170500000Y-84500000I0J1000000D01*
G01*
X143500000Y-86500000D02*
G75*
G02X144500000Y-85500000I1000000J0D01*
G01*
X145500000Y-84500000D02*
G75*
G02X144500000Y-85500000I-1000000J0D01*
G01*
X141500000Y-85500000D02*
G75*
G02X142500000Y-86500000I0J-1000000D01*
G01*
X141500000Y-85500000D02*
G75*
G02X140500000Y-84500000I0J1000000D01*
G01*
X113500000Y-86500000D02*
G75*
G02X114500000Y-85500000I1000000J0D01*
G01*
X115500000Y-84500000D02*
G75*
G02X114500000Y-85500000I-1000000J0D01*
G01*
X145500000Y-79500000D02*
X170500000Y-79500000D01*
X145500000Y-84500000D02*
X145500000Y-79500000D01*
X140500000Y-79500000D02*
X140500000Y-84500000D01*
X115500000Y-79500000D02*
X140500000Y-79500000D01*
X115500000Y-84500000D02*
X115500000Y-79500000D01*
X110500000Y-79500000D02*
X83500000Y-79500000D01*
X170500000Y-79500000D02*
X170500000Y-84500000D01*
X171500000Y-115500000D02*
G75*
G02X172500000Y-116500000I0J-1000000D01*
G01*
X171500000Y-115500000D02*
G75*
G02X170500000Y-114500000I0J1000000D01*
G01*
X170500000Y-109500000D02*
X145500000Y-109500000D01*
X171500000Y-145500000D02*
G75*
G02X172500000Y-146500000I0J-1000000D01*
G01*
X171500000Y-145500000D02*
G75*
G02X170500000Y-144500000I0J1000000D01*
G01*
X143500000Y-146500000D02*
G75*
G02X144500000Y-145500000I1000000J0D01*
G01*
X141500000Y-145500000D02*
G75*
G02X142500000Y-146500000I0J-1000000D01*
G01*
X141500000Y-145500000D02*
G75*
G02X140500000Y-144500000I0J1000000D01*
G01*
X145500000Y-144500000D02*
G75*
G02X144500000Y-145500000I-1000000J0D01*
G01*
X113500000Y-146500000D02*
G75*
G02X114500000Y-145500000I1000000J0D01*
G01*
X115500000Y-144500000D02*
G75*
G02X114500000Y-145500000I-1000000J0D01*
G01*
X115500000Y-139500000D02*
X115500000Y-144500000D01*
X140500000Y-139500000D02*
X140500000Y-144500000D01*
X143500000Y-116500000D02*
X143500000Y-139000000D01*
X145500000Y-114500000D02*
G75*
G02X144500000Y-115500000I-1000000J0D01*
G01*
X143500000Y-116500000D02*
G75*
G02X144500000Y-115500000I1000000J0D01*
G01*
X141500000Y-115500000D02*
G75*
G02X142500000Y-116500000I0J-1000000D01*
G01*
X141500000Y-115500000D02*
G75*
G02X140500000Y-114500000I0J1000000D01*
G01*
X115500000Y-109500000D02*
X140500000Y-109500000D01*
X113500000Y-116500000D02*
G75*
G02X114500000Y-115500000I1000000J0D01*
G01*
X115500000Y-114500000D02*
G75*
G02X114500000Y-115500000I-1000000J0D01*
G01*
X115500000Y-109500000D02*
X115500000Y-114500000D01*
X140500000Y-109500000D02*
X140500000Y-114500000D01*
X145500000Y-109500000D02*
X145500000Y-114500000D01*
X170500000Y-109500000D02*
X170500000Y-114500000D01*
X170500000Y-139500000D02*
X170500000Y-144500000D01*
X145500000Y-139500000D02*
X145500000Y-144500000D01*
X81500000Y-86500000D02*
X81500000Y-109000000D01*
X112500000Y-116500000D02*
X112500000Y-139000000D01*
X111500000Y-115500000D02*
G75*
G02X112500000Y-116500000I0J-1000000D01*
G01*
X111500000Y-115500000D02*
G75*
G02X110500000Y-114500000I0J1000000D01*
G01*
X83500000Y-109500000D02*
X110500000Y-109500000D01*
X83500000Y-114500000D02*
X83500000Y-109500000D01*
X110500000Y-109500000D02*
X110500000Y-114500000D01*
X113500000Y-86500000D02*
X113500000Y-109000000D01*
X111500000Y-85500000D02*
G75*
G02X112500000Y-86500000I0J-1000000D01*
G01*
X111500000Y-85500000D02*
G75*
G02X110500000Y-84500000I0J1000000D01*
G01*
X110500000Y-79500000D02*
X110500000Y-84500000D01*
X112500000Y-146500000D02*
X112500000Y-169000000D01*
X111500000Y-145500000D02*
G75*
G02X112500000Y-146500000I0J-1000000D01*
G01*
X111500000Y-145500000D02*
G75*
G02X110500000Y-144500000I0J1000000D01*
G01*
X110500000Y-139500000D02*
X110500000Y-144500000D01*
X83500000Y-139500000D02*
X110500000Y-139500000D01*
X81500000Y-146500000D02*
X81500000Y-169000000D01*
X83500000Y-144500000D02*
X83500000Y-139500000D01*
X81500000Y-146500000D02*
G75*
G02X82500000Y-145500000I1000000J0D01*
G01*
X83500000Y-144500000D02*
G75*
G02X82500000Y-145500000I-1000000J0D01*
G01*
X81500000Y-116500000D02*
G75*
G02X82500000Y-115500000I1000000J0D01*
G01*
X83500000Y-114500000D02*
G75*
G02X82500000Y-115500000I-1000000J0D01*
G01*
X81500000Y-86500000D02*
G75*
G02X82500000Y-85500000I1000000J0D01*
G01*
X83500000Y-84500000D02*
G75*
G02X82500000Y-85500000I-1000000J0D01*
G01*
X83500000Y-79500000D02*
X83500000Y-84500000D01*
X52747500Y-73608857D02*
X52676071Y-73751714D01*
X52676071Y-73966000D01*
X52747500Y-74180285D01*
X52890357Y-74323142D01*
X53033214Y-74394571D01*
X53318928Y-74466000D01*
X53533214Y-74466000D01*
X53818928Y-74394571D01*
X53961785Y-74323142D01*
X54104642Y-74180285D01*
X54176071Y-73966000D01*
X54176071Y-73823142D01*
X54104642Y-73608857D01*
X54033214Y-73537428D01*
X53533214Y-73537428D01*
X53533214Y-73823142D01*
X54176071Y-72894571D02*
X52676071Y-72894571D01*
X54176071Y-72037428D01*
X52676071Y-72037428D01*
X54176071Y-71323142D02*
X52676071Y-71323142D01*
X52676071Y-70966000D01*
X52747500Y-70751714D01*
X52890357Y-70608857D01*
X53033214Y-70537428D01*
X53318928Y-70466000D01*
X53533214Y-70466000D01*
X53818928Y-70537428D01*
X53961785Y-70608857D01*
X54104642Y-70751714D01*
X54176071Y-70966000D01*
X54176071Y-71323142D01*
D12*
X53053047Y-79585928D02*
X53814952Y-79585928D01*
X53434000Y-79966880D02*
X53434000Y-79204976D01*
D11*
X52739571Y-78522142D02*
X54239571Y-78022142D01*
X52739571Y-77522142D01*
X54239571Y-77022142D02*
X52739571Y-77022142D01*
X53811000Y-76522142D01*
X52739571Y-76022142D01*
X54239571Y-76022142D01*
D13*
X54767500Y-75323500D02*
X52291000Y-75323500D01*
X52291000Y-80276500D02*
X52291000Y-75323500D01*
X54767500Y-80276500D02*
X54767500Y-75323500D01*
X52291000Y-80276500D02*
X54767500Y-80276500D01*
X56450333Y-75195880D02*
X55974142Y-75195880D01*
X55926523Y-75672071D01*
X55974142Y-75624452D01*
X56069380Y-75576833D01*
X56307476Y-75576833D01*
X56402714Y-75624452D01*
X56450333Y-75672071D01*
X56497952Y-75767309D01*
X56497952Y-76005404D01*
X56450333Y-76100642D01*
X56402714Y-76148261D01*
X56307476Y-76195880D01*
X56069380Y-76195880D01*
X55974142Y-76148261D01*
X55926523Y-76100642D01*
X57117000Y-75195880D02*
X57212238Y-75195880D01*
X57307476Y-75243500D01*
X57355095Y-75291119D01*
X57402714Y-75386357D01*
X57450333Y-75576833D01*
X57450333Y-75814928D01*
X57402714Y-76005404D01*
X57355095Y-76100642D01*
X57307476Y-76148261D01*
X57212238Y-76195880D01*
X57117000Y-76195880D01*
X57021761Y-76148261D01*
X56974142Y-76100642D01*
X56926523Y-76005404D01*
X56878904Y-75814928D01*
X56878904Y-75576833D01*
X56926523Y-75386357D01*
X56974142Y-75291119D01*
X57021761Y-75243500D01*
X57117000Y-75195880D01*
X57736047Y-75195880D02*
X58069380Y-76195880D01*
X58402714Y-75195880D01*
X55878904Y-77895880D02*
X55878904Y-76895880D01*
X56212238Y-77610166D01*
X56545571Y-76895880D01*
X56545571Y-77895880D01*
X56974142Y-77610166D02*
X57450333Y-77610166D01*
X56878904Y-77895880D02*
X57212238Y-76895880D01*
X57545571Y-77895880D01*
X57783666Y-76895880D02*
X58450333Y-77895880D01*
X58450333Y-76895880D02*
X57783666Y-77895880D01*
D12*
X52421714Y-82996000D02*
X53136000Y-82996000D01*
X52278857Y-83424571D02*
X52778857Y-81924571D01*
X53278857Y-83424571D01*
X53778857Y-82853142D02*
X54921714Y-82853142D01*
X52421714Y-87996000D02*
X53136000Y-87996000D01*
X52278857Y-88424571D02*
X52778857Y-86924571D01*
X53278857Y-88424571D01*
X53778857Y-87853142D02*
X54921714Y-87853142D01*
X54350285Y-88424571D02*
X54350285Y-87281714D01*
X52993142Y-92638857D02*
X53207428Y-92710285D01*
X53278857Y-92781714D01*
X53350285Y-92924571D01*
X53350285Y-93138857D01*
X53278857Y-93281714D01*
X53207428Y-93353142D01*
X53064571Y-93424571D01*
X52493142Y-93424571D01*
X52493142Y-91924571D01*
X52993142Y-91924571D01*
X53136000Y-91996000D01*
X53207428Y-92067428D01*
X53278857Y-92210285D01*
X53278857Y-92353142D01*
X53207428Y-92496000D01*
X53136000Y-92567428D01*
X52993142Y-92638857D01*
X52493142Y-92638857D01*
X53993142Y-92853142D02*
X55136000Y-92853142D01*
X54564571Y-93424571D02*
X54564571Y-92281714D01*
X52993142Y-97638857D02*
X53207428Y-97710285D01*
X53278857Y-97781714D01*
X53350285Y-97924571D01*
X53350285Y-98138857D01*
X53278857Y-98281714D01*
X53207428Y-98353142D01*
X53064571Y-98424571D01*
X52493142Y-98424571D01*
X52493142Y-96924571D01*
X52993142Y-96924571D01*
X53136000Y-96996000D01*
X53207428Y-97067428D01*
X53278857Y-97210285D01*
X53278857Y-97353142D01*
X53207428Y-97496000D01*
X53136000Y-97567428D01*
X52993142Y-97638857D01*
X52493142Y-97638857D01*
X53993142Y-97853142D02*
X55136000Y-97853142D01*
D14*
X77170000Y-119670000D02*
G75*
G03X77170000Y-119670000I-70000J0D01*
G01*
D15*
X118557221Y-123830000D02*
X118882779Y-123830000D01*
X118557221Y-122810000D02*
X118882779Y-122810000D01*
D16*
X78226000Y-97619000D02*
G75*
G03X78226000Y-97619000I-250000J0D01*
G01*
X77476000Y-83119000D02*
X77476000Y-97119000D01*
X66476000Y-83119000D02*
X77476000Y-83119000D01*
X66476000Y-97119000D02*
X66476000Y-83119000D01*
X77476000Y-97119000D02*
X66476000Y-97119000D01*
D17*
X116281860Y-73268000D02*
X115313000Y-73268000D01*
X116548139Y-75072000D02*
X117231861Y-75072000D01*
X118467000Y-75072000D02*
X118467000Y-73268000D01*
X118467000Y-73268000D02*
X117498140Y-73268000D01*
X115313000Y-73268000D02*
X115313000Y-75072000D01*
X116016200Y-76787600D02*
G75*
G03X116016200Y-76787600I-76200J0D01*
G01*
D18*
X118270000Y-61690000D02*
X118870000Y-62290000D01*
X120270000Y-65237000D02*
X120270000Y-68133000D01*
X110270000Y-61690000D02*
X118270000Y-61690000D01*
X110270000Y-62133000D02*
X110270000Y-61690000D01*
X110270000Y-68006000D02*
X110270000Y-65374000D01*
X110270000Y-71690000D02*
X110270000Y-71247000D01*
X120270000Y-71690000D02*
X120270000Y-71247000D01*
X110270000Y-71690000D02*
X120270000Y-71690000D01*
D16*
X77175000Y-135850000D02*
X53725000Y-135850000D01*
X77175000Y-124450000D02*
X53725000Y-124450000D01*
D15*
X60330000Y-43330000D02*
X59000000Y-43330000D01*
X60330000Y-42000000D02*
X60330000Y-43330000D01*
X57730000Y-43330000D02*
X55130000Y-43330000D01*
X57730000Y-40730000D02*
X57730000Y-43330000D01*
X60330000Y-40730000D02*
X57730000Y-40730000D01*
X55130000Y-43330000D02*
X55130000Y-33050000D01*
X60330000Y-40730000D02*
X60330000Y-33050000D01*
X60330000Y-33050000D02*
X55130000Y-33050000D01*
X71330000Y-43240000D02*
X70000000Y-43240000D01*
X71330000Y-41910000D02*
X71330000Y-43240000D01*
X68730000Y-43240000D02*
X66130000Y-43240000D01*
X68730000Y-40640000D02*
X68730000Y-43240000D01*
X71330000Y-40640000D02*
X68730000Y-40640000D01*
X66130000Y-43240000D02*
X66130000Y-32960000D01*
X71330000Y-40640000D02*
X71330000Y-32960000D01*
X71330000Y-32960000D02*
X66130000Y-32960000D01*
X82330000Y-43330000D02*
X81000000Y-43330000D01*
X82330000Y-42000000D02*
X82330000Y-43330000D01*
X79730000Y-43330000D02*
X77130000Y-43330000D01*
X79730000Y-40730000D02*
X79730000Y-43330000D01*
X82330000Y-40730000D02*
X79730000Y-40730000D01*
X77130000Y-43330000D02*
X77130000Y-33050000D01*
X82330000Y-40730000D02*
X82330000Y-33050000D01*
X82330000Y-33050000D02*
X77130000Y-33050000D01*
X101330000Y-43330000D02*
X100000000Y-43330000D01*
X101330000Y-42000000D02*
X101330000Y-43330000D01*
X98730000Y-43330000D02*
X96130000Y-43330000D01*
X98730000Y-40730000D02*
X98730000Y-43330000D01*
X101330000Y-40730000D02*
X98730000Y-40730000D01*
X96130000Y-43330000D02*
X96130000Y-33050000D01*
X101330000Y-40730000D02*
X101330000Y-33050000D01*
X101330000Y-33050000D02*
X96130000Y-33050000D01*
X112330000Y-43330000D02*
X111000000Y-43330000D01*
X112330000Y-42000000D02*
X112330000Y-43330000D01*
X109730000Y-43330000D02*
X107130000Y-43330000D01*
X109730000Y-40730000D02*
X109730000Y-43330000D01*
X112330000Y-40730000D02*
X109730000Y-40730000D01*
X107130000Y-43330000D02*
X107130000Y-33050000D01*
X112330000Y-40730000D02*
X112330000Y-33050000D01*
X112330000Y-33050000D02*
X107130000Y-33050000D01*
X123330000Y-43330000D02*
X122000000Y-43330000D01*
X123330000Y-42000000D02*
X123330000Y-43330000D01*
X120730000Y-43330000D02*
X118130000Y-43330000D01*
X120730000Y-40730000D02*
X120730000Y-43330000D01*
X123330000Y-40730000D02*
X120730000Y-40730000D01*
X118130000Y-43330000D02*
X118130000Y-33050000D01*
X123330000Y-40730000D02*
X123330000Y-33050000D01*
X123330000Y-33050000D02*
X118130000Y-33050000D01*
X181500000Y-47250000D02*
X181500000Y-46650000D01*
X182100000Y-46950000D02*
X181500000Y-47250000D01*
X181500000Y-46650000D02*
X182100000Y-46950000D01*
X193020000Y-42700000D02*
X194520000Y-42950000D01*
X193020000Y-41200000D02*
X193020000Y-42700000D01*
X194520000Y-40950000D02*
X193020000Y-41200000D01*
X194520000Y-42950000D02*
X194520000Y-40950000D01*
X193020000Y-47700000D02*
X194520000Y-47950000D01*
X193020000Y-46200000D02*
X193020000Y-47700000D01*
X194520000Y-45950000D02*
X193020000Y-46200000D01*
X194520000Y-47950000D02*
X194520000Y-45950000D01*
X193020000Y-37700000D02*
X194520000Y-37950000D01*
X193020000Y-36200000D02*
X193020000Y-37700000D01*
X194520000Y-35950000D02*
X193020000Y-36200000D01*
X194520000Y-37950000D02*
X194520000Y-35950000D01*
X193020000Y-52700000D02*
X194520000Y-52950000D01*
X193020000Y-51200000D02*
X193020000Y-52700000D01*
X194520000Y-50950000D02*
X193020000Y-51200000D01*
X194520000Y-52950000D02*
X194520000Y-50950000D01*
X193020000Y-34340000D02*
X193020000Y-54560000D01*
X191220000Y-34340000D02*
X193020000Y-34340000D01*
X191220000Y-54560000D02*
X191220000Y-34340000D01*
X193020000Y-54560000D02*
X191220000Y-54560000D01*
X182300000Y-34340000D02*
X182300000Y-54560000D01*
X194520000Y-34340000D02*
X182300000Y-34340000D01*
X194520000Y-54560000D02*
X194520000Y-34340000D01*
X182300000Y-54560000D02*
X194520000Y-54560000D01*
X112837221Y-99010000D02*
X113162779Y-99010000D01*
X112837221Y-97990000D02*
X113162779Y-97990000D01*
X82235000Y-83485000D02*
X82235000Y-81200000D01*
X80765000Y-83485000D02*
X82235000Y-83485000D01*
X80765000Y-81200000D02*
X80765000Y-83485000D01*
X56735000Y-58485000D02*
X56735000Y-56200000D01*
X55265000Y-58485000D02*
X56735000Y-58485000D01*
X55265000Y-56200000D02*
X55265000Y-58485000D01*
X140840000Y-33010000D02*
X140240000Y-33010000D01*
X140540000Y-32410000D02*
X140840000Y-33010000D01*
X140240000Y-33010000D02*
X140540000Y-32410000D01*
X136210000Y-21490000D02*
X136460000Y-19990000D01*
X134710000Y-21490000D02*
X136210000Y-21490000D01*
X134460000Y-19990000D02*
X134710000Y-21490000D01*
X136460000Y-19990000D02*
X134460000Y-19990000D01*
X141290000Y-21490000D02*
X141540000Y-19990000D01*
X139790000Y-21490000D02*
X141290000Y-21490000D01*
X139540000Y-19990000D02*
X139790000Y-21490000D01*
X141540000Y-19990000D02*
X139540000Y-19990000D01*
X131810000Y-21490000D02*
X144190000Y-21490000D01*
X131810000Y-23290000D02*
X131810000Y-21490000D01*
X144190000Y-23290000D02*
X131810000Y-23290000D01*
X144190000Y-21490000D02*
X144190000Y-23290000D01*
X131810000Y-32210000D02*
X144190000Y-32210000D01*
X131810000Y-19990000D02*
X131810000Y-32210000D01*
X144190000Y-19990000D02*
X131810000Y-19990000D01*
X144190000Y-32210000D02*
X144190000Y-19990000D01*
X155560000Y-33010000D02*
X154960000Y-33010000D01*
X155260000Y-32410000D02*
X155560000Y-33010000D01*
X154960000Y-33010000D02*
X155260000Y-32410000D01*
X150930000Y-21490000D02*
X151180000Y-19990000D01*
X149430000Y-21490000D02*
X150930000Y-21490000D01*
X149180000Y-19990000D02*
X149430000Y-21490000D01*
X151180000Y-19990000D02*
X149180000Y-19990000D01*
X156010000Y-21490000D02*
X156260000Y-19990000D01*
X154510000Y-21490000D02*
X156010000Y-21490000D01*
X154260000Y-19990000D02*
X154510000Y-21490000D01*
X156260000Y-19990000D02*
X154260000Y-19990000D01*
X146530000Y-21490000D02*
X158910000Y-21490000D01*
X146530000Y-23290000D02*
X146530000Y-21490000D01*
X158910000Y-23290000D02*
X146530000Y-23290000D01*
X158910000Y-21490000D02*
X158910000Y-23290000D01*
X146530000Y-32210000D02*
X158910000Y-32210000D01*
X146530000Y-19990000D02*
X146530000Y-32210000D01*
X158910000Y-19990000D02*
X146530000Y-19990000D01*
X158910000Y-32210000D02*
X158910000Y-19990000D01*
X57800000Y-31100000D02*
X57200000Y-31100000D01*
X57500000Y-30500000D02*
X57800000Y-31100000D01*
X57200000Y-31100000D02*
X57500000Y-30500000D01*
X60210000Y-23700000D02*
X50980000Y-23700000D01*
X56450000Y-29810000D02*
X54740000Y-29810000D01*
X50980000Y-29810000D02*
X52640000Y-29810000D01*
X60210000Y-29810000D02*
X58550000Y-29810000D01*
X50980000Y-20390000D02*
X50980000Y-29810000D01*
X60210000Y-20390000D02*
X50980000Y-20390000D01*
X60210000Y-29810000D02*
X60210000Y-20390000D01*
X68800000Y-31100000D02*
X68200000Y-31100000D01*
X68500000Y-30500000D02*
X68800000Y-31100000D01*
X68200000Y-31100000D02*
X68500000Y-30500000D01*
X71210000Y-23700000D02*
X61980000Y-23700000D01*
X67450000Y-29810000D02*
X65740000Y-29810000D01*
X61980000Y-29810000D02*
X63640000Y-29810000D01*
X71210000Y-29810000D02*
X69550000Y-29810000D01*
X61980000Y-20390000D02*
X61980000Y-29810000D01*
X71210000Y-20390000D02*
X61980000Y-20390000D01*
X71210000Y-29810000D02*
X71210000Y-20390000D01*
X79800000Y-31100000D02*
X79200000Y-31100000D01*
X79500000Y-30500000D02*
X79800000Y-31100000D01*
X79200000Y-31100000D02*
X79500000Y-30500000D01*
X82210000Y-23700000D02*
X72980000Y-23700000D01*
X78450000Y-29810000D02*
X76740000Y-29810000D01*
X72980000Y-29810000D02*
X74640000Y-29810000D01*
X82210000Y-29810000D02*
X80550000Y-29810000D01*
X72980000Y-20390000D02*
X72980000Y-29810000D01*
X82210000Y-20390000D02*
X72980000Y-20390000D01*
X82210000Y-29810000D02*
X82210000Y-20390000D01*
X98800000Y-31100000D02*
X98200000Y-31100000D01*
X98500000Y-30500000D02*
X98800000Y-31100000D01*
X98200000Y-31100000D02*
X98500000Y-30500000D01*
X101210000Y-23700000D02*
X91980000Y-23700000D01*
X97450000Y-29810000D02*
X95740000Y-29810000D01*
X91980000Y-29810000D02*
X93640000Y-29810000D01*
X101210000Y-29810000D02*
X99550000Y-29810000D01*
X91980000Y-20390000D02*
X91980000Y-29810000D01*
X101210000Y-20390000D02*
X91980000Y-20390000D01*
X101210000Y-29810000D02*
X101210000Y-20390000D01*
X109800000Y-31100000D02*
X109200000Y-31100000D01*
X109500000Y-30500000D02*
X109800000Y-31100000D01*
X109200000Y-31100000D02*
X109500000Y-30500000D01*
X112210000Y-23700000D02*
X102980000Y-23700000D01*
X108450000Y-29810000D02*
X106740000Y-29810000D01*
X102980000Y-29810000D02*
X104640000Y-29810000D01*
X112210000Y-29810000D02*
X110550000Y-29810000D01*
X102980000Y-20390000D02*
X102980000Y-29810000D01*
X112210000Y-20390000D02*
X102980000Y-20390000D01*
X112210000Y-29810000D02*
X112210000Y-20390000D01*
X120800000Y-31100000D02*
X120200000Y-31100000D01*
X120500000Y-30500000D02*
X120800000Y-31100000D01*
X120200000Y-31100000D02*
X120500000Y-30500000D01*
X123210000Y-23700000D02*
X113980000Y-23700000D01*
X119450000Y-29810000D02*
X117740000Y-29810000D01*
X113980000Y-29810000D02*
X115640000Y-29810000D01*
X123210000Y-29810000D02*
X121550000Y-29810000D01*
X113980000Y-20390000D02*
X113980000Y-29810000D01*
X123210000Y-20390000D02*
X113980000Y-20390000D01*
X123210000Y-29810000D02*
X123210000Y-20390000D01*
X52410000Y-72200000D02*
X52410000Y-72800000D01*
X51810000Y-72500000D02*
X52410000Y-72200000D01*
X52410000Y-72800000D02*
X51810000Y-72500000D01*
X40890000Y-97150000D02*
X39390000Y-96900000D01*
X40890000Y-98650000D02*
X40890000Y-97150000D01*
X39390000Y-98900000D02*
X40890000Y-98650000D01*
X39390000Y-96900000D02*
X39390000Y-98900000D01*
X40890000Y-92070000D02*
X39390000Y-91820000D01*
X40890000Y-93570000D02*
X40890000Y-92070000D01*
X39390000Y-93820000D02*
X40890000Y-93570000D01*
X39390000Y-91820000D02*
X39390000Y-93820000D01*
X40890000Y-86990000D02*
X39390000Y-86740000D01*
X40890000Y-88490000D02*
X40890000Y-86990000D01*
X39390000Y-88740000D02*
X40890000Y-88490000D01*
X39390000Y-86740000D02*
X39390000Y-88740000D01*
X40890000Y-81910000D02*
X39390000Y-81660000D01*
X40890000Y-83410000D02*
X40890000Y-81910000D01*
X39390000Y-83660000D02*
X40890000Y-83410000D01*
X39390000Y-81660000D02*
X39390000Y-83660000D01*
X40890000Y-76830000D02*
X39390000Y-76580000D01*
X40890000Y-78330000D02*
X40890000Y-76830000D01*
X39390000Y-78580000D02*
X40890000Y-78330000D01*
X39390000Y-76580000D02*
X39390000Y-78580000D01*
X40890000Y-71750000D02*
X39390000Y-71500000D01*
X40890000Y-73250000D02*
X40890000Y-71750000D01*
X39390000Y-73500000D02*
X40890000Y-73250000D01*
X39390000Y-71500000D02*
X39390000Y-73500000D01*
X40890000Y-101550000D02*
X40890000Y-68850000D01*
X42690000Y-101550000D02*
X40890000Y-101550000D01*
X42690000Y-68850000D02*
X42690000Y-101550000D01*
X40890000Y-68850000D02*
X42690000Y-68850000D01*
X51610000Y-101550000D02*
X51610000Y-68850000D01*
X39390000Y-101550000D02*
X51610000Y-101550000D01*
X39390000Y-68850000D02*
X39390000Y-101550000D01*
X51610000Y-68850000D02*
X39390000Y-68850000D01*
X57210000Y-94758578D02*
X57210000Y-94241422D01*
X55790000Y-94758578D02*
X55790000Y-94241422D01*
X119620000Y-101900000D02*
X119620000Y-100540000D01*
X136380000Y-107100000D02*
X136950000Y-107100000D01*
X133840000Y-107100000D02*
X134860000Y-107100000D01*
X131300000Y-107100000D02*
X132320000Y-107100000D01*
X128760000Y-107100000D02*
X129780000Y-107100000D01*
X126220000Y-107100000D02*
X127240000Y-107100000D01*
X123680000Y-107100000D02*
X124700000Y-107100000D01*
X121140000Y-107100000D02*
X122160000Y-107100000D01*
X119050000Y-107100000D02*
X119620000Y-107100000D01*
X136950000Y-107100000D02*
X136950000Y-101900000D01*
X136380000Y-101900000D02*
X136950000Y-101900000D01*
X133840000Y-101900000D02*
X134860000Y-101900000D01*
X131300000Y-101900000D02*
X132320000Y-101900000D01*
X128760000Y-101900000D02*
X129780000Y-101900000D01*
X126220000Y-101900000D02*
X127240000Y-101900000D01*
X123680000Y-101900000D02*
X124700000Y-101900000D01*
X121140000Y-101900000D02*
X122160000Y-101900000D01*
X119050000Y-101900000D02*
X119620000Y-101900000D01*
X119050000Y-107100000D02*
X119050000Y-101900000D01*
D10*
X67000000Y-118100000D02*
X67000000Y-118300000D01*
X67000000Y-116900000D02*
X67000000Y-116600000D01*
X67400000Y-117000000D02*
X66600000Y-117000000D01*
X67000000Y-117100000D02*
X67400000Y-117800000D01*
X66600000Y-117800000D02*
X67000000Y-117100000D01*
X67400000Y-117800000D02*
X66600000Y-117800000D01*
X67000000Y-118100000D02*
X67000000Y-116900000D01*
X68500000Y-113600000D02*
X65500000Y-113600000D01*
X68500000Y-113300000D02*
X65500000Y-113300000D01*
X68500000Y-113300000D02*
X68500000Y-121700000D01*
X65500000Y-113300000D02*
X65500000Y-121700000D01*
D15*
X77662779Y-114260000D02*
X77337221Y-114260000D01*
X77662779Y-115280000D02*
X77337221Y-115280000D01*
X74900000Y-119102779D02*
X74900000Y-118777221D01*
X73880000Y-119102779D02*
X73880000Y-118777221D01*
D13*
X118280000Y-127040000D02*
G75*
G03X118280000Y-127040000I-100000J0D01*
G01*
D15*
X162570000Y-146600000D02*
X162570000Y-147960000D01*
X153430000Y-141400000D02*
X152860000Y-141400000D01*
X155970000Y-141400000D02*
X154950000Y-141400000D01*
X158510000Y-141400000D02*
X157490000Y-141400000D01*
X161050000Y-141400000D02*
X160030000Y-141400000D01*
X163140000Y-141400000D02*
X162570000Y-141400000D01*
X152860000Y-141400000D02*
X152860000Y-146600000D01*
X153430000Y-146600000D02*
X152860000Y-146600000D01*
X155970000Y-146600000D02*
X154950000Y-146600000D01*
X158510000Y-146600000D02*
X157490000Y-146600000D01*
X161050000Y-146600000D02*
X160030000Y-146600000D01*
X163140000Y-146600000D02*
X162570000Y-146600000D01*
X163140000Y-141400000D02*
X163140000Y-146600000D01*
X132570000Y-146600000D02*
X132570000Y-147960000D01*
X123430000Y-141400000D02*
X122860000Y-141400000D01*
X125970000Y-141400000D02*
X124950000Y-141400000D01*
X128510000Y-141400000D02*
X127490000Y-141400000D01*
X131050000Y-141400000D02*
X130030000Y-141400000D01*
X133140000Y-141400000D02*
X132570000Y-141400000D01*
X122860000Y-141400000D02*
X122860000Y-146600000D01*
X123430000Y-146600000D02*
X122860000Y-146600000D01*
X125970000Y-146600000D02*
X124950000Y-146600000D01*
X128510000Y-146600000D02*
X127490000Y-146600000D01*
X131050000Y-146600000D02*
X130030000Y-146600000D01*
X133140000Y-146600000D02*
X132570000Y-146600000D01*
X133140000Y-141400000D02*
X133140000Y-146600000D01*
X102570000Y-146600000D02*
X102570000Y-147960000D01*
X93430000Y-141400000D02*
X92860000Y-141400000D01*
X95970000Y-141400000D02*
X94950000Y-141400000D01*
X98510000Y-141400000D02*
X97490000Y-141400000D01*
X101050000Y-141400000D02*
X100030000Y-141400000D01*
X103140000Y-141400000D02*
X102570000Y-141400000D01*
X92860000Y-141400000D02*
X92860000Y-146600000D01*
X93430000Y-146600000D02*
X92860000Y-146600000D01*
X95970000Y-146600000D02*
X94950000Y-146600000D01*
X98510000Y-146600000D02*
X97490000Y-146600000D01*
X101050000Y-146600000D02*
X100030000Y-146600000D01*
X103140000Y-146600000D02*
X102570000Y-146600000D01*
X103140000Y-141400000D02*
X103140000Y-146600000D01*
X162570000Y-116600000D02*
X162570000Y-117960000D01*
X153430000Y-111400000D02*
X152860000Y-111400000D01*
X155970000Y-111400000D02*
X154950000Y-111400000D01*
X158510000Y-111400000D02*
X157490000Y-111400000D01*
X161050000Y-111400000D02*
X160030000Y-111400000D01*
X163140000Y-111400000D02*
X162570000Y-111400000D01*
X152860000Y-111400000D02*
X152860000Y-116600000D01*
X153430000Y-116600000D02*
X152860000Y-116600000D01*
X155970000Y-116600000D02*
X154950000Y-116600000D01*
X158510000Y-116600000D02*
X157490000Y-116600000D01*
X161050000Y-116600000D02*
X160030000Y-116600000D01*
X163140000Y-116600000D02*
X162570000Y-116600000D01*
X163140000Y-111400000D02*
X163140000Y-116600000D01*
X132570000Y-116600000D02*
X132570000Y-117960000D01*
X123430000Y-111400000D02*
X122860000Y-111400000D01*
X125970000Y-111400000D02*
X124950000Y-111400000D01*
X128510000Y-111400000D02*
X127490000Y-111400000D01*
X131050000Y-111400000D02*
X130030000Y-111400000D01*
X133140000Y-111400000D02*
X132570000Y-111400000D01*
X122860000Y-111400000D02*
X122860000Y-116600000D01*
X123430000Y-116600000D02*
X122860000Y-116600000D01*
X125970000Y-116600000D02*
X124950000Y-116600000D01*
X128510000Y-116600000D02*
X127490000Y-116600000D01*
X131050000Y-116600000D02*
X130030000Y-116600000D01*
X133140000Y-116600000D02*
X132570000Y-116600000D01*
X133140000Y-111400000D02*
X133140000Y-116600000D01*
X102570000Y-116600000D02*
X102570000Y-117960000D01*
X93430000Y-111400000D02*
X92860000Y-111400000D01*
X95970000Y-111400000D02*
X94950000Y-111400000D01*
X98510000Y-111400000D02*
X97490000Y-111400000D01*
X101050000Y-111400000D02*
X100030000Y-111400000D01*
X103140000Y-111400000D02*
X102570000Y-111400000D01*
X92860000Y-111400000D02*
X92860000Y-116600000D01*
X93430000Y-116600000D02*
X92860000Y-116600000D01*
X95970000Y-116600000D02*
X94950000Y-116600000D01*
X98510000Y-116600000D02*
X97490000Y-116600000D01*
X101050000Y-116600000D02*
X100030000Y-116600000D01*
X103140000Y-116600000D02*
X102570000Y-116600000D01*
X103140000Y-111400000D02*
X103140000Y-116600000D01*
X162570000Y-86600000D02*
X162570000Y-87960000D01*
X153430000Y-81400000D02*
X152860000Y-81400000D01*
X155970000Y-81400000D02*
X154950000Y-81400000D01*
X158510000Y-81400000D02*
X157490000Y-81400000D01*
X161050000Y-81400000D02*
X160030000Y-81400000D01*
X163140000Y-81400000D02*
X162570000Y-81400000D01*
X152860000Y-81400000D02*
X152860000Y-86600000D01*
X153430000Y-86600000D02*
X152860000Y-86600000D01*
X155970000Y-86600000D02*
X154950000Y-86600000D01*
X158510000Y-86600000D02*
X157490000Y-86600000D01*
X161050000Y-86600000D02*
X160030000Y-86600000D01*
X163140000Y-86600000D02*
X162570000Y-86600000D01*
X163140000Y-81400000D02*
X163140000Y-86600000D01*
X132570000Y-86600000D02*
X132570000Y-87960000D01*
X123430000Y-81400000D02*
X122860000Y-81400000D01*
X125970000Y-81400000D02*
X124950000Y-81400000D01*
X128510000Y-81400000D02*
X127490000Y-81400000D01*
X131050000Y-81400000D02*
X130030000Y-81400000D01*
X133140000Y-81400000D02*
X132570000Y-81400000D01*
X122860000Y-81400000D02*
X122860000Y-86600000D01*
X123430000Y-86600000D02*
X122860000Y-86600000D01*
X125970000Y-86600000D02*
X124950000Y-86600000D01*
X128510000Y-86600000D02*
X127490000Y-86600000D01*
X131050000Y-86600000D02*
X130030000Y-86600000D01*
X133140000Y-86600000D02*
X132570000Y-86600000D01*
X133140000Y-81400000D02*
X133140000Y-86600000D01*
X102570000Y-86600000D02*
X102570000Y-87960000D01*
X93430000Y-81400000D02*
X92860000Y-81400000D01*
X95970000Y-81400000D02*
X94950000Y-81400000D01*
X98510000Y-81400000D02*
X97490000Y-81400000D01*
X101050000Y-81400000D02*
X100030000Y-81400000D01*
X103140000Y-81400000D02*
X102570000Y-81400000D01*
X92860000Y-81400000D02*
X92860000Y-86600000D01*
X93430000Y-86600000D02*
X92860000Y-86600000D01*
X95970000Y-86600000D02*
X94950000Y-86600000D01*
X98510000Y-86600000D02*
X97490000Y-86600000D01*
X101050000Y-86600000D02*
X100030000Y-86600000D01*
X103140000Y-86600000D02*
X102570000Y-86600000D01*
X103140000Y-81400000D02*
X103140000Y-86600000D01*
X62660000Y-117200000D02*
X62660000Y-115800000D01*
X60340000Y-115800000D02*
X60340000Y-117700000D01*
X60990000Y-118920000D02*
X62450000Y-118920000D01*
X60990000Y-122080000D02*
X63150000Y-122080000D01*
X60990000Y-122080000D02*
X60990000Y-121150000D01*
X60990000Y-118920000D02*
X60990000Y-119850000D01*
X123110000Y-125432779D02*
X123110000Y-125107221D01*
X122090000Y-125432779D02*
X122090000Y-125107221D01*
X70260000Y-114950279D02*
X70260000Y-114624721D01*
X69240000Y-114950279D02*
X69240000Y-114624721D01*
X69090000Y-118997936D02*
X69090000Y-120202064D01*
X70910000Y-118997936D02*
X70910000Y-120202064D01*
X149620000Y-161900000D02*
X149620000Y-160540000D01*
X166380000Y-167100000D02*
X166950000Y-167100000D01*
X163840000Y-167100000D02*
X164860000Y-167100000D01*
X161300000Y-167100000D02*
X162320000Y-167100000D01*
X158760000Y-167100000D02*
X159780000Y-167100000D01*
X156220000Y-167100000D02*
X157240000Y-167100000D01*
X153680000Y-167100000D02*
X154700000Y-167100000D01*
X151140000Y-167100000D02*
X152160000Y-167100000D01*
X149050000Y-167100000D02*
X149620000Y-167100000D01*
X166950000Y-167100000D02*
X166950000Y-161900000D01*
X166380000Y-161900000D02*
X166950000Y-161900000D01*
X163840000Y-161900000D02*
X164860000Y-161900000D01*
X161300000Y-161900000D02*
X162320000Y-161900000D01*
X158760000Y-161900000D02*
X159780000Y-161900000D01*
X156220000Y-161900000D02*
X157240000Y-161900000D01*
X153680000Y-161900000D02*
X154700000Y-161900000D01*
X151140000Y-161900000D02*
X152160000Y-161900000D01*
X149050000Y-161900000D02*
X149620000Y-161900000D01*
X149050000Y-167100000D02*
X149050000Y-161900000D01*
X119620000Y-161900000D02*
X119620000Y-160540000D01*
X136380000Y-167100000D02*
X136950000Y-167100000D01*
X133840000Y-167100000D02*
X134860000Y-167100000D01*
X131300000Y-167100000D02*
X132320000Y-167100000D01*
X128760000Y-167100000D02*
X129780000Y-167100000D01*
X126220000Y-167100000D02*
X127240000Y-167100000D01*
X123680000Y-167100000D02*
X124700000Y-167100000D01*
X121140000Y-167100000D02*
X122160000Y-167100000D01*
X119050000Y-167100000D02*
X119620000Y-167100000D01*
X136950000Y-167100000D02*
X136950000Y-161900000D01*
X136380000Y-161900000D02*
X136950000Y-161900000D01*
X133840000Y-161900000D02*
X134860000Y-161900000D01*
X131300000Y-161900000D02*
X132320000Y-161900000D01*
X128760000Y-161900000D02*
X129780000Y-161900000D01*
X126220000Y-161900000D02*
X127240000Y-161900000D01*
X123680000Y-161900000D02*
X124700000Y-161900000D01*
X121140000Y-161900000D02*
X122160000Y-161900000D01*
X119050000Y-161900000D02*
X119620000Y-161900000D01*
X119050000Y-167100000D02*
X119050000Y-161900000D01*
X89620000Y-161900000D02*
X89620000Y-160540000D01*
X106380000Y-167100000D02*
X106950000Y-167100000D01*
X103840000Y-167100000D02*
X104860000Y-167100000D01*
X101300000Y-167100000D02*
X102320000Y-167100000D01*
X98760000Y-167100000D02*
X99780000Y-167100000D01*
X96220000Y-167100000D02*
X97240000Y-167100000D01*
X93680000Y-167100000D02*
X94700000Y-167100000D01*
X91140000Y-167100000D02*
X92160000Y-167100000D01*
X89050000Y-167100000D02*
X89620000Y-167100000D01*
X106950000Y-167100000D02*
X106950000Y-161900000D01*
X106380000Y-161900000D02*
X106950000Y-161900000D01*
X103840000Y-161900000D02*
X104860000Y-161900000D01*
X101300000Y-161900000D02*
X102320000Y-161900000D01*
X98760000Y-161900000D02*
X99780000Y-161900000D01*
X96220000Y-161900000D02*
X97240000Y-161900000D01*
X93680000Y-161900000D02*
X94700000Y-161900000D01*
X91140000Y-161900000D02*
X92160000Y-161900000D01*
X89050000Y-161900000D02*
X89620000Y-161900000D01*
X89050000Y-167100000D02*
X89050000Y-161900000D01*
X149620000Y-131900000D02*
X149620000Y-130540000D01*
X166380000Y-137100000D02*
X166950000Y-137100000D01*
X163840000Y-137100000D02*
X164860000Y-137100000D01*
X161300000Y-137100000D02*
X162320000Y-137100000D01*
X158760000Y-137100000D02*
X159780000Y-137100000D01*
X156220000Y-137100000D02*
X157240000Y-137100000D01*
X153680000Y-137100000D02*
X154700000Y-137100000D01*
X151140000Y-137100000D02*
X152160000Y-137100000D01*
X149050000Y-137100000D02*
X149620000Y-137100000D01*
X166950000Y-137100000D02*
X166950000Y-131900000D01*
X166380000Y-131900000D02*
X166950000Y-131900000D01*
X163840000Y-131900000D02*
X164860000Y-131900000D01*
X161300000Y-131900000D02*
X162320000Y-131900000D01*
X158760000Y-131900000D02*
X159780000Y-131900000D01*
X156220000Y-131900000D02*
X157240000Y-131900000D01*
X153680000Y-131900000D02*
X154700000Y-131900000D01*
X151140000Y-131900000D02*
X152160000Y-131900000D01*
X149050000Y-131900000D02*
X149620000Y-131900000D01*
X149050000Y-137100000D02*
X149050000Y-131900000D01*
X119620000Y-131900000D02*
X119620000Y-130540000D01*
X136380000Y-137100000D02*
X136950000Y-137100000D01*
X133840000Y-137100000D02*
X134860000Y-137100000D01*
X131300000Y-137100000D02*
X132320000Y-137100000D01*
X128760000Y-137100000D02*
X129780000Y-137100000D01*
X126220000Y-137100000D02*
X127240000Y-137100000D01*
X123680000Y-137100000D02*
X124700000Y-137100000D01*
X121140000Y-137100000D02*
X122160000Y-137100000D01*
X119050000Y-137100000D02*
X119620000Y-137100000D01*
X136950000Y-137100000D02*
X136950000Y-131900000D01*
X136380000Y-131900000D02*
X136950000Y-131900000D01*
X133840000Y-131900000D02*
X134860000Y-131900000D01*
X131300000Y-131900000D02*
X132320000Y-131900000D01*
X128760000Y-131900000D02*
X129780000Y-131900000D01*
X126220000Y-131900000D02*
X127240000Y-131900000D01*
X123680000Y-131900000D02*
X124700000Y-131900000D01*
X121140000Y-131900000D02*
X122160000Y-131900000D01*
X119050000Y-131900000D02*
X119620000Y-131900000D01*
X119050000Y-137100000D02*
X119050000Y-131900000D01*
X89620000Y-131900000D02*
X89620000Y-130540000D01*
X106380000Y-137100000D02*
X106950000Y-137100000D01*
X103840000Y-137100000D02*
X104860000Y-137100000D01*
X101300000Y-137100000D02*
X102320000Y-137100000D01*
X98760000Y-137100000D02*
X99780000Y-137100000D01*
X96220000Y-137100000D02*
X97240000Y-137100000D01*
X93680000Y-137100000D02*
X94700000Y-137100000D01*
X91140000Y-137100000D02*
X92160000Y-137100000D01*
X89050000Y-137100000D02*
X89620000Y-137100000D01*
X106950000Y-137100000D02*
X106950000Y-131900000D01*
X106380000Y-131900000D02*
X106950000Y-131900000D01*
X103840000Y-131900000D02*
X104860000Y-131900000D01*
X101300000Y-131900000D02*
X102320000Y-131900000D01*
X98760000Y-131900000D02*
X99780000Y-131900000D01*
X96220000Y-131900000D02*
X97240000Y-131900000D01*
X93680000Y-131900000D02*
X94700000Y-131900000D01*
X91140000Y-131900000D02*
X92160000Y-131900000D01*
X89050000Y-131900000D02*
X89620000Y-131900000D01*
X89050000Y-137100000D02*
X89050000Y-131900000D01*
X149620000Y-101900000D02*
X149620000Y-100540000D01*
X166380000Y-107100000D02*
X166950000Y-107100000D01*
X163840000Y-107100000D02*
X164860000Y-107100000D01*
X161300000Y-107100000D02*
X162320000Y-107100000D01*
X158760000Y-107100000D02*
X159780000Y-107100000D01*
X156220000Y-107100000D02*
X157240000Y-107100000D01*
X153680000Y-107100000D02*
X154700000Y-107100000D01*
X151140000Y-107100000D02*
X152160000Y-107100000D01*
X149050000Y-107100000D02*
X149620000Y-107100000D01*
X166950000Y-107100000D02*
X166950000Y-101900000D01*
X166380000Y-101900000D02*
X166950000Y-101900000D01*
X163840000Y-101900000D02*
X164860000Y-101900000D01*
X161300000Y-101900000D02*
X162320000Y-101900000D01*
X158760000Y-101900000D02*
X159780000Y-101900000D01*
X156220000Y-101900000D02*
X157240000Y-101900000D01*
X153680000Y-101900000D02*
X154700000Y-101900000D01*
X151140000Y-101900000D02*
X152160000Y-101900000D01*
X149050000Y-101900000D02*
X149620000Y-101900000D01*
X149050000Y-107100000D02*
X149050000Y-101900000D01*
X89620000Y-101900000D02*
X89620000Y-100540000D01*
X106380000Y-107100000D02*
X106950000Y-107100000D01*
X103840000Y-107100000D02*
X104860000Y-107100000D01*
X101300000Y-107100000D02*
X102320000Y-107100000D01*
X98760000Y-107100000D02*
X99780000Y-107100000D01*
X96220000Y-107100000D02*
X97240000Y-107100000D01*
X93680000Y-107100000D02*
X94700000Y-107100000D01*
X91140000Y-107100000D02*
X92160000Y-107100000D01*
X89050000Y-107100000D02*
X89620000Y-107100000D01*
X106950000Y-107100000D02*
X106950000Y-101900000D01*
X106380000Y-101900000D02*
X106950000Y-101900000D01*
X103840000Y-101900000D02*
X104860000Y-101900000D01*
X101300000Y-101900000D02*
X102320000Y-101900000D01*
X98760000Y-101900000D02*
X99780000Y-101900000D01*
X96220000Y-101900000D02*
X97240000Y-101900000D01*
X93680000Y-101900000D02*
X94700000Y-101900000D01*
X91140000Y-101900000D02*
X92160000Y-101900000D01*
X89050000Y-101900000D02*
X89620000Y-101900000D01*
X89050000Y-107100000D02*
X89050000Y-101900000D01*
X91360000Y-77505000D02*
X93175000Y-77505000D01*
X91360000Y-77760000D02*
X91360000Y-77505000D01*
X87500000Y-77760000D02*
X91360000Y-77760000D01*
X83640000Y-77760000D02*
X83640000Y-77505000D01*
X87500000Y-77760000D02*
X83640000Y-77760000D01*
X91360000Y-67240000D02*
X91360000Y-67495000D01*
X87500000Y-67240000D02*
X91360000Y-67240000D01*
X83640000Y-67240000D02*
X83640000Y-67495000D01*
X87500000Y-67240000D02*
X83640000Y-67240000D01*
X95990000Y-74837221D02*
X95990000Y-75162779D01*
X97010000Y-74837221D02*
X97010000Y-75162779D01*
D10*
X133398000Y-44286000D02*
G75*
G03X133398000Y-44286000I-508000J0D01*
G01*
X141272000Y-39460000D02*
X141272000Y-44794000D01*
X132382000Y-39460000D02*
X141272000Y-39460000D01*
X132382000Y-42254000D02*
X132382000Y-39460000D01*
X134668000Y-44794000D02*
X132382000Y-42254000D01*
X141272000Y-44794000D02*
X134668000Y-44794000D01*
X145398000Y-44286000D02*
G75*
G03X145398000Y-44286000I-508000J0D01*
G01*
X153272000Y-39460000D02*
X153272000Y-44794000D01*
X144382000Y-39460000D02*
X153272000Y-39460000D01*
X144382000Y-42254000D02*
X144382000Y-39460000D01*
X146668000Y-44794000D02*
X144382000Y-42254000D01*
X153272000Y-44794000D02*
X146668000Y-44794000D01*
D15*
X62272000Y-91432922D02*
X62272000Y-91950078D01*
X60852000Y-91432922D02*
X60852000Y-91950078D01*
X55790000Y-87758578D02*
X55790000Y-87241422D01*
X57210000Y-87758578D02*
X57210000Y-87241422D01*
X63162779Y-84990000D02*
X62837221Y-84990000D01*
X63162779Y-86010000D02*
X62837221Y-86010000D01*
X64684888Y-99819204D02*
X64319204Y-100184888D01*
X63680796Y-98815112D02*
X63315112Y-99180796D01*
X78819204Y-80684888D02*
X79184888Y-80319204D01*
X77815112Y-79680796D02*
X78180796Y-79315112D01*
X63680796Y-80684888D02*
X63315112Y-80319204D01*
X64684888Y-79680796D02*
X64319204Y-79315112D01*
X77315112Y-100319204D02*
X77680796Y-100684888D01*
X78319204Y-99315112D02*
X78684888Y-99680796D01*
X57458578Y-89890000D02*
X56941422Y-89890000D01*
X57458578Y-91310000D02*
X56941422Y-91310000D01*
X57920000Y-88460000D02*
X58850000Y-88460000D01*
X61080000Y-88460000D02*
X60150000Y-88460000D01*
X61080000Y-88460000D02*
X61080000Y-86300000D01*
X57920000Y-88460000D02*
X57920000Y-87000000D01*
X60000000Y-92440000D02*
X58000000Y-92440000D01*
X58000000Y-92440000D02*
X58000000Y-96340000D01*
X60000000Y-92440000D02*
X60000000Y-96340000D01*
X66790000Y-71447936D02*
X66790000Y-75552064D01*
X70210000Y-71447936D02*
X70210000Y-75552064D01*
X70790000Y-71447936D02*
X70790000Y-75552064D01*
X74210000Y-71447936D02*
X74210000Y-75552064D01*
X78210000Y-71447936D02*
X78210000Y-75552064D01*
X74790000Y-71447936D02*
X74790000Y-75552064D01*
X66790000Y-108552064D02*
X66790000Y-104447936D01*
X70210000Y-108552064D02*
X70210000Y-104447936D01*
X74210000Y-108552064D02*
X74210000Y-104447936D01*
X70790000Y-108552064D02*
X70790000Y-104447936D01*
X74790000Y-108552064D02*
X74790000Y-104447936D01*
X78210000Y-108552064D02*
X78210000Y-104447936D01*
X57310000Y-80937221D02*
X57310000Y-81262779D01*
X56290000Y-80937221D02*
X56290000Y-81262779D01*
X63162779Y-86990000D02*
X62837221Y-86990000D01*
X63162779Y-88010000D02*
X62837221Y-88010000D01*
X57300000Y-85200000D02*
X57600000Y-85500000D01*
X57000000Y-85500000D02*
X57600000Y-85500000D01*
X57300000Y-85200000D02*
X57000000Y-85500000D01*
X56450000Y-84300000D02*
X56450000Y-83700000D01*
X59900000Y-85000000D02*
X57100000Y-85000000D01*
X60550000Y-83700000D02*
X60550000Y-84300000D01*
X57100000Y-83000000D02*
X59900000Y-83000000D01*
X59850000Y-83000000D02*
G75*
G02X60550000Y-83700000I0J-700000D01*
G01*
X60550000Y-84300000D02*
G75*
G02X59850000Y-85000000I-700000J0D01*
G01*
X57150000Y-85000000D02*
G75*
G02X56450000Y-84300000I0J700000D01*
G01*
X56450000Y-83700000D02*
G75*
G02X57150000Y-83000000I700000J0D01*
G01*
X62790000Y-71447936D02*
X62790000Y-75552064D01*
X66210000Y-71447936D02*
X66210000Y-75552064D01*
X62790000Y-108552064D02*
X62790000Y-104447936D01*
X66210000Y-108552064D02*
X66210000Y-104447936D01*
X60061252Y-82310000D02*
X59538748Y-82310000D01*
X60061252Y-80890000D02*
X59538748Y-80890000D01*
X61110000Y-69170000D02*
X61110000Y-64870000D01*
X61110000Y-64870000D02*
X55410000Y-64870000D01*
X61110000Y-69170000D02*
X55410000Y-69170000D01*
X108810000Y-67190000D02*
X106810000Y-67190000D01*
X106810000Y-67190000D02*
X106810000Y-71090000D01*
X108810000Y-67190000D02*
X108810000Y-71090000D01*
X114565000Y-126455000D02*
X112280000Y-126455000D01*
X114565000Y-127925000D02*
X114565000Y-126455000D01*
X112280000Y-127925000D02*
X114565000Y-127925000D01*
X112205000Y-90750000D02*
X112205000Y-93035000D01*
X112205000Y-93035000D02*
X113675000Y-93035000D01*
X113675000Y-93035000D02*
X113675000Y-90750000D01*
X78785000Y-127590000D02*
X78785000Y-129875000D01*
X78785000Y-129875000D02*
X80255000Y-129875000D01*
X80255000Y-129875000D02*
X80255000Y-127590000D01*
X173150000Y-32180000D02*
X173150000Y-20020000D01*
X173150000Y-20020000D02*
X160830000Y-20020000D01*
X160830000Y-20020000D02*
X160830000Y-32180000D01*
X160830000Y-32180000D02*
X173150000Y-32180000D01*
X173150000Y-21520000D02*
X173150000Y-23320000D01*
X173150000Y-23320000D02*
X160830000Y-23320000D01*
X160830000Y-23320000D02*
X160830000Y-21520000D01*
X160830000Y-21520000D02*
X173150000Y-21520000D01*
X170530000Y-20020000D02*
X168530000Y-20020000D01*
X168530000Y-20020000D02*
X168780000Y-21520000D01*
X168780000Y-21520000D02*
X170280000Y-21520000D01*
X170280000Y-21520000D02*
X170530000Y-20020000D01*
X165450000Y-20020000D02*
X163450000Y-20020000D01*
X163450000Y-20020000D02*
X163700000Y-21520000D01*
X163700000Y-21520000D02*
X165200000Y-21520000D01*
X165200000Y-21520000D02*
X165450000Y-20020000D01*
X169230000Y-32980000D02*
X169530000Y-32380000D01*
X169530000Y-32380000D02*
X169830000Y-32980000D01*
X169830000Y-32980000D02*
X169230000Y-32980000D01*
X183820000Y-32890000D02*
X183220000Y-32890000D01*
X183520000Y-32290000D02*
X183820000Y-32890000D01*
X183220000Y-32890000D02*
X183520000Y-32290000D01*
X179190000Y-21430000D02*
X179440000Y-19930000D01*
X177690000Y-21430000D02*
X179190000Y-21430000D01*
X177440000Y-19930000D02*
X177690000Y-21430000D01*
X179440000Y-19930000D02*
X177440000Y-19930000D01*
X184270000Y-21430000D02*
X184520000Y-19930000D01*
X182770000Y-21430000D02*
X184270000Y-21430000D01*
X182520000Y-19930000D02*
X182770000Y-21430000D01*
X184520000Y-19930000D02*
X182520000Y-19930000D01*
X174820000Y-21430000D02*
X187140000Y-21430000D01*
X174820000Y-23230000D02*
X174820000Y-21430000D01*
X187140000Y-23230000D02*
X174820000Y-23230000D01*
X187140000Y-21430000D02*
X187140000Y-23230000D01*
X174820000Y-32090000D02*
X187140000Y-32090000D01*
X174820000Y-19930000D02*
X174820000Y-32090000D01*
X187140000Y-19930000D02*
X174820000Y-19930000D01*
X187140000Y-32090000D02*
X187140000Y-19930000D01*
D10*
X165272000Y-44794000D02*
X158668000Y-44794000D01*
X158668000Y-44794000D02*
X156382000Y-42254000D01*
X156382000Y-42254000D02*
X156382000Y-39460000D01*
X156382000Y-39460000D02*
X165272000Y-39460000D01*
X165272000Y-39460000D02*
X165272000Y-44794000D01*
X157398000Y-44286000D02*
G75*
G03X157398000Y-44286000I-508000J0D01*
G01*
X169398000Y-44286000D02*
G75*
G03X169398000Y-44286000I-508000J0D01*
G01*
X177272000Y-39460000D02*
X177272000Y-44794000D01*
X168382000Y-39460000D02*
X177272000Y-39460000D01*
X168382000Y-42254000D02*
X168382000Y-39460000D01*
X170668000Y-44794000D02*
X168382000Y-42254000D01*
X177272000Y-44794000D02*
X170668000Y-44794000D01*
D15*
X183050000Y-105960000D02*
X188250000Y-105960000D01*
X183050000Y-80500000D02*
X183050000Y-105960000D01*
X188250000Y-77900000D02*
X188250000Y-105960000D01*
X183050000Y-80500000D02*
X185650000Y-80500000D01*
X185650000Y-80500000D02*
X185650000Y-77900000D01*
X185650000Y-77900000D02*
X188250000Y-77900000D01*
X183050000Y-79230000D02*
X183050000Y-77900000D01*
X183050000Y-77900000D02*
X184380000Y-77900000D01*
X100290000Y-70150000D02*
X102940000Y-70150000D01*
X102940000Y-70150000D02*
X102940000Y-67800000D01*
X102940000Y-67800000D02*
X104330000Y-67800000D01*
X100290000Y-61930000D02*
X102940000Y-61930000D01*
X102940000Y-61930000D02*
X102940000Y-64280000D01*
X95870000Y-70040000D02*
X95870000Y-62040000D01*
D16*
X78042857Y-120171428D02*
X78042857Y-120657142D01*
X78071428Y-120714285D01*
X78100000Y-120742857D01*
X78157142Y-120771428D01*
X78271428Y-120771428D01*
X78328571Y-120742857D01*
X78357142Y-120714285D01*
X78385714Y-120657142D01*
X78385714Y-120171428D01*
X78700000Y-120771428D02*
X78814285Y-120771428D01*
X78871428Y-120742857D01*
X78900000Y-120714285D01*
X78957142Y-120628571D01*
X78985714Y-120514285D01*
X78985714Y-120285714D01*
X78957142Y-120228571D01*
X78928571Y-120200000D01*
X78871428Y-120171428D01*
X78757142Y-120171428D01*
X78700000Y-120200000D01*
X78671428Y-120228571D01*
X78642857Y-120285714D01*
X78642857Y-120428571D01*
X78671428Y-120485714D01*
X78700000Y-120514285D01*
X78757142Y-120542857D01*
X78871428Y-120542857D01*
X78928571Y-120514285D01*
X78957142Y-120485714D01*
X78985714Y-120428571D01*
D10*
X75567142Y-59092380D02*
X75233809Y-58616190D01*
X74995714Y-59092380D02*
X74995714Y-58092380D01*
X75376666Y-58092380D01*
X75471904Y-58140000D01*
X75519523Y-58187619D01*
X75567142Y-58282857D01*
X75567142Y-58425714D01*
X75519523Y-58520952D01*
X75471904Y-58568571D01*
X75376666Y-58616190D01*
X74995714Y-58616190D01*
X75948095Y-58187619D02*
X75995714Y-58140000D01*
X76090952Y-58092380D01*
X76329047Y-58092380D01*
X76424285Y-58140000D01*
X76471904Y-58187619D01*
X76519523Y-58282857D01*
X76519523Y-58378095D01*
X76471904Y-58520952D01*
X75900476Y-59092380D01*
X76519523Y-59092380D01*
X77138571Y-58092380D02*
X77233809Y-58092380D01*
X77329047Y-58140000D01*
X77376666Y-58187619D01*
X77424285Y-58282857D01*
X77471904Y-58473333D01*
X77471904Y-58711428D01*
X77424285Y-58901904D01*
X77376666Y-58997142D01*
X77329047Y-59044761D01*
X77233809Y-59092380D01*
X77138571Y-59092380D01*
X77043333Y-59044761D01*
X76995714Y-58997142D01*
X76948095Y-58901904D01*
X76900476Y-58711428D01*
X76900476Y-58473333D01*
X76948095Y-58282857D01*
X76995714Y-58187619D01*
X77043333Y-58140000D01*
X77138571Y-58092380D01*
X67597142Y-58982380D02*
X67263809Y-58506190D01*
X67025714Y-58982380D02*
X67025714Y-57982380D01*
X67406666Y-57982380D01*
X67501904Y-58030000D01*
X67549523Y-58077619D01*
X67597142Y-58172857D01*
X67597142Y-58315714D01*
X67549523Y-58410952D01*
X67501904Y-58458571D01*
X67406666Y-58506190D01*
X67025714Y-58506190D01*
X67978095Y-58077619D02*
X68025714Y-58030000D01*
X68120952Y-57982380D01*
X68359047Y-57982380D01*
X68454285Y-58030000D01*
X68501904Y-58077619D01*
X68549523Y-58172857D01*
X68549523Y-58268095D01*
X68501904Y-58410952D01*
X67930476Y-58982380D01*
X68549523Y-58982380D01*
X69501904Y-58982380D02*
X68930476Y-58982380D01*
X69216190Y-58982380D02*
X69216190Y-57982380D01*
X69120952Y-58125238D01*
X69025714Y-58220476D01*
X68930476Y-58268095D01*
X83592142Y-58842380D02*
X83258809Y-58366190D01*
X83020714Y-58842380D02*
X83020714Y-57842380D01*
X83401666Y-57842380D01*
X83496904Y-57890000D01*
X83544523Y-57937619D01*
X83592142Y-58032857D01*
X83592142Y-58175714D01*
X83544523Y-58270952D01*
X83496904Y-58318571D01*
X83401666Y-58366190D01*
X83020714Y-58366190D01*
X84544523Y-58842380D02*
X83973095Y-58842380D01*
X84258809Y-58842380D02*
X84258809Y-57842380D01*
X84163571Y-57985238D01*
X84068333Y-58080476D01*
X83973095Y-58128095D01*
X85020714Y-58842380D02*
X85211190Y-58842380D01*
X85306428Y-58794761D01*
X85354047Y-58747142D01*
X85449285Y-58604285D01*
X85496904Y-58413809D01*
X85496904Y-58032857D01*
X85449285Y-57937619D01*
X85401666Y-57890000D01*
X85306428Y-57842380D01*
X85115952Y-57842380D01*
X85020714Y-57890000D01*
X84973095Y-57937619D01*
X84925476Y-58032857D01*
X84925476Y-58270952D01*
X84973095Y-58366190D01*
X85020714Y-58413809D01*
X85115952Y-58461428D01*
X85306428Y-58461428D01*
X85401666Y-58413809D01*
X85449285Y-58366190D01*
X85496904Y-58270952D01*
X99667142Y-59092380D02*
X99333809Y-58616190D01*
X99095714Y-59092380D02*
X99095714Y-58092380D01*
X99476666Y-58092380D01*
X99571904Y-58140000D01*
X99619523Y-58187619D01*
X99667142Y-58282857D01*
X99667142Y-58425714D01*
X99619523Y-58520952D01*
X99571904Y-58568571D01*
X99476666Y-58616190D01*
X99095714Y-58616190D01*
X100619523Y-59092380D02*
X100048095Y-59092380D01*
X100333809Y-59092380D02*
X100333809Y-58092380D01*
X100238571Y-58235238D01*
X100143333Y-58330476D01*
X100048095Y-58378095D01*
X100952857Y-58092380D02*
X101619523Y-58092380D01*
X101190952Y-59092380D01*
X107617142Y-58892380D02*
X107283809Y-58416190D01*
X107045714Y-58892380D02*
X107045714Y-57892380D01*
X107426666Y-57892380D01*
X107521904Y-57940000D01*
X107569523Y-57987619D01*
X107617142Y-58082857D01*
X107617142Y-58225714D01*
X107569523Y-58320952D01*
X107521904Y-58368571D01*
X107426666Y-58416190D01*
X107045714Y-58416190D01*
X108569523Y-58892380D02*
X107998095Y-58892380D01*
X108283809Y-58892380D02*
X108283809Y-57892380D01*
X108188571Y-58035238D01*
X108093333Y-58130476D01*
X107998095Y-58178095D01*
X109426666Y-57892380D02*
X109236190Y-57892380D01*
X109140952Y-57940000D01*
X109093333Y-57987619D01*
X108998095Y-58130476D01*
X108950476Y-58320952D01*
X108950476Y-58701904D01*
X108998095Y-58797142D01*
X109045714Y-58844761D01*
X109140952Y-58892380D01*
X109331428Y-58892380D01*
X109426666Y-58844761D01*
X109474285Y-58797142D01*
X109521904Y-58701904D01*
X109521904Y-58463809D01*
X109474285Y-58368571D01*
X109426666Y-58320952D01*
X109331428Y-58273333D01*
X109140952Y-58273333D01*
X109045714Y-58320952D01*
X108998095Y-58368571D01*
X108950476Y-58463809D01*
X91577142Y-58822380D02*
X91243809Y-58346190D01*
X91005714Y-58822380D02*
X91005714Y-57822380D01*
X91386666Y-57822380D01*
X91481904Y-57870000D01*
X91529523Y-57917619D01*
X91577142Y-58012857D01*
X91577142Y-58155714D01*
X91529523Y-58250952D01*
X91481904Y-58298571D01*
X91386666Y-58346190D01*
X91005714Y-58346190D01*
X92529523Y-58822380D02*
X91958095Y-58822380D01*
X92243809Y-58822380D02*
X92243809Y-57822380D01*
X92148571Y-57965238D01*
X92053333Y-58060476D01*
X91958095Y-58108095D01*
X93100952Y-58250952D02*
X93005714Y-58203333D01*
X92958095Y-58155714D01*
X92910476Y-58060476D01*
X92910476Y-58012857D01*
X92958095Y-57917619D01*
X93005714Y-57870000D01*
X93100952Y-57822380D01*
X93291428Y-57822380D01*
X93386666Y-57870000D01*
X93434285Y-57917619D01*
X93481904Y-58012857D01*
X93481904Y-58060476D01*
X93434285Y-58155714D01*
X93386666Y-58203333D01*
X93291428Y-58250952D01*
X93100952Y-58250952D01*
X93005714Y-58298571D01*
X92958095Y-58346190D01*
X92910476Y-58441428D01*
X92910476Y-58631904D01*
X92958095Y-58727142D01*
X93005714Y-58774761D01*
X93100952Y-58822380D01*
X93291428Y-58822380D01*
X93386666Y-58774761D01*
X93434285Y-58727142D01*
X93481904Y-58631904D01*
X93481904Y-58441428D01*
X93434285Y-58346190D01*
X93386666Y-58298571D01*
X93291428Y-58250952D01*
X115224761Y-72827619D02*
X115129523Y-72780000D01*
X115034285Y-72684761D01*
X114891428Y-72541904D01*
X114796190Y-72494285D01*
X114700952Y-72494285D01*
X114748571Y-72732380D02*
X114653333Y-72684761D01*
X114558095Y-72589523D01*
X114510476Y-72399047D01*
X114510476Y-72065714D01*
X114558095Y-71875238D01*
X114653333Y-71780000D01*
X114748571Y-71732380D01*
X114939047Y-71732380D01*
X115034285Y-71780000D01*
X115129523Y-71875238D01*
X115177142Y-72065714D01*
X115177142Y-72399047D01*
X115129523Y-72589523D01*
X115034285Y-72684761D01*
X114939047Y-72732380D01*
X114748571Y-72732380D01*
X116081904Y-71732380D02*
X115605714Y-71732380D01*
X115558095Y-72208571D01*
X115605714Y-72160952D01*
X115700952Y-72113333D01*
X115939047Y-72113333D01*
X116034285Y-72160952D01*
X116081904Y-72208571D01*
X116129523Y-72303809D01*
X116129523Y-72541904D01*
X116081904Y-72637142D01*
X116034285Y-72684761D01*
X115939047Y-72732380D01*
X115700952Y-72732380D01*
X115605714Y-72684761D01*
X115558095Y-72637142D01*
X116890000Y-73622380D02*
X116890000Y-73860476D01*
X116651904Y-73765238D02*
X116890000Y-73860476D01*
X117128095Y-73765238D01*
X116747142Y-74050952D02*
X116890000Y-73860476D01*
X117032857Y-74050952D01*
X108793363Y-63274254D02*
X108793363Y-63751479D01*
X107791190Y-63751479D01*
X108745641Y-62987918D02*
X108793363Y-62844751D01*
X108793363Y-62606138D01*
X108745641Y-62510693D01*
X108697918Y-62462971D01*
X108602473Y-62415248D01*
X108507028Y-62415248D01*
X108411583Y-62462971D01*
X108363861Y-62510693D01*
X108316138Y-62606138D01*
X108268416Y-62797028D01*
X108220693Y-62892473D01*
X108172971Y-62940196D01*
X108077526Y-62987918D01*
X107982081Y-62987918D01*
X107886636Y-62940196D01*
X107838913Y-62892473D01*
X107791190Y-62797028D01*
X107791190Y-62558416D01*
X107838913Y-62415248D01*
X108793363Y-61460798D02*
X108793363Y-62033468D01*
X108793363Y-61747133D02*
X107791190Y-61747133D01*
X107934358Y-61842578D01*
X108029803Y-61938023D01*
X108077526Y-62033468D01*
D19*
X111252041Y-73753752D02*
X111252041Y-72988728D01*
X120924935Y-73857665D02*
X120924935Y-73095154D01*
X121306190Y-73476410D02*
X120543680Y-73476410D01*
D10*
X50452380Y-129309523D02*
X49452380Y-129309523D01*
X49452380Y-128928571D01*
X49500000Y-128833333D01*
X49547619Y-128785714D01*
X49642857Y-128738095D01*
X49785714Y-128738095D01*
X49880952Y-128785714D01*
X49928571Y-128833333D01*
X49976190Y-128928571D01*
X49976190Y-129309523D01*
X49452380Y-128404761D02*
X50452380Y-128166666D01*
X49738095Y-127976190D01*
X50452380Y-127785714D01*
X49452380Y-127547619D01*
X50452380Y-126595238D02*
X49976190Y-126928571D01*
X50452380Y-127166666D02*
X49452380Y-127166666D01*
X49452380Y-126785714D01*
X49500000Y-126690476D01*
X49547619Y-126642857D01*
X49642857Y-126595238D01*
X49785714Y-126595238D01*
X49880952Y-126642857D01*
X49928571Y-126690476D01*
X49976190Y-126785714D01*
X49976190Y-127166666D01*
X50452380Y-125642857D02*
X50452380Y-126214285D01*
X50452380Y-125928571D02*
X49452380Y-125928571D01*
X49595238Y-126023809D01*
X49690476Y-126119047D01*
X49738095Y-126214285D01*
X57182380Y-44782380D02*
X56849047Y-44306190D01*
X56610952Y-44782380D02*
X56610952Y-43782380D01*
X56991904Y-43782380D01*
X57087142Y-43830000D01*
X57134761Y-43877619D01*
X57182380Y-43972857D01*
X57182380Y-44115714D01*
X57134761Y-44210952D01*
X57087142Y-44258571D01*
X56991904Y-44306190D01*
X56610952Y-44306190D01*
X57896666Y-43782380D02*
X57896666Y-44496666D01*
X57849047Y-44639523D01*
X57753809Y-44734761D01*
X57610952Y-44782380D01*
X57515714Y-44782380D01*
X58801428Y-43782380D02*
X58610952Y-43782380D01*
X58515714Y-43830000D01*
X58468095Y-43877619D01*
X58372857Y-44020476D01*
X58325238Y-44210952D01*
X58325238Y-44591904D01*
X58372857Y-44687142D01*
X58420476Y-44734761D01*
X58515714Y-44782380D01*
X58706190Y-44782380D01*
X58801428Y-44734761D01*
X58849047Y-44687142D01*
X58896666Y-44591904D01*
X58896666Y-44353809D01*
X58849047Y-44258571D01*
X58801428Y-44210952D01*
X58706190Y-44163333D01*
X58515714Y-44163333D01*
X58420476Y-44210952D01*
X58372857Y-44258571D01*
X58325238Y-44353809D01*
X68182380Y-44692380D02*
X67849047Y-44216190D01*
X67610952Y-44692380D02*
X67610952Y-43692380D01*
X67991904Y-43692380D01*
X68087142Y-43740000D01*
X68134761Y-43787619D01*
X68182380Y-43882857D01*
X68182380Y-44025714D01*
X68134761Y-44120952D01*
X68087142Y-44168571D01*
X67991904Y-44216190D01*
X67610952Y-44216190D01*
X68896666Y-43692380D02*
X68896666Y-44406666D01*
X68849047Y-44549523D01*
X68753809Y-44644761D01*
X68610952Y-44692380D01*
X68515714Y-44692380D01*
X69849047Y-43692380D02*
X69372857Y-43692380D01*
X69325238Y-44168571D01*
X69372857Y-44120952D01*
X69468095Y-44073333D01*
X69706190Y-44073333D01*
X69801428Y-44120952D01*
X69849047Y-44168571D01*
X69896666Y-44263809D01*
X69896666Y-44501904D01*
X69849047Y-44597142D01*
X69801428Y-44644761D01*
X69706190Y-44692380D01*
X69468095Y-44692380D01*
X69372857Y-44644761D01*
X69325238Y-44597142D01*
X79182380Y-44782380D02*
X78849047Y-44306190D01*
X78610952Y-44782380D02*
X78610952Y-43782380D01*
X78991904Y-43782380D01*
X79087142Y-43830000D01*
X79134761Y-43877619D01*
X79182380Y-43972857D01*
X79182380Y-44115714D01*
X79134761Y-44210952D01*
X79087142Y-44258571D01*
X78991904Y-44306190D01*
X78610952Y-44306190D01*
X79896666Y-43782380D02*
X79896666Y-44496666D01*
X79849047Y-44639523D01*
X79753809Y-44734761D01*
X79610952Y-44782380D01*
X79515714Y-44782380D01*
X80801428Y-44115714D02*
X80801428Y-44782380D01*
X80563333Y-43734761D02*
X80325238Y-44449047D01*
X80944285Y-44449047D01*
X98182380Y-44782380D02*
X97849047Y-44306190D01*
X97610952Y-44782380D02*
X97610952Y-43782380D01*
X97991904Y-43782380D01*
X98087142Y-43830000D01*
X98134761Y-43877619D01*
X98182380Y-43972857D01*
X98182380Y-44115714D01*
X98134761Y-44210952D01*
X98087142Y-44258571D01*
X97991904Y-44306190D01*
X97610952Y-44306190D01*
X98896666Y-43782380D02*
X98896666Y-44496666D01*
X98849047Y-44639523D01*
X98753809Y-44734761D01*
X98610952Y-44782380D01*
X98515714Y-44782380D01*
X99277619Y-43782380D02*
X99896666Y-43782380D01*
X99563333Y-44163333D01*
X99706190Y-44163333D01*
X99801428Y-44210952D01*
X99849047Y-44258571D01*
X99896666Y-44353809D01*
X99896666Y-44591904D01*
X99849047Y-44687142D01*
X99801428Y-44734761D01*
X99706190Y-44782380D01*
X99420476Y-44782380D01*
X99325238Y-44734761D01*
X99277619Y-44687142D01*
X109182380Y-44782380D02*
X108849047Y-44306190D01*
X108610952Y-44782380D02*
X108610952Y-43782380D01*
X108991904Y-43782380D01*
X109087142Y-43830000D01*
X109134761Y-43877619D01*
X109182380Y-43972857D01*
X109182380Y-44115714D01*
X109134761Y-44210952D01*
X109087142Y-44258571D01*
X108991904Y-44306190D01*
X108610952Y-44306190D01*
X109896666Y-43782380D02*
X109896666Y-44496666D01*
X109849047Y-44639523D01*
X109753809Y-44734761D01*
X109610952Y-44782380D01*
X109515714Y-44782380D01*
X110325238Y-43877619D02*
X110372857Y-43830000D01*
X110468095Y-43782380D01*
X110706190Y-43782380D01*
X110801428Y-43830000D01*
X110849047Y-43877619D01*
X110896666Y-43972857D01*
X110896666Y-44068095D01*
X110849047Y-44210952D01*
X110277619Y-44782380D01*
X110896666Y-44782380D01*
X120182380Y-44782380D02*
X119849047Y-44306190D01*
X119610952Y-44782380D02*
X119610952Y-43782380D01*
X119991904Y-43782380D01*
X120087142Y-43830000D01*
X120134761Y-43877619D01*
X120182380Y-43972857D01*
X120182380Y-44115714D01*
X120134761Y-44210952D01*
X120087142Y-44258571D01*
X119991904Y-44306190D01*
X119610952Y-44306190D01*
X120896666Y-43782380D02*
X120896666Y-44496666D01*
X120849047Y-44639523D01*
X120753809Y-44734761D01*
X120610952Y-44782380D01*
X120515714Y-44782380D01*
X121896666Y-44782380D02*
X121325238Y-44782380D01*
X121610952Y-44782380D02*
X121610952Y-43782380D01*
X121515714Y-43925238D01*
X121420476Y-44020476D01*
X121325238Y-44068095D01*
X181862380Y-35688095D02*
X180862380Y-35688095D01*
X180862380Y-35307142D01*
X180910000Y-35211904D01*
X180957619Y-35164285D01*
X181052857Y-35116666D01*
X181195714Y-35116666D01*
X181290952Y-35164285D01*
X181338571Y-35211904D01*
X181386190Y-35307142D01*
X181386190Y-35688095D01*
X180957619Y-34735714D02*
X180910000Y-34688095D01*
X180862380Y-34592857D01*
X180862380Y-34354761D01*
X180910000Y-34259523D01*
X180957619Y-34211904D01*
X181052857Y-34164285D01*
X181148095Y-34164285D01*
X181290952Y-34211904D01*
X181862380Y-34783333D01*
X181862380Y-34164285D01*
X80341428Y-82442857D02*
X79741428Y-82442857D01*
X79741428Y-82300000D01*
X79770000Y-82214285D01*
X79827142Y-82157142D01*
X79884285Y-82128571D01*
X79998571Y-82100000D01*
X80084285Y-82100000D01*
X80198571Y-82128571D01*
X80255714Y-82157142D01*
X80312857Y-82214285D01*
X80341428Y-82300000D01*
X80341428Y-82442857D01*
X79741428Y-81557142D02*
X79741428Y-81842857D01*
X80027142Y-81871428D01*
X79998571Y-81842857D01*
X79970000Y-81785714D01*
X79970000Y-81642857D01*
X79998571Y-81585714D01*
X80027142Y-81557142D01*
X80084285Y-81528571D01*
X80227142Y-81528571D01*
X80284285Y-81557142D01*
X80312857Y-81585714D01*
X80341428Y-81642857D01*
X80341428Y-81785714D01*
X80312857Y-81842857D01*
X80284285Y-81871428D01*
X57771428Y-57442857D02*
X57171428Y-57442857D01*
X57171428Y-57300000D01*
X57200000Y-57214285D01*
X57257142Y-57157142D01*
X57314285Y-57128571D01*
X57428571Y-57100000D01*
X57514285Y-57100000D01*
X57628571Y-57128571D01*
X57685714Y-57157142D01*
X57742857Y-57214285D01*
X57771428Y-57300000D01*
X57771428Y-57442857D01*
X57171428Y-56900000D02*
X57171428Y-56528571D01*
X57400000Y-56728571D01*
X57400000Y-56642857D01*
X57428571Y-56585714D01*
X57457142Y-56557142D01*
X57514285Y-56528571D01*
X57657142Y-56528571D01*
X57714285Y-56557142D01*
X57742857Y-56585714D01*
X57771428Y-56642857D01*
X57771428Y-56814285D01*
X57742857Y-56871428D01*
X57714285Y-56900000D01*
X142398571Y-33492380D02*
X142065238Y-33016190D01*
X141827142Y-33492380D02*
X141827142Y-32492380D01*
X142208095Y-32492380D01*
X142303333Y-32540000D01*
X142350952Y-32587619D01*
X142398571Y-32682857D01*
X142398571Y-32825714D01*
X142350952Y-32920952D01*
X142303333Y-32968571D01*
X142208095Y-33016190D01*
X141827142Y-33016190D01*
X143303333Y-33492380D02*
X142827142Y-33492380D01*
X142827142Y-32492380D01*
X143779523Y-32920952D02*
X143684285Y-32873333D01*
X143636666Y-32825714D01*
X143589047Y-32730476D01*
X143589047Y-32682857D01*
X143636666Y-32587619D01*
X143684285Y-32540000D01*
X143779523Y-32492380D01*
X143970000Y-32492380D01*
X144065238Y-32540000D01*
X144112857Y-32587619D01*
X144160476Y-32682857D01*
X144160476Y-32730476D01*
X144112857Y-32825714D01*
X144065238Y-32873333D01*
X143970000Y-32920952D01*
X143779523Y-32920952D01*
X143684285Y-32968571D01*
X143636666Y-33016190D01*
X143589047Y-33111428D01*
X143589047Y-33301904D01*
X143636666Y-33397142D01*
X143684285Y-33444761D01*
X143779523Y-33492380D01*
X143970000Y-33492380D01*
X144065238Y-33444761D01*
X144112857Y-33397142D01*
X144160476Y-33301904D01*
X144160476Y-33111428D01*
X144112857Y-33016190D01*
X144065238Y-32968571D01*
X143970000Y-32920952D01*
X152148571Y-33752380D02*
X151815238Y-33276190D01*
X151577142Y-33752380D02*
X151577142Y-32752380D01*
X151958095Y-32752380D01*
X152053333Y-32800000D01*
X152100952Y-32847619D01*
X152148571Y-32942857D01*
X152148571Y-33085714D01*
X152100952Y-33180952D01*
X152053333Y-33228571D01*
X151958095Y-33276190D01*
X151577142Y-33276190D01*
X153053333Y-33752380D02*
X152577142Y-33752380D01*
X152577142Y-32752380D01*
X153291428Y-32752380D02*
X153958095Y-32752380D01*
X153529523Y-33752380D01*
X55028571Y-31952380D02*
X54695238Y-31476190D01*
X54457142Y-31952380D02*
X54457142Y-30952380D01*
X54838095Y-30952380D01*
X54933333Y-31000000D01*
X54980952Y-31047619D01*
X55028571Y-31142857D01*
X55028571Y-31285714D01*
X54980952Y-31380952D01*
X54933333Y-31428571D01*
X54838095Y-31476190D01*
X54457142Y-31476190D01*
X55933333Y-31952380D02*
X55457142Y-31952380D01*
X55457142Y-30952380D01*
X56695238Y-30952380D02*
X56504761Y-30952380D01*
X56409523Y-31000000D01*
X56361904Y-31047619D01*
X56266666Y-31190476D01*
X56219047Y-31380952D01*
X56219047Y-31761904D01*
X56266666Y-31857142D01*
X56314285Y-31904761D01*
X56409523Y-31952380D01*
X56600000Y-31952380D01*
X56695238Y-31904761D01*
X56742857Y-31857142D01*
X56790476Y-31761904D01*
X56790476Y-31523809D01*
X56742857Y-31428571D01*
X56695238Y-31380952D01*
X56600000Y-31333333D01*
X56409523Y-31333333D01*
X56314285Y-31380952D01*
X56266666Y-31428571D01*
X56219047Y-31523809D01*
X66028571Y-31952380D02*
X65695238Y-31476190D01*
X65457142Y-31952380D02*
X65457142Y-30952380D01*
X65838095Y-30952380D01*
X65933333Y-31000000D01*
X65980952Y-31047619D01*
X66028571Y-31142857D01*
X66028571Y-31285714D01*
X65980952Y-31380952D01*
X65933333Y-31428571D01*
X65838095Y-31476190D01*
X65457142Y-31476190D01*
X66933333Y-31952380D02*
X66457142Y-31952380D01*
X66457142Y-30952380D01*
X67742857Y-30952380D02*
X67266666Y-30952380D01*
X67219047Y-31428571D01*
X67266666Y-31380952D01*
X67361904Y-31333333D01*
X67600000Y-31333333D01*
X67695238Y-31380952D01*
X67742857Y-31428571D01*
X67790476Y-31523809D01*
X67790476Y-31761904D01*
X67742857Y-31857142D01*
X67695238Y-31904761D01*
X67600000Y-31952380D01*
X67361904Y-31952380D01*
X67266666Y-31904761D01*
X67219047Y-31857142D01*
X77028571Y-31952380D02*
X76695238Y-31476190D01*
X76457142Y-31952380D02*
X76457142Y-30952380D01*
X76838095Y-30952380D01*
X76933333Y-31000000D01*
X76980952Y-31047619D01*
X77028571Y-31142857D01*
X77028571Y-31285714D01*
X76980952Y-31380952D01*
X76933333Y-31428571D01*
X76838095Y-31476190D01*
X76457142Y-31476190D01*
X77933333Y-31952380D02*
X77457142Y-31952380D01*
X77457142Y-30952380D01*
X78695238Y-31285714D02*
X78695238Y-31952380D01*
X78457142Y-30904761D02*
X78219047Y-31619047D01*
X78838095Y-31619047D01*
X96028571Y-31952380D02*
X95695238Y-31476190D01*
X95457142Y-31952380D02*
X95457142Y-30952380D01*
X95838095Y-30952380D01*
X95933333Y-31000000D01*
X95980952Y-31047619D01*
X96028571Y-31142857D01*
X96028571Y-31285714D01*
X95980952Y-31380952D01*
X95933333Y-31428571D01*
X95838095Y-31476190D01*
X95457142Y-31476190D01*
X96933333Y-31952380D02*
X96457142Y-31952380D01*
X96457142Y-30952380D01*
X97171428Y-30952380D02*
X97790476Y-30952380D01*
X97457142Y-31333333D01*
X97600000Y-31333333D01*
X97695238Y-31380952D01*
X97742857Y-31428571D01*
X97790476Y-31523809D01*
X97790476Y-31761904D01*
X97742857Y-31857142D01*
X97695238Y-31904761D01*
X97600000Y-31952380D01*
X97314285Y-31952380D01*
X97219047Y-31904761D01*
X97171428Y-31857142D01*
X107028571Y-31952380D02*
X106695238Y-31476190D01*
X106457142Y-31952380D02*
X106457142Y-30952380D01*
X106838095Y-30952380D01*
X106933333Y-31000000D01*
X106980952Y-31047619D01*
X107028571Y-31142857D01*
X107028571Y-31285714D01*
X106980952Y-31380952D01*
X106933333Y-31428571D01*
X106838095Y-31476190D01*
X106457142Y-31476190D01*
X107933333Y-31952380D02*
X107457142Y-31952380D01*
X107457142Y-30952380D01*
X108219047Y-31047619D02*
X108266666Y-31000000D01*
X108361904Y-30952380D01*
X108600000Y-30952380D01*
X108695238Y-31000000D01*
X108742857Y-31047619D01*
X108790476Y-31142857D01*
X108790476Y-31238095D01*
X108742857Y-31380952D01*
X108171428Y-31952380D01*
X108790476Y-31952380D01*
X118028571Y-31952380D02*
X117695238Y-31476190D01*
X117457142Y-31952380D02*
X117457142Y-30952380D01*
X117838095Y-30952380D01*
X117933333Y-31000000D01*
X117980952Y-31047619D01*
X118028571Y-31142857D01*
X118028571Y-31285714D01*
X117980952Y-31380952D01*
X117933333Y-31428571D01*
X117838095Y-31476190D01*
X117457142Y-31476190D01*
X118933333Y-31952380D02*
X118457142Y-31952380D01*
X118457142Y-30952380D01*
X119790476Y-31952380D02*
X119219047Y-31952380D01*
X119504761Y-31952380D02*
X119504761Y-30952380D01*
X119409523Y-31095238D01*
X119314285Y-31190476D01*
X119219047Y-31238095D01*
X116848095Y-104904761D02*
X116990952Y-104952380D01*
X117229047Y-104952380D01*
X117324285Y-104904761D01*
X117371904Y-104857142D01*
X117419523Y-104761904D01*
X117419523Y-104666666D01*
X117371904Y-104571428D01*
X117324285Y-104523809D01*
X117229047Y-104476190D01*
X117038571Y-104428571D01*
X116943333Y-104380952D01*
X116895714Y-104333333D01*
X116848095Y-104238095D01*
X116848095Y-104142857D01*
X116895714Y-104047619D01*
X116943333Y-104000000D01*
X117038571Y-103952380D01*
X117276666Y-103952380D01*
X117419523Y-104000000D01*
X118371904Y-104952380D02*
X117800476Y-104952380D01*
X118086190Y-104952380D02*
X118086190Y-103952380D01*
X117990952Y-104095238D01*
X117895714Y-104190476D01*
X117800476Y-104238095D01*
X116976428Y-126282857D02*
X117462142Y-126282857D01*
X117519285Y-126254285D01*
X117547857Y-126225714D01*
X117576428Y-126168571D01*
X117576428Y-126054285D01*
X117547857Y-125997142D01*
X117519285Y-125968571D01*
X117462142Y-125940000D01*
X116976428Y-125940000D01*
X117576428Y-125340000D02*
X117576428Y-125682857D01*
X117576428Y-125511428D02*
X116976428Y-125511428D01*
X117062142Y-125568571D01*
X117119285Y-125625714D01*
X117147857Y-125682857D01*
X117233571Y-124997142D02*
X117205000Y-125054285D01*
X117176428Y-125082857D01*
X117119285Y-125111428D01*
X117090714Y-125111428D01*
X117033571Y-125082857D01*
X117005000Y-125054285D01*
X116976428Y-124997142D01*
X116976428Y-124882857D01*
X117005000Y-124825714D01*
X117033571Y-124797142D01*
X117090714Y-124768571D01*
X117119285Y-124768571D01*
X117176428Y-124797142D01*
X117205000Y-124825714D01*
X117233571Y-124882857D01*
X117233571Y-124997142D01*
X117262142Y-125054285D01*
X117290714Y-125082857D01*
X117347857Y-125111428D01*
X117462142Y-125111428D01*
X117519285Y-125082857D01*
X117547857Y-125054285D01*
X117576428Y-124997142D01*
X117576428Y-124882857D01*
X117547857Y-124825714D01*
X117519285Y-124797142D01*
X117462142Y-124768571D01*
X117347857Y-124768571D01*
X117290714Y-124797142D01*
X117262142Y-124825714D01*
X117233571Y-124882857D01*
D15*
X59828571Y-116557142D02*
X59800000Y-116614285D01*
X59742857Y-116671428D01*
X59657142Y-116757142D01*
X59628571Y-116814285D01*
X59628571Y-116871428D01*
X59771428Y-116842857D02*
X59742857Y-116900000D01*
X59685714Y-116957142D01*
X59571428Y-116985714D01*
X59371428Y-116985714D01*
X59257142Y-116957142D01*
X59200000Y-116900000D01*
X59171428Y-116842857D01*
X59171428Y-116728571D01*
X59200000Y-116671428D01*
X59257142Y-116614285D01*
X59371428Y-116585714D01*
X59571428Y-116585714D01*
X59685714Y-116614285D01*
X59742857Y-116671428D01*
X59771428Y-116728571D01*
X59771428Y-116842857D01*
X59371428Y-116071428D02*
X59771428Y-116071428D01*
X59142857Y-116214285D02*
X59571428Y-116357142D01*
X59571428Y-115985714D01*
X61442857Y-118828571D02*
X61385714Y-118800000D01*
X61328571Y-118742857D01*
X61242857Y-118657142D01*
X61185714Y-118628571D01*
X61128571Y-118628571D01*
X61157142Y-118771428D02*
X61100000Y-118742857D01*
X61042857Y-118685714D01*
X61014285Y-118571428D01*
X61014285Y-118371428D01*
X61042857Y-118257142D01*
X61100000Y-118200000D01*
X61157142Y-118171428D01*
X61271428Y-118171428D01*
X61328571Y-118200000D01*
X61385714Y-118257142D01*
X61414285Y-118371428D01*
X61414285Y-118571428D01*
X61385714Y-118685714D01*
X61328571Y-118742857D01*
X61271428Y-118771428D01*
X61157142Y-118771428D01*
X61614285Y-118171428D02*
X61985714Y-118171428D01*
X61785714Y-118400000D01*
X61871428Y-118400000D01*
X61928571Y-118428571D01*
X61957142Y-118457142D01*
X61985714Y-118514285D01*
X61985714Y-118657142D01*
X61957142Y-118714285D01*
X61928571Y-118742857D01*
X61871428Y-118771428D01*
X61700000Y-118771428D01*
X61642857Y-118742857D01*
X61614285Y-118714285D01*
D10*
X146848095Y-164904761D02*
X146990952Y-164952380D01*
X147229047Y-164952380D01*
X147324285Y-164904761D01*
X147371904Y-164857142D01*
X147419523Y-164761904D01*
X147419523Y-164666666D01*
X147371904Y-164571428D01*
X147324285Y-164523809D01*
X147229047Y-164476190D01*
X147038571Y-164428571D01*
X146943333Y-164380952D01*
X146895714Y-164333333D01*
X146848095Y-164238095D01*
X146848095Y-164142857D01*
X146895714Y-164047619D01*
X146943333Y-164000000D01*
X147038571Y-163952380D01*
X147276666Y-163952380D01*
X147419523Y-164000000D01*
X147990952Y-164380952D02*
X147895714Y-164333333D01*
X147848095Y-164285714D01*
X147800476Y-164190476D01*
X147800476Y-164142857D01*
X147848095Y-164047619D01*
X147895714Y-164000000D01*
X147990952Y-163952380D01*
X148181428Y-163952380D01*
X148276666Y-164000000D01*
X148324285Y-164047619D01*
X148371904Y-164142857D01*
X148371904Y-164190476D01*
X148324285Y-164285714D01*
X148276666Y-164333333D01*
X148181428Y-164380952D01*
X147990952Y-164380952D01*
X147895714Y-164428571D01*
X147848095Y-164476190D01*
X147800476Y-164571428D01*
X147800476Y-164761904D01*
X147848095Y-164857142D01*
X147895714Y-164904761D01*
X147990952Y-164952380D01*
X148181428Y-164952380D01*
X148276666Y-164904761D01*
X148324285Y-164857142D01*
X148371904Y-164761904D01*
X148371904Y-164571428D01*
X148324285Y-164476190D01*
X148276666Y-164428571D01*
X148181428Y-164380952D01*
X116848095Y-164904761D02*
X116990952Y-164952380D01*
X117229047Y-164952380D01*
X117324285Y-164904761D01*
X117371904Y-164857142D01*
X117419523Y-164761904D01*
X117419523Y-164666666D01*
X117371904Y-164571428D01*
X117324285Y-164523809D01*
X117229047Y-164476190D01*
X117038571Y-164428571D01*
X116943333Y-164380952D01*
X116895714Y-164333333D01*
X116848095Y-164238095D01*
X116848095Y-164142857D01*
X116895714Y-164047619D01*
X116943333Y-164000000D01*
X117038571Y-163952380D01*
X117276666Y-163952380D01*
X117419523Y-164000000D01*
X117752857Y-163952380D02*
X118419523Y-163952380D01*
X117990952Y-164952380D01*
X86848095Y-164904761D02*
X86990952Y-164952380D01*
X87229047Y-164952380D01*
X87324285Y-164904761D01*
X87371904Y-164857142D01*
X87419523Y-164761904D01*
X87419523Y-164666666D01*
X87371904Y-164571428D01*
X87324285Y-164523809D01*
X87229047Y-164476190D01*
X87038571Y-164428571D01*
X86943333Y-164380952D01*
X86895714Y-164333333D01*
X86848095Y-164238095D01*
X86848095Y-164142857D01*
X86895714Y-164047619D01*
X86943333Y-164000000D01*
X87038571Y-163952380D01*
X87276666Y-163952380D01*
X87419523Y-164000000D01*
X88276666Y-163952380D02*
X88086190Y-163952380D01*
X87990952Y-164000000D01*
X87943333Y-164047619D01*
X87848095Y-164190476D01*
X87800476Y-164380952D01*
X87800476Y-164761904D01*
X87848095Y-164857142D01*
X87895714Y-164904761D01*
X87990952Y-164952380D01*
X88181428Y-164952380D01*
X88276666Y-164904761D01*
X88324285Y-164857142D01*
X88371904Y-164761904D01*
X88371904Y-164523809D01*
X88324285Y-164428571D01*
X88276666Y-164380952D01*
X88181428Y-164333333D01*
X87990952Y-164333333D01*
X87895714Y-164380952D01*
X87848095Y-164428571D01*
X87800476Y-164523809D01*
X146848095Y-134904761D02*
X146990952Y-134952380D01*
X147229047Y-134952380D01*
X147324285Y-134904761D01*
X147371904Y-134857142D01*
X147419523Y-134761904D01*
X147419523Y-134666666D01*
X147371904Y-134571428D01*
X147324285Y-134523809D01*
X147229047Y-134476190D01*
X147038571Y-134428571D01*
X146943333Y-134380952D01*
X146895714Y-134333333D01*
X146848095Y-134238095D01*
X146848095Y-134142857D01*
X146895714Y-134047619D01*
X146943333Y-134000000D01*
X147038571Y-133952380D01*
X147276666Y-133952380D01*
X147419523Y-134000000D01*
X148324285Y-133952380D02*
X147848095Y-133952380D01*
X147800476Y-134428571D01*
X147848095Y-134380952D01*
X147943333Y-134333333D01*
X148181428Y-134333333D01*
X148276666Y-134380952D01*
X148324285Y-134428571D01*
X148371904Y-134523809D01*
X148371904Y-134761904D01*
X148324285Y-134857142D01*
X148276666Y-134904761D01*
X148181428Y-134952380D01*
X147943333Y-134952380D01*
X147848095Y-134904761D01*
X147800476Y-134857142D01*
X116848095Y-134904761D02*
X116990952Y-134952380D01*
X117229047Y-134952380D01*
X117324285Y-134904761D01*
X117371904Y-134857142D01*
X117419523Y-134761904D01*
X117419523Y-134666666D01*
X117371904Y-134571428D01*
X117324285Y-134523809D01*
X117229047Y-134476190D01*
X117038571Y-134428571D01*
X116943333Y-134380952D01*
X116895714Y-134333333D01*
X116848095Y-134238095D01*
X116848095Y-134142857D01*
X116895714Y-134047619D01*
X116943333Y-134000000D01*
X117038571Y-133952380D01*
X117276666Y-133952380D01*
X117419523Y-134000000D01*
X118276666Y-134285714D02*
X118276666Y-134952380D01*
X118038571Y-133904761D02*
X117800476Y-134619047D01*
X118419523Y-134619047D01*
X86848095Y-134904761D02*
X86990952Y-134952380D01*
X87229047Y-134952380D01*
X87324285Y-134904761D01*
X87371904Y-134857142D01*
X87419523Y-134761904D01*
X87419523Y-134666666D01*
X87371904Y-134571428D01*
X87324285Y-134523809D01*
X87229047Y-134476190D01*
X87038571Y-134428571D01*
X86943333Y-134380952D01*
X86895714Y-134333333D01*
X86848095Y-134238095D01*
X86848095Y-134142857D01*
X86895714Y-134047619D01*
X86943333Y-134000000D01*
X87038571Y-133952380D01*
X87276666Y-133952380D01*
X87419523Y-134000000D01*
X87752857Y-133952380D02*
X88371904Y-133952380D01*
X88038571Y-134333333D01*
X88181428Y-134333333D01*
X88276666Y-134380952D01*
X88324285Y-134428571D01*
X88371904Y-134523809D01*
X88371904Y-134761904D01*
X88324285Y-134857142D01*
X88276666Y-134904761D01*
X88181428Y-134952380D01*
X87895714Y-134952380D01*
X87800476Y-134904761D01*
X87752857Y-134857142D01*
X146848095Y-104904761D02*
X146990952Y-104952380D01*
X147229047Y-104952380D01*
X147324285Y-104904761D01*
X147371904Y-104857142D01*
X147419523Y-104761904D01*
X147419523Y-104666666D01*
X147371904Y-104571428D01*
X147324285Y-104523809D01*
X147229047Y-104476190D01*
X147038571Y-104428571D01*
X146943333Y-104380952D01*
X146895714Y-104333333D01*
X146848095Y-104238095D01*
X146848095Y-104142857D01*
X146895714Y-104047619D01*
X146943333Y-104000000D01*
X147038571Y-103952380D01*
X147276666Y-103952380D01*
X147419523Y-104000000D01*
X147800476Y-104047619D02*
X147848095Y-104000000D01*
X147943333Y-103952380D01*
X148181428Y-103952380D01*
X148276666Y-104000000D01*
X148324285Y-104047619D01*
X148371904Y-104142857D01*
X148371904Y-104238095D01*
X148324285Y-104380952D01*
X147752857Y-104952380D01*
X148371904Y-104952380D01*
X86848095Y-104904761D02*
X86990952Y-104952380D01*
X87229047Y-104952380D01*
X87324285Y-104904761D01*
X87371904Y-104857142D01*
X87419523Y-104761904D01*
X87419523Y-104666666D01*
X87371904Y-104571428D01*
X87324285Y-104523809D01*
X87229047Y-104476190D01*
X87038571Y-104428571D01*
X86943333Y-104380952D01*
X86895714Y-104333333D01*
X86848095Y-104238095D01*
X86848095Y-104142857D01*
X86895714Y-104047619D01*
X86943333Y-104000000D01*
X87038571Y-103952380D01*
X87276666Y-103952380D01*
X87419523Y-104000000D01*
X88038571Y-103952380D02*
X88133809Y-103952380D01*
X88229047Y-104000000D01*
X88276666Y-104047619D01*
X88324285Y-104142857D01*
X88371904Y-104333333D01*
X88371904Y-104571428D01*
X88324285Y-104761904D01*
X88276666Y-104857142D01*
X88229047Y-104904761D01*
X88133809Y-104952380D01*
X88038571Y-104952380D01*
X87943333Y-104904761D01*
X87895714Y-104857142D01*
X87848095Y-104761904D01*
X87800476Y-104571428D01*
X87800476Y-104333333D01*
X87848095Y-104142857D01*
X87895714Y-104047619D01*
X87943333Y-104000000D01*
X88038571Y-103952380D01*
X91757142Y-78171428D02*
X91757142Y-78657142D01*
X91785714Y-78714285D01*
X91814285Y-78742857D01*
X91871428Y-78771428D01*
X91985714Y-78771428D01*
X92042857Y-78742857D01*
X92071428Y-78714285D01*
X92100000Y-78657142D01*
X92100000Y-78171428D01*
X92700000Y-78771428D02*
X92357142Y-78771428D01*
X92528571Y-78771428D02*
X92528571Y-78171428D01*
X92471428Y-78257142D01*
X92414285Y-78314285D01*
X92357142Y-78342857D01*
X93214285Y-78171428D02*
X93100000Y-78171428D01*
X93042857Y-78200000D01*
X93014285Y-78228571D01*
X92957142Y-78314285D01*
X92928571Y-78428571D01*
X92928571Y-78657142D01*
X92957142Y-78714285D01*
X92985714Y-78742857D01*
X93042857Y-78771428D01*
X93157142Y-78771428D01*
X93214285Y-78742857D01*
X93242857Y-78714285D01*
X93271428Y-78657142D01*
X93271428Y-78514285D01*
X93242857Y-78457142D01*
X93214285Y-78428571D01*
X93157142Y-78400000D01*
X93042857Y-78400000D01*
X92985714Y-78428571D01*
X92957142Y-78457142D01*
X92928571Y-78514285D01*
X132239862Y-47844948D02*
X132239862Y-48330662D01*
X132268434Y-48387805D01*
X132297005Y-48416377D01*
X132354148Y-48444948D01*
X132468434Y-48444948D01*
X132525577Y-48416377D01*
X132554148Y-48387805D01*
X132582720Y-48330662D01*
X132582720Y-47844948D01*
X133182720Y-48444948D02*
X132839862Y-48444948D01*
X133011291Y-48444948D02*
X133011291Y-47844948D01*
X132954148Y-47930662D01*
X132897005Y-47987805D01*
X132839862Y-48016377D01*
X133411291Y-47902091D02*
X133439862Y-47873520D01*
X133497005Y-47844948D01*
X133639862Y-47844948D01*
X133697005Y-47873520D01*
X133725577Y-47902091D01*
X133754148Y-47959234D01*
X133754148Y-48016377D01*
X133725577Y-48102091D01*
X133382720Y-48444948D01*
X133754148Y-48444948D01*
X136152380Y-42000000D02*
X136390476Y-42000000D01*
X136295238Y-42238095D02*
X136390476Y-42000000D01*
X136295238Y-41761904D01*
X136580952Y-42142857D02*
X136390476Y-42000000D01*
X136580952Y-41857142D01*
X143989862Y-47344948D02*
X143989862Y-47830662D01*
X144018434Y-47887805D01*
X144047005Y-47916377D01*
X144104148Y-47944948D01*
X144218434Y-47944948D01*
X144275577Y-47916377D01*
X144304148Y-47887805D01*
X144332720Y-47830662D01*
X144332720Y-47344948D01*
X144932720Y-47944948D02*
X144589862Y-47944948D01*
X144761291Y-47944948D02*
X144761291Y-47344948D01*
X144704148Y-47430662D01*
X144647005Y-47487805D01*
X144589862Y-47516377D01*
X145504148Y-47944948D02*
X145161291Y-47944948D01*
X145332720Y-47944948D02*
X145332720Y-47344948D01*
X145275577Y-47430662D01*
X145218434Y-47487805D01*
X145161291Y-47516377D01*
X148152380Y-42000000D02*
X148390476Y-42000000D01*
X148295238Y-42238095D02*
X148390476Y-42000000D01*
X148295238Y-41761904D01*
X148580952Y-42142857D02*
X148390476Y-42000000D01*
X148580952Y-41857142D01*
X71502857Y-55031428D02*
X71502857Y-55517142D01*
X71531428Y-55574285D01*
X71560000Y-55602857D01*
X71617142Y-55631428D01*
X71731428Y-55631428D01*
X71788571Y-55602857D01*
X71817142Y-55574285D01*
X71845714Y-55517142D01*
X71845714Y-55031428D01*
X72217142Y-55288571D02*
X72160000Y-55260000D01*
X72131428Y-55231428D01*
X72102857Y-55174285D01*
X72102857Y-55145714D01*
X72131428Y-55088571D01*
X72160000Y-55060000D01*
X72217142Y-55031428D01*
X72331428Y-55031428D01*
X72388571Y-55060000D01*
X72417142Y-55088571D01*
X72445714Y-55145714D01*
X72445714Y-55174285D01*
X72417142Y-55231428D01*
X72388571Y-55260000D01*
X72331428Y-55288571D01*
X72217142Y-55288571D01*
X72160000Y-55317142D01*
X72131428Y-55345714D01*
X72102857Y-55402857D01*
X72102857Y-55517142D01*
X72131428Y-55574285D01*
X72160000Y-55602857D01*
X72217142Y-55631428D01*
X72331428Y-55631428D01*
X72388571Y-55602857D01*
X72417142Y-55574285D01*
X72445714Y-55517142D01*
X72445714Y-55402857D01*
X72417142Y-55345714D01*
X72388571Y-55317142D01*
X72331428Y-55288571D01*
X79522857Y-55031428D02*
X79522857Y-55517142D01*
X79551428Y-55574285D01*
X79580000Y-55602857D01*
X79637142Y-55631428D01*
X79751428Y-55631428D01*
X79808571Y-55602857D01*
X79837142Y-55574285D01*
X79865714Y-55517142D01*
X79865714Y-55031428D01*
X80094285Y-55031428D02*
X80494285Y-55031428D01*
X80237142Y-55631428D01*
X87582857Y-54991428D02*
X87582857Y-55477142D01*
X87611428Y-55534285D01*
X87640000Y-55562857D01*
X87697142Y-55591428D01*
X87811428Y-55591428D01*
X87868571Y-55562857D01*
X87897142Y-55534285D01*
X87925714Y-55477142D01*
X87925714Y-54991428D01*
X88468571Y-54991428D02*
X88354285Y-54991428D01*
X88297142Y-55020000D01*
X88268571Y-55048571D01*
X88211428Y-55134285D01*
X88182857Y-55248571D01*
X88182857Y-55477142D01*
X88211428Y-55534285D01*
X88240000Y-55562857D01*
X88297142Y-55591428D01*
X88411428Y-55591428D01*
X88468571Y-55562857D01*
X88497142Y-55534285D01*
X88525714Y-55477142D01*
X88525714Y-55334285D01*
X88497142Y-55277142D01*
X88468571Y-55248571D01*
X88411428Y-55220000D01*
X88297142Y-55220000D01*
X88240000Y-55248571D01*
X88211428Y-55277142D01*
X88182857Y-55334285D01*
X95832857Y-55081428D02*
X95832857Y-55567142D01*
X95861428Y-55624285D01*
X95890000Y-55652857D01*
X95947142Y-55681428D01*
X96061428Y-55681428D01*
X96118571Y-55652857D01*
X96147142Y-55624285D01*
X96175714Y-55567142D01*
X96175714Y-55081428D01*
X96747142Y-55081428D02*
X96461428Y-55081428D01*
X96432857Y-55367142D01*
X96461428Y-55338571D01*
X96518571Y-55310000D01*
X96661428Y-55310000D01*
X96718571Y-55338571D01*
X96747142Y-55367142D01*
X96775714Y-55424285D01*
X96775714Y-55567142D01*
X96747142Y-55624285D01*
X96718571Y-55652857D01*
X96661428Y-55681428D01*
X96518571Y-55681428D01*
X96461428Y-55652857D01*
X96432857Y-55624285D01*
X103572857Y-55121428D02*
X103572857Y-55607142D01*
X103601428Y-55664285D01*
X103630000Y-55692857D01*
X103687142Y-55721428D01*
X103801428Y-55721428D01*
X103858571Y-55692857D01*
X103887142Y-55664285D01*
X103915714Y-55607142D01*
X103915714Y-55121428D01*
X104458571Y-55321428D02*
X104458571Y-55721428D01*
X104315714Y-55092857D02*
X104172857Y-55521428D01*
X104544285Y-55521428D01*
X111492857Y-54981428D02*
X111492857Y-55467142D01*
X111521428Y-55524285D01*
X111550000Y-55552857D01*
X111607142Y-55581428D01*
X111721428Y-55581428D01*
X111778571Y-55552857D01*
X111807142Y-55524285D01*
X111835714Y-55467142D01*
X111835714Y-54981428D01*
X112064285Y-54981428D02*
X112435714Y-54981428D01*
X112235714Y-55210000D01*
X112321428Y-55210000D01*
X112378571Y-55238571D01*
X112407142Y-55267142D01*
X112435714Y-55324285D01*
X112435714Y-55467142D01*
X112407142Y-55524285D01*
X112378571Y-55552857D01*
X112321428Y-55581428D01*
X112150000Y-55581428D01*
X112092857Y-55552857D01*
X112064285Y-55524285D01*
D16*
X55571428Y-84500000D02*
X56000000Y-84500000D01*
X56085714Y-84528571D01*
X56142857Y-84585714D01*
X56171428Y-84671428D01*
X56171428Y-84728571D01*
X56171428Y-84214285D02*
X55571428Y-84214285D01*
X55571428Y-83985714D01*
X55600000Y-83928571D01*
X55628571Y-83900000D01*
X55685714Y-83871428D01*
X55771428Y-83871428D01*
X55828571Y-83900000D01*
X55857142Y-83928571D01*
X55885714Y-83985714D01*
X55885714Y-84214285D01*
X55771428Y-83357142D02*
X56171428Y-83357142D01*
X55542857Y-83500000D02*
X55971428Y-83642857D01*
X55971428Y-83271428D01*
D10*
X116382380Y-77072857D02*
X115906190Y-77406190D01*
X116382380Y-77644285D02*
X115382380Y-77644285D01*
X115382380Y-77263333D01*
X115430000Y-77168095D01*
X115477619Y-77120476D01*
X115572857Y-77072857D01*
X115715714Y-77072857D01*
X115810952Y-77120476D01*
X115858571Y-77168095D01*
X115906190Y-77263333D01*
X115906190Y-77644285D01*
X115382380Y-76168095D02*
X115382380Y-76644285D01*
X115858571Y-76691904D01*
X115810952Y-76644285D01*
X115763333Y-76549047D01*
X115763333Y-76310952D01*
X115810952Y-76215714D01*
X115858571Y-76168095D01*
X115953809Y-76120476D01*
X116191904Y-76120476D01*
X116287142Y-76168095D01*
X116334761Y-76215714D01*
X116382380Y-76310952D01*
X116382380Y-76549047D01*
X116334761Y-76644285D01*
X116287142Y-76691904D01*
X115715714Y-75263333D02*
X116382380Y-75263333D01*
X115334761Y-75501428D02*
X116049047Y-75739523D01*
X116049047Y-75120476D01*
X110262380Y-70654285D02*
X109262380Y-70654285D01*
X109262380Y-70416190D01*
X109310000Y-70273333D01*
X109405238Y-70178095D01*
X109500476Y-70130476D01*
X109690952Y-70082857D01*
X109833809Y-70082857D01*
X110024285Y-70130476D01*
X110119523Y-70178095D01*
X110214761Y-70273333D01*
X110262380Y-70416190D01*
X110262380Y-70654285D01*
X110262380Y-69130476D02*
X110262380Y-69701904D01*
X110262380Y-69416190D02*
X109262380Y-69416190D01*
X109405238Y-69511428D01*
X109500476Y-69606666D01*
X109548095Y-69701904D01*
X109262380Y-68511428D02*
X109262380Y-68416190D01*
X109310000Y-68320952D01*
X109357619Y-68273333D01*
X109452857Y-68225714D01*
X109643333Y-68178095D01*
X109881428Y-68178095D01*
X110071904Y-68225714D01*
X110167142Y-68273333D01*
X110214761Y-68320952D01*
X110262380Y-68416190D01*
X110262380Y-68511428D01*
X110214761Y-68606666D01*
X110167142Y-68654285D01*
X110071904Y-68701904D01*
X109881428Y-68749523D01*
X109643333Y-68749523D01*
X109452857Y-68701904D01*
X109357619Y-68654285D01*
X109310000Y-68606666D01*
X109262380Y-68511428D01*
X109721904Y-127622380D02*
X109721904Y-126622380D01*
X109960000Y-126622380D01*
X110102857Y-126670000D01*
X110198095Y-126765238D01*
X110245714Y-126860476D01*
X110293333Y-127050952D01*
X110293333Y-127193809D01*
X110245714Y-127384285D01*
X110198095Y-127479523D01*
X110102857Y-127574761D01*
X109960000Y-127622380D01*
X109721904Y-127622380D01*
X110864761Y-127050952D02*
X110769523Y-127003333D01*
X110721904Y-126955714D01*
X110674285Y-126860476D01*
X110674285Y-126812857D01*
X110721904Y-126717619D01*
X110769523Y-126670000D01*
X110864761Y-126622380D01*
X111055238Y-126622380D01*
X111150476Y-126670000D01*
X111198095Y-126717619D01*
X111245714Y-126812857D01*
X111245714Y-126860476D01*
X111198095Y-126955714D01*
X111150476Y-127003333D01*
X111055238Y-127050952D01*
X110864761Y-127050952D01*
X110769523Y-127098571D01*
X110721904Y-127146190D01*
X110674285Y-127241428D01*
X110674285Y-127431904D01*
X110721904Y-127527142D01*
X110769523Y-127574761D01*
X110864761Y-127622380D01*
X111055238Y-127622380D01*
X111150476Y-127574761D01*
X111198095Y-127527142D01*
X111245714Y-127431904D01*
X111245714Y-127241428D01*
X111198095Y-127146190D01*
X111150476Y-127098571D01*
X111055238Y-127050952D01*
X114852380Y-92308095D02*
X113852380Y-92308095D01*
X113852380Y-92070000D01*
X113900000Y-91927142D01*
X113995238Y-91831904D01*
X114090476Y-91784285D01*
X114280952Y-91736666D01*
X114423809Y-91736666D01*
X114614285Y-91784285D01*
X114709523Y-91831904D01*
X114804761Y-91927142D01*
X114852380Y-92070000D01*
X114852380Y-92308095D01*
X114852380Y-91260476D02*
X114852380Y-91070000D01*
X114804761Y-90974761D01*
X114757142Y-90927142D01*
X114614285Y-90831904D01*
X114423809Y-90784285D01*
X114042857Y-90784285D01*
X113947619Y-90831904D01*
X113900000Y-90879523D01*
X113852380Y-90974761D01*
X113852380Y-91165238D01*
X113900000Y-91260476D01*
X113947619Y-91308095D01*
X114042857Y-91355714D01*
X114280952Y-91355714D01*
X114376190Y-91308095D01*
X114423809Y-91260476D01*
X114471428Y-91165238D01*
X114471428Y-90974761D01*
X114423809Y-90879523D01*
X114376190Y-90831904D01*
X114280952Y-90784285D01*
X78542380Y-129604285D02*
X77542380Y-129604285D01*
X77542380Y-129366190D01*
X77590000Y-129223333D01*
X77685238Y-129128095D01*
X77780476Y-129080476D01*
X77970952Y-129032857D01*
X78113809Y-129032857D01*
X78304285Y-129080476D01*
X78399523Y-129128095D01*
X78494761Y-129223333D01*
X78542380Y-129366190D01*
X78542380Y-129604285D01*
X78542380Y-128080476D02*
X78542380Y-128651904D01*
X78542380Y-128366190D02*
X77542380Y-128366190D01*
X77685238Y-128461428D01*
X77780476Y-128556666D01*
X77828095Y-128651904D01*
X78542380Y-127128095D02*
X78542380Y-127699523D01*
X78542380Y-127413809D02*
X77542380Y-127413809D01*
X77685238Y-127509047D01*
X77780476Y-127604285D01*
X77828095Y-127699523D01*
X109497142Y-126042380D02*
X109163809Y-125566190D01*
X108925714Y-126042380D02*
X108925714Y-125042380D01*
X109306666Y-125042380D01*
X109401904Y-125090000D01*
X109449523Y-125137619D01*
X109497142Y-125232857D01*
X109497142Y-125375714D01*
X109449523Y-125470952D01*
X109401904Y-125518571D01*
X109306666Y-125566190D01*
X108925714Y-125566190D01*
X109878095Y-125137619D02*
X109925714Y-125090000D01*
X110020952Y-125042380D01*
X110259047Y-125042380D01*
X110354285Y-125090000D01*
X110401904Y-125137619D01*
X110449523Y-125232857D01*
X110449523Y-125328095D01*
X110401904Y-125470952D01*
X109830476Y-126042380D01*
X110449523Y-126042380D01*
X111306666Y-125375714D02*
X111306666Y-126042380D01*
X111068571Y-124994761D02*
X110830476Y-125709047D01*
X111449523Y-125709047D01*
X110227142Y-89982380D02*
X109893809Y-89506190D01*
X109655714Y-89982380D02*
X109655714Y-88982380D01*
X110036666Y-88982380D01*
X110131904Y-89030000D01*
X110179523Y-89077619D01*
X110227142Y-89172857D01*
X110227142Y-89315714D01*
X110179523Y-89410952D01*
X110131904Y-89458571D01*
X110036666Y-89506190D01*
X109655714Y-89506190D01*
X110608095Y-89077619D02*
X110655714Y-89030000D01*
X110750952Y-88982380D01*
X110989047Y-88982380D01*
X111084285Y-89030000D01*
X111131904Y-89077619D01*
X111179523Y-89172857D01*
X111179523Y-89268095D01*
X111131904Y-89410952D01*
X110560476Y-89982380D01*
X111179523Y-89982380D01*
X112084285Y-88982380D02*
X111608095Y-88982380D01*
X111560476Y-89458571D01*
X111608095Y-89410952D01*
X111703333Y-89363333D01*
X111941428Y-89363333D01*
X112036666Y-89410952D01*
X112084285Y-89458571D01*
X112131904Y-89553809D01*
X112131904Y-89791904D01*
X112084285Y-89887142D01*
X112036666Y-89934761D01*
X111941428Y-89982380D01*
X111703333Y-89982380D01*
X111608095Y-89934761D01*
X111560476Y-89887142D01*
X78822380Y-125622857D02*
X78346190Y-125956190D01*
X78822380Y-126194285D02*
X77822380Y-126194285D01*
X77822380Y-125813333D01*
X77870000Y-125718095D01*
X77917619Y-125670476D01*
X78012857Y-125622857D01*
X78155714Y-125622857D01*
X78250952Y-125670476D01*
X78298571Y-125718095D01*
X78346190Y-125813333D01*
X78346190Y-126194285D01*
X77822380Y-124718095D02*
X77822380Y-125194285D01*
X78298571Y-125241904D01*
X78250952Y-125194285D01*
X78203333Y-125099047D01*
X78203333Y-124860952D01*
X78250952Y-124765714D01*
X78298571Y-124718095D01*
X78393809Y-124670476D01*
X78631904Y-124670476D01*
X78727142Y-124718095D01*
X78774761Y-124765714D01*
X78822380Y-124860952D01*
X78822380Y-125099047D01*
X78774761Y-125194285D01*
X78727142Y-125241904D01*
X77822380Y-123765714D02*
X77822380Y-124241904D01*
X78298571Y-124289523D01*
X78250952Y-124241904D01*
X78203333Y-124146666D01*
X78203333Y-123908571D01*
X78250952Y-123813333D01*
X78298571Y-123765714D01*
X78393809Y-123718095D01*
X78631904Y-123718095D01*
X78727142Y-123765714D01*
X78774761Y-123813333D01*
X78822380Y-123908571D01*
X78822380Y-124146666D01*
X78774761Y-124241904D01*
X78727142Y-124289523D01*
X165418571Y-33552380D02*
X165085238Y-33076190D01*
X164847142Y-33552380D02*
X164847142Y-32552380D01*
X165228095Y-32552380D01*
X165323333Y-32600000D01*
X165370952Y-32647619D01*
X165418571Y-32742857D01*
X165418571Y-32885714D01*
X165370952Y-32980952D01*
X165323333Y-33028571D01*
X165228095Y-33076190D01*
X164847142Y-33076190D01*
X166323333Y-33552380D02*
X165847142Y-33552380D01*
X165847142Y-32552380D01*
X166704285Y-33552380D02*
X166894761Y-33552380D01*
X166990000Y-33504761D01*
X167037619Y-33457142D01*
X167132857Y-33314285D01*
X167180476Y-33123809D01*
X167180476Y-32742857D01*
X167132857Y-32647619D01*
X167085238Y-32600000D01*
X166990000Y-32552380D01*
X166799523Y-32552380D01*
X166704285Y-32600000D01*
X166656666Y-32647619D01*
X166609047Y-32742857D01*
X166609047Y-32980952D01*
X166656666Y-33076190D01*
X166704285Y-33123809D01*
X166799523Y-33171428D01*
X166990000Y-33171428D01*
X167085238Y-33123809D01*
X167132857Y-33076190D01*
X167180476Y-32980952D01*
X178932380Y-33462380D02*
X178599047Y-32986190D01*
X178360952Y-33462380D02*
X178360952Y-32462380D01*
X178741904Y-32462380D01*
X178837142Y-32510000D01*
X178884761Y-32557619D01*
X178932380Y-32652857D01*
X178932380Y-32795714D01*
X178884761Y-32890952D01*
X178837142Y-32938571D01*
X178741904Y-32986190D01*
X178360952Y-32986190D01*
X179837142Y-33462380D02*
X179360952Y-33462380D01*
X179360952Y-32462380D01*
X180694285Y-33462380D02*
X180122857Y-33462380D01*
X180408571Y-33462380D02*
X180408571Y-32462380D01*
X180313333Y-32605238D01*
X180218095Y-32700476D01*
X180122857Y-32748095D01*
X181313333Y-32462380D02*
X181408571Y-32462380D01*
X181503809Y-32510000D01*
X181551428Y-32557619D01*
X181599047Y-32652857D01*
X181646666Y-32843333D01*
X181646666Y-33081428D01*
X181599047Y-33271904D01*
X181551428Y-33367142D01*
X181503809Y-33414761D01*
X181408571Y-33462380D01*
X181313333Y-33462380D01*
X181218095Y-33414761D01*
X181170476Y-33367142D01*
X181122857Y-33271904D01*
X181075238Y-33081428D01*
X181075238Y-32843333D01*
X181122857Y-32652857D01*
X181170476Y-32557619D01*
X181218095Y-32510000D01*
X181313333Y-32462380D01*
X156239862Y-47844948D02*
X156239862Y-48330662D01*
X156268434Y-48387805D01*
X156297005Y-48416377D01*
X156354148Y-48444948D01*
X156468434Y-48444948D01*
X156525577Y-48416377D01*
X156554148Y-48387805D01*
X156582720Y-48330662D01*
X156582720Y-47844948D01*
X157182720Y-48444948D02*
X156839862Y-48444948D01*
X157011291Y-48444948D02*
X157011291Y-47844948D01*
X156954148Y-47930662D01*
X156897005Y-47987805D01*
X156839862Y-48016377D01*
X157468434Y-48444948D02*
X157582720Y-48444948D01*
X157639862Y-48416377D01*
X157668434Y-48387805D01*
X157725577Y-48302091D01*
X157754148Y-48187805D01*
X157754148Y-47959234D01*
X157725577Y-47902091D01*
X157697005Y-47873520D01*
X157639862Y-47844948D01*
X157525577Y-47844948D01*
X157468434Y-47873520D01*
X157439862Y-47902091D01*
X157411291Y-47959234D01*
X157411291Y-48102091D01*
X157439862Y-48159234D01*
X157468434Y-48187805D01*
X157525577Y-48216377D01*
X157639862Y-48216377D01*
X157697005Y-48187805D01*
X157725577Y-48159234D01*
X157754148Y-48102091D01*
X160152380Y-42000000D02*
X160390476Y-42000000D01*
X160295238Y-42238095D02*
X160390476Y-42000000D01*
X160295238Y-41761904D01*
X160580952Y-42142857D02*
X160390476Y-42000000D01*
X160580952Y-41857142D01*
X168239862Y-47844948D02*
X168239862Y-48330662D01*
X168268434Y-48387805D01*
X168297005Y-48416377D01*
X168354148Y-48444948D01*
X168468434Y-48444948D01*
X168525577Y-48416377D01*
X168554148Y-48387805D01*
X168582720Y-48330662D01*
X168582720Y-47844948D01*
X168839862Y-47902091D02*
X168868434Y-47873520D01*
X168925577Y-47844948D01*
X169068434Y-47844948D01*
X169125577Y-47873520D01*
X169154148Y-47902091D01*
X169182720Y-47959234D01*
X169182720Y-48016377D01*
X169154148Y-48102091D01*
X168811291Y-48444948D01*
X169182720Y-48444948D01*
X169554148Y-47844948D02*
X169611291Y-47844948D01*
X169668434Y-47873520D01*
X169697005Y-47902091D01*
X169725577Y-47959234D01*
X169754148Y-48073520D01*
X169754148Y-48216377D01*
X169725577Y-48330662D01*
X169697005Y-48387805D01*
X169668434Y-48416377D01*
X169611291Y-48444948D01*
X169554148Y-48444948D01*
X169497005Y-48416377D01*
X169468434Y-48387805D01*
X169439862Y-48330662D01*
X169411291Y-48216377D01*
X169411291Y-48073520D01*
X169439862Y-47959234D01*
X169468434Y-47902091D01*
X169497005Y-47873520D01*
X169554148Y-47844948D01*
X172152380Y-42000000D02*
X172390476Y-42000000D01*
X172295238Y-42238095D02*
X172390476Y-42000000D01*
X172295238Y-41761904D01*
X172580952Y-42142857D02*
X172390476Y-42000000D01*
X172580952Y-41857142D01*
X185316666Y-76352380D02*
X185316666Y-77066666D01*
X185269047Y-77209523D01*
X185173809Y-77304761D01*
X185030952Y-77352380D01*
X184935714Y-77352380D01*
X185697619Y-76352380D02*
X186316666Y-76352380D01*
X185983333Y-76733333D01*
X186126190Y-76733333D01*
X186221428Y-76780952D01*
X186269047Y-76828571D01*
X186316666Y-76923809D01*
X186316666Y-77161904D01*
X186269047Y-77257142D01*
X186221428Y-77304761D01*
X186126190Y-77352380D01*
X185840476Y-77352380D01*
X185745238Y-77304761D01*
X185697619Y-77257142D01*
X95184761Y-67373333D02*
X95232380Y-67230476D01*
X95232380Y-66992380D01*
X95184761Y-66897142D01*
X95137142Y-66849523D01*
X95041904Y-66801904D01*
X94946666Y-66801904D01*
X94851428Y-66849523D01*
X94803809Y-66897142D01*
X94756190Y-66992380D01*
X94708571Y-67182857D01*
X94660952Y-67278095D01*
X94613333Y-67325714D01*
X94518095Y-67373333D01*
X94422857Y-67373333D01*
X94327619Y-67325714D01*
X94280000Y-67278095D01*
X94232380Y-67182857D01*
X94232380Y-66944761D01*
X94280000Y-66801904D01*
X94232380Y-66468571D02*
X95232380Y-66230476D01*
X94518095Y-66040000D01*
X95232380Y-65849523D01*
X94232380Y-65611428D01*
X95232380Y-64706666D02*
X95232380Y-65278095D01*
X95232380Y-64992380D02*
X94232380Y-64992380D01*
X94375238Y-65087619D01*
X94470476Y-65182857D01*
X94518095Y-65278095D01*
M02*
