M48
; DRILL file {KiCad 5.1.5-52549c5~86~ubuntu16.04.1} date Sat 23 May 2020 02:00:12 PM -05
; FORMAT={-:-/ absolute / inch / decimal}
; #@! TF.CreationDate,2020-05-23T14:00:12-05:00
; #@! TF.GenerationSoftware,Kicad,Pcbnew,5.1.5-52549c5~86~ubuntu16.04.1
; #@! TF.FileFunction,Plated,1,4,PTH
FMAT,2
INCH
T1C0.0118
T2C0.0157
T3C0.0197
T4C0.0315
T5C0.0394
T6C0.0472
T7C0.0551
T8C0.0709
%
G90
G05
T1
X2.4508Y-4.5866
X2.5394Y-3.563
X2.5727Y-3.621
X2.7362Y-3.4646
X2.7362Y-3.4941
X2.7362Y-3.5236
X2.7362Y-3.5531
X2.7362Y-3.5827
X2.7362Y-3.6122
X2.7476Y-3.3348
X2.7476Y-3.3648
X2.7476Y-3.3973
X2.7476Y-3.4273
X2.7476Y-3.6698
X2.7476Y-3.6998
X2.7476Y-3.7298
X2.7476Y-3.7598
X2.7657Y-3.4646
X2.7657Y-3.4941
X2.7657Y-3.5236
X2.7657Y-3.5531
X2.7657Y-3.5827
X2.7657Y-3.6122
X2.7776Y-3.6698
X2.7776Y-3.6998
X2.7776Y-3.7298
X2.7776Y-3.7598
X2.7801Y-3.3348
X2.7801Y-3.3648
X2.7801Y-3.3973
X2.7801Y-3.4273
X2.7953Y-3.4646
X2.7953Y-3.4941
X2.7953Y-3.5236
X2.7953Y-3.5531
X2.7953Y-3.5827
X2.7953Y-3.6122
X2.8076Y-3.6698
X2.8076Y-3.6998
X2.8076Y-3.7298
X2.8076Y-3.7598
X2.8126Y-3.3348
X2.8126Y-3.3648
X2.8126Y-3.3973
X2.8126Y-3.4273
X2.815Y-4.7638
X2.8248Y-3.4646
X2.8248Y-3.4941
X2.8248Y-3.5236
X2.8248Y-3.5531
X2.8248Y-3.5827
X2.8248Y-3.6122
X2.8543Y-3.4646
X2.8543Y-3.4941
X2.8543Y-3.5236
X2.8543Y-3.5531
X2.8543Y-3.5827
X2.8543Y-3.6122
X2.8543Y-4.7638
X2.8543Y-4.8031
X2.8551Y-3.3348
X2.8551Y-3.3648
X2.8551Y-3.3973
X2.8551Y-3.4273
X2.8576Y-3.6698
X2.8576Y-3.6998
X2.8576Y-3.7298
X2.8576Y-3.7598
X2.8839Y-3.4646
X2.8839Y-3.4941
X2.8839Y-3.5236
X2.8839Y-3.5531
X2.8839Y-3.5827
X2.8839Y-3.6122
X2.8851Y-3.3348
X2.8851Y-3.3648
X2.8851Y-3.3973
X2.8851Y-3.4273
X2.8876Y-3.6698
X2.8876Y-3.6998
X2.8876Y-3.7298
X2.8876Y-3.7598
X2.8937Y-4.7638
X2.8937Y-4.8031
X2.9134Y-3.4646
X2.9134Y-3.4941
X2.9134Y-3.5236
X2.9134Y-3.5531
X2.9134Y-3.5827
X2.9134Y-3.6122
X2.9151Y-3.3348
X2.9151Y-3.3648
X2.9151Y-3.3973
X2.9151Y-3.4273
X2.9176Y-3.6698
X2.9176Y-3.6998
X2.9176Y-3.7298
X2.9176Y-3.7598
X2.9331Y-4.8031
X2.9429Y-3.4646
X3.0858Y-3.4241
X3.0882Y-3.6673
X3.1004Y-3.4823
X3.1152Y-3.5482
X3.1181Y-3.428
X3.1255Y-3.7762
X3.2048Y-3.5952
X3.2134Y-3.6299
X3.2255Y-3.5714
X3.2291Y-3.5402
X3.3992Y-4.0823
X3.6791Y-3.0496
X4.6032Y-2.8792
X4.6457Y-2.3633
X4.6457Y-2.4016
X4.6457Y-2.8543
X4.7244Y-3.0118
X4.7551Y-3.811
X4.7981Y-5.2313
X4.7981Y-5.3039
X4.8268Y-3.8031
X4.8344Y-5.1173
X4.8378Y-3.9287
X4.8423Y-5.274
X4.8575Y-3.8099
X4.8787Y-5.1941
X4.922Y-4.9664
X4.9844Y-5.0941
X4.9967Y-5.0135
X5.0205Y-4.9693
X5.0358Y-5.0819
X5.1543Y-4.6701
X5.2378Y-4.0882
X5.2709Y-5.7882
X5.2823Y-4.6583
X5.3346Y-3.2677
X6.2795Y-4.0157
X6.3661Y-3.9961
X6.3872Y-3.849
X6.4134Y-3.9362
X6.4606Y-4.248
X6.4843Y-3.9134
X6.4882Y-4.1378
X6.6142Y-3.9961
X6.6732Y-4.1535
X6.6753Y-4.0966
T2
X2.1063Y-1.752
X2.1063Y-1.7913
X2.1063Y-1.8307
X2.126Y-3.9764
X2.126Y-4.0157
X2.1654Y-1.752
X2.1654Y-1.7913
X2.1654Y-1.8307
X2.1654Y-4.0157
X2.2638Y-2.4606
X2.2638Y-2.5
X2.3031Y-2.4606
X2.3031Y-2.5
X2.3228Y-4.0157
X2.3228Y-4.4685
X2.3327Y-4.8228
X2.3622Y-2.874
X2.3622Y-2.9134
X2.3622Y-2.9528
X2.3622Y-2.9921
X2.3622Y-3.0315
X2.3622Y-4.0157
X2.3819Y-4.8228
X2.4016Y-2.874
X2.4016Y-2.9134
X2.4016Y-2.9528
X2.4016Y-2.9921
X2.4016Y-3.0315
X2.4213Y-4.0354
X2.4311Y-4.5079
X2.4311Y-4.8228
X2.4546Y-3.4925
X2.4606Y-2.4606
X2.4606Y-2.5
X2.4606Y-3.0906
X2.4803Y-4.8228
X2.5Y-2.4606
X2.5Y-2.5
X2.5Y-4.5276
X2.5Y-4.5669
X2.5Y-4.6063
X2.5Y-4.6457
X2.5295Y-4.8228
X2.5394Y-4.5079
X2.5394Y-4.5472
X2.5394Y-4.5866
X2.5394Y-4.626
X2.5787Y-4.4882
X2.5787Y-4.5276
X2.5787Y-4.5669
X2.5787Y-4.6063
X2.5787Y-4.8228
X2.6969Y-4.7638
X2.7657Y-4.9409
X2.7657Y-4.9902
X2.7657Y-5.0492
X2.8051Y-4.5079
X2.8543Y-4.4882
X2.8543Y-4.8622
X2.8917Y-2.2697
X2.8937Y-4.4882
X2.8937Y-4.5276
X2.8937Y-4.5669
X2.8937Y-4.6063
X2.8937Y-4.6457
X2.8937Y-4.685
X2.9187Y-3.1205
X2.9187Y-3.983
X2.9331Y-4.4882
X2.9462Y-3.9555
X2.9487Y-3.1505
X2.9528Y-4.5276
X2.9724Y-4.4882
X2.9724Y-4.6457
X2.9724Y-4.8622
X3.0512Y-5.4134
X3.1102Y-3.0709
X3.1102Y-3.2283
X3.1102Y-3.2677
X3.1299Y-4.4882
X3.1299Y-4.5276
X3.1496Y-3.2283
X3.1496Y-3.2677
X3.1689Y-3.715
X3.1693Y-4.0551
X3.1693Y-4.0945
X3.1693Y-4.1339
X3.1693Y-4.1732
X3.1693Y-4.2126
X3.1693Y-4.4685
X3.1693Y-4.5079
X3.1693Y-4.5472
X3.1823Y-2.2642
X3.189Y-2.9331
X3.189Y-3.1496
X3.2087Y-2.6772
X3.2087Y-4.4291
X3.2087Y-4.4685
X3.2087Y-4.5079
X3.2087Y-4.5472
X3.2087Y-4.5866
X3.2087Y-4.626
X3.2281Y-3.5047
X3.248Y-5.4134
X3.248Y-5.8071
X3.3465Y-3.0315
X3.3465Y-4.0157
X3.3531Y-2.9807
X3.3713Y-3.3902
X3.4055Y-4.252
X3.4055Y-5.1378
X3.4055Y-5.4331
X3.4055Y-6.3189
X3.4252Y-6.6142
X3.4335Y-3.6895
X3.4769Y-3.6945
X3.4843Y-3.563
X3.511Y-2.2654
X3.521Y-4.4022
X3.5325Y-3.7111
X3.5827Y-3.7205
X3.6024Y-4.3898
X3.6475Y-3.7463
X3.7205Y-4.4882
X3.7402Y-2.6575
X3.7402Y-2.7559
X3.7402Y-2.8543
X3.7402Y-2.8957
X3.7409Y-3.0505
X3.7559Y-4.0949
X3.7697Y-6.4996
X3.7709Y-5.278
X3.7961Y-6.3157
X3.8026Y-5.4091
X3.8051Y-4.1051
X3.8142Y-5.1957
X3.8205Y-2.2661
X3.8441Y-6.302
X3.874Y-4.1126
X3.8878Y-4.1677
X3.889Y-5.3228
X3.9051Y-6.2437
X3.9567Y-3.9173
X3.9567Y-5.1181
X3.9567Y-6.2992
X3.9815Y-5.3185
X3.9909Y-6.2417
X3.9917Y-4.2807
X4.0Y-4.1386
X4.0807Y-6.2378
X4.0827Y-5.3209
X4.0921Y-4.2791
X4.1059Y-4.1181
X4.1346Y-2.2657
X4.1634Y-4.626
X4.1929Y-4.4291
X4.2126Y-4.4685
X4.2336Y-4.4016
X4.2717Y-4.2913
X4.3307Y-3.878
X4.3701Y-3.878
X4.3902Y-3.0035
X4.3945Y-5.2189
X4.3945Y-5.3307
X4.4291Y-3.0906
X4.4335Y-2.2894
X4.4685Y-3.0906
X4.5207Y-3.6748
X4.5276Y-3.878
X4.5295Y-5.2055
X4.5327Y-3.2264
X4.5356Y-3.1375
X4.5409Y-3.4598
X4.5434Y-3.4045
X4.5472Y-3.3268
X4.5669Y-3.878
X4.5669Y-4.252
X4.5669Y-5.4331
X4.5695Y-3.979
X4.5827Y-3.4022
X4.5866Y-6.1811
X4.6043Y-3.2271
X4.6047Y-5.2354
X4.6063Y-4.0551
X4.6128Y-3.4276
X4.6235Y-2.9735
X4.6358Y-4.7736
X4.6492Y-4.8295
X4.6563Y-5.2878
X4.676Y-3.2929
X4.6799Y-4.9507
X4.6799Y-5.1748
X4.685Y-2.4409
X4.685Y-3.0315
X4.6969Y-3.2421
X4.7244Y-4.5669
X4.7416Y-3.7024
X4.7441Y-4.7835
X4.7531Y-3.3437
X4.7638Y-6.1614
X4.7847Y-4.6665
X4.7858Y-4.5772
X4.789Y-5.4453
X4.7929Y-5.1169
X4.7933Y-3.3346
X4.7933Y-4.0748
X4.8004Y-3.9232
X4.8031Y-3.7598
X4.8031Y-5.0197
X4.8268Y-4.8535
X4.8288Y-5.2136
X4.8303Y-3.4579
X4.842Y-5.0192
X4.8732Y-5.0457
X4.8819Y-4.7835
X4.9181Y-3.4953
X4.9213Y-4.0748
X4.9236Y-5.4772
X4.9378Y-6.4843
X4.939Y-3.202
X4.9527Y-4.841
X4.9563Y-3.326
X4.9775Y-4.7749
X4.978Y-5.4677
X4.9807Y-6.3229
X4.9819Y-4.3063
X4.9827Y-4.0354
X4.989Y-5.2331
X4.9925Y-5.3457
X5.011Y-3.5252
X5.0315Y-4.9303
X5.0398Y-5.6522
X5.0567Y-4.8524
X5.0603Y-4.2115
X5.0709Y-6.2797
X5.0791Y-5.6807
X5.087Y-3.9758
X5.0886Y-4.1526
X5.1067Y-4.8716
X5.1083Y-6.2401
X5.1362Y-3.487
X5.1378Y-6.2992
X5.1425Y-4.3961
X5.1476Y-3.1594
X5.1592Y-4.29
X5.1654Y-5.2957
X5.1775Y-6.2402
X5.187Y-5.4118
X5.1886Y-5.4591
X5.2075Y-6.5035
X5.2457Y-4.2961
X5.2524Y-5.2953
X5.2524Y-5.6587
X5.2767Y-4.0905
X5.3433Y-5.1193
X5.3485Y-4.9108
X5.4236Y-3.8839
X5.4583Y-5.376
X5.4591Y-4.8287
X5.472Y-5.0295
X5.4793Y-3.791
X5.4819Y-4.4323
X5.4823Y-5.0949
X5.4846Y-4.8988
X5.5145Y-5.3663
X5.5224Y-5.3996
X5.5492Y-4.7598
X5.5606Y-5.1142
X5.563Y-5.1776
X5.5811Y-4.9559
X5.5913Y-4.5665
X5.6398Y-5.3689
X5.6441Y-4.8925
X5.6559Y-4.9894
X5.6618Y-4.648
X5.6756Y-4.5482
X5.6756Y-4.7782
X5.7087Y-6.5748
X5.7283Y-6.3976
X5.7677Y-3.9961
X5.7677Y-4.2717
X5.7677Y-5.1772
X5.7677Y-5.4331
X5.7886Y-4.7866
X5.9646Y-4.6654
X6.039Y-4.7185
X6.0795Y-5.2159
X6.0795Y-5.3659
X6.0925Y-4.0862
X6.1024Y-6.2992
X6.1417Y-6.5157
X6.1496Y-4.2646
X6.1638Y-6.3206
X6.1795Y-5.2659
X6.1866Y-4.0713
X6.2528Y-4.289
X6.2539Y-5.3303
X6.2563Y-6.4921
X6.3189Y-5.0787
X6.3189Y-6.2795
X6.3213Y-4.2882
X6.3406Y-6.502
X6.3453Y-5.3276
X6.3819Y-4.2831
X6.4433Y-6.5146
X6.4547Y-5.3319
X6.6732Y-3.1693
T3
X2.1654Y-4.0551
X2.1654Y-4.0945
X2.1654Y-4.252
X2.1654Y-4.2913
X2.3228Y-4.0551
X2.3228Y-4.0945
X2.3228Y-4.252
X2.3228Y-4.2913
X2.3622Y-4.0551
X2.3622Y-4.0945
X2.3622Y-4.252
X2.3622Y-4.2913
X2.5Y-2.815
X2.5Y-2.9528
X2.5197Y-4.1339
X2.5197Y-4.252
X2.5394Y-2.815
X2.5394Y-2.9528
X2.5591Y-4.1339
X2.5591Y-4.252
X2.5677Y-3.6783
X2.5787Y-2.815
X2.5787Y-2.9528
X2.5787Y-3.4055
X2.5984Y-4.1339
X2.5984Y-4.252
X2.6181Y-2.815
X2.6181Y-2.9528
X2.6378Y-4.1339
X2.6378Y-4.252
X2.6575Y-2.815
X2.6575Y-2.9528
X2.6772Y-4.1339
X2.6772Y-4.252
X2.6969Y-2.815
X2.6969Y-2.9528
X2.7165Y-4.1339
X2.7165Y-4.252
X2.7362Y-2.815
X2.7362Y-2.9528
X2.7559Y-4.1339
X2.7559Y-4.252
X2.7756Y-2.815
X2.7756Y-2.9528
X2.7953Y-4.1339
X2.7953Y-4.252
X2.815Y-2.815
X2.815Y-2.9528
X2.8346Y-4.1339
X2.8346Y-4.252
X2.8543Y-2.815
X2.8543Y-2.9528
X2.874Y-4.1339
X2.874Y-4.252
X2.8937Y-2.815
X2.8937Y-2.9528
X2.9134Y-4.1339
X2.9134Y-4.252
X2.9331Y-2.815
X2.9331Y-2.9528
X2.9528Y-4.1339
X2.9528Y-4.252
X2.9724Y-2.815
X2.9724Y-2.9528
X2.9921Y-4.1339
X2.9921Y-4.252
X3.0118Y-2.815
X3.0118Y-2.9528
X3.0315Y-4.1339
X3.0315Y-4.252
X3.0512Y-2.815
X3.0512Y-2.9528
X3.0574Y-3.4042
X3.0862Y-3.7035
X3.0906Y-4.0157
X5.4921Y-3.1693
X5.7677Y-3.1693
X6.0039Y-3.1693
X6.4764Y-3.1693
T4
X4.3031Y-2.7646
X4.5772Y-4.5626
X4.5795Y-4.365
X4.6803Y-4.3622
X4.6803Y-4.421
X5.0392Y-2.5683
X5.0591Y-2.7559
X5.0787Y-2.2244
X5.1191Y-2.0141
X3.435Y-4.5768
X3.435Y-4.6752
T5
X6.5445Y-3.2299
X6.5445Y-3.3299
X6.5445Y-3.4299
X6.5445Y-3.5299
X6.5445Y-3.6299
X6.5445Y-3.7299
X6.5445Y-3.8299
X6.6445Y-3.2299
X6.6445Y-3.3299
X6.6445Y-3.4299
X6.6445Y-3.5299
X6.6445Y-3.6299
X6.6445Y-3.7299
X6.6445Y-3.8299
X3.837Y-1.3535
X3.837Y-1.4535
X3.837Y-1.5535
X3.837Y-1.6535
X3.937Y-1.3535
X3.937Y-1.4535
X3.937Y-1.5535
X3.937Y-1.6535
X4.7031Y-1.3535
X4.7031Y-1.4535
X4.7031Y-1.5535
X4.7031Y-1.6535
X4.8031Y-1.3535
X4.8031Y-1.4535
X4.8031Y-1.5535
X4.8031Y-1.6535
X2.2228Y-1.3535
X2.2228Y-1.4535
X2.2228Y-1.5535
X2.2228Y-1.6535
X2.3228Y-1.3535
X2.3228Y-1.4535
X2.3228Y-1.5535
X2.3228Y-1.6535
X2.6559Y-1.35
X2.6559Y-1.45
X2.6559Y-1.55
X2.6559Y-1.65
X2.7559Y-1.35
X2.7559Y-1.45
X2.7559Y-1.55
X2.7559Y-1.65
X4.2701Y-1.3535
X4.2701Y-1.4535
X4.2701Y-1.5535
X4.2701Y-1.6535
X4.3701Y-1.3535
X4.3701Y-1.4535
X4.3701Y-1.5535
X4.3701Y-1.6535
X3.089Y-1.3535
X3.089Y-1.4535
X3.089Y-1.5535
X3.089Y-1.6535
X3.189Y-1.3535
X3.189Y-1.4535
X3.189Y-1.5535
X3.189Y-1.6535
T6
X2.185Y-2.4606
X2.3819Y-2.4606
X2.2441Y-4.0551
X2.2441Y-4.252
X2.1138Y-1.122
X2.2638Y-1.122
X3.728Y-1.122
X3.878Y-1.122
X2.5469Y-1.122
X2.6969Y-1.122
X2.9799Y-1.122
X3.1299Y-1.122
X4.5941Y-1.122
X4.7441Y-1.122
X4.161Y-1.122
X4.311Y-1.122
T7
X5.2953Y-1.0008
X5.2953Y-1.2008
X5.2953Y-1.5913
X5.2953Y-1.7913
X5.2953Y-2.5
X5.2953Y-2.6969
X1.9488Y-2.8543
X1.9488Y-3.0543
X1.9488Y-3.2543
X1.9488Y-3.4543
X1.9488Y-3.6543
X1.9488Y-3.8543
T8
X2.2402Y-5.0118
X2.2402Y-5.2362
X2.4646Y-5.0118
X2.4646Y-5.2362
X2.689Y-5.0118
X2.689Y-5.2343
X2.9134Y-5.0118
X2.9134Y-5.2362
T0
M30
