G04 #@! TF.GenerationSoftware,KiCad,Pcbnew,5.1.5-52549c5~86~ubuntu16.04.1*
G04 #@! TF.CreationDate,2020-07-05T11:22:45-05:00*
G04 #@! TF.ProjectId,keep_breathing_ctrl,6b656570-5f62-4726-9561-7468696e675f,rev?*
G04 #@! TF.SameCoordinates,Original*
G04 #@! TF.FileFunction,Legend,Bot*
G04 #@! TF.FilePolarity,Positive*
%FSLAX46Y46*%
G04 Gerber Fmt 4.6, Leading zero omitted, Abs format (unit mm)*
G04 Created by KiCad (PCBNEW 5.1.5-52549c5~86~ubuntu16.04.1) date 2020-07-05 11:22:45*
%MOMM*%
%LPD*%
G04 APERTURE LIST*
%ADD10C,0.150000*%
%ADD11C,0.120000*%
%ADD12C,0.100000*%
%ADD13C,0.200660*%
%ADD14C,0.200000*%
%ADD15C,0.099060*%
%ADD16C,0.304800*%
G04 APERTURE END LIST*
D10*
X193000000Y-113500000D02*
X193000000Y-169500000D01*
X108000000Y-169500000D02*
X193000000Y-169500000D01*
X108000000Y-113500000D02*
X108000000Y-169500000D01*
X108000000Y-113500000D02*
X193000000Y-113500000D01*
D11*
X196950000Y-65210000D02*
X188320000Y-65210000D01*
X196950000Y-65328095D02*
X188320000Y-65328095D01*
X196950000Y-65446190D02*
X188320000Y-65446190D01*
X196950000Y-65564285D02*
X188320000Y-65564285D01*
X196950000Y-65682380D02*
X188320000Y-65682380D01*
X196950000Y-65800475D02*
X188320000Y-65800475D01*
X196950000Y-65918570D02*
X188320000Y-65918570D01*
X196950000Y-66036665D02*
X188320000Y-66036665D01*
X196950000Y-66154760D02*
X188320000Y-66154760D01*
X196950000Y-66272855D02*
X188320000Y-66272855D01*
X196950000Y-66390950D02*
X188320000Y-66390950D01*
X196950000Y-66509045D02*
X188320000Y-66509045D01*
X196950000Y-66627140D02*
X188320000Y-66627140D01*
X196950000Y-66745235D02*
X188320000Y-66745235D01*
X196950000Y-66863330D02*
X188320000Y-66863330D01*
X196950000Y-66981425D02*
X188320000Y-66981425D01*
X196950000Y-67099520D02*
X188320000Y-67099520D01*
X196950000Y-67217615D02*
X188320000Y-67217615D01*
X196950000Y-67335710D02*
X188320000Y-67335710D01*
X196950000Y-67453805D02*
X188320000Y-67453805D01*
X196950000Y-67571900D02*
X188320000Y-67571900D01*
X188320000Y-66060000D02*
X187910000Y-66060000D01*
X185810000Y-66060000D02*
X185430000Y-66060000D01*
X188320000Y-66780000D02*
X187910000Y-66780000D01*
X185810000Y-66780000D02*
X185430000Y-66780000D01*
X188320000Y-68600000D02*
X187910000Y-68600000D01*
X185810000Y-68600000D02*
X185370000Y-68600000D01*
X188320000Y-69320000D02*
X187910000Y-69320000D01*
X185810000Y-69320000D02*
X185370000Y-69320000D01*
X188320000Y-71140000D02*
X187910000Y-71140000D01*
X185810000Y-71140000D02*
X185370000Y-71140000D01*
X188320000Y-71860000D02*
X187910000Y-71860000D01*
X185810000Y-71860000D02*
X185370000Y-71860000D01*
X188320000Y-73680000D02*
X187910000Y-73680000D01*
X185810000Y-73680000D02*
X185370000Y-73680000D01*
X188320000Y-74400000D02*
X187910000Y-74400000D01*
X185810000Y-74400000D02*
X185370000Y-74400000D01*
X196950000Y-67690000D02*
X188320000Y-67690000D01*
X196950000Y-70230000D02*
X188320000Y-70230000D01*
X196950000Y-72770000D02*
X188320000Y-72770000D01*
X196950000Y-65090000D02*
X188320000Y-65090000D01*
X188320000Y-65090000D02*
X188320000Y-75370000D01*
X196950000Y-75370000D02*
X188320000Y-75370000D01*
X196950000Y-65090000D02*
X196950000Y-75370000D01*
X183210000Y-65090000D02*
X183210000Y-66420000D01*
X184320000Y-65090000D02*
X183210000Y-65090000D01*
X123530565Y-134735876D02*
X123194689Y-134400000D01*
X133405311Y-134400000D02*
X133069435Y-134735876D01*
X133069435Y-134064124D02*
X133405311Y-134400000D01*
X128300000Y-129294689D02*
X127964124Y-129630565D01*
X128635876Y-129630565D02*
X128300000Y-129294689D01*
X128300000Y-139505311D02*
X128635876Y-139169435D01*
X127964124Y-139169435D02*
X128300000Y-139505311D01*
X189120000Y-36950000D02*
G75*
G03X189120000Y-36950000I-2210000J0D01*
G01*
X189120000Y-51950000D02*
G75*
G03X189120000Y-51950000I-2210000J0D01*
G01*
D12*
X116666923Y-122500000D02*
G75*
G03X116666923Y-122500000I-416923J0D01*
G01*
X115500000Y-121500000D02*
X115500000Y-112500000D01*
X115500000Y-112500000D02*
X165500000Y-112500000D01*
X165500000Y-112500000D02*
X165500000Y-121500000D01*
X165500000Y-121500000D02*
X115500000Y-121500000D01*
D10*
X138410180Y-45949760D02*
X138410180Y-46650800D01*
X138610840Y-45949760D02*
X138410180Y-45949760D01*
X141409820Y-45949760D02*
X141160900Y-45949760D01*
X141409820Y-46650800D02*
X141409820Y-45949760D01*
X138610840Y-45949760D02*
X138659100Y-45949760D01*
D13*
X110900460Y-93481140D02*
X111200180Y-93481140D01*
X110900460Y-93178880D02*
X110900460Y-93481140D01*
X111101120Y-93178880D02*
X110900460Y-93178880D01*
X115000020Y-93178880D02*
X111101120Y-93178880D01*
X115000020Y-88680540D02*
X115000020Y-93178880D01*
X111299240Y-88680540D02*
X115000020Y-88680540D01*
X111299240Y-93481140D02*
X111299240Y-88680540D01*
D11*
X115572779Y-86840000D02*
X115247221Y-86840000D01*
X115572779Y-85820000D02*
X115247221Y-85820000D01*
X115077221Y-81190000D02*
X115402779Y-81190000D01*
X115077221Y-82210000D02*
X115402779Y-82210000D01*
X119390000Y-96910000D02*
X118025000Y-96910000D01*
X119390000Y-97610000D02*
X119390000Y-96910000D01*
X120090000Y-97610000D02*
X119390000Y-97610000D01*
X133610000Y-97610000D02*
X133610000Y-96910000D01*
X132910000Y-97610000D02*
X133610000Y-97610000D01*
X119390000Y-83390000D02*
X119390000Y-84090000D01*
X120090000Y-83390000D02*
X119390000Y-83390000D01*
X133610000Y-83390000D02*
X133610000Y-84090000D01*
X132910000Y-83390000D02*
X133610000Y-83390000D01*
X132937221Y-142160000D02*
X133262779Y-142160000D01*
X132937221Y-143180000D02*
X133262779Y-143180000D01*
X138030000Y-140937221D02*
X138030000Y-141262779D01*
X137010000Y-140937221D02*
X137010000Y-141262779D01*
X165137221Y-100190000D02*
X165462779Y-100190000D01*
X165137221Y-101210000D02*
X165462779Y-101210000D01*
X85900000Y-110300000D02*
X85900000Y-112150000D01*
X87100000Y-110300000D02*
X87100000Y-112150000D01*
X87100000Y-112150000D02*
X85900000Y-112150000D01*
X139200000Y-138170000D02*
X137350000Y-138170000D01*
X139200000Y-139370000D02*
X137350000Y-139370000D01*
X137350000Y-139370000D02*
X137350000Y-138170000D01*
X85096000Y-114314759D02*
X85726000Y-114314759D01*
X85411000Y-113999759D02*
X85411000Y-114629759D01*
X86848000Y-120741000D02*
X87652000Y-120741000D01*
X86617000Y-120701000D02*
X87883000Y-120701000D01*
X86448000Y-120661000D02*
X88052000Y-120661000D01*
X86310000Y-120621000D02*
X88190000Y-120621000D01*
X86191000Y-120581000D02*
X88309000Y-120581000D01*
X86085000Y-120541000D02*
X88415000Y-120541000D01*
X85988000Y-120501000D02*
X88512000Y-120501000D01*
X85900000Y-120461000D02*
X88600000Y-120461000D01*
X85818000Y-120421000D02*
X88682000Y-120421000D01*
X85741000Y-120381000D02*
X88759000Y-120381000D01*
X85669000Y-120341000D02*
X88831000Y-120341000D01*
X85600000Y-120301000D02*
X88900000Y-120301000D01*
X85536000Y-120261000D02*
X88964000Y-120261000D01*
X85474000Y-120221000D02*
X89026000Y-120221000D01*
X85416000Y-120181000D02*
X89084000Y-120181000D01*
X85360000Y-120141000D02*
X89140000Y-120141000D01*
X85306000Y-120101000D02*
X89194000Y-120101000D01*
X85255000Y-120061000D02*
X89245000Y-120061000D01*
X85206000Y-120021000D02*
X89294000Y-120021000D01*
X85158000Y-119981000D02*
X89342000Y-119981000D01*
X85113000Y-119941000D02*
X89387000Y-119941000D01*
X85068000Y-119901000D02*
X89432000Y-119901000D01*
X85026000Y-119861000D02*
X89474000Y-119861000D01*
X84985000Y-119821000D02*
X89515000Y-119821000D01*
X88290000Y-119781000D02*
X89555000Y-119781000D01*
X84945000Y-119781000D02*
X86210000Y-119781000D01*
X88290000Y-119741000D02*
X89593000Y-119741000D01*
X84907000Y-119741000D02*
X86210000Y-119741000D01*
X88290000Y-119701000D02*
X89630000Y-119701000D01*
X84870000Y-119701000D02*
X86210000Y-119701000D01*
X88290000Y-119661000D02*
X89666000Y-119661000D01*
X84834000Y-119661000D02*
X86210000Y-119661000D01*
X88290000Y-119621000D02*
X89700000Y-119621000D01*
X84800000Y-119621000D02*
X86210000Y-119621000D01*
X88290000Y-119581000D02*
X89734000Y-119581000D01*
X84766000Y-119581000D02*
X86210000Y-119581000D01*
X88290000Y-119541000D02*
X89766000Y-119541000D01*
X84734000Y-119541000D02*
X86210000Y-119541000D01*
X88290000Y-119501000D02*
X89798000Y-119501000D01*
X84702000Y-119501000D02*
X86210000Y-119501000D01*
X88290000Y-119461000D02*
X89828000Y-119461000D01*
X84672000Y-119461000D02*
X86210000Y-119461000D01*
X88290000Y-119421000D02*
X89857000Y-119421000D01*
X84643000Y-119421000D02*
X86210000Y-119421000D01*
X88290000Y-119381000D02*
X89886000Y-119381000D01*
X84614000Y-119381000D02*
X86210000Y-119381000D01*
X88290000Y-119341000D02*
X89914000Y-119341000D01*
X84586000Y-119341000D02*
X86210000Y-119341000D01*
X88290000Y-119301000D02*
X89940000Y-119301000D01*
X84560000Y-119301000D02*
X86210000Y-119301000D01*
X88290000Y-119261000D02*
X89966000Y-119261000D01*
X84534000Y-119261000D02*
X86210000Y-119261000D01*
X88290000Y-119221000D02*
X89992000Y-119221000D01*
X84508000Y-119221000D02*
X86210000Y-119221000D01*
X88290000Y-119181000D02*
X90016000Y-119181000D01*
X84484000Y-119181000D02*
X86210000Y-119181000D01*
X88290000Y-119141000D02*
X90040000Y-119141000D01*
X84460000Y-119141000D02*
X86210000Y-119141000D01*
X88290000Y-119101000D02*
X90062000Y-119101000D01*
X84438000Y-119101000D02*
X86210000Y-119101000D01*
X88290000Y-119061000D02*
X90084000Y-119061000D01*
X84416000Y-119061000D02*
X86210000Y-119061000D01*
X88290000Y-119021000D02*
X90106000Y-119021000D01*
X84394000Y-119021000D02*
X86210000Y-119021000D01*
X88290000Y-118981000D02*
X90126000Y-118981000D01*
X84374000Y-118981000D02*
X86210000Y-118981000D01*
X88290000Y-118941000D02*
X90146000Y-118941000D01*
X84354000Y-118941000D02*
X86210000Y-118941000D01*
X88290000Y-118901000D02*
X90166000Y-118901000D01*
X84334000Y-118901000D02*
X86210000Y-118901000D01*
X88290000Y-118861000D02*
X90184000Y-118861000D01*
X84316000Y-118861000D02*
X86210000Y-118861000D01*
X88290000Y-118821000D02*
X90202000Y-118821000D01*
X84298000Y-118821000D02*
X86210000Y-118821000D01*
X88290000Y-118781000D02*
X90220000Y-118781000D01*
X84280000Y-118781000D02*
X86210000Y-118781000D01*
X88290000Y-118741000D02*
X90236000Y-118741000D01*
X84264000Y-118741000D02*
X86210000Y-118741000D01*
X88290000Y-118701000D02*
X90252000Y-118701000D01*
X84248000Y-118701000D02*
X86210000Y-118701000D01*
X88290000Y-118661000D02*
X90268000Y-118661000D01*
X84232000Y-118661000D02*
X86210000Y-118661000D01*
X88290000Y-118621000D02*
X90283000Y-118621000D01*
X84217000Y-118621000D02*
X86210000Y-118621000D01*
X88290000Y-118581000D02*
X90297000Y-118581000D01*
X84203000Y-118581000D02*
X86210000Y-118581000D01*
X88290000Y-118541000D02*
X90311000Y-118541000D01*
X84189000Y-118541000D02*
X86210000Y-118541000D01*
X88290000Y-118501000D02*
X90324000Y-118501000D01*
X84176000Y-118501000D02*
X86210000Y-118501000D01*
X88290000Y-118461000D02*
X90336000Y-118461000D01*
X84164000Y-118461000D02*
X86210000Y-118461000D01*
X88290000Y-118421000D02*
X90348000Y-118421000D01*
X84152000Y-118421000D02*
X86210000Y-118421000D01*
X88290000Y-118381000D02*
X90360000Y-118381000D01*
X84140000Y-118381000D02*
X86210000Y-118381000D01*
X88290000Y-118341000D02*
X90371000Y-118341000D01*
X84129000Y-118341000D02*
X86210000Y-118341000D01*
X88290000Y-118301000D02*
X90381000Y-118301000D01*
X84119000Y-118301000D02*
X86210000Y-118301000D01*
X88290000Y-118261000D02*
X90391000Y-118261000D01*
X84109000Y-118261000D02*
X86210000Y-118261000D01*
X88290000Y-118221000D02*
X90400000Y-118221000D01*
X84100000Y-118221000D02*
X86210000Y-118221000D01*
X88290000Y-118180000D02*
X90409000Y-118180000D01*
X84091000Y-118180000D02*
X86210000Y-118180000D01*
X88290000Y-118140000D02*
X90417000Y-118140000D01*
X84083000Y-118140000D02*
X86210000Y-118140000D01*
X88290000Y-118100000D02*
X90425000Y-118100000D01*
X84075000Y-118100000D02*
X86210000Y-118100000D01*
X88290000Y-118060000D02*
X90432000Y-118060000D01*
X84068000Y-118060000D02*
X86210000Y-118060000D01*
X88290000Y-118020000D02*
X90439000Y-118020000D01*
X84061000Y-118020000D02*
X86210000Y-118020000D01*
X88290000Y-117980000D02*
X90445000Y-117980000D01*
X84055000Y-117980000D02*
X86210000Y-117980000D01*
X88290000Y-117940000D02*
X90451000Y-117940000D01*
X84049000Y-117940000D02*
X86210000Y-117940000D01*
X88290000Y-117900000D02*
X90456000Y-117900000D01*
X84044000Y-117900000D02*
X86210000Y-117900000D01*
X88290000Y-117860000D02*
X90461000Y-117860000D01*
X84039000Y-117860000D02*
X86210000Y-117860000D01*
X88290000Y-117820000D02*
X90465000Y-117820000D01*
X84035000Y-117820000D02*
X86210000Y-117820000D01*
X88290000Y-117780000D02*
X90468000Y-117780000D01*
X84032000Y-117780000D02*
X86210000Y-117780000D01*
X88290000Y-117740000D02*
X90472000Y-117740000D01*
X84028000Y-117740000D02*
X86210000Y-117740000D01*
X84026000Y-117700000D02*
X90474000Y-117700000D01*
X84023000Y-117660000D02*
X90477000Y-117660000D01*
X84022000Y-117620000D02*
X90478000Y-117620000D01*
X84020000Y-117580000D02*
X90480000Y-117580000D01*
X84020000Y-117540000D02*
X90480000Y-117540000D01*
X84020000Y-117500000D02*
X90480000Y-117500000D01*
X90520000Y-117500000D02*
G75*
G03X90520000Y-117500000I-3270000J0D01*
G01*
X143630000Y-126440000D02*
X143630000Y-129890000D01*
X143630000Y-126440000D02*
X143630000Y-124490000D01*
X138510000Y-126440000D02*
X138510000Y-128390000D01*
X138510000Y-126440000D02*
X138510000Y-124490000D01*
X117740000Y-130192779D02*
X117740000Y-129867221D01*
X118760000Y-130192779D02*
X118760000Y-129867221D01*
X139800000Y-135227221D02*
X139800000Y-135552779D01*
X138780000Y-135227221D02*
X138780000Y-135552779D01*
X132957221Y-144410000D02*
X133282779Y-144410000D01*
X132957221Y-145430000D02*
X133282779Y-145430000D01*
X170490000Y-100962779D02*
X170490000Y-100637221D01*
X171510000Y-100962779D02*
X171510000Y-100637221D01*
D10*
X162600000Y-107300000D02*
X162600000Y-106700000D01*
X164600000Y-107300000D02*
X164600000Y-106700000D01*
X164600000Y-105300000D02*
X164600000Y-105900000D01*
X162600000Y-105300000D02*
X162600000Y-105900000D01*
X163400000Y-107300000D02*
X163800000Y-107300000D01*
X163400000Y-105300000D02*
X163800000Y-105300000D01*
X164600000Y-107300000D02*
X164400000Y-107300000D01*
X162600000Y-107300000D02*
X162800000Y-107300000D01*
X162600000Y-105300000D02*
X162800000Y-105300000D01*
X164616000Y-105284000D02*
X164425500Y-105284000D01*
X162535490Y-105157000D02*
G75*
G03X162535490Y-105157000I-141990J0D01*
G01*
X168100000Y-102900000D02*
X171300000Y-102900000D01*
X168100000Y-107700000D02*
X168100000Y-102900000D01*
X171300000Y-107700000D02*
X168100000Y-107700000D01*
X171300000Y-102900000D02*
X171300000Y-107700000D01*
X167782843Y-107300000D02*
G75*
G03X167782843Y-107300000I-282843J0D01*
G01*
X86275000Y-88775000D02*
X81000000Y-88775000D01*
X85000000Y-94175000D02*
X81000000Y-94175000D01*
D11*
X84510000Y-75337221D02*
X84510000Y-75662779D01*
X83490000Y-75337221D02*
X83490000Y-75662779D01*
D10*
X150430180Y-45939760D02*
X150430180Y-46640800D01*
X150630840Y-45939760D02*
X150430180Y-45939760D01*
X153429820Y-45939760D02*
X153180900Y-45939760D01*
X153429820Y-46640800D02*
X153429820Y-45939760D01*
X150630840Y-45939760D02*
X150679100Y-45939760D01*
D11*
X137200000Y-34297017D02*
X137200000Y-34662983D01*
X133780000Y-34297017D02*
X133780000Y-34662983D01*
X151880000Y-34187017D02*
X151880000Y-34552983D01*
X148460000Y-34187017D02*
X148460000Y-34552983D01*
X136860000Y-38007936D02*
X136860000Y-39212064D01*
X134140000Y-38007936D02*
X134140000Y-39212064D01*
X151520000Y-37877936D02*
X151520000Y-39082064D01*
X148800000Y-37877936D02*
X148800000Y-39082064D01*
D14*
X100370000Y-114850000D02*
G75*
G03X100370000Y-114850000I-100000J0D01*
G01*
D10*
X105350000Y-115175000D02*
X105350000Y-114675000D01*
X105350000Y-115175000D02*
X104850000Y-115175000D01*
X105350000Y-110625000D02*
X105350000Y-111125000D01*
X105350000Y-110624160D02*
X104850000Y-110624160D01*
X100650000Y-110625000D02*
X101150000Y-110625000D01*
X100650000Y-110625000D02*
X100650000Y-111125000D01*
X100650000Y-115175000D02*
X101150000Y-115175000D01*
X100650000Y-115175000D02*
X100650000Y-114675000D01*
D11*
X64192082Y-58300000D02*
X64192082Y-59550000D01*
X64817082Y-58925000D02*
X63567082Y-58925000D01*
X51639000Y-62183000D02*
X51639000Y-62817000D01*
X51679000Y-61743000D02*
X51679000Y-63257000D01*
X51719000Y-61472000D02*
X51719000Y-63528000D01*
X51759000Y-61259000D02*
X51759000Y-63741000D01*
X51799000Y-61078000D02*
X51799000Y-63922000D01*
X51839000Y-60917000D02*
X51839000Y-64083000D01*
X51879000Y-60772000D02*
X51879000Y-64228000D01*
X51919000Y-60639000D02*
X51919000Y-64361000D01*
X51959000Y-60516000D02*
X51959000Y-64484000D01*
X51999000Y-60400000D02*
X51999000Y-64600000D01*
X52039000Y-60291000D02*
X52039000Y-64709000D01*
X52079000Y-60188000D02*
X52079000Y-64812000D01*
X52119000Y-60090000D02*
X52119000Y-64910000D01*
X52159000Y-59996000D02*
X52159000Y-65004000D01*
X52199000Y-59906000D02*
X52199000Y-65094000D01*
X52239000Y-59819000D02*
X52239000Y-65181000D01*
X52279000Y-59736000D02*
X52279000Y-65264000D01*
X52319000Y-59656000D02*
X52319000Y-65344000D01*
X52359000Y-59579000D02*
X52359000Y-65421000D01*
X52399000Y-59504000D02*
X52399000Y-65496000D01*
X52439000Y-59431000D02*
X52439000Y-65569000D01*
X52479000Y-59360000D02*
X52479000Y-65640000D01*
X52519000Y-59292000D02*
X52519000Y-65708000D01*
X52559000Y-59225000D02*
X52559000Y-65775000D01*
X52599000Y-59161000D02*
X52599000Y-65839000D01*
X52639000Y-59098000D02*
X52639000Y-65902000D01*
X52679000Y-59036000D02*
X52679000Y-65964000D01*
X52719000Y-58976000D02*
X52719000Y-66024000D01*
X52759000Y-58917000D02*
X52759000Y-66083000D01*
X52799000Y-58860000D02*
X52799000Y-66140000D01*
X52839000Y-58804000D02*
X52839000Y-66196000D01*
X52879000Y-58750000D02*
X52879000Y-66250000D01*
X52919000Y-58696000D02*
X52919000Y-66304000D01*
X52959000Y-58644000D02*
X52959000Y-66356000D01*
X52999000Y-58593000D02*
X52999000Y-66407000D01*
X53039000Y-58543000D02*
X53039000Y-66457000D01*
X53079000Y-58493000D02*
X53079000Y-66507000D01*
X53119000Y-58445000D02*
X53119000Y-66555000D01*
X53159000Y-58398000D02*
X53159000Y-66602000D01*
X53199000Y-58352000D02*
X53199000Y-66648000D01*
X53239000Y-58306000D02*
X53239000Y-66694000D01*
X53279000Y-58262000D02*
X53279000Y-66738000D01*
X53319000Y-58218000D02*
X53319000Y-66782000D01*
X53359000Y-58175000D02*
X53359000Y-66825000D01*
X53399000Y-58133000D02*
X53399000Y-66867000D01*
X53439000Y-58092000D02*
X53439000Y-66908000D01*
X53479000Y-58051000D02*
X53479000Y-66949000D01*
X53519000Y-58011000D02*
X53519000Y-66989000D01*
X53559000Y-57972000D02*
X53559000Y-67028000D01*
X53599000Y-57933000D02*
X53599000Y-67067000D01*
X53639000Y-57895000D02*
X53639000Y-67105000D01*
X53679000Y-57858000D02*
X53679000Y-67142000D01*
X53719000Y-57822000D02*
X53719000Y-67178000D01*
X53759000Y-57786000D02*
X53759000Y-67214000D01*
X53799000Y-57750000D02*
X53799000Y-67250000D01*
X53839000Y-57715000D02*
X53839000Y-67285000D01*
X53879000Y-57681000D02*
X53879000Y-67319000D01*
X53919000Y-57648000D02*
X53919000Y-67352000D01*
X53959000Y-57615000D02*
X53959000Y-67385000D01*
X53999000Y-57582000D02*
X53999000Y-67418000D01*
X54039000Y-57550000D02*
X54039000Y-67450000D01*
X54079000Y-63940000D02*
X54079000Y-67482000D01*
X54079000Y-57518000D02*
X54079000Y-61060000D01*
X54119000Y-63940000D02*
X54119000Y-67512000D01*
X54119000Y-57488000D02*
X54119000Y-61060000D01*
X54159000Y-63940000D02*
X54159000Y-67543000D01*
X54159000Y-57457000D02*
X54159000Y-61060000D01*
X54199000Y-63940000D02*
X54199000Y-67573000D01*
X54199000Y-57427000D02*
X54199000Y-61060000D01*
X54239000Y-63940000D02*
X54239000Y-67602000D01*
X54239000Y-57398000D02*
X54239000Y-61060000D01*
X54279000Y-63940000D02*
X54279000Y-67631000D01*
X54279000Y-57369000D02*
X54279000Y-61060000D01*
X54319000Y-63940000D02*
X54319000Y-67660000D01*
X54319000Y-57340000D02*
X54319000Y-61060000D01*
X54359000Y-63940000D02*
X54359000Y-67688000D01*
X54359000Y-57312000D02*
X54359000Y-61060000D01*
X54399000Y-63940000D02*
X54399000Y-67716000D01*
X54399000Y-57284000D02*
X54399000Y-61060000D01*
X54439000Y-63940000D02*
X54439000Y-67743000D01*
X54439000Y-57257000D02*
X54439000Y-61060000D01*
X54479000Y-63940000D02*
X54479000Y-67770000D01*
X54479000Y-57230000D02*
X54479000Y-61060000D01*
X54519000Y-63940000D02*
X54519000Y-67796000D01*
X54519000Y-57204000D02*
X54519000Y-61060000D01*
X54559000Y-63940000D02*
X54559000Y-67822000D01*
X54559000Y-57178000D02*
X54559000Y-61060000D01*
X54599000Y-63940000D02*
X54599000Y-67847000D01*
X54599000Y-57153000D02*
X54599000Y-61060000D01*
X54639000Y-63940000D02*
X54639000Y-67872000D01*
X54639000Y-57128000D02*
X54639000Y-61060000D01*
X54679000Y-63940000D02*
X54679000Y-67897000D01*
X54679000Y-57103000D02*
X54679000Y-61060000D01*
X54719000Y-63940000D02*
X54719000Y-67921000D01*
X54719000Y-57079000D02*
X54719000Y-61060000D01*
X54759000Y-63940000D02*
X54759000Y-67945000D01*
X54759000Y-57055000D02*
X54759000Y-61060000D01*
X54799000Y-63940000D02*
X54799000Y-67968000D01*
X54799000Y-57032000D02*
X54799000Y-61060000D01*
X54839000Y-63940000D02*
X54839000Y-67991000D01*
X54839000Y-57009000D02*
X54839000Y-61060000D01*
X54879000Y-63940000D02*
X54879000Y-68014000D01*
X54879000Y-56986000D02*
X54879000Y-61060000D01*
X54919000Y-63940000D02*
X54919000Y-68036000D01*
X54919000Y-56964000D02*
X54919000Y-61060000D01*
X54959000Y-63940000D02*
X54959000Y-68058000D01*
X54959000Y-56942000D02*
X54959000Y-61060000D01*
X54999000Y-63940000D02*
X54999000Y-68080000D01*
X54999000Y-56920000D02*
X54999000Y-61060000D01*
X55039000Y-63940000D02*
X55039000Y-68101000D01*
X55039000Y-56899000D02*
X55039000Y-61060000D01*
X55079000Y-63940000D02*
X55079000Y-68122000D01*
X55079000Y-56878000D02*
X55079000Y-61060000D01*
X55119000Y-63940000D02*
X55119000Y-68142000D01*
X55119000Y-56858000D02*
X55119000Y-61060000D01*
X55159000Y-63940000D02*
X55159000Y-68162000D01*
X55159000Y-56838000D02*
X55159000Y-61060000D01*
X55199000Y-63940000D02*
X55199000Y-68182000D01*
X55199000Y-56818000D02*
X55199000Y-61060000D01*
X55239000Y-63940000D02*
X55239000Y-68202000D01*
X55239000Y-56798000D02*
X55239000Y-61060000D01*
X55279000Y-63940000D02*
X55279000Y-68221000D01*
X55279000Y-56779000D02*
X55279000Y-61060000D01*
X55319000Y-63940000D02*
X55319000Y-68239000D01*
X55319000Y-56761000D02*
X55319000Y-61060000D01*
X55359000Y-63940000D02*
X55359000Y-68258000D01*
X55359000Y-56742000D02*
X55359000Y-61060000D01*
X55399000Y-63940000D02*
X55399000Y-68276000D01*
X55399000Y-56724000D02*
X55399000Y-61060000D01*
X55439000Y-63940000D02*
X55439000Y-68293000D01*
X55439000Y-56707000D02*
X55439000Y-61060000D01*
X55479000Y-63940000D02*
X55479000Y-68311000D01*
X55479000Y-56689000D02*
X55479000Y-61060000D01*
X55519000Y-63940000D02*
X55519000Y-68328000D01*
X55519000Y-56672000D02*
X55519000Y-61060000D01*
X55559000Y-63940000D02*
X55559000Y-68345000D01*
X55559000Y-56655000D02*
X55559000Y-61060000D01*
X55599000Y-63940000D02*
X55599000Y-68361000D01*
X55599000Y-56639000D02*
X55599000Y-61060000D01*
X55639000Y-63940000D02*
X55639000Y-68377000D01*
X55639000Y-56623000D02*
X55639000Y-61060000D01*
X55679000Y-63940000D02*
X55679000Y-68393000D01*
X55679000Y-56607000D02*
X55679000Y-61060000D01*
X55719000Y-63940000D02*
X55719000Y-68408000D01*
X55719000Y-56592000D02*
X55719000Y-61060000D01*
X55759000Y-63940000D02*
X55759000Y-68424000D01*
X55759000Y-56576000D02*
X55759000Y-61060000D01*
X55799000Y-63940000D02*
X55799000Y-68439000D01*
X55799000Y-56561000D02*
X55799000Y-61060000D01*
X55839000Y-63940000D02*
X55839000Y-68453000D01*
X55839000Y-56547000D02*
X55839000Y-61060000D01*
X55879000Y-63940000D02*
X55879000Y-68467000D01*
X55879000Y-56533000D02*
X55879000Y-61060000D01*
X55919000Y-63940000D02*
X55919000Y-68481000D01*
X55919000Y-56519000D02*
X55919000Y-61060000D01*
X55959000Y-63940000D02*
X55959000Y-68495000D01*
X55959000Y-56505000D02*
X55959000Y-61060000D01*
X55999000Y-63940000D02*
X55999000Y-68508000D01*
X55999000Y-56492000D02*
X55999000Y-61060000D01*
X56039000Y-63940000D02*
X56039000Y-68521000D01*
X56039000Y-56479000D02*
X56039000Y-61060000D01*
X56079000Y-63940000D02*
X56079000Y-68534000D01*
X56079000Y-56466000D02*
X56079000Y-61060000D01*
X56119000Y-63940000D02*
X56119000Y-68547000D01*
X56119000Y-56453000D02*
X56119000Y-61060000D01*
X56159000Y-63940000D02*
X56159000Y-68559000D01*
X56159000Y-56441000D02*
X56159000Y-61060000D01*
X56199000Y-63940000D02*
X56199000Y-68571000D01*
X56199000Y-56429000D02*
X56199000Y-61060000D01*
X56239000Y-63940000D02*
X56239000Y-68583000D01*
X56239000Y-56417000D02*
X56239000Y-61060000D01*
X56279000Y-63940000D02*
X56279000Y-68594000D01*
X56279000Y-56406000D02*
X56279000Y-61060000D01*
X56319000Y-63940000D02*
X56319000Y-68605000D01*
X56319000Y-56395000D02*
X56319000Y-61060000D01*
X56359000Y-63940000D02*
X56359000Y-68616000D01*
X56359000Y-56384000D02*
X56359000Y-61060000D01*
X56399000Y-63940000D02*
X56399000Y-68626000D01*
X56399000Y-56374000D02*
X56399000Y-61060000D01*
X56439000Y-63940000D02*
X56439000Y-68637000D01*
X56439000Y-56363000D02*
X56439000Y-61060000D01*
X56479000Y-63940000D02*
X56479000Y-68646000D01*
X56479000Y-56354000D02*
X56479000Y-61060000D01*
X56519000Y-63940000D02*
X56519000Y-68656000D01*
X56519000Y-56344000D02*
X56519000Y-61060000D01*
X56559000Y-63940000D02*
X56559000Y-68666000D01*
X56559000Y-56334000D02*
X56559000Y-61060000D01*
X56599000Y-63940000D02*
X56599000Y-68675000D01*
X56599000Y-56325000D02*
X56599000Y-61060000D01*
X56639000Y-63940000D02*
X56639000Y-68684000D01*
X56639000Y-56316000D02*
X56639000Y-61060000D01*
X56679000Y-63940000D02*
X56679000Y-68692000D01*
X56679000Y-56308000D02*
X56679000Y-61060000D01*
X56719000Y-63940000D02*
X56719000Y-68701000D01*
X56719000Y-56299000D02*
X56719000Y-61060000D01*
X56759000Y-63940000D02*
X56759000Y-68709000D01*
X56759000Y-56291000D02*
X56759000Y-61060000D01*
X56799000Y-63940000D02*
X56799000Y-68716000D01*
X56799000Y-56284000D02*
X56799000Y-61060000D01*
X56839000Y-63940000D02*
X56839000Y-68724000D01*
X56839000Y-56276000D02*
X56839000Y-61060000D01*
X56879000Y-63940000D02*
X56879000Y-68731000D01*
X56879000Y-56269000D02*
X56879000Y-61060000D01*
X56919000Y-63940000D02*
X56919000Y-68738000D01*
X56919000Y-56262000D02*
X56919000Y-61060000D01*
X56959000Y-56255000D02*
X56959000Y-68745000D01*
X56999000Y-56248000D02*
X56999000Y-68752000D01*
X57039000Y-56242000D02*
X57039000Y-68758000D01*
X57079000Y-56236000D02*
X57079000Y-68764000D01*
X57119000Y-56231000D02*
X57119000Y-68769000D01*
X57159000Y-56225000D02*
X57159000Y-68775000D01*
X57199000Y-56220000D02*
X57199000Y-68780000D01*
X57239000Y-56215000D02*
X57239000Y-68785000D01*
X57279000Y-56210000D02*
X57279000Y-68790000D01*
X57320000Y-56206000D02*
X57320000Y-68794000D01*
X57360000Y-56202000D02*
X57360000Y-68798000D01*
X57400000Y-56198000D02*
X57400000Y-68802000D01*
X57440000Y-56194000D02*
X57440000Y-68806000D01*
X57480000Y-56191000D02*
X57480000Y-68809000D01*
X57520000Y-56188000D02*
X57520000Y-68812000D01*
X57560000Y-56185000D02*
X57560000Y-68815000D01*
X57600000Y-56182000D02*
X57600000Y-68818000D01*
X57640000Y-56180000D02*
X57640000Y-68820000D01*
X57680000Y-56178000D02*
X57680000Y-68822000D01*
X57720000Y-56176000D02*
X57720000Y-68824000D01*
X57760000Y-56174000D02*
X57760000Y-68826000D01*
X57800000Y-56173000D02*
X57800000Y-68827000D01*
X57840000Y-56172000D02*
X57840000Y-68828000D01*
X57880000Y-56171000D02*
X57880000Y-68829000D01*
X57920000Y-56170000D02*
X57920000Y-68830000D01*
X57960000Y-56170000D02*
X57960000Y-68830000D01*
X58000000Y-56170000D02*
X58000000Y-68830000D01*
X64370000Y-62500000D02*
G75*
G03X64370000Y-62500000I-6370000J0D01*
G01*
X63370000Y-105500000D02*
G75*
G03X63370000Y-105500000I-6370000J0D01*
G01*
X50670000Y-105500000D02*
X63330000Y-105500000D01*
X50670000Y-105540000D02*
X63330000Y-105540000D01*
X50670000Y-105580000D02*
X63330000Y-105580000D01*
X50671000Y-105620000D02*
X63329000Y-105620000D01*
X50672000Y-105660000D02*
X63328000Y-105660000D01*
X50673000Y-105700000D02*
X63327000Y-105700000D01*
X50674000Y-105740000D02*
X63326000Y-105740000D01*
X50676000Y-105780000D02*
X63324000Y-105780000D01*
X50678000Y-105820000D02*
X63322000Y-105820000D01*
X50680000Y-105860000D02*
X63320000Y-105860000D01*
X50682000Y-105900000D02*
X63318000Y-105900000D01*
X50685000Y-105940000D02*
X63315000Y-105940000D01*
X50688000Y-105980000D02*
X63312000Y-105980000D01*
X50691000Y-106020000D02*
X63309000Y-106020000D01*
X50694000Y-106060000D02*
X63306000Y-106060000D01*
X50698000Y-106100000D02*
X63302000Y-106100000D01*
X50702000Y-106140000D02*
X63298000Y-106140000D01*
X50706000Y-106180000D02*
X63294000Y-106180000D01*
X50710000Y-106221000D02*
X63290000Y-106221000D01*
X50715000Y-106261000D02*
X63285000Y-106261000D01*
X50720000Y-106301000D02*
X63280000Y-106301000D01*
X50725000Y-106341000D02*
X63275000Y-106341000D01*
X50731000Y-106381000D02*
X63269000Y-106381000D01*
X50736000Y-106421000D02*
X63264000Y-106421000D01*
X50742000Y-106461000D02*
X63258000Y-106461000D01*
X50748000Y-106501000D02*
X63252000Y-106501000D01*
X50755000Y-106541000D02*
X63245000Y-106541000D01*
X50762000Y-106581000D02*
X55560000Y-106581000D01*
X58440000Y-106581000D02*
X63238000Y-106581000D01*
X50769000Y-106621000D02*
X55560000Y-106621000D01*
X58440000Y-106621000D02*
X63231000Y-106621000D01*
X50776000Y-106661000D02*
X55560000Y-106661000D01*
X58440000Y-106661000D02*
X63224000Y-106661000D01*
X50784000Y-106701000D02*
X55560000Y-106701000D01*
X58440000Y-106701000D02*
X63216000Y-106701000D01*
X50791000Y-106741000D02*
X55560000Y-106741000D01*
X58440000Y-106741000D02*
X63209000Y-106741000D01*
X50799000Y-106781000D02*
X55560000Y-106781000D01*
X58440000Y-106781000D02*
X63201000Y-106781000D01*
X50808000Y-106821000D02*
X55560000Y-106821000D01*
X58440000Y-106821000D02*
X63192000Y-106821000D01*
X50816000Y-106861000D02*
X55560000Y-106861000D01*
X58440000Y-106861000D02*
X63184000Y-106861000D01*
X50825000Y-106901000D02*
X55560000Y-106901000D01*
X58440000Y-106901000D02*
X63175000Y-106901000D01*
X50834000Y-106941000D02*
X55560000Y-106941000D01*
X58440000Y-106941000D02*
X63166000Y-106941000D01*
X50844000Y-106981000D02*
X55560000Y-106981000D01*
X58440000Y-106981000D02*
X63156000Y-106981000D01*
X50854000Y-107021000D02*
X55560000Y-107021000D01*
X58440000Y-107021000D02*
X63146000Y-107021000D01*
X50863000Y-107061000D02*
X55560000Y-107061000D01*
X58440000Y-107061000D02*
X63137000Y-107061000D01*
X50874000Y-107101000D02*
X55560000Y-107101000D01*
X58440000Y-107101000D02*
X63126000Y-107101000D01*
X50884000Y-107141000D02*
X55560000Y-107141000D01*
X58440000Y-107141000D02*
X63116000Y-107141000D01*
X50895000Y-107181000D02*
X55560000Y-107181000D01*
X58440000Y-107181000D02*
X63105000Y-107181000D01*
X50906000Y-107221000D02*
X55560000Y-107221000D01*
X58440000Y-107221000D02*
X63094000Y-107221000D01*
X50917000Y-107261000D02*
X55560000Y-107261000D01*
X58440000Y-107261000D02*
X63083000Y-107261000D01*
X50929000Y-107301000D02*
X55560000Y-107301000D01*
X58440000Y-107301000D02*
X63071000Y-107301000D01*
X50941000Y-107341000D02*
X55560000Y-107341000D01*
X58440000Y-107341000D02*
X63059000Y-107341000D01*
X50953000Y-107381000D02*
X55560000Y-107381000D01*
X58440000Y-107381000D02*
X63047000Y-107381000D01*
X50966000Y-107421000D02*
X55560000Y-107421000D01*
X58440000Y-107421000D02*
X63034000Y-107421000D01*
X50979000Y-107461000D02*
X55560000Y-107461000D01*
X58440000Y-107461000D02*
X63021000Y-107461000D01*
X50992000Y-107501000D02*
X55560000Y-107501000D01*
X58440000Y-107501000D02*
X63008000Y-107501000D01*
X51005000Y-107541000D02*
X55560000Y-107541000D01*
X58440000Y-107541000D02*
X62995000Y-107541000D01*
X51019000Y-107581000D02*
X55560000Y-107581000D01*
X58440000Y-107581000D02*
X62981000Y-107581000D01*
X51033000Y-107621000D02*
X55560000Y-107621000D01*
X58440000Y-107621000D02*
X62967000Y-107621000D01*
X51047000Y-107661000D02*
X55560000Y-107661000D01*
X58440000Y-107661000D02*
X62953000Y-107661000D01*
X51061000Y-107701000D02*
X55560000Y-107701000D01*
X58440000Y-107701000D02*
X62939000Y-107701000D01*
X51076000Y-107741000D02*
X55560000Y-107741000D01*
X58440000Y-107741000D02*
X62924000Y-107741000D01*
X51092000Y-107781000D02*
X55560000Y-107781000D01*
X58440000Y-107781000D02*
X62908000Y-107781000D01*
X51107000Y-107821000D02*
X55560000Y-107821000D01*
X58440000Y-107821000D02*
X62893000Y-107821000D01*
X51123000Y-107861000D02*
X55560000Y-107861000D01*
X58440000Y-107861000D02*
X62877000Y-107861000D01*
X51139000Y-107901000D02*
X55560000Y-107901000D01*
X58440000Y-107901000D02*
X62861000Y-107901000D01*
X51155000Y-107941000D02*
X55560000Y-107941000D01*
X58440000Y-107941000D02*
X62845000Y-107941000D01*
X51172000Y-107981000D02*
X55560000Y-107981000D01*
X58440000Y-107981000D02*
X62828000Y-107981000D01*
X51189000Y-108021000D02*
X55560000Y-108021000D01*
X58440000Y-108021000D02*
X62811000Y-108021000D01*
X51207000Y-108061000D02*
X55560000Y-108061000D01*
X58440000Y-108061000D02*
X62793000Y-108061000D01*
X51224000Y-108101000D02*
X55560000Y-108101000D01*
X58440000Y-108101000D02*
X62776000Y-108101000D01*
X51242000Y-108141000D02*
X55560000Y-108141000D01*
X58440000Y-108141000D02*
X62758000Y-108141000D01*
X51261000Y-108181000D02*
X55560000Y-108181000D01*
X58440000Y-108181000D02*
X62739000Y-108181000D01*
X51279000Y-108221000D02*
X55560000Y-108221000D01*
X58440000Y-108221000D02*
X62721000Y-108221000D01*
X51298000Y-108261000D02*
X55560000Y-108261000D01*
X58440000Y-108261000D02*
X62702000Y-108261000D01*
X51318000Y-108301000D02*
X55560000Y-108301000D01*
X58440000Y-108301000D02*
X62682000Y-108301000D01*
X51338000Y-108341000D02*
X55560000Y-108341000D01*
X58440000Y-108341000D02*
X62662000Y-108341000D01*
X51358000Y-108381000D02*
X55560000Y-108381000D01*
X58440000Y-108381000D02*
X62642000Y-108381000D01*
X51378000Y-108421000D02*
X55560000Y-108421000D01*
X58440000Y-108421000D02*
X62622000Y-108421000D01*
X51399000Y-108461000D02*
X55560000Y-108461000D01*
X58440000Y-108461000D02*
X62601000Y-108461000D01*
X51420000Y-108501000D02*
X55560000Y-108501000D01*
X58440000Y-108501000D02*
X62580000Y-108501000D01*
X51442000Y-108541000D02*
X55560000Y-108541000D01*
X58440000Y-108541000D02*
X62558000Y-108541000D01*
X51464000Y-108581000D02*
X55560000Y-108581000D01*
X58440000Y-108581000D02*
X62536000Y-108581000D01*
X51486000Y-108621000D02*
X55560000Y-108621000D01*
X58440000Y-108621000D02*
X62514000Y-108621000D01*
X51509000Y-108661000D02*
X55560000Y-108661000D01*
X58440000Y-108661000D02*
X62491000Y-108661000D01*
X51532000Y-108701000D02*
X55560000Y-108701000D01*
X58440000Y-108701000D02*
X62468000Y-108701000D01*
X51555000Y-108741000D02*
X55560000Y-108741000D01*
X58440000Y-108741000D02*
X62445000Y-108741000D01*
X51579000Y-108781000D02*
X55560000Y-108781000D01*
X58440000Y-108781000D02*
X62421000Y-108781000D01*
X51603000Y-108821000D02*
X55560000Y-108821000D01*
X58440000Y-108821000D02*
X62397000Y-108821000D01*
X51628000Y-108861000D02*
X55560000Y-108861000D01*
X58440000Y-108861000D02*
X62372000Y-108861000D01*
X51653000Y-108901000D02*
X55560000Y-108901000D01*
X58440000Y-108901000D02*
X62347000Y-108901000D01*
X51678000Y-108941000D02*
X55560000Y-108941000D01*
X58440000Y-108941000D02*
X62322000Y-108941000D01*
X51704000Y-108981000D02*
X55560000Y-108981000D01*
X58440000Y-108981000D02*
X62296000Y-108981000D01*
X51730000Y-109021000D02*
X55560000Y-109021000D01*
X58440000Y-109021000D02*
X62270000Y-109021000D01*
X51757000Y-109061000D02*
X55560000Y-109061000D01*
X58440000Y-109061000D02*
X62243000Y-109061000D01*
X51784000Y-109101000D02*
X55560000Y-109101000D01*
X58440000Y-109101000D02*
X62216000Y-109101000D01*
X51812000Y-109141000D02*
X55560000Y-109141000D01*
X58440000Y-109141000D02*
X62188000Y-109141000D01*
X51840000Y-109181000D02*
X55560000Y-109181000D01*
X58440000Y-109181000D02*
X62160000Y-109181000D01*
X51869000Y-109221000D02*
X55560000Y-109221000D01*
X58440000Y-109221000D02*
X62131000Y-109221000D01*
X51898000Y-109261000D02*
X55560000Y-109261000D01*
X58440000Y-109261000D02*
X62102000Y-109261000D01*
X51927000Y-109301000D02*
X55560000Y-109301000D01*
X58440000Y-109301000D02*
X62073000Y-109301000D01*
X51957000Y-109341000D02*
X55560000Y-109341000D01*
X58440000Y-109341000D02*
X62043000Y-109341000D01*
X51988000Y-109381000D02*
X55560000Y-109381000D01*
X58440000Y-109381000D02*
X62012000Y-109381000D01*
X52018000Y-109421000D02*
X55560000Y-109421000D01*
X58440000Y-109421000D02*
X61982000Y-109421000D01*
X52050000Y-109461000D02*
X61950000Y-109461000D01*
X52082000Y-109501000D02*
X61918000Y-109501000D01*
X52115000Y-109541000D02*
X61885000Y-109541000D01*
X52148000Y-109581000D02*
X61852000Y-109581000D01*
X52181000Y-109621000D02*
X61819000Y-109621000D01*
X52215000Y-109661000D02*
X61785000Y-109661000D01*
X52250000Y-109701000D02*
X61750000Y-109701000D01*
X52286000Y-109741000D02*
X61714000Y-109741000D01*
X52322000Y-109781000D02*
X61678000Y-109781000D01*
X52358000Y-109821000D02*
X61642000Y-109821000D01*
X52395000Y-109861000D02*
X61605000Y-109861000D01*
X52433000Y-109901000D02*
X61567000Y-109901000D01*
X52472000Y-109941000D02*
X61528000Y-109941000D01*
X52511000Y-109981000D02*
X61489000Y-109981000D01*
X52551000Y-110021000D02*
X61449000Y-110021000D01*
X52592000Y-110061000D02*
X61408000Y-110061000D01*
X52633000Y-110101000D02*
X61367000Y-110101000D01*
X52675000Y-110141000D02*
X61325000Y-110141000D01*
X52718000Y-110181000D02*
X61282000Y-110181000D01*
X52762000Y-110221000D02*
X61238000Y-110221000D01*
X52806000Y-110261000D02*
X61194000Y-110261000D01*
X52852000Y-110301000D02*
X61148000Y-110301000D01*
X52898000Y-110341000D02*
X61102000Y-110341000D01*
X52945000Y-110381000D02*
X61055000Y-110381000D01*
X52993000Y-110421000D02*
X61007000Y-110421000D01*
X53043000Y-110461000D02*
X60957000Y-110461000D01*
X53093000Y-110501000D02*
X60907000Y-110501000D01*
X53144000Y-110541000D02*
X60856000Y-110541000D01*
X53196000Y-110581000D02*
X60804000Y-110581000D01*
X53250000Y-110621000D02*
X60750000Y-110621000D01*
X53304000Y-110661000D02*
X60696000Y-110661000D01*
X53360000Y-110701000D02*
X60640000Y-110701000D01*
X53417000Y-110741000D02*
X60583000Y-110741000D01*
X53476000Y-110781000D02*
X60524000Y-110781000D01*
X53536000Y-110821000D02*
X60464000Y-110821000D01*
X53598000Y-110861000D02*
X60402000Y-110861000D01*
X53661000Y-110901000D02*
X60339000Y-110901000D01*
X53725000Y-110941000D02*
X60275000Y-110941000D01*
X53792000Y-110981000D02*
X60208000Y-110981000D01*
X53860000Y-111021000D02*
X60140000Y-111021000D01*
X53931000Y-111061000D02*
X60069000Y-111061000D01*
X54004000Y-111101000D02*
X59996000Y-111101000D01*
X54079000Y-111141000D02*
X59921000Y-111141000D01*
X54156000Y-111181000D02*
X59844000Y-111181000D01*
X54236000Y-111221000D02*
X59764000Y-111221000D01*
X54319000Y-111261000D02*
X59681000Y-111261000D01*
X54406000Y-111301000D02*
X59594000Y-111301000D01*
X54496000Y-111341000D02*
X59504000Y-111341000D01*
X54590000Y-111381000D02*
X59410000Y-111381000D01*
X54688000Y-111421000D02*
X59312000Y-111421000D01*
X54791000Y-111461000D02*
X59209000Y-111461000D01*
X54900000Y-111501000D02*
X59100000Y-111501000D01*
X55016000Y-111541000D02*
X58984000Y-111541000D01*
X55139000Y-111581000D02*
X58861000Y-111581000D01*
X55272000Y-111621000D02*
X58728000Y-111621000D01*
X55417000Y-111661000D02*
X58583000Y-111661000D01*
X55578000Y-111701000D02*
X58422000Y-111701000D01*
X55759000Y-111741000D02*
X58241000Y-111741000D01*
X55972000Y-111781000D02*
X58028000Y-111781000D01*
X56243000Y-111821000D02*
X57757000Y-111821000D01*
X56683000Y-111861000D02*
X57317000Y-111861000D01*
X53425000Y-98682918D02*
X53425000Y-99932918D01*
X52800000Y-99307918D02*
X54050000Y-99307918D01*
X117490000Y-99557936D02*
X117490000Y-100762064D01*
X119310000Y-99557936D02*
X119310000Y-100762064D01*
X165780000Y-37807936D02*
X165780000Y-39012064D01*
X163060000Y-37807936D02*
X163060000Y-39012064D01*
X177080000Y-37517936D02*
X177080000Y-38722064D01*
X179800000Y-37517936D02*
X179800000Y-38722064D01*
D10*
X162420180Y-45939760D02*
X162420180Y-46640800D01*
X162620840Y-45939760D02*
X162420180Y-45939760D01*
X165419820Y-45939760D02*
X165170900Y-45939760D01*
X165419820Y-46640800D02*
X165419820Y-45939760D01*
X162620840Y-45939760D02*
X162669100Y-45939760D01*
X174610840Y-45949760D02*
X174659100Y-45949760D01*
X177409820Y-46650800D02*
X177409820Y-45949760D01*
X177409820Y-45949760D02*
X177160900Y-45949760D01*
X174610840Y-45949760D02*
X174410180Y-45949760D01*
X174410180Y-45949760D02*
X174410180Y-46650800D01*
D11*
X162740000Y-34107017D02*
X162740000Y-34472983D01*
X166160000Y-34107017D02*
X166160000Y-34472983D01*
X180140000Y-33957017D02*
X180140000Y-34322983D01*
X176720000Y-33957017D02*
X176720000Y-34322983D01*
D10*
X190303333Y-63102380D02*
X190303333Y-63816666D01*
X190350952Y-63959523D01*
X190446190Y-64054761D01*
X190589047Y-64102380D01*
X190684285Y-64102380D01*
X189303333Y-64102380D02*
X189874761Y-64102380D01*
X189589047Y-64102380D02*
X189589047Y-63102380D01*
X189684285Y-63245238D01*
X189779523Y-63340476D01*
X189874761Y-63388095D01*
X151012857Y-50462380D02*
X151346190Y-49986190D01*
X151584285Y-50462380D02*
X151584285Y-49462380D01*
X151203333Y-49462380D01*
X151108095Y-49510000D01*
X151060476Y-49557619D01*
X151012857Y-49652857D01*
X151012857Y-49795714D01*
X151060476Y-49890952D01*
X151108095Y-49938571D01*
X151203333Y-49986190D01*
X151584285Y-49986190D01*
X150631904Y-49557619D02*
X150584285Y-49510000D01*
X150489047Y-49462380D01*
X150250952Y-49462380D01*
X150155714Y-49510000D01*
X150108095Y-49557619D01*
X150060476Y-49652857D01*
X150060476Y-49748095D01*
X150108095Y-49890952D01*
X150679523Y-50462380D01*
X150060476Y-50462380D01*
X149679523Y-49557619D02*
X149631904Y-49510000D01*
X149536666Y-49462380D01*
X149298571Y-49462380D01*
X149203333Y-49510000D01*
X149155714Y-49557619D01*
X149108095Y-49652857D01*
X149108095Y-49748095D01*
X149155714Y-49890952D01*
X149727142Y-50462380D01*
X149108095Y-50462380D01*
X125649359Y-138101199D02*
X125305907Y-138444651D01*
X125245298Y-138464854D01*
X125204892Y-138464854D01*
X125144283Y-138444651D01*
X125063470Y-138363838D01*
X125043267Y-138303229D01*
X125043267Y-138262823D01*
X125063470Y-138202214D01*
X125406922Y-137858762D01*
X124558394Y-137858762D02*
X124800831Y-138101199D01*
X124679612Y-137979980D02*
X125103877Y-137555716D01*
X125083673Y-137656732D01*
X125083673Y-137737544D01*
X125103877Y-137798153D01*
X124477582Y-137212264D02*
X124194739Y-137495107D01*
X124740222Y-137151655D02*
X124538191Y-137555716D01*
X124275551Y-137293077D01*
X115032857Y-121271428D02*
X115032857Y-120671428D01*
X114804285Y-120671428D01*
X114747142Y-120700000D01*
X114718571Y-120728571D01*
X114690000Y-120785714D01*
X114690000Y-120871428D01*
X114718571Y-120928571D01*
X114747142Y-120957142D01*
X114804285Y-120985714D01*
X115032857Y-120985714D01*
X114118571Y-121271428D02*
X114461428Y-121271428D01*
X114290000Y-121271428D02*
X114290000Y-120671428D01*
X114347142Y-120757142D01*
X114404285Y-120814285D01*
X114461428Y-120842857D01*
X140005242Y-44144731D02*
X140062385Y-44116160D01*
X140119528Y-44059017D01*
X140205242Y-43973302D01*
X140262385Y-43944731D01*
X140319528Y-43944731D01*
X140290957Y-44087588D02*
X140348100Y-44059017D01*
X140405242Y-44001874D01*
X140433814Y-43887588D01*
X140433814Y-43687588D01*
X140405242Y-43573302D01*
X140348100Y-43516160D01*
X140290957Y-43487588D01*
X140176671Y-43487588D01*
X140119528Y-43516160D01*
X140062385Y-43573302D01*
X140033814Y-43687588D01*
X140033814Y-43887588D01*
X140062385Y-44001874D01*
X140119528Y-44059017D01*
X140176671Y-44087588D01*
X140290957Y-44087588D01*
X139805242Y-43544731D02*
X139776671Y-43516160D01*
X139719528Y-43487588D01*
X139576671Y-43487588D01*
X139519528Y-43516160D01*
X139490957Y-43544731D01*
X139462385Y-43601874D01*
X139462385Y-43659017D01*
X139490957Y-43744731D01*
X139833814Y-44087588D01*
X139462385Y-44087588D01*
D15*
X110285417Y-88732791D02*
X110986457Y-89200151D01*
X110285417Y-89200151D02*
X110986457Y-88732791D01*
X110986457Y-89834425D02*
X110986457Y-89433831D01*
X110986457Y-89634128D02*
X110285417Y-89634128D01*
X110385565Y-89567362D01*
X110452331Y-89500597D01*
X110485714Y-89433831D01*
D10*
X128119047Y-99372380D02*
X128119047Y-100181904D01*
X128071428Y-100277142D01*
X128023809Y-100324761D01*
X127928571Y-100372380D01*
X127738095Y-100372380D01*
X127642857Y-100324761D01*
X127595238Y-100277142D01*
X127547619Y-100181904D01*
X127547619Y-99372380D01*
X127119047Y-100324761D02*
X126976190Y-100372380D01*
X126738095Y-100372380D01*
X126642857Y-100324761D01*
X126595238Y-100277142D01*
X126547619Y-100181904D01*
X126547619Y-100086666D01*
X126595238Y-99991428D01*
X126642857Y-99943809D01*
X126738095Y-99896190D01*
X126928571Y-99848571D01*
X127023809Y-99800952D01*
X127071428Y-99753333D01*
X127119047Y-99658095D01*
X127119047Y-99562857D01*
X127071428Y-99467619D01*
X127023809Y-99420000D01*
X126928571Y-99372380D01*
X126690476Y-99372380D01*
X126547619Y-99420000D01*
X126261904Y-99372380D02*
X125690476Y-99372380D01*
X125976190Y-100372380D02*
X125976190Y-99372380D01*
X124833333Y-100372380D02*
X125404761Y-100372380D01*
X125119047Y-100372380D02*
X125119047Y-99372380D01*
X125214285Y-99515238D01*
X125309523Y-99610476D01*
X125404761Y-99658095D01*
X96583333Y-114266666D02*
X96916666Y-114266666D01*
X96216666Y-114033333D02*
X96583333Y-114266666D01*
X96216666Y-114500000D01*
X96916666Y-115100000D02*
X96916666Y-114700000D01*
X96916666Y-114900000D02*
X96216666Y-114900000D01*
X96316666Y-114833333D01*
X96383333Y-114766666D01*
X96416666Y-114700000D01*
X137293428Y-123622142D02*
X137779142Y-123622142D01*
X137836285Y-123650714D01*
X137864857Y-123679285D01*
X137893428Y-123736428D01*
X137893428Y-123850714D01*
X137864857Y-123907857D01*
X137836285Y-123936428D01*
X137779142Y-123965000D01*
X137293428Y-123965000D01*
X137893428Y-124565000D02*
X137893428Y-124222142D01*
X137893428Y-124393571D02*
X137293428Y-124393571D01*
X137379142Y-124336428D01*
X137436285Y-124279285D01*
X137464857Y-124222142D01*
X137293428Y-125107857D02*
X137293428Y-124822142D01*
X137579142Y-124793571D01*
X137550571Y-124822142D01*
X137522000Y-124879285D01*
X137522000Y-125022142D01*
X137550571Y-125079285D01*
X137579142Y-125107857D01*
X137636285Y-125136428D01*
X137779142Y-125136428D01*
X137836285Y-125107857D01*
X137864857Y-125079285D01*
X137893428Y-125022142D01*
X137893428Y-124879285D01*
X137864857Y-124822142D01*
X137836285Y-124793571D01*
X161571428Y-105657142D02*
X162057142Y-105657142D01*
X162114285Y-105685714D01*
X162142857Y-105714285D01*
X162171428Y-105771428D01*
X162171428Y-105885714D01*
X162142857Y-105942857D01*
X162114285Y-105971428D01*
X162057142Y-106000000D01*
X161571428Y-106000000D01*
X162171428Y-106600000D02*
X162171428Y-106257142D01*
X162171428Y-106428571D02*
X161571428Y-106428571D01*
X161657142Y-106371428D01*
X161714285Y-106314285D01*
X161742857Y-106257142D01*
X161571428Y-106800000D02*
X161571428Y-107171428D01*
X161800000Y-106971428D01*
X161800000Y-107057142D01*
X161828571Y-107114285D01*
X161857142Y-107142857D01*
X161914285Y-107171428D01*
X162057142Y-107171428D01*
X162114285Y-107142857D01*
X162142857Y-107114285D01*
X162171428Y-107057142D01*
X162171428Y-106885714D01*
X162142857Y-106828571D01*
X162114285Y-106800000D01*
X167116666Y-104766666D02*
X167683333Y-104766666D01*
X167750000Y-104800000D01*
X167783333Y-104833333D01*
X167816666Y-104900000D01*
X167816666Y-105033333D01*
X167783333Y-105100000D01*
X167750000Y-105133333D01*
X167683333Y-105166666D01*
X167116666Y-105166666D01*
X167816666Y-105866666D02*
X167816666Y-105466666D01*
X167816666Y-105666666D02*
X167116666Y-105666666D01*
X167216666Y-105600000D01*
X167283333Y-105533333D01*
X167316666Y-105466666D01*
X83742857Y-87671428D02*
X83742857Y-88157142D01*
X83714285Y-88214285D01*
X83685714Y-88242857D01*
X83628571Y-88271428D01*
X83514285Y-88271428D01*
X83457142Y-88242857D01*
X83428571Y-88214285D01*
X83400000Y-88157142D01*
X83400000Y-87671428D01*
X82800000Y-88271428D02*
X83142857Y-88271428D01*
X82971428Y-88271428D02*
X82971428Y-87671428D01*
X83028571Y-87757142D01*
X83085714Y-87814285D01*
X83142857Y-87842857D01*
X82600000Y-87671428D02*
X82200000Y-87671428D01*
X82457142Y-88271428D01*
X151987142Y-44190611D02*
X152044285Y-44162040D01*
X152101428Y-44104897D01*
X152187142Y-44019182D01*
X152244285Y-43990611D01*
X152301428Y-43990611D01*
X152272857Y-44133468D02*
X152330000Y-44104897D01*
X152387142Y-44047754D01*
X152415714Y-43933468D01*
X152415714Y-43733468D01*
X152387142Y-43619182D01*
X152330000Y-43562040D01*
X152272857Y-43533468D01*
X152158571Y-43533468D01*
X152101428Y-43562040D01*
X152044285Y-43619182D01*
X152015714Y-43733468D01*
X152015714Y-43933468D01*
X152044285Y-44047754D01*
X152101428Y-44104897D01*
X152158571Y-44133468D01*
X152272857Y-44133468D01*
X151444285Y-44133468D02*
X151787142Y-44133468D01*
X151615714Y-44133468D02*
X151615714Y-43533468D01*
X151672857Y-43619182D01*
X151730000Y-43676325D01*
X151787142Y-43704897D01*
X105919928Y-112265242D02*
X106405642Y-112265242D01*
X106462785Y-112293814D01*
X106491357Y-112322385D01*
X106519928Y-112379528D01*
X106519928Y-112493814D01*
X106491357Y-112550957D01*
X106462785Y-112579528D01*
X106405642Y-112608100D01*
X105919928Y-112608100D01*
X106519928Y-113208100D02*
X106519928Y-112865242D01*
X106519928Y-113036671D02*
X105919928Y-113036671D01*
X106005642Y-112979528D01*
X106062785Y-112922385D01*
X106091357Y-112865242D01*
X105919928Y-113579528D02*
X105919928Y-113636671D01*
X105948500Y-113693814D01*
X105977071Y-113722385D01*
X106034214Y-113750957D01*
X106148500Y-113779528D01*
X106291357Y-113779528D01*
X106405642Y-113750957D01*
X106462785Y-113722385D01*
X106491357Y-113693814D01*
X106519928Y-113636671D01*
X106519928Y-113579528D01*
X106491357Y-113522385D01*
X106462785Y-113493814D01*
X106405642Y-113465242D01*
X106291357Y-113436671D01*
X106148500Y-113436671D01*
X106034214Y-113465242D01*
X105977071Y-113493814D01*
X105948500Y-113522385D01*
X105919928Y-113579528D01*
X116937142Y-99517142D02*
X116984761Y-99469523D01*
X117032380Y-99326666D01*
X117032380Y-99231428D01*
X116984761Y-99088571D01*
X116889523Y-98993333D01*
X116794285Y-98945714D01*
X116603809Y-98898095D01*
X116460952Y-98898095D01*
X116270476Y-98945714D01*
X116175238Y-98993333D01*
X116080000Y-99088571D01*
X116032380Y-99231428D01*
X116032380Y-99326666D01*
X116080000Y-99469523D01*
X116127619Y-99517142D01*
X116365714Y-100374285D02*
X117032380Y-100374285D01*
X115984761Y-100136190D02*
X116699047Y-99898095D01*
X116699047Y-100517142D01*
X116032380Y-101088571D02*
X116032380Y-101183809D01*
X116080000Y-101279047D01*
X116127619Y-101326666D01*
X116222857Y-101374285D01*
X116413333Y-101421904D01*
X116651428Y-101421904D01*
X116841904Y-101374285D01*
X116937142Y-101326666D01*
X116984761Y-101279047D01*
X117032380Y-101183809D01*
X117032380Y-101088571D01*
X116984761Y-100993333D01*
X116937142Y-100945714D01*
X116841904Y-100898095D01*
X116651428Y-100850476D01*
X116413333Y-100850476D01*
X116222857Y-100898095D01*
X116127619Y-100945714D01*
X116080000Y-100993333D01*
X116032380Y-101088571D01*
X162497142Y-37767142D02*
X162544761Y-37719523D01*
X162592380Y-37576666D01*
X162592380Y-37481428D01*
X162544761Y-37338571D01*
X162449523Y-37243333D01*
X162354285Y-37195714D01*
X162163809Y-37148095D01*
X162020952Y-37148095D01*
X161830476Y-37195714D01*
X161735238Y-37243333D01*
X161640000Y-37338571D01*
X161592380Y-37481428D01*
X161592380Y-37576666D01*
X161640000Y-37719523D01*
X161687619Y-37767142D01*
X161592380Y-38100476D02*
X161592380Y-38767142D01*
X162592380Y-38338571D01*
X161592380Y-39576666D02*
X161592380Y-39386190D01*
X161640000Y-39290952D01*
X161687619Y-39243333D01*
X161830476Y-39148095D01*
X162020952Y-39100476D01*
X162401904Y-39100476D01*
X162497142Y-39148095D01*
X162544761Y-39195714D01*
X162592380Y-39290952D01*
X162592380Y-39481428D01*
X162544761Y-39576666D01*
X162497142Y-39624285D01*
X162401904Y-39671904D01*
X162163809Y-39671904D01*
X162068571Y-39624285D01*
X162020952Y-39576666D01*
X161973333Y-39481428D01*
X161973333Y-39290952D01*
X162020952Y-39195714D01*
X162068571Y-39148095D01*
X162163809Y-39100476D01*
X176517142Y-37477142D02*
X176564761Y-37429523D01*
X176612380Y-37286666D01*
X176612380Y-37191428D01*
X176564761Y-37048571D01*
X176469523Y-36953333D01*
X176374285Y-36905714D01*
X176183809Y-36858095D01*
X176040952Y-36858095D01*
X175850476Y-36905714D01*
X175755238Y-36953333D01*
X175660000Y-37048571D01*
X175612380Y-37191428D01*
X175612380Y-37286666D01*
X175660000Y-37429523D01*
X175707619Y-37477142D01*
X175612380Y-37810476D02*
X175612380Y-38477142D01*
X176612380Y-38048571D01*
X175612380Y-38762857D02*
X175612380Y-39429523D01*
X176612380Y-39000952D01*
D16*
X164065142Y-43614571D02*
X164210285Y-43542000D01*
X164355428Y-43396857D01*
X164573142Y-43179142D01*
X164718285Y-43106571D01*
X164863428Y-43106571D01*
X164790857Y-43469428D02*
X164936000Y-43396857D01*
X165081142Y-43251714D01*
X165153714Y-42961428D01*
X165153714Y-42453428D01*
X165081142Y-42163142D01*
X164936000Y-42018000D01*
X164790857Y-41945428D01*
X164500571Y-41945428D01*
X164355428Y-42018000D01*
X164210285Y-42163142D01*
X164137714Y-42453428D01*
X164137714Y-42961428D01*
X164210285Y-43251714D01*
X164355428Y-43396857D01*
X164500571Y-43469428D01*
X164790857Y-43469428D01*
X162831428Y-41945428D02*
X163121714Y-41945428D01*
X163266857Y-42018000D01*
X163339428Y-42090571D01*
X163484571Y-42308285D01*
X163557142Y-42598571D01*
X163557142Y-43179142D01*
X163484571Y-43324285D01*
X163412000Y-43396857D01*
X163266857Y-43469428D01*
X162976571Y-43469428D01*
X162831428Y-43396857D01*
X162758857Y-43324285D01*
X162686285Y-43179142D01*
X162686285Y-42816285D01*
X162758857Y-42671142D01*
X162831428Y-42598571D01*
X162976571Y-42526000D01*
X163266857Y-42526000D01*
X163412000Y-42598571D01*
X163484571Y-42671142D01*
X163557142Y-42816285D01*
X176055142Y-43624571D02*
X176200285Y-43552000D01*
X176345428Y-43406857D01*
X176563142Y-43189142D01*
X176708285Y-43116571D01*
X176853428Y-43116571D01*
X176780857Y-43479428D02*
X176926000Y-43406857D01*
X177071142Y-43261714D01*
X177143714Y-42971428D01*
X177143714Y-42463428D01*
X177071142Y-42173142D01*
X176926000Y-42028000D01*
X176780857Y-41955428D01*
X176490571Y-41955428D01*
X176345428Y-42028000D01*
X176200285Y-42173142D01*
X176127714Y-42463428D01*
X176127714Y-42971428D01*
X176200285Y-43261714D01*
X176345428Y-43406857D01*
X176490571Y-43479428D01*
X176780857Y-43479428D01*
X175619714Y-41955428D02*
X174603714Y-41955428D01*
X175256857Y-43479428D01*
D10*
X162252380Y-33647142D02*
X161776190Y-33313809D01*
X162252380Y-33075714D02*
X161252380Y-33075714D01*
X161252380Y-33456666D01*
X161300000Y-33551904D01*
X161347619Y-33599523D01*
X161442857Y-33647142D01*
X161585714Y-33647142D01*
X161680952Y-33599523D01*
X161728571Y-33551904D01*
X161776190Y-33456666D01*
X161776190Y-33075714D01*
X161252380Y-34551904D02*
X161252380Y-34075714D01*
X161728571Y-34028095D01*
X161680952Y-34075714D01*
X161633333Y-34170952D01*
X161633333Y-34409047D01*
X161680952Y-34504285D01*
X161728571Y-34551904D01*
X161823809Y-34599523D01*
X162061904Y-34599523D01*
X162157142Y-34551904D01*
X162204761Y-34504285D01*
X162252380Y-34409047D01*
X162252380Y-34170952D01*
X162204761Y-34075714D01*
X162157142Y-34028095D01*
X161252380Y-35456666D02*
X161252380Y-35266190D01*
X161300000Y-35170952D01*
X161347619Y-35123333D01*
X161490476Y-35028095D01*
X161680952Y-34980476D01*
X162061904Y-34980476D01*
X162157142Y-35028095D01*
X162204761Y-35075714D01*
X162252380Y-35170952D01*
X162252380Y-35361428D01*
X162204761Y-35456666D01*
X162157142Y-35504285D01*
X162061904Y-35551904D01*
X161823809Y-35551904D01*
X161728571Y-35504285D01*
X161680952Y-35456666D01*
X161633333Y-35361428D01*
X161633333Y-35170952D01*
X161680952Y-35075714D01*
X161728571Y-35028095D01*
X161823809Y-34980476D01*
X160932380Y-45517142D02*
X160456190Y-45183809D01*
X160932380Y-44945714D02*
X159932380Y-44945714D01*
X159932380Y-45326666D01*
X159980000Y-45421904D01*
X160027619Y-45469523D01*
X160122857Y-45517142D01*
X160265714Y-45517142D01*
X160360952Y-45469523D01*
X160408571Y-45421904D01*
X160456190Y-45326666D01*
X160456190Y-44945714D01*
X159932380Y-46421904D02*
X159932380Y-45945714D01*
X160408571Y-45898095D01*
X160360952Y-45945714D01*
X160313333Y-46040952D01*
X160313333Y-46279047D01*
X160360952Y-46374285D01*
X160408571Y-46421904D01*
X160503809Y-46469523D01*
X160741904Y-46469523D01*
X160837142Y-46421904D01*
X160884761Y-46374285D01*
X160932380Y-46279047D01*
X160932380Y-46040952D01*
X160884761Y-45945714D01*
X160837142Y-45898095D01*
X159932380Y-46802857D02*
X159932380Y-47469523D01*
X160932380Y-47040952D01*
X163112857Y-50442380D02*
X163446190Y-49966190D01*
X163684285Y-50442380D02*
X163684285Y-49442380D01*
X163303333Y-49442380D01*
X163208095Y-49490000D01*
X163160476Y-49537619D01*
X163112857Y-49632857D01*
X163112857Y-49775714D01*
X163160476Y-49870952D01*
X163208095Y-49918571D01*
X163303333Y-49966190D01*
X163684285Y-49966190D01*
X162208095Y-49442380D02*
X162684285Y-49442380D01*
X162731904Y-49918571D01*
X162684285Y-49870952D01*
X162589047Y-49823333D01*
X162350952Y-49823333D01*
X162255714Y-49870952D01*
X162208095Y-49918571D01*
X162160476Y-50013809D01*
X162160476Y-50251904D01*
X162208095Y-50347142D01*
X162255714Y-50394761D01*
X162350952Y-50442380D01*
X162589047Y-50442380D01*
X162684285Y-50394761D01*
X162731904Y-50347142D01*
X161589047Y-49870952D02*
X161684285Y-49823333D01*
X161731904Y-49775714D01*
X161779523Y-49680476D01*
X161779523Y-49632857D01*
X161731904Y-49537619D01*
X161684285Y-49490000D01*
X161589047Y-49442380D01*
X161398571Y-49442380D01*
X161303333Y-49490000D01*
X161255714Y-49537619D01*
X161208095Y-49632857D01*
X161208095Y-49680476D01*
X161255714Y-49775714D01*
X161303333Y-49823333D01*
X161398571Y-49870952D01*
X161589047Y-49870952D01*
X161684285Y-49918571D01*
X161731904Y-49966190D01*
X161779523Y-50061428D01*
X161779523Y-50251904D01*
X161731904Y-50347142D01*
X161684285Y-50394761D01*
X161589047Y-50442380D01*
X161398571Y-50442380D01*
X161303333Y-50394761D01*
X161255714Y-50347142D01*
X161208095Y-50251904D01*
X161208095Y-50061428D01*
X161255714Y-49966190D01*
X161303333Y-49918571D01*
X161398571Y-49870952D01*
X176232380Y-33497142D02*
X175756190Y-33163809D01*
X176232380Y-32925714D02*
X175232380Y-32925714D01*
X175232380Y-33306666D01*
X175280000Y-33401904D01*
X175327619Y-33449523D01*
X175422857Y-33497142D01*
X175565714Y-33497142D01*
X175660952Y-33449523D01*
X175708571Y-33401904D01*
X175756190Y-33306666D01*
X175756190Y-32925714D01*
X175232380Y-34401904D02*
X175232380Y-33925714D01*
X175708571Y-33878095D01*
X175660952Y-33925714D01*
X175613333Y-34020952D01*
X175613333Y-34259047D01*
X175660952Y-34354285D01*
X175708571Y-34401904D01*
X175803809Y-34449523D01*
X176041904Y-34449523D01*
X176137142Y-34401904D01*
X176184761Y-34354285D01*
X176232380Y-34259047D01*
X176232380Y-34020952D01*
X176184761Y-33925714D01*
X176137142Y-33878095D01*
X176232380Y-34925714D02*
X176232380Y-35116190D01*
X176184761Y-35211428D01*
X176137142Y-35259047D01*
X175994285Y-35354285D01*
X175803809Y-35401904D01*
X175422857Y-35401904D01*
X175327619Y-35354285D01*
X175280000Y-35306666D01*
X175232380Y-35211428D01*
X175232380Y-35020952D01*
X175280000Y-34925714D01*
X175327619Y-34878095D01*
X175422857Y-34830476D01*
X175660952Y-34830476D01*
X175756190Y-34878095D01*
X175803809Y-34925714D01*
X175851428Y-35020952D01*
X175851428Y-35211428D01*
X175803809Y-35306666D01*
X175756190Y-35354285D01*
X175660952Y-35401904D01*
X172902380Y-45447142D02*
X172426190Y-45113809D01*
X172902380Y-44875714D02*
X171902380Y-44875714D01*
X171902380Y-45256666D01*
X171950000Y-45351904D01*
X171997619Y-45399523D01*
X172092857Y-45447142D01*
X172235714Y-45447142D01*
X172330952Y-45399523D01*
X172378571Y-45351904D01*
X172426190Y-45256666D01*
X172426190Y-44875714D01*
X171902380Y-46304285D02*
X171902380Y-46113809D01*
X171950000Y-46018571D01*
X171997619Y-45970952D01*
X172140476Y-45875714D01*
X172330952Y-45828095D01*
X172711904Y-45828095D01*
X172807142Y-45875714D01*
X172854761Y-45923333D01*
X172902380Y-46018571D01*
X172902380Y-46209047D01*
X172854761Y-46304285D01*
X172807142Y-46351904D01*
X172711904Y-46399523D01*
X172473809Y-46399523D01*
X172378571Y-46351904D01*
X172330952Y-46304285D01*
X172283333Y-46209047D01*
X172283333Y-46018571D01*
X172330952Y-45923333D01*
X172378571Y-45875714D01*
X172473809Y-45828095D01*
X171902380Y-47018571D02*
X171902380Y-47113809D01*
X171950000Y-47209047D01*
X171997619Y-47256666D01*
X172092857Y-47304285D01*
X172283333Y-47351904D01*
X172521428Y-47351904D01*
X172711904Y-47304285D01*
X172807142Y-47256666D01*
X172854761Y-47209047D01*
X172902380Y-47113809D01*
X172902380Y-47018571D01*
X172854761Y-46923333D01*
X172807142Y-46875714D01*
X172711904Y-46828095D01*
X172521428Y-46780476D01*
X172283333Y-46780476D01*
X172092857Y-46828095D01*
X171997619Y-46875714D01*
X171950000Y-46923333D01*
X171902380Y-47018571D01*
X175112857Y-50602380D02*
X175446190Y-50126190D01*
X175684285Y-50602380D02*
X175684285Y-49602380D01*
X175303333Y-49602380D01*
X175208095Y-49650000D01*
X175160476Y-49697619D01*
X175112857Y-49792857D01*
X175112857Y-49935714D01*
X175160476Y-50030952D01*
X175208095Y-50078571D01*
X175303333Y-50126190D01*
X175684285Y-50126190D01*
X174255714Y-49602380D02*
X174446190Y-49602380D01*
X174541428Y-49650000D01*
X174589047Y-49697619D01*
X174684285Y-49840476D01*
X174731904Y-50030952D01*
X174731904Y-50411904D01*
X174684285Y-50507142D01*
X174636666Y-50554761D01*
X174541428Y-50602380D01*
X174350952Y-50602380D01*
X174255714Y-50554761D01*
X174208095Y-50507142D01*
X174160476Y-50411904D01*
X174160476Y-50173809D01*
X174208095Y-50078571D01*
X174255714Y-50030952D01*
X174350952Y-49983333D01*
X174541428Y-49983333D01*
X174636666Y-50030952D01*
X174684285Y-50078571D01*
X174731904Y-50173809D01*
X173208095Y-50602380D02*
X173779523Y-50602380D01*
X173493809Y-50602380D02*
X173493809Y-49602380D01*
X173589047Y-49745238D01*
X173684285Y-49840476D01*
X173779523Y-49888095D01*
X139202857Y-50502380D02*
X139536190Y-50026190D01*
X139774285Y-50502380D02*
X139774285Y-49502380D01*
X139393333Y-49502380D01*
X139298095Y-49550000D01*
X139250476Y-49597619D01*
X139202857Y-49692857D01*
X139202857Y-49835714D01*
X139250476Y-49930952D01*
X139298095Y-49978571D01*
X139393333Y-50026190D01*
X139774285Y-50026190D01*
X138821904Y-49597619D02*
X138774285Y-49550000D01*
X138679047Y-49502380D01*
X138440952Y-49502380D01*
X138345714Y-49550000D01*
X138298095Y-49597619D01*
X138250476Y-49692857D01*
X138250476Y-49788095D01*
X138298095Y-49930952D01*
X138869523Y-50502380D01*
X138250476Y-50502380D01*
X137917142Y-49502380D02*
X137298095Y-49502380D01*
X137631428Y-49883333D01*
X137488571Y-49883333D01*
X137393333Y-49930952D01*
X137345714Y-49978571D01*
X137298095Y-50073809D01*
X137298095Y-50311904D01*
X137345714Y-50407142D01*
X137393333Y-50454761D01*
X137488571Y-50502380D01*
X137774285Y-50502380D01*
X137869523Y-50454761D01*
X137917142Y-50407142D01*
X78092857Y-88002380D02*
X78426190Y-87526190D01*
X78664285Y-88002380D02*
X78664285Y-87002380D01*
X78283333Y-87002380D01*
X78188095Y-87050000D01*
X78140476Y-87097619D01*
X78092857Y-87192857D01*
X78092857Y-87335714D01*
X78140476Y-87430952D01*
X78188095Y-87478571D01*
X78283333Y-87526190D01*
X78664285Y-87526190D01*
X77235714Y-87002380D02*
X77426190Y-87002380D01*
X77521428Y-87050000D01*
X77569047Y-87097619D01*
X77664285Y-87240476D01*
X77711904Y-87430952D01*
X77711904Y-87811904D01*
X77664285Y-87907142D01*
X77616666Y-87954761D01*
X77521428Y-88002380D01*
X77330952Y-88002380D01*
X77235714Y-87954761D01*
X77188095Y-87907142D01*
X77140476Y-87811904D01*
X77140476Y-87573809D01*
X77188095Y-87478571D01*
X77235714Y-87430952D01*
X77330952Y-87383333D01*
X77521428Y-87383333D01*
X77616666Y-87430952D01*
X77664285Y-87478571D01*
X77711904Y-87573809D01*
X76807142Y-87002380D02*
X76188095Y-87002380D01*
X76521428Y-87383333D01*
X76378571Y-87383333D01*
X76283333Y-87430952D01*
X76235714Y-87478571D01*
X76188095Y-87573809D01*
X76188095Y-87811904D01*
X76235714Y-87907142D01*
X76283333Y-87954761D01*
X76378571Y-88002380D01*
X76664285Y-88002380D01*
X76759523Y-87954761D01*
X76807142Y-87907142D01*
M02*
