G04 #@! TF.GenerationSoftware,KiCad,Pcbnew,5.1.12-84ad8e8a86~92~ubuntu20.04.1*
G04 #@! TF.CreationDate,2022-01-25T20:05:45-05:00*
G04 #@! TF.ProjectId,ABPDANT015PGAA5_sensor_module,41425044-414e-4543-9031-355047414135,rev?*
G04 #@! TF.SameCoordinates,Original*
G04 #@! TF.FileFunction,Legend,Top*
G04 #@! TF.FilePolarity,Positive*
%FSLAX46Y46*%
G04 Gerber Fmt 4.6, Leading zero omitted, Abs format (unit mm)*
G04 Created by KiCad (PCBNEW 5.1.12-84ad8e8a86~92~ubuntu20.04.1) date 2022-01-25 20:05:45*
%MOMM*%
%LPD*%
G01*
G04 APERTURE LIST*
%ADD10C,0.150000*%
%ADD11C,0.120000*%
G04 APERTURE END LIST*
D10*
X106206666Y-34896666D02*
X106682857Y-34896666D01*
X106111428Y-35182380D02*
X106444761Y-34182380D01*
X106778095Y-35182380D01*
X107444761Y-34658571D02*
X107587619Y-34706190D01*
X107635238Y-34753809D01*
X107682857Y-34849047D01*
X107682857Y-34991904D01*
X107635238Y-35087142D01*
X107587619Y-35134761D01*
X107492380Y-35182380D01*
X107111428Y-35182380D01*
X107111428Y-34182380D01*
X107444761Y-34182380D01*
X107540000Y-34230000D01*
X107587619Y-34277619D01*
X107635238Y-34372857D01*
X107635238Y-34468095D01*
X107587619Y-34563333D01*
X107540000Y-34610952D01*
X107444761Y-34658571D01*
X107111428Y-34658571D01*
X108111428Y-35182380D02*
X108111428Y-34182380D01*
X108492380Y-34182380D01*
X108587619Y-34230000D01*
X108635238Y-34277619D01*
X108682857Y-34372857D01*
X108682857Y-34515714D01*
X108635238Y-34610952D01*
X108587619Y-34658571D01*
X108492380Y-34706190D01*
X108111428Y-34706190D01*
X109111428Y-35182380D02*
X109111428Y-34182380D01*
X109349523Y-34182380D01*
X109492380Y-34230000D01*
X109587619Y-34325238D01*
X109635238Y-34420476D01*
X109682857Y-34610952D01*
X109682857Y-34753809D01*
X109635238Y-34944285D01*
X109587619Y-35039523D01*
X109492380Y-35134761D01*
X109349523Y-35182380D01*
X109111428Y-35182380D01*
X110063809Y-34896666D02*
X110540000Y-34896666D01*
X109968571Y-35182380D02*
X110301904Y-34182380D01*
X110635238Y-35182380D01*
X110968571Y-35182380D02*
X110968571Y-34182380D01*
X111540000Y-35182380D01*
X111540000Y-34182380D01*
X111873333Y-34182380D02*
X112444761Y-34182380D01*
X112159047Y-35182380D02*
X112159047Y-34182380D01*
X112968571Y-34182380D02*
X113063809Y-34182380D01*
X113159047Y-34230000D01*
X113206666Y-34277619D01*
X113254285Y-34372857D01*
X113301904Y-34563333D01*
X113301904Y-34801428D01*
X113254285Y-34991904D01*
X113206666Y-35087142D01*
X113159047Y-35134761D01*
X113063809Y-35182380D01*
X112968571Y-35182380D01*
X112873333Y-35134761D01*
X112825714Y-35087142D01*
X112778095Y-34991904D01*
X112730476Y-34801428D01*
X112730476Y-34563333D01*
X112778095Y-34372857D01*
X112825714Y-34277619D01*
X112873333Y-34230000D01*
X112968571Y-34182380D01*
X114254285Y-35182380D02*
X113682857Y-35182380D01*
X113968571Y-35182380D02*
X113968571Y-34182380D01*
X113873333Y-34325238D01*
X113778095Y-34420476D01*
X113682857Y-34468095D01*
X115159047Y-34182380D02*
X114682857Y-34182380D01*
X114635238Y-34658571D01*
X114682857Y-34610952D01*
X114778095Y-34563333D01*
X115016190Y-34563333D01*
X115111428Y-34610952D01*
X115159047Y-34658571D01*
X115206666Y-34753809D01*
X115206666Y-34991904D01*
X115159047Y-35087142D01*
X115111428Y-35134761D01*
X115016190Y-35182380D01*
X114778095Y-35182380D01*
X114682857Y-35134761D01*
X114635238Y-35087142D01*
X115635238Y-35182380D02*
X115635238Y-34182380D01*
X116016190Y-34182380D01*
X116111428Y-34230000D01*
X116159047Y-34277619D01*
X116206666Y-34372857D01*
X116206666Y-34515714D01*
X116159047Y-34610952D01*
X116111428Y-34658571D01*
X116016190Y-34706190D01*
X115635238Y-34706190D01*
X117159047Y-34230000D02*
X117063809Y-34182380D01*
X116920952Y-34182380D01*
X116778095Y-34230000D01*
X116682857Y-34325238D01*
X116635238Y-34420476D01*
X116587619Y-34610952D01*
X116587619Y-34753809D01*
X116635238Y-34944285D01*
X116682857Y-35039523D01*
X116778095Y-35134761D01*
X116920952Y-35182380D01*
X117016190Y-35182380D01*
X117159047Y-35134761D01*
X117206666Y-35087142D01*
X117206666Y-34753809D01*
X117016190Y-34753809D01*
X117587619Y-34896666D02*
X118063809Y-34896666D01*
X117492380Y-35182380D02*
X117825714Y-34182380D01*
X118159047Y-35182380D01*
X118444761Y-34896666D02*
X118920952Y-34896666D01*
X118349523Y-35182380D02*
X118682857Y-34182380D01*
X119016190Y-35182380D01*
X119825714Y-34182380D02*
X119349523Y-34182380D01*
X119301904Y-34658571D01*
X119349523Y-34610952D01*
X119444761Y-34563333D01*
X119682857Y-34563333D01*
X119778095Y-34610952D01*
X119825714Y-34658571D01*
X119873333Y-34753809D01*
X119873333Y-34991904D01*
X119825714Y-35087142D01*
X119778095Y-35134761D01*
X119682857Y-35182380D01*
X119444761Y-35182380D01*
X119349523Y-35134761D01*
X119301904Y-35087142D01*
D11*
X113840000Y-45030000D02*
G75*
G03*
X113840000Y-45030000I-1370000J0D01*
G01*
X113425000Y-45030000D02*
G75*
G03*
X113425000Y-45030000I-955000J0D01*
G01*
X113630000Y-45030000D02*
G75*
G03*
X113630000Y-45030000I-1160000J0D01*
G01*
X118970000Y-41030000D02*
X118970000Y-49030000D01*
X105970000Y-49030000D02*
X105970000Y-41030000D01*
X105970000Y-41030000D02*
X118970000Y-41030000D01*
X115620000Y-42530000D02*
X115620000Y-48680000D01*
X115620000Y-48680000D02*
X109320000Y-48680000D01*
X109320000Y-48680000D02*
X109320000Y-41380000D01*
X109320000Y-41380000D02*
X114470000Y-41380000D01*
X114470000Y-41380000D02*
X115620000Y-42530000D01*
X118970000Y-49030000D02*
X105970000Y-49030000D01*
D10*
X106024775Y-49406560D02*
X106024775Y-50216084D01*
X106072394Y-50311322D01*
X106120013Y-50358941D01*
X106215251Y-50406560D01*
X106405727Y-50406560D01*
X106500965Y-50358941D01*
X106548584Y-50311322D01*
X106596203Y-50216084D01*
X106596203Y-49406560D01*
X107596203Y-50406560D02*
X107024775Y-50406560D01*
X107310489Y-50406560D02*
X107310489Y-49406560D01*
X107215251Y-49549418D01*
X107120013Y-49644656D01*
X107024775Y-49692275D01*
M02*
