G04 #@! TF.GenerationSoftware,KiCad,Pcbnew,5.1.12-84ad8e8a86~92~ubuntu20.04.1*
G04 #@! TF.CreationDate,2022-01-25T20:05:45-05:00*
G04 #@! TF.ProjectId,ABPDANT015PGAA5_sensor_module,41425044-414e-4543-9031-355047414135,rev?*
G04 #@! TF.SameCoordinates,Original*
G04 #@! TF.FileFunction,Soldermask,Bot*
G04 #@! TF.FilePolarity,Negative*
%FSLAX46Y46*%
G04 Gerber Fmt 4.6, Leading zero omitted, Abs format (unit mm)*
G04 Created by KiCad (PCBNEW 5.1.12-84ad8e8a86~92~ubuntu20.04.1) date 2022-01-25 20:05:45*
%MOMM*%
%LPD*%
G01*
G04 APERTURE LIST*
%ADD10C,1.524000*%
%ADD11R,1.000000X3.150000*%
%ADD12R,1.450000X0.450000*%
G04 APERTURE END LIST*
D10*
X118095000Y-42490000D03*
X118095000Y-45030000D03*
X118095000Y-47570000D03*
X106845000Y-47570000D03*
X106845000Y-45030000D03*
X106845000Y-42490000D03*
G36*
G01*
X105021090Y-42949580D02*
X104508590Y-42949580D01*
G75*
G02*
X104289840Y-42730830I0J218750D01*
G01*
X104289840Y-42293330D01*
G75*
G02*
X104508590Y-42074580I218750J0D01*
G01*
X105021090Y-42074580D01*
G75*
G02*
X105239840Y-42293330I0J-218750D01*
G01*
X105239840Y-42730830D01*
G75*
G02*
X105021090Y-42949580I-218750J0D01*
G01*
G37*
G36*
G01*
X105021090Y-41374580D02*
X104508590Y-41374580D01*
G75*
G02*
X104289840Y-41155830I0J218750D01*
G01*
X104289840Y-40718330D01*
G75*
G02*
X104508590Y-40499580I218750J0D01*
G01*
X105021090Y-40499580D01*
G75*
G02*
X105239840Y-40718330I0J-218750D01*
G01*
X105239840Y-41155830D01*
G75*
G02*
X105021090Y-41374580I-218750J0D01*
G01*
G37*
G36*
G01*
X120426190Y-46472360D02*
X119913690Y-46472360D01*
G75*
G02*
X119694940Y-46253610I0J218750D01*
G01*
X119694940Y-45816110D01*
G75*
G02*
X119913690Y-45597360I218750J0D01*
G01*
X120426190Y-45597360D01*
G75*
G02*
X120644940Y-45816110I0J-218750D01*
G01*
X120644940Y-46253610D01*
G75*
G02*
X120426190Y-46472360I-218750J0D01*
G01*
G37*
G36*
G01*
X120426190Y-48047360D02*
X119913690Y-48047360D01*
G75*
G02*
X119694940Y-47828610I0J218750D01*
G01*
X119694940Y-47391110D01*
G75*
G02*
X119913690Y-47172360I218750J0D01*
G01*
X120426190Y-47172360D01*
G75*
G02*
X120644940Y-47391110I0J-218750D01*
G01*
X120644940Y-47828610D01*
G75*
G02*
X120426190Y-48047360I-218750J0D01*
G01*
G37*
G36*
G01*
X112572080Y-42587890D02*
X112572080Y-42075390D01*
G75*
G02*
X112790830Y-41856640I218750J0D01*
G01*
X113228330Y-41856640D01*
G75*
G02*
X113447080Y-42075390I0J-218750D01*
G01*
X113447080Y-42587890D01*
G75*
G02*
X113228330Y-42806640I-218750J0D01*
G01*
X112790830Y-42806640D01*
G75*
G02*
X112572080Y-42587890I0J218750D01*
G01*
G37*
G36*
G01*
X114147080Y-42587890D02*
X114147080Y-42075390D01*
G75*
G02*
X114365830Y-41856640I218750J0D01*
G01*
X114803330Y-41856640D01*
G75*
G02*
X115022080Y-42075390I0J-218750D01*
G01*
X115022080Y-42587890D01*
G75*
G02*
X114803330Y-42806640I-218750J0D01*
G01*
X114365830Y-42806640D01*
G75*
G02*
X114147080Y-42587890I0J218750D01*
G01*
G37*
G36*
G01*
X114159780Y-41030870D02*
X114159780Y-40518370D01*
G75*
G02*
X114378530Y-40299620I218750J0D01*
G01*
X114816030Y-40299620D01*
G75*
G02*
X115034780Y-40518370I0J-218750D01*
G01*
X115034780Y-41030870D01*
G75*
G02*
X114816030Y-41249620I-218750J0D01*
G01*
X114378530Y-41249620D01*
G75*
G02*
X114159780Y-41030870I0J218750D01*
G01*
G37*
G36*
G01*
X112584780Y-41030870D02*
X112584780Y-40518370D01*
G75*
G02*
X112803530Y-40299620I218750J0D01*
G01*
X113241030Y-40299620D01*
G75*
G02*
X113459780Y-40518370I0J-218750D01*
G01*
X113459780Y-41030870D01*
G75*
G02*
X113241030Y-41249620I-218750J0D01*
G01*
X112803530Y-41249620D01*
G75*
G02*
X112584780Y-41030870I0J218750D01*
G01*
G37*
D11*
X105330000Y-52555000D03*
X105330000Y-57605000D03*
X107870000Y-52555000D03*
X107870000Y-57605000D03*
X110410000Y-52555000D03*
X110410000Y-57605000D03*
X112950000Y-52555000D03*
X112950000Y-57605000D03*
X115490000Y-52555000D03*
X115490000Y-57605000D03*
X118030000Y-52555000D03*
X118030000Y-57605000D03*
X120570000Y-52555000D03*
X120570000Y-57605000D03*
X116770000Y-37105000D03*
X116770000Y-32055000D03*
X114230000Y-37105000D03*
X114230000Y-32055000D03*
X111690000Y-37105000D03*
X111690000Y-32055000D03*
X109150000Y-37105000D03*
X109150000Y-32055000D03*
D12*
X115300000Y-44035000D03*
X115300000Y-44685000D03*
X115300000Y-45335000D03*
X115300000Y-45985000D03*
X109400000Y-45985000D03*
X109400000Y-45335000D03*
X109400000Y-44685000D03*
X109400000Y-44035000D03*
G36*
G01*
X108929720Y-42356750D02*
X108929720Y-41844250D01*
G75*
G02*
X109148470Y-41625500I218750J0D01*
G01*
X109585970Y-41625500D01*
G75*
G02*
X109804720Y-41844250I0J-218750D01*
G01*
X109804720Y-42356750D01*
G75*
G02*
X109585970Y-42575500I-218750J0D01*
G01*
X109148470Y-42575500D01*
G75*
G02*
X108929720Y-42356750I0J218750D01*
G01*
G37*
G36*
G01*
X110504720Y-42356750D02*
X110504720Y-41844250D01*
G75*
G02*
X110723470Y-41625500I218750J0D01*
G01*
X111160970Y-41625500D01*
G75*
G02*
X111379720Y-41844250I0J-218750D01*
G01*
X111379720Y-42356750D01*
G75*
G02*
X111160970Y-42575500I-218750J0D01*
G01*
X110723470Y-42575500D01*
G75*
G02*
X110504720Y-42356750I0J218750D01*
G01*
G37*
M02*
