G04 #@! TF.GenerationSoftware,KiCad,Pcbnew,5.1.12-84ad8e8a86~92~ubuntu20.04.1*
G04 #@! TF.CreationDate,2022-01-25T20:05:45-05:00*
G04 #@! TF.ProjectId,ABPDANT015PGAA5_sensor_module,41425044-414e-4543-9031-355047414135,rev?*
G04 #@! TF.SameCoordinates,Original*
G04 #@! TF.FileFunction,Copper,L1,Top*
G04 #@! TF.FilePolarity,Positive*
%FSLAX46Y46*%
G04 Gerber Fmt 4.6, Leading zero omitted, Abs format (unit mm)*
G04 Created by KiCad (PCBNEW 5.1.12-84ad8e8a86~92~ubuntu20.04.1) date 2022-01-25 20:05:45*
%MOMM*%
%LPD*%
G01*
G04 APERTURE LIST*
G04 #@! TA.AperFunction,ComponentPad*
%ADD10C,1.524000*%
G04 #@! TD*
G04 #@! TA.AperFunction,Conductor*
%ADD11C,0.254000*%
G04 #@! TD*
G04 #@! TA.AperFunction,Conductor*
%ADD12C,0.100000*%
G04 #@! TD*
G04 APERTURE END LIST*
D10*
X118095000Y-42490000D03*
X118095000Y-45030000D03*
X118095000Y-47570000D03*
X106845000Y-47570000D03*
X106845000Y-45030000D03*
X106845000Y-42490000D03*
D11*
X124973001Y-35103423D02*
X124975030Y-35124025D01*
X124974987Y-35130214D01*
X124975637Y-35136842D01*
X124996038Y-35330939D01*
X125004734Y-35373303D01*
X125012832Y-35415755D01*
X125014756Y-35422126D01*
X125014757Y-35422132D01*
X125014759Y-35422138D01*
X125072469Y-35608568D01*
X125089220Y-35648418D01*
X125105417Y-35688508D01*
X125108542Y-35694384D01*
X125108544Y-35694389D01*
X125108547Y-35694393D01*
X125201369Y-35866065D01*
X125225564Y-35901936D01*
X125249218Y-35938084D01*
X125253420Y-35943236D01*
X125253426Y-35943244D01*
X125253433Y-35943251D01*
X125377832Y-36093623D01*
X125408498Y-36124076D01*
X125438756Y-36154975D01*
X125443882Y-36159214D01*
X125443888Y-36159220D01*
X125443895Y-36159224D01*
X125595130Y-36282569D01*
X125631133Y-36306489D01*
X125666812Y-36330920D01*
X125672666Y-36334084D01*
X125672670Y-36334087D01*
X125672674Y-36334089D01*
X125844993Y-36425712D01*
X125884972Y-36442190D01*
X125924700Y-36459218D01*
X125931056Y-36461185D01*
X125931063Y-36461188D01*
X125931070Y-36461189D01*
X126117898Y-36517597D01*
X126160337Y-36526000D01*
X126202595Y-36534983D01*
X126209212Y-36535677D01*
X126209220Y-36535679D01*
X126209228Y-36535679D01*
X126403452Y-36554723D01*
X126551139Y-36569204D01*
X126648432Y-36598579D01*
X126738159Y-36646287D01*
X126816911Y-36710517D01*
X126881690Y-36788820D01*
X126930026Y-36878216D01*
X126960077Y-36975296D01*
X126973000Y-37098248D01*
X126973001Y-59103000D01*
X98927000Y-59103000D01*
X98927000Y-47462743D01*
X105756000Y-47462743D01*
X105756000Y-47677257D01*
X105797850Y-47887650D01*
X105879941Y-48085835D01*
X105999119Y-48264197D01*
X106150803Y-48415881D01*
X106329165Y-48535059D01*
X106527350Y-48617150D01*
X106737743Y-48659000D01*
X106952257Y-48659000D01*
X107162650Y-48617150D01*
X107360835Y-48535059D01*
X107539197Y-48415881D01*
X107690881Y-48264197D01*
X107810059Y-48085835D01*
X107892150Y-47887650D01*
X107934000Y-47677257D01*
X107934000Y-47462743D01*
X117006000Y-47462743D01*
X117006000Y-47677257D01*
X117047850Y-47887650D01*
X117129941Y-48085835D01*
X117249119Y-48264197D01*
X117400803Y-48415881D01*
X117579165Y-48535059D01*
X117777350Y-48617150D01*
X117987743Y-48659000D01*
X118202257Y-48659000D01*
X118412650Y-48617150D01*
X118610835Y-48535059D01*
X118789197Y-48415881D01*
X118940881Y-48264197D01*
X119060059Y-48085835D01*
X119142150Y-47887650D01*
X119184000Y-47677257D01*
X119184000Y-47462743D01*
X119142150Y-47252350D01*
X119060059Y-47054165D01*
X118940881Y-46875803D01*
X118789197Y-46724119D01*
X118610835Y-46604941D01*
X118412650Y-46522850D01*
X118202257Y-46481000D01*
X117987743Y-46481000D01*
X117777350Y-46522850D01*
X117579165Y-46604941D01*
X117400803Y-46724119D01*
X117249119Y-46875803D01*
X117129941Y-47054165D01*
X117047850Y-47252350D01*
X117006000Y-47462743D01*
X107934000Y-47462743D01*
X107892150Y-47252350D01*
X107810059Y-47054165D01*
X107690881Y-46875803D01*
X107539197Y-46724119D01*
X107360835Y-46604941D01*
X107162650Y-46522850D01*
X106952257Y-46481000D01*
X106737743Y-46481000D01*
X106527350Y-46522850D01*
X106329165Y-46604941D01*
X106150803Y-46724119D01*
X105999119Y-46875803D01*
X105879941Y-47054165D01*
X105797850Y-47252350D01*
X105756000Y-47462743D01*
X98927000Y-47462743D01*
X98927000Y-44922743D01*
X105756000Y-44922743D01*
X105756000Y-45137257D01*
X105797850Y-45347650D01*
X105879941Y-45545835D01*
X105999119Y-45724197D01*
X106150803Y-45875881D01*
X106329165Y-45995059D01*
X106527350Y-46077150D01*
X106737743Y-46119000D01*
X106952257Y-46119000D01*
X107162650Y-46077150D01*
X107360835Y-45995059D01*
X107539197Y-45875881D01*
X107690881Y-45724197D01*
X107810059Y-45545835D01*
X107892150Y-45347650D01*
X107934000Y-45137257D01*
X107934000Y-44922743D01*
X117006000Y-44922743D01*
X117006000Y-45137257D01*
X117047850Y-45347650D01*
X117129941Y-45545835D01*
X117249119Y-45724197D01*
X117400803Y-45875881D01*
X117579165Y-45995059D01*
X117777350Y-46077150D01*
X117987743Y-46119000D01*
X118202257Y-46119000D01*
X118412650Y-46077150D01*
X118610835Y-45995059D01*
X118789197Y-45875881D01*
X118940881Y-45724197D01*
X119060059Y-45545835D01*
X119142150Y-45347650D01*
X119184000Y-45137257D01*
X119184000Y-44922743D01*
X119142150Y-44712350D01*
X119060059Y-44514165D01*
X118940881Y-44335803D01*
X118789197Y-44184119D01*
X118610835Y-44064941D01*
X118412650Y-43982850D01*
X118202257Y-43941000D01*
X117987743Y-43941000D01*
X117777350Y-43982850D01*
X117579165Y-44064941D01*
X117400803Y-44184119D01*
X117249119Y-44335803D01*
X117129941Y-44514165D01*
X117047850Y-44712350D01*
X117006000Y-44922743D01*
X107934000Y-44922743D01*
X107892150Y-44712350D01*
X107810059Y-44514165D01*
X107690881Y-44335803D01*
X107539197Y-44184119D01*
X107360835Y-44064941D01*
X107162650Y-43982850D01*
X106952257Y-43941000D01*
X106737743Y-43941000D01*
X106527350Y-43982850D01*
X106329165Y-44064941D01*
X106150803Y-44184119D01*
X105999119Y-44335803D01*
X105879941Y-44514165D01*
X105797850Y-44712350D01*
X105756000Y-44922743D01*
X98927000Y-44922743D01*
X98927000Y-42382743D01*
X105756000Y-42382743D01*
X105756000Y-42597257D01*
X105797850Y-42807650D01*
X105879941Y-43005835D01*
X105999119Y-43184197D01*
X106150803Y-43335881D01*
X106329165Y-43455059D01*
X106527350Y-43537150D01*
X106737743Y-43579000D01*
X106952257Y-43579000D01*
X107162650Y-43537150D01*
X107359613Y-43455565D01*
X117309040Y-43455565D01*
X117376020Y-43695656D01*
X117625048Y-43812756D01*
X117892135Y-43879023D01*
X118167017Y-43891910D01*
X118439133Y-43850922D01*
X118698023Y-43757636D01*
X118813980Y-43695656D01*
X118880960Y-43455565D01*
X118095000Y-42669605D01*
X117309040Y-43455565D01*
X107359613Y-43455565D01*
X107360835Y-43455059D01*
X107539197Y-43335881D01*
X107690881Y-43184197D01*
X107810059Y-43005835D01*
X107892150Y-42807650D01*
X107934000Y-42597257D01*
X107934000Y-42562017D01*
X116693090Y-42562017D01*
X116734078Y-42834133D01*
X116827364Y-43093023D01*
X116889344Y-43208980D01*
X117129435Y-43275960D01*
X117915395Y-42490000D01*
X118274605Y-42490000D01*
X119060565Y-43275960D01*
X119300656Y-43208980D01*
X119417756Y-42959952D01*
X119484023Y-42692865D01*
X119496910Y-42417983D01*
X119455922Y-42145867D01*
X119362636Y-41886977D01*
X119300656Y-41771020D01*
X119060565Y-41704040D01*
X118274605Y-42490000D01*
X117915395Y-42490000D01*
X117129435Y-41704040D01*
X116889344Y-41771020D01*
X116772244Y-42020048D01*
X116705977Y-42287135D01*
X116693090Y-42562017D01*
X107934000Y-42562017D01*
X107934000Y-42382743D01*
X107892150Y-42172350D01*
X107810059Y-41974165D01*
X107690881Y-41795803D01*
X107539197Y-41644119D01*
X107360835Y-41524941D01*
X107359614Y-41524435D01*
X117309040Y-41524435D01*
X118095000Y-42310395D01*
X118880960Y-41524435D01*
X118813980Y-41284344D01*
X118564952Y-41167244D01*
X118297865Y-41100977D01*
X118022983Y-41088090D01*
X117750867Y-41129078D01*
X117491977Y-41222364D01*
X117376020Y-41284344D01*
X117309040Y-41524435D01*
X107359614Y-41524435D01*
X107162650Y-41442850D01*
X106952257Y-41401000D01*
X106737743Y-41401000D01*
X106527350Y-41442850D01*
X106329165Y-41524941D01*
X106150803Y-41644119D01*
X105999119Y-41795803D01*
X105879941Y-41974165D01*
X105797850Y-42172350D01*
X105756000Y-42382743D01*
X98927000Y-42382743D01*
X98927000Y-37103326D01*
X98939204Y-36978861D01*
X98968579Y-36881568D01*
X99016287Y-36791841D01*
X99080517Y-36713089D01*
X99158820Y-36648310D01*
X99248216Y-36599974D01*
X99345296Y-36569923D01*
X99487966Y-36554927D01*
X99500214Y-36555013D01*
X99506842Y-36554363D01*
X99700939Y-36533962D01*
X99743303Y-36525266D01*
X99785755Y-36517168D01*
X99792126Y-36515244D01*
X99792132Y-36515243D01*
X99792138Y-36515241D01*
X99978568Y-36457531D01*
X100018418Y-36440780D01*
X100058508Y-36424583D01*
X100064384Y-36421458D01*
X100064389Y-36421456D01*
X100064393Y-36421453D01*
X100236065Y-36328631D01*
X100271936Y-36304436D01*
X100308084Y-36280782D01*
X100313236Y-36276580D01*
X100313244Y-36276574D01*
X100313251Y-36276567D01*
X100463623Y-36152168D01*
X100494076Y-36121502D01*
X100524975Y-36091244D01*
X100529214Y-36086118D01*
X100529220Y-36086112D01*
X100529224Y-36086105D01*
X100652569Y-35934870D01*
X100676489Y-35898867D01*
X100700920Y-35863188D01*
X100704084Y-35857334D01*
X100704087Y-35857330D01*
X100704089Y-35857326D01*
X100795712Y-35685007D01*
X100812190Y-35645028D01*
X100829218Y-35605300D01*
X100831187Y-35598939D01*
X100831188Y-35598937D01*
X100831189Y-35598930D01*
X100887597Y-35412102D01*
X100896000Y-35369663D01*
X100904983Y-35327405D01*
X100905677Y-35320788D01*
X100905679Y-35320780D01*
X100905679Y-35320772D01*
X100924723Y-35126548D01*
X100924723Y-35126541D01*
X100927000Y-35103423D01*
X100927000Y-30557000D01*
X124973000Y-30557000D01*
X124973001Y-35103423D01*
G04 #@! TA.AperFunction,Conductor*
D12*
G36*
X124973001Y-35103423D02*
G01*
X124975030Y-35124025D01*
X124974987Y-35130214D01*
X124975637Y-35136842D01*
X124996038Y-35330939D01*
X125004734Y-35373303D01*
X125012832Y-35415755D01*
X125014756Y-35422126D01*
X125014757Y-35422132D01*
X125014759Y-35422138D01*
X125072469Y-35608568D01*
X125089220Y-35648418D01*
X125105417Y-35688508D01*
X125108542Y-35694384D01*
X125108544Y-35694389D01*
X125108547Y-35694393D01*
X125201369Y-35866065D01*
X125225564Y-35901936D01*
X125249218Y-35938084D01*
X125253420Y-35943236D01*
X125253426Y-35943244D01*
X125253433Y-35943251D01*
X125377832Y-36093623D01*
X125408498Y-36124076D01*
X125438756Y-36154975D01*
X125443882Y-36159214D01*
X125443888Y-36159220D01*
X125443895Y-36159224D01*
X125595130Y-36282569D01*
X125631133Y-36306489D01*
X125666812Y-36330920D01*
X125672666Y-36334084D01*
X125672670Y-36334087D01*
X125672674Y-36334089D01*
X125844993Y-36425712D01*
X125884972Y-36442190D01*
X125924700Y-36459218D01*
X125931056Y-36461185D01*
X125931063Y-36461188D01*
X125931070Y-36461189D01*
X126117898Y-36517597D01*
X126160337Y-36526000D01*
X126202595Y-36534983D01*
X126209212Y-36535677D01*
X126209220Y-36535679D01*
X126209228Y-36535679D01*
X126403452Y-36554723D01*
X126551139Y-36569204D01*
X126648432Y-36598579D01*
X126738159Y-36646287D01*
X126816911Y-36710517D01*
X126881690Y-36788820D01*
X126930026Y-36878216D01*
X126960077Y-36975296D01*
X126973000Y-37098248D01*
X126973001Y-59103000D01*
X98927000Y-59103000D01*
X98927000Y-47462743D01*
X105756000Y-47462743D01*
X105756000Y-47677257D01*
X105797850Y-47887650D01*
X105879941Y-48085835D01*
X105999119Y-48264197D01*
X106150803Y-48415881D01*
X106329165Y-48535059D01*
X106527350Y-48617150D01*
X106737743Y-48659000D01*
X106952257Y-48659000D01*
X107162650Y-48617150D01*
X107360835Y-48535059D01*
X107539197Y-48415881D01*
X107690881Y-48264197D01*
X107810059Y-48085835D01*
X107892150Y-47887650D01*
X107934000Y-47677257D01*
X107934000Y-47462743D01*
X117006000Y-47462743D01*
X117006000Y-47677257D01*
X117047850Y-47887650D01*
X117129941Y-48085835D01*
X117249119Y-48264197D01*
X117400803Y-48415881D01*
X117579165Y-48535059D01*
X117777350Y-48617150D01*
X117987743Y-48659000D01*
X118202257Y-48659000D01*
X118412650Y-48617150D01*
X118610835Y-48535059D01*
X118789197Y-48415881D01*
X118940881Y-48264197D01*
X119060059Y-48085835D01*
X119142150Y-47887650D01*
X119184000Y-47677257D01*
X119184000Y-47462743D01*
X119142150Y-47252350D01*
X119060059Y-47054165D01*
X118940881Y-46875803D01*
X118789197Y-46724119D01*
X118610835Y-46604941D01*
X118412650Y-46522850D01*
X118202257Y-46481000D01*
X117987743Y-46481000D01*
X117777350Y-46522850D01*
X117579165Y-46604941D01*
X117400803Y-46724119D01*
X117249119Y-46875803D01*
X117129941Y-47054165D01*
X117047850Y-47252350D01*
X117006000Y-47462743D01*
X107934000Y-47462743D01*
X107892150Y-47252350D01*
X107810059Y-47054165D01*
X107690881Y-46875803D01*
X107539197Y-46724119D01*
X107360835Y-46604941D01*
X107162650Y-46522850D01*
X106952257Y-46481000D01*
X106737743Y-46481000D01*
X106527350Y-46522850D01*
X106329165Y-46604941D01*
X106150803Y-46724119D01*
X105999119Y-46875803D01*
X105879941Y-47054165D01*
X105797850Y-47252350D01*
X105756000Y-47462743D01*
X98927000Y-47462743D01*
X98927000Y-44922743D01*
X105756000Y-44922743D01*
X105756000Y-45137257D01*
X105797850Y-45347650D01*
X105879941Y-45545835D01*
X105999119Y-45724197D01*
X106150803Y-45875881D01*
X106329165Y-45995059D01*
X106527350Y-46077150D01*
X106737743Y-46119000D01*
X106952257Y-46119000D01*
X107162650Y-46077150D01*
X107360835Y-45995059D01*
X107539197Y-45875881D01*
X107690881Y-45724197D01*
X107810059Y-45545835D01*
X107892150Y-45347650D01*
X107934000Y-45137257D01*
X107934000Y-44922743D01*
X117006000Y-44922743D01*
X117006000Y-45137257D01*
X117047850Y-45347650D01*
X117129941Y-45545835D01*
X117249119Y-45724197D01*
X117400803Y-45875881D01*
X117579165Y-45995059D01*
X117777350Y-46077150D01*
X117987743Y-46119000D01*
X118202257Y-46119000D01*
X118412650Y-46077150D01*
X118610835Y-45995059D01*
X118789197Y-45875881D01*
X118940881Y-45724197D01*
X119060059Y-45545835D01*
X119142150Y-45347650D01*
X119184000Y-45137257D01*
X119184000Y-44922743D01*
X119142150Y-44712350D01*
X119060059Y-44514165D01*
X118940881Y-44335803D01*
X118789197Y-44184119D01*
X118610835Y-44064941D01*
X118412650Y-43982850D01*
X118202257Y-43941000D01*
X117987743Y-43941000D01*
X117777350Y-43982850D01*
X117579165Y-44064941D01*
X117400803Y-44184119D01*
X117249119Y-44335803D01*
X117129941Y-44514165D01*
X117047850Y-44712350D01*
X117006000Y-44922743D01*
X107934000Y-44922743D01*
X107892150Y-44712350D01*
X107810059Y-44514165D01*
X107690881Y-44335803D01*
X107539197Y-44184119D01*
X107360835Y-44064941D01*
X107162650Y-43982850D01*
X106952257Y-43941000D01*
X106737743Y-43941000D01*
X106527350Y-43982850D01*
X106329165Y-44064941D01*
X106150803Y-44184119D01*
X105999119Y-44335803D01*
X105879941Y-44514165D01*
X105797850Y-44712350D01*
X105756000Y-44922743D01*
X98927000Y-44922743D01*
X98927000Y-42382743D01*
X105756000Y-42382743D01*
X105756000Y-42597257D01*
X105797850Y-42807650D01*
X105879941Y-43005835D01*
X105999119Y-43184197D01*
X106150803Y-43335881D01*
X106329165Y-43455059D01*
X106527350Y-43537150D01*
X106737743Y-43579000D01*
X106952257Y-43579000D01*
X107162650Y-43537150D01*
X107359613Y-43455565D01*
X117309040Y-43455565D01*
X117376020Y-43695656D01*
X117625048Y-43812756D01*
X117892135Y-43879023D01*
X118167017Y-43891910D01*
X118439133Y-43850922D01*
X118698023Y-43757636D01*
X118813980Y-43695656D01*
X118880960Y-43455565D01*
X118095000Y-42669605D01*
X117309040Y-43455565D01*
X107359613Y-43455565D01*
X107360835Y-43455059D01*
X107539197Y-43335881D01*
X107690881Y-43184197D01*
X107810059Y-43005835D01*
X107892150Y-42807650D01*
X107934000Y-42597257D01*
X107934000Y-42562017D01*
X116693090Y-42562017D01*
X116734078Y-42834133D01*
X116827364Y-43093023D01*
X116889344Y-43208980D01*
X117129435Y-43275960D01*
X117915395Y-42490000D01*
X118274605Y-42490000D01*
X119060565Y-43275960D01*
X119300656Y-43208980D01*
X119417756Y-42959952D01*
X119484023Y-42692865D01*
X119496910Y-42417983D01*
X119455922Y-42145867D01*
X119362636Y-41886977D01*
X119300656Y-41771020D01*
X119060565Y-41704040D01*
X118274605Y-42490000D01*
X117915395Y-42490000D01*
X117129435Y-41704040D01*
X116889344Y-41771020D01*
X116772244Y-42020048D01*
X116705977Y-42287135D01*
X116693090Y-42562017D01*
X107934000Y-42562017D01*
X107934000Y-42382743D01*
X107892150Y-42172350D01*
X107810059Y-41974165D01*
X107690881Y-41795803D01*
X107539197Y-41644119D01*
X107360835Y-41524941D01*
X107359614Y-41524435D01*
X117309040Y-41524435D01*
X118095000Y-42310395D01*
X118880960Y-41524435D01*
X118813980Y-41284344D01*
X118564952Y-41167244D01*
X118297865Y-41100977D01*
X118022983Y-41088090D01*
X117750867Y-41129078D01*
X117491977Y-41222364D01*
X117376020Y-41284344D01*
X117309040Y-41524435D01*
X107359614Y-41524435D01*
X107162650Y-41442850D01*
X106952257Y-41401000D01*
X106737743Y-41401000D01*
X106527350Y-41442850D01*
X106329165Y-41524941D01*
X106150803Y-41644119D01*
X105999119Y-41795803D01*
X105879941Y-41974165D01*
X105797850Y-42172350D01*
X105756000Y-42382743D01*
X98927000Y-42382743D01*
X98927000Y-37103326D01*
X98939204Y-36978861D01*
X98968579Y-36881568D01*
X99016287Y-36791841D01*
X99080517Y-36713089D01*
X99158820Y-36648310D01*
X99248216Y-36599974D01*
X99345296Y-36569923D01*
X99487966Y-36554927D01*
X99500214Y-36555013D01*
X99506842Y-36554363D01*
X99700939Y-36533962D01*
X99743303Y-36525266D01*
X99785755Y-36517168D01*
X99792126Y-36515244D01*
X99792132Y-36515243D01*
X99792138Y-36515241D01*
X99978568Y-36457531D01*
X100018418Y-36440780D01*
X100058508Y-36424583D01*
X100064384Y-36421458D01*
X100064389Y-36421456D01*
X100064393Y-36421453D01*
X100236065Y-36328631D01*
X100271936Y-36304436D01*
X100308084Y-36280782D01*
X100313236Y-36276580D01*
X100313244Y-36276574D01*
X100313251Y-36276567D01*
X100463623Y-36152168D01*
X100494076Y-36121502D01*
X100524975Y-36091244D01*
X100529214Y-36086118D01*
X100529220Y-36086112D01*
X100529224Y-36086105D01*
X100652569Y-35934870D01*
X100676489Y-35898867D01*
X100700920Y-35863188D01*
X100704084Y-35857334D01*
X100704087Y-35857330D01*
X100704089Y-35857326D01*
X100795712Y-35685007D01*
X100812190Y-35645028D01*
X100829218Y-35605300D01*
X100831187Y-35598939D01*
X100831188Y-35598937D01*
X100831189Y-35598930D01*
X100887597Y-35412102D01*
X100896000Y-35369663D01*
X100904983Y-35327405D01*
X100905677Y-35320788D01*
X100905679Y-35320780D01*
X100905679Y-35320772D01*
X100924723Y-35126548D01*
X100924723Y-35126541D01*
X100927000Y-35103423D01*
X100927000Y-30557000D01*
X124973000Y-30557000D01*
X124973001Y-35103423D01*
G37*
G04 #@! TD.AperFunction*
M02*
