G04 #@! TF.GenerationSoftware,KiCad,Pcbnew,5.1.12-84ad8e8a86~92~ubuntu20.04.1*
G04 #@! TF.CreationDate,2022-01-25T20:05:45-05:00*
G04 #@! TF.ProjectId,ABPDANT015PGAA5_sensor_module,41425044-414e-4543-9031-355047414135,rev?*
G04 #@! TF.SameCoordinates,Original*
G04 #@! TF.FileFunction,Legend,Bot*
G04 #@! TF.FilePolarity,Positive*
%FSLAX46Y46*%
G04 Gerber Fmt 4.6, Leading zero omitted, Abs format (unit mm)*
G04 Created by KiCad (PCBNEW 5.1.12-84ad8e8a86~92~ubuntu20.04.1) date 2022-01-25 20:05:45*
%MOMM*%
%LPD*%
G01*
G04 APERTURE LIST*
%ADD10C,0.120000*%
%ADD11C,0.150000*%
G04 APERTURE END LIST*
D10*
X105274840Y-41887359D02*
X105274840Y-41561801D01*
X104254840Y-41887359D02*
X104254840Y-41561801D01*
X119659940Y-46985139D02*
X119659940Y-46659581D01*
X120679940Y-46985139D02*
X120679940Y-46659581D01*
X113634301Y-42841640D02*
X113959859Y-42841640D01*
X113634301Y-41821640D02*
X113959859Y-41821640D01*
X113647001Y-40264620D02*
X113972559Y-40264620D01*
X113647001Y-41284620D02*
X113972559Y-41284620D01*
X104000000Y-52480000D02*
X104000000Y-57680000D01*
X121900000Y-52480000D02*
X121900000Y-57680000D01*
X104570000Y-51040000D02*
X104570000Y-52480000D01*
X104000000Y-52480000D02*
X104570000Y-52480000D01*
X104000000Y-57680000D02*
X104570000Y-57680000D01*
X121330000Y-52480000D02*
X121900000Y-52480000D01*
X121330000Y-57680000D02*
X121900000Y-57680000D01*
X106090000Y-52480000D02*
X107110000Y-52480000D01*
X106090000Y-57680000D02*
X107110000Y-57680000D01*
X108630000Y-52480000D02*
X109650000Y-52480000D01*
X108630000Y-57680000D02*
X109650000Y-57680000D01*
X111170000Y-52480000D02*
X112190000Y-52480000D01*
X111170000Y-57680000D02*
X112190000Y-57680000D01*
X113710000Y-52480000D02*
X114730000Y-52480000D01*
X113710000Y-57680000D02*
X114730000Y-57680000D01*
X116250000Y-52480000D02*
X117270000Y-52480000D01*
X116250000Y-57680000D02*
X117270000Y-57680000D01*
X118790000Y-52480000D02*
X119810000Y-52480000D01*
X118790000Y-57680000D02*
X119810000Y-57680000D01*
X118100000Y-37180000D02*
X118100000Y-31980000D01*
X107820000Y-37180000D02*
X107820000Y-31980000D01*
X117530000Y-38620000D02*
X117530000Y-37180000D01*
X118100000Y-37180000D02*
X117530000Y-37180000D01*
X118100000Y-31980000D02*
X117530000Y-31980000D01*
X108390000Y-37180000D02*
X107820000Y-37180000D01*
X108390000Y-31980000D02*
X107820000Y-31980000D01*
X116010000Y-37180000D02*
X114990000Y-37180000D01*
X116010000Y-31980000D02*
X114990000Y-31980000D01*
X113470000Y-37180000D02*
X112450000Y-37180000D01*
X113470000Y-31980000D02*
X112450000Y-31980000D01*
X110930000Y-37180000D02*
X109910000Y-37180000D01*
X110930000Y-31980000D02*
X109910000Y-31980000D01*
D11*
X114675000Y-43385000D02*
X114675000Y-43485000D01*
X110025000Y-43385000D02*
X110025000Y-43585000D01*
X110025000Y-46635000D02*
X110025000Y-46435000D01*
X114675000Y-46635000D02*
X114675000Y-46435000D01*
X114675000Y-43385000D02*
X110025000Y-43385000D01*
X114675000Y-46635000D02*
X110025000Y-46635000D01*
X114675000Y-43485000D02*
X116025000Y-43485000D01*
D10*
X109991941Y-42610500D02*
X110317499Y-42610500D01*
X109991941Y-41590500D02*
X110317499Y-41590500D01*
D11*
X105139762Y-39236353D02*
X105187381Y-39188734D01*
X105235000Y-39045877D01*
X105235000Y-38950639D01*
X105187381Y-38807781D01*
X105092143Y-38712543D01*
X104996905Y-38664924D01*
X104806429Y-38617305D01*
X104663572Y-38617305D01*
X104473096Y-38664924D01*
X104377858Y-38712543D01*
X104282620Y-38807781D01*
X104235000Y-38950639D01*
X104235000Y-39045877D01*
X104282620Y-39188734D01*
X104330239Y-39236353D01*
X105235000Y-40188734D02*
X105235000Y-39617305D01*
X105235000Y-39903020D02*
X104235000Y-39903020D01*
X104377858Y-39807781D01*
X104473096Y-39712543D01*
X104520715Y-39617305D01*
X121947082Y-46695693D02*
X121994701Y-46648074D01*
X122042320Y-46505217D01*
X122042320Y-46409979D01*
X121994701Y-46267121D01*
X121899463Y-46171883D01*
X121804225Y-46124264D01*
X121613749Y-46076645D01*
X121470892Y-46076645D01*
X121280416Y-46124264D01*
X121185178Y-46171883D01*
X121089940Y-46267121D01*
X121042320Y-46409979D01*
X121042320Y-46505217D01*
X121089940Y-46648074D01*
X121137559Y-46695693D01*
X121137559Y-47076645D02*
X121089940Y-47124264D01*
X121042320Y-47219502D01*
X121042320Y-47457598D01*
X121089940Y-47552836D01*
X121137559Y-47600455D01*
X121232797Y-47648074D01*
X121328035Y-47648074D01*
X121470892Y-47600455D01*
X122042320Y-47029026D01*
X122042320Y-47648074D01*
X116371666Y-42938960D02*
X116705000Y-42462770D01*
X116943095Y-42938960D02*
X116943095Y-41938960D01*
X116562142Y-41938960D01*
X116466904Y-41986580D01*
X116419285Y-42034199D01*
X116371666Y-42129437D01*
X116371666Y-42272294D01*
X116419285Y-42367532D01*
X116466904Y-42415151D01*
X116562142Y-42462770D01*
X116943095Y-42462770D01*
X115419285Y-42938960D02*
X115990714Y-42938960D01*
X115705000Y-42938960D02*
X115705000Y-41938960D01*
X115800238Y-42081818D01*
X115895476Y-42177056D01*
X115990714Y-42224675D01*
X116427546Y-41193980D02*
X116760880Y-40717790D01*
X116998975Y-41193980D02*
X116998975Y-40193980D01*
X116618022Y-40193980D01*
X116522784Y-40241600D01*
X116475165Y-40289219D01*
X116427546Y-40384457D01*
X116427546Y-40527314D01*
X116475165Y-40622552D01*
X116522784Y-40670171D01*
X116618022Y-40717790D01*
X116998975Y-40717790D01*
X116046594Y-40289219D02*
X115998975Y-40241600D01*
X115903737Y-40193980D01*
X115665641Y-40193980D01*
X115570403Y-40241600D01*
X115522784Y-40289219D01*
X115475165Y-40384457D01*
X115475165Y-40479695D01*
X115522784Y-40622552D01*
X116094213Y-41193980D01*
X115475165Y-41193980D01*
X102452380Y-54746666D02*
X103166666Y-54746666D01*
X103309523Y-54699047D01*
X103404761Y-54603809D01*
X103452380Y-54460952D01*
X103452380Y-54365714D01*
X102547619Y-55175238D02*
X102500000Y-55222857D01*
X102452380Y-55318095D01*
X102452380Y-55556190D01*
X102500000Y-55651428D01*
X102547619Y-55699047D01*
X102642857Y-55746666D01*
X102738095Y-55746666D01*
X102880952Y-55699047D01*
X103452380Y-55127619D01*
X103452380Y-55746666D01*
X118552380Y-34246666D02*
X119266666Y-34246666D01*
X119409523Y-34199047D01*
X119504761Y-34103809D01*
X119552380Y-33960952D01*
X119552380Y-33865714D01*
X119552380Y-35246666D02*
X119552380Y-34675238D01*
X119552380Y-34960952D02*
X118552380Y-34960952D01*
X118695238Y-34865714D01*
X118790476Y-34770476D01*
X118838095Y-34675238D01*
X111025844Y-47062140D02*
X111025844Y-47871664D01*
X110978225Y-47966902D01*
X110930606Y-48014521D01*
X110835368Y-48062140D01*
X110644892Y-48062140D01*
X110549654Y-48014521D01*
X110502035Y-47966902D01*
X110454416Y-47871664D01*
X110454416Y-47062140D01*
X110025844Y-47157379D02*
X109978225Y-47109760D01*
X109882987Y-47062140D01*
X109644892Y-47062140D01*
X109549654Y-47109760D01*
X109502035Y-47157379D01*
X109454416Y-47252617D01*
X109454416Y-47347855D01*
X109502035Y-47490712D01*
X110073463Y-48062140D01*
X109454416Y-48062140D01*
X110131386Y-41107642D02*
X110179005Y-41155261D01*
X110321862Y-41202880D01*
X110417100Y-41202880D01*
X110559958Y-41155261D01*
X110655196Y-41060023D01*
X110702815Y-40964785D01*
X110750434Y-40774309D01*
X110750434Y-40631452D01*
X110702815Y-40440976D01*
X110655196Y-40345738D01*
X110559958Y-40250500D01*
X110417100Y-40202880D01*
X110321862Y-40202880D01*
X110179005Y-40250500D01*
X110131386Y-40298119D01*
X109798053Y-40202880D02*
X109179005Y-40202880D01*
X109512339Y-40583833D01*
X109369481Y-40583833D01*
X109274243Y-40631452D01*
X109226624Y-40679071D01*
X109179005Y-40774309D01*
X109179005Y-41012404D01*
X109226624Y-41107642D01*
X109274243Y-41155261D01*
X109369481Y-41202880D01*
X109655196Y-41202880D01*
X109750434Y-41155261D01*
X109798053Y-41107642D01*
M02*
