M48
; DRILL file {KiCad 5.1.12-84ad8e8a86~92~ubuntu20.04.1} date jue 26 may 2022 22:04:49
; FORMAT={3:3/ absolute / metric / suppress leading zeros}
; #@! TF.CreationDate,2022-05-26T22:04:49-05:00
; #@! TF.GenerationSoftware,Kicad,Pcbnew,5.1.12-84ad8e8a86~92~ubuntu20.04.1
; #@! TF.FileFunction,Plated,1,4,PTH
FMAT,2
METRIC,TZ
T1C0.800
T2C1.000
T3C1.020
%
G90
G05
T1
X99822Y-31928
X99822Y-39548
X101295Y-42748
X101295Y-50368
X102819Y-31928
X102819Y-39548
X104343Y-42697
X104343Y-50317
X105867Y-31928
X105867Y-39548
X106883Y-42697
X106883Y-50317
X108509Y-39497
X109423Y-42697
X109423Y-50317
X111963Y-42697
X111963Y-50317
X115037Y-42697
X115037Y-50317
X116129Y-39497
X117577Y-42697
X117577Y-50317
X119837Y-31852
X119837Y-39472
X120117Y-42697
X120117Y-50317
X122657Y-42697
X122657Y-50317
X125705Y-42647
X125705Y-50267
T2
X105334Y-53797
X105334Y-56337
X107874Y-53797
X107874Y-56337
X109144Y-33299
X109144Y-35839
X110414Y-53797
X110414Y-56337
X111684Y-33299
X111684Y-35839
X112954Y-53797
X112954Y-56337
X114224Y-33299
X114224Y-35839
X115494Y-53797
X115494Y-56337
X116764Y-33299
X116764Y-35839
X118034Y-53797
X118034Y-56337
X120574Y-53797
X120574Y-56337
T3
X110541Y-27762
X113081Y-27762
X115621Y-27762
T0
M30
