G04 #@! TF.GenerationSoftware,KiCad,Pcbnew,5.1.12-84ad8e8a86~92~ubuntu20.04.1*
G04 #@! TF.CreationDate,2022-05-26T22:04:44-05:00*
G04 #@! TF.ProjectId,sensor_oxigeno,73656e73-6f72-45f6-9f78-6967656e6f2e,rev?*
G04 #@! TF.SameCoordinates,Original*
G04 #@! TF.FileFunction,Legend,Bot*
G04 #@! TF.FilePolarity,Positive*
%FSLAX46Y46*%
G04 Gerber Fmt 4.6, Leading zero omitted, Abs format (unit mm)*
G04 Created by KiCad (PCBNEW 5.1.12-84ad8e8a86~92~ubuntu20.04.1) date 2022-05-26 22:04:44*
%MOMM*%
%LPD*%
G01*
G04 APERTURE LIST*
%ADD10C,0.120000*%
%ADD11C,0.150000*%
G04 APERTURE END LIST*
D10*
X104003800Y-52467200D02*
X104003800Y-53797200D01*
X105333800Y-52467200D02*
X104003800Y-52467200D01*
X104003800Y-55067200D02*
X104003800Y-57667200D01*
X106603800Y-55067200D02*
X104003800Y-55067200D01*
X106603800Y-52467200D02*
X106603800Y-55067200D01*
X104003800Y-57667200D02*
X121903800Y-57667200D01*
X106603800Y-52467200D02*
X121903800Y-52467200D01*
X121903800Y-52467200D02*
X121903800Y-57667200D01*
X107813800Y-31969400D02*
X107813800Y-33299400D01*
X109143800Y-31969400D02*
X107813800Y-31969400D01*
X107813800Y-34569400D02*
X107813800Y-37169400D01*
X110413800Y-34569400D02*
X107813800Y-34569400D01*
X110413800Y-31969400D02*
X110413800Y-34569400D01*
X107813800Y-37169400D02*
X118093800Y-37169400D01*
X110413800Y-31969400D02*
X118093800Y-31969400D01*
X118093800Y-31969400D02*
X118093800Y-37169400D01*
D11*
X102456180Y-54733866D02*
X103170466Y-54733866D01*
X103313323Y-54686247D01*
X103408561Y-54591009D01*
X103456180Y-54448152D01*
X103456180Y-54352914D01*
X102551419Y-55162438D02*
X102503800Y-55210057D01*
X102456180Y-55305295D01*
X102456180Y-55543390D01*
X102503800Y-55638628D01*
X102551419Y-55686247D01*
X102646657Y-55733866D01*
X102741895Y-55733866D01*
X102884752Y-55686247D01*
X103456180Y-55114819D01*
X103456180Y-55733866D01*
X106266180Y-34236066D02*
X106980466Y-34236066D01*
X107123323Y-34188447D01*
X107218561Y-34093209D01*
X107266180Y-33950352D01*
X107266180Y-33855114D01*
X106266180Y-34617019D02*
X106266180Y-35236066D01*
X106647133Y-34902733D01*
X106647133Y-35045590D01*
X106694752Y-35140828D01*
X106742371Y-35188447D01*
X106837609Y-35236066D01*
X107075704Y-35236066D01*
X107170942Y-35188447D01*
X107218561Y-35140828D01*
X107266180Y-35045590D01*
X107266180Y-34759876D01*
X107218561Y-34664638D01*
X107170942Y-34617019D01*
M02*
