%FSLAX45Y45*%
G04 Gerber Fmt 4.5, Leading zero omitted, Abs format (unit mm)*
G04 Created by KiCad (PCBNEW 5.1.12-84ad8e8a86~92~ubuntu20.04.1) date 2022-05-26 22:04:50*
%MOMM*%
%LPD*%
G01*
G04 APERTURE LIST*
%TA.AperFunction,Profile*%
%ADD10C,0.300000*%
%TD*%
%ADD11C,0.200000*%
%ADD12C,0.300000*%
G04 APERTURE END LIST*
D10*
X9845000Y-2453640D02*
X9845000Y-5958000D01*
X9845040Y-2453640D02*
X12545060Y-2453640D01*
X12545000Y-2453640D02*
X12545000Y-3508000D01*
X12645000Y-3608000D02*
G75*
G02*
X12545000Y-3508000I0J100000D01*
G01*
X12645000Y-3608000D02*
G75*
G02*
X12745000Y-3708000I0J-100000D01*
G01*
X12745000Y-3708000D02*
X12745000Y-5958000D01*
X12745000Y-5958000D02*
X9845000Y-5958000D01*
D11*
X9942200Y-3152780D02*
X10022200Y-3232780D01*
X10022200Y-3152780D02*
X9942200Y-3232780D01*
X9942200Y-3914780D02*
X10022200Y-3994780D01*
X10022200Y-3914780D02*
X9942200Y-3994780D01*
X10089520Y-4234820D02*
X10169520Y-4314820D01*
X10169520Y-4234820D02*
X10089520Y-4314820D01*
X10089520Y-4996820D02*
X10169520Y-5076820D01*
X10169520Y-4996820D02*
X10089520Y-5076820D01*
X10241920Y-3152780D02*
X10321920Y-3232780D01*
X10321920Y-3152780D02*
X10241920Y-3232780D01*
X10241920Y-3914780D02*
X10321920Y-3994780D01*
X10321920Y-3914780D02*
X10241920Y-3994780D01*
X10394320Y-4229740D02*
X10474320Y-4309740D01*
X10474320Y-4229740D02*
X10394320Y-4309740D01*
X10394320Y-4991740D02*
X10474320Y-5071740D01*
X10474320Y-4991740D02*
X10394320Y-5071740D01*
X10546720Y-3152780D02*
X10626720Y-3232780D01*
X10626720Y-3152780D02*
X10546720Y-3232780D01*
X10546720Y-3914780D02*
X10626720Y-3994780D01*
X10626720Y-3914780D02*
X10546720Y-3994780D01*
X10648320Y-4229740D02*
X10728320Y-4309740D01*
X10728320Y-4229740D02*
X10648320Y-4309740D01*
X10648320Y-4991740D02*
X10728320Y-5071740D01*
X10728320Y-4991740D02*
X10648320Y-5071740D01*
X10810880Y-3909700D02*
X10890880Y-3989700D01*
X10890880Y-3909700D02*
X10810880Y-3989700D01*
X10902320Y-4229740D02*
X10982320Y-4309740D01*
X10982320Y-4229740D02*
X10902320Y-4309740D01*
X10902320Y-4991740D02*
X10982320Y-5071740D01*
X10982320Y-4991740D02*
X10902320Y-5071740D01*
X11156320Y-4229740D02*
X11236320Y-4309740D01*
X11236320Y-4229740D02*
X11156320Y-4309740D01*
X11156320Y-4991740D02*
X11236320Y-5071740D01*
X11236320Y-4991740D02*
X11156320Y-5071740D01*
X11463660Y-4229740D02*
X11543660Y-4309740D01*
X11543660Y-4229740D02*
X11463660Y-4309740D01*
X11463660Y-4991740D02*
X11543660Y-5071740D01*
X11543660Y-4991740D02*
X11463660Y-5071740D01*
X11572880Y-3909700D02*
X11652880Y-3989700D01*
X11652880Y-3909700D02*
X11572880Y-3989700D01*
X11717660Y-4229740D02*
X11797660Y-4309740D01*
X11797660Y-4229740D02*
X11717660Y-4309740D01*
X11717660Y-4991740D02*
X11797660Y-5071740D01*
X11797660Y-4991740D02*
X11717660Y-5071740D01*
X11943720Y-3145160D02*
X12023720Y-3225160D01*
X12023720Y-3145160D02*
X11943720Y-3225160D01*
X11943720Y-3907160D02*
X12023720Y-3987160D01*
X12023720Y-3907160D02*
X11943720Y-3987160D01*
X11971660Y-4229740D02*
X12051660Y-4309740D01*
X12051660Y-4229740D02*
X11971660Y-4309740D01*
X11971660Y-4991740D02*
X12051660Y-5071740D01*
X12051660Y-4991740D02*
X11971660Y-5071740D01*
X12225660Y-4229740D02*
X12305660Y-4309740D01*
X12305660Y-4229740D02*
X12225660Y-4309740D01*
X12225660Y-4991740D02*
X12305660Y-5071740D01*
X12305660Y-4991740D02*
X12225660Y-5071740D01*
X12530460Y-4224660D02*
X12610460Y-4304660D01*
X12610460Y-4224660D02*
X12530460Y-4304660D01*
X12530460Y-4986660D02*
X12610460Y-5066660D01*
X12610460Y-4986660D02*
X12530460Y-5066660D01*
X10583380Y-5379720D02*
G75*
G03*
X10583380Y-5379720I-50000J0D01*
G01*
X10583380Y-5633720D02*
G75*
G03*
X10583380Y-5633720I-50000J0D01*
G01*
X10837380Y-5379720D02*
G75*
G03*
X10837380Y-5379720I-50000J0D01*
G01*
X10837380Y-5633720D02*
G75*
G03*
X10837380Y-5633720I-50000J0D01*
G01*
X10964380Y-3329940D02*
G75*
G03*
X10964380Y-3329940I-50000J0D01*
G01*
X10964380Y-3583940D02*
G75*
G03*
X10964380Y-3583940I-50000J0D01*
G01*
X11091380Y-5379720D02*
G75*
G03*
X11091380Y-5379720I-50000J0D01*
G01*
X11091380Y-5633720D02*
G75*
G03*
X11091380Y-5633720I-50000J0D01*
G01*
X11218380Y-3329940D02*
G75*
G03*
X11218380Y-3329940I-50000J0D01*
G01*
X11218380Y-3583940D02*
G75*
G03*
X11218380Y-3583940I-50000J0D01*
G01*
X11345380Y-5379720D02*
G75*
G03*
X11345380Y-5379720I-50000J0D01*
G01*
X11345380Y-5633720D02*
G75*
G03*
X11345380Y-5633720I-50000J0D01*
G01*
X11472380Y-3329940D02*
G75*
G03*
X11472380Y-3329940I-50000J0D01*
G01*
X11472380Y-3583940D02*
G75*
G03*
X11472380Y-3583940I-50000J0D01*
G01*
X11599380Y-5379720D02*
G75*
G03*
X11599380Y-5379720I-50000J0D01*
G01*
X11599380Y-5633720D02*
G75*
G03*
X11599380Y-5633720I-50000J0D01*
G01*
X11726380Y-3329940D02*
G75*
G03*
X11726380Y-3329940I-50000J0D01*
G01*
X11726380Y-3583940D02*
G75*
G03*
X11726380Y-3583940I-50000J0D01*
G01*
X11853380Y-5379720D02*
G75*
G03*
X11853380Y-5379720I-50000J0D01*
G01*
X11853380Y-5633720D02*
G75*
G03*
X11853380Y-5633720I-50000J0D01*
G01*
X12107380Y-5379720D02*
G75*
G03*
X12107380Y-5379720I-50000J0D01*
G01*
X12107380Y-5633720D02*
G75*
G03*
X12107380Y-5633720I-50000J0D01*
G01*
X11054080Y-2725220D02*
X11054080Y-2827220D01*
X11003080Y-2776220D02*
X11105080Y-2776220D01*
X11308080Y-2725220D02*
X11308080Y-2827220D01*
X11257080Y-2776220D02*
X11359080Y-2776220D01*
X11562080Y-2725220D02*
X11562080Y-2827220D01*
X11511080Y-2776220D02*
X11613080Y-2776220D01*
D12*
X10116428Y-6438714D02*
X10116428Y-6138714D01*
X10187857Y-6138714D01*
X10230714Y-6153000D01*
X10259286Y-6181571D01*
X10273571Y-6210143D01*
X10287857Y-6267286D01*
X10287857Y-6310143D01*
X10273571Y-6367286D01*
X10259286Y-6395857D01*
X10230714Y-6424429D01*
X10187857Y-6438714D01*
X10116428Y-6438714D01*
X10416428Y-6438714D02*
X10416428Y-6238714D01*
X10416428Y-6295857D02*
X10430714Y-6267286D01*
X10445000Y-6253000D01*
X10473571Y-6238714D01*
X10502143Y-6238714D01*
X10602143Y-6438714D02*
X10602143Y-6238714D01*
X10602143Y-6138714D02*
X10587857Y-6153000D01*
X10602143Y-6167286D01*
X10616428Y-6153000D01*
X10602143Y-6138714D01*
X10602143Y-6167286D01*
X10787857Y-6438714D02*
X10759286Y-6424429D01*
X10745000Y-6395857D01*
X10745000Y-6138714D01*
X10945000Y-6438714D02*
X10916428Y-6424429D01*
X10902143Y-6395857D01*
X10902143Y-6138714D01*
X11287857Y-6438714D02*
X11287857Y-6138714D01*
X11387857Y-6353000D01*
X11487857Y-6138714D01*
X11487857Y-6438714D01*
X11759286Y-6438714D02*
X11759286Y-6281571D01*
X11745000Y-6253000D01*
X11716428Y-6238714D01*
X11659286Y-6238714D01*
X11630714Y-6253000D01*
X11759286Y-6424429D02*
X11730714Y-6438714D01*
X11659286Y-6438714D01*
X11630714Y-6424429D01*
X11616428Y-6395857D01*
X11616428Y-6367286D01*
X11630714Y-6338714D01*
X11659286Y-6324429D01*
X11730714Y-6324429D01*
X11759286Y-6310143D01*
X11902143Y-6238714D02*
X11902143Y-6538714D01*
X11902143Y-6253000D02*
X11930714Y-6238714D01*
X11987857Y-6238714D01*
X12016428Y-6253000D01*
X12030714Y-6267286D01*
X12045000Y-6295857D01*
X12045000Y-6381571D01*
X12030714Y-6410143D01*
X12016428Y-6424429D01*
X11987857Y-6438714D01*
X11930714Y-6438714D01*
X11902143Y-6424429D01*
X12173571Y-6410143D02*
X12187857Y-6424429D01*
X12173571Y-6438714D01*
X12159286Y-6424429D01*
X12173571Y-6410143D01*
X12173571Y-6438714D01*
X12173571Y-6253000D02*
X12187857Y-6267286D01*
X12173571Y-6281571D01*
X12159286Y-6267286D01*
X12173571Y-6253000D01*
X12173571Y-6281571D01*
X9750000Y-6893000D02*
X9830000Y-6973000D01*
X9830000Y-6893000D02*
X9750000Y-6973000D01*
X10173571Y-6768714D02*
X10202143Y-6768714D01*
X10230714Y-6783000D01*
X10245000Y-6797286D01*
X10259286Y-6825857D01*
X10273571Y-6883000D01*
X10273571Y-6954429D01*
X10259286Y-7011571D01*
X10245000Y-7040143D01*
X10230714Y-7054429D01*
X10202143Y-7068714D01*
X10173571Y-7068714D01*
X10145000Y-7054429D01*
X10130714Y-7040143D01*
X10116428Y-7011571D01*
X10102143Y-6954429D01*
X10102143Y-6883000D01*
X10116428Y-6825857D01*
X10130714Y-6797286D01*
X10145000Y-6783000D01*
X10173571Y-6768714D01*
X10402143Y-7040143D02*
X10416428Y-7054429D01*
X10402143Y-7068714D01*
X10387857Y-7054429D01*
X10402143Y-7040143D01*
X10402143Y-7068714D01*
X10587857Y-6897286D02*
X10559286Y-6883000D01*
X10545000Y-6868714D01*
X10530714Y-6840143D01*
X10530714Y-6825857D01*
X10545000Y-6797286D01*
X10559286Y-6783000D01*
X10587857Y-6768714D01*
X10645000Y-6768714D01*
X10673571Y-6783000D01*
X10687857Y-6797286D01*
X10702143Y-6825857D01*
X10702143Y-6840143D01*
X10687857Y-6868714D01*
X10673571Y-6883000D01*
X10645000Y-6897286D01*
X10587857Y-6897286D01*
X10559286Y-6911571D01*
X10545000Y-6925857D01*
X10530714Y-6954429D01*
X10530714Y-7011571D01*
X10545000Y-7040143D01*
X10559286Y-7054429D01*
X10587857Y-7068714D01*
X10645000Y-7068714D01*
X10673571Y-7054429D01*
X10687857Y-7040143D01*
X10702143Y-7011571D01*
X10702143Y-6954429D01*
X10687857Y-6925857D01*
X10673571Y-6911571D01*
X10645000Y-6897286D01*
X10887857Y-6768714D02*
X10916428Y-6768714D01*
X10945000Y-6783000D01*
X10959286Y-6797286D01*
X10973571Y-6825857D01*
X10987857Y-6883000D01*
X10987857Y-6954429D01*
X10973571Y-7011571D01*
X10959286Y-7040143D01*
X10945000Y-7054429D01*
X10916428Y-7068714D01*
X10887857Y-7068714D01*
X10859286Y-7054429D01*
X10845000Y-7040143D01*
X10830714Y-7011571D01*
X10816428Y-6954429D01*
X10816428Y-6883000D01*
X10830714Y-6825857D01*
X10845000Y-6797286D01*
X10859286Y-6783000D01*
X10887857Y-6768714D01*
X11173571Y-6768714D02*
X11202143Y-6768714D01*
X11230714Y-6783000D01*
X11245000Y-6797286D01*
X11259286Y-6825857D01*
X11273571Y-6883000D01*
X11273571Y-6954429D01*
X11259286Y-7011571D01*
X11245000Y-7040143D01*
X11230714Y-7054429D01*
X11202143Y-7068714D01*
X11173571Y-7068714D01*
X11145000Y-7054429D01*
X11130714Y-7040143D01*
X11116428Y-7011571D01*
X11102143Y-6954429D01*
X11102143Y-6883000D01*
X11116428Y-6825857D01*
X11130714Y-6797286D01*
X11145000Y-6783000D01*
X11173571Y-6768714D01*
X11402143Y-7068714D02*
X11402143Y-6868714D01*
X11402143Y-6897286D02*
X11416428Y-6883000D01*
X11445000Y-6868714D01*
X11487857Y-6868714D01*
X11516428Y-6883000D01*
X11530714Y-6911571D01*
X11530714Y-7068714D01*
X11530714Y-6911571D02*
X11545000Y-6883000D01*
X11573571Y-6868714D01*
X11616428Y-6868714D01*
X11645000Y-6883000D01*
X11659286Y-6911571D01*
X11659286Y-7068714D01*
X11802143Y-7068714D02*
X11802143Y-6868714D01*
X11802143Y-6897286D02*
X11816428Y-6883000D01*
X11845000Y-6868714D01*
X11887857Y-6868714D01*
X11916428Y-6883000D01*
X11930714Y-6911571D01*
X11930714Y-7068714D01*
X11930714Y-6911571D02*
X11945000Y-6883000D01*
X11973571Y-6868714D01*
X12016428Y-6868714D01*
X12045000Y-6883000D01*
X12059286Y-6911571D01*
X12059286Y-7068714D01*
X12645000Y-6754429D02*
X12387857Y-7140143D01*
X13030714Y-6768714D02*
X13059286Y-6768714D01*
X13087857Y-6783000D01*
X13102143Y-6797286D01*
X13116428Y-6825857D01*
X13130714Y-6883000D01*
X13130714Y-6954429D01*
X13116428Y-7011571D01*
X13102143Y-7040143D01*
X13087857Y-7054429D01*
X13059286Y-7068714D01*
X13030714Y-7068714D01*
X13002143Y-7054429D01*
X12987857Y-7040143D01*
X12973571Y-7011571D01*
X12959286Y-6954429D01*
X12959286Y-6883000D01*
X12973571Y-6825857D01*
X12987857Y-6797286D01*
X13002143Y-6783000D01*
X13030714Y-6768714D01*
X13259286Y-7040143D02*
X13273571Y-7054429D01*
X13259286Y-7068714D01*
X13245000Y-7054429D01*
X13259286Y-7040143D01*
X13259286Y-7068714D01*
X13459286Y-6768714D02*
X13487857Y-6768714D01*
X13516428Y-6783000D01*
X13530714Y-6797286D01*
X13545000Y-6825857D01*
X13559286Y-6883000D01*
X13559286Y-6954429D01*
X13545000Y-7011571D01*
X13530714Y-7040143D01*
X13516428Y-7054429D01*
X13487857Y-7068714D01*
X13459286Y-7068714D01*
X13430714Y-7054429D01*
X13416428Y-7040143D01*
X13402143Y-7011571D01*
X13387857Y-6954429D01*
X13387857Y-6883000D01*
X13402143Y-6825857D01*
X13416428Y-6797286D01*
X13430714Y-6783000D01*
X13459286Y-6768714D01*
X13659286Y-6768714D02*
X13845000Y-6768714D01*
X13745000Y-6883000D01*
X13787857Y-6883000D01*
X13816428Y-6897286D01*
X13830714Y-6911571D01*
X13845000Y-6940143D01*
X13845000Y-7011571D01*
X13830714Y-7040143D01*
X13816428Y-7054429D01*
X13787857Y-7068714D01*
X13702143Y-7068714D01*
X13673571Y-7054429D01*
X13659286Y-7040143D01*
X14130714Y-7068714D02*
X13959286Y-7068714D01*
X14045000Y-7068714D02*
X14045000Y-6768714D01*
X14016428Y-6811571D01*
X13987857Y-6840143D01*
X13959286Y-6854429D01*
X14402143Y-6768714D02*
X14259286Y-6768714D01*
X14245000Y-6911571D01*
X14259286Y-6897286D01*
X14287857Y-6883000D01*
X14359286Y-6883000D01*
X14387857Y-6897286D01*
X14402143Y-6911571D01*
X14416428Y-6940143D01*
X14416428Y-7011571D01*
X14402143Y-7040143D01*
X14387857Y-7054429D01*
X14359286Y-7068714D01*
X14287857Y-7068714D01*
X14259286Y-7054429D01*
X14245000Y-7040143D01*
X14530714Y-6768714D02*
X14530714Y-6825857D01*
X14645000Y-6768714D02*
X14645000Y-6825857D01*
X15087857Y-7183000D02*
X15073571Y-7168714D01*
X15045000Y-7125857D01*
X15030714Y-7097286D01*
X15016428Y-7054429D01*
X15002143Y-6983000D01*
X15002143Y-6925857D01*
X15016428Y-6854429D01*
X15030714Y-6811571D01*
X15045000Y-6783000D01*
X15073571Y-6740143D01*
X15087857Y-6725857D01*
X15173571Y-6768714D02*
X15359286Y-6768714D01*
X15259286Y-6883000D01*
X15302143Y-6883000D01*
X15330714Y-6897286D01*
X15345000Y-6911571D01*
X15359286Y-6940143D01*
X15359286Y-7011571D01*
X15345000Y-7040143D01*
X15330714Y-7054429D01*
X15302143Y-7068714D01*
X15216428Y-7068714D01*
X15187857Y-7054429D01*
X15173571Y-7040143D01*
X15545000Y-6768714D02*
X15573571Y-6768714D01*
X15602143Y-6783000D01*
X15616428Y-6797286D01*
X15630714Y-6825857D01*
X15645000Y-6883000D01*
X15645000Y-6954429D01*
X15630714Y-7011571D01*
X15616428Y-7040143D01*
X15602143Y-7054429D01*
X15573571Y-7068714D01*
X15545000Y-7068714D01*
X15516428Y-7054429D01*
X15502143Y-7040143D01*
X15487857Y-7011571D01*
X15473571Y-6954429D01*
X15473571Y-6883000D01*
X15487857Y-6825857D01*
X15502143Y-6797286D01*
X15516428Y-6783000D01*
X15545000Y-6768714D01*
X16002143Y-7068714D02*
X16002143Y-6768714D01*
X16130714Y-7068714D02*
X16130714Y-6911571D01*
X16116428Y-6883000D01*
X16087857Y-6868714D01*
X16045000Y-6868714D01*
X16016428Y-6883000D01*
X16002143Y-6897286D01*
X16316428Y-7068714D02*
X16287857Y-7054429D01*
X16273571Y-7040143D01*
X16259286Y-7011571D01*
X16259286Y-6925857D01*
X16273571Y-6897286D01*
X16287857Y-6883000D01*
X16316428Y-6868714D01*
X16359286Y-6868714D01*
X16387857Y-6883000D01*
X16402143Y-6897286D01*
X16416428Y-6925857D01*
X16416428Y-7011571D01*
X16402143Y-7040143D01*
X16387857Y-7054429D01*
X16359286Y-7068714D01*
X16316428Y-7068714D01*
X16587857Y-7068714D02*
X16559286Y-7054429D01*
X16545000Y-7025857D01*
X16545000Y-6768714D01*
X16816428Y-7054429D02*
X16787857Y-7068714D01*
X16730714Y-7068714D01*
X16702143Y-7054429D01*
X16687857Y-7025857D01*
X16687857Y-6911571D01*
X16702143Y-6883000D01*
X16730714Y-6868714D01*
X16787857Y-6868714D01*
X16816428Y-6883000D01*
X16830714Y-6911571D01*
X16830714Y-6940143D01*
X16687857Y-6968714D01*
X16945000Y-7054429D02*
X16973571Y-7068714D01*
X17030714Y-7068714D01*
X17059286Y-7054429D01*
X17073571Y-7025857D01*
X17073571Y-7011571D01*
X17059286Y-6983000D01*
X17030714Y-6968714D01*
X16987857Y-6968714D01*
X16959286Y-6954429D01*
X16945000Y-6925857D01*
X16945000Y-6911571D01*
X16959286Y-6883000D01*
X16987857Y-6868714D01*
X17030714Y-6868714D01*
X17059286Y-6883000D01*
X17173571Y-7183000D02*
X17187857Y-7168714D01*
X17216428Y-7125857D01*
X17230714Y-7097286D01*
X17245000Y-7054429D01*
X17259286Y-6983000D01*
X17259286Y-6925857D01*
X17245000Y-6854429D01*
X17230714Y-6811571D01*
X17216428Y-6783000D01*
X17187857Y-6740143D01*
X17173571Y-6725857D01*
X9830000Y-7329000D02*
G75*
G03*
X9830000Y-7329000I-50000J0D01*
G01*
X10273571Y-7464714D02*
X10102143Y-7464714D01*
X10187857Y-7464714D02*
X10187857Y-7164714D01*
X10159286Y-7207571D01*
X10130714Y-7236143D01*
X10102143Y-7250429D01*
X10402143Y-7436143D02*
X10416428Y-7450429D01*
X10402143Y-7464714D01*
X10387857Y-7450429D01*
X10402143Y-7436143D01*
X10402143Y-7464714D01*
X10602143Y-7164714D02*
X10630714Y-7164714D01*
X10659286Y-7179000D01*
X10673571Y-7193286D01*
X10687857Y-7221857D01*
X10702143Y-7279000D01*
X10702143Y-7350429D01*
X10687857Y-7407571D01*
X10673571Y-7436143D01*
X10659286Y-7450429D01*
X10630714Y-7464714D01*
X10602143Y-7464714D01*
X10573571Y-7450429D01*
X10559286Y-7436143D01*
X10545000Y-7407571D01*
X10530714Y-7350429D01*
X10530714Y-7279000D01*
X10545000Y-7221857D01*
X10559286Y-7193286D01*
X10573571Y-7179000D01*
X10602143Y-7164714D01*
X10887857Y-7164714D02*
X10916428Y-7164714D01*
X10945000Y-7179000D01*
X10959286Y-7193286D01*
X10973571Y-7221857D01*
X10987857Y-7279000D01*
X10987857Y-7350429D01*
X10973571Y-7407571D01*
X10959286Y-7436143D01*
X10945000Y-7450429D01*
X10916428Y-7464714D01*
X10887857Y-7464714D01*
X10859286Y-7450429D01*
X10845000Y-7436143D01*
X10830714Y-7407571D01*
X10816428Y-7350429D01*
X10816428Y-7279000D01*
X10830714Y-7221857D01*
X10845000Y-7193286D01*
X10859286Y-7179000D01*
X10887857Y-7164714D01*
X11173571Y-7164714D02*
X11202143Y-7164714D01*
X11230714Y-7179000D01*
X11245000Y-7193286D01*
X11259286Y-7221857D01*
X11273571Y-7279000D01*
X11273571Y-7350429D01*
X11259286Y-7407571D01*
X11245000Y-7436143D01*
X11230714Y-7450429D01*
X11202143Y-7464714D01*
X11173571Y-7464714D01*
X11145000Y-7450429D01*
X11130714Y-7436143D01*
X11116428Y-7407571D01*
X11102143Y-7350429D01*
X11102143Y-7279000D01*
X11116428Y-7221857D01*
X11130714Y-7193286D01*
X11145000Y-7179000D01*
X11173571Y-7164714D01*
X11402143Y-7464714D02*
X11402143Y-7264714D01*
X11402143Y-7293286D02*
X11416428Y-7279000D01*
X11445000Y-7264714D01*
X11487857Y-7264714D01*
X11516428Y-7279000D01*
X11530714Y-7307571D01*
X11530714Y-7464714D01*
X11530714Y-7307571D02*
X11545000Y-7279000D01*
X11573571Y-7264714D01*
X11616428Y-7264714D01*
X11645000Y-7279000D01*
X11659286Y-7307571D01*
X11659286Y-7464714D01*
X11802143Y-7464714D02*
X11802143Y-7264714D01*
X11802143Y-7293286D02*
X11816428Y-7279000D01*
X11845000Y-7264714D01*
X11887857Y-7264714D01*
X11916428Y-7279000D01*
X11930714Y-7307571D01*
X11930714Y-7464714D01*
X11930714Y-7307571D02*
X11945000Y-7279000D01*
X11973571Y-7264714D01*
X12016428Y-7264714D01*
X12045000Y-7279000D01*
X12059286Y-7307571D01*
X12059286Y-7464714D01*
X12645000Y-7150429D02*
X12387857Y-7536143D01*
X13030714Y-7164714D02*
X13059286Y-7164714D01*
X13087857Y-7179000D01*
X13102143Y-7193286D01*
X13116428Y-7221857D01*
X13130714Y-7279000D01*
X13130714Y-7350429D01*
X13116428Y-7407571D01*
X13102143Y-7436143D01*
X13087857Y-7450429D01*
X13059286Y-7464714D01*
X13030714Y-7464714D01*
X13002143Y-7450429D01*
X12987857Y-7436143D01*
X12973571Y-7407571D01*
X12959286Y-7350429D01*
X12959286Y-7279000D01*
X12973571Y-7221857D01*
X12987857Y-7193286D01*
X13002143Y-7179000D01*
X13030714Y-7164714D01*
X13259286Y-7436143D02*
X13273571Y-7450429D01*
X13259286Y-7464714D01*
X13245000Y-7450429D01*
X13259286Y-7436143D01*
X13259286Y-7464714D01*
X13459286Y-7164714D02*
X13487857Y-7164714D01*
X13516428Y-7179000D01*
X13530714Y-7193286D01*
X13545000Y-7221857D01*
X13559286Y-7279000D01*
X13559286Y-7350429D01*
X13545000Y-7407571D01*
X13530714Y-7436143D01*
X13516428Y-7450429D01*
X13487857Y-7464714D01*
X13459286Y-7464714D01*
X13430714Y-7450429D01*
X13416428Y-7436143D01*
X13402143Y-7407571D01*
X13387857Y-7350429D01*
X13387857Y-7279000D01*
X13402143Y-7221857D01*
X13416428Y-7193286D01*
X13430714Y-7179000D01*
X13459286Y-7164714D01*
X13659286Y-7164714D02*
X13845000Y-7164714D01*
X13745000Y-7279000D01*
X13787857Y-7279000D01*
X13816428Y-7293286D01*
X13830714Y-7307571D01*
X13845000Y-7336143D01*
X13845000Y-7407571D01*
X13830714Y-7436143D01*
X13816428Y-7450429D01*
X13787857Y-7464714D01*
X13702143Y-7464714D01*
X13673571Y-7450429D01*
X13659286Y-7436143D01*
X13987857Y-7464714D02*
X14045000Y-7464714D01*
X14073571Y-7450429D01*
X14087857Y-7436143D01*
X14116428Y-7393286D01*
X14130714Y-7336143D01*
X14130714Y-7221857D01*
X14116428Y-7193286D01*
X14102143Y-7179000D01*
X14073571Y-7164714D01*
X14016428Y-7164714D01*
X13987857Y-7179000D01*
X13973571Y-7193286D01*
X13959286Y-7221857D01*
X13959286Y-7293286D01*
X13973571Y-7321857D01*
X13987857Y-7336143D01*
X14016428Y-7350429D01*
X14073571Y-7350429D01*
X14102143Y-7336143D01*
X14116428Y-7321857D01*
X14130714Y-7293286D01*
X14387857Y-7264714D02*
X14387857Y-7464714D01*
X14316428Y-7150429D02*
X14245000Y-7364714D01*
X14430714Y-7364714D01*
X14530714Y-7164714D02*
X14530714Y-7221857D01*
X14645000Y-7164714D02*
X14645000Y-7221857D01*
X15087857Y-7579000D02*
X15073571Y-7564714D01*
X15045000Y-7521857D01*
X15030714Y-7493286D01*
X15016428Y-7450429D01*
X15002143Y-7379000D01*
X15002143Y-7321857D01*
X15016428Y-7250429D01*
X15030714Y-7207571D01*
X15045000Y-7179000D01*
X15073571Y-7136143D01*
X15087857Y-7121857D01*
X15187857Y-7193286D02*
X15202143Y-7179000D01*
X15230714Y-7164714D01*
X15302143Y-7164714D01*
X15330714Y-7179000D01*
X15345000Y-7193286D01*
X15359286Y-7221857D01*
X15359286Y-7250429D01*
X15345000Y-7293286D01*
X15173571Y-7464714D01*
X15359286Y-7464714D01*
X15473571Y-7193286D02*
X15487857Y-7179000D01*
X15516428Y-7164714D01*
X15587857Y-7164714D01*
X15616428Y-7179000D01*
X15630714Y-7193286D01*
X15645000Y-7221857D01*
X15645000Y-7250429D01*
X15630714Y-7293286D01*
X15459286Y-7464714D01*
X15645000Y-7464714D01*
X16002143Y-7464714D02*
X16002143Y-7164714D01*
X16130714Y-7464714D02*
X16130714Y-7307571D01*
X16116428Y-7279000D01*
X16087857Y-7264714D01*
X16045000Y-7264714D01*
X16016428Y-7279000D01*
X16002143Y-7293286D01*
X16316428Y-7464714D02*
X16287857Y-7450429D01*
X16273571Y-7436143D01*
X16259286Y-7407571D01*
X16259286Y-7321857D01*
X16273571Y-7293286D01*
X16287857Y-7279000D01*
X16316428Y-7264714D01*
X16359286Y-7264714D01*
X16387857Y-7279000D01*
X16402143Y-7293286D01*
X16416428Y-7321857D01*
X16416428Y-7407571D01*
X16402143Y-7436143D01*
X16387857Y-7450429D01*
X16359286Y-7464714D01*
X16316428Y-7464714D01*
X16587857Y-7464714D02*
X16559286Y-7450429D01*
X16545000Y-7421857D01*
X16545000Y-7164714D01*
X16816428Y-7450429D02*
X16787857Y-7464714D01*
X16730714Y-7464714D01*
X16702143Y-7450429D01*
X16687857Y-7421857D01*
X16687857Y-7307571D01*
X16702143Y-7279000D01*
X16730714Y-7264714D01*
X16787857Y-7264714D01*
X16816428Y-7279000D01*
X16830714Y-7307571D01*
X16830714Y-7336143D01*
X16687857Y-7364714D01*
X16945000Y-7450429D02*
X16973571Y-7464714D01*
X17030714Y-7464714D01*
X17059286Y-7450429D01*
X17073571Y-7421857D01*
X17073571Y-7407571D01*
X17059286Y-7379000D01*
X17030714Y-7364714D01*
X16987857Y-7364714D01*
X16959286Y-7350429D01*
X16945000Y-7321857D01*
X16945000Y-7307571D01*
X16959286Y-7279000D01*
X16987857Y-7264714D01*
X17030714Y-7264714D01*
X17059286Y-7279000D01*
X17173571Y-7579000D02*
X17187857Y-7564714D01*
X17216428Y-7521857D01*
X17230714Y-7493286D01*
X17245000Y-7450429D01*
X17259286Y-7379000D01*
X17259286Y-7321857D01*
X17245000Y-7250429D01*
X17230714Y-7207571D01*
X17216428Y-7179000D01*
X17187857Y-7136143D01*
X17173571Y-7121857D01*
X9779000Y-7674000D02*
X9779000Y-7776000D01*
X9728000Y-7725000D02*
X9830000Y-7725000D01*
X10273571Y-7860714D02*
X10102143Y-7860714D01*
X10187857Y-7860714D02*
X10187857Y-7560714D01*
X10159286Y-7603571D01*
X10130714Y-7632143D01*
X10102143Y-7646429D01*
X10402143Y-7832143D02*
X10416428Y-7846429D01*
X10402143Y-7860714D01*
X10387857Y-7846429D01*
X10402143Y-7832143D01*
X10402143Y-7860714D01*
X10602143Y-7560714D02*
X10630714Y-7560714D01*
X10659286Y-7575000D01*
X10673571Y-7589286D01*
X10687857Y-7617857D01*
X10702143Y-7675000D01*
X10702143Y-7746429D01*
X10687857Y-7803571D01*
X10673571Y-7832143D01*
X10659286Y-7846429D01*
X10630714Y-7860714D01*
X10602143Y-7860714D01*
X10573571Y-7846429D01*
X10559286Y-7832143D01*
X10545000Y-7803571D01*
X10530714Y-7746429D01*
X10530714Y-7675000D01*
X10545000Y-7617857D01*
X10559286Y-7589286D01*
X10573571Y-7575000D01*
X10602143Y-7560714D01*
X10816428Y-7589286D02*
X10830714Y-7575000D01*
X10859286Y-7560714D01*
X10930714Y-7560714D01*
X10959286Y-7575000D01*
X10973571Y-7589286D01*
X10987857Y-7617857D01*
X10987857Y-7646429D01*
X10973571Y-7689286D01*
X10802143Y-7860714D01*
X10987857Y-7860714D01*
X11173571Y-7560714D02*
X11202143Y-7560714D01*
X11230714Y-7575000D01*
X11245000Y-7589286D01*
X11259286Y-7617857D01*
X11273571Y-7675000D01*
X11273571Y-7746429D01*
X11259286Y-7803571D01*
X11245000Y-7832143D01*
X11230714Y-7846429D01*
X11202143Y-7860714D01*
X11173571Y-7860714D01*
X11145000Y-7846429D01*
X11130714Y-7832143D01*
X11116428Y-7803571D01*
X11102143Y-7746429D01*
X11102143Y-7675000D01*
X11116428Y-7617857D01*
X11130714Y-7589286D01*
X11145000Y-7575000D01*
X11173571Y-7560714D01*
X11402143Y-7860714D02*
X11402143Y-7660714D01*
X11402143Y-7689286D02*
X11416428Y-7675000D01*
X11445000Y-7660714D01*
X11487857Y-7660714D01*
X11516428Y-7675000D01*
X11530714Y-7703571D01*
X11530714Y-7860714D01*
X11530714Y-7703571D02*
X11545000Y-7675000D01*
X11573571Y-7660714D01*
X11616428Y-7660714D01*
X11645000Y-7675000D01*
X11659286Y-7703571D01*
X11659286Y-7860714D01*
X11802143Y-7860714D02*
X11802143Y-7660714D01*
X11802143Y-7689286D02*
X11816428Y-7675000D01*
X11845000Y-7660714D01*
X11887857Y-7660714D01*
X11916428Y-7675000D01*
X11930714Y-7703571D01*
X11930714Y-7860714D01*
X11930714Y-7703571D02*
X11945000Y-7675000D01*
X11973571Y-7660714D01*
X12016428Y-7660714D01*
X12045000Y-7675000D01*
X12059286Y-7703571D01*
X12059286Y-7860714D01*
X12645000Y-7546429D02*
X12387857Y-7932143D01*
X13030714Y-7560714D02*
X13059286Y-7560714D01*
X13087857Y-7575000D01*
X13102143Y-7589286D01*
X13116428Y-7617857D01*
X13130714Y-7675000D01*
X13130714Y-7746429D01*
X13116428Y-7803571D01*
X13102143Y-7832143D01*
X13087857Y-7846429D01*
X13059286Y-7860714D01*
X13030714Y-7860714D01*
X13002143Y-7846429D01*
X12987857Y-7832143D01*
X12973571Y-7803571D01*
X12959286Y-7746429D01*
X12959286Y-7675000D01*
X12973571Y-7617857D01*
X12987857Y-7589286D01*
X13002143Y-7575000D01*
X13030714Y-7560714D01*
X13259286Y-7832143D02*
X13273571Y-7846429D01*
X13259286Y-7860714D01*
X13245000Y-7846429D01*
X13259286Y-7832143D01*
X13259286Y-7860714D01*
X13459286Y-7560714D02*
X13487857Y-7560714D01*
X13516428Y-7575000D01*
X13530714Y-7589286D01*
X13545000Y-7617857D01*
X13559286Y-7675000D01*
X13559286Y-7746429D01*
X13545000Y-7803571D01*
X13530714Y-7832143D01*
X13516428Y-7846429D01*
X13487857Y-7860714D01*
X13459286Y-7860714D01*
X13430714Y-7846429D01*
X13416428Y-7832143D01*
X13402143Y-7803571D01*
X13387857Y-7746429D01*
X13387857Y-7675000D01*
X13402143Y-7617857D01*
X13416428Y-7589286D01*
X13430714Y-7575000D01*
X13459286Y-7560714D01*
X13816428Y-7660714D02*
X13816428Y-7860714D01*
X13745000Y-7546429D02*
X13673571Y-7760714D01*
X13859286Y-7760714D01*
X14030714Y-7560714D02*
X14059286Y-7560714D01*
X14087857Y-7575000D01*
X14102143Y-7589286D01*
X14116428Y-7617857D01*
X14130714Y-7675000D01*
X14130714Y-7746429D01*
X14116428Y-7803571D01*
X14102143Y-7832143D01*
X14087857Y-7846429D01*
X14059286Y-7860714D01*
X14030714Y-7860714D01*
X14002143Y-7846429D01*
X13987857Y-7832143D01*
X13973571Y-7803571D01*
X13959286Y-7746429D01*
X13959286Y-7675000D01*
X13973571Y-7617857D01*
X13987857Y-7589286D01*
X14002143Y-7575000D01*
X14030714Y-7560714D01*
X14245000Y-7589286D02*
X14259286Y-7575000D01*
X14287857Y-7560714D01*
X14359286Y-7560714D01*
X14387857Y-7575000D01*
X14402143Y-7589286D01*
X14416428Y-7617857D01*
X14416428Y-7646429D01*
X14402143Y-7689286D01*
X14230714Y-7860714D01*
X14416428Y-7860714D01*
X14530714Y-7560714D02*
X14530714Y-7617857D01*
X14645000Y-7560714D02*
X14645000Y-7617857D01*
X15087857Y-7975000D02*
X15073571Y-7960714D01*
X15045000Y-7917857D01*
X15030714Y-7889286D01*
X15016428Y-7846429D01*
X15002143Y-7775000D01*
X15002143Y-7717857D01*
X15016428Y-7646429D01*
X15030714Y-7603571D01*
X15045000Y-7575000D01*
X15073571Y-7532143D01*
X15087857Y-7517857D01*
X15173571Y-7560714D02*
X15359286Y-7560714D01*
X15259286Y-7675000D01*
X15302143Y-7675000D01*
X15330714Y-7689286D01*
X15345000Y-7703571D01*
X15359286Y-7732143D01*
X15359286Y-7803571D01*
X15345000Y-7832143D01*
X15330714Y-7846429D01*
X15302143Y-7860714D01*
X15216428Y-7860714D01*
X15187857Y-7846429D01*
X15173571Y-7832143D01*
X15716428Y-7860714D02*
X15716428Y-7560714D01*
X15845000Y-7860714D02*
X15845000Y-7703571D01*
X15830714Y-7675000D01*
X15802143Y-7660714D01*
X15759286Y-7660714D01*
X15730714Y-7675000D01*
X15716428Y-7689286D01*
X16030714Y-7860714D02*
X16002143Y-7846429D01*
X15987857Y-7832143D01*
X15973571Y-7803571D01*
X15973571Y-7717857D01*
X15987857Y-7689286D01*
X16002143Y-7675000D01*
X16030714Y-7660714D01*
X16073571Y-7660714D01*
X16102143Y-7675000D01*
X16116428Y-7689286D01*
X16130714Y-7717857D01*
X16130714Y-7803571D01*
X16116428Y-7832143D01*
X16102143Y-7846429D01*
X16073571Y-7860714D01*
X16030714Y-7860714D01*
X16302143Y-7860714D02*
X16273571Y-7846429D01*
X16259286Y-7817857D01*
X16259286Y-7560714D01*
X16530714Y-7846429D02*
X16502143Y-7860714D01*
X16445000Y-7860714D01*
X16416428Y-7846429D01*
X16402143Y-7817857D01*
X16402143Y-7703571D01*
X16416428Y-7675000D01*
X16445000Y-7660714D01*
X16502143Y-7660714D01*
X16530714Y-7675000D01*
X16545000Y-7703571D01*
X16545000Y-7732143D01*
X16402143Y-7760714D01*
X16659286Y-7846429D02*
X16687857Y-7860714D01*
X16745000Y-7860714D01*
X16773571Y-7846429D01*
X16787857Y-7817857D01*
X16787857Y-7803571D01*
X16773571Y-7775000D01*
X16745000Y-7760714D01*
X16702143Y-7760714D01*
X16673571Y-7746429D01*
X16659286Y-7717857D01*
X16659286Y-7703571D01*
X16673571Y-7675000D01*
X16702143Y-7660714D01*
X16745000Y-7660714D01*
X16773571Y-7675000D01*
X16887857Y-7975000D02*
X16902143Y-7960714D01*
X16930714Y-7917857D01*
X16945000Y-7889286D01*
X16959286Y-7846429D01*
X16973571Y-7775000D01*
X16973571Y-7717857D01*
X16959286Y-7646429D01*
X16945000Y-7603571D01*
X16930714Y-7575000D01*
X16902143Y-7532143D01*
X16887857Y-7517857D01*
M02*
