G04 #@! TF.GenerationSoftware,KiCad,Pcbnew,5.1.12-84ad8e8a86~92~ubuntu20.04.1*
G04 #@! TF.CreationDate,2022-05-26T22:04:44-05:00*
G04 #@! TF.ProjectId,sensor_oxigeno,73656e73-6f72-45f6-9f78-6967656e6f2e,rev?*
G04 #@! TF.SameCoordinates,Original*
G04 #@! TF.FileFunction,Soldermask,Top*
G04 #@! TF.FilePolarity,Negative*
%FSLAX46Y46*%
G04 Gerber Fmt 4.6, Leading zero omitted, Abs format (unit mm)*
G04 Created by KiCad (PCBNEW 5.1.12-84ad8e8a86~92~ubuntu20.04.1) date 2022-05-26 22:04:44*
%MOMM*%
%LPD*%
G01*
G04 APERTURE LIST*
%ADD10R,1.600000X1.600000*%
%ADD11O,1.600000X1.600000*%
%ADD12C,1.600000*%
%ADD13R,1.730000X2.030000*%
%ADD14O,1.730000X2.030000*%
%ADD15R,1.700000X1.700000*%
%ADD16O,1.700000X1.700000*%
G04 APERTURE END LIST*
D10*
X122656600Y-42697400D03*
D11*
X115036600Y-50317400D03*
X120116600Y-42697400D03*
X117576600Y-50317400D03*
X117576600Y-42697400D03*
X120116600Y-50317400D03*
X115036600Y-42697400D03*
X122656600Y-50317400D03*
X125704600Y-50266600D03*
D12*
X125704600Y-42646600D03*
D13*
X110540800Y-27762200D03*
D14*
X113080800Y-27762200D03*
X115620800Y-27762200D03*
D15*
X105333800Y-53797200D03*
D16*
X105333800Y-56337200D03*
X107873800Y-53797200D03*
X107873800Y-56337200D03*
X110413800Y-53797200D03*
X110413800Y-56337200D03*
X112953800Y-53797200D03*
X112953800Y-56337200D03*
X115493800Y-53797200D03*
X115493800Y-56337200D03*
X118033800Y-53797200D03*
X118033800Y-56337200D03*
X120573800Y-53797200D03*
X120573800Y-56337200D03*
D15*
X109143800Y-33299400D03*
D16*
X109143800Y-35839400D03*
X111683800Y-33299400D03*
X111683800Y-35839400D03*
X114223800Y-33299400D03*
X114223800Y-35839400D03*
X116763800Y-33299400D03*
X116763800Y-35839400D03*
D12*
X99822000Y-31927800D03*
D11*
X99822000Y-39547800D03*
X119837200Y-39471600D03*
D12*
X119837200Y-31851600D03*
X105867200Y-39547800D03*
D11*
X105867200Y-31927800D03*
D12*
X102819200Y-39547800D03*
D11*
X102819200Y-31927800D03*
X108508800Y-39497000D03*
D12*
X116128800Y-39497000D03*
X101295200Y-50368200D03*
D11*
X101295200Y-42748200D03*
X111963200Y-50317400D03*
X104343200Y-42697400D03*
X109423200Y-50317400D03*
X106883200Y-42697400D03*
X106883200Y-50317400D03*
X109423200Y-42697400D03*
X104343200Y-50317400D03*
D10*
X111963200Y-42697400D03*
M02*
