G04 #@! TF.GenerationSoftware,KiCad,Pcbnew,5.1.12-84ad8e8a86~92~ubuntu20.04.1*
G04 #@! TF.CreationDate,2022-05-26T22:04:44-05:00*
G04 #@! TF.ProjectId,sensor_oxigeno,73656e73-6f72-45f6-9f78-6967656e6f2e,rev?*
G04 #@! TF.SameCoordinates,Original*
G04 #@! TF.FileFunction,Copper,L1,Top*
G04 #@! TF.FilePolarity,Positive*
%FSLAX46Y46*%
G04 Gerber Fmt 4.6, Leading zero omitted, Abs format (unit mm)*
G04 Created by KiCad (PCBNEW 5.1.12-84ad8e8a86~92~ubuntu20.04.1) date 2022-05-26 22:04:44*
%MOMM*%
%LPD*%
G01*
G04 APERTURE LIST*
G04 #@! TA.AperFunction,ComponentPad*
%ADD10R,1.600000X1.600000*%
G04 #@! TD*
G04 #@! TA.AperFunction,ComponentPad*
%ADD11O,1.600000X1.600000*%
G04 #@! TD*
G04 #@! TA.AperFunction,ComponentPad*
%ADD12C,1.600000*%
G04 #@! TD*
G04 #@! TA.AperFunction,ComponentPad*
%ADD13R,1.730000X2.030000*%
G04 #@! TD*
G04 #@! TA.AperFunction,ComponentPad*
%ADD14O,1.730000X2.030000*%
G04 #@! TD*
G04 #@! TA.AperFunction,ComponentPad*
%ADD15R,1.700000X1.700000*%
G04 #@! TD*
G04 #@! TA.AperFunction,ComponentPad*
%ADD16O,1.700000X1.700000*%
G04 #@! TD*
G04 #@! TA.AperFunction,Conductor*
%ADD17C,0.254000*%
G04 #@! TD*
G04 #@! TA.AperFunction,Conductor*
%ADD18C,0.100000*%
G04 #@! TD*
G04 APERTURE END LIST*
D10*
X122656600Y-42697400D03*
D11*
X115036600Y-50317400D03*
X120116600Y-42697400D03*
X117576600Y-50317400D03*
X117576600Y-42697400D03*
X120116600Y-50317400D03*
X115036600Y-42697400D03*
X122656600Y-50317400D03*
X125704600Y-50266600D03*
D12*
X125704600Y-42646600D03*
D13*
X110540800Y-27762200D03*
D14*
X113080800Y-27762200D03*
X115620800Y-27762200D03*
D15*
X105333800Y-53797200D03*
D16*
X105333800Y-56337200D03*
X107873800Y-53797200D03*
X107873800Y-56337200D03*
X110413800Y-53797200D03*
X110413800Y-56337200D03*
X112953800Y-53797200D03*
X112953800Y-56337200D03*
X115493800Y-53797200D03*
X115493800Y-56337200D03*
X118033800Y-53797200D03*
X118033800Y-56337200D03*
X120573800Y-53797200D03*
X120573800Y-56337200D03*
D15*
X109143800Y-33299400D03*
D16*
X109143800Y-35839400D03*
X111683800Y-33299400D03*
X111683800Y-35839400D03*
X114223800Y-33299400D03*
X114223800Y-35839400D03*
X116763800Y-33299400D03*
X116763800Y-35839400D03*
D12*
X99822000Y-31927800D03*
D11*
X99822000Y-39547800D03*
X119837200Y-39471600D03*
D12*
X119837200Y-31851600D03*
X105867200Y-39547800D03*
D11*
X105867200Y-31927800D03*
D12*
X102819200Y-39547800D03*
D11*
X102819200Y-31927800D03*
X108508800Y-39497000D03*
D12*
X116128800Y-39497000D03*
X101295200Y-50368200D03*
D11*
X101295200Y-42748200D03*
X111963200Y-50317400D03*
X104343200Y-42697400D03*
X109423200Y-50317400D03*
X106883200Y-42697400D03*
X106883200Y-50317400D03*
X109423200Y-42697400D03*
X104343200Y-50317400D03*
D10*
X111963200Y-42697400D03*
D17*
X124973001Y-35103423D02*
X124975030Y-35124025D01*
X124974987Y-35130214D01*
X124975637Y-35136842D01*
X124996038Y-35330939D01*
X125004734Y-35373303D01*
X125012832Y-35415755D01*
X125014756Y-35422126D01*
X125014757Y-35422132D01*
X125014759Y-35422138D01*
X125072469Y-35608568D01*
X125089220Y-35648418D01*
X125105417Y-35688508D01*
X125108542Y-35694384D01*
X125108544Y-35694389D01*
X125108547Y-35694393D01*
X125201369Y-35866065D01*
X125225564Y-35901936D01*
X125249218Y-35938084D01*
X125253420Y-35943236D01*
X125253426Y-35943244D01*
X125253433Y-35943251D01*
X125377832Y-36093623D01*
X125408498Y-36124076D01*
X125438756Y-36154975D01*
X125443882Y-36159214D01*
X125443888Y-36159220D01*
X125443895Y-36159224D01*
X125595130Y-36282569D01*
X125631133Y-36306489D01*
X125666812Y-36330920D01*
X125672666Y-36334084D01*
X125672670Y-36334087D01*
X125672674Y-36334089D01*
X125844993Y-36425712D01*
X125884972Y-36442190D01*
X125924700Y-36459218D01*
X125931056Y-36461185D01*
X125931063Y-36461188D01*
X125931070Y-36461189D01*
X126117898Y-36517597D01*
X126160337Y-36526000D01*
X126202595Y-36534983D01*
X126209212Y-36535677D01*
X126209220Y-36535679D01*
X126209228Y-36535679D01*
X126403452Y-36554723D01*
X126551139Y-36569204D01*
X126648432Y-36598579D01*
X126738159Y-36646287D01*
X126816911Y-36710517D01*
X126881690Y-36788820D01*
X126930026Y-36878216D01*
X126960077Y-36975296D01*
X126973000Y-37098248D01*
X126973001Y-59103000D01*
X98927000Y-59103000D01*
X98927000Y-56221276D01*
X104156800Y-56221276D01*
X104156800Y-56453124D01*
X104202031Y-56680518D01*
X104290756Y-56894719D01*
X104419564Y-57087494D01*
X104583506Y-57251436D01*
X104776281Y-57380244D01*
X104990482Y-57468969D01*
X105217876Y-57514200D01*
X105449724Y-57514200D01*
X105677118Y-57468969D01*
X105891319Y-57380244D01*
X106084094Y-57251436D01*
X106248036Y-57087494D01*
X106376844Y-56894719D01*
X106465569Y-56680518D01*
X106510800Y-56453124D01*
X106510800Y-56221276D01*
X106696800Y-56221276D01*
X106696800Y-56453124D01*
X106742031Y-56680518D01*
X106830756Y-56894719D01*
X106959564Y-57087494D01*
X107123506Y-57251436D01*
X107316281Y-57380244D01*
X107530482Y-57468969D01*
X107757876Y-57514200D01*
X107989724Y-57514200D01*
X108217118Y-57468969D01*
X108431319Y-57380244D01*
X108624094Y-57251436D01*
X108788036Y-57087494D01*
X108916844Y-56894719D01*
X109005569Y-56680518D01*
X109050800Y-56453124D01*
X109050800Y-56221276D01*
X109236800Y-56221276D01*
X109236800Y-56453124D01*
X109282031Y-56680518D01*
X109370756Y-56894719D01*
X109499564Y-57087494D01*
X109663506Y-57251436D01*
X109856281Y-57380244D01*
X110070482Y-57468969D01*
X110297876Y-57514200D01*
X110529724Y-57514200D01*
X110757118Y-57468969D01*
X110971319Y-57380244D01*
X111164094Y-57251436D01*
X111328036Y-57087494D01*
X111456844Y-56894719D01*
X111545569Y-56680518D01*
X111590800Y-56453124D01*
X111590800Y-56221276D01*
X111776800Y-56221276D01*
X111776800Y-56453124D01*
X111822031Y-56680518D01*
X111910756Y-56894719D01*
X112039564Y-57087494D01*
X112203506Y-57251436D01*
X112396281Y-57380244D01*
X112610482Y-57468969D01*
X112837876Y-57514200D01*
X113069724Y-57514200D01*
X113297118Y-57468969D01*
X113511319Y-57380244D01*
X113704094Y-57251436D01*
X113868036Y-57087494D01*
X113996844Y-56894719D01*
X114085569Y-56680518D01*
X114130800Y-56453124D01*
X114130800Y-56221276D01*
X114316800Y-56221276D01*
X114316800Y-56453124D01*
X114362031Y-56680518D01*
X114450756Y-56894719D01*
X114579564Y-57087494D01*
X114743506Y-57251436D01*
X114936281Y-57380244D01*
X115150482Y-57468969D01*
X115377876Y-57514200D01*
X115609724Y-57514200D01*
X115837118Y-57468969D01*
X116051319Y-57380244D01*
X116244094Y-57251436D01*
X116408036Y-57087494D01*
X116536844Y-56894719D01*
X116625569Y-56680518D01*
X116670800Y-56453124D01*
X116670800Y-56221276D01*
X116625569Y-55993882D01*
X116536844Y-55779681D01*
X116408036Y-55586906D01*
X116244094Y-55422964D01*
X116051319Y-55294156D01*
X115837118Y-55205431D01*
X115609724Y-55160200D01*
X115377876Y-55160200D01*
X115150482Y-55205431D01*
X114936281Y-55294156D01*
X114743506Y-55422964D01*
X114579564Y-55586906D01*
X114450756Y-55779681D01*
X114362031Y-55993882D01*
X114316800Y-56221276D01*
X114130800Y-56221276D01*
X114085569Y-55993882D01*
X113996844Y-55779681D01*
X113868036Y-55586906D01*
X113704094Y-55422964D01*
X113511319Y-55294156D01*
X113297118Y-55205431D01*
X113069724Y-55160200D01*
X112837876Y-55160200D01*
X112610482Y-55205431D01*
X112396281Y-55294156D01*
X112203506Y-55422964D01*
X112039564Y-55586906D01*
X111910756Y-55779681D01*
X111822031Y-55993882D01*
X111776800Y-56221276D01*
X111590800Y-56221276D01*
X111545569Y-55993882D01*
X111456844Y-55779681D01*
X111328036Y-55586906D01*
X111164094Y-55422964D01*
X110971319Y-55294156D01*
X110757118Y-55205431D01*
X110529724Y-55160200D01*
X110297876Y-55160200D01*
X110070482Y-55205431D01*
X109856281Y-55294156D01*
X109663506Y-55422964D01*
X109499564Y-55586906D01*
X109370756Y-55779681D01*
X109282031Y-55993882D01*
X109236800Y-56221276D01*
X109050800Y-56221276D01*
X109005569Y-55993882D01*
X108916844Y-55779681D01*
X108788036Y-55586906D01*
X108624094Y-55422964D01*
X108431319Y-55294156D01*
X108217118Y-55205431D01*
X107989724Y-55160200D01*
X107757876Y-55160200D01*
X107530482Y-55205431D01*
X107316281Y-55294156D01*
X107123506Y-55422964D01*
X106959564Y-55586906D01*
X106830756Y-55779681D01*
X106742031Y-55993882D01*
X106696800Y-56221276D01*
X106510800Y-56221276D01*
X106465569Y-55993882D01*
X106376844Y-55779681D01*
X106248036Y-55586906D01*
X106084094Y-55422964D01*
X105891319Y-55294156D01*
X105677118Y-55205431D01*
X105449724Y-55160200D01*
X105217876Y-55160200D01*
X104990482Y-55205431D01*
X104776281Y-55294156D01*
X104583506Y-55422964D01*
X104419564Y-55586906D01*
X104290756Y-55779681D01*
X104202031Y-55993882D01*
X104156800Y-56221276D01*
X98927000Y-56221276D01*
X98927000Y-52947200D01*
X104155218Y-52947200D01*
X104155218Y-54647200D01*
X104161532Y-54711303D01*
X104180230Y-54772943D01*
X104210594Y-54829750D01*
X104251457Y-54879543D01*
X104301250Y-54920406D01*
X104358057Y-54950770D01*
X104419697Y-54969468D01*
X104483800Y-54975782D01*
X106183800Y-54975782D01*
X106247903Y-54969468D01*
X106309543Y-54950770D01*
X106366350Y-54920406D01*
X106416143Y-54879543D01*
X106457006Y-54829750D01*
X106487370Y-54772943D01*
X106506068Y-54711303D01*
X106512382Y-54647200D01*
X106512382Y-53681276D01*
X106696800Y-53681276D01*
X106696800Y-53913124D01*
X106742031Y-54140518D01*
X106830756Y-54354719D01*
X106959564Y-54547494D01*
X107123506Y-54711436D01*
X107316281Y-54840244D01*
X107530482Y-54928969D01*
X107757876Y-54974200D01*
X107989724Y-54974200D01*
X108217118Y-54928969D01*
X108431319Y-54840244D01*
X108624094Y-54711436D01*
X108788036Y-54547494D01*
X108916844Y-54354719D01*
X109005569Y-54140518D01*
X109050800Y-53913124D01*
X109050800Y-53681276D01*
X109236800Y-53681276D01*
X109236800Y-53913124D01*
X109282031Y-54140518D01*
X109370756Y-54354719D01*
X109499564Y-54547494D01*
X109663506Y-54711436D01*
X109856281Y-54840244D01*
X110070482Y-54928969D01*
X110297876Y-54974200D01*
X110529724Y-54974200D01*
X110757118Y-54928969D01*
X110971319Y-54840244D01*
X111164094Y-54711436D01*
X111328036Y-54547494D01*
X111456844Y-54354719D01*
X111545569Y-54140518D01*
X111590800Y-53913124D01*
X111590800Y-53681276D01*
X111776800Y-53681276D01*
X111776800Y-53913124D01*
X111822031Y-54140518D01*
X111910756Y-54354719D01*
X112039564Y-54547494D01*
X112203506Y-54711436D01*
X112396281Y-54840244D01*
X112610482Y-54928969D01*
X112837876Y-54974200D01*
X113069724Y-54974200D01*
X113297118Y-54928969D01*
X113511319Y-54840244D01*
X113704094Y-54711436D01*
X113868036Y-54547494D01*
X113996844Y-54354719D01*
X114085569Y-54140518D01*
X114130800Y-53913124D01*
X114130800Y-53681276D01*
X114316800Y-53681276D01*
X114316800Y-53913124D01*
X114362031Y-54140518D01*
X114450756Y-54354719D01*
X114579564Y-54547494D01*
X114743506Y-54711436D01*
X114936281Y-54840244D01*
X115150482Y-54928969D01*
X115377876Y-54974200D01*
X115609724Y-54974200D01*
X115837118Y-54928969D01*
X116051319Y-54840244D01*
X116244094Y-54711436D01*
X116408036Y-54547494D01*
X116536844Y-54354719D01*
X116605064Y-54190021D01*
X116689643Y-54428452D01*
X116838622Y-54678555D01*
X117033531Y-54894788D01*
X117266880Y-55068841D01*
X117529701Y-55194025D01*
X117638412Y-55226999D01*
X117476281Y-55294156D01*
X117283506Y-55422964D01*
X117119564Y-55586906D01*
X116990756Y-55779681D01*
X116902031Y-55993882D01*
X116856800Y-56221276D01*
X116856800Y-56453124D01*
X116902031Y-56680518D01*
X116990756Y-56894719D01*
X117119564Y-57087494D01*
X117283506Y-57251436D01*
X117476281Y-57380244D01*
X117690482Y-57468969D01*
X117917876Y-57514200D01*
X118149724Y-57514200D01*
X118377118Y-57468969D01*
X118591319Y-57380244D01*
X118784094Y-57251436D01*
X118948036Y-57087494D01*
X119076844Y-56894719D01*
X119145064Y-56730021D01*
X119229643Y-56968452D01*
X119378622Y-57218555D01*
X119573531Y-57434788D01*
X119806880Y-57608841D01*
X120069701Y-57734025D01*
X120216910Y-57778676D01*
X120446800Y-57657355D01*
X120446800Y-56464200D01*
X120700800Y-56464200D01*
X120700800Y-57657355D01*
X120930690Y-57778676D01*
X121077899Y-57734025D01*
X121340720Y-57608841D01*
X121574069Y-57434788D01*
X121768978Y-57218555D01*
X121917957Y-56968452D01*
X122015281Y-56694091D01*
X121894614Y-56464200D01*
X120700800Y-56464200D01*
X120446800Y-56464200D01*
X120426800Y-56464200D01*
X120426800Y-56210200D01*
X120446800Y-56210200D01*
X120446800Y-53924200D01*
X120700800Y-53924200D01*
X120700800Y-56210200D01*
X121894614Y-56210200D01*
X122015281Y-55980309D01*
X121917957Y-55705948D01*
X121768978Y-55455845D01*
X121574069Y-55239612D01*
X121342920Y-55067200D01*
X121574069Y-54894788D01*
X121768978Y-54678555D01*
X121917957Y-54428452D01*
X122015281Y-54154091D01*
X121894614Y-53924200D01*
X120700800Y-53924200D01*
X120446800Y-53924200D01*
X118160800Y-53924200D01*
X118160800Y-53944200D01*
X117906800Y-53944200D01*
X117906800Y-53924200D01*
X117886800Y-53924200D01*
X117886800Y-53670200D01*
X117906800Y-53670200D01*
X117906800Y-52477045D01*
X118160800Y-52477045D01*
X118160800Y-53670200D01*
X120446800Y-53670200D01*
X120446800Y-52477045D01*
X120700800Y-52477045D01*
X120700800Y-53670200D01*
X121894614Y-53670200D01*
X122015281Y-53440309D01*
X121917957Y-53165948D01*
X121768978Y-52915845D01*
X121574069Y-52699612D01*
X121340720Y-52525559D01*
X121077899Y-52400375D01*
X120930690Y-52355724D01*
X120700800Y-52477045D01*
X120446800Y-52477045D01*
X120216910Y-52355724D01*
X120069701Y-52400375D01*
X119806880Y-52525559D01*
X119573531Y-52699612D01*
X119378622Y-52915845D01*
X119303800Y-53041455D01*
X119228978Y-52915845D01*
X119034069Y-52699612D01*
X118800720Y-52525559D01*
X118537899Y-52400375D01*
X118390690Y-52355724D01*
X118160800Y-52477045D01*
X117906800Y-52477045D01*
X117676910Y-52355724D01*
X117529701Y-52400375D01*
X117266880Y-52525559D01*
X117033531Y-52699612D01*
X116838622Y-52915845D01*
X116689643Y-53165948D01*
X116605064Y-53404379D01*
X116536844Y-53239681D01*
X116408036Y-53046906D01*
X116244094Y-52882964D01*
X116051319Y-52754156D01*
X115837118Y-52665431D01*
X115609724Y-52620200D01*
X115377876Y-52620200D01*
X115150482Y-52665431D01*
X114936281Y-52754156D01*
X114743506Y-52882964D01*
X114579564Y-53046906D01*
X114450756Y-53239681D01*
X114362031Y-53453882D01*
X114316800Y-53681276D01*
X114130800Y-53681276D01*
X114085569Y-53453882D01*
X113996844Y-53239681D01*
X113868036Y-53046906D01*
X113704094Y-52882964D01*
X113511319Y-52754156D01*
X113297118Y-52665431D01*
X113069724Y-52620200D01*
X112837876Y-52620200D01*
X112610482Y-52665431D01*
X112396281Y-52754156D01*
X112203506Y-52882964D01*
X112039564Y-53046906D01*
X111910756Y-53239681D01*
X111822031Y-53453882D01*
X111776800Y-53681276D01*
X111590800Y-53681276D01*
X111545569Y-53453882D01*
X111456844Y-53239681D01*
X111328036Y-53046906D01*
X111164094Y-52882964D01*
X110971319Y-52754156D01*
X110757118Y-52665431D01*
X110529724Y-52620200D01*
X110297876Y-52620200D01*
X110070482Y-52665431D01*
X109856281Y-52754156D01*
X109663506Y-52882964D01*
X109499564Y-53046906D01*
X109370756Y-53239681D01*
X109282031Y-53453882D01*
X109236800Y-53681276D01*
X109050800Y-53681276D01*
X109005569Y-53453882D01*
X108916844Y-53239681D01*
X108788036Y-53046906D01*
X108624094Y-52882964D01*
X108431319Y-52754156D01*
X108217118Y-52665431D01*
X107989724Y-52620200D01*
X107757876Y-52620200D01*
X107530482Y-52665431D01*
X107316281Y-52754156D01*
X107123506Y-52882964D01*
X106959564Y-53046906D01*
X106830756Y-53239681D01*
X106742031Y-53453882D01*
X106696800Y-53681276D01*
X106512382Y-53681276D01*
X106512382Y-52947200D01*
X106506068Y-52883097D01*
X106487370Y-52821457D01*
X106457006Y-52764650D01*
X106416143Y-52714857D01*
X106366350Y-52673994D01*
X106309543Y-52643630D01*
X106247903Y-52624932D01*
X106183800Y-52618618D01*
X104483800Y-52618618D01*
X104419697Y-52624932D01*
X104358057Y-52643630D01*
X104301250Y-52673994D01*
X104251457Y-52714857D01*
X104210594Y-52764650D01*
X104180230Y-52821457D01*
X104161532Y-52883097D01*
X104155218Y-52947200D01*
X98927000Y-52947200D01*
X98927000Y-50257200D01*
X100168200Y-50257200D01*
X100168200Y-50479200D01*
X100211510Y-50696934D01*
X100296466Y-50902035D01*
X100419802Y-51086621D01*
X100576779Y-51243598D01*
X100761365Y-51366934D01*
X100966466Y-51451890D01*
X101184200Y-51495200D01*
X101406200Y-51495200D01*
X101623934Y-51451890D01*
X101829035Y-51366934D01*
X102013621Y-51243598D01*
X102170598Y-51086621D01*
X102293934Y-50902035D01*
X102378890Y-50696934D01*
X102422200Y-50479200D01*
X102422200Y-50257200D01*
X102412096Y-50206400D01*
X103216200Y-50206400D01*
X103216200Y-50428400D01*
X103259510Y-50646134D01*
X103344466Y-50851235D01*
X103467802Y-51035821D01*
X103624779Y-51192798D01*
X103809365Y-51316134D01*
X104014466Y-51401090D01*
X104232200Y-51444400D01*
X104454200Y-51444400D01*
X104671934Y-51401090D01*
X104877035Y-51316134D01*
X105061621Y-51192798D01*
X105218598Y-51035821D01*
X105341934Y-50851235D01*
X105426890Y-50646134D01*
X105470200Y-50428400D01*
X105470200Y-50206400D01*
X105756200Y-50206400D01*
X105756200Y-50428400D01*
X105799510Y-50646134D01*
X105884466Y-50851235D01*
X106007802Y-51035821D01*
X106164779Y-51192798D01*
X106349365Y-51316134D01*
X106554466Y-51401090D01*
X106772200Y-51444400D01*
X106994200Y-51444400D01*
X107211934Y-51401090D01*
X107417035Y-51316134D01*
X107601621Y-51192798D01*
X107758598Y-51035821D01*
X107881934Y-50851235D01*
X107966890Y-50646134D01*
X108010200Y-50428400D01*
X108010200Y-50206400D01*
X108296200Y-50206400D01*
X108296200Y-50428400D01*
X108339510Y-50646134D01*
X108424466Y-50851235D01*
X108547802Y-51035821D01*
X108704779Y-51192798D01*
X108889365Y-51316134D01*
X109094466Y-51401090D01*
X109312200Y-51444400D01*
X109534200Y-51444400D01*
X109751934Y-51401090D01*
X109957035Y-51316134D01*
X110141621Y-51192798D01*
X110298598Y-51035821D01*
X110421934Y-50851235D01*
X110506890Y-50646134D01*
X110550200Y-50428400D01*
X110550200Y-50206400D01*
X110836200Y-50206400D01*
X110836200Y-50428400D01*
X110879510Y-50646134D01*
X110964466Y-50851235D01*
X111087802Y-51035821D01*
X111244779Y-51192798D01*
X111429365Y-51316134D01*
X111634466Y-51401090D01*
X111852200Y-51444400D01*
X112074200Y-51444400D01*
X112291934Y-51401090D01*
X112497035Y-51316134D01*
X112681621Y-51192798D01*
X112838598Y-51035821D01*
X112961934Y-50851235D01*
X113038478Y-50666440D01*
X113644691Y-50666440D01*
X113739530Y-50931281D01*
X113884215Y-51172531D01*
X114073186Y-51380919D01*
X114299180Y-51548437D01*
X114553513Y-51668646D01*
X114687561Y-51709304D01*
X114909600Y-51587315D01*
X114909600Y-50444400D01*
X113765976Y-50444400D01*
X113644691Y-50666440D01*
X113038478Y-50666440D01*
X113046890Y-50646134D01*
X113090200Y-50428400D01*
X113090200Y-50206400D01*
X113046890Y-49988666D01*
X113038479Y-49968360D01*
X113644691Y-49968360D01*
X113765976Y-50190400D01*
X114909600Y-50190400D01*
X114909600Y-49047485D01*
X115163600Y-49047485D01*
X115163600Y-50190400D01*
X115183600Y-50190400D01*
X115183600Y-50444400D01*
X115163600Y-50444400D01*
X115163600Y-51587315D01*
X115385639Y-51709304D01*
X115519687Y-51668646D01*
X115774020Y-51548437D01*
X116000014Y-51380919D01*
X116188985Y-51172531D01*
X116333670Y-50931281D01*
X116428509Y-50666440D01*
X116307225Y-50444402D01*
X116452783Y-50444402D01*
X116492910Y-50646134D01*
X116577866Y-50851235D01*
X116701202Y-51035821D01*
X116858179Y-51192798D01*
X117042765Y-51316134D01*
X117247866Y-51401090D01*
X117465600Y-51444400D01*
X117687600Y-51444400D01*
X117905334Y-51401090D01*
X118110435Y-51316134D01*
X118295021Y-51192798D01*
X118451998Y-51035821D01*
X118575334Y-50851235D01*
X118660290Y-50646134D01*
X118703600Y-50428400D01*
X118703600Y-50206400D01*
X118989600Y-50206400D01*
X118989600Y-50428400D01*
X119032910Y-50646134D01*
X119117866Y-50851235D01*
X119241202Y-51035821D01*
X119398179Y-51192798D01*
X119582765Y-51316134D01*
X119787866Y-51401090D01*
X120005600Y-51444400D01*
X120227600Y-51444400D01*
X120445334Y-51401090D01*
X120650435Y-51316134D01*
X120835021Y-51192798D01*
X120991998Y-51035821D01*
X121115334Y-50851235D01*
X121200290Y-50646134D01*
X121243600Y-50428400D01*
X121243600Y-50206400D01*
X121529600Y-50206400D01*
X121529600Y-50428400D01*
X121572910Y-50646134D01*
X121657866Y-50851235D01*
X121781202Y-51035821D01*
X121938179Y-51192798D01*
X122122765Y-51316134D01*
X122327866Y-51401090D01*
X122545600Y-51444400D01*
X122767600Y-51444400D01*
X122985334Y-51401090D01*
X123190435Y-51316134D01*
X123375021Y-51192798D01*
X123531998Y-51035821D01*
X123655334Y-50851235D01*
X123740290Y-50646134D01*
X123783600Y-50428400D01*
X123783600Y-50206400D01*
X123773496Y-50155600D01*
X124577600Y-50155600D01*
X124577600Y-50377600D01*
X124620910Y-50595334D01*
X124705866Y-50800435D01*
X124829202Y-50985021D01*
X124986179Y-51141998D01*
X125170765Y-51265334D01*
X125375866Y-51350290D01*
X125593600Y-51393600D01*
X125815600Y-51393600D01*
X126033334Y-51350290D01*
X126238435Y-51265334D01*
X126423021Y-51141998D01*
X126579998Y-50985021D01*
X126703334Y-50800435D01*
X126788290Y-50595334D01*
X126831600Y-50377600D01*
X126831600Y-50155600D01*
X126788290Y-49937866D01*
X126703334Y-49732765D01*
X126579998Y-49548179D01*
X126423021Y-49391202D01*
X126238435Y-49267866D01*
X126033334Y-49182910D01*
X125815600Y-49139600D01*
X125593600Y-49139600D01*
X125375866Y-49182910D01*
X125170765Y-49267866D01*
X124986179Y-49391202D01*
X124829202Y-49548179D01*
X124705866Y-49732765D01*
X124620910Y-49937866D01*
X124577600Y-50155600D01*
X123773496Y-50155600D01*
X123740290Y-49988666D01*
X123655334Y-49783565D01*
X123531998Y-49598979D01*
X123375021Y-49442002D01*
X123190435Y-49318666D01*
X122985334Y-49233710D01*
X122767600Y-49190400D01*
X122545600Y-49190400D01*
X122327866Y-49233710D01*
X122122765Y-49318666D01*
X121938179Y-49442002D01*
X121781202Y-49598979D01*
X121657866Y-49783565D01*
X121572910Y-49988666D01*
X121529600Y-50206400D01*
X121243600Y-50206400D01*
X121200290Y-49988666D01*
X121115334Y-49783565D01*
X120991998Y-49598979D01*
X120835021Y-49442002D01*
X120650435Y-49318666D01*
X120445334Y-49233710D01*
X120227600Y-49190400D01*
X120005600Y-49190400D01*
X119787866Y-49233710D01*
X119582765Y-49318666D01*
X119398179Y-49442002D01*
X119241202Y-49598979D01*
X119117866Y-49783565D01*
X119032910Y-49988666D01*
X118989600Y-50206400D01*
X118703600Y-50206400D01*
X118660290Y-49988666D01*
X118575334Y-49783565D01*
X118451998Y-49598979D01*
X118295021Y-49442002D01*
X118110435Y-49318666D01*
X117905334Y-49233710D01*
X117687600Y-49190400D01*
X117465600Y-49190400D01*
X117247866Y-49233710D01*
X117042765Y-49318666D01*
X116858179Y-49442002D01*
X116701202Y-49598979D01*
X116577866Y-49783565D01*
X116492910Y-49988666D01*
X116452783Y-50190398D01*
X116307225Y-50190398D01*
X116428509Y-49968360D01*
X116333670Y-49703519D01*
X116188985Y-49462269D01*
X116000014Y-49253881D01*
X115774020Y-49086363D01*
X115519687Y-48966154D01*
X115385639Y-48925496D01*
X115163600Y-49047485D01*
X114909600Y-49047485D01*
X114687561Y-48925496D01*
X114553513Y-48966154D01*
X114299180Y-49086363D01*
X114073186Y-49253881D01*
X113884215Y-49462269D01*
X113739530Y-49703519D01*
X113644691Y-49968360D01*
X113038479Y-49968360D01*
X112961934Y-49783565D01*
X112838598Y-49598979D01*
X112681621Y-49442002D01*
X112497035Y-49318666D01*
X112291934Y-49233710D01*
X112074200Y-49190400D01*
X111852200Y-49190400D01*
X111634466Y-49233710D01*
X111429365Y-49318666D01*
X111244779Y-49442002D01*
X111087802Y-49598979D01*
X110964466Y-49783565D01*
X110879510Y-49988666D01*
X110836200Y-50206400D01*
X110550200Y-50206400D01*
X110506890Y-49988666D01*
X110421934Y-49783565D01*
X110298598Y-49598979D01*
X110141621Y-49442002D01*
X109957035Y-49318666D01*
X109751934Y-49233710D01*
X109534200Y-49190400D01*
X109312200Y-49190400D01*
X109094466Y-49233710D01*
X108889365Y-49318666D01*
X108704779Y-49442002D01*
X108547802Y-49598979D01*
X108424466Y-49783565D01*
X108339510Y-49988666D01*
X108296200Y-50206400D01*
X108010200Y-50206400D01*
X107966890Y-49988666D01*
X107881934Y-49783565D01*
X107758598Y-49598979D01*
X107601621Y-49442002D01*
X107417035Y-49318666D01*
X107211934Y-49233710D01*
X106994200Y-49190400D01*
X106772200Y-49190400D01*
X106554466Y-49233710D01*
X106349365Y-49318666D01*
X106164779Y-49442002D01*
X106007802Y-49598979D01*
X105884466Y-49783565D01*
X105799510Y-49988666D01*
X105756200Y-50206400D01*
X105470200Y-50206400D01*
X105426890Y-49988666D01*
X105341934Y-49783565D01*
X105218598Y-49598979D01*
X105061621Y-49442002D01*
X104877035Y-49318666D01*
X104671934Y-49233710D01*
X104454200Y-49190400D01*
X104232200Y-49190400D01*
X104014466Y-49233710D01*
X103809365Y-49318666D01*
X103624779Y-49442002D01*
X103467802Y-49598979D01*
X103344466Y-49783565D01*
X103259510Y-49988666D01*
X103216200Y-50206400D01*
X102412096Y-50206400D01*
X102378890Y-50039466D01*
X102293934Y-49834365D01*
X102170598Y-49649779D01*
X102013621Y-49492802D01*
X101829035Y-49369466D01*
X101623934Y-49284510D01*
X101406200Y-49241200D01*
X101184200Y-49241200D01*
X100966466Y-49284510D01*
X100761365Y-49369466D01*
X100576779Y-49492802D01*
X100419802Y-49649779D01*
X100296466Y-49834365D01*
X100211510Y-50039466D01*
X100168200Y-50257200D01*
X98927000Y-50257200D01*
X98927000Y-42637200D01*
X100168200Y-42637200D01*
X100168200Y-42859200D01*
X100211510Y-43076934D01*
X100296466Y-43282035D01*
X100419802Y-43466621D01*
X100576779Y-43623598D01*
X100761365Y-43746934D01*
X100966466Y-43831890D01*
X101184200Y-43875200D01*
X101406200Y-43875200D01*
X101623934Y-43831890D01*
X101829035Y-43746934D01*
X102013621Y-43623598D01*
X102170598Y-43466621D01*
X102293934Y-43282035D01*
X102378890Y-43076934D01*
X102384955Y-43046440D01*
X102951291Y-43046440D01*
X103046130Y-43311281D01*
X103190815Y-43552531D01*
X103379786Y-43760919D01*
X103605780Y-43928437D01*
X103860113Y-44048646D01*
X103994161Y-44089304D01*
X104216200Y-43967315D01*
X104216200Y-42824400D01*
X103072576Y-42824400D01*
X102951291Y-43046440D01*
X102384955Y-43046440D01*
X102422200Y-42859200D01*
X102422200Y-42637200D01*
X102378890Y-42419466D01*
X102349437Y-42348360D01*
X102951291Y-42348360D01*
X103072576Y-42570400D01*
X104216200Y-42570400D01*
X104216200Y-41427485D01*
X104470200Y-41427485D01*
X104470200Y-42570400D01*
X104490200Y-42570400D01*
X104490200Y-42824400D01*
X104470200Y-42824400D01*
X104470200Y-43967315D01*
X104692239Y-44089304D01*
X104826287Y-44048646D01*
X105080620Y-43928437D01*
X105306614Y-43760919D01*
X105495585Y-43552531D01*
X105640270Y-43311281D01*
X105735109Y-43046440D01*
X105613825Y-42824402D01*
X105759383Y-42824402D01*
X105799510Y-43026134D01*
X105884466Y-43231235D01*
X106007802Y-43415821D01*
X106164779Y-43572798D01*
X106349365Y-43696134D01*
X106554466Y-43781090D01*
X106772200Y-43824400D01*
X106994200Y-43824400D01*
X107211934Y-43781090D01*
X107417035Y-43696134D01*
X107601621Y-43572798D01*
X107758598Y-43415821D01*
X107881934Y-43231235D01*
X107966890Y-43026134D01*
X108010200Y-42808400D01*
X108010200Y-42586400D01*
X108296200Y-42586400D01*
X108296200Y-42808400D01*
X108339510Y-43026134D01*
X108424466Y-43231235D01*
X108547802Y-43415821D01*
X108704779Y-43572798D01*
X108889365Y-43696134D01*
X109094466Y-43781090D01*
X109312200Y-43824400D01*
X109534200Y-43824400D01*
X109751934Y-43781090D01*
X109957035Y-43696134D01*
X110141621Y-43572798D01*
X110298598Y-43415821D01*
X110421934Y-43231235D01*
X110506890Y-43026134D01*
X110550200Y-42808400D01*
X110550200Y-42586400D01*
X110506890Y-42368666D01*
X110421934Y-42163565D01*
X110298598Y-41978979D01*
X110217019Y-41897400D01*
X110834618Y-41897400D01*
X110834618Y-43497400D01*
X110840932Y-43561503D01*
X110859630Y-43623143D01*
X110889994Y-43679950D01*
X110930857Y-43729743D01*
X110980650Y-43770606D01*
X111037457Y-43800970D01*
X111099097Y-43819668D01*
X111163200Y-43825982D01*
X112763200Y-43825982D01*
X112827303Y-43819668D01*
X112888943Y-43800970D01*
X112945750Y-43770606D01*
X112995543Y-43729743D01*
X113036406Y-43679950D01*
X113066770Y-43623143D01*
X113085468Y-43561503D01*
X113091782Y-43497400D01*
X113091782Y-43046440D01*
X113644691Y-43046440D01*
X113739530Y-43311281D01*
X113884215Y-43552531D01*
X114073186Y-43760919D01*
X114299180Y-43928437D01*
X114553513Y-44048646D01*
X114687561Y-44089304D01*
X114909600Y-43967315D01*
X114909600Y-42824400D01*
X113765976Y-42824400D01*
X113644691Y-43046440D01*
X113091782Y-43046440D01*
X113091782Y-42348360D01*
X113644691Y-42348360D01*
X113765976Y-42570400D01*
X114909600Y-42570400D01*
X114909600Y-41427485D01*
X115163600Y-41427485D01*
X115163600Y-42570400D01*
X115183600Y-42570400D01*
X115183600Y-42824400D01*
X115163600Y-42824400D01*
X115163600Y-43967315D01*
X115385639Y-44089304D01*
X115519687Y-44048646D01*
X115774020Y-43928437D01*
X116000014Y-43760919D01*
X116188985Y-43552531D01*
X116333670Y-43311281D01*
X116428509Y-43046440D01*
X116307225Y-42824402D01*
X116452783Y-42824402D01*
X116492910Y-43026134D01*
X116577866Y-43231235D01*
X116701202Y-43415821D01*
X116858179Y-43572798D01*
X117042765Y-43696134D01*
X117247866Y-43781090D01*
X117465600Y-43824400D01*
X117687600Y-43824400D01*
X117905334Y-43781090D01*
X118110435Y-43696134D01*
X118295021Y-43572798D01*
X118451998Y-43415821D01*
X118575334Y-43231235D01*
X118660290Y-43026134D01*
X118700417Y-42824402D01*
X118845975Y-42824402D01*
X118724691Y-43046440D01*
X118819530Y-43311281D01*
X118964215Y-43552531D01*
X119153186Y-43760919D01*
X119379180Y-43928437D01*
X119633513Y-44048646D01*
X119767561Y-44089304D01*
X119989600Y-43967315D01*
X119989600Y-42824400D01*
X119969600Y-42824400D01*
X119969600Y-42570400D01*
X119989600Y-42570400D01*
X119989600Y-41427485D01*
X120243600Y-41427485D01*
X120243600Y-42570400D01*
X120263600Y-42570400D01*
X120263600Y-42824400D01*
X120243600Y-42824400D01*
X120243600Y-43967315D01*
X120465639Y-44089304D01*
X120599687Y-44048646D01*
X120854020Y-43928437D01*
X121080014Y-43760919D01*
X121268985Y-43552531D01*
X121413670Y-43311281D01*
X121508509Y-43046440D01*
X121387225Y-42824402D01*
X121528018Y-42824402D01*
X121528018Y-43497400D01*
X121534332Y-43561503D01*
X121553030Y-43623143D01*
X121583394Y-43679950D01*
X121624257Y-43729743D01*
X121674050Y-43770606D01*
X121730857Y-43800970D01*
X121792497Y-43819668D01*
X121856600Y-43825982D01*
X123456600Y-43825982D01*
X123520703Y-43819668D01*
X123582343Y-43800970D01*
X123639150Y-43770606D01*
X123688943Y-43729743D01*
X123729806Y-43679950D01*
X123760170Y-43623143D01*
X123778868Y-43561503D01*
X123785182Y-43497400D01*
X123785182Y-42535600D01*
X124577600Y-42535600D01*
X124577600Y-42757600D01*
X124620910Y-42975334D01*
X124705866Y-43180435D01*
X124829202Y-43365021D01*
X124986179Y-43521998D01*
X125170765Y-43645334D01*
X125375866Y-43730290D01*
X125593600Y-43773600D01*
X125815600Y-43773600D01*
X126033334Y-43730290D01*
X126238435Y-43645334D01*
X126423021Y-43521998D01*
X126579998Y-43365021D01*
X126703334Y-43180435D01*
X126788290Y-42975334D01*
X126831600Y-42757600D01*
X126831600Y-42535600D01*
X126788290Y-42317866D01*
X126703334Y-42112765D01*
X126579998Y-41928179D01*
X126423021Y-41771202D01*
X126238435Y-41647866D01*
X126033334Y-41562910D01*
X125815600Y-41519600D01*
X125593600Y-41519600D01*
X125375866Y-41562910D01*
X125170765Y-41647866D01*
X124986179Y-41771202D01*
X124829202Y-41928179D01*
X124705866Y-42112765D01*
X124620910Y-42317866D01*
X124577600Y-42535600D01*
X123785182Y-42535600D01*
X123785182Y-41897400D01*
X123778868Y-41833297D01*
X123760170Y-41771657D01*
X123729806Y-41714850D01*
X123688943Y-41665057D01*
X123639150Y-41624194D01*
X123582343Y-41593830D01*
X123520703Y-41575132D01*
X123456600Y-41568818D01*
X121856600Y-41568818D01*
X121792497Y-41575132D01*
X121730857Y-41593830D01*
X121674050Y-41624194D01*
X121624257Y-41665057D01*
X121583394Y-41714850D01*
X121553030Y-41771657D01*
X121534332Y-41833297D01*
X121528018Y-41897400D01*
X121528018Y-42570398D01*
X121387225Y-42570398D01*
X121508509Y-42348360D01*
X121413670Y-42083519D01*
X121268985Y-41842269D01*
X121080014Y-41633881D01*
X120854020Y-41466363D01*
X120599687Y-41346154D01*
X120465639Y-41305496D01*
X120243600Y-41427485D01*
X119989600Y-41427485D01*
X119767561Y-41305496D01*
X119633513Y-41346154D01*
X119379180Y-41466363D01*
X119153186Y-41633881D01*
X118964215Y-41842269D01*
X118819530Y-42083519D01*
X118724691Y-42348360D01*
X118845975Y-42570398D01*
X118700417Y-42570398D01*
X118660290Y-42368666D01*
X118575334Y-42163565D01*
X118451998Y-41978979D01*
X118295021Y-41822002D01*
X118110435Y-41698666D01*
X117905334Y-41613710D01*
X117687600Y-41570400D01*
X117465600Y-41570400D01*
X117247866Y-41613710D01*
X117042765Y-41698666D01*
X116858179Y-41822002D01*
X116701202Y-41978979D01*
X116577866Y-42163565D01*
X116492910Y-42368666D01*
X116452783Y-42570398D01*
X116307225Y-42570398D01*
X116428509Y-42348360D01*
X116333670Y-42083519D01*
X116188985Y-41842269D01*
X116000014Y-41633881D01*
X115774020Y-41466363D01*
X115519687Y-41346154D01*
X115385639Y-41305496D01*
X115163600Y-41427485D01*
X114909600Y-41427485D01*
X114687561Y-41305496D01*
X114553513Y-41346154D01*
X114299180Y-41466363D01*
X114073186Y-41633881D01*
X113884215Y-41842269D01*
X113739530Y-42083519D01*
X113644691Y-42348360D01*
X113091782Y-42348360D01*
X113091782Y-41897400D01*
X113085468Y-41833297D01*
X113066770Y-41771657D01*
X113036406Y-41714850D01*
X112995543Y-41665057D01*
X112945750Y-41624194D01*
X112888943Y-41593830D01*
X112827303Y-41575132D01*
X112763200Y-41568818D01*
X111163200Y-41568818D01*
X111099097Y-41575132D01*
X111037457Y-41593830D01*
X110980650Y-41624194D01*
X110930857Y-41665057D01*
X110889994Y-41714850D01*
X110859630Y-41771657D01*
X110840932Y-41833297D01*
X110834618Y-41897400D01*
X110217019Y-41897400D01*
X110141621Y-41822002D01*
X109957035Y-41698666D01*
X109751934Y-41613710D01*
X109534200Y-41570400D01*
X109312200Y-41570400D01*
X109094466Y-41613710D01*
X108889365Y-41698666D01*
X108704779Y-41822002D01*
X108547802Y-41978979D01*
X108424466Y-42163565D01*
X108339510Y-42368666D01*
X108296200Y-42586400D01*
X108010200Y-42586400D01*
X107966890Y-42368666D01*
X107881934Y-42163565D01*
X107758598Y-41978979D01*
X107601621Y-41822002D01*
X107417035Y-41698666D01*
X107211934Y-41613710D01*
X106994200Y-41570400D01*
X106772200Y-41570400D01*
X106554466Y-41613710D01*
X106349365Y-41698666D01*
X106164779Y-41822002D01*
X106007802Y-41978979D01*
X105884466Y-42163565D01*
X105799510Y-42368666D01*
X105759383Y-42570398D01*
X105613825Y-42570398D01*
X105735109Y-42348360D01*
X105640270Y-42083519D01*
X105495585Y-41842269D01*
X105306614Y-41633881D01*
X105080620Y-41466363D01*
X104826287Y-41346154D01*
X104692239Y-41305496D01*
X104470200Y-41427485D01*
X104216200Y-41427485D01*
X103994161Y-41305496D01*
X103860113Y-41346154D01*
X103605780Y-41466363D01*
X103379786Y-41633881D01*
X103190815Y-41842269D01*
X103046130Y-42083519D01*
X102951291Y-42348360D01*
X102349437Y-42348360D01*
X102293934Y-42214365D01*
X102170598Y-42029779D01*
X102013621Y-41872802D01*
X101829035Y-41749466D01*
X101623934Y-41664510D01*
X101406200Y-41621200D01*
X101184200Y-41621200D01*
X100966466Y-41664510D01*
X100761365Y-41749466D01*
X100576779Y-41872802D01*
X100419802Y-42029779D01*
X100296466Y-42214365D01*
X100211510Y-42419466D01*
X100168200Y-42637200D01*
X98927000Y-42637200D01*
X98927000Y-40236884D01*
X98946602Y-40266221D01*
X99103579Y-40423198D01*
X99288165Y-40546534D01*
X99493266Y-40631490D01*
X99711000Y-40674800D01*
X99933000Y-40674800D01*
X100150734Y-40631490D01*
X100355835Y-40546534D01*
X100540421Y-40423198D01*
X100697398Y-40266221D01*
X100820734Y-40081635D01*
X100905690Y-39876534D01*
X100949000Y-39658800D01*
X100949000Y-39436800D01*
X101692200Y-39436800D01*
X101692200Y-39658800D01*
X101735510Y-39876534D01*
X101820466Y-40081635D01*
X101943802Y-40266221D01*
X102100779Y-40423198D01*
X102285365Y-40546534D01*
X102490466Y-40631490D01*
X102708200Y-40674800D01*
X102930200Y-40674800D01*
X103147934Y-40631490D01*
X103353035Y-40546534D01*
X103537621Y-40423198D01*
X103694598Y-40266221D01*
X103817934Y-40081635D01*
X103902890Y-39876534D01*
X103946200Y-39658800D01*
X103946200Y-39436800D01*
X104740200Y-39436800D01*
X104740200Y-39658800D01*
X104783510Y-39876534D01*
X104868466Y-40081635D01*
X104991802Y-40266221D01*
X105148779Y-40423198D01*
X105333365Y-40546534D01*
X105538466Y-40631490D01*
X105756200Y-40674800D01*
X105978200Y-40674800D01*
X106195934Y-40631490D01*
X106401035Y-40546534D01*
X106585621Y-40423198D01*
X106742598Y-40266221D01*
X106865934Y-40081635D01*
X106950890Y-39876534D01*
X106994200Y-39658800D01*
X106994200Y-39436800D01*
X106984096Y-39386000D01*
X107381800Y-39386000D01*
X107381800Y-39608000D01*
X107425110Y-39825734D01*
X107510066Y-40030835D01*
X107633402Y-40215421D01*
X107790379Y-40372398D01*
X107974965Y-40495734D01*
X108180066Y-40580690D01*
X108397800Y-40624000D01*
X108619800Y-40624000D01*
X108837534Y-40580690D01*
X109042635Y-40495734D01*
X109051662Y-40489702D01*
X115315703Y-40489702D01*
X115387286Y-40733671D01*
X115642796Y-40854571D01*
X115916984Y-40923300D01*
X116199312Y-40937217D01*
X116478930Y-40895787D01*
X116745092Y-40800603D01*
X116870314Y-40733671D01*
X116941897Y-40489702D01*
X116128800Y-39676605D01*
X115315703Y-40489702D01*
X109051662Y-40489702D01*
X109227221Y-40372398D01*
X109384198Y-40215421D01*
X109507534Y-40030835D01*
X109592490Y-39825734D01*
X109635800Y-39608000D01*
X109635800Y-39567512D01*
X114688583Y-39567512D01*
X114730013Y-39847130D01*
X114825197Y-40113292D01*
X114892129Y-40238514D01*
X115136098Y-40310097D01*
X115949195Y-39497000D01*
X116308405Y-39497000D01*
X117121502Y-40310097D01*
X117365471Y-40238514D01*
X117486371Y-39983004D01*
X117527069Y-39820640D01*
X118445291Y-39820640D01*
X118540130Y-40085481D01*
X118684815Y-40326731D01*
X118873786Y-40535119D01*
X119099780Y-40702637D01*
X119354113Y-40822846D01*
X119488161Y-40863504D01*
X119710200Y-40741515D01*
X119710200Y-39598600D01*
X119964200Y-39598600D01*
X119964200Y-40741515D01*
X120186239Y-40863504D01*
X120320287Y-40822846D01*
X120574620Y-40702637D01*
X120800614Y-40535119D01*
X120989585Y-40326731D01*
X121134270Y-40085481D01*
X121229109Y-39820640D01*
X121107824Y-39598600D01*
X119964200Y-39598600D01*
X119710200Y-39598600D01*
X118566576Y-39598600D01*
X118445291Y-39820640D01*
X117527069Y-39820640D01*
X117555100Y-39708816D01*
X117569017Y-39426488D01*
X117527587Y-39146870D01*
X117518894Y-39122560D01*
X118445291Y-39122560D01*
X118566576Y-39344600D01*
X119710200Y-39344600D01*
X119710200Y-38201685D01*
X119964200Y-38201685D01*
X119964200Y-39344600D01*
X121107824Y-39344600D01*
X121229109Y-39122560D01*
X121134270Y-38857719D01*
X120989585Y-38616469D01*
X120800614Y-38408081D01*
X120574620Y-38240563D01*
X120320287Y-38120354D01*
X120186239Y-38079696D01*
X119964200Y-38201685D01*
X119710200Y-38201685D01*
X119488161Y-38079696D01*
X119354113Y-38120354D01*
X119099780Y-38240563D01*
X118873786Y-38408081D01*
X118684815Y-38616469D01*
X118540130Y-38857719D01*
X118445291Y-39122560D01*
X117518894Y-39122560D01*
X117432403Y-38880708D01*
X117365471Y-38755486D01*
X117121502Y-38683903D01*
X116308405Y-39497000D01*
X115949195Y-39497000D01*
X115136098Y-38683903D01*
X114892129Y-38755486D01*
X114771229Y-39010996D01*
X114702500Y-39285184D01*
X114688583Y-39567512D01*
X109635800Y-39567512D01*
X109635800Y-39386000D01*
X109592490Y-39168266D01*
X109507534Y-38963165D01*
X109384198Y-38778579D01*
X109227221Y-38621602D01*
X109051663Y-38504298D01*
X115315703Y-38504298D01*
X116128800Y-39317395D01*
X116941897Y-38504298D01*
X116870314Y-38260329D01*
X116614804Y-38139429D01*
X116340616Y-38070700D01*
X116058288Y-38056783D01*
X115778670Y-38098213D01*
X115512508Y-38193397D01*
X115387286Y-38260329D01*
X115315703Y-38504298D01*
X109051663Y-38504298D01*
X109042635Y-38498266D01*
X108837534Y-38413310D01*
X108619800Y-38370000D01*
X108397800Y-38370000D01*
X108180066Y-38413310D01*
X107974965Y-38498266D01*
X107790379Y-38621602D01*
X107633402Y-38778579D01*
X107510066Y-38963165D01*
X107425110Y-39168266D01*
X107381800Y-39386000D01*
X106984096Y-39386000D01*
X106950890Y-39219066D01*
X106865934Y-39013965D01*
X106742598Y-38829379D01*
X106585621Y-38672402D01*
X106401035Y-38549066D01*
X106195934Y-38464110D01*
X105978200Y-38420800D01*
X105756200Y-38420800D01*
X105538466Y-38464110D01*
X105333365Y-38549066D01*
X105148779Y-38672402D01*
X104991802Y-38829379D01*
X104868466Y-39013965D01*
X104783510Y-39219066D01*
X104740200Y-39436800D01*
X103946200Y-39436800D01*
X103902890Y-39219066D01*
X103817934Y-39013965D01*
X103694598Y-38829379D01*
X103537621Y-38672402D01*
X103353035Y-38549066D01*
X103147934Y-38464110D01*
X102930200Y-38420800D01*
X102708200Y-38420800D01*
X102490466Y-38464110D01*
X102285365Y-38549066D01*
X102100779Y-38672402D01*
X101943802Y-38829379D01*
X101820466Y-39013965D01*
X101735510Y-39219066D01*
X101692200Y-39436800D01*
X100949000Y-39436800D01*
X100905690Y-39219066D01*
X100820734Y-39013965D01*
X100697398Y-38829379D01*
X100540421Y-38672402D01*
X100355835Y-38549066D01*
X100150734Y-38464110D01*
X99933000Y-38420800D01*
X99711000Y-38420800D01*
X99493266Y-38464110D01*
X99288165Y-38549066D01*
X99103579Y-38672402D01*
X98946602Y-38829379D01*
X98927000Y-38858716D01*
X98927000Y-36196291D01*
X107702319Y-36196291D01*
X107799643Y-36470652D01*
X107948622Y-36720755D01*
X108143531Y-36936988D01*
X108376880Y-37111041D01*
X108639701Y-37236225D01*
X108786910Y-37280876D01*
X109016800Y-37159555D01*
X109016800Y-35966400D01*
X109270800Y-35966400D01*
X109270800Y-37159555D01*
X109500690Y-37280876D01*
X109647899Y-37236225D01*
X109910720Y-37111041D01*
X110144069Y-36936988D01*
X110338978Y-36720755D01*
X110413800Y-36595145D01*
X110488622Y-36720755D01*
X110683531Y-36936988D01*
X110916880Y-37111041D01*
X111179701Y-37236225D01*
X111326910Y-37280876D01*
X111556800Y-37159555D01*
X111556800Y-35966400D01*
X111810800Y-35966400D01*
X111810800Y-37159555D01*
X112040690Y-37280876D01*
X112187899Y-37236225D01*
X112450720Y-37111041D01*
X112684069Y-36936988D01*
X112878978Y-36720755D01*
X112953800Y-36595145D01*
X113028622Y-36720755D01*
X113223531Y-36936988D01*
X113456880Y-37111041D01*
X113719701Y-37236225D01*
X113866910Y-37280876D01*
X114096800Y-37159555D01*
X114096800Y-35966400D01*
X114350800Y-35966400D01*
X114350800Y-37159555D01*
X114580690Y-37280876D01*
X114727899Y-37236225D01*
X114990720Y-37111041D01*
X115224069Y-36936988D01*
X115418978Y-36720755D01*
X115493800Y-36595145D01*
X115568622Y-36720755D01*
X115763531Y-36936988D01*
X115996880Y-37111041D01*
X116259701Y-37236225D01*
X116406910Y-37280876D01*
X116636800Y-37159555D01*
X116636800Y-35966400D01*
X116890800Y-35966400D01*
X116890800Y-37159555D01*
X117120690Y-37280876D01*
X117267899Y-37236225D01*
X117530720Y-37111041D01*
X117764069Y-36936988D01*
X117958978Y-36720755D01*
X118107957Y-36470652D01*
X118205281Y-36196291D01*
X118084614Y-35966400D01*
X116890800Y-35966400D01*
X116636800Y-35966400D01*
X114350800Y-35966400D01*
X114096800Y-35966400D01*
X111810800Y-35966400D01*
X111556800Y-35966400D01*
X109270800Y-35966400D01*
X109016800Y-35966400D01*
X107822986Y-35966400D01*
X107702319Y-36196291D01*
X98927000Y-36196291D01*
X98927000Y-34149400D01*
X107655728Y-34149400D01*
X107667988Y-34273882D01*
X107704298Y-34393580D01*
X107763263Y-34503894D01*
X107842615Y-34600585D01*
X107939306Y-34679937D01*
X108049620Y-34738902D01*
X108125426Y-34761898D01*
X107948622Y-34958045D01*
X107799643Y-35208148D01*
X107702319Y-35482509D01*
X107822986Y-35712400D01*
X109016800Y-35712400D01*
X109016800Y-33426400D01*
X109270800Y-33426400D01*
X109270800Y-35712400D01*
X111556800Y-35712400D01*
X111556800Y-33426400D01*
X111810800Y-33426400D01*
X111810800Y-35712400D01*
X114096800Y-35712400D01*
X114096800Y-33426400D01*
X114350800Y-33426400D01*
X114350800Y-35712400D01*
X116636800Y-35712400D01*
X116636800Y-33426400D01*
X116890800Y-33426400D01*
X116890800Y-35712400D01*
X118084614Y-35712400D01*
X118205281Y-35482509D01*
X118107957Y-35208148D01*
X117958978Y-34958045D01*
X117764069Y-34741812D01*
X117532920Y-34569400D01*
X117764069Y-34396988D01*
X117958978Y-34180755D01*
X118107957Y-33930652D01*
X118205281Y-33656291D01*
X118084614Y-33426400D01*
X116890800Y-33426400D01*
X116636800Y-33426400D01*
X114350800Y-33426400D01*
X114096800Y-33426400D01*
X111810800Y-33426400D01*
X111556800Y-33426400D01*
X109270800Y-33426400D01*
X109016800Y-33426400D01*
X107817550Y-33426400D01*
X107658800Y-33585150D01*
X107655728Y-34149400D01*
X98927000Y-34149400D01*
X98927000Y-32616884D01*
X98946602Y-32646221D01*
X99103579Y-32803198D01*
X99288165Y-32926534D01*
X99493266Y-33011490D01*
X99711000Y-33054800D01*
X99933000Y-33054800D01*
X100150734Y-33011490D01*
X100355835Y-32926534D01*
X100540421Y-32803198D01*
X100697398Y-32646221D01*
X100820734Y-32461635D01*
X100905690Y-32256534D01*
X100949000Y-32038800D01*
X100949000Y-31816800D01*
X101692200Y-31816800D01*
X101692200Y-32038800D01*
X101735510Y-32256534D01*
X101820466Y-32461635D01*
X101943802Y-32646221D01*
X102100779Y-32803198D01*
X102285365Y-32926534D01*
X102490466Y-33011490D01*
X102708200Y-33054800D01*
X102930200Y-33054800D01*
X103147934Y-33011490D01*
X103353035Y-32926534D01*
X103537621Y-32803198D01*
X103694598Y-32646221D01*
X103817934Y-32461635D01*
X103902890Y-32256534D01*
X103946200Y-32038800D01*
X103946200Y-31816800D01*
X104740200Y-31816800D01*
X104740200Y-32038800D01*
X104783510Y-32256534D01*
X104868466Y-32461635D01*
X104991802Y-32646221D01*
X105148779Y-32803198D01*
X105333365Y-32926534D01*
X105538466Y-33011490D01*
X105756200Y-33054800D01*
X105978200Y-33054800D01*
X106195934Y-33011490D01*
X106401035Y-32926534D01*
X106585621Y-32803198D01*
X106742598Y-32646221D01*
X106865934Y-32461635D01*
X106871001Y-32449400D01*
X107655728Y-32449400D01*
X107658800Y-33013650D01*
X107817550Y-33172400D01*
X109016800Y-33172400D01*
X109016800Y-31973150D01*
X109270800Y-31973150D01*
X109270800Y-33172400D01*
X111556800Y-33172400D01*
X111556800Y-31979245D01*
X111810800Y-31979245D01*
X111810800Y-33172400D01*
X114096800Y-33172400D01*
X114096800Y-31979245D01*
X114350800Y-31979245D01*
X114350800Y-33172400D01*
X116636800Y-33172400D01*
X116636800Y-31979245D01*
X116890800Y-31979245D01*
X116890800Y-33172400D01*
X118084614Y-33172400D01*
X118205281Y-32942509D01*
X118107957Y-32668148D01*
X117958978Y-32418045D01*
X117764069Y-32201812D01*
X117530720Y-32027759D01*
X117267899Y-31902575D01*
X117120690Y-31857924D01*
X116890800Y-31979245D01*
X116636800Y-31979245D01*
X116406910Y-31857924D01*
X116259701Y-31902575D01*
X115996880Y-32027759D01*
X115763531Y-32201812D01*
X115568622Y-32418045D01*
X115493800Y-32543655D01*
X115418978Y-32418045D01*
X115224069Y-32201812D01*
X114990720Y-32027759D01*
X114727899Y-31902575D01*
X114580690Y-31857924D01*
X114350800Y-31979245D01*
X114096800Y-31979245D01*
X113866910Y-31857924D01*
X113719701Y-31902575D01*
X113456880Y-32027759D01*
X113223531Y-32201812D01*
X113028622Y-32418045D01*
X112953800Y-32543655D01*
X112878978Y-32418045D01*
X112684069Y-32201812D01*
X112450720Y-32027759D01*
X112187899Y-31902575D01*
X112040690Y-31857924D01*
X111810800Y-31979245D01*
X111556800Y-31979245D01*
X111326910Y-31857924D01*
X111179701Y-31902575D01*
X110916880Y-32027759D01*
X110683531Y-32201812D01*
X110607766Y-32285866D01*
X110583302Y-32205220D01*
X110524337Y-32094906D01*
X110444985Y-31998215D01*
X110348294Y-31918863D01*
X110237980Y-31859898D01*
X110118282Y-31823588D01*
X109993800Y-31811328D01*
X109429550Y-31814400D01*
X109270800Y-31973150D01*
X109016800Y-31973150D01*
X108858050Y-31814400D01*
X108293800Y-31811328D01*
X108169318Y-31823588D01*
X108049620Y-31859898D01*
X107939306Y-31918863D01*
X107842615Y-31998215D01*
X107763263Y-32094906D01*
X107704298Y-32205220D01*
X107667988Y-32324918D01*
X107655728Y-32449400D01*
X106871001Y-32449400D01*
X106950890Y-32256534D01*
X106994200Y-32038800D01*
X106994200Y-31816800D01*
X106979043Y-31740600D01*
X118710200Y-31740600D01*
X118710200Y-31962600D01*
X118753510Y-32180334D01*
X118838466Y-32385435D01*
X118961802Y-32570021D01*
X119118779Y-32726998D01*
X119303365Y-32850334D01*
X119508466Y-32935290D01*
X119726200Y-32978600D01*
X119948200Y-32978600D01*
X120165934Y-32935290D01*
X120371035Y-32850334D01*
X120555621Y-32726998D01*
X120712598Y-32570021D01*
X120835934Y-32385435D01*
X120920890Y-32180334D01*
X120964200Y-31962600D01*
X120964200Y-31740600D01*
X120920890Y-31522866D01*
X120835934Y-31317765D01*
X120712598Y-31133179D01*
X120555621Y-30976202D01*
X120371035Y-30852866D01*
X120165934Y-30767910D01*
X119948200Y-30724600D01*
X119726200Y-30724600D01*
X119508466Y-30767910D01*
X119303365Y-30852866D01*
X119118779Y-30976202D01*
X118961802Y-31133179D01*
X118838466Y-31317765D01*
X118753510Y-31522866D01*
X118710200Y-31740600D01*
X106979043Y-31740600D01*
X106950890Y-31599066D01*
X106865934Y-31393965D01*
X106742598Y-31209379D01*
X106585621Y-31052402D01*
X106401035Y-30929066D01*
X106195934Y-30844110D01*
X105978200Y-30800800D01*
X105756200Y-30800800D01*
X105538466Y-30844110D01*
X105333365Y-30929066D01*
X105148779Y-31052402D01*
X104991802Y-31209379D01*
X104868466Y-31393965D01*
X104783510Y-31599066D01*
X104740200Y-31816800D01*
X103946200Y-31816800D01*
X103902890Y-31599066D01*
X103817934Y-31393965D01*
X103694598Y-31209379D01*
X103537621Y-31052402D01*
X103353035Y-30929066D01*
X103147934Y-30844110D01*
X102930200Y-30800800D01*
X102708200Y-30800800D01*
X102490466Y-30844110D01*
X102285365Y-30929066D01*
X102100779Y-31052402D01*
X101943802Y-31209379D01*
X101820466Y-31393965D01*
X101735510Y-31599066D01*
X101692200Y-31816800D01*
X100949000Y-31816800D01*
X100905690Y-31599066D01*
X100820734Y-31393965D01*
X100697398Y-31209379D01*
X100540421Y-31052402D01*
X100355835Y-30929066D01*
X100150734Y-30844110D01*
X99933000Y-30800800D01*
X99711000Y-30800800D01*
X99493266Y-30844110D01*
X99288165Y-30929066D01*
X99103579Y-31052402D01*
X98946602Y-31209379D01*
X98927000Y-31238716D01*
X98927000Y-26747200D01*
X109347218Y-26747200D01*
X109347218Y-28777200D01*
X109353532Y-28841303D01*
X109372230Y-28902943D01*
X109402594Y-28959750D01*
X109443457Y-29009543D01*
X109493250Y-29050406D01*
X109550057Y-29080770D01*
X109611697Y-29099468D01*
X109675800Y-29105782D01*
X111405800Y-29105782D01*
X111469903Y-29099468D01*
X111531543Y-29080770D01*
X111588350Y-29050406D01*
X111638143Y-29009543D01*
X111679006Y-28959750D01*
X111709370Y-28902943D01*
X111728068Y-28841303D01*
X111734382Y-28777200D01*
X111734382Y-28559716D01*
X111788993Y-28676845D01*
X111962990Y-28914172D01*
X112179943Y-29112993D01*
X112431516Y-29265669D01*
X112708041Y-29366331D01*
X112721554Y-29368546D01*
X112953800Y-29247424D01*
X112953800Y-27889200D01*
X113207800Y-27889200D01*
X113207800Y-29247424D01*
X113440046Y-29368546D01*
X113453559Y-29366331D01*
X113730084Y-29265669D01*
X113981657Y-29112993D01*
X114198610Y-28914172D01*
X114350800Y-28706589D01*
X114502990Y-28914172D01*
X114719943Y-29112993D01*
X114971516Y-29265669D01*
X115248041Y-29366331D01*
X115261554Y-29368546D01*
X115493800Y-29247424D01*
X115493800Y-27889200D01*
X115747800Y-27889200D01*
X115747800Y-29247424D01*
X115980046Y-29368546D01*
X115993559Y-29366331D01*
X116270084Y-29265669D01*
X116521657Y-29112993D01*
X116738610Y-28914172D01*
X116912607Y-28676845D01*
X117036960Y-28410134D01*
X117106891Y-28124287D01*
X116963022Y-27889200D01*
X115747800Y-27889200D01*
X115493800Y-27889200D01*
X113207800Y-27889200D01*
X112953800Y-27889200D01*
X112933800Y-27889200D01*
X112933800Y-27635200D01*
X112953800Y-27635200D01*
X112953800Y-26276976D01*
X113207800Y-26276976D01*
X113207800Y-27635200D01*
X115493800Y-27635200D01*
X115493800Y-26276976D01*
X115747800Y-26276976D01*
X115747800Y-27635200D01*
X116963022Y-27635200D01*
X117106891Y-27400113D01*
X117036960Y-27114266D01*
X116912607Y-26847555D01*
X116738610Y-26610228D01*
X116521657Y-26411407D01*
X116270084Y-26258731D01*
X115993559Y-26158069D01*
X115980046Y-26155854D01*
X115747800Y-26276976D01*
X115493800Y-26276976D01*
X115261554Y-26155854D01*
X115248041Y-26158069D01*
X114971516Y-26258731D01*
X114719943Y-26411407D01*
X114502990Y-26610228D01*
X114350800Y-26817811D01*
X114198610Y-26610228D01*
X113981657Y-26411407D01*
X113730084Y-26258731D01*
X113453559Y-26158069D01*
X113440046Y-26155854D01*
X113207800Y-26276976D01*
X112953800Y-26276976D01*
X112721554Y-26155854D01*
X112708041Y-26158069D01*
X112431516Y-26258731D01*
X112179943Y-26411407D01*
X111962990Y-26610228D01*
X111788993Y-26847555D01*
X111734382Y-26964684D01*
X111734382Y-26747200D01*
X111728068Y-26683097D01*
X111709370Y-26621457D01*
X111679006Y-26564650D01*
X111638143Y-26514857D01*
X111588350Y-26473994D01*
X111531543Y-26443630D01*
X111469903Y-26424932D01*
X111405800Y-26418618D01*
X109675800Y-26418618D01*
X109611697Y-26424932D01*
X109550057Y-26443630D01*
X109493250Y-26473994D01*
X109443457Y-26514857D01*
X109402594Y-26564650D01*
X109372230Y-26621457D01*
X109353532Y-26683097D01*
X109347218Y-26747200D01*
X98927000Y-26747200D01*
X98927000Y-25013400D01*
X124973000Y-25013400D01*
X124973001Y-35103423D01*
G04 #@! TA.AperFunction,Conductor*
D18*
G36*
X124973001Y-35103423D02*
G01*
X124975030Y-35124025D01*
X124974987Y-35130214D01*
X124975637Y-35136842D01*
X124996038Y-35330939D01*
X125004734Y-35373303D01*
X125012832Y-35415755D01*
X125014756Y-35422126D01*
X125014757Y-35422132D01*
X125014759Y-35422138D01*
X125072469Y-35608568D01*
X125089220Y-35648418D01*
X125105417Y-35688508D01*
X125108542Y-35694384D01*
X125108544Y-35694389D01*
X125108547Y-35694393D01*
X125201369Y-35866065D01*
X125225564Y-35901936D01*
X125249218Y-35938084D01*
X125253420Y-35943236D01*
X125253426Y-35943244D01*
X125253433Y-35943251D01*
X125377832Y-36093623D01*
X125408498Y-36124076D01*
X125438756Y-36154975D01*
X125443882Y-36159214D01*
X125443888Y-36159220D01*
X125443895Y-36159224D01*
X125595130Y-36282569D01*
X125631133Y-36306489D01*
X125666812Y-36330920D01*
X125672666Y-36334084D01*
X125672670Y-36334087D01*
X125672674Y-36334089D01*
X125844993Y-36425712D01*
X125884972Y-36442190D01*
X125924700Y-36459218D01*
X125931056Y-36461185D01*
X125931063Y-36461188D01*
X125931070Y-36461189D01*
X126117898Y-36517597D01*
X126160337Y-36526000D01*
X126202595Y-36534983D01*
X126209212Y-36535677D01*
X126209220Y-36535679D01*
X126209228Y-36535679D01*
X126403452Y-36554723D01*
X126551139Y-36569204D01*
X126648432Y-36598579D01*
X126738159Y-36646287D01*
X126816911Y-36710517D01*
X126881690Y-36788820D01*
X126930026Y-36878216D01*
X126960077Y-36975296D01*
X126973000Y-37098248D01*
X126973001Y-59103000D01*
X98927000Y-59103000D01*
X98927000Y-56221276D01*
X104156800Y-56221276D01*
X104156800Y-56453124D01*
X104202031Y-56680518D01*
X104290756Y-56894719D01*
X104419564Y-57087494D01*
X104583506Y-57251436D01*
X104776281Y-57380244D01*
X104990482Y-57468969D01*
X105217876Y-57514200D01*
X105449724Y-57514200D01*
X105677118Y-57468969D01*
X105891319Y-57380244D01*
X106084094Y-57251436D01*
X106248036Y-57087494D01*
X106376844Y-56894719D01*
X106465569Y-56680518D01*
X106510800Y-56453124D01*
X106510800Y-56221276D01*
X106696800Y-56221276D01*
X106696800Y-56453124D01*
X106742031Y-56680518D01*
X106830756Y-56894719D01*
X106959564Y-57087494D01*
X107123506Y-57251436D01*
X107316281Y-57380244D01*
X107530482Y-57468969D01*
X107757876Y-57514200D01*
X107989724Y-57514200D01*
X108217118Y-57468969D01*
X108431319Y-57380244D01*
X108624094Y-57251436D01*
X108788036Y-57087494D01*
X108916844Y-56894719D01*
X109005569Y-56680518D01*
X109050800Y-56453124D01*
X109050800Y-56221276D01*
X109236800Y-56221276D01*
X109236800Y-56453124D01*
X109282031Y-56680518D01*
X109370756Y-56894719D01*
X109499564Y-57087494D01*
X109663506Y-57251436D01*
X109856281Y-57380244D01*
X110070482Y-57468969D01*
X110297876Y-57514200D01*
X110529724Y-57514200D01*
X110757118Y-57468969D01*
X110971319Y-57380244D01*
X111164094Y-57251436D01*
X111328036Y-57087494D01*
X111456844Y-56894719D01*
X111545569Y-56680518D01*
X111590800Y-56453124D01*
X111590800Y-56221276D01*
X111776800Y-56221276D01*
X111776800Y-56453124D01*
X111822031Y-56680518D01*
X111910756Y-56894719D01*
X112039564Y-57087494D01*
X112203506Y-57251436D01*
X112396281Y-57380244D01*
X112610482Y-57468969D01*
X112837876Y-57514200D01*
X113069724Y-57514200D01*
X113297118Y-57468969D01*
X113511319Y-57380244D01*
X113704094Y-57251436D01*
X113868036Y-57087494D01*
X113996844Y-56894719D01*
X114085569Y-56680518D01*
X114130800Y-56453124D01*
X114130800Y-56221276D01*
X114316800Y-56221276D01*
X114316800Y-56453124D01*
X114362031Y-56680518D01*
X114450756Y-56894719D01*
X114579564Y-57087494D01*
X114743506Y-57251436D01*
X114936281Y-57380244D01*
X115150482Y-57468969D01*
X115377876Y-57514200D01*
X115609724Y-57514200D01*
X115837118Y-57468969D01*
X116051319Y-57380244D01*
X116244094Y-57251436D01*
X116408036Y-57087494D01*
X116536844Y-56894719D01*
X116625569Y-56680518D01*
X116670800Y-56453124D01*
X116670800Y-56221276D01*
X116625569Y-55993882D01*
X116536844Y-55779681D01*
X116408036Y-55586906D01*
X116244094Y-55422964D01*
X116051319Y-55294156D01*
X115837118Y-55205431D01*
X115609724Y-55160200D01*
X115377876Y-55160200D01*
X115150482Y-55205431D01*
X114936281Y-55294156D01*
X114743506Y-55422964D01*
X114579564Y-55586906D01*
X114450756Y-55779681D01*
X114362031Y-55993882D01*
X114316800Y-56221276D01*
X114130800Y-56221276D01*
X114085569Y-55993882D01*
X113996844Y-55779681D01*
X113868036Y-55586906D01*
X113704094Y-55422964D01*
X113511319Y-55294156D01*
X113297118Y-55205431D01*
X113069724Y-55160200D01*
X112837876Y-55160200D01*
X112610482Y-55205431D01*
X112396281Y-55294156D01*
X112203506Y-55422964D01*
X112039564Y-55586906D01*
X111910756Y-55779681D01*
X111822031Y-55993882D01*
X111776800Y-56221276D01*
X111590800Y-56221276D01*
X111545569Y-55993882D01*
X111456844Y-55779681D01*
X111328036Y-55586906D01*
X111164094Y-55422964D01*
X110971319Y-55294156D01*
X110757118Y-55205431D01*
X110529724Y-55160200D01*
X110297876Y-55160200D01*
X110070482Y-55205431D01*
X109856281Y-55294156D01*
X109663506Y-55422964D01*
X109499564Y-55586906D01*
X109370756Y-55779681D01*
X109282031Y-55993882D01*
X109236800Y-56221276D01*
X109050800Y-56221276D01*
X109005569Y-55993882D01*
X108916844Y-55779681D01*
X108788036Y-55586906D01*
X108624094Y-55422964D01*
X108431319Y-55294156D01*
X108217118Y-55205431D01*
X107989724Y-55160200D01*
X107757876Y-55160200D01*
X107530482Y-55205431D01*
X107316281Y-55294156D01*
X107123506Y-55422964D01*
X106959564Y-55586906D01*
X106830756Y-55779681D01*
X106742031Y-55993882D01*
X106696800Y-56221276D01*
X106510800Y-56221276D01*
X106465569Y-55993882D01*
X106376844Y-55779681D01*
X106248036Y-55586906D01*
X106084094Y-55422964D01*
X105891319Y-55294156D01*
X105677118Y-55205431D01*
X105449724Y-55160200D01*
X105217876Y-55160200D01*
X104990482Y-55205431D01*
X104776281Y-55294156D01*
X104583506Y-55422964D01*
X104419564Y-55586906D01*
X104290756Y-55779681D01*
X104202031Y-55993882D01*
X104156800Y-56221276D01*
X98927000Y-56221276D01*
X98927000Y-52947200D01*
X104155218Y-52947200D01*
X104155218Y-54647200D01*
X104161532Y-54711303D01*
X104180230Y-54772943D01*
X104210594Y-54829750D01*
X104251457Y-54879543D01*
X104301250Y-54920406D01*
X104358057Y-54950770D01*
X104419697Y-54969468D01*
X104483800Y-54975782D01*
X106183800Y-54975782D01*
X106247903Y-54969468D01*
X106309543Y-54950770D01*
X106366350Y-54920406D01*
X106416143Y-54879543D01*
X106457006Y-54829750D01*
X106487370Y-54772943D01*
X106506068Y-54711303D01*
X106512382Y-54647200D01*
X106512382Y-53681276D01*
X106696800Y-53681276D01*
X106696800Y-53913124D01*
X106742031Y-54140518D01*
X106830756Y-54354719D01*
X106959564Y-54547494D01*
X107123506Y-54711436D01*
X107316281Y-54840244D01*
X107530482Y-54928969D01*
X107757876Y-54974200D01*
X107989724Y-54974200D01*
X108217118Y-54928969D01*
X108431319Y-54840244D01*
X108624094Y-54711436D01*
X108788036Y-54547494D01*
X108916844Y-54354719D01*
X109005569Y-54140518D01*
X109050800Y-53913124D01*
X109050800Y-53681276D01*
X109236800Y-53681276D01*
X109236800Y-53913124D01*
X109282031Y-54140518D01*
X109370756Y-54354719D01*
X109499564Y-54547494D01*
X109663506Y-54711436D01*
X109856281Y-54840244D01*
X110070482Y-54928969D01*
X110297876Y-54974200D01*
X110529724Y-54974200D01*
X110757118Y-54928969D01*
X110971319Y-54840244D01*
X111164094Y-54711436D01*
X111328036Y-54547494D01*
X111456844Y-54354719D01*
X111545569Y-54140518D01*
X111590800Y-53913124D01*
X111590800Y-53681276D01*
X111776800Y-53681276D01*
X111776800Y-53913124D01*
X111822031Y-54140518D01*
X111910756Y-54354719D01*
X112039564Y-54547494D01*
X112203506Y-54711436D01*
X112396281Y-54840244D01*
X112610482Y-54928969D01*
X112837876Y-54974200D01*
X113069724Y-54974200D01*
X113297118Y-54928969D01*
X113511319Y-54840244D01*
X113704094Y-54711436D01*
X113868036Y-54547494D01*
X113996844Y-54354719D01*
X114085569Y-54140518D01*
X114130800Y-53913124D01*
X114130800Y-53681276D01*
X114316800Y-53681276D01*
X114316800Y-53913124D01*
X114362031Y-54140518D01*
X114450756Y-54354719D01*
X114579564Y-54547494D01*
X114743506Y-54711436D01*
X114936281Y-54840244D01*
X115150482Y-54928969D01*
X115377876Y-54974200D01*
X115609724Y-54974200D01*
X115837118Y-54928969D01*
X116051319Y-54840244D01*
X116244094Y-54711436D01*
X116408036Y-54547494D01*
X116536844Y-54354719D01*
X116605064Y-54190021D01*
X116689643Y-54428452D01*
X116838622Y-54678555D01*
X117033531Y-54894788D01*
X117266880Y-55068841D01*
X117529701Y-55194025D01*
X117638412Y-55226999D01*
X117476281Y-55294156D01*
X117283506Y-55422964D01*
X117119564Y-55586906D01*
X116990756Y-55779681D01*
X116902031Y-55993882D01*
X116856800Y-56221276D01*
X116856800Y-56453124D01*
X116902031Y-56680518D01*
X116990756Y-56894719D01*
X117119564Y-57087494D01*
X117283506Y-57251436D01*
X117476281Y-57380244D01*
X117690482Y-57468969D01*
X117917876Y-57514200D01*
X118149724Y-57514200D01*
X118377118Y-57468969D01*
X118591319Y-57380244D01*
X118784094Y-57251436D01*
X118948036Y-57087494D01*
X119076844Y-56894719D01*
X119145064Y-56730021D01*
X119229643Y-56968452D01*
X119378622Y-57218555D01*
X119573531Y-57434788D01*
X119806880Y-57608841D01*
X120069701Y-57734025D01*
X120216910Y-57778676D01*
X120446800Y-57657355D01*
X120446800Y-56464200D01*
X120700800Y-56464200D01*
X120700800Y-57657355D01*
X120930690Y-57778676D01*
X121077899Y-57734025D01*
X121340720Y-57608841D01*
X121574069Y-57434788D01*
X121768978Y-57218555D01*
X121917957Y-56968452D01*
X122015281Y-56694091D01*
X121894614Y-56464200D01*
X120700800Y-56464200D01*
X120446800Y-56464200D01*
X120426800Y-56464200D01*
X120426800Y-56210200D01*
X120446800Y-56210200D01*
X120446800Y-53924200D01*
X120700800Y-53924200D01*
X120700800Y-56210200D01*
X121894614Y-56210200D01*
X122015281Y-55980309D01*
X121917957Y-55705948D01*
X121768978Y-55455845D01*
X121574069Y-55239612D01*
X121342920Y-55067200D01*
X121574069Y-54894788D01*
X121768978Y-54678555D01*
X121917957Y-54428452D01*
X122015281Y-54154091D01*
X121894614Y-53924200D01*
X120700800Y-53924200D01*
X120446800Y-53924200D01*
X118160800Y-53924200D01*
X118160800Y-53944200D01*
X117906800Y-53944200D01*
X117906800Y-53924200D01*
X117886800Y-53924200D01*
X117886800Y-53670200D01*
X117906800Y-53670200D01*
X117906800Y-52477045D01*
X118160800Y-52477045D01*
X118160800Y-53670200D01*
X120446800Y-53670200D01*
X120446800Y-52477045D01*
X120700800Y-52477045D01*
X120700800Y-53670200D01*
X121894614Y-53670200D01*
X122015281Y-53440309D01*
X121917957Y-53165948D01*
X121768978Y-52915845D01*
X121574069Y-52699612D01*
X121340720Y-52525559D01*
X121077899Y-52400375D01*
X120930690Y-52355724D01*
X120700800Y-52477045D01*
X120446800Y-52477045D01*
X120216910Y-52355724D01*
X120069701Y-52400375D01*
X119806880Y-52525559D01*
X119573531Y-52699612D01*
X119378622Y-52915845D01*
X119303800Y-53041455D01*
X119228978Y-52915845D01*
X119034069Y-52699612D01*
X118800720Y-52525559D01*
X118537899Y-52400375D01*
X118390690Y-52355724D01*
X118160800Y-52477045D01*
X117906800Y-52477045D01*
X117676910Y-52355724D01*
X117529701Y-52400375D01*
X117266880Y-52525559D01*
X117033531Y-52699612D01*
X116838622Y-52915845D01*
X116689643Y-53165948D01*
X116605064Y-53404379D01*
X116536844Y-53239681D01*
X116408036Y-53046906D01*
X116244094Y-52882964D01*
X116051319Y-52754156D01*
X115837118Y-52665431D01*
X115609724Y-52620200D01*
X115377876Y-52620200D01*
X115150482Y-52665431D01*
X114936281Y-52754156D01*
X114743506Y-52882964D01*
X114579564Y-53046906D01*
X114450756Y-53239681D01*
X114362031Y-53453882D01*
X114316800Y-53681276D01*
X114130800Y-53681276D01*
X114085569Y-53453882D01*
X113996844Y-53239681D01*
X113868036Y-53046906D01*
X113704094Y-52882964D01*
X113511319Y-52754156D01*
X113297118Y-52665431D01*
X113069724Y-52620200D01*
X112837876Y-52620200D01*
X112610482Y-52665431D01*
X112396281Y-52754156D01*
X112203506Y-52882964D01*
X112039564Y-53046906D01*
X111910756Y-53239681D01*
X111822031Y-53453882D01*
X111776800Y-53681276D01*
X111590800Y-53681276D01*
X111545569Y-53453882D01*
X111456844Y-53239681D01*
X111328036Y-53046906D01*
X111164094Y-52882964D01*
X110971319Y-52754156D01*
X110757118Y-52665431D01*
X110529724Y-52620200D01*
X110297876Y-52620200D01*
X110070482Y-52665431D01*
X109856281Y-52754156D01*
X109663506Y-52882964D01*
X109499564Y-53046906D01*
X109370756Y-53239681D01*
X109282031Y-53453882D01*
X109236800Y-53681276D01*
X109050800Y-53681276D01*
X109005569Y-53453882D01*
X108916844Y-53239681D01*
X108788036Y-53046906D01*
X108624094Y-52882964D01*
X108431319Y-52754156D01*
X108217118Y-52665431D01*
X107989724Y-52620200D01*
X107757876Y-52620200D01*
X107530482Y-52665431D01*
X107316281Y-52754156D01*
X107123506Y-52882964D01*
X106959564Y-53046906D01*
X106830756Y-53239681D01*
X106742031Y-53453882D01*
X106696800Y-53681276D01*
X106512382Y-53681276D01*
X106512382Y-52947200D01*
X106506068Y-52883097D01*
X106487370Y-52821457D01*
X106457006Y-52764650D01*
X106416143Y-52714857D01*
X106366350Y-52673994D01*
X106309543Y-52643630D01*
X106247903Y-52624932D01*
X106183800Y-52618618D01*
X104483800Y-52618618D01*
X104419697Y-52624932D01*
X104358057Y-52643630D01*
X104301250Y-52673994D01*
X104251457Y-52714857D01*
X104210594Y-52764650D01*
X104180230Y-52821457D01*
X104161532Y-52883097D01*
X104155218Y-52947200D01*
X98927000Y-52947200D01*
X98927000Y-50257200D01*
X100168200Y-50257200D01*
X100168200Y-50479200D01*
X100211510Y-50696934D01*
X100296466Y-50902035D01*
X100419802Y-51086621D01*
X100576779Y-51243598D01*
X100761365Y-51366934D01*
X100966466Y-51451890D01*
X101184200Y-51495200D01*
X101406200Y-51495200D01*
X101623934Y-51451890D01*
X101829035Y-51366934D01*
X102013621Y-51243598D01*
X102170598Y-51086621D01*
X102293934Y-50902035D01*
X102378890Y-50696934D01*
X102422200Y-50479200D01*
X102422200Y-50257200D01*
X102412096Y-50206400D01*
X103216200Y-50206400D01*
X103216200Y-50428400D01*
X103259510Y-50646134D01*
X103344466Y-50851235D01*
X103467802Y-51035821D01*
X103624779Y-51192798D01*
X103809365Y-51316134D01*
X104014466Y-51401090D01*
X104232200Y-51444400D01*
X104454200Y-51444400D01*
X104671934Y-51401090D01*
X104877035Y-51316134D01*
X105061621Y-51192798D01*
X105218598Y-51035821D01*
X105341934Y-50851235D01*
X105426890Y-50646134D01*
X105470200Y-50428400D01*
X105470200Y-50206400D01*
X105756200Y-50206400D01*
X105756200Y-50428400D01*
X105799510Y-50646134D01*
X105884466Y-50851235D01*
X106007802Y-51035821D01*
X106164779Y-51192798D01*
X106349365Y-51316134D01*
X106554466Y-51401090D01*
X106772200Y-51444400D01*
X106994200Y-51444400D01*
X107211934Y-51401090D01*
X107417035Y-51316134D01*
X107601621Y-51192798D01*
X107758598Y-51035821D01*
X107881934Y-50851235D01*
X107966890Y-50646134D01*
X108010200Y-50428400D01*
X108010200Y-50206400D01*
X108296200Y-50206400D01*
X108296200Y-50428400D01*
X108339510Y-50646134D01*
X108424466Y-50851235D01*
X108547802Y-51035821D01*
X108704779Y-51192798D01*
X108889365Y-51316134D01*
X109094466Y-51401090D01*
X109312200Y-51444400D01*
X109534200Y-51444400D01*
X109751934Y-51401090D01*
X109957035Y-51316134D01*
X110141621Y-51192798D01*
X110298598Y-51035821D01*
X110421934Y-50851235D01*
X110506890Y-50646134D01*
X110550200Y-50428400D01*
X110550200Y-50206400D01*
X110836200Y-50206400D01*
X110836200Y-50428400D01*
X110879510Y-50646134D01*
X110964466Y-50851235D01*
X111087802Y-51035821D01*
X111244779Y-51192798D01*
X111429365Y-51316134D01*
X111634466Y-51401090D01*
X111852200Y-51444400D01*
X112074200Y-51444400D01*
X112291934Y-51401090D01*
X112497035Y-51316134D01*
X112681621Y-51192798D01*
X112838598Y-51035821D01*
X112961934Y-50851235D01*
X113038478Y-50666440D01*
X113644691Y-50666440D01*
X113739530Y-50931281D01*
X113884215Y-51172531D01*
X114073186Y-51380919D01*
X114299180Y-51548437D01*
X114553513Y-51668646D01*
X114687561Y-51709304D01*
X114909600Y-51587315D01*
X114909600Y-50444400D01*
X113765976Y-50444400D01*
X113644691Y-50666440D01*
X113038478Y-50666440D01*
X113046890Y-50646134D01*
X113090200Y-50428400D01*
X113090200Y-50206400D01*
X113046890Y-49988666D01*
X113038479Y-49968360D01*
X113644691Y-49968360D01*
X113765976Y-50190400D01*
X114909600Y-50190400D01*
X114909600Y-49047485D01*
X115163600Y-49047485D01*
X115163600Y-50190400D01*
X115183600Y-50190400D01*
X115183600Y-50444400D01*
X115163600Y-50444400D01*
X115163600Y-51587315D01*
X115385639Y-51709304D01*
X115519687Y-51668646D01*
X115774020Y-51548437D01*
X116000014Y-51380919D01*
X116188985Y-51172531D01*
X116333670Y-50931281D01*
X116428509Y-50666440D01*
X116307225Y-50444402D01*
X116452783Y-50444402D01*
X116492910Y-50646134D01*
X116577866Y-50851235D01*
X116701202Y-51035821D01*
X116858179Y-51192798D01*
X117042765Y-51316134D01*
X117247866Y-51401090D01*
X117465600Y-51444400D01*
X117687600Y-51444400D01*
X117905334Y-51401090D01*
X118110435Y-51316134D01*
X118295021Y-51192798D01*
X118451998Y-51035821D01*
X118575334Y-50851235D01*
X118660290Y-50646134D01*
X118703600Y-50428400D01*
X118703600Y-50206400D01*
X118989600Y-50206400D01*
X118989600Y-50428400D01*
X119032910Y-50646134D01*
X119117866Y-50851235D01*
X119241202Y-51035821D01*
X119398179Y-51192798D01*
X119582765Y-51316134D01*
X119787866Y-51401090D01*
X120005600Y-51444400D01*
X120227600Y-51444400D01*
X120445334Y-51401090D01*
X120650435Y-51316134D01*
X120835021Y-51192798D01*
X120991998Y-51035821D01*
X121115334Y-50851235D01*
X121200290Y-50646134D01*
X121243600Y-50428400D01*
X121243600Y-50206400D01*
X121529600Y-50206400D01*
X121529600Y-50428400D01*
X121572910Y-50646134D01*
X121657866Y-50851235D01*
X121781202Y-51035821D01*
X121938179Y-51192798D01*
X122122765Y-51316134D01*
X122327866Y-51401090D01*
X122545600Y-51444400D01*
X122767600Y-51444400D01*
X122985334Y-51401090D01*
X123190435Y-51316134D01*
X123375021Y-51192798D01*
X123531998Y-51035821D01*
X123655334Y-50851235D01*
X123740290Y-50646134D01*
X123783600Y-50428400D01*
X123783600Y-50206400D01*
X123773496Y-50155600D01*
X124577600Y-50155600D01*
X124577600Y-50377600D01*
X124620910Y-50595334D01*
X124705866Y-50800435D01*
X124829202Y-50985021D01*
X124986179Y-51141998D01*
X125170765Y-51265334D01*
X125375866Y-51350290D01*
X125593600Y-51393600D01*
X125815600Y-51393600D01*
X126033334Y-51350290D01*
X126238435Y-51265334D01*
X126423021Y-51141998D01*
X126579998Y-50985021D01*
X126703334Y-50800435D01*
X126788290Y-50595334D01*
X126831600Y-50377600D01*
X126831600Y-50155600D01*
X126788290Y-49937866D01*
X126703334Y-49732765D01*
X126579998Y-49548179D01*
X126423021Y-49391202D01*
X126238435Y-49267866D01*
X126033334Y-49182910D01*
X125815600Y-49139600D01*
X125593600Y-49139600D01*
X125375866Y-49182910D01*
X125170765Y-49267866D01*
X124986179Y-49391202D01*
X124829202Y-49548179D01*
X124705866Y-49732765D01*
X124620910Y-49937866D01*
X124577600Y-50155600D01*
X123773496Y-50155600D01*
X123740290Y-49988666D01*
X123655334Y-49783565D01*
X123531998Y-49598979D01*
X123375021Y-49442002D01*
X123190435Y-49318666D01*
X122985334Y-49233710D01*
X122767600Y-49190400D01*
X122545600Y-49190400D01*
X122327866Y-49233710D01*
X122122765Y-49318666D01*
X121938179Y-49442002D01*
X121781202Y-49598979D01*
X121657866Y-49783565D01*
X121572910Y-49988666D01*
X121529600Y-50206400D01*
X121243600Y-50206400D01*
X121200290Y-49988666D01*
X121115334Y-49783565D01*
X120991998Y-49598979D01*
X120835021Y-49442002D01*
X120650435Y-49318666D01*
X120445334Y-49233710D01*
X120227600Y-49190400D01*
X120005600Y-49190400D01*
X119787866Y-49233710D01*
X119582765Y-49318666D01*
X119398179Y-49442002D01*
X119241202Y-49598979D01*
X119117866Y-49783565D01*
X119032910Y-49988666D01*
X118989600Y-50206400D01*
X118703600Y-50206400D01*
X118660290Y-49988666D01*
X118575334Y-49783565D01*
X118451998Y-49598979D01*
X118295021Y-49442002D01*
X118110435Y-49318666D01*
X117905334Y-49233710D01*
X117687600Y-49190400D01*
X117465600Y-49190400D01*
X117247866Y-49233710D01*
X117042765Y-49318666D01*
X116858179Y-49442002D01*
X116701202Y-49598979D01*
X116577866Y-49783565D01*
X116492910Y-49988666D01*
X116452783Y-50190398D01*
X116307225Y-50190398D01*
X116428509Y-49968360D01*
X116333670Y-49703519D01*
X116188985Y-49462269D01*
X116000014Y-49253881D01*
X115774020Y-49086363D01*
X115519687Y-48966154D01*
X115385639Y-48925496D01*
X115163600Y-49047485D01*
X114909600Y-49047485D01*
X114687561Y-48925496D01*
X114553513Y-48966154D01*
X114299180Y-49086363D01*
X114073186Y-49253881D01*
X113884215Y-49462269D01*
X113739530Y-49703519D01*
X113644691Y-49968360D01*
X113038479Y-49968360D01*
X112961934Y-49783565D01*
X112838598Y-49598979D01*
X112681621Y-49442002D01*
X112497035Y-49318666D01*
X112291934Y-49233710D01*
X112074200Y-49190400D01*
X111852200Y-49190400D01*
X111634466Y-49233710D01*
X111429365Y-49318666D01*
X111244779Y-49442002D01*
X111087802Y-49598979D01*
X110964466Y-49783565D01*
X110879510Y-49988666D01*
X110836200Y-50206400D01*
X110550200Y-50206400D01*
X110506890Y-49988666D01*
X110421934Y-49783565D01*
X110298598Y-49598979D01*
X110141621Y-49442002D01*
X109957035Y-49318666D01*
X109751934Y-49233710D01*
X109534200Y-49190400D01*
X109312200Y-49190400D01*
X109094466Y-49233710D01*
X108889365Y-49318666D01*
X108704779Y-49442002D01*
X108547802Y-49598979D01*
X108424466Y-49783565D01*
X108339510Y-49988666D01*
X108296200Y-50206400D01*
X108010200Y-50206400D01*
X107966890Y-49988666D01*
X107881934Y-49783565D01*
X107758598Y-49598979D01*
X107601621Y-49442002D01*
X107417035Y-49318666D01*
X107211934Y-49233710D01*
X106994200Y-49190400D01*
X106772200Y-49190400D01*
X106554466Y-49233710D01*
X106349365Y-49318666D01*
X106164779Y-49442002D01*
X106007802Y-49598979D01*
X105884466Y-49783565D01*
X105799510Y-49988666D01*
X105756200Y-50206400D01*
X105470200Y-50206400D01*
X105426890Y-49988666D01*
X105341934Y-49783565D01*
X105218598Y-49598979D01*
X105061621Y-49442002D01*
X104877035Y-49318666D01*
X104671934Y-49233710D01*
X104454200Y-49190400D01*
X104232200Y-49190400D01*
X104014466Y-49233710D01*
X103809365Y-49318666D01*
X103624779Y-49442002D01*
X103467802Y-49598979D01*
X103344466Y-49783565D01*
X103259510Y-49988666D01*
X103216200Y-50206400D01*
X102412096Y-50206400D01*
X102378890Y-50039466D01*
X102293934Y-49834365D01*
X102170598Y-49649779D01*
X102013621Y-49492802D01*
X101829035Y-49369466D01*
X101623934Y-49284510D01*
X101406200Y-49241200D01*
X101184200Y-49241200D01*
X100966466Y-49284510D01*
X100761365Y-49369466D01*
X100576779Y-49492802D01*
X100419802Y-49649779D01*
X100296466Y-49834365D01*
X100211510Y-50039466D01*
X100168200Y-50257200D01*
X98927000Y-50257200D01*
X98927000Y-42637200D01*
X100168200Y-42637200D01*
X100168200Y-42859200D01*
X100211510Y-43076934D01*
X100296466Y-43282035D01*
X100419802Y-43466621D01*
X100576779Y-43623598D01*
X100761365Y-43746934D01*
X100966466Y-43831890D01*
X101184200Y-43875200D01*
X101406200Y-43875200D01*
X101623934Y-43831890D01*
X101829035Y-43746934D01*
X102013621Y-43623598D01*
X102170598Y-43466621D01*
X102293934Y-43282035D01*
X102378890Y-43076934D01*
X102384955Y-43046440D01*
X102951291Y-43046440D01*
X103046130Y-43311281D01*
X103190815Y-43552531D01*
X103379786Y-43760919D01*
X103605780Y-43928437D01*
X103860113Y-44048646D01*
X103994161Y-44089304D01*
X104216200Y-43967315D01*
X104216200Y-42824400D01*
X103072576Y-42824400D01*
X102951291Y-43046440D01*
X102384955Y-43046440D01*
X102422200Y-42859200D01*
X102422200Y-42637200D01*
X102378890Y-42419466D01*
X102349437Y-42348360D01*
X102951291Y-42348360D01*
X103072576Y-42570400D01*
X104216200Y-42570400D01*
X104216200Y-41427485D01*
X104470200Y-41427485D01*
X104470200Y-42570400D01*
X104490200Y-42570400D01*
X104490200Y-42824400D01*
X104470200Y-42824400D01*
X104470200Y-43967315D01*
X104692239Y-44089304D01*
X104826287Y-44048646D01*
X105080620Y-43928437D01*
X105306614Y-43760919D01*
X105495585Y-43552531D01*
X105640270Y-43311281D01*
X105735109Y-43046440D01*
X105613825Y-42824402D01*
X105759383Y-42824402D01*
X105799510Y-43026134D01*
X105884466Y-43231235D01*
X106007802Y-43415821D01*
X106164779Y-43572798D01*
X106349365Y-43696134D01*
X106554466Y-43781090D01*
X106772200Y-43824400D01*
X106994200Y-43824400D01*
X107211934Y-43781090D01*
X107417035Y-43696134D01*
X107601621Y-43572798D01*
X107758598Y-43415821D01*
X107881934Y-43231235D01*
X107966890Y-43026134D01*
X108010200Y-42808400D01*
X108010200Y-42586400D01*
X108296200Y-42586400D01*
X108296200Y-42808400D01*
X108339510Y-43026134D01*
X108424466Y-43231235D01*
X108547802Y-43415821D01*
X108704779Y-43572798D01*
X108889365Y-43696134D01*
X109094466Y-43781090D01*
X109312200Y-43824400D01*
X109534200Y-43824400D01*
X109751934Y-43781090D01*
X109957035Y-43696134D01*
X110141621Y-43572798D01*
X110298598Y-43415821D01*
X110421934Y-43231235D01*
X110506890Y-43026134D01*
X110550200Y-42808400D01*
X110550200Y-42586400D01*
X110506890Y-42368666D01*
X110421934Y-42163565D01*
X110298598Y-41978979D01*
X110217019Y-41897400D01*
X110834618Y-41897400D01*
X110834618Y-43497400D01*
X110840932Y-43561503D01*
X110859630Y-43623143D01*
X110889994Y-43679950D01*
X110930857Y-43729743D01*
X110980650Y-43770606D01*
X111037457Y-43800970D01*
X111099097Y-43819668D01*
X111163200Y-43825982D01*
X112763200Y-43825982D01*
X112827303Y-43819668D01*
X112888943Y-43800970D01*
X112945750Y-43770606D01*
X112995543Y-43729743D01*
X113036406Y-43679950D01*
X113066770Y-43623143D01*
X113085468Y-43561503D01*
X113091782Y-43497400D01*
X113091782Y-43046440D01*
X113644691Y-43046440D01*
X113739530Y-43311281D01*
X113884215Y-43552531D01*
X114073186Y-43760919D01*
X114299180Y-43928437D01*
X114553513Y-44048646D01*
X114687561Y-44089304D01*
X114909600Y-43967315D01*
X114909600Y-42824400D01*
X113765976Y-42824400D01*
X113644691Y-43046440D01*
X113091782Y-43046440D01*
X113091782Y-42348360D01*
X113644691Y-42348360D01*
X113765976Y-42570400D01*
X114909600Y-42570400D01*
X114909600Y-41427485D01*
X115163600Y-41427485D01*
X115163600Y-42570400D01*
X115183600Y-42570400D01*
X115183600Y-42824400D01*
X115163600Y-42824400D01*
X115163600Y-43967315D01*
X115385639Y-44089304D01*
X115519687Y-44048646D01*
X115774020Y-43928437D01*
X116000014Y-43760919D01*
X116188985Y-43552531D01*
X116333670Y-43311281D01*
X116428509Y-43046440D01*
X116307225Y-42824402D01*
X116452783Y-42824402D01*
X116492910Y-43026134D01*
X116577866Y-43231235D01*
X116701202Y-43415821D01*
X116858179Y-43572798D01*
X117042765Y-43696134D01*
X117247866Y-43781090D01*
X117465600Y-43824400D01*
X117687600Y-43824400D01*
X117905334Y-43781090D01*
X118110435Y-43696134D01*
X118295021Y-43572798D01*
X118451998Y-43415821D01*
X118575334Y-43231235D01*
X118660290Y-43026134D01*
X118700417Y-42824402D01*
X118845975Y-42824402D01*
X118724691Y-43046440D01*
X118819530Y-43311281D01*
X118964215Y-43552531D01*
X119153186Y-43760919D01*
X119379180Y-43928437D01*
X119633513Y-44048646D01*
X119767561Y-44089304D01*
X119989600Y-43967315D01*
X119989600Y-42824400D01*
X119969600Y-42824400D01*
X119969600Y-42570400D01*
X119989600Y-42570400D01*
X119989600Y-41427485D01*
X120243600Y-41427485D01*
X120243600Y-42570400D01*
X120263600Y-42570400D01*
X120263600Y-42824400D01*
X120243600Y-42824400D01*
X120243600Y-43967315D01*
X120465639Y-44089304D01*
X120599687Y-44048646D01*
X120854020Y-43928437D01*
X121080014Y-43760919D01*
X121268985Y-43552531D01*
X121413670Y-43311281D01*
X121508509Y-43046440D01*
X121387225Y-42824402D01*
X121528018Y-42824402D01*
X121528018Y-43497400D01*
X121534332Y-43561503D01*
X121553030Y-43623143D01*
X121583394Y-43679950D01*
X121624257Y-43729743D01*
X121674050Y-43770606D01*
X121730857Y-43800970D01*
X121792497Y-43819668D01*
X121856600Y-43825982D01*
X123456600Y-43825982D01*
X123520703Y-43819668D01*
X123582343Y-43800970D01*
X123639150Y-43770606D01*
X123688943Y-43729743D01*
X123729806Y-43679950D01*
X123760170Y-43623143D01*
X123778868Y-43561503D01*
X123785182Y-43497400D01*
X123785182Y-42535600D01*
X124577600Y-42535600D01*
X124577600Y-42757600D01*
X124620910Y-42975334D01*
X124705866Y-43180435D01*
X124829202Y-43365021D01*
X124986179Y-43521998D01*
X125170765Y-43645334D01*
X125375866Y-43730290D01*
X125593600Y-43773600D01*
X125815600Y-43773600D01*
X126033334Y-43730290D01*
X126238435Y-43645334D01*
X126423021Y-43521998D01*
X126579998Y-43365021D01*
X126703334Y-43180435D01*
X126788290Y-42975334D01*
X126831600Y-42757600D01*
X126831600Y-42535600D01*
X126788290Y-42317866D01*
X126703334Y-42112765D01*
X126579998Y-41928179D01*
X126423021Y-41771202D01*
X126238435Y-41647866D01*
X126033334Y-41562910D01*
X125815600Y-41519600D01*
X125593600Y-41519600D01*
X125375866Y-41562910D01*
X125170765Y-41647866D01*
X124986179Y-41771202D01*
X124829202Y-41928179D01*
X124705866Y-42112765D01*
X124620910Y-42317866D01*
X124577600Y-42535600D01*
X123785182Y-42535600D01*
X123785182Y-41897400D01*
X123778868Y-41833297D01*
X123760170Y-41771657D01*
X123729806Y-41714850D01*
X123688943Y-41665057D01*
X123639150Y-41624194D01*
X123582343Y-41593830D01*
X123520703Y-41575132D01*
X123456600Y-41568818D01*
X121856600Y-41568818D01*
X121792497Y-41575132D01*
X121730857Y-41593830D01*
X121674050Y-41624194D01*
X121624257Y-41665057D01*
X121583394Y-41714850D01*
X121553030Y-41771657D01*
X121534332Y-41833297D01*
X121528018Y-41897400D01*
X121528018Y-42570398D01*
X121387225Y-42570398D01*
X121508509Y-42348360D01*
X121413670Y-42083519D01*
X121268985Y-41842269D01*
X121080014Y-41633881D01*
X120854020Y-41466363D01*
X120599687Y-41346154D01*
X120465639Y-41305496D01*
X120243600Y-41427485D01*
X119989600Y-41427485D01*
X119767561Y-41305496D01*
X119633513Y-41346154D01*
X119379180Y-41466363D01*
X119153186Y-41633881D01*
X118964215Y-41842269D01*
X118819530Y-42083519D01*
X118724691Y-42348360D01*
X118845975Y-42570398D01*
X118700417Y-42570398D01*
X118660290Y-42368666D01*
X118575334Y-42163565D01*
X118451998Y-41978979D01*
X118295021Y-41822002D01*
X118110435Y-41698666D01*
X117905334Y-41613710D01*
X117687600Y-41570400D01*
X117465600Y-41570400D01*
X117247866Y-41613710D01*
X117042765Y-41698666D01*
X116858179Y-41822002D01*
X116701202Y-41978979D01*
X116577866Y-42163565D01*
X116492910Y-42368666D01*
X116452783Y-42570398D01*
X116307225Y-42570398D01*
X116428509Y-42348360D01*
X116333670Y-42083519D01*
X116188985Y-41842269D01*
X116000014Y-41633881D01*
X115774020Y-41466363D01*
X115519687Y-41346154D01*
X115385639Y-41305496D01*
X115163600Y-41427485D01*
X114909600Y-41427485D01*
X114687561Y-41305496D01*
X114553513Y-41346154D01*
X114299180Y-41466363D01*
X114073186Y-41633881D01*
X113884215Y-41842269D01*
X113739530Y-42083519D01*
X113644691Y-42348360D01*
X113091782Y-42348360D01*
X113091782Y-41897400D01*
X113085468Y-41833297D01*
X113066770Y-41771657D01*
X113036406Y-41714850D01*
X112995543Y-41665057D01*
X112945750Y-41624194D01*
X112888943Y-41593830D01*
X112827303Y-41575132D01*
X112763200Y-41568818D01*
X111163200Y-41568818D01*
X111099097Y-41575132D01*
X111037457Y-41593830D01*
X110980650Y-41624194D01*
X110930857Y-41665057D01*
X110889994Y-41714850D01*
X110859630Y-41771657D01*
X110840932Y-41833297D01*
X110834618Y-41897400D01*
X110217019Y-41897400D01*
X110141621Y-41822002D01*
X109957035Y-41698666D01*
X109751934Y-41613710D01*
X109534200Y-41570400D01*
X109312200Y-41570400D01*
X109094466Y-41613710D01*
X108889365Y-41698666D01*
X108704779Y-41822002D01*
X108547802Y-41978979D01*
X108424466Y-42163565D01*
X108339510Y-42368666D01*
X108296200Y-42586400D01*
X108010200Y-42586400D01*
X107966890Y-42368666D01*
X107881934Y-42163565D01*
X107758598Y-41978979D01*
X107601621Y-41822002D01*
X107417035Y-41698666D01*
X107211934Y-41613710D01*
X106994200Y-41570400D01*
X106772200Y-41570400D01*
X106554466Y-41613710D01*
X106349365Y-41698666D01*
X106164779Y-41822002D01*
X106007802Y-41978979D01*
X105884466Y-42163565D01*
X105799510Y-42368666D01*
X105759383Y-42570398D01*
X105613825Y-42570398D01*
X105735109Y-42348360D01*
X105640270Y-42083519D01*
X105495585Y-41842269D01*
X105306614Y-41633881D01*
X105080620Y-41466363D01*
X104826287Y-41346154D01*
X104692239Y-41305496D01*
X104470200Y-41427485D01*
X104216200Y-41427485D01*
X103994161Y-41305496D01*
X103860113Y-41346154D01*
X103605780Y-41466363D01*
X103379786Y-41633881D01*
X103190815Y-41842269D01*
X103046130Y-42083519D01*
X102951291Y-42348360D01*
X102349437Y-42348360D01*
X102293934Y-42214365D01*
X102170598Y-42029779D01*
X102013621Y-41872802D01*
X101829035Y-41749466D01*
X101623934Y-41664510D01*
X101406200Y-41621200D01*
X101184200Y-41621200D01*
X100966466Y-41664510D01*
X100761365Y-41749466D01*
X100576779Y-41872802D01*
X100419802Y-42029779D01*
X100296466Y-42214365D01*
X100211510Y-42419466D01*
X100168200Y-42637200D01*
X98927000Y-42637200D01*
X98927000Y-40236884D01*
X98946602Y-40266221D01*
X99103579Y-40423198D01*
X99288165Y-40546534D01*
X99493266Y-40631490D01*
X99711000Y-40674800D01*
X99933000Y-40674800D01*
X100150734Y-40631490D01*
X100355835Y-40546534D01*
X100540421Y-40423198D01*
X100697398Y-40266221D01*
X100820734Y-40081635D01*
X100905690Y-39876534D01*
X100949000Y-39658800D01*
X100949000Y-39436800D01*
X101692200Y-39436800D01*
X101692200Y-39658800D01*
X101735510Y-39876534D01*
X101820466Y-40081635D01*
X101943802Y-40266221D01*
X102100779Y-40423198D01*
X102285365Y-40546534D01*
X102490466Y-40631490D01*
X102708200Y-40674800D01*
X102930200Y-40674800D01*
X103147934Y-40631490D01*
X103353035Y-40546534D01*
X103537621Y-40423198D01*
X103694598Y-40266221D01*
X103817934Y-40081635D01*
X103902890Y-39876534D01*
X103946200Y-39658800D01*
X103946200Y-39436800D01*
X104740200Y-39436800D01*
X104740200Y-39658800D01*
X104783510Y-39876534D01*
X104868466Y-40081635D01*
X104991802Y-40266221D01*
X105148779Y-40423198D01*
X105333365Y-40546534D01*
X105538466Y-40631490D01*
X105756200Y-40674800D01*
X105978200Y-40674800D01*
X106195934Y-40631490D01*
X106401035Y-40546534D01*
X106585621Y-40423198D01*
X106742598Y-40266221D01*
X106865934Y-40081635D01*
X106950890Y-39876534D01*
X106994200Y-39658800D01*
X106994200Y-39436800D01*
X106984096Y-39386000D01*
X107381800Y-39386000D01*
X107381800Y-39608000D01*
X107425110Y-39825734D01*
X107510066Y-40030835D01*
X107633402Y-40215421D01*
X107790379Y-40372398D01*
X107974965Y-40495734D01*
X108180066Y-40580690D01*
X108397800Y-40624000D01*
X108619800Y-40624000D01*
X108837534Y-40580690D01*
X109042635Y-40495734D01*
X109051662Y-40489702D01*
X115315703Y-40489702D01*
X115387286Y-40733671D01*
X115642796Y-40854571D01*
X115916984Y-40923300D01*
X116199312Y-40937217D01*
X116478930Y-40895787D01*
X116745092Y-40800603D01*
X116870314Y-40733671D01*
X116941897Y-40489702D01*
X116128800Y-39676605D01*
X115315703Y-40489702D01*
X109051662Y-40489702D01*
X109227221Y-40372398D01*
X109384198Y-40215421D01*
X109507534Y-40030835D01*
X109592490Y-39825734D01*
X109635800Y-39608000D01*
X109635800Y-39567512D01*
X114688583Y-39567512D01*
X114730013Y-39847130D01*
X114825197Y-40113292D01*
X114892129Y-40238514D01*
X115136098Y-40310097D01*
X115949195Y-39497000D01*
X116308405Y-39497000D01*
X117121502Y-40310097D01*
X117365471Y-40238514D01*
X117486371Y-39983004D01*
X117527069Y-39820640D01*
X118445291Y-39820640D01*
X118540130Y-40085481D01*
X118684815Y-40326731D01*
X118873786Y-40535119D01*
X119099780Y-40702637D01*
X119354113Y-40822846D01*
X119488161Y-40863504D01*
X119710200Y-40741515D01*
X119710200Y-39598600D01*
X119964200Y-39598600D01*
X119964200Y-40741515D01*
X120186239Y-40863504D01*
X120320287Y-40822846D01*
X120574620Y-40702637D01*
X120800614Y-40535119D01*
X120989585Y-40326731D01*
X121134270Y-40085481D01*
X121229109Y-39820640D01*
X121107824Y-39598600D01*
X119964200Y-39598600D01*
X119710200Y-39598600D01*
X118566576Y-39598600D01*
X118445291Y-39820640D01*
X117527069Y-39820640D01*
X117555100Y-39708816D01*
X117569017Y-39426488D01*
X117527587Y-39146870D01*
X117518894Y-39122560D01*
X118445291Y-39122560D01*
X118566576Y-39344600D01*
X119710200Y-39344600D01*
X119710200Y-38201685D01*
X119964200Y-38201685D01*
X119964200Y-39344600D01*
X121107824Y-39344600D01*
X121229109Y-39122560D01*
X121134270Y-38857719D01*
X120989585Y-38616469D01*
X120800614Y-38408081D01*
X120574620Y-38240563D01*
X120320287Y-38120354D01*
X120186239Y-38079696D01*
X119964200Y-38201685D01*
X119710200Y-38201685D01*
X119488161Y-38079696D01*
X119354113Y-38120354D01*
X119099780Y-38240563D01*
X118873786Y-38408081D01*
X118684815Y-38616469D01*
X118540130Y-38857719D01*
X118445291Y-39122560D01*
X117518894Y-39122560D01*
X117432403Y-38880708D01*
X117365471Y-38755486D01*
X117121502Y-38683903D01*
X116308405Y-39497000D01*
X115949195Y-39497000D01*
X115136098Y-38683903D01*
X114892129Y-38755486D01*
X114771229Y-39010996D01*
X114702500Y-39285184D01*
X114688583Y-39567512D01*
X109635800Y-39567512D01*
X109635800Y-39386000D01*
X109592490Y-39168266D01*
X109507534Y-38963165D01*
X109384198Y-38778579D01*
X109227221Y-38621602D01*
X109051663Y-38504298D01*
X115315703Y-38504298D01*
X116128800Y-39317395D01*
X116941897Y-38504298D01*
X116870314Y-38260329D01*
X116614804Y-38139429D01*
X116340616Y-38070700D01*
X116058288Y-38056783D01*
X115778670Y-38098213D01*
X115512508Y-38193397D01*
X115387286Y-38260329D01*
X115315703Y-38504298D01*
X109051663Y-38504298D01*
X109042635Y-38498266D01*
X108837534Y-38413310D01*
X108619800Y-38370000D01*
X108397800Y-38370000D01*
X108180066Y-38413310D01*
X107974965Y-38498266D01*
X107790379Y-38621602D01*
X107633402Y-38778579D01*
X107510066Y-38963165D01*
X107425110Y-39168266D01*
X107381800Y-39386000D01*
X106984096Y-39386000D01*
X106950890Y-39219066D01*
X106865934Y-39013965D01*
X106742598Y-38829379D01*
X106585621Y-38672402D01*
X106401035Y-38549066D01*
X106195934Y-38464110D01*
X105978200Y-38420800D01*
X105756200Y-38420800D01*
X105538466Y-38464110D01*
X105333365Y-38549066D01*
X105148779Y-38672402D01*
X104991802Y-38829379D01*
X104868466Y-39013965D01*
X104783510Y-39219066D01*
X104740200Y-39436800D01*
X103946200Y-39436800D01*
X103902890Y-39219066D01*
X103817934Y-39013965D01*
X103694598Y-38829379D01*
X103537621Y-38672402D01*
X103353035Y-38549066D01*
X103147934Y-38464110D01*
X102930200Y-38420800D01*
X102708200Y-38420800D01*
X102490466Y-38464110D01*
X102285365Y-38549066D01*
X102100779Y-38672402D01*
X101943802Y-38829379D01*
X101820466Y-39013965D01*
X101735510Y-39219066D01*
X101692200Y-39436800D01*
X100949000Y-39436800D01*
X100905690Y-39219066D01*
X100820734Y-39013965D01*
X100697398Y-38829379D01*
X100540421Y-38672402D01*
X100355835Y-38549066D01*
X100150734Y-38464110D01*
X99933000Y-38420800D01*
X99711000Y-38420800D01*
X99493266Y-38464110D01*
X99288165Y-38549066D01*
X99103579Y-38672402D01*
X98946602Y-38829379D01*
X98927000Y-38858716D01*
X98927000Y-36196291D01*
X107702319Y-36196291D01*
X107799643Y-36470652D01*
X107948622Y-36720755D01*
X108143531Y-36936988D01*
X108376880Y-37111041D01*
X108639701Y-37236225D01*
X108786910Y-37280876D01*
X109016800Y-37159555D01*
X109016800Y-35966400D01*
X109270800Y-35966400D01*
X109270800Y-37159555D01*
X109500690Y-37280876D01*
X109647899Y-37236225D01*
X109910720Y-37111041D01*
X110144069Y-36936988D01*
X110338978Y-36720755D01*
X110413800Y-36595145D01*
X110488622Y-36720755D01*
X110683531Y-36936988D01*
X110916880Y-37111041D01*
X111179701Y-37236225D01*
X111326910Y-37280876D01*
X111556800Y-37159555D01*
X111556800Y-35966400D01*
X111810800Y-35966400D01*
X111810800Y-37159555D01*
X112040690Y-37280876D01*
X112187899Y-37236225D01*
X112450720Y-37111041D01*
X112684069Y-36936988D01*
X112878978Y-36720755D01*
X112953800Y-36595145D01*
X113028622Y-36720755D01*
X113223531Y-36936988D01*
X113456880Y-37111041D01*
X113719701Y-37236225D01*
X113866910Y-37280876D01*
X114096800Y-37159555D01*
X114096800Y-35966400D01*
X114350800Y-35966400D01*
X114350800Y-37159555D01*
X114580690Y-37280876D01*
X114727899Y-37236225D01*
X114990720Y-37111041D01*
X115224069Y-36936988D01*
X115418978Y-36720755D01*
X115493800Y-36595145D01*
X115568622Y-36720755D01*
X115763531Y-36936988D01*
X115996880Y-37111041D01*
X116259701Y-37236225D01*
X116406910Y-37280876D01*
X116636800Y-37159555D01*
X116636800Y-35966400D01*
X116890800Y-35966400D01*
X116890800Y-37159555D01*
X117120690Y-37280876D01*
X117267899Y-37236225D01*
X117530720Y-37111041D01*
X117764069Y-36936988D01*
X117958978Y-36720755D01*
X118107957Y-36470652D01*
X118205281Y-36196291D01*
X118084614Y-35966400D01*
X116890800Y-35966400D01*
X116636800Y-35966400D01*
X114350800Y-35966400D01*
X114096800Y-35966400D01*
X111810800Y-35966400D01*
X111556800Y-35966400D01*
X109270800Y-35966400D01*
X109016800Y-35966400D01*
X107822986Y-35966400D01*
X107702319Y-36196291D01*
X98927000Y-36196291D01*
X98927000Y-34149400D01*
X107655728Y-34149400D01*
X107667988Y-34273882D01*
X107704298Y-34393580D01*
X107763263Y-34503894D01*
X107842615Y-34600585D01*
X107939306Y-34679937D01*
X108049620Y-34738902D01*
X108125426Y-34761898D01*
X107948622Y-34958045D01*
X107799643Y-35208148D01*
X107702319Y-35482509D01*
X107822986Y-35712400D01*
X109016800Y-35712400D01*
X109016800Y-33426400D01*
X109270800Y-33426400D01*
X109270800Y-35712400D01*
X111556800Y-35712400D01*
X111556800Y-33426400D01*
X111810800Y-33426400D01*
X111810800Y-35712400D01*
X114096800Y-35712400D01*
X114096800Y-33426400D01*
X114350800Y-33426400D01*
X114350800Y-35712400D01*
X116636800Y-35712400D01*
X116636800Y-33426400D01*
X116890800Y-33426400D01*
X116890800Y-35712400D01*
X118084614Y-35712400D01*
X118205281Y-35482509D01*
X118107957Y-35208148D01*
X117958978Y-34958045D01*
X117764069Y-34741812D01*
X117532920Y-34569400D01*
X117764069Y-34396988D01*
X117958978Y-34180755D01*
X118107957Y-33930652D01*
X118205281Y-33656291D01*
X118084614Y-33426400D01*
X116890800Y-33426400D01*
X116636800Y-33426400D01*
X114350800Y-33426400D01*
X114096800Y-33426400D01*
X111810800Y-33426400D01*
X111556800Y-33426400D01*
X109270800Y-33426400D01*
X109016800Y-33426400D01*
X107817550Y-33426400D01*
X107658800Y-33585150D01*
X107655728Y-34149400D01*
X98927000Y-34149400D01*
X98927000Y-32616884D01*
X98946602Y-32646221D01*
X99103579Y-32803198D01*
X99288165Y-32926534D01*
X99493266Y-33011490D01*
X99711000Y-33054800D01*
X99933000Y-33054800D01*
X100150734Y-33011490D01*
X100355835Y-32926534D01*
X100540421Y-32803198D01*
X100697398Y-32646221D01*
X100820734Y-32461635D01*
X100905690Y-32256534D01*
X100949000Y-32038800D01*
X100949000Y-31816800D01*
X101692200Y-31816800D01*
X101692200Y-32038800D01*
X101735510Y-32256534D01*
X101820466Y-32461635D01*
X101943802Y-32646221D01*
X102100779Y-32803198D01*
X102285365Y-32926534D01*
X102490466Y-33011490D01*
X102708200Y-33054800D01*
X102930200Y-33054800D01*
X103147934Y-33011490D01*
X103353035Y-32926534D01*
X103537621Y-32803198D01*
X103694598Y-32646221D01*
X103817934Y-32461635D01*
X103902890Y-32256534D01*
X103946200Y-32038800D01*
X103946200Y-31816800D01*
X104740200Y-31816800D01*
X104740200Y-32038800D01*
X104783510Y-32256534D01*
X104868466Y-32461635D01*
X104991802Y-32646221D01*
X105148779Y-32803198D01*
X105333365Y-32926534D01*
X105538466Y-33011490D01*
X105756200Y-33054800D01*
X105978200Y-33054800D01*
X106195934Y-33011490D01*
X106401035Y-32926534D01*
X106585621Y-32803198D01*
X106742598Y-32646221D01*
X106865934Y-32461635D01*
X106871001Y-32449400D01*
X107655728Y-32449400D01*
X107658800Y-33013650D01*
X107817550Y-33172400D01*
X109016800Y-33172400D01*
X109016800Y-31973150D01*
X109270800Y-31973150D01*
X109270800Y-33172400D01*
X111556800Y-33172400D01*
X111556800Y-31979245D01*
X111810800Y-31979245D01*
X111810800Y-33172400D01*
X114096800Y-33172400D01*
X114096800Y-31979245D01*
X114350800Y-31979245D01*
X114350800Y-33172400D01*
X116636800Y-33172400D01*
X116636800Y-31979245D01*
X116890800Y-31979245D01*
X116890800Y-33172400D01*
X118084614Y-33172400D01*
X118205281Y-32942509D01*
X118107957Y-32668148D01*
X117958978Y-32418045D01*
X117764069Y-32201812D01*
X117530720Y-32027759D01*
X117267899Y-31902575D01*
X117120690Y-31857924D01*
X116890800Y-31979245D01*
X116636800Y-31979245D01*
X116406910Y-31857924D01*
X116259701Y-31902575D01*
X115996880Y-32027759D01*
X115763531Y-32201812D01*
X115568622Y-32418045D01*
X115493800Y-32543655D01*
X115418978Y-32418045D01*
X115224069Y-32201812D01*
X114990720Y-32027759D01*
X114727899Y-31902575D01*
X114580690Y-31857924D01*
X114350800Y-31979245D01*
X114096800Y-31979245D01*
X113866910Y-31857924D01*
X113719701Y-31902575D01*
X113456880Y-32027759D01*
X113223531Y-32201812D01*
X113028622Y-32418045D01*
X112953800Y-32543655D01*
X112878978Y-32418045D01*
X112684069Y-32201812D01*
X112450720Y-32027759D01*
X112187899Y-31902575D01*
X112040690Y-31857924D01*
X111810800Y-31979245D01*
X111556800Y-31979245D01*
X111326910Y-31857924D01*
X111179701Y-31902575D01*
X110916880Y-32027759D01*
X110683531Y-32201812D01*
X110607766Y-32285866D01*
X110583302Y-32205220D01*
X110524337Y-32094906D01*
X110444985Y-31998215D01*
X110348294Y-31918863D01*
X110237980Y-31859898D01*
X110118282Y-31823588D01*
X109993800Y-31811328D01*
X109429550Y-31814400D01*
X109270800Y-31973150D01*
X109016800Y-31973150D01*
X108858050Y-31814400D01*
X108293800Y-31811328D01*
X108169318Y-31823588D01*
X108049620Y-31859898D01*
X107939306Y-31918863D01*
X107842615Y-31998215D01*
X107763263Y-32094906D01*
X107704298Y-32205220D01*
X107667988Y-32324918D01*
X107655728Y-32449400D01*
X106871001Y-32449400D01*
X106950890Y-32256534D01*
X106994200Y-32038800D01*
X106994200Y-31816800D01*
X106979043Y-31740600D01*
X118710200Y-31740600D01*
X118710200Y-31962600D01*
X118753510Y-32180334D01*
X118838466Y-32385435D01*
X118961802Y-32570021D01*
X119118779Y-32726998D01*
X119303365Y-32850334D01*
X119508466Y-32935290D01*
X119726200Y-32978600D01*
X119948200Y-32978600D01*
X120165934Y-32935290D01*
X120371035Y-32850334D01*
X120555621Y-32726998D01*
X120712598Y-32570021D01*
X120835934Y-32385435D01*
X120920890Y-32180334D01*
X120964200Y-31962600D01*
X120964200Y-31740600D01*
X120920890Y-31522866D01*
X120835934Y-31317765D01*
X120712598Y-31133179D01*
X120555621Y-30976202D01*
X120371035Y-30852866D01*
X120165934Y-30767910D01*
X119948200Y-30724600D01*
X119726200Y-30724600D01*
X119508466Y-30767910D01*
X119303365Y-30852866D01*
X119118779Y-30976202D01*
X118961802Y-31133179D01*
X118838466Y-31317765D01*
X118753510Y-31522866D01*
X118710200Y-31740600D01*
X106979043Y-31740600D01*
X106950890Y-31599066D01*
X106865934Y-31393965D01*
X106742598Y-31209379D01*
X106585621Y-31052402D01*
X106401035Y-30929066D01*
X106195934Y-30844110D01*
X105978200Y-30800800D01*
X105756200Y-30800800D01*
X105538466Y-30844110D01*
X105333365Y-30929066D01*
X105148779Y-31052402D01*
X104991802Y-31209379D01*
X104868466Y-31393965D01*
X104783510Y-31599066D01*
X104740200Y-31816800D01*
X103946200Y-31816800D01*
X103902890Y-31599066D01*
X103817934Y-31393965D01*
X103694598Y-31209379D01*
X103537621Y-31052402D01*
X103353035Y-30929066D01*
X103147934Y-30844110D01*
X102930200Y-30800800D01*
X102708200Y-30800800D01*
X102490466Y-30844110D01*
X102285365Y-30929066D01*
X102100779Y-31052402D01*
X101943802Y-31209379D01*
X101820466Y-31393965D01*
X101735510Y-31599066D01*
X101692200Y-31816800D01*
X100949000Y-31816800D01*
X100905690Y-31599066D01*
X100820734Y-31393965D01*
X100697398Y-31209379D01*
X100540421Y-31052402D01*
X100355835Y-30929066D01*
X100150734Y-30844110D01*
X99933000Y-30800800D01*
X99711000Y-30800800D01*
X99493266Y-30844110D01*
X99288165Y-30929066D01*
X99103579Y-31052402D01*
X98946602Y-31209379D01*
X98927000Y-31238716D01*
X98927000Y-26747200D01*
X109347218Y-26747200D01*
X109347218Y-28777200D01*
X109353532Y-28841303D01*
X109372230Y-28902943D01*
X109402594Y-28959750D01*
X109443457Y-29009543D01*
X109493250Y-29050406D01*
X109550057Y-29080770D01*
X109611697Y-29099468D01*
X109675800Y-29105782D01*
X111405800Y-29105782D01*
X111469903Y-29099468D01*
X111531543Y-29080770D01*
X111588350Y-29050406D01*
X111638143Y-29009543D01*
X111679006Y-28959750D01*
X111709370Y-28902943D01*
X111728068Y-28841303D01*
X111734382Y-28777200D01*
X111734382Y-28559716D01*
X111788993Y-28676845D01*
X111962990Y-28914172D01*
X112179943Y-29112993D01*
X112431516Y-29265669D01*
X112708041Y-29366331D01*
X112721554Y-29368546D01*
X112953800Y-29247424D01*
X112953800Y-27889200D01*
X113207800Y-27889200D01*
X113207800Y-29247424D01*
X113440046Y-29368546D01*
X113453559Y-29366331D01*
X113730084Y-29265669D01*
X113981657Y-29112993D01*
X114198610Y-28914172D01*
X114350800Y-28706589D01*
X114502990Y-28914172D01*
X114719943Y-29112993D01*
X114971516Y-29265669D01*
X115248041Y-29366331D01*
X115261554Y-29368546D01*
X115493800Y-29247424D01*
X115493800Y-27889200D01*
X115747800Y-27889200D01*
X115747800Y-29247424D01*
X115980046Y-29368546D01*
X115993559Y-29366331D01*
X116270084Y-29265669D01*
X116521657Y-29112993D01*
X116738610Y-28914172D01*
X116912607Y-28676845D01*
X117036960Y-28410134D01*
X117106891Y-28124287D01*
X116963022Y-27889200D01*
X115747800Y-27889200D01*
X115493800Y-27889200D01*
X113207800Y-27889200D01*
X112953800Y-27889200D01*
X112933800Y-27889200D01*
X112933800Y-27635200D01*
X112953800Y-27635200D01*
X112953800Y-26276976D01*
X113207800Y-26276976D01*
X113207800Y-27635200D01*
X115493800Y-27635200D01*
X115493800Y-26276976D01*
X115747800Y-26276976D01*
X115747800Y-27635200D01*
X116963022Y-27635200D01*
X117106891Y-27400113D01*
X117036960Y-27114266D01*
X116912607Y-26847555D01*
X116738610Y-26610228D01*
X116521657Y-26411407D01*
X116270084Y-26258731D01*
X115993559Y-26158069D01*
X115980046Y-26155854D01*
X115747800Y-26276976D01*
X115493800Y-26276976D01*
X115261554Y-26155854D01*
X115248041Y-26158069D01*
X114971516Y-26258731D01*
X114719943Y-26411407D01*
X114502990Y-26610228D01*
X114350800Y-26817811D01*
X114198610Y-26610228D01*
X113981657Y-26411407D01*
X113730084Y-26258731D01*
X113453559Y-26158069D01*
X113440046Y-26155854D01*
X113207800Y-26276976D01*
X112953800Y-26276976D01*
X112721554Y-26155854D01*
X112708041Y-26158069D01*
X112431516Y-26258731D01*
X112179943Y-26411407D01*
X111962990Y-26610228D01*
X111788993Y-26847555D01*
X111734382Y-26964684D01*
X111734382Y-26747200D01*
X111728068Y-26683097D01*
X111709370Y-26621457D01*
X111679006Y-26564650D01*
X111638143Y-26514857D01*
X111588350Y-26473994D01*
X111531543Y-26443630D01*
X111469903Y-26424932D01*
X111405800Y-26418618D01*
X109675800Y-26418618D01*
X109611697Y-26424932D01*
X109550057Y-26443630D01*
X109493250Y-26473994D01*
X109443457Y-26514857D01*
X109402594Y-26564650D01*
X109372230Y-26621457D01*
X109353532Y-26683097D01*
X109347218Y-26747200D01*
X98927000Y-26747200D01*
X98927000Y-25013400D01*
X124973000Y-25013400D01*
X124973001Y-35103423D01*
G37*
G04 #@! TD.AperFunction*
M02*
