M48
; DRILL file {KiCad 5.1.5-52549c5~86~ubuntu16.04.1} date Wed 05 Aug 2020 12:56:53 PM -05
; FORMAT={3:3/ absolute / metric / suppress leading zeros}
; #@! TF.CreationDate,2020-08-05T12:56:53-05:00
; #@! TF.GenerationSoftware,Kicad,Pcbnew,5.1.5-52549c5~86~ubuntu16.04.1
; #@! TF.FileFunction,Plated,1,4,PTH
FMAT,2
METRIC,TZ
T1C0.762
T2C0.800
T3C0.900
T4C4.040
%
G90
G05
T1
X219395Y-122910
X219395Y-125450
X219395Y-127990
X230645Y-122910
X230645Y-125450
X230645Y-127990
X183395Y-87910
X183395Y-90450
X183395Y-92990
X194645Y-87910
X194645Y-90450
X194645Y-92990
X148395Y-87910
X148395Y-90450
X148395Y-92990
X159645Y-87910
X159645Y-90450
X159645Y-92990
X148775Y-53620
X148775Y-56160
X148775Y-58700
X160025Y-53620
X160025Y-56160
X160025Y-58700
X219395Y-87910
X219395Y-90450
X219395Y-92990
X230645Y-87910
X230645Y-90450
X230645Y-92990
X183775Y-53620
X183775Y-56160
X183775Y-58700
X195025Y-53620
X195025Y-56160
X195025Y-58700
X219395Y-52410
X219395Y-54950
X219395Y-57490
X230645Y-52410
X230645Y-54950
X230645Y-57490
T2
X153990Y-74900
X224900Y-105600
X188990Y-109900
X223400Y-74900
X152500Y-74900
X155490Y-109900
X204600Y-123500
X223400Y-70100
X174400Y-55010
X204600Y-126490
X169600Y-53510
X210400Y-123500
X169600Y-55000
X204600Y-124990
X153990Y-109900
X187500Y-70100
X204600Y-55000
X226390Y-70100
X190490Y-74900
X223400Y-109900
X210400Y-125000
X174400Y-90010
X204600Y-91490
X224890Y-109900
X169600Y-91500
X174400Y-126520
X169600Y-90000
X210400Y-126490
X152500Y-109900
X226390Y-74900
X155490Y-70100
X189000Y-70100
X210400Y-56500
X174400Y-88510
X169600Y-123530
X223400Y-105600
X224900Y-70100
X190490Y-105600
X204600Y-56500
X210400Y-55010
X169600Y-125020
X152500Y-70100
X210400Y-53510
X169600Y-126520
X226390Y-109900
X204600Y-88500
X187500Y-105600
X174400Y-125030
X174400Y-123530
X187500Y-74900
X224890Y-74900
X154000Y-70100
X174400Y-91500
X152500Y-105600
X204600Y-53510
X210400Y-91490
X169600Y-56500
X210400Y-90000
X189000Y-105600
X187500Y-109900
X210400Y-88500
X190490Y-70100
X155490Y-74900
X169600Y-88510
X154000Y-105600
X174400Y-53510
X155490Y-105600
X226390Y-105600
X190490Y-109900
X204600Y-89990
X174400Y-56500
X188990Y-74900
T3
X183100Y-121060
X185640Y-121060
X188180Y-121060
X190720Y-121060
X193260Y-121060
X195800Y-121060
X148100Y-121060
X150640Y-121060
X153180Y-121060
X155720Y-121060
X158260Y-121060
X160800Y-121060
T4
X177894Y-131560
X201006Y-131560
X142894Y-131560
X166006Y-131560
T0
M30
