G04 #@! TF.GenerationSoftware,KiCad,Pcbnew,5.1.5-52549c5~86~ubuntu16.04.1*
G04 #@! TF.CreationDate,2020-08-04T22:24:30-05:00*
G04 #@! TF.ProjectId,pressure_sensors,70726573-7375-4726-955f-73656e736f72,rev?*
G04 #@! TF.SameCoordinates,Original*
G04 #@! TF.FileFunction,Profile,NP*
%FSLAX46Y46*%
G04 Gerber Fmt 4.6, Leading zero omitted, Abs format (unit mm)*
G04 Created by KiCad (PCBNEW 5.1.5-52549c5~86~ubuntu16.04.1) date 2020-08-04 22:24:30*
%MOMM*%
%LPD*%
G04 APERTURE LIST*
%ADD10C,0.300000*%
G04 APERTURE END LIST*
D10*
X151000000Y-110510000D02*
X141990000Y-110510000D01*
X157000000Y-105000000D02*
X169000000Y-105000000D01*
X192000000Y-110510000D02*
X201990000Y-110510000D01*
X186000000Y-105000000D02*
X175000000Y-105000000D01*
X169000000Y-87000000D02*
X169000000Y-82500000D01*
X175000000Y-87000000D02*
X175000000Y-82500000D01*
X204000000Y-87000000D02*
X204000000Y-82500000D01*
X211000000Y-87000000D02*
X211000000Y-82500000D01*
X157000000Y-75500000D02*
X167000000Y-75500000D01*
X186000000Y-75500000D02*
X177000000Y-75500000D01*
X169000000Y-52000000D02*
X169000000Y-47000000D01*
X175000000Y-52000000D02*
X175000000Y-47000000D01*
X151000000Y-69500000D02*
X140000000Y-69500000D01*
X186000000Y-69500000D02*
X175000000Y-69500000D01*
X168990000Y-122010000D02*
X168990000Y-117510000D01*
X174990000Y-122010000D02*
X174990000Y-117510000D01*
X203990000Y-122000000D02*
X203990000Y-117510000D01*
X211000000Y-122000000D02*
X211000000Y-117500000D01*
X213000000Y-110500000D02*
X221900000Y-110510000D01*
X221900000Y-105000000D02*
X211000000Y-105000000D01*
X204000000Y-52000000D02*
X204000000Y-47000000D01*
X211000000Y-52000000D02*
X211000000Y-47000000D01*
X221900000Y-75500000D02*
X213000000Y-75500000D01*
X221900000Y-69500000D02*
X211000000Y-69500000D01*
X204000000Y-93000000D02*
X211000000Y-93000000D01*
X204000000Y-87000000D02*
X211000000Y-87000000D01*
X204000000Y-58000000D02*
X211000000Y-58000000D01*
X204000000Y-52000000D02*
X211000000Y-52000000D01*
X169000000Y-58000000D02*
X175000000Y-58000000D01*
X169000000Y-52000000D02*
X175000000Y-52000000D01*
X169000000Y-93000000D02*
X175000000Y-93000000D01*
X169000000Y-87000000D02*
X175000000Y-87000000D01*
X203990000Y-128000000D02*
X211000000Y-128000000D01*
X203990000Y-122000000D02*
X211000000Y-122000000D01*
X168990000Y-122010000D02*
X174990000Y-122010000D01*
X168990000Y-128010000D02*
X174990000Y-128010000D01*
X221900000Y-75500000D02*
X221900000Y-69500000D01*
X227900000Y-75500000D02*
X227900000Y-69500000D01*
X186000000Y-75500000D02*
X186000000Y-69500000D01*
X192000000Y-75500000D02*
X192000000Y-69500000D01*
X151000000Y-75500000D02*
X151000000Y-69500000D01*
X157000000Y-75500000D02*
X157000000Y-69500000D01*
X221900000Y-110510000D02*
X221900000Y-105000000D01*
X227900000Y-110500000D02*
X227900000Y-105000000D01*
X186000000Y-110510000D02*
X186000000Y-105000000D01*
X192000000Y-110510000D02*
X192000000Y-105000000D01*
X151000000Y-110510000D02*
X151000000Y-105000000D01*
X157000000Y-110510000D02*
X157000000Y-105000000D01*
X175000000Y-58000000D02*
X175000000Y-69500000D01*
X203000000Y-46000000D02*
G75*
G02X202000000Y-45000000I0J1000000D01*
G01*
X175000000Y-47000000D02*
G75*
G02X176000000Y-46000000I1000000J0D01*
G01*
X177000000Y-45000000D02*
G75*
G02X176000000Y-46000000I-1000000J0D01*
G01*
X204000000Y-58000000D02*
X204000000Y-69500000D01*
X177000000Y-45000000D02*
X177000000Y-40000000D01*
X204000000Y-69500000D02*
X192000000Y-69500000D01*
X177000000Y-40000000D02*
X202000000Y-40000000D01*
X203000000Y-46000000D02*
G75*
G02X204000000Y-47000000I0J-1000000D01*
G01*
X202000000Y-40000000D02*
X202000000Y-45000000D01*
X203000000Y-81500000D02*
G75*
G02X204000000Y-82500000I0J-1000000D01*
G01*
X177000000Y-80500000D02*
G75*
G02X176000000Y-81500000I-1000000J0D01*
G01*
X204000000Y-105000000D02*
X192000000Y-105000000D01*
X192000000Y-75500000D02*
X202000000Y-75500000D01*
X203000000Y-81500000D02*
G75*
G02X202000000Y-80500000I0J1000000D01*
G01*
X202000000Y-75500000D02*
X202000000Y-80500000D01*
X175000000Y-93000000D02*
X175000000Y-105000000D01*
X177000000Y-80500000D02*
X177000000Y-75500000D01*
X204000000Y-93000000D02*
X204000000Y-105000000D01*
X175000000Y-82500000D02*
G75*
G02X176000000Y-81500000I1000000J0D01*
G01*
X211000000Y-58000000D02*
X211000000Y-69500000D01*
X213000000Y-40000000D02*
X238000000Y-40000000D01*
X213000000Y-45000000D02*
X213000000Y-40000000D01*
X240000000Y-69500000D02*
X227900000Y-69500000D01*
X213000000Y-45000000D02*
G75*
G02X212000000Y-46000000I-1000000J0D01*
G01*
X239000000Y-46000000D02*
G75*
G02X240000000Y-47000000I0J-1000000D01*
G01*
X211000000Y-47000000D02*
G75*
G02X212000000Y-46000000I1000000J0D01*
G01*
X238000000Y-40000000D02*
X238000000Y-45000000D01*
X239000000Y-46000000D02*
G75*
G02X238000000Y-45000000I0J1000000D01*
G01*
X240000000Y-47000000D02*
X240000000Y-69500000D01*
X211000000Y-93000000D02*
X211000000Y-105000000D01*
X227900000Y-75500000D02*
X238000000Y-75500000D01*
X213000000Y-80500000D02*
X213000000Y-75500000D01*
X240000000Y-105000000D02*
X227900000Y-105000000D01*
X213000000Y-80500000D02*
G75*
G02X212000000Y-81500000I-1000000J0D01*
G01*
X239000000Y-81500000D02*
G75*
G02X240000000Y-82500000I0J-1000000D01*
G01*
X211000000Y-82500000D02*
G75*
G02X212000000Y-81500000I1000000J0D01*
G01*
X238000000Y-75500000D02*
X238000000Y-80500000D01*
X239000000Y-81500000D02*
G75*
G02X238000000Y-80500000I0J1000000D01*
G01*
X240000000Y-82500000D02*
X240000000Y-105000000D01*
X201990000Y-110510000D02*
X201990000Y-115510000D01*
X176990000Y-110510000D02*
X186000000Y-110510000D01*
X174990000Y-128010000D02*
X174990000Y-140010000D01*
X176990000Y-115510000D02*
X176990000Y-110510000D01*
X203990000Y-140010000D02*
X174990000Y-140010000D01*
X203990000Y-128000000D02*
X203990000Y-140010000D01*
X202990000Y-116510000D02*
G75*
G02X203990000Y-117510000I0J-1000000D01*
G01*
X202990000Y-116510000D02*
G75*
G02X201990000Y-115510000I0J1000000D01*
G01*
X174990000Y-117510000D02*
G75*
G02X175990000Y-116510000I1000000J0D01*
G01*
X176990000Y-115510000D02*
G75*
G02X175990000Y-116510000I-1000000J0D01*
G01*
X140000000Y-47000000D02*
X140000000Y-69500000D01*
X168000000Y-46000000D02*
G75*
G02X167000000Y-45000000I0J1000000D01*
G01*
X140000000Y-47000000D02*
G75*
G02X141000000Y-46000000I1000000J0D01*
G01*
X142000000Y-45000000D02*
G75*
G02X141000000Y-46000000I-1000000J0D01*
G01*
X169000000Y-58000000D02*
X169000000Y-69500000D01*
X142000000Y-45000000D02*
X142000000Y-40000000D01*
X169000000Y-69500000D02*
X157000000Y-69500000D01*
X142000000Y-40000000D02*
X167000000Y-40000000D01*
X168000000Y-46000000D02*
G75*
G02X169000000Y-47000000I0J-1000000D01*
G01*
X167000000Y-40000000D02*
X167000000Y-45000000D01*
X167000000Y-75500000D02*
X167000000Y-80500000D01*
X140000000Y-82500000D02*
G75*
G02X141000000Y-81500000I1000000J0D01*
G01*
X142000000Y-75500000D02*
X151000000Y-75500000D01*
X168000000Y-81500000D02*
G75*
G02X169000000Y-82500000I0J-1000000D01*
G01*
X168000000Y-81500000D02*
G75*
G02X167000000Y-80500000I0J1000000D01*
G01*
X151000000Y-105000000D02*
X140000000Y-105000000D01*
X169000000Y-93000000D02*
X169000000Y-105000000D01*
X140000000Y-82500000D02*
X140000000Y-105000000D01*
X142000000Y-80500000D02*
G75*
G02X141000000Y-81500000I-1000000J0D01*
G01*
X142000000Y-80500000D02*
X142000000Y-75500000D01*
X211000000Y-128000000D02*
X211000000Y-140000000D01*
X213000000Y-115500000D02*
X213000000Y-110500000D01*
X239000000Y-116500000D02*
G75*
G02X240000000Y-117500000I0J-1000000D01*
G01*
X239000000Y-116500000D02*
G75*
G02X238000000Y-115500000I0J1000000D01*
G01*
X213000000Y-115500000D02*
G75*
G02X212000000Y-116500000I-1000000J0D01*
G01*
X240000000Y-140000000D02*
X211000000Y-140000000D01*
X240000000Y-117500000D02*
X240000000Y-140000000D01*
X211000000Y-117500000D02*
G75*
G02X212000000Y-116500000I1000000J0D01*
G01*
X238000000Y-110500000D02*
X238000000Y-115500000D01*
X227900000Y-110500000D02*
X238000000Y-110500000D01*
X141990000Y-115510000D02*
G75*
G02X140990000Y-116510000I-1000000J0D01*
G01*
X139990000Y-117510000D02*
G75*
G02X140990000Y-116510000I1000000J0D01*
G01*
X141990000Y-115510000D02*
X141990000Y-110510000D01*
X139990000Y-117510000D02*
X139990000Y-140010000D01*
X157000000Y-110510000D02*
X166990000Y-110510000D01*
X166990000Y-110510000D02*
X166990000Y-115510000D01*
X167990000Y-116510000D02*
G75*
G02X166990000Y-115510000I0J1000000D01*
G01*
X167990000Y-116510000D02*
G75*
G02X168990000Y-117510000I0J-1000000D01*
G01*
X168990000Y-128010000D02*
X168990000Y-140010000D01*
X168990000Y-140010000D02*
X139990000Y-140010000D01*
M02*
