G04 #@! TF.GenerationSoftware,KiCad,Pcbnew,5.1.5-52549c5~86~ubuntu16.04.1*
G04 #@! TF.CreationDate,2020-08-05T12:56:56-05:00*
G04 #@! TF.ProjectId,pressure_sensors,70726573-7375-4726-955f-73656e736f72,rev?*
G04 #@! TF.SameCoordinates,Original*
G04 #@! TF.FileFunction,Legend,Bot*
G04 #@! TF.FilePolarity,Positive*
%FSLAX46Y46*%
G04 Gerber Fmt 4.6, Leading zero omitted, Abs format (unit mm)*
G04 Created by KiCad (PCBNEW 5.1.5-52549c5~86~ubuntu16.04.1) date 2020-08-05 12:56:56*
%MOMM*%
%LPD*%
G04 APERTURE LIST*
%ADD10C,0.150000*%
%ADD11C,0.120000*%
G04 APERTURE END LIST*
D10*
X182173333Y-125357380D02*
X182173333Y-126071666D01*
X182220952Y-126214523D01*
X182316190Y-126309761D01*
X182459047Y-126357380D01*
X182554285Y-126357380D01*
X181268571Y-126357380D02*
X181268571Y-125833571D01*
X181316190Y-125738333D01*
X181411428Y-125690714D01*
X181601904Y-125690714D01*
X181697142Y-125738333D01*
X181268571Y-126309761D02*
X181363809Y-126357380D01*
X181601904Y-126357380D01*
X181697142Y-126309761D01*
X181744761Y-126214523D01*
X181744761Y-126119285D01*
X181697142Y-126024047D01*
X181601904Y-125976428D01*
X181363809Y-125976428D01*
X181268571Y-125928809D01*
X180220952Y-126262142D02*
X180268571Y-126309761D01*
X180411428Y-126357380D01*
X180506666Y-126357380D01*
X180649523Y-126309761D01*
X180744761Y-126214523D01*
X180792380Y-126119285D01*
X180840000Y-125928809D01*
X180840000Y-125785952D01*
X180792380Y-125595476D01*
X180744761Y-125500238D01*
X180649523Y-125405000D01*
X180506666Y-125357380D01*
X180411428Y-125357380D01*
X180268571Y-125405000D01*
X180220952Y-125452619D01*
X179601904Y-125357380D02*
X179411428Y-125357380D01*
X179316190Y-125405000D01*
X179220952Y-125500238D01*
X179173333Y-125690714D01*
X179173333Y-126024047D01*
X179220952Y-126214523D01*
X179316190Y-126309761D01*
X179411428Y-126357380D01*
X179601904Y-126357380D01*
X179697142Y-126309761D01*
X179792380Y-126214523D01*
X179840000Y-126024047D01*
X179840000Y-125690714D01*
X179792380Y-125500238D01*
X179697142Y-125405000D01*
X179601904Y-125357380D01*
X178744761Y-126262142D02*
X178697142Y-126309761D01*
X178744761Y-126357380D01*
X178792380Y-126309761D01*
X178744761Y-126262142D01*
X178744761Y-126357380D01*
X177840000Y-126357380D02*
X177840000Y-125357380D01*
X177840000Y-126309761D02*
X177935238Y-126357380D01*
X178125714Y-126357380D01*
X178220952Y-126309761D01*
X178268571Y-126262142D01*
X178316190Y-126166904D01*
X178316190Y-125881190D01*
X178268571Y-125785952D01*
X178220952Y-125738333D01*
X178125714Y-125690714D01*
X177935238Y-125690714D01*
X177840000Y-125738333D01*
X176982857Y-126309761D02*
X177078095Y-126357380D01*
X177268571Y-126357380D01*
X177363809Y-126309761D01*
X177411428Y-126214523D01*
X177411428Y-125833571D01*
X177363809Y-125738333D01*
X177268571Y-125690714D01*
X177078095Y-125690714D01*
X176982857Y-125738333D01*
X176935238Y-125833571D01*
X176935238Y-125928809D01*
X177411428Y-126024047D01*
X176601904Y-125690714D02*
X176363809Y-126357380D01*
X176125714Y-125690714D01*
X181054285Y-127102619D02*
X181006666Y-127055000D01*
X180911428Y-127007380D01*
X180673333Y-127007380D01*
X180578095Y-127055000D01*
X180530476Y-127102619D01*
X180482857Y-127197857D01*
X180482857Y-127293095D01*
X180530476Y-127435952D01*
X181101904Y-128007380D01*
X180482857Y-128007380D01*
X179863809Y-127007380D02*
X179768571Y-127007380D01*
X179673333Y-127055000D01*
X179625714Y-127102619D01*
X179578095Y-127197857D01*
X179530476Y-127388333D01*
X179530476Y-127626428D01*
X179578095Y-127816904D01*
X179625714Y-127912142D01*
X179673333Y-127959761D01*
X179768571Y-128007380D01*
X179863809Y-128007380D01*
X179959047Y-127959761D01*
X180006666Y-127912142D01*
X180054285Y-127816904D01*
X180101904Y-127626428D01*
X180101904Y-127388333D01*
X180054285Y-127197857D01*
X180006666Y-127102619D01*
X179959047Y-127055000D01*
X179863809Y-127007380D01*
X179149523Y-127102619D02*
X179101904Y-127055000D01*
X179006666Y-127007380D01*
X178768571Y-127007380D01*
X178673333Y-127055000D01*
X178625714Y-127102619D01*
X178578095Y-127197857D01*
X178578095Y-127293095D01*
X178625714Y-127435952D01*
X179197142Y-128007380D01*
X178578095Y-128007380D01*
X177959047Y-127007380D02*
X177863809Y-127007380D01*
X177768571Y-127055000D01*
X177720952Y-127102619D01*
X177673333Y-127197857D01*
X177625714Y-127388333D01*
X177625714Y-127626428D01*
X177673333Y-127816904D01*
X177720952Y-127912142D01*
X177768571Y-127959761D01*
X177863809Y-128007380D01*
X177959047Y-128007380D01*
X178054285Y-127959761D01*
X178101904Y-127912142D01*
X178149523Y-127816904D01*
X178197142Y-127626428D01*
X178197142Y-127388333D01*
X178149523Y-127197857D01*
X178101904Y-127102619D01*
X178054285Y-127055000D01*
X177959047Y-127007380D01*
X147193333Y-125197380D02*
X147193333Y-125911666D01*
X147240952Y-126054523D01*
X147336190Y-126149761D01*
X147479047Y-126197380D01*
X147574285Y-126197380D01*
X146288571Y-126197380D02*
X146288571Y-125673571D01*
X146336190Y-125578333D01*
X146431428Y-125530714D01*
X146621904Y-125530714D01*
X146717142Y-125578333D01*
X146288571Y-126149761D02*
X146383809Y-126197380D01*
X146621904Y-126197380D01*
X146717142Y-126149761D01*
X146764761Y-126054523D01*
X146764761Y-125959285D01*
X146717142Y-125864047D01*
X146621904Y-125816428D01*
X146383809Y-125816428D01*
X146288571Y-125768809D01*
X145240952Y-126102142D02*
X145288571Y-126149761D01*
X145431428Y-126197380D01*
X145526666Y-126197380D01*
X145669523Y-126149761D01*
X145764761Y-126054523D01*
X145812380Y-125959285D01*
X145860000Y-125768809D01*
X145860000Y-125625952D01*
X145812380Y-125435476D01*
X145764761Y-125340238D01*
X145669523Y-125245000D01*
X145526666Y-125197380D01*
X145431428Y-125197380D01*
X145288571Y-125245000D01*
X145240952Y-125292619D01*
X144621904Y-125197380D02*
X144431428Y-125197380D01*
X144336190Y-125245000D01*
X144240952Y-125340238D01*
X144193333Y-125530714D01*
X144193333Y-125864047D01*
X144240952Y-126054523D01*
X144336190Y-126149761D01*
X144431428Y-126197380D01*
X144621904Y-126197380D01*
X144717142Y-126149761D01*
X144812380Y-126054523D01*
X144860000Y-125864047D01*
X144860000Y-125530714D01*
X144812380Y-125340238D01*
X144717142Y-125245000D01*
X144621904Y-125197380D01*
X143764761Y-126102142D02*
X143717142Y-126149761D01*
X143764761Y-126197380D01*
X143812380Y-126149761D01*
X143764761Y-126102142D01*
X143764761Y-126197380D01*
X142860000Y-126197380D02*
X142860000Y-125197380D01*
X142860000Y-126149761D02*
X142955238Y-126197380D01*
X143145714Y-126197380D01*
X143240952Y-126149761D01*
X143288571Y-126102142D01*
X143336190Y-126006904D01*
X143336190Y-125721190D01*
X143288571Y-125625952D01*
X143240952Y-125578333D01*
X143145714Y-125530714D01*
X142955238Y-125530714D01*
X142860000Y-125578333D01*
X142002857Y-126149761D02*
X142098095Y-126197380D01*
X142288571Y-126197380D01*
X142383809Y-126149761D01*
X142431428Y-126054523D01*
X142431428Y-125673571D01*
X142383809Y-125578333D01*
X142288571Y-125530714D01*
X142098095Y-125530714D01*
X142002857Y-125578333D01*
X141955238Y-125673571D01*
X141955238Y-125768809D01*
X142431428Y-125864047D01*
X141621904Y-125530714D02*
X141383809Y-126197380D01*
X141145714Y-125530714D01*
X146074285Y-126942619D02*
X146026666Y-126895000D01*
X145931428Y-126847380D01*
X145693333Y-126847380D01*
X145598095Y-126895000D01*
X145550476Y-126942619D01*
X145502857Y-127037857D01*
X145502857Y-127133095D01*
X145550476Y-127275952D01*
X146121904Y-127847380D01*
X145502857Y-127847380D01*
X144883809Y-126847380D02*
X144788571Y-126847380D01*
X144693333Y-126895000D01*
X144645714Y-126942619D01*
X144598095Y-127037857D01*
X144550476Y-127228333D01*
X144550476Y-127466428D01*
X144598095Y-127656904D01*
X144645714Y-127752142D01*
X144693333Y-127799761D01*
X144788571Y-127847380D01*
X144883809Y-127847380D01*
X144979047Y-127799761D01*
X145026666Y-127752142D01*
X145074285Y-127656904D01*
X145121904Y-127466428D01*
X145121904Y-127228333D01*
X145074285Y-127037857D01*
X145026666Y-126942619D01*
X144979047Y-126895000D01*
X144883809Y-126847380D01*
X144169523Y-126942619D02*
X144121904Y-126895000D01*
X144026666Y-126847380D01*
X143788571Y-126847380D01*
X143693333Y-126895000D01*
X143645714Y-126942619D01*
X143598095Y-127037857D01*
X143598095Y-127133095D01*
X143645714Y-127275952D01*
X144217142Y-127847380D01*
X143598095Y-127847380D01*
X142979047Y-126847380D02*
X142883809Y-126847380D01*
X142788571Y-126895000D01*
X142740952Y-126942619D01*
X142693333Y-127037857D01*
X142645714Y-127228333D01*
X142645714Y-127466428D01*
X142693333Y-127656904D01*
X142740952Y-127752142D01*
X142788571Y-127799761D01*
X142883809Y-127847380D01*
X142979047Y-127847380D01*
X143074285Y-127799761D01*
X143121904Y-127752142D01*
X143169523Y-127656904D01*
X143217142Y-127466428D01*
X143217142Y-127228333D01*
X143169523Y-127037857D01*
X143121904Y-126942619D01*
X143074285Y-126895000D01*
X142979047Y-126847380D01*
D11*
X197870000Y-55535279D02*
X197870000Y-55209721D01*
X196850000Y-55535279D02*
X196850000Y-55209721D01*
X198450000Y-67600000D02*
X198450000Y-62400000D01*
X180550000Y-67600000D02*
X180550000Y-62400000D01*
X197880000Y-69040000D02*
X197880000Y-67600000D01*
X198450000Y-67600000D02*
X197880000Y-67600000D01*
X198450000Y-62400000D02*
X197880000Y-62400000D01*
X181120000Y-67600000D02*
X180550000Y-67600000D01*
X181120000Y-62400000D02*
X180550000Y-62400000D01*
X196360000Y-67600000D02*
X195340000Y-67600000D01*
X196360000Y-62400000D02*
X195340000Y-62400000D01*
X193820000Y-67600000D02*
X192800000Y-67600000D01*
X193820000Y-62400000D02*
X192800000Y-62400000D01*
X191280000Y-67600000D02*
X190260000Y-67600000D01*
X191280000Y-62400000D02*
X190260000Y-62400000D01*
X188740000Y-67600000D02*
X187720000Y-67600000D01*
X188740000Y-62400000D02*
X187720000Y-62400000D01*
X186200000Y-67600000D02*
X185180000Y-67600000D01*
X186200000Y-62400000D02*
X185180000Y-62400000D01*
X183660000Y-67600000D02*
X182640000Y-67600000D01*
X183660000Y-62400000D02*
X182640000Y-62400000D01*
X194650000Y-47100000D02*
X194650000Y-41900000D01*
X184370000Y-47100000D02*
X184370000Y-41900000D01*
X194080000Y-48540000D02*
X194080000Y-47100000D01*
X194650000Y-47100000D02*
X194080000Y-47100000D01*
X194650000Y-41900000D02*
X194080000Y-41900000D01*
X184940000Y-47100000D02*
X184370000Y-47100000D01*
X184940000Y-41900000D02*
X184370000Y-41900000D01*
X192560000Y-47100000D02*
X191540000Y-47100000D01*
X192560000Y-41900000D02*
X191540000Y-41900000D01*
X190020000Y-47100000D02*
X189000000Y-47100000D01*
X190020000Y-41900000D02*
X189000000Y-41900000D01*
X187480000Y-47100000D02*
X186460000Y-47100000D01*
X187480000Y-41900000D02*
X186460000Y-41900000D01*
X198450000Y-103100000D02*
X198450000Y-97900000D01*
X180550000Y-103100000D02*
X180550000Y-97900000D01*
X197880000Y-104540000D02*
X197880000Y-103100000D01*
X198450000Y-103100000D02*
X197880000Y-103100000D01*
X198450000Y-97900000D02*
X197880000Y-97900000D01*
X181120000Y-103100000D02*
X180550000Y-103100000D01*
X181120000Y-97900000D02*
X180550000Y-97900000D01*
X196360000Y-103100000D02*
X195340000Y-103100000D01*
X196360000Y-97900000D02*
X195340000Y-97900000D01*
X193820000Y-103100000D02*
X192800000Y-103100000D01*
X193820000Y-97900000D02*
X192800000Y-97900000D01*
X191280000Y-103100000D02*
X190260000Y-103100000D01*
X191280000Y-97900000D02*
X190260000Y-97900000D01*
X188740000Y-103100000D02*
X187720000Y-103100000D01*
X188740000Y-97900000D02*
X187720000Y-97900000D01*
X186200000Y-103100000D02*
X185180000Y-103100000D01*
X186200000Y-97900000D02*
X185180000Y-97900000D01*
X183660000Y-103100000D02*
X182640000Y-103100000D01*
X183660000Y-97900000D02*
X182640000Y-97900000D01*
X181990000Y-88527221D02*
X181990000Y-88852779D01*
X180970000Y-88527221D02*
X180970000Y-88852779D01*
X190997221Y-87250000D02*
X191322779Y-87250000D01*
X190997221Y-88270000D02*
X191322779Y-88270000D01*
X197137221Y-93550000D02*
X197462779Y-93550000D01*
X197137221Y-92530000D02*
X197462779Y-92530000D01*
X191212779Y-92590000D02*
X190887221Y-92590000D01*
X191212779Y-93610000D02*
X190887221Y-93610000D01*
X188180279Y-87260000D02*
X187854721Y-87260000D01*
X188180279Y-88280000D02*
X187854721Y-88280000D01*
D10*
X186575000Y-92055000D02*
X186575000Y-91955000D01*
X191225000Y-92055000D02*
X191225000Y-91855000D01*
X191225000Y-88805000D02*
X191225000Y-89005000D01*
X186575000Y-88805000D02*
X186575000Y-89005000D01*
X186575000Y-92055000D02*
X191225000Y-92055000D01*
X186575000Y-88805000D02*
X191225000Y-88805000D01*
X186575000Y-91955000D02*
X185225000Y-91955000D01*
D11*
X194650000Y-82600000D02*
X194650000Y-77400000D01*
X184370000Y-82600000D02*
X184370000Y-77400000D01*
X194080000Y-84040000D02*
X194080000Y-82600000D01*
X194650000Y-82600000D02*
X194080000Y-82600000D01*
X194650000Y-77400000D02*
X194080000Y-77400000D01*
X184940000Y-82600000D02*
X184370000Y-82600000D01*
X184940000Y-77400000D02*
X184370000Y-77400000D01*
X192560000Y-82600000D02*
X191540000Y-82600000D01*
X192560000Y-77400000D02*
X191540000Y-77400000D01*
X190020000Y-82600000D02*
X189000000Y-82600000D01*
X190020000Y-77400000D02*
X189000000Y-77400000D01*
X187480000Y-82600000D02*
X186460000Y-82600000D01*
X187480000Y-77400000D02*
X186460000Y-77400000D01*
X219660000Y-62400000D02*
X218640000Y-62400000D01*
X219660000Y-67600000D02*
X218640000Y-67600000D01*
X222200000Y-62400000D02*
X221180000Y-62400000D01*
X222200000Y-67600000D02*
X221180000Y-67600000D01*
X224740000Y-62400000D02*
X223720000Y-62400000D01*
X224740000Y-67600000D02*
X223720000Y-67600000D01*
X227280000Y-62400000D02*
X226260000Y-62400000D01*
X227280000Y-67600000D02*
X226260000Y-67600000D01*
X229820000Y-62400000D02*
X228800000Y-62400000D01*
X229820000Y-67600000D02*
X228800000Y-67600000D01*
X232360000Y-62400000D02*
X231340000Y-62400000D01*
X232360000Y-67600000D02*
X231340000Y-67600000D01*
X217120000Y-62400000D02*
X216550000Y-62400000D01*
X217120000Y-67600000D02*
X216550000Y-67600000D01*
X234450000Y-62400000D02*
X233880000Y-62400000D01*
X234450000Y-67600000D02*
X233880000Y-67600000D01*
X233880000Y-69040000D02*
X233880000Y-67600000D01*
X216550000Y-67600000D02*
X216550000Y-62400000D01*
X234450000Y-67600000D02*
X234450000Y-62400000D01*
X216970000Y-53027221D02*
X216970000Y-53352779D01*
X217990000Y-53027221D02*
X217990000Y-53352779D01*
X223480000Y-41900000D02*
X222460000Y-41900000D01*
X223480000Y-47100000D02*
X222460000Y-47100000D01*
X226020000Y-41900000D02*
X225000000Y-41900000D01*
X226020000Y-47100000D02*
X225000000Y-47100000D01*
X228560000Y-41900000D02*
X227540000Y-41900000D01*
X228560000Y-47100000D02*
X227540000Y-47100000D01*
X220940000Y-41900000D02*
X220370000Y-41900000D01*
X220940000Y-47100000D02*
X220370000Y-47100000D01*
X230650000Y-41900000D02*
X230080000Y-41900000D01*
X230650000Y-47100000D02*
X230080000Y-47100000D01*
X230080000Y-48540000D02*
X230080000Y-47100000D01*
X220370000Y-47100000D02*
X220370000Y-41900000D01*
X230650000Y-47100000D02*
X230650000Y-41900000D01*
D10*
X222575000Y-56455000D02*
X221225000Y-56455000D01*
X222575000Y-53305000D02*
X227225000Y-53305000D01*
X222575000Y-56555000D02*
X227225000Y-56555000D01*
X222575000Y-53305000D02*
X222575000Y-53505000D01*
X227225000Y-53305000D02*
X227225000Y-53505000D01*
X227225000Y-56555000D02*
X227225000Y-56355000D01*
X222575000Y-56555000D02*
X222575000Y-56455000D01*
D11*
X233137221Y-57030000D02*
X233462779Y-57030000D01*
X233137221Y-58050000D02*
X233462779Y-58050000D01*
X224180279Y-52780000D02*
X223854721Y-52780000D01*
X224180279Y-51760000D02*
X223854721Y-51760000D01*
X226997221Y-52770000D02*
X227322779Y-52770000D01*
X226997221Y-51750000D02*
X227322779Y-51750000D01*
X227212779Y-58110000D02*
X226887221Y-58110000D01*
X227212779Y-57090000D02*
X226887221Y-57090000D01*
X227212779Y-92590000D02*
X226887221Y-92590000D01*
X227212779Y-93610000D02*
X226887221Y-93610000D01*
X234450000Y-103100000D02*
X234450000Y-97900000D01*
X216550000Y-103100000D02*
X216550000Y-97900000D01*
X233880000Y-104540000D02*
X233880000Y-103100000D01*
X234450000Y-103100000D02*
X233880000Y-103100000D01*
X234450000Y-97900000D02*
X233880000Y-97900000D01*
X217120000Y-103100000D02*
X216550000Y-103100000D01*
X217120000Y-97900000D02*
X216550000Y-97900000D01*
X232360000Y-103100000D02*
X231340000Y-103100000D01*
X232360000Y-97900000D02*
X231340000Y-97900000D01*
X229820000Y-103100000D02*
X228800000Y-103100000D01*
X229820000Y-97900000D02*
X228800000Y-97900000D01*
X227280000Y-103100000D02*
X226260000Y-103100000D01*
X227280000Y-97900000D02*
X226260000Y-97900000D01*
X224740000Y-103100000D02*
X223720000Y-103100000D01*
X224740000Y-97900000D02*
X223720000Y-97900000D01*
X222200000Y-103100000D02*
X221180000Y-103100000D01*
X222200000Y-97900000D02*
X221180000Y-97900000D01*
X219660000Y-103100000D02*
X218640000Y-103100000D01*
X219660000Y-97900000D02*
X218640000Y-97900000D01*
X217990000Y-88527221D02*
X217990000Y-88852779D01*
X216970000Y-88527221D02*
X216970000Y-88852779D01*
X230650000Y-82600000D02*
X230650000Y-77400000D01*
X220370000Y-82600000D02*
X220370000Y-77400000D01*
X230080000Y-84040000D02*
X230080000Y-82600000D01*
X230650000Y-82600000D02*
X230080000Y-82600000D01*
X230650000Y-77400000D02*
X230080000Y-77400000D01*
X220940000Y-82600000D02*
X220370000Y-82600000D01*
X220940000Y-77400000D02*
X220370000Y-77400000D01*
X228560000Y-82600000D02*
X227540000Y-82600000D01*
X228560000Y-77400000D02*
X227540000Y-77400000D01*
X226020000Y-82600000D02*
X225000000Y-82600000D01*
X226020000Y-77400000D02*
X225000000Y-77400000D01*
X223480000Y-82600000D02*
X222460000Y-82600000D01*
X223480000Y-77400000D02*
X222460000Y-77400000D01*
D10*
X222575000Y-92055000D02*
X222575000Y-91955000D01*
X227225000Y-92055000D02*
X227225000Y-91855000D01*
X227225000Y-88805000D02*
X227225000Y-89005000D01*
X222575000Y-88805000D02*
X222575000Y-89005000D01*
X222575000Y-92055000D02*
X227225000Y-92055000D01*
X222575000Y-88805000D02*
X227225000Y-88805000D01*
X222575000Y-91955000D02*
X221225000Y-91955000D01*
D11*
X233137221Y-93550000D02*
X233462779Y-93550000D01*
X233137221Y-92530000D02*
X233462779Y-92530000D01*
X224180279Y-87260000D02*
X223854721Y-87260000D01*
X224180279Y-88280000D02*
X223854721Y-88280000D01*
X226997221Y-87250000D02*
X227322779Y-87250000D01*
X226997221Y-88270000D02*
X227322779Y-88270000D01*
X183714721Y-123700000D02*
X184040279Y-123700000D01*
X183714721Y-122680000D02*
X184040279Y-122680000D01*
X187470000Y-112410000D02*
X186450000Y-112410000D01*
X187470000Y-117610000D02*
X186450000Y-117610000D01*
X190010000Y-112410000D02*
X188990000Y-112410000D01*
X190010000Y-117610000D02*
X188990000Y-117610000D01*
X192550000Y-112410000D02*
X191530000Y-112410000D01*
X192550000Y-117610000D02*
X191530000Y-117610000D01*
X184930000Y-112410000D02*
X184360000Y-112410000D01*
X184930000Y-117610000D02*
X184360000Y-117610000D01*
X194640000Y-112410000D02*
X194070000Y-112410000D01*
X194640000Y-117610000D02*
X194070000Y-117610000D01*
X194070000Y-119050000D02*
X194070000Y-117610000D01*
X184360000Y-117610000D02*
X184360000Y-112410000D01*
X194640000Y-117610000D02*
X194640000Y-112410000D01*
X193990000Y-127037221D02*
X193990000Y-127362779D01*
X195010000Y-127037221D02*
X195010000Y-127362779D01*
D10*
X186545000Y-128915000D02*
X185195000Y-128915000D01*
X186545000Y-125765000D02*
X191195000Y-125765000D01*
X186545000Y-129015000D02*
X191195000Y-129015000D01*
X186545000Y-125765000D02*
X186545000Y-125965000D01*
X191195000Y-125765000D02*
X191195000Y-125965000D01*
X191195000Y-129015000D02*
X191195000Y-128815000D01*
X186545000Y-129015000D02*
X186545000Y-128915000D01*
D11*
X192162779Y-125290000D02*
X191837221Y-125290000D01*
X192162779Y-124270000D02*
X191837221Y-124270000D01*
X187522779Y-123670000D02*
X187197221Y-123670000D01*
X187522779Y-122650000D02*
X187197221Y-122650000D01*
X183650000Y-132910000D02*
X182630000Y-132910000D01*
X183650000Y-138110000D02*
X182630000Y-138110000D01*
X186190000Y-132910000D02*
X185170000Y-132910000D01*
X186190000Y-138110000D02*
X185170000Y-138110000D01*
X188730000Y-132910000D02*
X187710000Y-132910000D01*
X188730000Y-138110000D02*
X187710000Y-138110000D01*
X191270000Y-132910000D02*
X190250000Y-132910000D01*
X191270000Y-138110000D02*
X190250000Y-138110000D01*
X193810000Y-132910000D02*
X192790000Y-132910000D01*
X193810000Y-138110000D02*
X192790000Y-138110000D01*
X196350000Y-132910000D02*
X195330000Y-132910000D01*
X196350000Y-138110000D02*
X195330000Y-138110000D01*
X181110000Y-132910000D02*
X180540000Y-132910000D01*
X181110000Y-138110000D02*
X180540000Y-138110000D01*
X198440000Y-132910000D02*
X197870000Y-132910000D01*
X198440000Y-138110000D02*
X197870000Y-138110000D01*
X197870000Y-139550000D02*
X197870000Y-138110000D01*
X180540000Y-138110000D02*
X180540000Y-132910000D01*
X198440000Y-138110000D02*
X198440000Y-132910000D01*
X191452779Y-130510000D02*
X191127221Y-130510000D01*
X191452779Y-129490000D02*
X191127221Y-129490000D01*
X187502779Y-125260000D02*
X187177221Y-125260000D01*
X187502779Y-124240000D02*
X187177221Y-124240000D01*
X161850000Y-55535279D02*
X161850000Y-55209721D01*
X162870000Y-55535279D02*
X162870000Y-55209721D01*
X148660000Y-62400000D02*
X147640000Y-62400000D01*
X148660000Y-67600000D02*
X147640000Y-67600000D01*
X151200000Y-62400000D02*
X150180000Y-62400000D01*
X151200000Y-67600000D02*
X150180000Y-67600000D01*
X153740000Y-62400000D02*
X152720000Y-62400000D01*
X153740000Y-67600000D02*
X152720000Y-67600000D01*
X156280000Y-62400000D02*
X155260000Y-62400000D01*
X156280000Y-67600000D02*
X155260000Y-67600000D01*
X158820000Y-62400000D02*
X157800000Y-62400000D01*
X158820000Y-67600000D02*
X157800000Y-67600000D01*
X161360000Y-62400000D02*
X160340000Y-62400000D01*
X161360000Y-67600000D02*
X160340000Y-67600000D01*
X146120000Y-62400000D02*
X145550000Y-62400000D01*
X146120000Y-67600000D02*
X145550000Y-67600000D01*
X163450000Y-62400000D02*
X162880000Y-62400000D01*
X163450000Y-67600000D02*
X162880000Y-67600000D01*
X162880000Y-69040000D02*
X162880000Y-67600000D01*
X145550000Y-67600000D02*
X145550000Y-62400000D01*
X163450000Y-67600000D02*
X163450000Y-62400000D01*
X152480000Y-41900000D02*
X151460000Y-41900000D01*
X152480000Y-47100000D02*
X151460000Y-47100000D01*
X155020000Y-41900000D02*
X154000000Y-41900000D01*
X155020000Y-47100000D02*
X154000000Y-47100000D01*
X157560000Y-41900000D02*
X156540000Y-41900000D01*
X157560000Y-47100000D02*
X156540000Y-47100000D01*
X149940000Y-41900000D02*
X149370000Y-41900000D01*
X149940000Y-47100000D02*
X149370000Y-47100000D01*
X159650000Y-41900000D02*
X159080000Y-41900000D01*
X159650000Y-47100000D02*
X159080000Y-47100000D01*
X159080000Y-48540000D02*
X159080000Y-47100000D01*
X149370000Y-47100000D02*
X149370000Y-41900000D01*
X159650000Y-47100000D02*
X159650000Y-41900000D01*
X152480000Y-77400000D02*
X151460000Y-77400000D01*
X152480000Y-82600000D02*
X151460000Y-82600000D01*
X155020000Y-77400000D02*
X154000000Y-77400000D01*
X155020000Y-82600000D02*
X154000000Y-82600000D01*
X157560000Y-77400000D02*
X156540000Y-77400000D01*
X157560000Y-82600000D02*
X156540000Y-82600000D01*
X149940000Y-77400000D02*
X149370000Y-77400000D01*
X149940000Y-82600000D02*
X149370000Y-82600000D01*
X159650000Y-77400000D02*
X159080000Y-77400000D01*
X159650000Y-82600000D02*
X159080000Y-82600000D01*
X159080000Y-84040000D02*
X159080000Y-82600000D01*
X149370000Y-82600000D02*
X149370000Y-77400000D01*
X159650000Y-82600000D02*
X159650000Y-77400000D01*
X156212779Y-93610000D02*
X155887221Y-93610000D01*
X156212779Y-92590000D02*
X155887221Y-92590000D01*
D10*
X151575000Y-91955000D02*
X150225000Y-91955000D01*
X151575000Y-88805000D02*
X156225000Y-88805000D01*
X151575000Y-92055000D02*
X156225000Y-92055000D01*
X151575000Y-88805000D02*
X151575000Y-89005000D01*
X156225000Y-88805000D02*
X156225000Y-89005000D01*
X156225000Y-92055000D02*
X156225000Y-91855000D01*
X151575000Y-92055000D02*
X151575000Y-91955000D01*
D11*
X145970000Y-88527221D02*
X145970000Y-88852779D01*
X146990000Y-88527221D02*
X146990000Y-88852779D01*
X153180279Y-88280000D02*
X152854721Y-88280000D01*
X153180279Y-87260000D02*
X152854721Y-87260000D01*
X155997221Y-88270000D02*
X156322779Y-88270000D01*
X155997221Y-87250000D02*
X156322779Y-87250000D01*
X162137221Y-92530000D02*
X162462779Y-92530000D01*
X162137221Y-93550000D02*
X162462779Y-93550000D01*
X148660000Y-97900000D02*
X147640000Y-97900000D01*
X148660000Y-103100000D02*
X147640000Y-103100000D01*
X151200000Y-97900000D02*
X150180000Y-97900000D01*
X151200000Y-103100000D02*
X150180000Y-103100000D01*
X153740000Y-97900000D02*
X152720000Y-97900000D01*
X153740000Y-103100000D02*
X152720000Y-103100000D01*
X156280000Y-97900000D02*
X155260000Y-97900000D01*
X156280000Y-103100000D02*
X155260000Y-103100000D01*
X158820000Y-97900000D02*
X157800000Y-97900000D01*
X158820000Y-103100000D02*
X157800000Y-103100000D01*
X161360000Y-97900000D02*
X160340000Y-97900000D01*
X161360000Y-103100000D02*
X160340000Y-103100000D01*
X146120000Y-97900000D02*
X145550000Y-97900000D01*
X146120000Y-103100000D02*
X145550000Y-103100000D01*
X163450000Y-97900000D02*
X162880000Y-97900000D01*
X163450000Y-103100000D02*
X162880000Y-103100000D01*
X162880000Y-104540000D02*
X162880000Y-103100000D01*
X145550000Y-103100000D02*
X145550000Y-97900000D01*
X163450000Y-103100000D02*
X163450000Y-97900000D01*
X226997221Y-123270000D02*
X227322779Y-123270000D01*
X226997221Y-122250000D02*
X227322779Y-122250000D01*
X233137221Y-127530000D02*
X233462779Y-127530000D01*
X233137221Y-128550000D02*
X233462779Y-128550000D01*
X223480000Y-112400000D02*
X222460000Y-112400000D01*
X223480000Y-117600000D02*
X222460000Y-117600000D01*
X226020000Y-112400000D02*
X225000000Y-112400000D01*
X226020000Y-117600000D02*
X225000000Y-117600000D01*
X228560000Y-112400000D02*
X227540000Y-112400000D01*
X228560000Y-117600000D02*
X227540000Y-117600000D01*
X220940000Y-112400000D02*
X220370000Y-112400000D01*
X220940000Y-117600000D02*
X220370000Y-117600000D01*
X230650000Y-112400000D02*
X230080000Y-112400000D01*
X230650000Y-117600000D02*
X230080000Y-117600000D01*
X230080000Y-119040000D02*
X230080000Y-117600000D01*
X220370000Y-117600000D02*
X220370000Y-112400000D01*
X230650000Y-117600000D02*
X230650000Y-112400000D01*
X227212779Y-128610000D02*
X226887221Y-128610000D01*
X227212779Y-127590000D02*
X226887221Y-127590000D01*
X216970000Y-123527221D02*
X216970000Y-123852779D01*
X217990000Y-123527221D02*
X217990000Y-123852779D01*
D10*
X222575000Y-126955000D02*
X221225000Y-126955000D01*
X222575000Y-123805000D02*
X227225000Y-123805000D01*
X222575000Y-127055000D02*
X227225000Y-127055000D01*
X222575000Y-123805000D02*
X222575000Y-124005000D01*
X227225000Y-123805000D02*
X227225000Y-124005000D01*
X227225000Y-127055000D02*
X227225000Y-126855000D01*
X222575000Y-127055000D02*
X222575000Y-126955000D01*
D11*
X219660000Y-132900000D02*
X218640000Y-132900000D01*
X219660000Y-138100000D02*
X218640000Y-138100000D01*
X222200000Y-132900000D02*
X221180000Y-132900000D01*
X222200000Y-138100000D02*
X221180000Y-138100000D01*
X224740000Y-132900000D02*
X223720000Y-132900000D01*
X224740000Y-138100000D02*
X223720000Y-138100000D01*
X227280000Y-132900000D02*
X226260000Y-132900000D01*
X227280000Y-138100000D02*
X226260000Y-138100000D01*
X229820000Y-132900000D02*
X228800000Y-132900000D01*
X229820000Y-138100000D02*
X228800000Y-138100000D01*
X232360000Y-132900000D02*
X231340000Y-132900000D01*
X232360000Y-138100000D02*
X231340000Y-138100000D01*
X217120000Y-132900000D02*
X216550000Y-132900000D01*
X217120000Y-138100000D02*
X216550000Y-138100000D01*
X234450000Y-132900000D02*
X233880000Y-132900000D01*
X234450000Y-138100000D02*
X233880000Y-138100000D01*
X233880000Y-139540000D02*
X233880000Y-138100000D01*
X216550000Y-138100000D02*
X216550000Y-132900000D01*
X234450000Y-138100000D02*
X234450000Y-132900000D01*
X224180279Y-123280000D02*
X223854721Y-123280000D01*
X224180279Y-122260000D02*
X223854721Y-122260000D01*
X160010000Y-127037221D02*
X160010000Y-127362779D01*
X158990000Y-127037221D02*
X158990000Y-127362779D01*
X152502779Y-124240000D02*
X152177221Y-124240000D01*
X152502779Y-125260000D02*
X152177221Y-125260000D01*
X152522779Y-122650000D02*
X152197221Y-122650000D01*
X152522779Y-123670000D02*
X152197221Y-123670000D01*
X148714721Y-122680000D02*
X149040279Y-122680000D01*
X148714721Y-123700000D02*
X149040279Y-123700000D01*
X157162779Y-124270000D02*
X156837221Y-124270000D01*
X157162779Y-125290000D02*
X156837221Y-125290000D01*
X163440000Y-138110000D02*
X163440000Y-132910000D01*
X145540000Y-138110000D02*
X145540000Y-132910000D01*
X162870000Y-139550000D02*
X162870000Y-138110000D01*
X163440000Y-138110000D02*
X162870000Y-138110000D01*
X163440000Y-132910000D02*
X162870000Y-132910000D01*
X146110000Y-138110000D02*
X145540000Y-138110000D01*
X146110000Y-132910000D02*
X145540000Y-132910000D01*
X161350000Y-138110000D02*
X160330000Y-138110000D01*
X161350000Y-132910000D02*
X160330000Y-132910000D01*
X158810000Y-138110000D02*
X157790000Y-138110000D01*
X158810000Y-132910000D02*
X157790000Y-132910000D01*
X156270000Y-138110000D02*
X155250000Y-138110000D01*
X156270000Y-132910000D02*
X155250000Y-132910000D01*
X153730000Y-138110000D02*
X152710000Y-138110000D01*
X153730000Y-132910000D02*
X152710000Y-132910000D01*
X151190000Y-138110000D02*
X150170000Y-138110000D01*
X151190000Y-132910000D02*
X150170000Y-132910000D01*
X148650000Y-138110000D02*
X147630000Y-138110000D01*
X148650000Y-132910000D02*
X147630000Y-132910000D01*
X159640000Y-117610000D02*
X159640000Y-112410000D01*
X149360000Y-117610000D02*
X149360000Y-112410000D01*
X159070000Y-119050000D02*
X159070000Y-117610000D01*
X159640000Y-117610000D02*
X159070000Y-117610000D01*
X159640000Y-112410000D02*
X159070000Y-112410000D01*
X149930000Y-117610000D02*
X149360000Y-117610000D01*
X149930000Y-112410000D02*
X149360000Y-112410000D01*
X157550000Y-117610000D02*
X156530000Y-117610000D01*
X157550000Y-112410000D02*
X156530000Y-112410000D01*
X155010000Y-117610000D02*
X153990000Y-117610000D01*
X155010000Y-112410000D02*
X153990000Y-112410000D01*
X152470000Y-117610000D02*
X151450000Y-117610000D01*
X152470000Y-112410000D02*
X151450000Y-112410000D01*
X156452779Y-129490000D02*
X156127221Y-129490000D01*
X156452779Y-130510000D02*
X156127221Y-130510000D01*
D10*
X151545000Y-129015000D02*
X151545000Y-128915000D01*
X156195000Y-129015000D02*
X156195000Y-128815000D01*
X156195000Y-125765000D02*
X156195000Y-125965000D01*
X151545000Y-125765000D02*
X151545000Y-125965000D01*
X151545000Y-129015000D02*
X156195000Y-129015000D01*
X151545000Y-125765000D02*
X156195000Y-125765000D01*
X151545000Y-128915000D02*
X150195000Y-128915000D01*
X199147142Y-55205833D02*
X199194761Y-55158214D01*
X199242380Y-55015357D01*
X199242380Y-54920119D01*
X199194761Y-54777261D01*
X199099523Y-54682023D01*
X199004285Y-54634404D01*
X198813809Y-54586785D01*
X198670952Y-54586785D01*
X198480476Y-54634404D01*
X198385238Y-54682023D01*
X198290000Y-54777261D01*
X198242380Y-54920119D01*
X198242380Y-55015357D01*
X198290000Y-55158214D01*
X198337619Y-55205833D01*
X199242380Y-56158214D02*
X199242380Y-55586785D01*
X199242380Y-55872500D02*
X198242380Y-55872500D01*
X198385238Y-55777261D01*
X198480476Y-55682023D01*
X198528095Y-55586785D01*
X198902380Y-64666666D02*
X199616666Y-64666666D01*
X199759523Y-64619047D01*
X199854761Y-64523809D01*
X199902380Y-64380952D01*
X199902380Y-64285714D01*
X198997619Y-65095238D02*
X198950000Y-65142857D01*
X198902380Y-65238095D01*
X198902380Y-65476190D01*
X198950000Y-65571428D01*
X198997619Y-65619047D01*
X199092857Y-65666666D01*
X199188095Y-65666666D01*
X199330952Y-65619047D01*
X199902380Y-65047619D01*
X199902380Y-65666666D01*
X195102380Y-44166666D02*
X195816666Y-44166666D01*
X195959523Y-44119047D01*
X196054761Y-44023809D01*
X196102380Y-43880952D01*
X196102380Y-43785714D01*
X196102380Y-45166666D02*
X196102380Y-44595238D01*
X196102380Y-44880952D02*
X195102380Y-44880952D01*
X195245238Y-44785714D01*
X195340476Y-44690476D01*
X195388095Y-44595238D01*
X198902380Y-100166666D02*
X199616666Y-100166666D01*
X199759523Y-100119047D01*
X199854761Y-100023809D01*
X199902380Y-99880952D01*
X199902380Y-99785714D01*
X198997619Y-100595238D02*
X198950000Y-100642857D01*
X198902380Y-100738095D01*
X198902380Y-100976190D01*
X198950000Y-101071428D01*
X198997619Y-101119047D01*
X199092857Y-101166666D01*
X199188095Y-101166666D01*
X199330952Y-101119047D01*
X199902380Y-100547619D01*
X199902380Y-101166666D01*
X180417142Y-88483333D02*
X180464761Y-88435714D01*
X180512380Y-88292857D01*
X180512380Y-88197619D01*
X180464761Y-88054761D01*
X180369523Y-87959523D01*
X180274285Y-87911904D01*
X180083809Y-87864285D01*
X179940952Y-87864285D01*
X179750476Y-87911904D01*
X179655238Y-87959523D01*
X179560000Y-88054761D01*
X179512380Y-88197619D01*
X179512380Y-88292857D01*
X179560000Y-88435714D01*
X179607619Y-88483333D01*
X179607619Y-88864285D02*
X179560000Y-88911904D01*
X179512380Y-89007142D01*
X179512380Y-89245238D01*
X179560000Y-89340476D01*
X179607619Y-89388095D01*
X179702857Y-89435714D01*
X179798095Y-89435714D01*
X179940952Y-89388095D01*
X180512380Y-88816666D01*
X180512380Y-89435714D01*
X191226666Y-86902380D02*
X191560000Y-86426190D01*
X191798095Y-86902380D02*
X191798095Y-85902380D01*
X191417142Y-85902380D01*
X191321904Y-85950000D01*
X191274285Y-85997619D01*
X191226666Y-86092857D01*
X191226666Y-86235714D01*
X191274285Y-86330952D01*
X191321904Y-86378571D01*
X191417142Y-86426190D01*
X191798095Y-86426190D01*
X190845714Y-85997619D02*
X190798095Y-85950000D01*
X190702857Y-85902380D01*
X190464761Y-85902380D01*
X190369523Y-85950000D01*
X190321904Y-85997619D01*
X190274285Y-86092857D01*
X190274285Y-86188095D01*
X190321904Y-86330952D01*
X190893333Y-86902380D01*
X190274285Y-86902380D01*
X197476666Y-94897142D02*
X197524285Y-94944761D01*
X197667142Y-94992380D01*
X197762380Y-94992380D01*
X197905238Y-94944761D01*
X198000476Y-94849523D01*
X198048095Y-94754285D01*
X198095714Y-94563809D01*
X198095714Y-94420952D01*
X198048095Y-94230476D01*
X198000476Y-94135238D01*
X197905238Y-94040000D01*
X197762380Y-93992380D01*
X197667142Y-93992380D01*
X197524285Y-94040000D01*
X197476666Y-94087619D01*
X196524285Y-94992380D02*
X197095714Y-94992380D01*
X196810000Y-94992380D02*
X196810000Y-93992380D01*
X196905238Y-94135238D01*
X197000476Y-94230476D01*
X197095714Y-94278095D01*
X191406666Y-94807142D02*
X191454285Y-94854761D01*
X191597142Y-94902380D01*
X191692380Y-94902380D01*
X191835238Y-94854761D01*
X191930476Y-94759523D01*
X191978095Y-94664285D01*
X192025714Y-94473809D01*
X192025714Y-94330952D01*
X191978095Y-94140476D01*
X191930476Y-94045238D01*
X191835238Y-93950000D01*
X191692380Y-93902380D01*
X191597142Y-93902380D01*
X191454285Y-93950000D01*
X191406666Y-93997619D01*
X191073333Y-93902380D02*
X190454285Y-93902380D01*
X190787619Y-94283333D01*
X190644761Y-94283333D01*
X190549523Y-94330952D01*
X190501904Y-94378571D01*
X190454285Y-94473809D01*
X190454285Y-94711904D01*
X190501904Y-94807142D01*
X190549523Y-94854761D01*
X190644761Y-94902380D01*
X190930476Y-94902380D01*
X191025714Y-94854761D01*
X191073333Y-94807142D01*
X188066666Y-86902380D02*
X188400000Y-86426190D01*
X188638095Y-86902380D02*
X188638095Y-85902380D01*
X188257142Y-85902380D01*
X188161904Y-85950000D01*
X188114285Y-85997619D01*
X188066666Y-86092857D01*
X188066666Y-86235714D01*
X188114285Y-86330952D01*
X188161904Y-86378571D01*
X188257142Y-86426190D01*
X188638095Y-86426190D01*
X187114285Y-86902380D02*
X187685714Y-86902380D01*
X187400000Y-86902380D02*
X187400000Y-85902380D01*
X187495238Y-86045238D01*
X187590476Y-86140476D01*
X187685714Y-86188095D01*
X187871904Y-92312380D02*
X187871904Y-93121904D01*
X187824285Y-93217142D01*
X187776666Y-93264761D01*
X187681428Y-93312380D01*
X187490952Y-93312380D01*
X187395714Y-93264761D01*
X187348095Y-93217142D01*
X187300476Y-93121904D01*
X187300476Y-92312380D01*
X186871904Y-92407619D02*
X186824285Y-92360000D01*
X186729047Y-92312380D01*
X186490952Y-92312380D01*
X186395714Y-92360000D01*
X186348095Y-92407619D01*
X186300476Y-92502857D01*
X186300476Y-92598095D01*
X186348095Y-92740952D01*
X186919523Y-93312380D01*
X186300476Y-93312380D01*
X195102380Y-79666666D02*
X195816666Y-79666666D01*
X195959523Y-79619047D01*
X196054761Y-79523809D01*
X196102380Y-79380952D01*
X196102380Y-79285714D01*
X196102380Y-80666666D02*
X196102380Y-80095238D01*
X196102380Y-80380952D02*
X195102380Y-80380952D01*
X195245238Y-80285714D01*
X195340476Y-80190476D01*
X195388095Y-80095238D01*
X234902380Y-64666666D02*
X235616666Y-64666666D01*
X235759523Y-64619047D01*
X235854761Y-64523809D01*
X235902380Y-64380952D01*
X235902380Y-64285714D01*
X234997619Y-65095238D02*
X234950000Y-65142857D01*
X234902380Y-65238095D01*
X234902380Y-65476190D01*
X234950000Y-65571428D01*
X234997619Y-65619047D01*
X235092857Y-65666666D01*
X235188095Y-65666666D01*
X235330952Y-65619047D01*
X235902380Y-65047619D01*
X235902380Y-65666666D01*
X216417142Y-52983333D02*
X216464761Y-52935714D01*
X216512380Y-52792857D01*
X216512380Y-52697619D01*
X216464761Y-52554761D01*
X216369523Y-52459523D01*
X216274285Y-52411904D01*
X216083809Y-52364285D01*
X215940952Y-52364285D01*
X215750476Y-52411904D01*
X215655238Y-52459523D01*
X215560000Y-52554761D01*
X215512380Y-52697619D01*
X215512380Y-52792857D01*
X215560000Y-52935714D01*
X215607619Y-52983333D01*
X215607619Y-53364285D02*
X215560000Y-53411904D01*
X215512380Y-53507142D01*
X215512380Y-53745238D01*
X215560000Y-53840476D01*
X215607619Y-53888095D01*
X215702857Y-53935714D01*
X215798095Y-53935714D01*
X215940952Y-53888095D01*
X216512380Y-53316666D01*
X216512380Y-53935714D01*
X231102380Y-44166666D02*
X231816666Y-44166666D01*
X231959523Y-44119047D01*
X232054761Y-44023809D01*
X232102380Y-43880952D01*
X232102380Y-43785714D01*
X232102380Y-45166666D02*
X232102380Y-44595238D01*
X232102380Y-44880952D02*
X231102380Y-44880952D01*
X231245238Y-44785714D01*
X231340476Y-44690476D01*
X231388095Y-44595238D01*
X223871904Y-56812380D02*
X223871904Y-57621904D01*
X223824285Y-57717142D01*
X223776666Y-57764761D01*
X223681428Y-57812380D01*
X223490952Y-57812380D01*
X223395714Y-57764761D01*
X223348095Y-57717142D01*
X223300476Y-57621904D01*
X223300476Y-56812380D01*
X222871904Y-56907619D02*
X222824285Y-56860000D01*
X222729047Y-56812380D01*
X222490952Y-56812380D01*
X222395714Y-56860000D01*
X222348095Y-56907619D01*
X222300476Y-57002857D01*
X222300476Y-57098095D01*
X222348095Y-57240952D01*
X222919523Y-57812380D01*
X222300476Y-57812380D01*
X233476666Y-59397142D02*
X233524285Y-59444761D01*
X233667142Y-59492380D01*
X233762380Y-59492380D01*
X233905238Y-59444761D01*
X234000476Y-59349523D01*
X234048095Y-59254285D01*
X234095714Y-59063809D01*
X234095714Y-58920952D01*
X234048095Y-58730476D01*
X234000476Y-58635238D01*
X233905238Y-58540000D01*
X233762380Y-58492380D01*
X233667142Y-58492380D01*
X233524285Y-58540000D01*
X233476666Y-58587619D01*
X232524285Y-59492380D02*
X233095714Y-59492380D01*
X232810000Y-59492380D02*
X232810000Y-58492380D01*
X232905238Y-58635238D01*
X233000476Y-58730476D01*
X233095714Y-58778095D01*
X224066666Y-51402380D02*
X224400000Y-50926190D01*
X224638095Y-51402380D02*
X224638095Y-50402380D01*
X224257142Y-50402380D01*
X224161904Y-50450000D01*
X224114285Y-50497619D01*
X224066666Y-50592857D01*
X224066666Y-50735714D01*
X224114285Y-50830952D01*
X224161904Y-50878571D01*
X224257142Y-50926190D01*
X224638095Y-50926190D01*
X223114285Y-51402380D02*
X223685714Y-51402380D01*
X223400000Y-51402380D02*
X223400000Y-50402380D01*
X223495238Y-50545238D01*
X223590476Y-50640476D01*
X223685714Y-50688095D01*
X227226666Y-51402380D02*
X227560000Y-50926190D01*
X227798095Y-51402380D02*
X227798095Y-50402380D01*
X227417142Y-50402380D01*
X227321904Y-50450000D01*
X227274285Y-50497619D01*
X227226666Y-50592857D01*
X227226666Y-50735714D01*
X227274285Y-50830952D01*
X227321904Y-50878571D01*
X227417142Y-50926190D01*
X227798095Y-50926190D01*
X226845714Y-50497619D02*
X226798095Y-50450000D01*
X226702857Y-50402380D01*
X226464761Y-50402380D01*
X226369523Y-50450000D01*
X226321904Y-50497619D01*
X226274285Y-50592857D01*
X226274285Y-50688095D01*
X226321904Y-50830952D01*
X226893333Y-51402380D01*
X226274285Y-51402380D01*
X227406666Y-59307142D02*
X227454285Y-59354761D01*
X227597142Y-59402380D01*
X227692380Y-59402380D01*
X227835238Y-59354761D01*
X227930476Y-59259523D01*
X227978095Y-59164285D01*
X228025714Y-58973809D01*
X228025714Y-58830952D01*
X227978095Y-58640476D01*
X227930476Y-58545238D01*
X227835238Y-58450000D01*
X227692380Y-58402380D01*
X227597142Y-58402380D01*
X227454285Y-58450000D01*
X227406666Y-58497619D01*
X227073333Y-58402380D02*
X226454285Y-58402380D01*
X226787619Y-58783333D01*
X226644761Y-58783333D01*
X226549523Y-58830952D01*
X226501904Y-58878571D01*
X226454285Y-58973809D01*
X226454285Y-59211904D01*
X226501904Y-59307142D01*
X226549523Y-59354761D01*
X226644761Y-59402380D01*
X226930476Y-59402380D01*
X227025714Y-59354761D01*
X227073333Y-59307142D01*
X227406666Y-94807142D02*
X227454285Y-94854761D01*
X227597142Y-94902380D01*
X227692380Y-94902380D01*
X227835238Y-94854761D01*
X227930476Y-94759523D01*
X227978095Y-94664285D01*
X228025714Y-94473809D01*
X228025714Y-94330952D01*
X227978095Y-94140476D01*
X227930476Y-94045238D01*
X227835238Y-93950000D01*
X227692380Y-93902380D01*
X227597142Y-93902380D01*
X227454285Y-93950000D01*
X227406666Y-93997619D01*
X227073333Y-93902380D02*
X226454285Y-93902380D01*
X226787619Y-94283333D01*
X226644761Y-94283333D01*
X226549523Y-94330952D01*
X226501904Y-94378571D01*
X226454285Y-94473809D01*
X226454285Y-94711904D01*
X226501904Y-94807142D01*
X226549523Y-94854761D01*
X226644761Y-94902380D01*
X226930476Y-94902380D01*
X227025714Y-94854761D01*
X227073333Y-94807142D01*
X234902380Y-100166666D02*
X235616666Y-100166666D01*
X235759523Y-100119047D01*
X235854761Y-100023809D01*
X235902380Y-99880952D01*
X235902380Y-99785714D01*
X234997619Y-100595238D02*
X234950000Y-100642857D01*
X234902380Y-100738095D01*
X234902380Y-100976190D01*
X234950000Y-101071428D01*
X234997619Y-101119047D01*
X235092857Y-101166666D01*
X235188095Y-101166666D01*
X235330952Y-101119047D01*
X235902380Y-100547619D01*
X235902380Y-101166666D01*
X216417142Y-88483333D02*
X216464761Y-88435714D01*
X216512380Y-88292857D01*
X216512380Y-88197619D01*
X216464761Y-88054761D01*
X216369523Y-87959523D01*
X216274285Y-87911904D01*
X216083809Y-87864285D01*
X215940952Y-87864285D01*
X215750476Y-87911904D01*
X215655238Y-87959523D01*
X215560000Y-88054761D01*
X215512380Y-88197619D01*
X215512380Y-88292857D01*
X215560000Y-88435714D01*
X215607619Y-88483333D01*
X215607619Y-88864285D02*
X215560000Y-88911904D01*
X215512380Y-89007142D01*
X215512380Y-89245238D01*
X215560000Y-89340476D01*
X215607619Y-89388095D01*
X215702857Y-89435714D01*
X215798095Y-89435714D01*
X215940952Y-89388095D01*
X216512380Y-88816666D01*
X216512380Y-89435714D01*
X231102380Y-79666666D02*
X231816666Y-79666666D01*
X231959523Y-79619047D01*
X232054761Y-79523809D01*
X232102380Y-79380952D01*
X232102380Y-79285714D01*
X232102380Y-80666666D02*
X232102380Y-80095238D01*
X232102380Y-80380952D02*
X231102380Y-80380952D01*
X231245238Y-80285714D01*
X231340476Y-80190476D01*
X231388095Y-80095238D01*
X223871904Y-92312380D02*
X223871904Y-93121904D01*
X223824285Y-93217142D01*
X223776666Y-93264761D01*
X223681428Y-93312380D01*
X223490952Y-93312380D01*
X223395714Y-93264761D01*
X223348095Y-93217142D01*
X223300476Y-93121904D01*
X223300476Y-92312380D01*
X222871904Y-92407619D02*
X222824285Y-92360000D01*
X222729047Y-92312380D01*
X222490952Y-92312380D01*
X222395714Y-92360000D01*
X222348095Y-92407619D01*
X222300476Y-92502857D01*
X222300476Y-92598095D01*
X222348095Y-92740952D01*
X222919523Y-93312380D01*
X222300476Y-93312380D01*
X233476666Y-94897142D02*
X233524285Y-94944761D01*
X233667142Y-94992380D01*
X233762380Y-94992380D01*
X233905238Y-94944761D01*
X234000476Y-94849523D01*
X234048095Y-94754285D01*
X234095714Y-94563809D01*
X234095714Y-94420952D01*
X234048095Y-94230476D01*
X234000476Y-94135238D01*
X233905238Y-94040000D01*
X233762380Y-93992380D01*
X233667142Y-93992380D01*
X233524285Y-94040000D01*
X233476666Y-94087619D01*
X232524285Y-94992380D02*
X233095714Y-94992380D01*
X232810000Y-94992380D02*
X232810000Y-93992380D01*
X232905238Y-94135238D01*
X233000476Y-94230476D01*
X233095714Y-94278095D01*
X224066666Y-86902380D02*
X224400000Y-86426190D01*
X224638095Y-86902380D02*
X224638095Y-85902380D01*
X224257142Y-85902380D01*
X224161904Y-85950000D01*
X224114285Y-85997619D01*
X224066666Y-86092857D01*
X224066666Y-86235714D01*
X224114285Y-86330952D01*
X224161904Y-86378571D01*
X224257142Y-86426190D01*
X224638095Y-86426190D01*
X223114285Y-86902380D02*
X223685714Y-86902380D01*
X223400000Y-86902380D02*
X223400000Y-85902380D01*
X223495238Y-86045238D01*
X223590476Y-86140476D01*
X223685714Y-86188095D01*
X227226666Y-86902380D02*
X227560000Y-86426190D01*
X227798095Y-86902380D02*
X227798095Y-85902380D01*
X227417142Y-85902380D01*
X227321904Y-85950000D01*
X227274285Y-85997619D01*
X227226666Y-86092857D01*
X227226666Y-86235714D01*
X227274285Y-86330952D01*
X227321904Y-86378571D01*
X227417142Y-86426190D01*
X227798095Y-86426190D01*
X226845714Y-85997619D02*
X226798095Y-85950000D01*
X226702857Y-85902380D01*
X226464761Y-85902380D01*
X226369523Y-85950000D01*
X226321904Y-85997619D01*
X226274285Y-86092857D01*
X226274285Y-86188095D01*
X226321904Y-86330952D01*
X226893333Y-86902380D01*
X226274285Y-86902380D01*
X181556666Y-123497142D02*
X181604285Y-123544761D01*
X181747142Y-123592380D01*
X181842380Y-123592380D01*
X181985238Y-123544761D01*
X182080476Y-123449523D01*
X182128095Y-123354285D01*
X182175714Y-123163809D01*
X182175714Y-123020952D01*
X182128095Y-122830476D01*
X182080476Y-122735238D01*
X181985238Y-122640000D01*
X181842380Y-122592380D01*
X181747142Y-122592380D01*
X181604285Y-122640000D01*
X181556666Y-122687619D01*
X181175714Y-122687619D02*
X181128095Y-122640000D01*
X181032857Y-122592380D01*
X180794761Y-122592380D01*
X180699523Y-122640000D01*
X180651904Y-122687619D01*
X180604285Y-122782857D01*
X180604285Y-122878095D01*
X180651904Y-123020952D01*
X181223333Y-123592380D01*
X180604285Y-123592380D01*
X195092380Y-114676666D02*
X195806666Y-114676666D01*
X195949523Y-114629047D01*
X196044761Y-114533809D01*
X196092380Y-114390952D01*
X196092380Y-114295714D01*
X196092380Y-115676666D02*
X196092380Y-115105238D01*
X196092380Y-115390952D02*
X195092380Y-115390952D01*
X195235238Y-115295714D01*
X195330476Y-115200476D01*
X195378095Y-115105238D01*
X196362380Y-126353333D02*
X195886190Y-126020000D01*
X196362380Y-125781904D02*
X195362380Y-125781904D01*
X195362380Y-126162857D01*
X195410000Y-126258095D01*
X195457619Y-126305714D01*
X195552857Y-126353333D01*
X195695714Y-126353333D01*
X195790952Y-126305714D01*
X195838571Y-126258095D01*
X195886190Y-126162857D01*
X195886190Y-125781904D01*
X195457619Y-126734285D02*
X195410000Y-126781904D01*
X195362380Y-126877142D01*
X195362380Y-127115238D01*
X195410000Y-127210476D01*
X195457619Y-127258095D01*
X195552857Y-127305714D01*
X195648095Y-127305714D01*
X195790952Y-127258095D01*
X196362380Y-126686666D01*
X196362380Y-127305714D01*
X187841904Y-129272380D02*
X187841904Y-130081904D01*
X187794285Y-130177142D01*
X187746666Y-130224761D01*
X187651428Y-130272380D01*
X187460952Y-130272380D01*
X187365714Y-130224761D01*
X187318095Y-130177142D01*
X187270476Y-130081904D01*
X187270476Y-129272380D01*
X186841904Y-129367619D02*
X186794285Y-129320000D01*
X186699047Y-129272380D01*
X186460952Y-129272380D01*
X186365714Y-129320000D01*
X186318095Y-129367619D01*
X186270476Y-129462857D01*
X186270476Y-129558095D01*
X186318095Y-129700952D01*
X186889523Y-130272380D01*
X186270476Y-130272380D01*
X192876666Y-123912380D02*
X193210000Y-123436190D01*
X193448095Y-123912380D02*
X193448095Y-122912380D01*
X193067142Y-122912380D01*
X192971904Y-122960000D01*
X192924285Y-123007619D01*
X192876666Y-123102857D01*
X192876666Y-123245714D01*
X192924285Y-123340952D01*
X192971904Y-123388571D01*
X193067142Y-123436190D01*
X193448095Y-123436190D01*
X191924285Y-123912380D02*
X192495714Y-123912380D01*
X192210000Y-123912380D02*
X192210000Y-122912380D01*
X192305238Y-123055238D01*
X192400476Y-123150476D01*
X192495714Y-123198095D01*
X189926666Y-123567142D02*
X189974285Y-123614761D01*
X190117142Y-123662380D01*
X190212380Y-123662380D01*
X190355238Y-123614761D01*
X190450476Y-123519523D01*
X190498095Y-123424285D01*
X190545714Y-123233809D01*
X190545714Y-123090952D01*
X190498095Y-122900476D01*
X190450476Y-122805238D01*
X190355238Y-122710000D01*
X190212380Y-122662380D01*
X190117142Y-122662380D01*
X189974285Y-122710000D01*
X189926666Y-122757619D01*
X188974285Y-123662380D02*
X189545714Y-123662380D01*
X189260000Y-123662380D02*
X189260000Y-122662380D01*
X189355238Y-122805238D01*
X189450476Y-122900476D01*
X189545714Y-122948095D01*
X198892380Y-135176666D02*
X199606666Y-135176666D01*
X199749523Y-135129047D01*
X199844761Y-135033809D01*
X199892380Y-134890952D01*
X199892380Y-134795714D01*
X198987619Y-135605238D02*
X198940000Y-135652857D01*
X198892380Y-135748095D01*
X198892380Y-135986190D01*
X198940000Y-136081428D01*
X198987619Y-136129047D01*
X199082857Y-136176666D01*
X199178095Y-136176666D01*
X199320952Y-136129047D01*
X199892380Y-135557619D01*
X199892380Y-136176666D01*
X193896666Y-130407142D02*
X193944285Y-130454761D01*
X194087142Y-130502380D01*
X194182380Y-130502380D01*
X194325238Y-130454761D01*
X194420476Y-130359523D01*
X194468095Y-130264285D01*
X194515714Y-130073809D01*
X194515714Y-129930952D01*
X194468095Y-129740476D01*
X194420476Y-129645238D01*
X194325238Y-129550000D01*
X194182380Y-129502380D01*
X194087142Y-129502380D01*
X193944285Y-129550000D01*
X193896666Y-129597619D01*
X193563333Y-129502380D02*
X192944285Y-129502380D01*
X193277619Y-129883333D01*
X193134761Y-129883333D01*
X193039523Y-129930952D01*
X192991904Y-129978571D01*
X192944285Y-130073809D01*
X192944285Y-130311904D01*
X192991904Y-130407142D01*
X193039523Y-130454761D01*
X193134761Y-130502380D01*
X193420476Y-130502380D01*
X193515714Y-130454761D01*
X193563333Y-130407142D01*
X185126666Y-125157142D02*
X185174285Y-125204761D01*
X185317142Y-125252380D01*
X185412380Y-125252380D01*
X185555238Y-125204761D01*
X185650476Y-125109523D01*
X185698095Y-125014285D01*
X185745714Y-124823809D01*
X185745714Y-124680952D01*
X185698095Y-124490476D01*
X185650476Y-124395238D01*
X185555238Y-124300000D01*
X185412380Y-124252380D01*
X185317142Y-124252380D01*
X185174285Y-124300000D01*
X185126666Y-124347619D01*
X184269523Y-124585714D02*
X184269523Y-125252380D01*
X184507619Y-124204761D02*
X184745714Y-124919047D01*
X184126666Y-124919047D01*
X164147142Y-55205833D02*
X164194761Y-55158214D01*
X164242380Y-55015357D01*
X164242380Y-54920119D01*
X164194761Y-54777261D01*
X164099523Y-54682023D01*
X164004285Y-54634404D01*
X163813809Y-54586785D01*
X163670952Y-54586785D01*
X163480476Y-54634404D01*
X163385238Y-54682023D01*
X163290000Y-54777261D01*
X163242380Y-54920119D01*
X163242380Y-55015357D01*
X163290000Y-55158214D01*
X163337619Y-55205833D01*
X164242380Y-56158214D02*
X164242380Y-55586785D01*
X164242380Y-55872500D02*
X163242380Y-55872500D01*
X163385238Y-55777261D01*
X163480476Y-55682023D01*
X163528095Y-55586785D01*
X163902380Y-64666666D02*
X164616666Y-64666666D01*
X164759523Y-64619047D01*
X164854761Y-64523809D01*
X164902380Y-64380952D01*
X164902380Y-64285714D01*
X163997619Y-65095238D02*
X163950000Y-65142857D01*
X163902380Y-65238095D01*
X163902380Y-65476190D01*
X163950000Y-65571428D01*
X163997619Y-65619047D01*
X164092857Y-65666666D01*
X164188095Y-65666666D01*
X164330952Y-65619047D01*
X164902380Y-65047619D01*
X164902380Y-65666666D01*
X160102380Y-44166666D02*
X160816666Y-44166666D01*
X160959523Y-44119047D01*
X161054761Y-44023809D01*
X161102380Y-43880952D01*
X161102380Y-43785714D01*
X161102380Y-45166666D02*
X161102380Y-44595238D01*
X161102380Y-44880952D02*
X160102380Y-44880952D01*
X160245238Y-44785714D01*
X160340476Y-44690476D01*
X160388095Y-44595238D01*
X160102380Y-79666666D02*
X160816666Y-79666666D01*
X160959523Y-79619047D01*
X161054761Y-79523809D01*
X161102380Y-79380952D01*
X161102380Y-79285714D01*
X161102380Y-80666666D02*
X161102380Y-80095238D01*
X161102380Y-80380952D02*
X160102380Y-80380952D01*
X160245238Y-80285714D01*
X160340476Y-80190476D01*
X160388095Y-80095238D01*
X156406666Y-94807142D02*
X156454285Y-94854761D01*
X156597142Y-94902380D01*
X156692380Y-94902380D01*
X156835238Y-94854761D01*
X156930476Y-94759523D01*
X156978095Y-94664285D01*
X157025714Y-94473809D01*
X157025714Y-94330952D01*
X156978095Y-94140476D01*
X156930476Y-94045238D01*
X156835238Y-93950000D01*
X156692380Y-93902380D01*
X156597142Y-93902380D01*
X156454285Y-93950000D01*
X156406666Y-93997619D01*
X156073333Y-93902380D02*
X155454285Y-93902380D01*
X155787619Y-94283333D01*
X155644761Y-94283333D01*
X155549523Y-94330952D01*
X155501904Y-94378571D01*
X155454285Y-94473809D01*
X155454285Y-94711904D01*
X155501904Y-94807142D01*
X155549523Y-94854761D01*
X155644761Y-94902380D01*
X155930476Y-94902380D01*
X156025714Y-94854761D01*
X156073333Y-94807142D01*
X152871904Y-92312380D02*
X152871904Y-93121904D01*
X152824285Y-93217142D01*
X152776666Y-93264761D01*
X152681428Y-93312380D01*
X152490952Y-93312380D01*
X152395714Y-93264761D01*
X152348095Y-93217142D01*
X152300476Y-93121904D01*
X152300476Y-92312380D01*
X151871904Y-92407619D02*
X151824285Y-92360000D01*
X151729047Y-92312380D01*
X151490952Y-92312380D01*
X151395714Y-92360000D01*
X151348095Y-92407619D01*
X151300476Y-92502857D01*
X151300476Y-92598095D01*
X151348095Y-92740952D01*
X151919523Y-93312380D01*
X151300476Y-93312380D01*
X145417142Y-88483333D02*
X145464761Y-88435714D01*
X145512380Y-88292857D01*
X145512380Y-88197619D01*
X145464761Y-88054761D01*
X145369523Y-87959523D01*
X145274285Y-87911904D01*
X145083809Y-87864285D01*
X144940952Y-87864285D01*
X144750476Y-87911904D01*
X144655238Y-87959523D01*
X144560000Y-88054761D01*
X144512380Y-88197619D01*
X144512380Y-88292857D01*
X144560000Y-88435714D01*
X144607619Y-88483333D01*
X144607619Y-88864285D02*
X144560000Y-88911904D01*
X144512380Y-89007142D01*
X144512380Y-89245238D01*
X144560000Y-89340476D01*
X144607619Y-89388095D01*
X144702857Y-89435714D01*
X144798095Y-89435714D01*
X144940952Y-89388095D01*
X145512380Y-88816666D01*
X145512380Y-89435714D01*
X153066666Y-86902380D02*
X153400000Y-86426190D01*
X153638095Y-86902380D02*
X153638095Y-85902380D01*
X153257142Y-85902380D01*
X153161904Y-85950000D01*
X153114285Y-85997619D01*
X153066666Y-86092857D01*
X153066666Y-86235714D01*
X153114285Y-86330952D01*
X153161904Y-86378571D01*
X153257142Y-86426190D01*
X153638095Y-86426190D01*
X152114285Y-86902380D02*
X152685714Y-86902380D01*
X152400000Y-86902380D02*
X152400000Y-85902380D01*
X152495238Y-86045238D01*
X152590476Y-86140476D01*
X152685714Y-86188095D01*
X156226666Y-86902380D02*
X156560000Y-86426190D01*
X156798095Y-86902380D02*
X156798095Y-85902380D01*
X156417142Y-85902380D01*
X156321904Y-85950000D01*
X156274285Y-85997619D01*
X156226666Y-86092857D01*
X156226666Y-86235714D01*
X156274285Y-86330952D01*
X156321904Y-86378571D01*
X156417142Y-86426190D01*
X156798095Y-86426190D01*
X155845714Y-85997619D02*
X155798095Y-85950000D01*
X155702857Y-85902380D01*
X155464761Y-85902380D01*
X155369523Y-85950000D01*
X155321904Y-85997619D01*
X155274285Y-86092857D01*
X155274285Y-86188095D01*
X155321904Y-86330952D01*
X155893333Y-86902380D01*
X155274285Y-86902380D01*
X162476666Y-94897142D02*
X162524285Y-94944761D01*
X162667142Y-94992380D01*
X162762380Y-94992380D01*
X162905238Y-94944761D01*
X163000476Y-94849523D01*
X163048095Y-94754285D01*
X163095714Y-94563809D01*
X163095714Y-94420952D01*
X163048095Y-94230476D01*
X163000476Y-94135238D01*
X162905238Y-94040000D01*
X162762380Y-93992380D01*
X162667142Y-93992380D01*
X162524285Y-94040000D01*
X162476666Y-94087619D01*
X161524285Y-94992380D02*
X162095714Y-94992380D01*
X161810000Y-94992380D02*
X161810000Y-93992380D01*
X161905238Y-94135238D01*
X162000476Y-94230476D01*
X162095714Y-94278095D01*
X163902380Y-100166666D02*
X164616666Y-100166666D01*
X164759523Y-100119047D01*
X164854761Y-100023809D01*
X164902380Y-99880952D01*
X164902380Y-99785714D01*
X163997619Y-100595238D02*
X163950000Y-100642857D01*
X163902380Y-100738095D01*
X163902380Y-100976190D01*
X163950000Y-101071428D01*
X163997619Y-101119047D01*
X164092857Y-101166666D01*
X164188095Y-101166666D01*
X164330952Y-101119047D01*
X164902380Y-100547619D01*
X164902380Y-101166666D01*
X227226666Y-121902380D02*
X227560000Y-121426190D01*
X227798095Y-121902380D02*
X227798095Y-120902380D01*
X227417142Y-120902380D01*
X227321904Y-120950000D01*
X227274285Y-120997619D01*
X227226666Y-121092857D01*
X227226666Y-121235714D01*
X227274285Y-121330952D01*
X227321904Y-121378571D01*
X227417142Y-121426190D01*
X227798095Y-121426190D01*
X226845714Y-120997619D02*
X226798095Y-120950000D01*
X226702857Y-120902380D01*
X226464761Y-120902380D01*
X226369523Y-120950000D01*
X226321904Y-120997619D01*
X226274285Y-121092857D01*
X226274285Y-121188095D01*
X226321904Y-121330952D01*
X226893333Y-121902380D01*
X226274285Y-121902380D01*
X233476666Y-129897142D02*
X233524285Y-129944761D01*
X233667142Y-129992380D01*
X233762380Y-129992380D01*
X233905238Y-129944761D01*
X234000476Y-129849523D01*
X234048095Y-129754285D01*
X234095714Y-129563809D01*
X234095714Y-129420952D01*
X234048095Y-129230476D01*
X234000476Y-129135238D01*
X233905238Y-129040000D01*
X233762380Y-128992380D01*
X233667142Y-128992380D01*
X233524285Y-129040000D01*
X233476666Y-129087619D01*
X232524285Y-129992380D02*
X233095714Y-129992380D01*
X232810000Y-129992380D02*
X232810000Y-128992380D01*
X232905238Y-129135238D01*
X233000476Y-129230476D01*
X233095714Y-129278095D01*
X231102380Y-114666666D02*
X231816666Y-114666666D01*
X231959523Y-114619047D01*
X232054761Y-114523809D01*
X232102380Y-114380952D01*
X232102380Y-114285714D01*
X232102380Y-115666666D02*
X232102380Y-115095238D01*
X232102380Y-115380952D02*
X231102380Y-115380952D01*
X231245238Y-115285714D01*
X231340476Y-115190476D01*
X231388095Y-115095238D01*
X227406666Y-129807142D02*
X227454285Y-129854761D01*
X227597142Y-129902380D01*
X227692380Y-129902380D01*
X227835238Y-129854761D01*
X227930476Y-129759523D01*
X227978095Y-129664285D01*
X228025714Y-129473809D01*
X228025714Y-129330952D01*
X227978095Y-129140476D01*
X227930476Y-129045238D01*
X227835238Y-128950000D01*
X227692380Y-128902380D01*
X227597142Y-128902380D01*
X227454285Y-128950000D01*
X227406666Y-128997619D01*
X227073333Y-128902380D02*
X226454285Y-128902380D01*
X226787619Y-129283333D01*
X226644761Y-129283333D01*
X226549523Y-129330952D01*
X226501904Y-129378571D01*
X226454285Y-129473809D01*
X226454285Y-129711904D01*
X226501904Y-129807142D01*
X226549523Y-129854761D01*
X226644761Y-129902380D01*
X226930476Y-129902380D01*
X227025714Y-129854761D01*
X227073333Y-129807142D01*
X216417142Y-123483333D02*
X216464761Y-123435714D01*
X216512380Y-123292857D01*
X216512380Y-123197619D01*
X216464761Y-123054761D01*
X216369523Y-122959523D01*
X216274285Y-122911904D01*
X216083809Y-122864285D01*
X215940952Y-122864285D01*
X215750476Y-122911904D01*
X215655238Y-122959523D01*
X215560000Y-123054761D01*
X215512380Y-123197619D01*
X215512380Y-123292857D01*
X215560000Y-123435714D01*
X215607619Y-123483333D01*
X215607619Y-123864285D02*
X215560000Y-123911904D01*
X215512380Y-124007142D01*
X215512380Y-124245238D01*
X215560000Y-124340476D01*
X215607619Y-124388095D01*
X215702857Y-124435714D01*
X215798095Y-124435714D01*
X215940952Y-124388095D01*
X216512380Y-123816666D01*
X216512380Y-124435714D01*
X223871904Y-127312380D02*
X223871904Y-128121904D01*
X223824285Y-128217142D01*
X223776666Y-128264761D01*
X223681428Y-128312380D01*
X223490952Y-128312380D01*
X223395714Y-128264761D01*
X223348095Y-128217142D01*
X223300476Y-128121904D01*
X223300476Y-127312380D01*
X222871904Y-127407619D02*
X222824285Y-127360000D01*
X222729047Y-127312380D01*
X222490952Y-127312380D01*
X222395714Y-127360000D01*
X222348095Y-127407619D01*
X222300476Y-127502857D01*
X222300476Y-127598095D01*
X222348095Y-127740952D01*
X222919523Y-128312380D01*
X222300476Y-128312380D01*
X234902380Y-135166666D02*
X235616666Y-135166666D01*
X235759523Y-135119047D01*
X235854761Y-135023809D01*
X235902380Y-134880952D01*
X235902380Y-134785714D01*
X234997619Y-135595238D02*
X234950000Y-135642857D01*
X234902380Y-135738095D01*
X234902380Y-135976190D01*
X234950000Y-136071428D01*
X234997619Y-136119047D01*
X235092857Y-136166666D01*
X235188095Y-136166666D01*
X235330952Y-136119047D01*
X235902380Y-135547619D01*
X235902380Y-136166666D01*
X224066666Y-121902380D02*
X224400000Y-121426190D01*
X224638095Y-121902380D02*
X224638095Y-120902380D01*
X224257142Y-120902380D01*
X224161904Y-120950000D01*
X224114285Y-120997619D01*
X224066666Y-121092857D01*
X224066666Y-121235714D01*
X224114285Y-121330952D01*
X224161904Y-121378571D01*
X224257142Y-121426190D01*
X224638095Y-121426190D01*
X223114285Y-121902380D02*
X223685714Y-121902380D01*
X223400000Y-121902380D02*
X223400000Y-120902380D01*
X223495238Y-121045238D01*
X223590476Y-121140476D01*
X223685714Y-121188095D01*
X161362380Y-126353333D02*
X160886190Y-126020000D01*
X161362380Y-125781904D02*
X160362380Y-125781904D01*
X160362380Y-126162857D01*
X160410000Y-126258095D01*
X160457619Y-126305714D01*
X160552857Y-126353333D01*
X160695714Y-126353333D01*
X160790952Y-126305714D01*
X160838571Y-126258095D01*
X160886190Y-126162857D01*
X160886190Y-125781904D01*
X160457619Y-126734285D02*
X160410000Y-126781904D01*
X160362380Y-126877142D01*
X160362380Y-127115238D01*
X160410000Y-127210476D01*
X160457619Y-127258095D01*
X160552857Y-127305714D01*
X160648095Y-127305714D01*
X160790952Y-127258095D01*
X161362380Y-126686666D01*
X161362380Y-127305714D01*
X150126666Y-125157142D02*
X150174285Y-125204761D01*
X150317142Y-125252380D01*
X150412380Y-125252380D01*
X150555238Y-125204761D01*
X150650476Y-125109523D01*
X150698095Y-125014285D01*
X150745714Y-124823809D01*
X150745714Y-124680952D01*
X150698095Y-124490476D01*
X150650476Y-124395238D01*
X150555238Y-124300000D01*
X150412380Y-124252380D01*
X150317142Y-124252380D01*
X150174285Y-124300000D01*
X150126666Y-124347619D01*
X149269523Y-124585714D02*
X149269523Y-125252380D01*
X149507619Y-124204761D02*
X149745714Y-124919047D01*
X149126666Y-124919047D01*
X154926666Y-123567142D02*
X154974285Y-123614761D01*
X155117142Y-123662380D01*
X155212380Y-123662380D01*
X155355238Y-123614761D01*
X155450476Y-123519523D01*
X155498095Y-123424285D01*
X155545714Y-123233809D01*
X155545714Y-123090952D01*
X155498095Y-122900476D01*
X155450476Y-122805238D01*
X155355238Y-122710000D01*
X155212380Y-122662380D01*
X155117142Y-122662380D01*
X154974285Y-122710000D01*
X154926666Y-122757619D01*
X153974285Y-123662380D02*
X154545714Y-123662380D01*
X154260000Y-123662380D02*
X154260000Y-122662380D01*
X154355238Y-122805238D01*
X154450476Y-122900476D01*
X154545714Y-122948095D01*
X146556666Y-123497142D02*
X146604285Y-123544761D01*
X146747142Y-123592380D01*
X146842380Y-123592380D01*
X146985238Y-123544761D01*
X147080476Y-123449523D01*
X147128095Y-123354285D01*
X147175714Y-123163809D01*
X147175714Y-123020952D01*
X147128095Y-122830476D01*
X147080476Y-122735238D01*
X146985238Y-122640000D01*
X146842380Y-122592380D01*
X146747142Y-122592380D01*
X146604285Y-122640000D01*
X146556666Y-122687619D01*
X146175714Y-122687619D02*
X146128095Y-122640000D01*
X146032857Y-122592380D01*
X145794761Y-122592380D01*
X145699523Y-122640000D01*
X145651904Y-122687619D01*
X145604285Y-122782857D01*
X145604285Y-122878095D01*
X145651904Y-123020952D01*
X146223333Y-123592380D01*
X145604285Y-123592380D01*
X157876666Y-123912380D02*
X158210000Y-123436190D01*
X158448095Y-123912380D02*
X158448095Y-122912380D01*
X158067142Y-122912380D01*
X157971904Y-122960000D01*
X157924285Y-123007619D01*
X157876666Y-123102857D01*
X157876666Y-123245714D01*
X157924285Y-123340952D01*
X157971904Y-123388571D01*
X158067142Y-123436190D01*
X158448095Y-123436190D01*
X156924285Y-123912380D02*
X157495714Y-123912380D01*
X157210000Y-123912380D02*
X157210000Y-122912380D01*
X157305238Y-123055238D01*
X157400476Y-123150476D01*
X157495714Y-123198095D01*
X163892380Y-135176666D02*
X164606666Y-135176666D01*
X164749523Y-135129047D01*
X164844761Y-135033809D01*
X164892380Y-134890952D01*
X164892380Y-134795714D01*
X163987619Y-135605238D02*
X163940000Y-135652857D01*
X163892380Y-135748095D01*
X163892380Y-135986190D01*
X163940000Y-136081428D01*
X163987619Y-136129047D01*
X164082857Y-136176666D01*
X164178095Y-136176666D01*
X164320952Y-136129047D01*
X164892380Y-135557619D01*
X164892380Y-136176666D01*
X160092380Y-114676666D02*
X160806666Y-114676666D01*
X160949523Y-114629047D01*
X161044761Y-114533809D01*
X161092380Y-114390952D01*
X161092380Y-114295714D01*
X161092380Y-115676666D02*
X161092380Y-115105238D01*
X161092380Y-115390952D02*
X160092380Y-115390952D01*
X160235238Y-115295714D01*
X160330476Y-115200476D01*
X160378095Y-115105238D01*
X158896666Y-130407142D02*
X158944285Y-130454761D01*
X159087142Y-130502380D01*
X159182380Y-130502380D01*
X159325238Y-130454761D01*
X159420476Y-130359523D01*
X159468095Y-130264285D01*
X159515714Y-130073809D01*
X159515714Y-129930952D01*
X159468095Y-129740476D01*
X159420476Y-129645238D01*
X159325238Y-129550000D01*
X159182380Y-129502380D01*
X159087142Y-129502380D01*
X158944285Y-129550000D01*
X158896666Y-129597619D01*
X158563333Y-129502380D02*
X157944285Y-129502380D01*
X158277619Y-129883333D01*
X158134761Y-129883333D01*
X158039523Y-129930952D01*
X157991904Y-129978571D01*
X157944285Y-130073809D01*
X157944285Y-130311904D01*
X157991904Y-130407142D01*
X158039523Y-130454761D01*
X158134761Y-130502380D01*
X158420476Y-130502380D01*
X158515714Y-130454761D01*
X158563333Y-130407142D01*
X152841904Y-129272380D02*
X152841904Y-130081904D01*
X152794285Y-130177142D01*
X152746666Y-130224761D01*
X152651428Y-130272380D01*
X152460952Y-130272380D01*
X152365714Y-130224761D01*
X152318095Y-130177142D01*
X152270476Y-130081904D01*
X152270476Y-129272380D01*
X151841904Y-129367619D02*
X151794285Y-129320000D01*
X151699047Y-129272380D01*
X151460952Y-129272380D01*
X151365714Y-129320000D01*
X151318095Y-129367619D01*
X151270476Y-129462857D01*
X151270476Y-129558095D01*
X151318095Y-129700952D01*
X151889523Y-130272380D01*
X151270476Y-130272380D01*
M02*
