G04 #@! TF.GenerationSoftware,KiCad,Pcbnew,5.1.5-52549c5~86~ubuntu16.04.1*
G04 #@! TF.CreationDate,2020-08-05T12:56:56-05:00*
G04 #@! TF.ProjectId,pressure_sensors,70726573-7375-4726-955f-73656e736f72,rev?*
G04 #@! TF.SameCoordinates,Original*
G04 #@! TF.FileFunction,Copper,L1,Top*
G04 #@! TF.FilePolarity,Positive*
%FSLAX46Y46*%
G04 Gerber Fmt 4.6, Leading zero omitted, Abs format (unit mm)*
G04 Created by KiCad (PCBNEW 5.1.5-52549c5~86~ubuntu16.04.1) date 2020-08-05 12:56:56*
%MOMM*%
%LPD*%
G04 APERTURE LIST*
%ADD10C,0.800000*%
%ADD11C,1.524000*%
%ADD12C,1.600000*%
%ADD13R,1.600000X1.600000*%
%ADD14C,4.400000*%
%ADD15C,0.500000*%
%ADD16C,0.254000*%
G04 APERTURE END LIST*
D10*
X204600000Y-124990000D03*
X210400000Y-126490000D03*
X210400000Y-123500000D03*
X210400000Y-125000000D03*
X204600000Y-126490000D03*
X204600000Y-123500000D03*
X204600000Y-89990000D03*
X210400000Y-91490000D03*
X210400000Y-88500000D03*
X210400000Y-90000000D03*
X204600000Y-91490000D03*
X204600000Y-88500000D03*
X210400000Y-55010000D03*
X204600000Y-53510000D03*
X210400000Y-56500000D03*
X204600000Y-55000000D03*
X210400000Y-53510000D03*
X204600000Y-56500000D03*
X174400000Y-125030000D03*
X169600000Y-123530000D03*
X174400000Y-126520000D03*
X169600000Y-125020000D03*
X174400000Y-123530000D03*
X169600000Y-126520000D03*
X174400000Y-90010000D03*
X169600000Y-88510000D03*
X174400000Y-91500000D03*
X169600000Y-90000000D03*
X174400000Y-88510000D03*
X169600000Y-91500000D03*
X174400000Y-55010000D03*
X169600000Y-53510000D03*
X174400000Y-56500000D03*
X169600000Y-55000000D03*
X174400000Y-53510000D03*
X169600000Y-56500000D03*
X224890000Y-74900000D03*
X226390000Y-70100000D03*
X223400000Y-74900000D03*
X224900000Y-70100000D03*
X226390000Y-74900000D03*
X223400000Y-70100000D03*
X188990000Y-74900000D03*
X190490000Y-70100000D03*
X187500000Y-74900000D03*
X189000000Y-70100000D03*
X190490000Y-74900000D03*
X187500000Y-70100000D03*
X152500000Y-74900000D03*
X153990000Y-74900000D03*
X155490000Y-74900000D03*
X154000000Y-70100000D03*
X152500000Y-70100000D03*
X155490000Y-70100000D03*
X152500000Y-109900000D03*
X153990000Y-109900000D03*
X155490000Y-109900000D03*
X154000000Y-105600000D03*
X152500000Y-105600000D03*
X155490000Y-105600000D03*
X187500000Y-109900000D03*
X188990000Y-109900000D03*
X190490000Y-109900000D03*
X189000000Y-105600000D03*
X187500000Y-105600000D03*
X190490000Y-105600000D03*
X224890000Y-109900000D03*
X223400000Y-109900000D03*
X226390000Y-109900000D03*
X223400000Y-105600000D03*
X224900000Y-105600000D03*
X226390000Y-105600000D03*
D11*
X183775000Y-53620000D03*
X183775000Y-56160000D03*
X183775000Y-58700000D03*
X195025000Y-58700000D03*
X195025000Y-56160000D03*
X195025000Y-53620000D03*
X183395000Y-92990000D03*
X183395000Y-90450000D03*
X183395000Y-87910000D03*
X194645000Y-87910000D03*
X194645000Y-90450000D03*
X194645000Y-92990000D03*
X230645000Y-57490000D03*
X230645000Y-54950000D03*
X230645000Y-52410000D03*
X219395000Y-52410000D03*
X219395000Y-54950000D03*
X219395000Y-57490000D03*
X219395000Y-92990000D03*
X219395000Y-90450000D03*
X219395000Y-87910000D03*
X230645000Y-87910000D03*
X230645000Y-90450000D03*
X230645000Y-92990000D03*
D12*
X195800000Y-121060000D03*
X193260000Y-121060000D03*
X190720000Y-121060000D03*
X188180000Y-121060000D03*
X185640000Y-121060000D03*
D13*
X183100000Y-121060000D03*
D14*
X177894444Y-131560000D03*
X201005550Y-131560000D03*
D11*
X160025000Y-53620000D03*
X160025000Y-56160000D03*
X160025000Y-58700000D03*
X148775000Y-58700000D03*
X148775000Y-56160000D03*
X148775000Y-53620000D03*
X159645000Y-92990000D03*
X159645000Y-90450000D03*
X159645000Y-87910000D03*
X148395000Y-87910000D03*
X148395000Y-90450000D03*
X148395000Y-92990000D03*
X230645000Y-127990000D03*
X230645000Y-125450000D03*
X230645000Y-122910000D03*
X219395000Y-122910000D03*
X219395000Y-125450000D03*
X219395000Y-127990000D03*
D14*
X166005550Y-131560000D03*
X142894444Y-131560000D03*
D13*
X148100000Y-121060000D03*
D12*
X150640000Y-121060000D03*
X153180000Y-121060000D03*
X155720000Y-121060000D03*
X158260000Y-121060000D03*
X160800000Y-121060000D03*
D15*
X188157500Y-121082500D02*
X188180000Y-121060000D01*
X153157500Y-121082500D02*
X153180000Y-121060000D01*
D16*
G36*
X156557178Y-110693423D02*
G01*
X156601471Y-110776289D01*
X156661079Y-110848921D01*
X156733711Y-110908529D01*
X156816577Y-110952822D01*
X156906492Y-110980097D01*
X157000000Y-110989307D01*
X157023422Y-110987000D01*
X166513000Y-110987000D01*
X166513001Y-115533423D01*
X166515030Y-115554025D01*
X166514987Y-115560214D01*
X166515637Y-115566842D01*
X166536038Y-115760939D01*
X166544734Y-115803303D01*
X166552832Y-115845755D01*
X166554756Y-115852126D01*
X166554757Y-115852132D01*
X166554759Y-115852138D01*
X166612469Y-116038568D01*
X166629220Y-116078418D01*
X166645417Y-116118508D01*
X166648542Y-116124384D01*
X166648544Y-116124389D01*
X166648547Y-116124393D01*
X166741369Y-116296065D01*
X166765564Y-116331936D01*
X166789218Y-116368084D01*
X166793420Y-116373236D01*
X166793426Y-116373244D01*
X166793433Y-116373251D01*
X166917832Y-116523623D01*
X166948498Y-116554076D01*
X166978756Y-116584975D01*
X166983882Y-116589214D01*
X166983888Y-116589220D01*
X166983895Y-116589224D01*
X167135130Y-116712569D01*
X167171133Y-116736489D01*
X167206812Y-116760920D01*
X167212666Y-116764084D01*
X167212670Y-116764087D01*
X167212674Y-116764089D01*
X167384993Y-116855712D01*
X167424972Y-116872190D01*
X167464700Y-116889218D01*
X167471056Y-116891185D01*
X167471063Y-116891188D01*
X167471070Y-116891189D01*
X167657898Y-116947597D01*
X167700337Y-116956000D01*
X167742595Y-116964983D01*
X167749212Y-116965677D01*
X167749220Y-116965679D01*
X167749228Y-116965679D01*
X167943452Y-116984723D01*
X168091139Y-116999204D01*
X168188432Y-117028579D01*
X168278159Y-117076287D01*
X168356911Y-117140517D01*
X168421690Y-117218820D01*
X168470026Y-117308216D01*
X168500077Y-117405296D01*
X168513001Y-117528257D01*
X168513000Y-121986577D01*
X168510693Y-122010000D01*
X168519903Y-122103508D01*
X168547178Y-122193423D01*
X168591471Y-122276289D01*
X168651079Y-122348921D01*
X168723711Y-122408529D01*
X168806577Y-122452822D01*
X168873000Y-122472971D01*
X168873000Y-127547029D01*
X168806577Y-127567178D01*
X168723711Y-127611471D01*
X168651079Y-127671079D01*
X168591471Y-127743711D01*
X168547178Y-127826577D01*
X168519903Y-127916492D01*
X168510693Y-128010000D01*
X168513000Y-128033423D01*
X168513000Y-131212829D01*
X168435439Y-130822901D01*
X168244948Y-130363017D01*
X167968399Y-129949131D01*
X167616419Y-129597151D01*
X167202533Y-129320602D01*
X166742649Y-129130111D01*
X166254438Y-129033000D01*
X165756662Y-129033000D01*
X165268451Y-129130111D01*
X164808567Y-129320602D01*
X164394681Y-129597151D01*
X164042701Y-129949131D01*
X163766152Y-130363017D01*
X163575661Y-130822901D01*
X163478550Y-131311112D01*
X163478550Y-131808888D01*
X163575661Y-132297099D01*
X163766152Y-132756983D01*
X164042701Y-133170869D01*
X164394681Y-133522849D01*
X164808567Y-133799398D01*
X165268451Y-133989889D01*
X165756662Y-134087000D01*
X166254438Y-134087000D01*
X166742649Y-133989889D01*
X167202533Y-133799398D01*
X167616419Y-133522849D01*
X167968399Y-133170869D01*
X168244948Y-132756983D01*
X168435439Y-132297099D01*
X168513000Y-131907171D01*
X168513001Y-139533000D01*
X140467000Y-139533000D01*
X140467000Y-132303002D01*
X140655046Y-132756983D01*
X140931595Y-133170869D01*
X141283575Y-133522849D01*
X141697461Y-133799398D01*
X142157345Y-133989889D01*
X142645556Y-134087000D01*
X143143332Y-134087000D01*
X143631543Y-133989889D01*
X144091427Y-133799398D01*
X144505313Y-133522849D01*
X144857293Y-133170869D01*
X145133842Y-132756983D01*
X145324333Y-132297099D01*
X145421444Y-131808888D01*
X145421444Y-131311112D01*
X145324333Y-130822901D01*
X145133842Y-130363017D01*
X144857293Y-129949131D01*
X144505313Y-129597151D01*
X144091427Y-129320602D01*
X143631543Y-129130111D01*
X143143332Y-129033000D01*
X142645556Y-129033000D01*
X142157345Y-129130111D01*
X141697461Y-129320602D01*
X141283575Y-129597151D01*
X140931595Y-129949131D01*
X140655046Y-130363017D01*
X140467000Y-130816998D01*
X140467000Y-120260000D01*
X146971418Y-120260000D01*
X146971418Y-121860000D01*
X146977732Y-121924103D01*
X146996430Y-121985743D01*
X147026794Y-122042550D01*
X147067657Y-122092343D01*
X147117450Y-122133206D01*
X147174257Y-122163570D01*
X147235897Y-122182268D01*
X147300000Y-122188582D01*
X148900000Y-122188582D01*
X148964103Y-122182268D01*
X149025743Y-122163570D01*
X149082550Y-122133206D01*
X149132343Y-122092343D01*
X149164874Y-122052702D01*
X149826903Y-122052702D01*
X149898486Y-122296671D01*
X150153996Y-122417571D01*
X150428184Y-122486300D01*
X150710512Y-122500217D01*
X150990130Y-122458787D01*
X151256292Y-122363603D01*
X151381514Y-122296671D01*
X151453097Y-122052702D01*
X150640000Y-121239605D01*
X149826903Y-122052702D01*
X149164874Y-122052702D01*
X149173206Y-122042550D01*
X149203570Y-121985743D01*
X149222268Y-121924103D01*
X149228582Y-121860000D01*
X149228582Y-121324881D01*
X149241213Y-121410130D01*
X149336397Y-121676292D01*
X149403329Y-121801514D01*
X149647298Y-121873097D01*
X150460395Y-121060000D01*
X150819605Y-121060000D01*
X151632702Y-121873097D01*
X151876671Y-121801514D01*
X151997571Y-121546004D01*
X152066300Y-121271816D01*
X152067641Y-121244607D01*
X152096310Y-121388734D01*
X152181266Y-121593835D01*
X152304602Y-121778421D01*
X152461579Y-121935398D01*
X152646165Y-122058734D01*
X152851266Y-122143690D01*
X153069000Y-122187000D01*
X153291000Y-122187000D01*
X153508734Y-122143690D01*
X153713835Y-122058734D01*
X153898421Y-121935398D01*
X154055398Y-121778421D01*
X154178734Y-121593835D01*
X154263690Y-121388734D01*
X154307000Y-121171000D01*
X154307000Y-120949000D01*
X154593000Y-120949000D01*
X154593000Y-121171000D01*
X154636310Y-121388734D01*
X154721266Y-121593835D01*
X154844602Y-121778421D01*
X155001579Y-121935398D01*
X155186165Y-122058734D01*
X155391266Y-122143690D01*
X155609000Y-122187000D01*
X155831000Y-122187000D01*
X156048734Y-122143690D01*
X156253835Y-122058734D01*
X156438421Y-121935398D01*
X156595398Y-121778421D01*
X156718734Y-121593835D01*
X156803690Y-121388734D01*
X156847000Y-121171000D01*
X156847000Y-120949000D01*
X157133000Y-120949000D01*
X157133000Y-121171000D01*
X157176310Y-121388734D01*
X157261266Y-121593835D01*
X157384602Y-121778421D01*
X157541579Y-121935398D01*
X157726165Y-122058734D01*
X157931266Y-122143690D01*
X158149000Y-122187000D01*
X158371000Y-122187000D01*
X158588734Y-122143690D01*
X158793835Y-122058734D01*
X158978421Y-121935398D01*
X159135398Y-121778421D01*
X159258734Y-121593835D01*
X159343690Y-121388734D01*
X159387000Y-121171000D01*
X159387000Y-120949000D01*
X159673000Y-120949000D01*
X159673000Y-121171000D01*
X159716310Y-121388734D01*
X159801266Y-121593835D01*
X159924602Y-121778421D01*
X160081579Y-121935398D01*
X160266165Y-122058734D01*
X160471266Y-122143690D01*
X160689000Y-122187000D01*
X160911000Y-122187000D01*
X161128734Y-122143690D01*
X161333835Y-122058734D01*
X161518421Y-121935398D01*
X161675398Y-121778421D01*
X161798734Y-121593835D01*
X161883690Y-121388734D01*
X161927000Y-121171000D01*
X161927000Y-120949000D01*
X161883690Y-120731266D01*
X161798734Y-120526165D01*
X161675398Y-120341579D01*
X161518421Y-120184602D01*
X161333835Y-120061266D01*
X161128734Y-119976310D01*
X160911000Y-119933000D01*
X160689000Y-119933000D01*
X160471266Y-119976310D01*
X160266165Y-120061266D01*
X160081579Y-120184602D01*
X159924602Y-120341579D01*
X159801266Y-120526165D01*
X159716310Y-120731266D01*
X159673000Y-120949000D01*
X159387000Y-120949000D01*
X159343690Y-120731266D01*
X159258734Y-120526165D01*
X159135398Y-120341579D01*
X158978421Y-120184602D01*
X158793835Y-120061266D01*
X158588734Y-119976310D01*
X158371000Y-119933000D01*
X158149000Y-119933000D01*
X157931266Y-119976310D01*
X157726165Y-120061266D01*
X157541579Y-120184602D01*
X157384602Y-120341579D01*
X157261266Y-120526165D01*
X157176310Y-120731266D01*
X157133000Y-120949000D01*
X156847000Y-120949000D01*
X156803690Y-120731266D01*
X156718734Y-120526165D01*
X156595398Y-120341579D01*
X156438421Y-120184602D01*
X156253835Y-120061266D01*
X156048734Y-119976310D01*
X155831000Y-119933000D01*
X155609000Y-119933000D01*
X155391266Y-119976310D01*
X155186165Y-120061266D01*
X155001579Y-120184602D01*
X154844602Y-120341579D01*
X154721266Y-120526165D01*
X154636310Y-120731266D01*
X154593000Y-120949000D01*
X154307000Y-120949000D01*
X154263690Y-120731266D01*
X154178734Y-120526165D01*
X154055398Y-120341579D01*
X153898421Y-120184602D01*
X153713835Y-120061266D01*
X153508734Y-119976310D01*
X153291000Y-119933000D01*
X153069000Y-119933000D01*
X152851266Y-119976310D01*
X152646165Y-120061266D01*
X152461579Y-120184602D01*
X152304602Y-120341579D01*
X152181266Y-120526165D01*
X152096310Y-120731266D01*
X152065160Y-120887867D01*
X152038787Y-120709870D01*
X151943603Y-120443708D01*
X151876671Y-120318486D01*
X151632702Y-120246903D01*
X150819605Y-121060000D01*
X150460395Y-121060000D01*
X149647298Y-120246903D01*
X149403329Y-120318486D01*
X149282429Y-120573996D01*
X149228582Y-120788814D01*
X149228582Y-120260000D01*
X149222268Y-120195897D01*
X149203570Y-120134257D01*
X149173206Y-120077450D01*
X149164875Y-120067298D01*
X149826903Y-120067298D01*
X150640000Y-120880395D01*
X151453097Y-120067298D01*
X151381514Y-119823329D01*
X151126004Y-119702429D01*
X150851816Y-119633700D01*
X150569488Y-119619783D01*
X150289870Y-119661213D01*
X150023708Y-119756397D01*
X149898486Y-119823329D01*
X149826903Y-120067298D01*
X149164875Y-120067298D01*
X149132343Y-120027657D01*
X149082550Y-119986794D01*
X149025743Y-119956430D01*
X148964103Y-119937732D01*
X148900000Y-119931418D01*
X147300000Y-119931418D01*
X147235897Y-119937732D01*
X147174257Y-119956430D01*
X147117450Y-119986794D01*
X147067657Y-120027657D01*
X147026794Y-120077450D01*
X146996430Y-120134257D01*
X146977732Y-120195897D01*
X146971418Y-120260000D01*
X140467000Y-120260000D01*
X140467000Y-117533326D01*
X140479204Y-117408861D01*
X140508579Y-117311568D01*
X140556287Y-117221841D01*
X140620517Y-117143089D01*
X140698820Y-117078310D01*
X140788216Y-117029974D01*
X140885296Y-116999923D01*
X141027966Y-116984927D01*
X141040214Y-116985013D01*
X141046842Y-116984363D01*
X141240939Y-116963962D01*
X141283303Y-116955266D01*
X141325755Y-116947168D01*
X141332126Y-116945244D01*
X141332132Y-116945243D01*
X141332138Y-116945241D01*
X141518568Y-116887531D01*
X141558418Y-116870780D01*
X141598508Y-116854583D01*
X141604384Y-116851458D01*
X141604389Y-116851456D01*
X141604393Y-116851453D01*
X141776065Y-116758631D01*
X141811936Y-116734436D01*
X141848084Y-116710782D01*
X141853236Y-116706580D01*
X141853244Y-116706574D01*
X141853251Y-116706567D01*
X142003623Y-116582168D01*
X142034076Y-116551502D01*
X142064975Y-116521244D01*
X142069214Y-116516118D01*
X142069220Y-116516112D01*
X142069224Y-116516105D01*
X142192569Y-116364870D01*
X142216489Y-116328867D01*
X142240920Y-116293188D01*
X142244084Y-116287334D01*
X142244087Y-116287330D01*
X142244089Y-116287326D01*
X142335712Y-116115007D01*
X142352190Y-116075028D01*
X142369218Y-116035300D01*
X142371187Y-116028939D01*
X142371188Y-116028937D01*
X142371189Y-116028930D01*
X142427597Y-115842102D01*
X142436000Y-115799663D01*
X142444983Y-115757405D01*
X142445677Y-115750788D01*
X142445679Y-115750780D01*
X142445679Y-115750772D01*
X142464723Y-115556548D01*
X142464723Y-115556541D01*
X142467000Y-115533423D01*
X142467000Y-110987000D01*
X150976577Y-110987000D01*
X151000000Y-110989307D01*
X151023422Y-110987000D01*
X151023423Y-110987000D01*
X151093508Y-110980097D01*
X151183423Y-110952822D01*
X151266289Y-110908529D01*
X151338921Y-110848921D01*
X151398529Y-110776289D01*
X151442822Y-110693423D01*
X151462971Y-110627000D01*
X156537029Y-110627000D01*
X156557178Y-110693423D01*
G37*
X156557178Y-110693423D02*
X156601471Y-110776289D01*
X156661079Y-110848921D01*
X156733711Y-110908529D01*
X156816577Y-110952822D01*
X156906492Y-110980097D01*
X157000000Y-110989307D01*
X157023422Y-110987000D01*
X166513000Y-110987000D01*
X166513001Y-115533423D01*
X166515030Y-115554025D01*
X166514987Y-115560214D01*
X166515637Y-115566842D01*
X166536038Y-115760939D01*
X166544734Y-115803303D01*
X166552832Y-115845755D01*
X166554756Y-115852126D01*
X166554757Y-115852132D01*
X166554759Y-115852138D01*
X166612469Y-116038568D01*
X166629220Y-116078418D01*
X166645417Y-116118508D01*
X166648542Y-116124384D01*
X166648544Y-116124389D01*
X166648547Y-116124393D01*
X166741369Y-116296065D01*
X166765564Y-116331936D01*
X166789218Y-116368084D01*
X166793420Y-116373236D01*
X166793426Y-116373244D01*
X166793433Y-116373251D01*
X166917832Y-116523623D01*
X166948498Y-116554076D01*
X166978756Y-116584975D01*
X166983882Y-116589214D01*
X166983888Y-116589220D01*
X166983895Y-116589224D01*
X167135130Y-116712569D01*
X167171133Y-116736489D01*
X167206812Y-116760920D01*
X167212666Y-116764084D01*
X167212670Y-116764087D01*
X167212674Y-116764089D01*
X167384993Y-116855712D01*
X167424972Y-116872190D01*
X167464700Y-116889218D01*
X167471056Y-116891185D01*
X167471063Y-116891188D01*
X167471070Y-116891189D01*
X167657898Y-116947597D01*
X167700337Y-116956000D01*
X167742595Y-116964983D01*
X167749212Y-116965677D01*
X167749220Y-116965679D01*
X167749228Y-116965679D01*
X167943452Y-116984723D01*
X168091139Y-116999204D01*
X168188432Y-117028579D01*
X168278159Y-117076287D01*
X168356911Y-117140517D01*
X168421690Y-117218820D01*
X168470026Y-117308216D01*
X168500077Y-117405296D01*
X168513001Y-117528257D01*
X168513000Y-121986577D01*
X168510693Y-122010000D01*
X168519903Y-122103508D01*
X168547178Y-122193423D01*
X168591471Y-122276289D01*
X168651079Y-122348921D01*
X168723711Y-122408529D01*
X168806577Y-122452822D01*
X168873000Y-122472971D01*
X168873000Y-127547029D01*
X168806577Y-127567178D01*
X168723711Y-127611471D01*
X168651079Y-127671079D01*
X168591471Y-127743711D01*
X168547178Y-127826577D01*
X168519903Y-127916492D01*
X168510693Y-128010000D01*
X168513000Y-128033423D01*
X168513000Y-131212829D01*
X168435439Y-130822901D01*
X168244948Y-130363017D01*
X167968399Y-129949131D01*
X167616419Y-129597151D01*
X167202533Y-129320602D01*
X166742649Y-129130111D01*
X166254438Y-129033000D01*
X165756662Y-129033000D01*
X165268451Y-129130111D01*
X164808567Y-129320602D01*
X164394681Y-129597151D01*
X164042701Y-129949131D01*
X163766152Y-130363017D01*
X163575661Y-130822901D01*
X163478550Y-131311112D01*
X163478550Y-131808888D01*
X163575661Y-132297099D01*
X163766152Y-132756983D01*
X164042701Y-133170869D01*
X164394681Y-133522849D01*
X164808567Y-133799398D01*
X165268451Y-133989889D01*
X165756662Y-134087000D01*
X166254438Y-134087000D01*
X166742649Y-133989889D01*
X167202533Y-133799398D01*
X167616419Y-133522849D01*
X167968399Y-133170869D01*
X168244948Y-132756983D01*
X168435439Y-132297099D01*
X168513000Y-131907171D01*
X168513001Y-139533000D01*
X140467000Y-139533000D01*
X140467000Y-132303002D01*
X140655046Y-132756983D01*
X140931595Y-133170869D01*
X141283575Y-133522849D01*
X141697461Y-133799398D01*
X142157345Y-133989889D01*
X142645556Y-134087000D01*
X143143332Y-134087000D01*
X143631543Y-133989889D01*
X144091427Y-133799398D01*
X144505313Y-133522849D01*
X144857293Y-133170869D01*
X145133842Y-132756983D01*
X145324333Y-132297099D01*
X145421444Y-131808888D01*
X145421444Y-131311112D01*
X145324333Y-130822901D01*
X145133842Y-130363017D01*
X144857293Y-129949131D01*
X144505313Y-129597151D01*
X144091427Y-129320602D01*
X143631543Y-129130111D01*
X143143332Y-129033000D01*
X142645556Y-129033000D01*
X142157345Y-129130111D01*
X141697461Y-129320602D01*
X141283575Y-129597151D01*
X140931595Y-129949131D01*
X140655046Y-130363017D01*
X140467000Y-130816998D01*
X140467000Y-120260000D01*
X146971418Y-120260000D01*
X146971418Y-121860000D01*
X146977732Y-121924103D01*
X146996430Y-121985743D01*
X147026794Y-122042550D01*
X147067657Y-122092343D01*
X147117450Y-122133206D01*
X147174257Y-122163570D01*
X147235897Y-122182268D01*
X147300000Y-122188582D01*
X148900000Y-122188582D01*
X148964103Y-122182268D01*
X149025743Y-122163570D01*
X149082550Y-122133206D01*
X149132343Y-122092343D01*
X149164874Y-122052702D01*
X149826903Y-122052702D01*
X149898486Y-122296671D01*
X150153996Y-122417571D01*
X150428184Y-122486300D01*
X150710512Y-122500217D01*
X150990130Y-122458787D01*
X151256292Y-122363603D01*
X151381514Y-122296671D01*
X151453097Y-122052702D01*
X150640000Y-121239605D01*
X149826903Y-122052702D01*
X149164874Y-122052702D01*
X149173206Y-122042550D01*
X149203570Y-121985743D01*
X149222268Y-121924103D01*
X149228582Y-121860000D01*
X149228582Y-121324881D01*
X149241213Y-121410130D01*
X149336397Y-121676292D01*
X149403329Y-121801514D01*
X149647298Y-121873097D01*
X150460395Y-121060000D01*
X150819605Y-121060000D01*
X151632702Y-121873097D01*
X151876671Y-121801514D01*
X151997571Y-121546004D01*
X152066300Y-121271816D01*
X152067641Y-121244607D01*
X152096310Y-121388734D01*
X152181266Y-121593835D01*
X152304602Y-121778421D01*
X152461579Y-121935398D01*
X152646165Y-122058734D01*
X152851266Y-122143690D01*
X153069000Y-122187000D01*
X153291000Y-122187000D01*
X153508734Y-122143690D01*
X153713835Y-122058734D01*
X153898421Y-121935398D01*
X154055398Y-121778421D01*
X154178734Y-121593835D01*
X154263690Y-121388734D01*
X154307000Y-121171000D01*
X154307000Y-120949000D01*
X154593000Y-120949000D01*
X154593000Y-121171000D01*
X154636310Y-121388734D01*
X154721266Y-121593835D01*
X154844602Y-121778421D01*
X155001579Y-121935398D01*
X155186165Y-122058734D01*
X155391266Y-122143690D01*
X155609000Y-122187000D01*
X155831000Y-122187000D01*
X156048734Y-122143690D01*
X156253835Y-122058734D01*
X156438421Y-121935398D01*
X156595398Y-121778421D01*
X156718734Y-121593835D01*
X156803690Y-121388734D01*
X156847000Y-121171000D01*
X156847000Y-120949000D01*
X157133000Y-120949000D01*
X157133000Y-121171000D01*
X157176310Y-121388734D01*
X157261266Y-121593835D01*
X157384602Y-121778421D01*
X157541579Y-121935398D01*
X157726165Y-122058734D01*
X157931266Y-122143690D01*
X158149000Y-122187000D01*
X158371000Y-122187000D01*
X158588734Y-122143690D01*
X158793835Y-122058734D01*
X158978421Y-121935398D01*
X159135398Y-121778421D01*
X159258734Y-121593835D01*
X159343690Y-121388734D01*
X159387000Y-121171000D01*
X159387000Y-120949000D01*
X159673000Y-120949000D01*
X159673000Y-121171000D01*
X159716310Y-121388734D01*
X159801266Y-121593835D01*
X159924602Y-121778421D01*
X160081579Y-121935398D01*
X160266165Y-122058734D01*
X160471266Y-122143690D01*
X160689000Y-122187000D01*
X160911000Y-122187000D01*
X161128734Y-122143690D01*
X161333835Y-122058734D01*
X161518421Y-121935398D01*
X161675398Y-121778421D01*
X161798734Y-121593835D01*
X161883690Y-121388734D01*
X161927000Y-121171000D01*
X161927000Y-120949000D01*
X161883690Y-120731266D01*
X161798734Y-120526165D01*
X161675398Y-120341579D01*
X161518421Y-120184602D01*
X161333835Y-120061266D01*
X161128734Y-119976310D01*
X160911000Y-119933000D01*
X160689000Y-119933000D01*
X160471266Y-119976310D01*
X160266165Y-120061266D01*
X160081579Y-120184602D01*
X159924602Y-120341579D01*
X159801266Y-120526165D01*
X159716310Y-120731266D01*
X159673000Y-120949000D01*
X159387000Y-120949000D01*
X159343690Y-120731266D01*
X159258734Y-120526165D01*
X159135398Y-120341579D01*
X158978421Y-120184602D01*
X158793835Y-120061266D01*
X158588734Y-119976310D01*
X158371000Y-119933000D01*
X158149000Y-119933000D01*
X157931266Y-119976310D01*
X157726165Y-120061266D01*
X157541579Y-120184602D01*
X157384602Y-120341579D01*
X157261266Y-120526165D01*
X157176310Y-120731266D01*
X157133000Y-120949000D01*
X156847000Y-120949000D01*
X156803690Y-120731266D01*
X156718734Y-120526165D01*
X156595398Y-120341579D01*
X156438421Y-120184602D01*
X156253835Y-120061266D01*
X156048734Y-119976310D01*
X155831000Y-119933000D01*
X155609000Y-119933000D01*
X155391266Y-119976310D01*
X155186165Y-120061266D01*
X155001579Y-120184602D01*
X154844602Y-120341579D01*
X154721266Y-120526165D01*
X154636310Y-120731266D01*
X154593000Y-120949000D01*
X154307000Y-120949000D01*
X154263690Y-120731266D01*
X154178734Y-120526165D01*
X154055398Y-120341579D01*
X153898421Y-120184602D01*
X153713835Y-120061266D01*
X153508734Y-119976310D01*
X153291000Y-119933000D01*
X153069000Y-119933000D01*
X152851266Y-119976310D01*
X152646165Y-120061266D01*
X152461579Y-120184602D01*
X152304602Y-120341579D01*
X152181266Y-120526165D01*
X152096310Y-120731266D01*
X152065160Y-120887867D01*
X152038787Y-120709870D01*
X151943603Y-120443708D01*
X151876671Y-120318486D01*
X151632702Y-120246903D01*
X150819605Y-121060000D01*
X150460395Y-121060000D01*
X149647298Y-120246903D01*
X149403329Y-120318486D01*
X149282429Y-120573996D01*
X149228582Y-120788814D01*
X149228582Y-120260000D01*
X149222268Y-120195897D01*
X149203570Y-120134257D01*
X149173206Y-120077450D01*
X149164875Y-120067298D01*
X149826903Y-120067298D01*
X150640000Y-120880395D01*
X151453097Y-120067298D01*
X151381514Y-119823329D01*
X151126004Y-119702429D01*
X150851816Y-119633700D01*
X150569488Y-119619783D01*
X150289870Y-119661213D01*
X150023708Y-119756397D01*
X149898486Y-119823329D01*
X149826903Y-120067298D01*
X149164875Y-120067298D01*
X149132343Y-120027657D01*
X149082550Y-119986794D01*
X149025743Y-119956430D01*
X148964103Y-119937732D01*
X148900000Y-119931418D01*
X147300000Y-119931418D01*
X147235897Y-119937732D01*
X147174257Y-119956430D01*
X147117450Y-119986794D01*
X147067657Y-120027657D01*
X147026794Y-120077450D01*
X146996430Y-120134257D01*
X146977732Y-120195897D01*
X146971418Y-120260000D01*
X140467000Y-120260000D01*
X140467000Y-117533326D01*
X140479204Y-117408861D01*
X140508579Y-117311568D01*
X140556287Y-117221841D01*
X140620517Y-117143089D01*
X140698820Y-117078310D01*
X140788216Y-117029974D01*
X140885296Y-116999923D01*
X141027966Y-116984927D01*
X141040214Y-116985013D01*
X141046842Y-116984363D01*
X141240939Y-116963962D01*
X141283303Y-116955266D01*
X141325755Y-116947168D01*
X141332126Y-116945244D01*
X141332132Y-116945243D01*
X141332138Y-116945241D01*
X141518568Y-116887531D01*
X141558418Y-116870780D01*
X141598508Y-116854583D01*
X141604384Y-116851458D01*
X141604389Y-116851456D01*
X141604393Y-116851453D01*
X141776065Y-116758631D01*
X141811936Y-116734436D01*
X141848084Y-116710782D01*
X141853236Y-116706580D01*
X141853244Y-116706574D01*
X141853251Y-116706567D01*
X142003623Y-116582168D01*
X142034076Y-116551502D01*
X142064975Y-116521244D01*
X142069214Y-116516118D01*
X142069220Y-116516112D01*
X142069224Y-116516105D01*
X142192569Y-116364870D01*
X142216489Y-116328867D01*
X142240920Y-116293188D01*
X142244084Y-116287334D01*
X142244087Y-116287330D01*
X142244089Y-116287326D01*
X142335712Y-116115007D01*
X142352190Y-116075028D01*
X142369218Y-116035300D01*
X142371187Y-116028939D01*
X142371188Y-116028937D01*
X142371189Y-116028930D01*
X142427597Y-115842102D01*
X142436000Y-115799663D01*
X142444983Y-115757405D01*
X142445677Y-115750788D01*
X142445679Y-115750780D01*
X142445679Y-115750772D01*
X142464723Y-115556548D01*
X142464723Y-115556541D01*
X142467000Y-115533423D01*
X142467000Y-110987000D01*
X150976577Y-110987000D01*
X151000000Y-110989307D01*
X151023422Y-110987000D01*
X151023423Y-110987000D01*
X151093508Y-110980097D01*
X151183423Y-110952822D01*
X151266289Y-110908529D01*
X151338921Y-110848921D01*
X151398529Y-110776289D01*
X151442822Y-110693423D01*
X151462971Y-110627000D01*
X156537029Y-110627000D01*
X156557178Y-110693423D01*
G36*
X227457178Y-110683423D02*
G01*
X227462789Y-110693920D01*
X227501471Y-110766289D01*
X227561079Y-110838921D01*
X227633711Y-110898529D01*
X227716577Y-110942822D01*
X227806492Y-110970097D01*
X227900000Y-110979307D01*
X227923422Y-110977000D01*
X237523000Y-110977000D01*
X237523001Y-115523423D01*
X237525030Y-115544025D01*
X237524987Y-115550214D01*
X237525637Y-115556842D01*
X237546038Y-115750939D01*
X237554734Y-115793303D01*
X237562832Y-115835755D01*
X237564756Y-115842126D01*
X237564757Y-115842132D01*
X237564759Y-115842138D01*
X237622469Y-116028568D01*
X237639220Y-116068418D01*
X237655417Y-116108508D01*
X237658542Y-116114384D01*
X237658544Y-116114389D01*
X237658547Y-116114393D01*
X237751369Y-116286065D01*
X237775564Y-116321936D01*
X237799218Y-116358084D01*
X237803420Y-116363236D01*
X237803426Y-116363244D01*
X237803433Y-116363251D01*
X237927832Y-116513623D01*
X237958498Y-116544076D01*
X237988756Y-116574975D01*
X237993882Y-116579214D01*
X237993888Y-116579220D01*
X237993895Y-116579224D01*
X238145130Y-116702569D01*
X238181133Y-116726489D01*
X238216812Y-116750920D01*
X238222666Y-116754084D01*
X238222670Y-116754087D01*
X238222674Y-116754089D01*
X238394993Y-116845712D01*
X238434972Y-116862190D01*
X238474700Y-116879218D01*
X238481056Y-116881185D01*
X238481063Y-116881188D01*
X238481070Y-116881189D01*
X238667898Y-116937597D01*
X238710337Y-116946000D01*
X238752595Y-116954983D01*
X238759212Y-116955677D01*
X238759220Y-116955679D01*
X238759228Y-116955679D01*
X238953452Y-116974723D01*
X239101139Y-116989204D01*
X239198432Y-117018579D01*
X239288159Y-117066287D01*
X239366911Y-117130517D01*
X239431690Y-117208820D01*
X239480026Y-117298216D01*
X239510077Y-117395296D01*
X239523000Y-117518248D01*
X239523001Y-139523000D01*
X211477000Y-139523000D01*
X211477000Y-128023423D01*
X211479307Y-128000000D01*
X211470097Y-127906492D01*
X211462893Y-127882743D01*
X218306000Y-127882743D01*
X218306000Y-128097257D01*
X218347850Y-128307650D01*
X218429941Y-128505835D01*
X218549119Y-128684197D01*
X218700803Y-128835881D01*
X218879165Y-128955059D01*
X219077350Y-129037150D01*
X219287743Y-129079000D01*
X219502257Y-129079000D01*
X219712650Y-129037150D01*
X219910835Y-128955059D01*
X220089197Y-128835881D01*
X220240881Y-128684197D01*
X220360059Y-128505835D01*
X220442150Y-128307650D01*
X220484000Y-128097257D01*
X220484000Y-127882743D01*
X229556000Y-127882743D01*
X229556000Y-128097257D01*
X229597850Y-128307650D01*
X229679941Y-128505835D01*
X229799119Y-128684197D01*
X229950803Y-128835881D01*
X230129165Y-128955059D01*
X230327350Y-129037150D01*
X230537743Y-129079000D01*
X230752257Y-129079000D01*
X230962650Y-129037150D01*
X231160835Y-128955059D01*
X231339197Y-128835881D01*
X231490881Y-128684197D01*
X231610059Y-128505835D01*
X231692150Y-128307650D01*
X231734000Y-128097257D01*
X231734000Y-127882743D01*
X231692150Y-127672350D01*
X231610059Y-127474165D01*
X231490881Y-127295803D01*
X231339197Y-127144119D01*
X231160835Y-127024941D01*
X230962650Y-126942850D01*
X230752257Y-126901000D01*
X230537743Y-126901000D01*
X230327350Y-126942850D01*
X230129165Y-127024941D01*
X229950803Y-127144119D01*
X229799119Y-127295803D01*
X229679941Y-127474165D01*
X229597850Y-127672350D01*
X229556000Y-127882743D01*
X220484000Y-127882743D01*
X220442150Y-127672350D01*
X220360059Y-127474165D01*
X220240881Y-127295803D01*
X220089197Y-127144119D01*
X219910835Y-127024941D01*
X219712650Y-126942850D01*
X219502257Y-126901000D01*
X219287743Y-126901000D01*
X219077350Y-126942850D01*
X218879165Y-127024941D01*
X218700803Y-127144119D01*
X218549119Y-127295803D01*
X218429941Y-127474165D01*
X218347850Y-127672350D01*
X218306000Y-127882743D01*
X211462893Y-127882743D01*
X211442822Y-127816577D01*
X211398529Y-127733711D01*
X211338921Y-127661079D01*
X211266289Y-127601471D01*
X211183423Y-127557178D01*
X211127000Y-127540063D01*
X211127000Y-125342743D01*
X218306000Y-125342743D01*
X218306000Y-125557257D01*
X218347850Y-125767650D01*
X218429941Y-125965835D01*
X218549119Y-126144197D01*
X218700803Y-126295881D01*
X218879165Y-126415059D01*
X219077350Y-126497150D01*
X219287743Y-126539000D01*
X219502257Y-126539000D01*
X219712650Y-126497150D01*
X219910835Y-126415059D01*
X220089197Y-126295881D01*
X220240881Y-126144197D01*
X220360059Y-125965835D01*
X220442150Y-125767650D01*
X220484000Y-125557257D01*
X220484000Y-125342743D01*
X229556000Y-125342743D01*
X229556000Y-125557257D01*
X229597850Y-125767650D01*
X229679941Y-125965835D01*
X229799119Y-126144197D01*
X229950803Y-126295881D01*
X230129165Y-126415059D01*
X230327350Y-126497150D01*
X230537743Y-126539000D01*
X230752257Y-126539000D01*
X230962650Y-126497150D01*
X231160835Y-126415059D01*
X231339197Y-126295881D01*
X231490881Y-126144197D01*
X231610059Y-125965835D01*
X231692150Y-125767650D01*
X231734000Y-125557257D01*
X231734000Y-125342743D01*
X231692150Y-125132350D01*
X231610059Y-124934165D01*
X231490881Y-124755803D01*
X231339197Y-124604119D01*
X231160835Y-124484941D01*
X230962650Y-124402850D01*
X230752257Y-124361000D01*
X230537743Y-124361000D01*
X230327350Y-124402850D01*
X230129165Y-124484941D01*
X229950803Y-124604119D01*
X229799119Y-124755803D01*
X229679941Y-124934165D01*
X229597850Y-125132350D01*
X229556000Y-125342743D01*
X220484000Y-125342743D01*
X220442150Y-125132350D01*
X220360059Y-124934165D01*
X220240881Y-124755803D01*
X220089197Y-124604119D01*
X219910835Y-124484941D01*
X219712650Y-124402850D01*
X219502257Y-124361000D01*
X219287743Y-124361000D01*
X219077350Y-124402850D01*
X218879165Y-124484941D01*
X218700803Y-124604119D01*
X218549119Y-124755803D01*
X218429941Y-124934165D01*
X218347850Y-125132350D01*
X218306000Y-125342743D01*
X211127000Y-125342743D01*
X211127000Y-122802743D01*
X218306000Y-122802743D01*
X218306000Y-123017257D01*
X218347850Y-123227650D01*
X218429941Y-123425835D01*
X218549119Y-123604197D01*
X218700803Y-123755881D01*
X218879165Y-123875059D01*
X219077350Y-123957150D01*
X219287743Y-123999000D01*
X219502257Y-123999000D01*
X219712650Y-123957150D01*
X219910835Y-123875059D01*
X220089197Y-123755881D01*
X220240881Y-123604197D01*
X220360059Y-123425835D01*
X220442150Y-123227650D01*
X220484000Y-123017257D01*
X220484000Y-122802743D01*
X229556000Y-122802743D01*
X229556000Y-123017257D01*
X229597850Y-123227650D01*
X229679941Y-123425835D01*
X229799119Y-123604197D01*
X229950803Y-123755881D01*
X230129165Y-123875059D01*
X230327350Y-123957150D01*
X230537743Y-123999000D01*
X230752257Y-123999000D01*
X230962650Y-123957150D01*
X231160835Y-123875059D01*
X231339197Y-123755881D01*
X231490881Y-123604197D01*
X231610059Y-123425835D01*
X231692150Y-123227650D01*
X231734000Y-123017257D01*
X231734000Y-122802743D01*
X231692150Y-122592350D01*
X231610059Y-122394165D01*
X231490881Y-122215803D01*
X231339197Y-122064119D01*
X231160835Y-121944941D01*
X230962650Y-121862850D01*
X230752257Y-121821000D01*
X230537743Y-121821000D01*
X230327350Y-121862850D01*
X230129165Y-121944941D01*
X229950803Y-122064119D01*
X229799119Y-122215803D01*
X229679941Y-122394165D01*
X229597850Y-122592350D01*
X229556000Y-122802743D01*
X220484000Y-122802743D01*
X220442150Y-122592350D01*
X220360059Y-122394165D01*
X220240881Y-122215803D01*
X220089197Y-122064119D01*
X219910835Y-121944941D01*
X219712650Y-121862850D01*
X219502257Y-121821000D01*
X219287743Y-121821000D01*
X219077350Y-121862850D01*
X218879165Y-121944941D01*
X218700803Y-122064119D01*
X218549119Y-122215803D01*
X218429941Y-122394165D01*
X218347850Y-122592350D01*
X218306000Y-122802743D01*
X211127000Y-122802743D01*
X211127000Y-122459937D01*
X211183423Y-122442822D01*
X211266289Y-122398529D01*
X211338921Y-122338921D01*
X211398529Y-122266289D01*
X211442822Y-122183423D01*
X211470097Y-122093508D01*
X211479307Y-122000000D01*
X211477000Y-121976577D01*
X211477000Y-117523326D01*
X211489204Y-117398861D01*
X211518579Y-117301568D01*
X211566287Y-117211841D01*
X211630517Y-117133089D01*
X211708820Y-117068310D01*
X211798216Y-117019974D01*
X211895296Y-116989923D01*
X212037966Y-116974927D01*
X212050214Y-116975013D01*
X212056842Y-116974363D01*
X212250939Y-116953962D01*
X212293303Y-116945266D01*
X212335755Y-116937168D01*
X212342126Y-116935244D01*
X212342132Y-116935243D01*
X212342138Y-116935241D01*
X212528568Y-116877531D01*
X212568418Y-116860780D01*
X212608508Y-116844583D01*
X212614384Y-116841458D01*
X212614389Y-116841456D01*
X212614393Y-116841453D01*
X212786065Y-116748631D01*
X212821936Y-116724436D01*
X212858084Y-116700782D01*
X212863236Y-116696580D01*
X212863244Y-116696574D01*
X212863251Y-116696567D01*
X213013623Y-116572168D01*
X213044076Y-116541502D01*
X213074975Y-116511244D01*
X213079214Y-116506118D01*
X213079220Y-116506112D01*
X213079224Y-116506105D01*
X213202569Y-116354870D01*
X213226489Y-116318867D01*
X213250920Y-116283188D01*
X213254084Y-116277334D01*
X213254087Y-116277330D01*
X213254089Y-116277326D01*
X213345712Y-116105007D01*
X213362190Y-116065028D01*
X213379218Y-116025300D01*
X213381187Y-116018939D01*
X213381188Y-116018937D01*
X213381189Y-116018930D01*
X213437597Y-115832102D01*
X213446000Y-115789663D01*
X213454983Y-115747405D01*
X213455677Y-115740788D01*
X213455679Y-115740780D01*
X213455679Y-115740772D01*
X213474723Y-115546548D01*
X213474723Y-115546541D01*
X213477000Y-115523423D01*
X213477000Y-110977536D01*
X221876310Y-110986974D01*
X221900000Y-110989307D01*
X221946661Y-110984711D01*
X221992980Y-110980201D01*
X221993236Y-110980124D01*
X221993507Y-110980097D01*
X222038615Y-110966414D01*
X222082925Y-110953027D01*
X222083161Y-110952901D01*
X222083422Y-110952822D01*
X222125117Y-110930536D01*
X222165841Y-110908827D01*
X222166047Y-110908658D01*
X222166289Y-110908529D01*
X222202814Y-110878554D01*
X222238540Y-110849301D01*
X222238710Y-110849094D01*
X222238921Y-110848921D01*
X222268888Y-110812407D01*
X222298229Y-110776736D01*
X222298355Y-110776501D01*
X222298529Y-110776289D01*
X222320683Y-110734841D01*
X222342616Y-110693920D01*
X222342695Y-110693661D01*
X222342822Y-110693423D01*
X222356313Y-110648948D01*
X222362998Y-110627000D01*
X227440063Y-110627000D01*
X227457178Y-110683423D01*
G37*
X227457178Y-110683423D02*
X227462789Y-110693920D01*
X227501471Y-110766289D01*
X227561079Y-110838921D01*
X227633711Y-110898529D01*
X227716577Y-110942822D01*
X227806492Y-110970097D01*
X227900000Y-110979307D01*
X227923422Y-110977000D01*
X237523000Y-110977000D01*
X237523001Y-115523423D01*
X237525030Y-115544025D01*
X237524987Y-115550214D01*
X237525637Y-115556842D01*
X237546038Y-115750939D01*
X237554734Y-115793303D01*
X237562832Y-115835755D01*
X237564756Y-115842126D01*
X237564757Y-115842132D01*
X237564759Y-115842138D01*
X237622469Y-116028568D01*
X237639220Y-116068418D01*
X237655417Y-116108508D01*
X237658542Y-116114384D01*
X237658544Y-116114389D01*
X237658547Y-116114393D01*
X237751369Y-116286065D01*
X237775564Y-116321936D01*
X237799218Y-116358084D01*
X237803420Y-116363236D01*
X237803426Y-116363244D01*
X237803433Y-116363251D01*
X237927832Y-116513623D01*
X237958498Y-116544076D01*
X237988756Y-116574975D01*
X237993882Y-116579214D01*
X237993888Y-116579220D01*
X237993895Y-116579224D01*
X238145130Y-116702569D01*
X238181133Y-116726489D01*
X238216812Y-116750920D01*
X238222666Y-116754084D01*
X238222670Y-116754087D01*
X238222674Y-116754089D01*
X238394993Y-116845712D01*
X238434972Y-116862190D01*
X238474700Y-116879218D01*
X238481056Y-116881185D01*
X238481063Y-116881188D01*
X238481070Y-116881189D01*
X238667898Y-116937597D01*
X238710337Y-116946000D01*
X238752595Y-116954983D01*
X238759212Y-116955677D01*
X238759220Y-116955679D01*
X238759228Y-116955679D01*
X238953452Y-116974723D01*
X239101139Y-116989204D01*
X239198432Y-117018579D01*
X239288159Y-117066287D01*
X239366911Y-117130517D01*
X239431690Y-117208820D01*
X239480026Y-117298216D01*
X239510077Y-117395296D01*
X239523000Y-117518248D01*
X239523001Y-139523000D01*
X211477000Y-139523000D01*
X211477000Y-128023423D01*
X211479307Y-128000000D01*
X211470097Y-127906492D01*
X211462893Y-127882743D01*
X218306000Y-127882743D01*
X218306000Y-128097257D01*
X218347850Y-128307650D01*
X218429941Y-128505835D01*
X218549119Y-128684197D01*
X218700803Y-128835881D01*
X218879165Y-128955059D01*
X219077350Y-129037150D01*
X219287743Y-129079000D01*
X219502257Y-129079000D01*
X219712650Y-129037150D01*
X219910835Y-128955059D01*
X220089197Y-128835881D01*
X220240881Y-128684197D01*
X220360059Y-128505835D01*
X220442150Y-128307650D01*
X220484000Y-128097257D01*
X220484000Y-127882743D01*
X229556000Y-127882743D01*
X229556000Y-128097257D01*
X229597850Y-128307650D01*
X229679941Y-128505835D01*
X229799119Y-128684197D01*
X229950803Y-128835881D01*
X230129165Y-128955059D01*
X230327350Y-129037150D01*
X230537743Y-129079000D01*
X230752257Y-129079000D01*
X230962650Y-129037150D01*
X231160835Y-128955059D01*
X231339197Y-128835881D01*
X231490881Y-128684197D01*
X231610059Y-128505835D01*
X231692150Y-128307650D01*
X231734000Y-128097257D01*
X231734000Y-127882743D01*
X231692150Y-127672350D01*
X231610059Y-127474165D01*
X231490881Y-127295803D01*
X231339197Y-127144119D01*
X231160835Y-127024941D01*
X230962650Y-126942850D01*
X230752257Y-126901000D01*
X230537743Y-126901000D01*
X230327350Y-126942850D01*
X230129165Y-127024941D01*
X229950803Y-127144119D01*
X229799119Y-127295803D01*
X229679941Y-127474165D01*
X229597850Y-127672350D01*
X229556000Y-127882743D01*
X220484000Y-127882743D01*
X220442150Y-127672350D01*
X220360059Y-127474165D01*
X220240881Y-127295803D01*
X220089197Y-127144119D01*
X219910835Y-127024941D01*
X219712650Y-126942850D01*
X219502257Y-126901000D01*
X219287743Y-126901000D01*
X219077350Y-126942850D01*
X218879165Y-127024941D01*
X218700803Y-127144119D01*
X218549119Y-127295803D01*
X218429941Y-127474165D01*
X218347850Y-127672350D01*
X218306000Y-127882743D01*
X211462893Y-127882743D01*
X211442822Y-127816577D01*
X211398529Y-127733711D01*
X211338921Y-127661079D01*
X211266289Y-127601471D01*
X211183423Y-127557178D01*
X211127000Y-127540063D01*
X211127000Y-125342743D01*
X218306000Y-125342743D01*
X218306000Y-125557257D01*
X218347850Y-125767650D01*
X218429941Y-125965835D01*
X218549119Y-126144197D01*
X218700803Y-126295881D01*
X218879165Y-126415059D01*
X219077350Y-126497150D01*
X219287743Y-126539000D01*
X219502257Y-126539000D01*
X219712650Y-126497150D01*
X219910835Y-126415059D01*
X220089197Y-126295881D01*
X220240881Y-126144197D01*
X220360059Y-125965835D01*
X220442150Y-125767650D01*
X220484000Y-125557257D01*
X220484000Y-125342743D01*
X229556000Y-125342743D01*
X229556000Y-125557257D01*
X229597850Y-125767650D01*
X229679941Y-125965835D01*
X229799119Y-126144197D01*
X229950803Y-126295881D01*
X230129165Y-126415059D01*
X230327350Y-126497150D01*
X230537743Y-126539000D01*
X230752257Y-126539000D01*
X230962650Y-126497150D01*
X231160835Y-126415059D01*
X231339197Y-126295881D01*
X231490881Y-126144197D01*
X231610059Y-125965835D01*
X231692150Y-125767650D01*
X231734000Y-125557257D01*
X231734000Y-125342743D01*
X231692150Y-125132350D01*
X231610059Y-124934165D01*
X231490881Y-124755803D01*
X231339197Y-124604119D01*
X231160835Y-124484941D01*
X230962650Y-124402850D01*
X230752257Y-124361000D01*
X230537743Y-124361000D01*
X230327350Y-124402850D01*
X230129165Y-124484941D01*
X229950803Y-124604119D01*
X229799119Y-124755803D01*
X229679941Y-124934165D01*
X229597850Y-125132350D01*
X229556000Y-125342743D01*
X220484000Y-125342743D01*
X220442150Y-125132350D01*
X220360059Y-124934165D01*
X220240881Y-124755803D01*
X220089197Y-124604119D01*
X219910835Y-124484941D01*
X219712650Y-124402850D01*
X219502257Y-124361000D01*
X219287743Y-124361000D01*
X219077350Y-124402850D01*
X218879165Y-124484941D01*
X218700803Y-124604119D01*
X218549119Y-124755803D01*
X218429941Y-124934165D01*
X218347850Y-125132350D01*
X218306000Y-125342743D01*
X211127000Y-125342743D01*
X211127000Y-122802743D01*
X218306000Y-122802743D01*
X218306000Y-123017257D01*
X218347850Y-123227650D01*
X218429941Y-123425835D01*
X218549119Y-123604197D01*
X218700803Y-123755881D01*
X218879165Y-123875059D01*
X219077350Y-123957150D01*
X219287743Y-123999000D01*
X219502257Y-123999000D01*
X219712650Y-123957150D01*
X219910835Y-123875059D01*
X220089197Y-123755881D01*
X220240881Y-123604197D01*
X220360059Y-123425835D01*
X220442150Y-123227650D01*
X220484000Y-123017257D01*
X220484000Y-122802743D01*
X229556000Y-122802743D01*
X229556000Y-123017257D01*
X229597850Y-123227650D01*
X229679941Y-123425835D01*
X229799119Y-123604197D01*
X229950803Y-123755881D01*
X230129165Y-123875059D01*
X230327350Y-123957150D01*
X230537743Y-123999000D01*
X230752257Y-123999000D01*
X230962650Y-123957150D01*
X231160835Y-123875059D01*
X231339197Y-123755881D01*
X231490881Y-123604197D01*
X231610059Y-123425835D01*
X231692150Y-123227650D01*
X231734000Y-123017257D01*
X231734000Y-122802743D01*
X231692150Y-122592350D01*
X231610059Y-122394165D01*
X231490881Y-122215803D01*
X231339197Y-122064119D01*
X231160835Y-121944941D01*
X230962650Y-121862850D01*
X230752257Y-121821000D01*
X230537743Y-121821000D01*
X230327350Y-121862850D01*
X230129165Y-121944941D01*
X229950803Y-122064119D01*
X229799119Y-122215803D01*
X229679941Y-122394165D01*
X229597850Y-122592350D01*
X229556000Y-122802743D01*
X220484000Y-122802743D01*
X220442150Y-122592350D01*
X220360059Y-122394165D01*
X220240881Y-122215803D01*
X220089197Y-122064119D01*
X219910835Y-121944941D01*
X219712650Y-121862850D01*
X219502257Y-121821000D01*
X219287743Y-121821000D01*
X219077350Y-121862850D01*
X218879165Y-121944941D01*
X218700803Y-122064119D01*
X218549119Y-122215803D01*
X218429941Y-122394165D01*
X218347850Y-122592350D01*
X218306000Y-122802743D01*
X211127000Y-122802743D01*
X211127000Y-122459937D01*
X211183423Y-122442822D01*
X211266289Y-122398529D01*
X211338921Y-122338921D01*
X211398529Y-122266289D01*
X211442822Y-122183423D01*
X211470097Y-122093508D01*
X211479307Y-122000000D01*
X211477000Y-121976577D01*
X211477000Y-117523326D01*
X211489204Y-117398861D01*
X211518579Y-117301568D01*
X211566287Y-117211841D01*
X211630517Y-117133089D01*
X211708820Y-117068310D01*
X211798216Y-117019974D01*
X211895296Y-116989923D01*
X212037966Y-116974927D01*
X212050214Y-116975013D01*
X212056842Y-116974363D01*
X212250939Y-116953962D01*
X212293303Y-116945266D01*
X212335755Y-116937168D01*
X212342126Y-116935244D01*
X212342132Y-116935243D01*
X212342138Y-116935241D01*
X212528568Y-116877531D01*
X212568418Y-116860780D01*
X212608508Y-116844583D01*
X212614384Y-116841458D01*
X212614389Y-116841456D01*
X212614393Y-116841453D01*
X212786065Y-116748631D01*
X212821936Y-116724436D01*
X212858084Y-116700782D01*
X212863236Y-116696580D01*
X212863244Y-116696574D01*
X212863251Y-116696567D01*
X213013623Y-116572168D01*
X213044076Y-116541502D01*
X213074975Y-116511244D01*
X213079214Y-116506118D01*
X213079220Y-116506112D01*
X213079224Y-116506105D01*
X213202569Y-116354870D01*
X213226489Y-116318867D01*
X213250920Y-116283188D01*
X213254084Y-116277334D01*
X213254087Y-116277330D01*
X213254089Y-116277326D01*
X213345712Y-116105007D01*
X213362190Y-116065028D01*
X213379218Y-116025300D01*
X213381187Y-116018939D01*
X213381188Y-116018937D01*
X213381189Y-116018930D01*
X213437597Y-115832102D01*
X213446000Y-115789663D01*
X213454983Y-115747405D01*
X213455677Y-115740788D01*
X213455679Y-115740780D01*
X213455679Y-115740772D01*
X213474723Y-115546548D01*
X213474723Y-115546541D01*
X213477000Y-115523423D01*
X213477000Y-110977536D01*
X221876310Y-110986974D01*
X221900000Y-110989307D01*
X221946661Y-110984711D01*
X221992980Y-110980201D01*
X221993236Y-110980124D01*
X221993507Y-110980097D01*
X222038615Y-110966414D01*
X222082925Y-110953027D01*
X222083161Y-110952901D01*
X222083422Y-110952822D01*
X222125117Y-110930536D01*
X222165841Y-110908827D01*
X222166047Y-110908658D01*
X222166289Y-110908529D01*
X222202814Y-110878554D01*
X222238540Y-110849301D01*
X222238710Y-110849094D01*
X222238921Y-110848921D01*
X222268888Y-110812407D01*
X222298229Y-110776736D01*
X222298355Y-110776501D01*
X222298529Y-110776289D01*
X222320683Y-110734841D01*
X222342616Y-110693920D01*
X222342695Y-110693661D01*
X222342822Y-110693423D01*
X222356313Y-110648948D01*
X222362998Y-110627000D01*
X227440063Y-110627000D01*
X227457178Y-110683423D01*
G36*
X156557178Y-75683423D02*
G01*
X156601471Y-75766289D01*
X156661079Y-75838921D01*
X156733711Y-75898529D01*
X156816577Y-75942822D01*
X156906492Y-75970097D01*
X157000000Y-75979307D01*
X157023422Y-75977000D01*
X166523000Y-75977000D01*
X166523001Y-80523423D01*
X166525030Y-80544025D01*
X166524987Y-80550214D01*
X166525637Y-80556842D01*
X166546038Y-80750939D01*
X166554734Y-80793303D01*
X166562832Y-80835755D01*
X166564756Y-80842126D01*
X166564757Y-80842132D01*
X166564759Y-80842138D01*
X166622469Y-81028568D01*
X166639220Y-81068418D01*
X166655417Y-81108508D01*
X166658542Y-81114384D01*
X166658544Y-81114389D01*
X166658547Y-81114393D01*
X166751369Y-81286065D01*
X166775564Y-81321936D01*
X166799218Y-81358084D01*
X166803420Y-81363236D01*
X166803426Y-81363244D01*
X166803433Y-81363251D01*
X166927832Y-81513623D01*
X166958498Y-81544076D01*
X166988756Y-81574975D01*
X166993882Y-81579214D01*
X166993888Y-81579220D01*
X166993895Y-81579224D01*
X167145130Y-81702569D01*
X167181133Y-81726489D01*
X167216812Y-81750920D01*
X167222666Y-81754084D01*
X167222670Y-81754087D01*
X167222674Y-81754089D01*
X167394993Y-81845712D01*
X167434972Y-81862190D01*
X167474700Y-81879218D01*
X167481056Y-81881185D01*
X167481063Y-81881188D01*
X167481070Y-81881189D01*
X167667898Y-81937597D01*
X167710337Y-81946000D01*
X167752595Y-81954983D01*
X167759212Y-81955677D01*
X167759220Y-81955679D01*
X167759228Y-81955679D01*
X167953452Y-81974723D01*
X168101139Y-81989204D01*
X168198432Y-82018579D01*
X168288159Y-82066287D01*
X168366911Y-82130517D01*
X168431690Y-82208820D01*
X168480026Y-82298216D01*
X168510077Y-82395296D01*
X168523001Y-82518257D01*
X168523000Y-86976577D01*
X168520693Y-87000000D01*
X168529903Y-87093508D01*
X168557178Y-87183423D01*
X168574486Y-87215803D01*
X168601471Y-87266289D01*
X168661079Y-87338921D01*
X168733711Y-87398529D01*
X168816577Y-87442822D01*
X168873000Y-87459937D01*
X168873000Y-92540063D01*
X168816577Y-92557178D01*
X168733711Y-92601471D01*
X168661079Y-92661079D01*
X168601471Y-92733711D01*
X168557178Y-92816577D01*
X168529903Y-92906492D01*
X168520693Y-93000000D01*
X168523000Y-93023423D01*
X168523001Y-104523000D01*
X157023423Y-104523000D01*
X157000000Y-104520693D01*
X156976578Y-104523000D01*
X156976577Y-104523000D01*
X156906492Y-104529903D01*
X156816577Y-104557178D01*
X156733711Y-104601471D01*
X156661079Y-104661079D01*
X156601471Y-104733711D01*
X156557178Y-104816577D01*
X156540063Y-104873000D01*
X151459937Y-104873000D01*
X151442822Y-104816577D01*
X151398529Y-104733711D01*
X151338921Y-104661079D01*
X151266289Y-104601471D01*
X151183423Y-104557178D01*
X151093508Y-104529903D01*
X151023423Y-104523000D01*
X151000000Y-104520693D01*
X150976578Y-104523000D01*
X140477000Y-104523000D01*
X140477000Y-92882743D01*
X147306000Y-92882743D01*
X147306000Y-93097257D01*
X147347850Y-93307650D01*
X147429941Y-93505835D01*
X147549119Y-93684197D01*
X147700803Y-93835881D01*
X147879165Y-93955059D01*
X148077350Y-94037150D01*
X148287743Y-94079000D01*
X148502257Y-94079000D01*
X148712650Y-94037150D01*
X148910835Y-93955059D01*
X149089197Y-93835881D01*
X149240881Y-93684197D01*
X149360059Y-93505835D01*
X149442150Y-93307650D01*
X149484000Y-93097257D01*
X149484000Y-92882743D01*
X158556000Y-92882743D01*
X158556000Y-93097257D01*
X158597850Y-93307650D01*
X158679941Y-93505835D01*
X158799119Y-93684197D01*
X158950803Y-93835881D01*
X159129165Y-93955059D01*
X159327350Y-94037150D01*
X159537743Y-94079000D01*
X159752257Y-94079000D01*
X159962650Y-94037150D01*
X160160835Y-93955059D01*
X160339197Y-93835881D01*
X160490881Y-93684197D01*
X160610059Y-93505835D01*
X160692150Y-93307650D01*
X160734000Y-93097257D01*
X160734000Y-92882743D01*
X160692150Y-92672350D01*
X160610059Y-92474165D01*
X160490881Y-92295803D01*
X160339197Y-92144119D01*
X160160835Y-92024941D01*
X159962650Y-91942850D01*
X159752257Y-91901000D01*
X159537743Y-91901000D01*
X159327350Y-91942850D01*
X159129165Y-92024941D01*
X158950803Y-92144119D01*
X158799119Y-92295803D01*
X158679941Y-92474165D01*
X158597850Y-92672350D01*
X158556000Y-92882743D01*
X149484000Y-92882743D01*
X149442150Y-92672350D01*
X149360059Y-92474165D01*
X149240881Y-92295803D01*
X149089197Y-92144119D01*
X148910835Y-92024941D01*
X148712650Y-91942850D01*
X148502257Y-91901000D01*
X148287743Y-91901000D01*
X148077350Y-91942850D01*
X147879165Y-92024941D01*
X147700803Y-92144119D01*
X147549119Y-92295803D01*
X147429941Y-92474165D01*
X147347850Y-92672350D01*
X147306000Y-92882743D01*
X140477000Y-92882743D01*
X140477000Y-90342743D01*
X147306000Y-90342743D01*
X147306000Y-90557257D01*
X147347850Y-90767650D01*
X147429941Y-90965835D01*
X147549119Y-91144197D01*
X147700803Y-91295881D01*
X147879165Y-91415059D01*
X148077350Y-91497150D01*
X148287743Y-91539000D01*
X148502257Y-91539000D01*
X148712650Y-91497150D01*
X148910835Y-91415059D01*
X149089197Y-91295881D01*
X149240881Y-91144197D01*
X149360059Y-90965835D01*
X149442150Y-90767650D01*
X149484000Y-90557257D01*
X149484000Y-90342743D01*
X158556000Y-90342743D01*
X158556000Y-90557257D01*
X158597850Y-90767650D01*
X158679941Y-90965835D01*
X158799119Y-91144197D01*
X158950803Y-91295881D01*
X159129165Y-91415059D01*
X159327350Y-91497150D01*
X159537743Y-91539000D01*
X159752257Y-91539000D01*
X159962650Y-91497150D01*
X160160835Y-91415059D01*
X160339197Y-91295881D01*
X160490881Y-91144197D01*
X160610059Y-90965835D01*
X160692150Y-90767650D01*
X160734000Y-90557257D01*
X160734000Y-90342743D01*
X160692150Y-90132350D01*
X160610059Y-89934165D01*
X160490881Y-89755803D01*
X160339197Y-89604119D01*
X160160835Y-89484941D01*
X159962650Y-89402850D01*
X159752257Y-89361000D01*
X159537743Y-89361000D01*
X159327350Y-89402850D01*
X159129165Y-89484941D01*
X158950803Y-89604119D01*
X158799119Y-89755803D01*
X158679941Y-89934165D01*
X158597850Y-90132350D01*
X158556000Y-90342743D01*
X149484000Y-90342743D01*
X149442150Y-90132350D01*
X149360059Y-89934165D01*
X149240881Y-89755803D01*
X149089197Y-89604119D01*
X148910835Y-89484941D01*
X148712650Y-89402850D01*
X148502257Y-89361000D01*
X148287743Y-89361000D01*
X148077350Y-89402850D01*
X147879165Y-89484941D01*
X147700803Y-89604119D01*
X147549119Y-89755803D01*
X147429941Y-89934165D01*
X147347850Y-90132350D01*
X147306000Y-90342743D01*
X140477000Y-90342743D01*
X140477000Y-87802743D01*
X147306000Y-87802743D01*
X147306000Y-88017257D01*
X147347850Y-88227650D01*
X147429941Y-88425835D01*
X147549119Y-88604197D01*
X147700803Y-88755881D01*
X147879165Y-88875059D01*
X148077350Y-88957150D01*
X148287743Y-88999000D01*
X148502257Y-88999000D01*
X148712650Y-88957150D01*
X148910835Y-88875059D01*
X149089197Y-88755881D01*
X149240881Y-88604197D01*
X149360059Y-88425835D01*
X149442150Y-88227650D01*
X149484000Y-88017257D01*
X149484000Y-87802743D01*
X158556000Y-87802743D01*
X158556000Y-88017257D01*
X158597850Y-88227650D01*
X158679941Y-88425835D01*
X158799119Y-88604197D01*
X158950803Y-88755881D01*
X159129165Y-88875059D01*
X159327350Y-88957150D01*
X159537743Y-88999000D01*
X159752257Y-88999000D01*
X159962650Y-88957150D01*
X160160835Y-88875059D01*
X160339197Y-88755881D01*
X160490881Y-88604197D01*
X160610059Y-88425835D01*
X160692150Y-88227650D01*
X160734000Y-88017257D01*
X160734000Y-87802743D01*
X160692150Y-87592350D01*
X160610059Y-87394165D01*
X160490881Y-87215803D01*
X160339197Y-87064119D01*
X160160835Y-86944941D01*
X159962650Y-86862850D01*
X159752257Y-86821000D01*
X159537743Y-86821000D01*
X159327350Y-86862850D01*
X159129165Y-86944941D01*
X158950803Y-87064119D01*
X158799119Y-87215803D01*
X158679941Y-87394165D01*
X158597850Y-87592350D01*
X158556000Y-87802743D01*
X149484000Y-87802743D01*
X149442150Y-87592350D01*
X149360059Y-87394165D01*
X149240881Y-87215803D01*
X149089197Y-87064119D01*
X148910835Y-86944941D01*
X148712650Y-86862850D01*
X148502257Y-86821000D01*
X148287743Y-86821000D01*
X148077350Y-86862850D01*
X147879165Y-86944941D01*
X147700803Y-87064119D01*
X147549119Y-87215803D01*
X147429941Y-87394165D01*
X147347850Y-87592350D01*
X147306000Y-87802743D01*
X140477000Y-87802743D01*
X140477000Y-82523326D01*
X140489204Y-82398861D01*
X140518579Y-82301568D01*
X140566287Y-82211841D01*
X140630517Y-82133089D01*
X140708820Y-82068310D01*
X140798216Y-82019974D01*
X140895296Y-81989923D01*
X141037966Y-81974927D01*
X141050214Y-81975013D01*
X141056842Y-81974363D01*
X141250939Y-81953962D01*
X141293303Y-81945266D01*
X141335755Y-81937168D01*
X141342126Y-81935244D01*
X141342132Y-81935243D01*
X141342138Y-81935241D01*
X141528568Y-81877531D01*
X141568418Y-81860780D01*
X141608508Y-81844583D01*
X141614384Y-81841458D01*
X141614389Y-81841456D01*
X141614393Y-81841453D01*
X141786065Y-81748631D01*
X141821936Y-81724436D01*
X141858084Y-81700782D01*
X141863236Y-81696580D01*
X141863244Y-81696574D01*
X141863251Y-81696567D01*
X142013623Y-81572168D01*
X142044076Y-81541502D01*
X142074975Y-81511244D01*
X142079214Y-81506118D01*
X142079220Y-81506112D01*
X142079224Y-81506105D01*
X142202569Y-81354870D01*
X142226489Y-81318867D01*
X142250920Y-81283188D01*
X142254084Y-81277334D01*
X142254087Y-81277330D01*
X142254089Y-81277326D01*
X142345712Y-81105007D01*
X142362190Y-81065028D01*
X142379218Y-81025300D01*
X142381187Y-81018939D01*
X142381188Y-81018937D01*
X142381189Y-81018930D01*
X142437597Y-80832102D01*
X142446000Y-80789663D01*
X142454983Y-80747405D01*
X142455677Y-80740788D01*
X142455679Y-80740780D01*
X142455679Y-80740772D01*
X142474723Y-80546548D01*
X142474723Y-80546541D01*
X142477000Y-80523423D01*
X142477000Y-75977000D01*
X150976577Y-75977000D01*
X151000000Y-75979307D01*
X151023422Y-75977000D01*
X151023423Y-75977000D01*
X151093508Y-75970097D01*
X151183423Y-75942822D01*
X151266289Y-75898529D01*
X151338921Y-75838921D01*
X151398529Y-75766289D01*
X151442822Y-75683423D01*
X151459937Y-75627000D01*
X156540063Y-75627000D01*
X156557178Y-75683423D01*
G37*
X156557178Y-75683423D02*
X156601471Y-75766289D01*
X156661079Y-75838921D01*
X156733711Y-75898529D01*
X156816577Y-75942822D01*
X156906492Y-75970097D01*
X157000000Y-75979307D01*
X157023422Y-75977000D01*
X166523000Y-75977000D01*
X166523001Y-80523423D01*
X166525030Y-80544025D01*
X166524987Y-80550214D01*
X166525637Y-80556842D01*
X166546038Y-80750939D01*
X166554734Y-80793303D01*
X166562832Y-80835755D01*
X166564756Y-80842126D01*
X166564757Y-80842132D01*
X166564759Y-80842138D01*
X166622469Y-81028568D01*
X166639220Y-81068418D01*
X166655417Y-81108508D01*
X166658542Y-81114384D01*
X166658544Y-81114389D01*
X166658547Y-81114393D01*
X166751369Y-81286065D01*
X166775564Y-81321936D01*
X166799218Y-81358084D01*
X166803420Y-81363236D01*
X166803426Y-81363244D01*
X166803433Y-81363251D01*
X166927832Y-81513623D01*
X166958498Y-81544076D01*
X166988756Y-81574975D01*
X166993882Y-81579214D01*
X166993888Y-81579220D01*
X166993895Y-81579224D01*
X167145130Y-81702569D01*
X167181133Y-81726489D01*
X167216812Y-81750920D01*
X167222666Y-81754084D01*
X167222670Y-81754087D01*
X167222674Y-81754089D01*
X167394993Y-81845712D01*
X167434972Y-81862190D01*
X167474700Y-81879218D01*
X167481056Y-81881185D01*
X167481063Y-81881188D01*
X167481070Y-81881189D01*
X167667898Y-81937597D01*
X167710337Y-81946000D01*
X167752595Y-81954983D01*
X167759212Y-81955677D01*
X167759220Y-81955679D01*
X167759228Y-81955679D01*
X167953452Y-81974723D01*
X168101139Y-81989204D01*
X168198432Y-82018579D01*
X168288159Y-82066287D01*
X168366911Y-82130517D01*
X168431690Y-82208820D01*
X168480026Y-82298216D01*
X168510077Y-82395296D01*
X168523001Y-82518257D01*
X168523000Y-86976577D01*
X168520693Y-87000000D01*
X168529903Y-87093508D01*
X168557178Y-87183423D01*
X168574486Y-87215803D01*
X168601471Y-87266289D01*
X168661079Y-87338921D01*
X168733711Y-87398529D01*
X168816577Y-87442822D01*
X168873000Y-87459937D01*
X168873000Y-92540063D01*
X168816577Y-92557178D01*
X168733711Y-92601471D01*
X168661079Y-92661079D01*
X168601471Y-92733711D01*
X168557178Y-92816577D01*
X168529903Y-92906492D01*
X168520693Y-93000000D01*
X168523000Y-93023423D01*
X168523001Y-104523000D01*
X157023423Y-104523000D01*
X157000000Y-104520693D01*
X156976578Y-104523000D01*
X156976577Y-104523000D01*
X156906492Y-104529903D01*
X156816577Y-104557178D01*
X156733711Y-104601471D01*
X156661079Y-104661079D01*
X156601471Y-104733711D01*
X156557178Y-104816577D01*
X156540063Y-104873000D01*
X151459937Y-104873000D01*
X151442822Y-104816577D01*
X151398529Y-104733711D01*
X151338921Y-104661079D01*
X151266289Y-104601471D01*
X151183423Y-104557178D01*
X151093508Y-104529903D01*
X151023423Y-104523000D01*
X151000000Y-104520693D01*
X150976578Y-104523000D01*
X140477000Y-104523000D01*
X140477000Y-92882743D01*
X147306000Y-92882743D01*
X147306000Y-93097257D01*
X147347850Y-93307650D01*
X147429941Y-93505835D01*
X147549119Y-93684197D01*
X147700803Y-93835881D01*
X147879165Y-93955059D01*
X148077350Y-94037150D01*
X148287743Y-94079000D01*
X148502257Y-94079000D01*
X148712650Y-94037150D01*
X148910835Y-93955059D01*
X149089197Y-93835881D01*
X149240881Y-93684197D01*
X149360059Y-93505835D01*
X149442150Y-93307650D01*
X149484000Y-93097257D01*
X149484000Y-92882743D01*
X158556000Y-92882743D01*
X158556000Y-93097257D01*
X158597850Y-93307650D01*
X158679941Y-93505835D01*
X158799119Y-93684197D01*
X158950803Y-93835881D01*
X159129165Y-93955059D01*
X159327350Y-94037150D01*
X159537743Y-94079000D01*
X159752257Y-94079000D01*
X159962650Y-94037150D01*
X160160835Y-93955059D01*
X160339197Y-93835881D01*
X160490881Y-93684197D01*
X160610059Y-93505835D01*
X160692150Y-93307650D01*
X160734000Y-93097257D01*
X160734000Y-92882743D01*
X160692150Y-92672350D01*
X160610059Y-92474165D01*
X160490881Y-92295803D01*
X160339197Y-92144119D01*
X160160835Y-92024941D01*
X159962650Y-91942850D01*
X159752257Y-91901000D01*
X159537743Y-91901000D01*
X159327350Y-91942850D01*
X159129165Y-92024941D01*
X158950803Y-92144119D01*
X158799119Y-92295803D01*
X158679941Y-92474165D01*
X158597850Y-92672350D01*
X158556000Y-92882743D01*
X149484000Y-92882743D01*
X149442150Y-92672350D01*
X149360059Y-92474165D01*
X149240881Y-92295803D01*
X149089197Y-92144119D01*
X148910835Y-92024941D01*
X148712650Y-91942850D01*
X148502257Y-91901000D01*
X148287743Y-91901000D01*
X148077350Y-91942850D01*
X147879165Y-92024941D01*
X147700803Y-92144119D01*
X147549119Y-92295803D01*
X147429941Y-92474165D01*
X147347850Y-92672350D01*
X147306000Y-92882743D01*
X140477000Y-92882743D01*
X140477000Y-90342743D01*
X147306000Y-90342743D01*
X147306000Y-90557257D01*
X147347850Y-90767650D01*
X147429941Y-90965835D01*
X147549119Y-91144197D01*
X147700803Y-91295881D01*
X147879165Y-91415059D01*
X148077350Y-91497150D01*
X148287743Y-91539000D01*
X148502257Y-91539000D01*
X148712650Y-91497150D01*
X148910835Y-91415059D01*
X149089197Y-91295881D01*
X149240881Y-91144197D01*
X149360059Y-90965835D01*
X149442150Y-90767650D01*
X149484000Y-90557257D01*
X149484000Y-90342743D01*
X158556000Y-90342743D01*
X158556000Y-90557257D01*
X158597850Y-90767650D01*
X158679941Y-90965835D01*
X158799119Y-91144197D01*
X158950803Y-91295881D01*
X159129165Y-91415059D01*
X159327350Y-91497150D01*
X159537743Y-91539000D01*
X159752257Y-91539000D01*
X159962650Y-91497150D01*
X160160835Y-91415059D01*
X160339197Y-91295881D01*
X160490881Y-91144197D01*
X160610059Y-90965835D01*
X160692150Y-90767650D01*
X160734000Y-90557257D01*
X160734000Y-90342743D01*
X160692150Y-90132350D01*
X160610059Y-89934165D01*
X160490881Y-89755803D01*
X160339197Y-89604119D01*
X160160835Y-89484941D01*
X159962650Y-89402850D01*
X159752257Y-89361000D01*
X159537743Y-89361000D01*
X159327350Y-89402850D01*
X159129165Y-89484941D01*
X158950803Y-89604119D01*
X158799119Y-89755803D01*
X158679941Y-89934165D01*
X158597850Y-90132350D01*
X158556000Y-90342743D01*
X149484000Y-90342743D01*
X149442150Y-90132350D01*
X149360059Y-89934165D01*
X149240881Y-89755803D01*
X149089197Y-89604119D01*
X148910835Y-89484941D01*
X148712650Y-89402850D01*
X148502257Y-89361000D01*
X148287743Y-89361000D01*
X148077350Y-89402850D01*
X147879165Y-89484941D01*
X147700803Y-89604119D01*
X147549119Y-89755803D01*
X147429941Y-89934165D01*
X147347850Y-90132350D01*
X147306000Y-90342743D01*
X140477000Y-90342743D01*
X140477000Y-87802743D01*
X147306000Y-87802743D01*
X147306000Y-88017257D01*
X147347850Y-88227650D01*
X147429941Y-88425835D01*
X147549119Y-88604197D01*
X147700803Y-88755881D01*
X147879165Y-88875059D01*
X148077350Y-88957150D01*
X148287743Y-88999000D01*
X148502257Y-88999000D01*
X148712650Y-88957150D01*
X148910835Y-88875059D01*
X149089197Y-88755881D01*
X149240881Y-88604197D01*
X149360059Y-88425835D01*
X149442150Y-88227650D01*
X149484000Y-88017257D01*
X149484000Y-87802743D01*
X158556000Y-87802743D01*
X158556000Y-88017257D01*
X158597850Y-88227650D01*
X158679941Y-88425835D01*
X158799119Y-88604197D01*
X158950803Y-88755881D01*
X159129165Y-88875059D01*
X159327350Y-88957150D01*
X159537743Y-88999000D01*
X159752257Y-88999000D01*
X159962650Y-88957150D01*
X160160835Y-88875059D01*
X160339197Y-88755881D01*
X160490881Y-88604197D01*
X160610059Y-88425835D01*
X160692150Y-88227650D01*
X160734000Y-88017257D01*
X160734000Y-87802743D01*
X160692150Y-87592350D01*
X160610059Y-87394165D01*
X160490881Y-87215803D01*
X160339197Y-87064119D01*
X160160835Y-86944941D01*
X159962650Y-86862850D01*
X159752257Y-86821000D01*
X159537743Y-86821000D01*
X159327350Y-86862850D01*
X159129165Y-86944941D01*
X158950803Y-87064119D01*
X158799119Y-87215803D01*
X158679941Y-87394165D01*
X158597850Y-87592350D01*
X158556000Y-87802743D01*
X149484000Y-87802743D01*
X149442150Y-87592350D01*
X149360059Y-87394165D01*
X149240881Y-87215803D01*
X149089197Y-87064119D01*
X148910835Y-86944941D01*
X148712650Y-86862850D01*
X148502257Y-86821000D01*
X148287743Y-86821000D01*
X148077350Y-86862850D01*
X147879165Y-86944941D01*
X147700803Y-87064119D01*
X147549119Y-87215803D01*
X147429941Y-87394165D01*
X147347850Y-87592350D01*
X147306000Y-87802743D01*
X140477000Y-87802743D01*
X140477000Y-82523326D01*
X140489204Y-82398861D01*
X140518579Y-82301568D01*
X140566287Y-82211841D01*
X140630517Y-82133089D01*
X140708820Y-82068310D01*
X140798216Y-82019974D01*
X140895296Y-81989923D01*
X141037966Y-81974927D01*
X141050214Y-81975013D01*
X141056842Y-81974363D01*
X141250939Y-81953962D01*
X141293303Y-81945266D01*
X141335755Y-81937168D01*
X141342126Y-81935244D01*
X141342132Y-81935243D01*
X141342138Y-81935241D01*
X141528568Y-81877531D01*
X141568418Y-81860780D01*
X141608508Y-81844583D01*
X141614384Y-81841458D01*
X141614389Y-81841456D01*
X141614393Y-81841453D01*
X141786065Y-81748631D01*
X141821936Y-81724436D01*
X141858084Y-81700782D01*
X141863236Y-81696580D01*
X141863244Y-81696574D01*
X141863251Y-81696567D01*
X142013623Y-81572168D01*
X142044076Y-81541502D01*
X142074975Y-81511244D01*
X142079214Y-81506118D01*
X142079220Y-81506112D01*
X142079224Y-81506105D01*
X142202569Y-81354870D01*
X142226489Y-81318867D01*
X142250920Y-81283188D01*
X142254084Y-81277334D01*
X142254087Y-81277330D01*
X142254089Y-81277326D01*
X142345712Y-81105007D01*
X142362190Y-81065028D01*
X142379218Y-81025300D01*
X142381187Y-81018939D01*
X142381188Y-81018937D01*
X142381189Y-81018930D01*
X142437597Y-80832102D01*
X142446000Y-80789663D01*
X142454983Y-80747405D01*
X142455677Y-80740788D01*
X142455679Y-80740780D01*
X142455679Y-80740772D01*
X142474723Y-80546548D01*
X142474723Y-80546541D01*
X142477000Y-80523423D01*
X142477000Y-75977000D01*
X150976577Y-75977000D01*
X151000000Y-75979307D01*
X151023422Y-75977000D01*
X151023423Y-75977000D01*
X151093508Y-75970097D01*
X151183423Y-75942822D01*
X151266289Y-75898529D01*
X151338921Y-75838921D01*
X151398529Y-75766289D01*
X151442822Y-75683423D01*
X151459937Y-75627000D01*
X156540063Y-75627000D01*
X156557178Y-75683423D01*
G36*
X166523001Y-45023423D02*
G01*
X166525030Y-45044025D01*
X166524987Y-45050214D01*
X166525637Y-45056842D01*
X166546038Y-45250939D01*
X166554734Y-45293303D01*
X166562832Y-45335755D01*
X166564756Y-45342126D01*
X166564757Y-45342132D01*
X166564759Y-45342138D01*
X166622469Y-45528568D01*
X166639220Y-45568418D01*
X166655417Y-45608508D01*
X166658542Y-45614384D01*
X166658544Y-45614389D01*
X166658547Y-45614393D01*
X166751369Y-45786065D01*
X166775564Y-45821936D01*
X166799218Y-45858084D01*
X166803420Y-45863236D01*
X166803426Y-45863244D01*
X166803433Y-45863251D01*
X166927832Y-46013623D01*
X166958498Y-46044076D01*
X166988756Y-46074975D01*
X166993882Y-46079214D01*
X166993888Y-46079220D01*
X166993895Y-46079224D01*
X167145130Y-46202569D01*
X167181133Y-46226489D01*
X167216812Y-46250920D01*
X167222666Y-46254084D01*
X167222670Y-46254087D01*
X167222674Y-46254089D01*
X167394993Y-46345712D01*
X167434972Y-46362190D01*
X167474700Y-46379218D01*
X167481056Y-46381185D01*
X167481063Y-46381188D01*
X167481070Y-46381189D01*
X167667898Y-46437597D01*
X167710337Y-46446000D01*
X167752595Y-46454983D01*
X167759212Y-46455677D01*
X167759220Y-46455679D01*
X167759228Y-46455679D01*
X167953452Y-46474723D01*
X168101139Y-46489204D01*
X168198432Y-46518579D01*
X168288159Y-46566287D01*
X168366911Y-46630517D01*
X168431690Y-46708820D01*
X168480026Y-46798216D01*
X168510077Y-46895296D01*
X168523001Y-47018257D01*
X168523000Y-51976577D01*
X168520693Y-52000000D01*
X168529903Y-52093508D01*
X168557178Y-52183423D01*
X168601471Y-52266289D01*
X168661079Y-52338921D01*
X168733711Y-52398529D01*
X168816577Y-52442822D01*
X168873000Y-52459937D01*
X168873000Y-57540063D01*
X168816577Y-57557178D01*
X168733711Y-57601471D01*
X168661079Y-57661079D01*
X168601471Y-57733711D01*
X168557178Y-57816577D01*
X168529903Y-57906492D01*
X168520693Y-58000000D01*
X168523000Y-58023423D01*
X168523001Y-69023000D01*
X157023423Y-69023000D01*
X157000000Y-69020693D01*
X156976578Y-69023000D01*
X156976577Y-69023000D01*
X156906492Y-69029903D01*
X156816577Y-69057178D01*
X156733711Y-69101471D01*
X156661079Y-69161079D01*
X156601471Y-69233711D01*
X156557178Y-69316577D01*
X156542669Y-69364409D01*
X151456267Y-69360901D01*
X151442822Y-69316577D01*
X151398529Y-69233711D01*
X151338921Y-69161079D01*
X151266289Y-69101471D01*
X151183423Y-69057178D01*
X151093508Y-69029903D01*
X151023423Y-69023000D01*
X151000000Y-69020693D01*
X150976578Y-69023000D01*
X140477000Y-69023000D01*
X140477000Y-58592743D01*
X147686000Y-58592743D01*
X147686000Y-58807257D01*
X147727850Y-59017650D01*
X147809941Y-59215835D01*
X147929119Y-59394197D01*
X148080803Y-59545881D01*
X148259165Y-59665059D01*
X148457350Y-59747150D01*
X148667743Y-59789000D01*
X148882257Y-59789000D01*
X149092650Y-59747150D01*
X149290835Y-59665059D01*
X149469197Y-59545881D01*
X149620881Y-59394197D01*
X149740059Y-59215835D01*
X149822150Y-59017650D01*
X149864000Y-58807257D01*
X149864000Y-58592743D01*
X158936000Y-58592743D01*
X158936000Y-58807257D01*
X158977850Y-59017650D01*
X159059941Y-59215835D01*
X159179119Y-59394197D01*
X159330803Y-59545881D01*
X159509165Y-59665059D01*
X159707350Y-59747150D01*
X159917743Y-59789000D01*
X160132257Y-59789000D01*
X160342650Y-59747150D01*
X160540835Y-59665059D01*
X160719197Y-59545881D01*
X160870881Y-59394197D01*
X160990059Y-59215835D01*
X161072150Y-59017650D01*
X161114000Y-58807257D01*
X161114000Y-58592743D01*
X161072150Y-58382350D01*
X160990059Y-58184165D01*
X160870881Y-58005803D01*
X160719197Y-57854119D01*
X160540835Y-57734941D01*
X160342650Y-57652850D01*
X160132257Y-57611000D01*
X159917743Y-57611000D01*
X159707350Y-57652850D01*
X159509165Y-57734941D01*
X159330803Y-57854119D01*
X159179119Y-58005803D01*
X159059941Y-58184165D01*
X158977850Y-58382350D01*
X158936000Y-58592743D01*
X149864000Y-58592743D01*
X149822150Y-58382350D01*
X149740059Y-58184165D01*
X149620881Y-58005803D01*
X149469197Y-57854119D01*
X149290835Y-57734941D01*
X149092650Y-57652850D01*
X148882257Y-57611000D01*
X148667743Y-57611000D01*
X148457350Y-57652850D01*
X148259165Y-57734941D01*
X148080803Y-57854119D01*
X147929119Y-58005803D01*
X147809941Y-58184165D01*
X147727850Y-58382350D01*
X147686000Y-58592743D01*
X140477000Y-58592743D01*
X140477000Y-56052743D01*
X147686000Y-56052743D01*
X147686000Y-56267257D01*
X147727850Y-56477650D01*
X147809941Y-56675835D01*
X147929119Y-56854197D01*
X148080803Y-57005881D01*
X148259165Y-57125059D01*
X148457350Y-57207150D01*
X148667743Y-57249000D01*
X148882257Y-57249000D01*
X149092650Y-57207150D01*
X149290835Y-57125059D01*
X149469197Y-57005881D01*
X149620881Y-56854197D01*
X149740059Y-56675835D01*
X149822150Y-56477650D01*
X149864000Y-56267257D01*
X149864000Y-56052743D01*
X158936000Y-56052743D01*
X158936000Y-56267257D01*
X158977850Y-56477650D01*
X159059941Y-56675835D01*
X159179119Y-56854197D01*
X159330803Y-57005881D01*
X159509165Y-57125059D01*
X159707350Y-57207150D01*
X159917743Y-57249000D01*
X160132257Y-57249000D01*
X160342650Y-57207150D01*
X160540835Y-57125059D01*
X160719197Y-57005881D01*
X160870881Y-56854197D01*
X160990059Y-56675835D01*
X161072150Y-56477650D01*
X161114000Y-56267257D01*
X161114000Y-56052743D01*
X161072150Y-55842350D01*
X160990059Y-55644165D01*
X160870881Y-55465803D01*
X160719197Y-55314119D01*
X160540835Y-55194941D01*
X160342650Y-55112850D01*
X160132257Y-55071000D01*
X159917743Y-55071000D01*
X159707350Y-55112850D01*
X159509165Y-55194941D01*
X159330803Y-55314119D01*
X159179119Y-55465803D01*
X159059941Y-55644165D01*
X158977850Y-55842350D01*
X158936000Y-56052743D01*
X149864000Y-56052743D01*
X149822150Y-55842350D01*
X149740059Y-55644165D01*
X149620881Y-55465803D01*
X149469197Y-55314119D01*
X149290835Y-55194941D01*
X149092650Y-55112850D01*
X148882257Y-55071000D01*
X148667743Y-55071000D01*
X148457350Y-55112850D01*
X148259165Y-55194941D01*
X148080803Y-55314119D01*
X147929119Y-55465803D01*
X147809941Y-55644165D01*
X147727850Y-55842350D01*
X147686000Y-56052743D01*
X140477000Y-56052743D01*
X140477000Y-53512743D01*
X147686000Y-53512743D01*
X147686000Y-53727257D01*
X147727850Y-53937650D01*
X147809941Y-54135835D01*
X147929119Y-54314197D01*
X148080803Y-54465881D01*
X148259165Y-54585059D01*
X148457350Y-54667150D01*
X148667743Y-54709000D01*
X148882257Y-54709000D01*
X149092650Y-54667150D01*
X149290835Y-54585059D01*
X149469197Y-54465881D01*
X149620881Y-54314197D01*
X149740059Y-54135835D01*
X149822150Y-53937650D01*
X149864000Y-53727257D01*
X149864000Y-53512743D01*
X158936000Y-53512743D01*
X158936000Y-53727257D01*
X158977850Y-53937650D01*
X159059941Y-54135835D01*
X159179119Y-54314197D01*
X159330803Y-54465881D01*
X159509165Y-54585059D01*
X159707350Y-54667150D01*
X159917743Y-54709000D01*
X160132257Y-54709000D01*
X160342650Y-54667150D01*
X160540835Y-54585059D01*
X160719197Y-54465881D01*
X160870881Y-54314197D01*
X160990059Y-54135835D01*
X161072150Y-53937650D01*
X161114000Y-53727257D01*
X161114000Y-53512743D01*
X161072150Y-53302350D01*
X160990059Y-53104165D01*
X160870881Y-52925803D01*
X160719197Y-52774119D01*
X160540835Y-52654941D01*
X160342650Y-52572850D01*
X160132257Y-52531000D01*
X159917743Y-52531000D01*
X159707350Y-52572850D01*
X159509165Y-52654941D01*
X159330803Y-52774119D01*
X159179119Y-52925803D01*
X159059941Y-53104165D01*
X158977850Y-53302350D01*
X158936000Y-53512743D01*
X149864000Y-53512743D01*
X149822150Y-53302350D01*
X149740059Y-53104165D01*
X149620881Y-52925803D01*
X149469197Y-52774119D01*
X149290835Y-52654941D01*
X149092650Y-52572850D01*
X148882257Y-52531000D01*
X148667743Y-52531000D01*
X148457350Y-52572850D01*
X148259165Y-52654941D01*
X148080803Y-52774119D01*
X147929119Y-52925803D01*
X147809941Y-53104165D01*
X147727850Y-53302350D01*
X147686000Y-53512743D01*
X140477000Y-53512743D01*
X140477000Y-47023326D01*
X140489204Y-46898861D01*
X140518579Y-46801568D01*
X140566287Y-46711841D01*
X140630517Y-46633089D01*
X140708820Y-46568310D01*
X140798216Y-46519974D01*
X140895296Y-46489923D01*
X141037966Y-46474927D01*
X141050214Y-46475013D01*
X141056842Y-46474363D01*
X141250939Y-46453962D01*
X141293303Y-46445266D01*
X141335755Y-46437168D01*
X141342126Y-46435244D01*
X141342132Y-46435243D01*
X141342138Y-46435241D01*
X141528568Y-46377531D01*
X141568418Y-46360780D01*
X141608508Y-46344583D01*
X141614384Y-46341458D01*
X141614389Y-46341456D01*
X141614393Y-46341453D01*
X141786065Y-46248631D01*
X141821936Y-46224436D01*
X141858084Y-46200782D01*
X141863236Y-46196580D01*
X141863244Y-46196574D01*
X141863251Y-46196567D01*
X142013623Y-46072168D01*
X142044076Y-46041502D01*
X142074975Y-46011244D01*
X142079214Y-46006118D01*
X142079220Y-46006112D01*
X142079224Y-46006105D01*
X142202569Y-45854870D01*
X142226489Y-45818867D01*
X142250920Y-45783188D01*
X142254084Y-45777334D01*
X142254087Y-45777330D01*
X142254089Y-45777326D01*
X142345712Y-45605007D01*
X142362190Y-45565028D01*
X142379218Y-45525300D01*
X142381187Y-45518939D01*
X142381188Y-45518937D01*
X142381189Y-45518930D01*
X142437597Y-45332102D01*
X142446000Y-45289663D01*
X142454983Y-45247405D01*
X142455677Y-45240788D01*
X142455679Y-45240780D01*
X142455679Y-45240772D01*
X142474723Y-45046548D01*
X142474723Y-45046541D01*
X142477000Y-45023423D01*
X142477000Y-40477000D01*
X166523000Y-40477000D01*
X166523001Y-45023423D01*
G37*
X166523001Y-45023423D02*
X166525030Y-45044025D01*
X166524987Y-45050214D01*
X166525637Y-45056842D01*
X166546038Y-45250939D01*
X166554734Y-45293303D01*
X166562832Y-45335755D01*
X166564756Y-45342126D01*
X166564757Y-45342132D01*
X166564759Y-45342138D01*
X166622469Y-45528568D01*
X166639220Y-45568418D01*
X166655417Y-45608508D01*
X166658542Y-45614384D01*
X166658544Y-45614389D01*
X166658547Y-45614393D01*
X166751369Y-45786065D01*
X166775564Y-45821936D01*
X166799218Y-45858084D01*
X166803420Y-45863236D01*
X166803426Y-45863244D01*
X166803433Y-45863251D01*
X166927832Y-46013623D01*
X166958498Y-46044076D01*
X166988756Y-46074975D01*
X166993882Y-46079214D01*
X166993888Y-46079220D01*
X166993895Y-46079224D01*
X167145130Y-46202569D01*
X167181133Y-46226489D01*
X167216812Y-46250920D01*
X167222666Y-46254084D01*
X167222670Y-46254087D01*
X167222674Y-46254089D01*
X167394993Y-46345712D01*
X167434972Y-46362190D01*
X167474700Y-46379218D01*
X167481056Y-46381185D01*
X167481063Y-46381188D01*
X167481070Y-46381189D01*
X167667898Y-46437597D01*
X167710337Y-46446000D01*
X167752595Y-46454983D01*
X167759212Y-46455677D01*
X167759220Y-46455679D01*
X167759228Y-46455679D01*
X167953452Y-46474723D01*
X168101139Y-46489204D01*
X168198432Y-46518579D01*
X168288159Y-46566287D01*
X168366911Y-46630517D01*
X168431690Y-46708820D01*
X168480026Y-46798216D01*
X168510077Y-46895296D01*
X168523001Y-47018257D01*
X168523000Y-51976577D01*
X168520693Y-52000000D01*
X168529903Y-52093508D01*
X168557178Y-52183423D01*
X168601471Y-52266289D01*
X168661079Y-52338921D01*
X168733711Y-52398529D01*
X168816577Y-52442822D01*
X168873000Y-52459937D01*
X168873000Y-57540063D01*
X168816577Y-57557178D01*
X168733711Y-57601471D01*
X168661079Y-57661079D01*
X168601471Y-57733711D01*
X168557178Y-57816577D01*
X168529903Y-57906492D01*
X168520693Y-58000000D01*
X168523000Y-58023423D01*
X168523001Y-69023000D01*
X157023423Y-69023000D01*
X157000000Y-69020693D01*
X156976578Y-69023000D01*
X156976577Y-69023000D01*
X156906492Y-69029903D01*
X156816577Y-69057178D01*
X156733711Y-69101471D01*
X156661079Y-69161079D01*
X156601471Y-69233711D01*
X156557178Y-69316577D01*
X156542669Y-69364409D01*
X151456267Y-69360901D01*
X151442822Y-69316577D01*
X151398529Y-69233711D01*
X151338921Y-69161079D01*
X151266289Y-69101471D01*
X151183423Y-69057178D01*
X151093508Y-69029903D01*
X151023423Y-69023000D01*
X151000000Y-69020693D01*
X150976578Y-69023000D01*
X140477000Y-69023000D01*
X140477000Y-58592743D01*
X147686000Y-58592743D01*
X147686000Y-58807257D01*
X147727850Y-59017650D01*
X147809941Y-59215835D01*
X147929119Y-59394197D01*
X148080803Y-59545881D01*
X148259165Y-59665059D01*
X148457350Y-59747150D01*
X148667743Y-59789000D01*
X148882257Y-59789000D01*
X149092650Y-59747150D01*
X149290835Y-59665059D01*
X149469197Y-59545881D01*
X149620881Y-59394197D01*
X149740059Y-59215835D01*
X149822150Y-59017650D01*
X149864000Y-58807257D01*
X149864000Y-58592743D01*
X158936000Y-58592743D01*
X158936000Y-58807257D01*
X158977850Y-59017650D01*
X159059941Y-59215835D01*
X159179119Y-59394197D01*
X159330803Y-59545881D01*
X159509165Y-59665059D01*
X159707350Y-59747150D01*
X159917743Y-59789000D01*
X160132257Y-59789000D01*
X160342650Y-59747150D01*
X160540835Y-59665059D01*
X160719197Y-59545881D01*
X160870881Y-59394197D01*
X160990059Y-59215835D01*
X161072150Y-59017650D01*
X161114000Y-58807257D01*
X161114000Y-58592743D01*
X161072150Y-58382350D01*
X160990059Y-58184165D01*
X160870881Y-58005803D01*
X160719197Y-57854119D01*
X160540835Y-57734941D01*
X160342650Y-57652850D01*
X160132257Y-57611000D01*
X159917743Y-57611000D01*
X159707350Y-57652850D01*
X159509165Y-57734941D01*
X159330803Y-57854119D01*
X159179119Y-58005803D01*
X159059941Y-58184165D01*
X158977850Y-58382350D01*
X158936000Y-58592743D01*
X149864000Y-58592743D01*
X149822150Y-58382350D01*
X149740059Y-58184165D01*
X149620881Y-58005803D01*
X149469197Y-57854119D01*
X149290835Y-57734941D01*
X149092650Y-57652850D01*
X148882257Y-57611000D01*
X148667743Y-57611000D01*
X148457350Y-57652850D01*
X148259165Y-57734941D01*
X148080803Y-57854119D01*
X147929119Y-58005803D01*
X147809941Y-58184165D01*
X147727850Y-58382350D01*
X147686000Y-58592743D01*
X140477000Y-58592743D01*
X140477000Y-56052743D01*
X147686000Y-56052743D01*
X147686000Y-56267257D01*
X147727850Y-56477650D01*
X147809941Y-56675835D01*
X147929119Y-56854197D01*
X148080803Y-57005881D01*
X148259165Y-57125059D01*
X148457350Y-57207150D01*
X148667743Y-57249000D01*
X148882257Y-57249000D01*
X149092650Y-57207150D01*
X149290835Y-57125059D01*
X149469197Y-57005881D01*
X149620881Y-56854197D01*
X149740059Y-56675835D01*
X149822150Y-56477650D01*
X149864000Y-56267257D01*
X149864000Y-56052743D01*
X158936000Y-56052743D01*
X158936000Y-56267257D01*
X158977850Y-56477650D01*
X159059941Y-56675835D01*
X159179119Y-56854197D01*
X159330803Y-57005881D01*
X159509165Y-57125059D01*
X159707350Y-57207150D01*
X159917743Y-57249000D01*
X160132257Y-57249000D01*
X160342650Y-57207150D01*
X160540835Y-57125059D01*
X160719197Y-57005881D01*
X160870881Y-56854197D01*
X160990059Y-56675835D01*
X161072150Y-56477650D01*
X161114000Y-56267257D01*
X161114000Y-56052743D01*
X161072150Y-55842350D01*
X160990059Y-55644165D01*
X160870881Y-55465803D01*
X160719197Y-55314119D01*
X160540835Y-55194941D01*
X160342650Y-55112850D01*
X160132257Y-55071000D01*
X159917743Y-55071000D01*
X159707350Y-55112850D01*
X159509165Y-55194941D01*
X159330803Y-55314119D01*
X159179119Y-55465803D01*
X159059941Y-55644165D01*
X158977850Y-55842350D01*
X158936000Y-56052743D01*
X149864000Y-56052743D01*
X149822150Y-55842350D01*
X149740059Y-55644165D01*
X149620881Y-55465803D01*
X149469197Y-55314119D01*
X149290835Y-55194941D01*
X149092650Y-55112850D01*
X148882257Y-55071000D01*
X148667743Y-55071000D01*
X148457350Y-55112850D01*
X148259165Y-55194941D01*
X148080803Y-55314119D01*
X147929119Y-55465803D01*
X147809941Y-55644165D01*
X147727850Y-55842350D01*
X147686000Y-56052743D01*
X140477000Y-56052743D01*
X140477000Y-53512743D01*
X147686000Y-53512743D01*
X147686000Y-53727257D01*
X147727850Y-53937650D01*
X147809941Y-54135835D01*
X147929119Y-54314197D01*
X148080803Y-54465881D01*
X148259165Y-54585059D01*
X148457350Y-54667150D01*
X148667743Y-54709000D01*
X148882257Y-54709000D01*
X149092650Y-54667150D01*
X149290835Y-54585059D01*
X149469197Y-54465881D01*
X149620881Y-54314197D01*
X149740059Y-54135835D01*
X149822150Y-53937650D01*
X149864000Y-53727257D01*
X149864000Y-53512743D01*
X158936000Y-53512743D01*
X158936000Y-53727257D01*
X158977850Y-53937650D01*
X159059941Y-54135835D01*
X159179119Y-54314197D01*
X159330803Y-54465881D01*
X159509165Y-54585059D01*
X159707350Y-54667150D01*
X159917743Y-54709000D01*
X160132257Y-54709000D01*
X160342650Y-54667150D01*
X160540835Y-54585059D01*
X160719197Y-54465881D01*
X160870881Y-54314197D01*
X160990059Y-54135835D01*
X161072150Y-53937650D01*
X161114000Y-53727257D01*
X161114000Y-53512743D01*
X161072150Y-53302350D01*
X160990059Y-53104165D01*
X160870881Y-52925803D01*
X160719197Y-52774119D01*
X160540835Y-52654941D01*
X160342650Y-52572850D01*
X160132257Y-52531000D01*
X159917743Y-52531000D01*
X159707350Y-52572850D01*
X159509165Y-52654941D01*
X159330803Y-52774119D01*
X159179119Y-52925803D01*
X159059941Y-53104165D01*
X158977850Y-53302350D01*
X158936000Y-53512743D01*
X149864000Y-53512743D01*
X149822150Y-53302350D01*
X149740059Y-53104165D01*
X149620881Y-52925803D01*
X149469197Y-52774119D01*
X149290835Y-52654941D01*
X149092650Y-52572850D01*
X148882257Y-52531000D01*
X148667743Y-52531000D01*
X148457350Y-52572850D01*
X148259165Y-52654941D01*
X148080803Y-52774119D01*
X147929119Y-52925803D01*
X147809941Y-53104165D01*
X147727850Y-53302350D01*
X147686000Y-53512743D01*
X140477000Y-53512743D01*
X140477000Y-47023326D01*
X140489204Y-46898861D01*
X140518579Y-46801568D01*
X140566287Y-46711841D01*
X140630517Y-46633089D01*
X140708820Y-46568310D01*
X140798216Y-46519974D01*
X140895296Y-46489923D01*
X141037966Y-46474927D01*
X141050214Y-46475013D01*
X141056842Y-46474363D01*
X141250939Y-46453962D01*
X141293303Y-46445266D01*
X141335755Y-46437168D01*
X141342126Y-46435244D01*
X141342132Y-46435243D01*
X141342138Y-46435241D01*
X141528568Y-46377531D01*
X141568418Y-46360780D01*
X141608508Y-46344583D01*
X141614384Y-46341458D01*
X141614389Y-46341456D01*
X141614393Y-46341453D01*
X141786065Y-46248631D01*
X141821936Y-46224436D01*
X141858084Y-46200782D01*
X141863236Y-46196580D01*
X141863244Y-46196574D01*
X141863251Y-46196567D01*
X142013623Y-46072168D01*
X142044076Y-46041502D01*
X142074975Y-46011244D01*
X142079214Y-46006118D01*
X142079220Y-46006112D01*
X142079224Y-46006105D01*
X142202569Y-45854870D01*
X142226489Y-45818867D01*
X142250920Y-45783188D01*
X142254084Y-45777334D01*
X142254087Y-45777330D01*
X142254089Y-45777326D01*
X142345712Y-45605007D01*
X142362190Y-45565028D01*
X142379218Y-45525300D01*
X142381187Y-45518939D01*
X142381188Y-45518937D01*
X142381189Y-45518930D01*
X142437597Y-45332102D01*
X142446000Y-45289663D01*
X142454983Y-45247405D01*
X142455677Y-45240788D01*
X142455679Y-45240780D01*
X142455679Y-45240772D01*
X142474723Y-45046548D01*
X142474723Y-45046541D01*
X142477000Y-45023423D01*
X142477000Y-40477000D01*
X166523000Y-40477000D01*
X166523001Y-45023423D01*
G36*
X191557178Y-110693423D02*
G01*
X191601471Y-110776289D01*
X191661079Y-110848921D01*
X191733711Y-110908529D01*
X191816577Y-110952822D01*
X191906492Y-110980097D01*
X192000000Y-110989307D01*
X192023422Y-110987000D01*
X201513000Y-110987000D01*
X201513001Y-115533423D01*
X201515030Y-115554025D01*
X201514987Y-115560214D01*
X201515637Y-115566842D01*
X201536038Y-115760939D01*
X201544734Y-115803303D01*
X201552832Y-115845755D01*
X201554756Y-115852126D01*
X201554757Y-115852132D01*
X201554759Y-115852138D01*
X201612469Y-116038568D01*
X201629220Y-116078418D01*
X201645417Y-116118508D01*
X201648542Y-116124384D01*
X201648544Y-116124389D01*
X201648547Y-116124393D01*
X201741369Y-116296065D01*
X201765564Y-116331936D01*
X201789218Y-116368084D01*
X201793420Y-116373236D01*
X201793426Y-116373244D01*
X201793433Y-116373251D01*
X201917832Y-116523623D01*
X201948498Y-116554076D01*
X201978756Y-116584975D01*
X201983882Y-116589214D01*
X201983888Y-116589220D01*
X201983895Y-116589224D01*
X202135130Y-116712569D01*
X202171133Y-116736489D01*
X202206812Y-116760920D01*
X202212666Y-116764084D01*
X202212670Y-116764087D01*
X202212674Y-116764089D01*
X202384993Y-116855712D01*
X202424972Y-116872190D01*
X202464700Y-116889218D01*
X202471056Y-116891185D01*
X202471063Y-116891188D01*
X202471070Y-116891189D01*
X202657898Y-116947597D01*
X202700337Y-116956000D01*
X202742595Y-116964983D01*
X202749212Y-116965677D01*
X202749220Y-116965679D01*
X202749228Y-116965679D01*
X202943452Y-116984723D01*
X203091139Y-116999204D01*
X203188432Y-117028579D01*
X203278159Y-117076287D01*
X203356911Y-117140517D01*
X203421690Y-117218820D01*
X203470026Y-117308216D01*
X203500077Y-117405296D01*
X203513001Y-117528257D01*
X203513000Y-121976577D01*
X203510693Y-122000000D01*
X203519903Y-122093508D01*
X203547178Y-122183423D01*
X203591471Y-122266289D01*
X203651079Y-122338921D01*
X203723711Y-122398529D01*
X203806577Y-122442822D01*
X203873000Y-122462971D01*
X203873000Y-127537029D01*
X203806577Y-127557178D01*
X203723711Y-127601471D01*
X203651079Y-127661079D01*
X203591471Y-127733711D01*
X203547178Y-127816577D01*
X203519903Y-127906492D01*
X203510693Y-128000000D01*
X203513000Y-128023423D01*
X203513000Y-131212829D01*
X203435439Y-130822901D01*
X203244948Y-130363017D01*
X202968399Y-129949131D01*
X202616419Y-129597151D01*
X202202533Y-129320602D01*
X201742649Y-129130111D01*
X201254438Y-129033000D01*
X200756662Y-129033000D01*
X200268451Y-129130111D01*
X199808567Y-129320602D01*
X199394681Y-129597151D01*
X199042701Y-129949131D01*
X198766152Y-130363017D01*
X198575661Y-130822901D01*
X198478550Y-131311112D01*
X198478550Y-131808888D01*
X198575661Y-132297099D01*
X198766152Y-132756983D01*
X199042701Y-133170869D01*
X199394681Y-133522849D01*
X199808567Y-133799398D01*
X200268451Y-133989889D01*
X200756662Y-134087000D01*
X201254438Y-134087000D01*
X201742649Y-133989889D01*
X202202533Y-133799398D01*
X202616419Y-133522849D01*
X202968399Y-133170869D01*
X203244948Y-132756983D01*
X203435439Y-132297099D01*
X203513000Y-131907171D01*
X203513001Y-139533000D01*
X175467000Y-139533000D01*
X175467000Y-132303002D01*
X175655046Y-132756983D01*
X175931595Y-133170869D01*
X176283575Y-133522849D01*
X176697461Y-133799398D01*
X177157345Y-133989889D01*
X177645556Y-134087000D01*
X178143332Y-134087000D01*
X178631543Y-133989889D01*
X179091427Y-133799398D01*
X179505313Y-133522849D01*
X179857293Y-133170869D01*
X180133842Y-132756983D01*
X180324333Y-132297099D01*
X180421444Y-131808888D01*
X180421444Y-131311112D01*
X180324333Y-130822901D01*
X180133842Y-130363017D01*
X179857293Y-129949131D01*
X179505313Y-129597151D01*
X179091427Y-129320602D01*
X178631543Y-129130111D01*
X178143332Y-129033000D01*
X177645556Y-129033000D01*
X177157345Y-129130111D01*
X176697461Y-129320602D01*
X176283575Y-129597151D01*
X175931595Y-129949131D01*
X175655046Y-130363017D01*
X175467000Y-130816998D01*
X175467000Y-128033423D01*
X175469307Y-128010000D01*
X175460097Y-127916492D01*
X175432822Y-127826577D01*
X175388529Y-127743711D01*
X175328921Y-127671079D01*
X175256289Y-127611471D01*
X175173423Y-127567178D01*
X175127000Y-127553096D01*
X175127000Y-122466904D01*
X175173423Y-122452822D01*
X175256289Y-122408529D01*
X175328921Y-122348921D01*
X175388529Y-122276289D01*
X175432822Y-122193423D01*
X175460097Y-122103508D01*
X175469307Y-122010000D01*
X175467000Y-121986577D01*
X175467000Y-120260000D01*
X181971418Y-120260000D01*
X181971418Y-121860000D01*
X181977732Y-121924103D01*
X181996430Y-121985743D01*
X182026794Y-122042550D01*
X182067657Y-122092343D01*
X182117450Y-122133206D01*
X182174257Y-122163570D01*
X182235897Y-122182268D01*
X182300000Y-122188582D01*
X183900000Y-122188582D01*
X183964103Y-122182268D01*
X184025743Y-122163570D01*
X184082550Y-122133206D01*
X184132343Y-122092343D01*
X184173206Y-122042550D01*
X184203570Y-121985743D01*
X184222268Y-121924103D01*
X184228582Y-121860000D01*
X184228582Y-120949000D01*
X184513000Y-120949000D01*
X184513000Y-121171000D01*
X184556310Y-121388734D01*
X184641266Y-121593835D01*
X184764602Y-121778421D01*
X184921579Y-121935398D01*
X185106165Y-122058734D01*
X185311266Y-122143690D01*
X185529000Y-122187000D01*
X185751000Y-122187000D01*
X185968734Y-122143690D01*
X186173835Y-122058734D01*
X186358421Y-121935398D01*
X186515398Y-121778421D01*
X186638734Y-121593835D01*
X186723690Y-121388734D01*
X186767000Y-121171000D01*
X186767000Y-120949000D01*
X187053000Y-120949000D01*
X187053000Y-121171000D01*
X187096310Y-121388734D01*
X187181266Y-121593835D01*
X187304602Y-121778421D01*
X187461579Y-121935398D01*
X187646165Y-122058734D01*
X187851266Y-122143690D01*
X188069000Y-122187000D01*
X188291000Y-122187000D01*
X188508734Y-122143690D01*
X188713835Y-122058734D01*
X188898421Y-121935398D01*
X189055398Y-121778421D01*
X189178734Y-121593835D01*
X189263690Y-121388734D01*
X189307000Y-121171000D01*
X189307000Y-120949000D01*
X189593000Y-120949000D01*
X189593000Y-121171000D01*
X189636310Y-121388734D01*
X189721266Y-121593835D01*
X189844602Y-121778421D01*
X190001579Y-121935398D01*
X190186165Y-122058734D01*
X190391266Y-122143690D01*
X190609000Y-122187000D01*
X190831000Y-122187000D01*
X191048734Y-122143690D01*
X191253835Y-122058734D01*
X191438421Y-121935398D01*
X191595398Y-121778421D01*
X191718734Y-121593835D01*
X191803690Y-121388734D01*
X191847000Y-121171000D01*
X191847000Y-120949000D01*
X192133000Y-120949000D01*
X192133000Y-121171000D01*
X192176310Y-121388734D01*
X192261266Y-121593835D01*
X192384602Y-121778421D01*
X192541579Y-121935398D01*
X192726165Y-122058734D01*
X192931266Y-122143690D01*
X193149000Y-122187000D01*
X193371000Y-122187000D01*
X193588734Y-122143690D01*
X193793835Y-122058734D01*
X193978421Y-121935398D01*
X194135398Y-121778421D01*
X194258734Y-121593835D01*
X194343690Y-121388734D01*
X194387000Y-121171000D01*
X194387000Y-120949000D01*
X194673000Y-120949000D01*
X194673000Y-121171000D01*
X194716310Y-121388734D01*
X194801266Y-121593835D01*
X194924602Y-121778421D01*
X195081579Y-121935398D01*
X195266165Y-122058734D01*
X195471266Y-122143690D01*
X195689000Y-122187000D01*
X195911000Y-122187000D01*
X196128734Y-122143690D01*
X196333835Y-122058734D01*
X196518421Y-121935398D01*
X196675398Y-121778421D01*
X196798734Y-121593835D01*
X196883690Y-121388734D01*
X196927000Y-121171000D01*
X196927000Y-120949000D01*
X196883690Y-120731266D01*
X196798734Y-120526165D01*
X196675398Y-120341579D01*
X196518421Y-120184602D01*
X196333835Y-120061266D01*
X196128734Y-119976310D01*
X195911000Y-119933000D01*
X195689000Y-119933000D01*
X195471266Y-119976310D01*
X195266165Y-120061266D01*
X195081579Y-120184602D01*
X194924602Y-120341579D01*
X194801266Y-120526165D01*
X194716310Y-120731266D01*
X194673000Y-120949000D01*
X194387000Y-120949000D01*
X194343690Y-120731266D01*
X194258734Y-120526165D01*
X194135398Y-120341579D01*
X193978421Y-120184602D01*
X193793835Y-120061266D01*
X193588734Y-119976310D01*
X193371000Y-119933000D01*
X193149000Y-119933000D01*
X192931266Y-119976310D01*
X192726165Y-120061266D01*
X192541579Y-120184602D01*
X192384602Y-120341579D01*
X192261266Y-120526165D01*
X192176310Y-120731266D01*
X192133000Y-120949000D01*
X191847000Y-120949000D01*
X191803690Y-120731266D01*
X191718734Y-120526165D01*
X191595398Y-120341579D01*
X191438421Y-120184602D01*
X191253835Y-120061266D01*
X191048734Y-119976310D01*
X190831000Y-119933000D01*
X190609000Y-119933000D01*
X190391266Y-119976310D01*
X190186165Y-120061266D01*
X190001579Y-120184602D01*
X189844602Y-120341579D01*
X189721266Y-120526165D01*
X189636310Y-120731266D01*
X189593000Y-120949000D01*
X189307000Y-120949000D01*
X189263690Y-120731266D01*
X189178734Y-120526165D01*
X189055398Y-120341579D01*
X188898421Y-120184602D01*
X188713835Y-120061266D01*
X188508734Y-119976310D01*
X188291000Y-119933000D01*
X188069000Y-119933000D01*
X187851266Y-119976310D01*
X187646165Y-120061266D01*
X187461579Y-120184602D01*
X187304602Y-120341579D01*
X187181266Y-120526165D01*
X187096310Y-120731266D01*
X187053000Y-120949000D01*
X186767000Y-120949000D01*
X186723690Y-120731266D01*
X186638734Y-120526165D01*
X186515398Y-120341579D01*
X186358421Y-120184602D01*
X186173835Y-120061266D01*
X185968734Y-119976310D01*
X185751000Y-119933000D01*
X185529000Y-119933000D01*
X185311266Y-119976310D01*
X185106165Y-120061266D01*
X184921579Y-120184602D01*
X184764602Y-120341579D01*
X184641266Y-120526165D01*
X184556310Y-120731266D01*
X184513000Y-120949000D01*
X184228582Y-120949000D01*
X184228582Y-120260000D01*
X184222268Y-120195897D01*
X184203570Y-120134257D01*
X184173206Y-120077450D01*
X184132343Y-120027657D01*
X184082550Y-119986794D01*
X184025743Y-119956430D01*
X183964103Y-119937732D01*
X183900000Y-119931418D01*
X182300000Y-119931418D01*
X182235897Y-119937732D01*
X182174257Y-119956430D01*
X182117450Y-119986794D01*
X182067657Y-120027657D01*
X182026794Y-120077450D01*
X181996430Y-120134257D01*
X181977732Y-120195897D01*
X181971418Y-120260000D01*
X175467000Y-120260000D01*
X175467000Y-117533326D01*
X175479204Y-117408861D01*
X175508579Y-117311568D01*
X175556287Y-117221841D01*
X175620517Y-117143089D01*
X175698820Y-117078310D01*
X175788216Y-117029974D01*
X175885296Y-116999923D01*
X176027966Y-116984927D01*
X176040214Y-116985013D01*
X176046842Y-116984363D01*
X176240939Y-116963962D01*
X176283303Y-116955266D01*
X176325755Y-116947168D01*
X176332126Y-116945244D01*
X176332132Y-116945243D01*
X176332138Y-116945241D01*
X176518568Y-116887531D01*
X176558418Y-116870780D01*
X176598508Y-116854583D01*
X176604384Y-116851458D01*
X176604389Y-116851456D01*
X176604393Y-116851453D01*
X176776065Y-116758631D01*
X176811936Y-116734436D01*
X176848084Y-116710782D01*
X176853236Y-116706580D01*
X176853244Y-116706574D01*
X176853251Y-116706567D01*
X177003623Y-116582168D01*
X177034076Y-116551502D01*
X177064975Y-116521244D01*
X177069214Y-116516118D01*
X177069220Y-116516112D01*
X177069224Y-116516105D01*
X177192569Y-116364870D01*
X177216489Y-116328867D01*
X177240920Y-116293188D01*
X177244084Y-116287334D01*
X177244087Y-116287330D01*
X177244089Y-116287326D01*
X177335712Y-116115007D01*
X177352190Y-116075028D01*
X177369218Y-116035300D01*
X177371187Y-116028939D01*
X177371188Y-116028937D01*
X177371189Y-116028930D01*
X177427597Y-115842102D01*
X177436000Y-115799663D01*
X177444983Y-115757405D01*
X177445677Y-115750788D01*
X177445679Y-115750780D01*
X177445679Y-115750772D01*
X177464723Y-115556548D01*
X177464723Y-115556541D01*
X177467000Y-115533423D01*
X177467000Y-110987000D01*
X185976577Y-110987000D01*
X186000000Y-110989307D01*
X186023422Y-110987000D01*
X186023423Y-110987000D01*
X186093508Y-110980097D01*
X186183423Y-110952822D01*
X186266289Y-110908529D01*
X186338921Y-110848921D01*
X186398529Y-110776289D01*
X186442822Y-110693423D01*
X186462971Y-110627000D01*
X191537029Y-110627000D01*
X191557178Y-110693423D01*
G37*
X191557178Y-110693423D02*
X191601471Y-110776289D01*
X191661079Y-110848921D01*
X191733711Y-110908529D01*
X191816577Y-110952822D01*
X191906492Y-110980097D01*
X192000000Y-110989307D01*
X192023422Y-110987000D01*
X201513000Y-110987000D01*
X201513001Y-115533423D01*
X201515030Y-115554025D01*
X201514987Y-115560214D01*
X201515637Y-115566842D01*
X201536038Y-115760939D01*
X201544734Y-115803303D01*
X201552832Y-115845755D01*
X201554756Y-115852126D01*
X201554757Y-115852132D01*
X201554759Y-115852138D01*
X201612469Y-116038568D01*
X201629220Y-116078418D01*
X201645417Y-116118508D01*
X201648542Y-116124384D01*
X201648544Y-116124389D01*
X201648547Y-116124393D01*
X201741369Y-116296065D01*
X201765564Y-116331936D01*
X201789218Y-116368084D01*
X201793420Y-116373236D01*
X201793426Y-116373244D01*
X201793433Y-116373251D01*
X201917832Y-116523623D01*
X201948498Y-116554076D01*
X201978756Y-116584975D01*
X201983882Y-116589214D01*
X201983888Y-116589220D01*
X201983895Y-116589224D01*
X202135130Y-116712569D01*
X202171133Y-116736489D01*
X202206812Y-116760920D01*
X202212666Y-116764084D01*
X202212670Y-116764087D01*
X202212674Y-116764089D01*
X202384993Y-116855712D01*
X202424972Y-116872190D01*
X202464700Y-116889218D01*
X202471056Y-116891185D01*
X202471063Y-116891188D01*
X202471070Y-116891189D01*
X202657898Y-116947597D01*
X202700337Y-116956000D01*
X202742595Y-116964983D01*
X202749212Y-116965677D01*
X202749220Y-116965679D01*
X202749228Y-116965679D01*
X202943452Y-116984723D01*
X203091139Y-116999204D01*
X203188432Y-117028579D01*
X203278159Y-117076287D01*
X203356911Y-117140517D01*
X203421690Y-117218820D01*
X203470026Y-117308216D01*
X203500077Y-117405296D01*
X203513001Y-117528257D01*
X203513000Y-121976577D01*
X203510693Y-122000000D01*
X203519903Y-122093508D01*
X203547178Y-122183423D01*
X203591471Y-122266289D01*
X203651079Y-122338921D01*
X203723711Y-122398529D01*
X203806577Y-122442822D01*
X203873000Y-122462971D01*
X203873000Y-127537029D01*
X203806577Y-127557178D01*
X203723711Y-127601471D01*
X203651079Y-127661079D01*
X203591471Y-127733711D01*
X203547178Y-127816577D01*
X203519903Y-127906492D01*
X203510693Y-128000000D01*
X203513000Y-128023423D01*
X203513000Y-131212829D01*
X203435439Y-130822901D01*
X203244948Y-130363017D01*
X202968399Y-129949131D01*
X202616419Y-129597151D01*
X202202533Y-129320602D01*
X201742649Y-129130111D01*
X201254438Y-129033000D01*
X200756662Y-129033000D01*
X200268451Y-129130111D01*
X199808567Y-129320602D01*
X199394681Y-129597151D01*
X199042701Y-129949131D01*
X198766152Y-130363017D01*
X198575661Y-130822901D01*
X198478550Y-131311112D01*
X198478550Y-131808888D01*
X198575661Y-132297099D01*
X198766152Y-132756983D01*
X199042701Y-133170869D01*
X199394681Y-133522849D01*
X199808567Y-133799398D01*
X200268451Y-133989889D01*
X200756662Y-134087000D01*
X201254438Y-134087000D01*
X201742649Y-133989889D01*
X202202533Y-133799398D01*
X202616419Y-133522849D01*
X202968399Y-133170869D01*
X203244948Y-132756983D01*
X203435439Y-132297099D01*
X203513000Y-131907171D01*
X203513001Y-139533000D01*
X175467000Y-139533000D01*
X175467000Y-132303002D01*
X175655046Y-132756983D01*
X175931595Y-133170869D01*
X176283575Y-133522849D01*
X176697461Y-133799398D01*
X177157345Y-133989889D01*
X177645556Y-134087000D01*
X178143332Y-134087000D01*
X178631543Y-133989889D01*
X179091427Y-133799398D01*
X179505313Y-133522849D01*
X179857293Y-133170869D01*
X180133842Y-132756983D01*
X180324333Y-132297099D01*
X180421444Y-131808888D01*
X180421444Y-131311112D01*
X180324333Y-130822901D01*
X180133842Y-130363017D01*
X179857293Y-129949131D01*
X179505313Y-129597151D01*
X179091427Y-129320602D01*
X178631543Y-129130111D01*
X178143332Y-129033000D01*
X177645556Y-129033000D01*
X177157345Y-129130111D01*
X176697461Y-129320602D01*
X176283575Y-129597151D01*
X175931595Y-129949131D01*
X175655046Y-130363017D01*
X175467000Y-130816998D01*
X175467000Y-128033423D01*
X175469307Y-128010000D01*
X175460097Y-127916492D01*
X175432822Y-127826577D01*
X175388529Y-127743711D01*
X175328921Y-127671079D01*
X175256289Y-127611471D01*
X175173423Y-127567178D01*
X175127000Y-127553096D01*
X175127000Y-122466904D01*
X175173423Y-122452822D01*
X175256289Y-122408529D01*
X175328921Y-122348921D01*
X175388529Y-122276289D01*
X175432822Y-122193423D01*
X175460097Y-122103508D01*
X175469307Y-122010000D01*
X175467000Y-121986577D01*
X175467000Y-120260000D01*
X181971418Y-120260000D01*
X181971418Y-121860000D01*
X181977732Y-121924103D01*
X181996430Y-121985743D01*
X182026794Y-122042550D01*
X182067657Y-122092343D01*
X182117450Y-122133206D01*
X182174257Y-122163570D01*
X182235897Y-122182268D01*
X182300000Y-122188582D01*
X183900000Y-122188582D01*
X183964103Y-122182268D01*
X184025743Y-122163570D01*
X184082550Y-122133206D01*
X184132343Y-122092343D01*
X184173206Y-122042550D01*
X184203570Y-121985743D01*
X184222268Y-121924103D01*
X184228582Y-121860000D01*
X184228582Y-120949000D01*
X184513000Y-120949000D01*
X184513000Y-121171000D01*
X184556310Y-121388734D01*
X184641266Y-121593835D01*
X184764602Y-121778421D01*
X184921579Y-121935398D01*
X185106165Y-122058734D01*
X185311266Y-122143690D01*
X185529000Y-122187000D01*
X185751000Y-122187000D01*
X185968734Y-122143690D01*
X186173835Y-122058734D01*
X186358421Y-121935398D01*
X186515398Y-121778421D01*
X186638734Y-121593835D01*
X186723690Y-121388734D01*
X186767000Y-121171000D01*
X186767000Y-120949000D01*
X187053000Y-120949000D01*
X187053000Y-121171000D01*
X187096310Y-121388734D01*
X187181266Y-121593835D01*
X187304602Y-121778421D01*
X187461579Y-121935398D01*
X187646165Y-122058734D01*
X187851266Y-122143690D01*
X188069000Y-122187000D01*
X188291000Y-122187000D01*
X188508734Y-122143690D01*
X188713835Y-122058734D01*
X188898421Y-121935398D01*
X189055398Y-121778421D01*
X189178734Y-121593835D01*
X189263690Y-121388734D01*
X189307000Y-121171000D01*
X189307000Y-120949000D01*
X189593000Y-120949000D01*
X189593000Y-121171000D01*
X189636310Y-121388734D01*
X189721266Y-121593835D01*
X189844602Y-121778421D01*
X190001579Y-121935398D01*
X190186165Y-122058734D01*
X190391266Y-122143690D01*
X190609000Y-122187000D01*
X190831000Y-122187000D01*
X191048734Y-122143690D01*
X191253835Y-122058734D01*
X191438421Y-121935398D01*
X191595398Y-121778421D01*
X191718734Y-121593835D01*
X191803690Y-121388734D01*
X191847000Y-121171000D01*
X191847000Y-120949000D01*
X192133000Y-120949000D01*
X192133000Y-121171000D01*
X192176310Y-121388734D01*
X192261266Y-121593835D01*
X192384602Y-121778421D01*
X192541579Y-121935398D01*
X192726165Y-122058734D01*
X192931266Y-122143690D01*
X193149000Y-122187000D01*
X193371000Y-122187000D01*
X193588734Y-122143690D01*
X193793835Y-122058734D01*
X193978421Y-121935398D01*
X194135398Y-121778421D01*
X194258734Y-121593835D01*
X194343690Y-121388734D01*
X194387000Y-121171000D01*
X194387000Y-120949000D01*
X194673000Y-120949000D01*
X194673000Y-121171000D01*
X194716310Y-121388734D01*
X194801266Y-121593835D01*
X194924602Y-121778421D01*
X195081579Y-121935398D01*
X195266165Y-122058734D01*
X195471266Y-122143690D01*
X195689000Y-122187000D01*
X195911000Y-122187000D01*
X196128734Y-122143690D01*
X196333835Y-122058734D01*
X196518421Y-121935398D01*
X196675398Y-121778421D01*
X196798734Y-121593835D01*
X196883690Y-121388734D01*
X196927000Y-121171000D01*
X196927000Y-120949000D01*
X196883690Y-120731266D01*
X196798734Y-120526165D01*
X196675398Y-120341579D01*
X196518421Y-120184602D01*
X196333835Y-120061266D01*
X196128734Y-119976310D01*
X195911000Y-119933000D01*
X195689000Y-119933000D01*
X195471266Y-119976310D01*
X195266165Y-120061266D01*
X195081579Y-120184602D01*
X194924602Y-120341579D01*
X194801266Y-120526165D01*
X194716310Y-120731266D01*
X194673000Y-120949000D01*
X194387000Y-120949000D01*
X194343690Y-120731266D01*
X194258734Y-120526165D01*
X194135398Y-120341579D01*
X193978421Y-120184602D01*
X193793835Y-120061266D01*
X193588734Y-119976310D01*
X193371000Y-119933000D01*
X193149000Y-119933000D01*
X192931266Y-119976310D01*
X192726165Y-120061266D01*
X192541579Y-120184602D01*
X192384602Y-120341579D01*
X192261266Y-120526165D01*
X192176310Y-120731266D01*
X192133000Y-120949000D01*
X191847000Y-120949000D01*
X191803690Y-120731266D01*
X191718734Y-120526165D01*
X191595398Y-120341579D01*
X191438421Y-120184602D01*
X191253835Y-120061266D01*
X191048734Y-119976310D01*
X190831000Y-119933000D01*
X190609000Y-119933000D01*
X190391266Y-119976310D01*
X190186165Y-120061266D01*
X190001579Y-120184602D01*
X189844602Y-120341579D01*
X189721266Y-120526165D01*
X189636310Y-120731266D01*
X189593000Y-120949000D01*
X189307000Y-120949000D01*
X189263690Y-120731266D01*
X189178734Y-120526165D01*
X189055398Y-120341579D01*
X188898421Y-120184602D01*
X188713835Y-120061266D01*
X188508734Y-119976310D01*
X188291000Y-119933000D01*
X188069000Y-119933000D01*
X187851266Y-119976310D01*
X187646165Y-120061266D01*
X187461579Y-120184602D01*
X187304602Y-120341579D01*
X187181266Y-120526165D01*
X187096310Y-120731266D01*
X187053000Y-120949000D01*
X186767000Y-120949000D01*
X186723690Y-120731266D01*
X186638734Y-120526165D01*
X186515398Y-120341579D01*
X186358421Y-120184602D01*
X186173835Y-120061266D01*
X185968734Y-119976310D01*
X185751000Y-119933000D01*
X185529000Y-119933000D01*
X185311266Y-119976310D01*
X185106165Y-120061266D01*
X184921579Y-120184602D01*
X184764602Y-120341579D01*
X184641266Y-120526165D01*
X184556310Y-120731266D01*
X184513000Y-120949000D01*
X184228582Y-120949000D01*
X184228582Y-120260000D01*
X184222268Y-120195897D01*
X184203570Y-120134257D01*
X184173206Y-120077450D01*
X184132343Y-120027657D01*
X184082550Y-119986794D01*
X184025743Y-119956430D01*
X183964103Y-119937732D01*
X183900000Y-119931418D01*
X182300000Y-119931418D01*
X182235897Y-119937732D01*
X182174257Y-119956430D01*
X182117450Y-119986794D01*
X182067657Y-120027657D01*
X182026794Y-120077450D01*
X181996430Y-120134257D01*
X181977732Y-120195897D01*
X181971418Y-120260000D01*
X175467000Y-120260000D01*
X175467000Y-117533326D01*
X175479204Y-117408861D01*
X175508579Y-117311568D01*
X175556287Y-117221841D01*
X175620517Y-117143089D01*
X175698820Y-117078310D01*
X175788216Y-117029974D01*
X175885296Y-116999923D01*
X176027966Y-116984927D01*
X176040214Y-116985013D01*
X176046842Y-116984363D01*
X176240939Y-116963962D01*
X176283303Y-116955266D01*
X176325755Y-116947168D01*
X176332126Y-116945244D01*
X176332132Y-116945243D01*
X176332138Y-116945241D01*
X176518568Y-116887531D01*
X176558418Y-116870780D01*
X176598508Y-116854583D01*
X176604384Y-116851458D01*
X176604389Y-116851456D01*
X176604393Y-116851453D01*
X176776065Y-116758631D01*
X176811936Y-116734436D01*
X176848084Y-116710782D01*
X176853236Y-116706580D01*
X176853244Y-116706574D01*
X176853251Y-116706567D01*
X177003623Y-116582168D01*
X177034076Y-116551502D01*
X177064975Y-116521244D01*
X177069214Y-116516118D01*
X177069220Y-116516112D01*
X177069224Y-116516105D01*
X177192569Y-116364870D01*
X177216489Y-116328867D01*
X177240920Y-116293188D01*
X177244084Y-116287334D01*
X177244087Y-116287330D01*
X177244089Y-116287326D01*
X177335712Y-116115007D01*
X177352190Y-116075028D01*
X177369218Y-116035300D01*
X177371187Y-116028939D01*
X177371188Y-116028937D01*
X177371189Y-116028930D01*
X177427597Y-115842102D01*
X177436000Y-115799663D01*
X177444983Y-115757405D01*
X177445677Y-115750788D01*
X177445679Y-115750780D01*
X177445679Y-115750772D01*
X177464723Y-115556548D01*
X177464723Y-115556541D01*
X177467000Y-115533423D01*
X177467000Y-110987000D01*
X185976577Y-110987000D01*
X186000000Y-110989307D01*
X186023422Y-110987000D01*
X186023423Y-110987000D01*
X186093508Y-110980097D01*
X186183423Y-110952822D01*
X186266289Y-110908529D01*
X186338921Y-110848921D01*
X186398529Y-110776289D01*
X186442822Y-110693423D01*
X186462971Y-110627000D01*
X191537029Y-110627000D01*
X191557178Y-110693423D01*
G36*
X227457178Y-75683423D02*
G01*
X227501471Y-75766289D01*
X227561079Y-75838921D01*
X227633711Y-75898529D01*
X227716577Y-75942822D01*
X227806492Y-75970097D01*
X227900000Y-75979307D01*
X227923422Y-75977000D01*
X237523000Y-75977000D01*
X237523001Y-80523423D01*
X237525030Y-80544025D01*
X237524987Y-80550214D01*
X237525637Y-80556842D01*
X237546038Y-80750939D01*
X237554734Y-80793303D01*
X237562832Y-80835755D01*
X237564756Y-80842126D01*
X237564757Y-80842132D01*
X237564759Y-80842138D01*
X237622469Y-81028568D01*
X237639220Y-81068418D01*
X237655417Y-81108508D01*
X237658542Y-81114384D01*
X237658544Y-81114389D01*
X237658547Y-81114393D01*
X237751369Y-81286065D01*
X237775564Y-81321936D01*
X237799218Y-81358084D01*
X237803420Y-81363236D01*
X237803426Y-81363244D01*
X237803433Y-81363251D01*
X237927832Y-81513623D01*
X237958498Y-81544076D01*
X237988756Y-81574975D01*
X237993882Y-81579214D01*
X237993888Y-81579220D01*
X237993895Y-81579224D01*
X238145130Y-81702569D01*
X238181133Y-81726489D01*
X238216812Y-81750920D01*
X238222666Y-81754084D01*
X238222670Y-81754087D01*
X238222674Y-81754089D01*
X238394993Y-81845712D01*
X238434972Y-81862190D01*
X238474700Y-81879218D01*
X238481056Y-81881185D01*
X238481063Y-81881188D01*
X238481070Y-81881189D01*
X238667898Y-81937597D01*
X238710337Y-81946000D01*
X238752595Y-81954983D01*
X238759212Y-81955677D01*
X238759220Y-81955679D01*
X238759228Y-81955679D01*
X238953452Y-81974723D01*
X239101139Y-81989204D01*
X239198432Y-82018579D01*
X239288159Y-82066287D01*
X239366911Y-82130517D01*
X239431690Y-82208820D01*
X239480026Y-82298216D01*
X239510077Y-82395296D01*
X239523000Y-82518248D01*
X239523001Y-104523000D01*
X227923423Y-104523000D01*
X227900000Y-104520693D01*
X227876578Y-104523000D01*
X227876577Y-104523000D01*
X227806492Y-104529903D01*
X227716577Y-104557178D01*
X227633711Y-104601471D01*
X227561079Y-104661079D01*
X227501471Y-104733711D01*
X227457178Y-104816577D01*
X227440063Y-104873000D01*
X222359937Y-104873000D01*
X222342822Y-104816577D01*
X222298529Y-104733711D01*
X222238921Y-104661079D01*
X222166289Y-104601471D01*
X222083423Y-104557178D01*
X221993508Y-104529903D01*
X221923423Y-104523000D01*
X221900000Y-104520693D01*
X221876578Y-104523000D01*
X211477000Y-104523000D01*
X211477000Y-93023423D01*
X211479307Y-93000000D01*
X211470097Y-92906492D01*
X211462893Y-92882743D01*
X218306000Y-92882743D01*
X218306000Y-93097257D01*
X218347850Y-93307650D01*
X218429941Y-93505835D01*
X218549119Y-93684197D01*
X218700803Y-93835881D01*
X218879165Y-93955059D01*
X219077350Y-94037150D01*
X219287743Y-94079000D01*
X219502257Y-94079000D01*
X219712650Y-94037150D01*
X219910835Y-93955059D01*
X220089197Y-93835881D01*
X220240881Y-93684197D01*
X220360059Y-93505835D01*
X220442150Y-93307650D01*
X220484000Y-93097257D01*
X220484000Y-92882743D01*
X229556000Y-92882743D01*
X229556000Y-93097257D01*
X229597850Y-93307650D01*
X229679941Y-93505835D01*
X229799119Y-93684197D01*
X229950803Y-93835881D01*
X230129165Y-93955059D01*
X230327350Y-94037150D01*
X230537743Y-94079000D01*
X230752257Y-94079000D01*
X230962650Y-94037150D01*
X231160835Y-93955059D01*
X231339197Y-93835881D01*
X231490881Y-93684197D01*
X231610059Y-93505835D01*
X231692150Y-93307650D01*
X231734000Y-93097257D01*
X231734000Y-92882743D01*
X231692150Y-92672350D01*
X231610059Y-92474165D01*
X231490881Y-92295803D01*
X231339197Y-92144119D01*
X231160835Y-92024941D01*
X230962650Y-91942850D01*
X230752257Y-91901000D01*
X230537743Y-91901000D01*
X230327350Y-91942850D01*
X230129165Y-92024941D01*
X229950803Y-92144119D01*
X229799119Y-92295803D01*
X229679941Y-92474165D01*
X229597850Y-92672350D01*
X229556000Y-92882743D01*
X220484000Y-92882743D01*
X220442150Y-92672350D01*
X220360059Y-92474165D01*
X220240881Y-92295803D01*
X220089197Y-92144119D01*
X219910835Y-92024941D01*
X219712650Y-91942850D01*
X219502257Y-91901000D01*
X219287743Y-91901000D01*
X219077350Y-91942850D01*
X218879165Y-92024941D01*
X218700803Y-92144119D01*
X218549119Y-92295803D01*
X218429941Y-92474165D01*
X218347850Y-92672350D01*
X218306000Y-92882743D01*
X211462893Y-92882743D01*
X211442822Y-92816577D01*
X211398529Y-92733711D01*
X211338921Y-92661079D01*
X211266289Y-92601471D01*
X211183423Y-92557178D01*
X211127000Y-92540063D01*
X211127000Y-90342743D01*
X218306000Y-90342743D01*
X218306000Y-90557257D01*
X218347850Y-90767650D01*
X218429941Y-90965835D01*
X218549119Y-91144197D01*
X218700803Y-91295881D01*
X218879165Y-91415059D01*
X219077350Y-91497150D01*
X219287743Y-91539000D01*
X219502257Y-91539000D01*
X219712650Y-91497150D01*
X219910835Y-91415059D01*
X220089197Y-91295881D01*
X220240881Y-91144197D01*
X220360059Y-90965835D01*
X220442150Y-90767650D01*
X220484000Y-90557257D01*
X220484000Y-90342743D01*
X229556000Y-90342743D01*
X229556000Y-90557257D01*
X229597850Y-90767650D01*
X229679941Y-90965835D01*
X229799119Y-91144197D01*
X229950803Y-91295881D01*
X230129165Y-91415059D01*
X230327350Y-91497150D01*
X230537743Y-91539000D01*
X230752257Y-91539000D01*
X230962650Y-91497150D01*
X231160835Y-91415059D01*
X231339197Y-91295881D01*
X231490881Y-91144197D01*
X231610059Y-90965835D01*
X231692150Y-90767650D01*
X231734000Y-90557257D01*
X231734000Y-90342743D01*
X231692150Y-90132350D01*
X231610059Y-89934165D01*
X231490881Y-89755803D01*
X231339197Y-89604119D01*
X231160835Y-89484941D01*
X230962650Y-89402850D01*
X230752257Y-89361000D01*
X230537743Y-89361000D01*
X230327350Y-89402850D01*
X230129165Y-89484941D01*
X229950803Y-89604119D01*
X229799119Y-89755803D01*
X229679941Y-89934165D01*
X229597850Y-90132350D01*
X229556000Y-90342743D01*
X220484000Y-90342743D01*
X220442150Y-90132350D01*
X220360059Y-89934165D01*
X220240881Y-89755803D01*
X220089197Y-89604119D01*
X219910835Y-89484941D01*
X219712650Y-89402850D01*
X219502257Y-89361000D01*
X219287743Y-89361000D01*
X219077350Y-89402850D01*
X218879165Y-89484941D01*
X218700803Y-89604119D01*
X218549119Y-89755803D01*
X218429941Y-89934165D01*
X218347850Y-90132350D01*
X218306000Y-90342743D01*
X211127000Y-90342743D01*
X211127000Y-87802743D01*
X218306000Y-87802743D01*
X218306000Y-88017257D01*
X218347850Y-88227650D01*
X218429941Y-88425835D01*
X218549119Y-88604197D01*
X218700803Y-88755881D01*
X218879165Y-88875059D01*
X219077350Y-88957150D01*
X219287743Y-88999000D01*
X219502257Y-88999000D01*
X219712650Y-88957150D01*
X219910835Y-88875059D01*
X220089197Y-88755881D01*
X220240881Y-88604197D01*
X220360059Y-88425835D01*
X220442150Y-88227650D01*
X220484000Y-88017257D01*
X220484000Y-87802743D01*
X229556000Y-87802743D01*
X229556000Y-88017257D01*
X229597850Y-88227650D01*
X229679941Y-88425835D01*
X229799119Y-88604197D01*
X229950803Y-88755881D01*
X230129165Y-88875059D01*
X230327350Y-88957150D01*
X230537743Y-88999000D01*
X230752257Y-88999000D01*
X230962650Y-88957150D01*
X231160835Y-88875059D01*
X231339197Y-88755881D01*
X231490881Y-88604197D01*
X231610059Y-88425835D01*
X231692150Y-88227650D01*
X231734000Y-88017257D01*
X231734000Y-87802743D01*
X231692150Y-87592350D01*
X231610059Y-87394165D01*
X231490881Y-87215803D01*
X231339197Y-87064119D01*
X231160835Y-86944941D01*
X230962650Y-86862850D01*
X230752257Y-86821000D01*
X230537743Y-86821000D01*
X230327350Y-86862850D01*
X230129165Y-86944941D01*
X229950803Y-87064119D01*
X229799119Y-87215803D01*
X229679941Y-87394165D01*
X229597850Y-87592350D01*
X229556000Y-87802743D01*
X220484000Y-87802743D01*
X220442150Y-87592350D01*
X220360059Y-87394165D01*
X220240881Y-87215803D01*
X220089197Y-87064119D01*
X219910835Y-86944941D01*
X219712650Y-86862850D01*
X219502257Y-86821000D01*
X219287743Y-86821000D01*
X219077350Y-86862850D01*
X218879165Y-86944941D01*
X218700803Y-87064119D01*
X218549119Y-87215803D01*
X218429941Y-87394165D01*
X218347850Y-87592350D01*
X218306000Y-87802743D01*
X211127000Y-87802743D01*
X211127000Y-87459937D01*
X211183423Y-87442822D01*
X211266289Y-87398529D01*
X211338921Y-87338921D01*
X211398529Y-87266289D01*
X211442822Y-87183423D01*
X211470097Y-87093508D01*
X211479307Y-87000000D01*
X211477000Y-86976577D01*
X211477000Y-82523326D01*
X211489204Y-82398861D01*
X211518579Y-82301568D01*
X211566287Y-82211841D01*
X211630517Y-82133089D01*
X211708820Y-82068310D01*
X211798216Y-82019974D01*
X211895296Y-81989923D01*
X212037966Y-81974927D01*
X212050214Y-81975013D01*
X212056842Y-81974363D01*
X212250939Y-81953962D01*
X212293303Y-81945266D01*
X212335755Y-81937168D01*
X212342126Y-81935244D01*
X212342132Y-81935243D01*
X212342138Y-81935241D01*
X212528568Y-81877531D01*
X212568418Y-81860780D01*
X212608508Y-81844583D01*
X212614384Y-81841458D01*
X212614389Y-81841456D01*
X212614393Y-81841453D01*
X212786065Y-81748631D01*
X212821936Y-81724436D01*
X212858084Y-81700782D01*
X212863236Y-81696580D01*
X212863244Y-81696574D01*
X212863251Y-81696567D01*
X213013623Y-81572168D01*
X213044076Y-81541502D01*
X213074975Y-81511244D01*
X213079214Y-81506118D01*
X213079220Y-81506112D01*
X213079224Y-81506105D01*
X213202569Y-81354870D01*
X213226489Y-81318867D01*
X213250920Y-81283188D01*
X213254084Y-81277334D01*
X213254087Y-81277330D01*
X213254089Y-81277326D01*
X213345712Y-81105007D01*
X213362190Y-81065028D01*
X213379218Y-81025300D01*
X213381187Y-81018939D01*
X213381188Y-81018937D01*
X213381189Y-81018930D01*
X213437597Y-80832102D01*
X213446000Y-80789663D01*
X213454983Y-80747405D01*
X213455677Y-80740788D01*
X213455679Y-80740780D01*
X213455679Y-80740772D01*
X213474723Y-80546548D01*
X213474723Y-80546541D01*
X213477000Y-80523423D01*
X213477000Y-75977000D01*
X221876577Y-75977000D01*
X221900000Y-75979307D01*
X221923422Y-75977000D01*
X221923423Y-75977000D01*
X221993508Y-75970097D01*
X222083423Y-75942822D01*
X222166289Y-75898529D01*
X222238921Y-75838921D01*
X222298529Y-75766289D01*
X222342822Y-75683423D01*
X222359937Y-75627000D01*
X227440063Y-75627000D01*
X227457178Y-75683423D01*
G37*
X227457178Y-75683423D02*
X227501471Y-75766289D01*
X227561079Y-75838921D01*
X227633711Y-75898529D01*
X227716577Y-75942822D01*
X227806492Y-75970097D01*
X227900000Y-75979307D01*
X227923422Y-75977000D01*
X237523000Y-75977000D01*
X237523001Y-80523423D01*
X237525030Y-80544025D01*
X237524987Y-80550214D01*
X237525637Y-80556842D01*
X237546038Y-80750939D01*
X237554734Y-80793303D01*
X237562832Y-80835755D01*
X237564756Y-80842126D01*
X237564757Y-80842132D01*
X237564759Y-80842138D01*
X237622469Y-81028568D01*
X237639220Y-81068418D01*
X237655417Y-81108508D01*
X237658542Y-81114384D01*
X237658544Y-81114389D01*
X237658547Y-81114393D01*
X237751369Y-81286065D01*
X237775564Y-81321936D01*
X237799218Y-81358084D01*
X237803420Y-81363236D01*
X237803426Y-81363244D01*
X237803433Y-81363251D01*
X237927832Y-81513623D01*
X237958498Y-81544076D01*
X237988756Y-81574975D01*
X237993882Y-81579214D01*
X237993888Y-81579220D01*
X237993895Y-81579224D01*
X238145130Y-81702569D01*
X238181133Y-81726489D01*
X238216812Y-81750920D01*
X238222666Y-81754084D01*
X238222670Y-81754087D01*
X238222674Y-81754089D01*
X238394993Y-81845712D01*
X238434972Y-81862190D01*
X238474700Y-81879218D01*
X238481056Y-81881185D01*
X238481063Y-81881188D01*
X238481070Y-81881189D01*
X238667898Y-81937597D01*
X238710337Y-81946000D01*
X238752595Y-81954983D01*
X238759212Y-81955677D01*
X238759220Y-81955679D01*
X238759228Y-81955679D01*
X238953452Y-81974723D01*
X239101139Y-81989204D01*
X239198432Y-82018579D01*
X239288159Y-82066287D01*
X239366911Y-82130517D01*
X239431690Y-82208820D01*
X239480026Y-82298216D01*
X239510077Y-82395296D01*
X239523000Y-82518248D01*
X239523001Y-104523000D01*
X227923423Y-104523000D01*
X227900000Y-104520693D01*
X227876578Y-104523000D01*
X227876577Y-104523000D01*
X227806492Y-104529903D01*
X227716577Y-104557178D01*
X227633711Y-104601471D01*
X227561079Y-104661079D01*
X227501471Y-104733711D01*
X227457178Y-104816577D01*
X227440063Y-104873000D01*
X222359937Y-104873000D01*
X222342822Y-104816577D01*
X222298529Y-104733711D01*
X222238921Y-104661079D01*
X222166289Y-104601471D01*
X222083423Y-104557178D01*
X221993508Y-104529903D01*
X221923423Y-104523000D01*
X221900000Y-104520693D01*
X221876578Y-104523000D01*
X211477000Y-104523000D01*
X211477000Y-93023423D01*
X211479307Y-93000000D01*
X211470097Y-92906492D01*
X211462893Y-92882743D01*
X218306000Y-92882743D01*
X218306000Y-93097257D01*
X218347850Y-93307650D01*
X218429941Y-93505835D01*
X218549119Y-93684197D01*
X218700803Y-93835881D01*
X218879165Y-93955059D01*
X219077350Y-94037150D01*
X219287743Y-94079000D01*
X219502257Y-94079000D01*
X219712650Y-94037150D01*
X219910835Y-93955059D01*
X220089197Y-93835881D01*
X220240881Y-93684197D01*
X220360059Y-93505835D01*
X220442150Y-93307650D01*
X220484000Y-93097257D01*
X220484000Y-92882743D01*
X229556000Y-92882743D01*
X229556000Y-93097257D01*
X229597850Y-93307650D01*
X229679941Y-93505835D01*
X229799119Y-93684197D01*
X229950803Y-93835881D01*
X230129165Y-93955059D01*
X230327350Y-94037150D01*
X230537743Y-94079000D01*
X230752257Y-94079000D01*
X230962650Y-94037150D01*
X231160835Y-93955059D01*
X231339197Y-93835881D01*
X231490881Y-93684197D01*
X231610059Y-93505835D01*
X231692150Y-93307650D01*
X231734000Y-93097257D01*
X231734000Y-92882743D01*
X231692150Y-92672350D01*
X231610059Y-92474165D01*
X231490881Y-92295803D01*
X231339197Y-92144119D01*
X231160835Y-92024941D01*
X230962650Y-91942850D01*
X230752257Y-91901000D01*
X230537743Y-91901000D01*
X230327350Y-91942850D01*
X230129165Y-92024941D01*
X229950803Y-92144119D01*
X229799119Y-92295803D01*
X229679941Y-92474165D01*
X229597850Y-92672350D01*
X229556000Y-92882743D01*
X220484000Y-92882743D01*
X220442150Y-92672350D01*
X220360059Y-92474165D01*
X220240881Y-92295803D01*
X220089197Y-92144119D01*
X219910835Y-92024941D01*
X219712650Y-91942850D01*
X219502257Y-91901000D01*
X219287743Y-91901000D01*
X219077350Y-91942850D01*
X218879165Y-92024941D01*
X218700803Y-92144119D01*
X218549119Y-92295803D01*
X218429941Y-92474165D01*
X218347850Y-92672350D01*
X218306000Y-92882743D01*
X211462893Y-92882743D01*
X211442822Y-92816577D01*
X211398529Y-92733711D01*
X211338921Y-92661079D01*
X211266289Y-92601471D01*
X211183423Y-92557178D01*
X211127000Y-92540063D01*
X211127000Y-90342743D01*
X218306000Y-90342743D01*
X218306000Y-90557257D01*
X218347850Y-90767650D01*
X218429941Y-90965835D01*
X218549119Y-91144197D01*
X218700803Y-91295881D01*
X218879165Y-91415059D01*
X219077350Y-91497150D01*
X219287743Y-91539000D01*
X219502257Y-91539000D01*
X219712650Y-91497150D01*
X219910835Y-91415059D01*
X220089197Y-91295881D01*
X220240881Y-91144197D01*
X220360059Y-90965835D01*
X220442150Y-90767650D01*
X220484000Y-90557257D01*
X220484000Y-90342743D01*
X229556000Y-90342743D01*
X229556000Y-90557257D01*
X229597850Y-90767650D01*
X229679941Y-90965835D01*
X229799119Y-91144197D01*
X229950803Y-91295881D01*
X230129165Y-91415059D01*
X230327350Y-91497150D01*
X230537743Y-91539000D01*
X230752257Y-91539000D01*
X230962650Y-91497150D01*
X231160835Y-91415059D01*
X231339197Y-91295881D01*
X231490881Y-91144197D01*
X231610059Y-90965835D01*
X231692150Y-90767650D01*
X231734000Y-90557257D01*
X231734000Y-90342743D01*
X231692150Y-90132350D01*
X231610059Y-89934165D01*
X231490881Y-89755803D01*
X231339197Y-89604119D01*
X231160835Y-89484941D01*
X230962650Y-89402850D01*
X230752257Y-89361000D01*
X230537743Y-89361000D01*
X230327350Y-89402850D01*
X230129165Y-89484941D01*
X229950803Y-89604119D01*
X229799119Y-89755803D01*
X229679941Y-89934165D01*
X229597850Y-90132350D01*
X229556000Y-90342743D01*
X220484000Y-90342743D01*
X220442150Y-90132350D01*
X220360059Y-89934165D01*
X220240881Y-89755803D01*
X220089197Y-89604119D01*
X219910835Y-89484941D01*
X219712650Y-89402850D01*
X219502257Y-89361000D01*
X219287743Y-89361000D01*
X219077350Y-89402850D01*
X218879165Y-89484941D01*
X218700803Y-89604119D01*
X218549119Y-89755803D01*
X218429941Y-89934165D01*
X218347850Y-90132350D01*
X218306000Y-90342743D01*
X211127000Y-90342743D01*
X211127000Y-87802743D01*
X218306000Y-87802743D01*
X218306000Y-88017257D01*
X218347850Y-88227650D01*
X218429941Y-88425835D01*
X218549119Y-88604197D01*
X218700803Y-88755881D01*
X218879165Y-88875059D01*
X219077350Y-88957150D01*
X219287743Y-88999000D01*
X219502257Y-88999000D01*
X219712650Y-88957150D01*
X219910835Y-88875059D01*
X220089197Y-88755881D01*
X220240881Y-88604197D01*
X220360059Y-88425835D01*
X220442150Y-88227650D01*
X220484000Y-88017257D01*
X220484000Y-87802743D01*
X229556000Y-87802743D01*
X229556000Y-88017257D01*
X229597850Y-88227650D01*
X229679941Y-88425835D01*
X229799119Y-88604197D01*
X229950803Y-88755881D01*
X230129165Y-88875059D01*
X230327350Y-88957150D01*
X230537743Y-88999000D01*
X230752257Y-88999000D01*
X230962650Y-88957150D01*
X231160835Y-88875059D01*
X231339197Y-88755881D01*
X231490881Y-88604197D01*
X231610059Y-88425835D01*
X231692150Y-88227650D01*
X231734000Y-88017257D01*
X231734000Y-87802743D01*
X231692150Y-87592350D01*
X231610059Y-87394165D01*
X231490881Y-87215803D01*
X231339197Y-87064119D01*
X231160835Y-86944941D01*
X230962650Y-86862850D01*
X230752257Y-86821000D01*
X230537743Y-86821000D01*
X230327350Y-86862850D01*
X230129165Y-86944941D01*
X229950803Y-87064119D01*
X229799119Y-87215803D01*
X229679941Y-87394165D01*
X229597850Y-87592350D01*
X229556000Y-87802743D01*
X220484000Y-87802743D01*
X220442150Y-87592350D01*
X220360059Y-87394165D01*
X220240881Y-87215803D01*
X220089197Y-87064119D01*
X219910835Y-86944941D01*
X219712650Y-86862850D01*
X219502257Y-86821000D01*
X219287743Y-86821000D01*
X219077350Y-86862850D01*
X218879165Y-86944941D01*
X218700803Y-87064119D01*
X218549119Y-87215803D01*
X218429941Y-87394165D01*
X218347850Y-87592350D01*
X218306000Y-87802743D01*
X211127000Y-87802743D01*
X211127000Y-87459937D01*
X211183423Y-87442822D01*
X211266289Y-87398529D01*
X211338921Y-87338921D01*
X211398529Y-87266289D01*
X211442822Y-87183423D01*
X211470097Y-87093508D01*
X211479307Y-87000000D01*
X211477000Y-86976577D01*
X211477000Y-82523326D01*
X211489204Y-82398861D01*
X211518579Y-82301568D01*
X211566287Y-82211841D01*
X211630517Y-82133089D01*
X211708820Y-82068310D01*
X211798216Y-82019974D01*
X211895296Y-81989923D01*
X212037966Y-81974927D01*
X212050214Y-81975013D01*
X212056842Y-81974363D01*
X212250939Y-81953962D01*
X212293303Y-81945266D01*
X212335755Y-81937168D01*
X212342126Y-81935244D01*
X212342132Y-81935243D01*
X212342138Y-81935241D01*
X212528568Y-81877531D01*
X212568418Y-81860780D01*
X212608508Y-81844583D01*
X212614384Y-81841458D01*
X212614389Y-81841456D01*
X212614393Y-81841453D01*
X212786065Y-81748631D01*
X212821936Y-81724436D01*
X212858084Y-81700782D01*
X212863236Y-81696580D01*
X212863244Y-81696574D01*
X212863251Y-81696567D01*
X213013623Y-81572168D01*
X213044076Y-81541502D01*
X213074975Y-81511244D01*
X213079214Y-81506118D01*
X213079220Y-81506112D01*
X213079224Y-81506105D01*
X213202569Y-81354870D01*
X213226489Y-81318867D01*
X213250920Y-81283188D01*
X213254084Y-81277334D01*
X213254087Y-81277330D01*
X213254089Y-81277326D01*
X213345712Y-81105007D01*
X213362190Y-81065028D01*
X213379218Y-81025300D01*
X213381187Y-81018939D01*
X213381188Y-81018937D01*
X213381189Y-81018930D01*
X213437597Y-80832102D01*
X213446000Y-80789663D01*
X213454983Y-80747405D01*
X213455677Y-80740788D01*
X213455679Y-80740780D01*
X213455679Y-80740772D01*
X213474723Y-80546548D01*
X213474723Y-80546541D01*
X213477000Y-80523423D01*
X213477000Y-75977000D01*
X221876577Y-75977000D01*
X221900000Y-75979307D01*
X221923422Y-75977000D01*
X221923423Y-75977000D01*
X221993508Y-75970097D01*
X222083423Y-75942822D01*
X222166289Y-75898529D01*
X222238921Y-75838921D01*
X222298529Y-75766289D01*
X222342822Y-75683423D01*
X222359937Y-75627000D01*
X227440063Y-75627000D01*
X227457178Y-75683423D01*
G36*
X237523001Y-45023423D02*
G01*
X237525030Y-45044025D01*
X237524987Y-45050214D01*
X237525637Y-45056842D01*
X237546038Y-45250939D01*
X237554734Y-45293303D01*
X237562832Y-45335755D01*
X237564756Y-45342126D01*
X237564757Y-45342132D01*
X237564759Y-45342138D01*
X237622469Y-45528568D01*
X237639220Y-45568418D01*
X237655417Y-45608508D01*
X237658542Y-45614384D01*
X237658544Y-45614389D01*
X237658547Y-45614393D01*
X237751369Y-45786065D01*
X237775564Y-45821936D01*
X237799218Y-45858084D01*
X237803420Y-45863236D01*
X237803426Y-45863244D01*
X237803433Y-45863251D01*
X237927832Y-46013623D01*
X237958498Y-46044076D01*
X237988756Y-46074975D01*
X237993882Y-46079214D01*
X237993888Y-46079220D01*
X237993895Y-46079224D01*
X238145130Y-46202569D01*
X238181133Y-46226489D01*
X238216812Y-46250920D01*
X238222666Y-46254084D01*
X238222670Y-46254087D01*
X238222674Y-46254089D01*
X238394993Y-46345712D01*
X238434972Y-46362190D01*
X238474700Y-46379218D01*
X238481056Y-46381185D01*
X238481063Y-46381188D01*
X238481070Y-46381189D01*
X238667898Y-46437597D01*
X238710337Y-46446000D01*
X238752595Y-46454983D01*
X238759212Y-46455677D01*
X238759220Y-46455679D01*
X238759228Y-46455679D01*
X238953452Y-46474723D01*
X239101139Y-46489204D01*
X239198432Y-46518579D01*
X239288159Y-46566287D01*
X239366911Y-46630517D01*
X239431690Y-46708820D01*
X239480026Y-46798216D01*
X239510077Y-46895296D01*
X239523000Y-47018248D01*
X239523001Y-69023000D01*
X227923423Y-69023000D01*
X227900000Y-69020693D01*
X227876578Y-69023000D01*
X227876577Y-69023000D01*
X227806492Y-69029903D01*
X227716577Y-69057178D01*
X227633711Y-69101471D01*
X227561079Y-69161079D01*
X227501471Y-69233711D01*
X227457178Y-69316577D01*
X227440063Y-69373000D01*
X222359937Y-69373000D01*
X222342822Y-69316577D01*
X222298529Y-69233711D01*
X222238921Y-69161079D01*
X222166289Y-69101471D01*
X222083423Y-69057178D01*
X221993508Y-69029903D01*
X221923423Y-69023000D01*
X221900000Y-69020693D01*
X221876578Y-69023000D01*
X211477000Y-69023000D01*
X211477000Y-58023423D01*
X211479307Y-58000000D01*
X211470097Y-57906492D01*
X211442822Y-57816577D01*
X211398529Y-57733711D01*
X211338921Y-57661079D01*
X211266289Y-57601471D01*
X211183423Y-57557178D01*
X211127000Y-57540063D01*
X211127000Y-57382743D01*
X218306000Y-57382743D01*
X218306000Y-57597257D01*
X218347850Y-57807650D01*
X218429941Y-58005835D01*
X218549119Y-58184197D01*
X218700803Y-58335881D01*
X218879165Y-58455059D01*
X219077350Y-58537150D01*
X219287743Y-58579000D01*
X219502257Y-58579000D01*
X219712650Y-58537150D01*
X219910835Y-58455059D01*
X220089197Y-58335881D01*
X220240881Y-58184197D01*
X220360059Y-58005835D01*
X220442150Y-57807650D01*
X220484000Y-57597257D01*
X220484000Y-57382743D01*
X229556000Y-57382743D01*
X229556000Y-57597257D01*
X229597850Y-57807650D01*
X229679941Y-58005835D01*
X229799119Y-58184197D01*
X229950803Y-58335881D01*
X230129165Y-58455059D01*
X230327350Y-58537150D01*
X230537743Y-58579000D01*
X230752257Y-58579000D01*
X230962650Y-58537150D01*
X231160835Y-58455059D01*
X231339197Y-58335881D01*
X231490881Y-58184197D01*
X231610059Y-58005835D01*
X231692150Y-57807650D01*
X231734000Y-57597257D01*
X231734000Y-57382743D01*
X231692150Y-57172350D01*
X231610059Y-56974165D01*
X231490881Y-56795803D01*
X231339197Y-56644119D01*
X231160835Y-56524941D01*
X230962650Y-56442850D01*
X230752257Y-56401000D01*
X230537743Y-56401000D01*
X230327350Y-56442850D01*
X230129165Y-56524941D01*
X229950803Y-56644119D01*
X229799119Y-56795803D01*
X229679941Y-56974165D01*
X229597850Y-57172350D01*
X229556000Y-57382743D01*
X220484000Y-57382743D01*
X220442150Y-57172350D01*
X220360059Y-56974165D01*
X220240881Y-56795803D01*
X220089197Y-56644119D01*
X219910835Y-56524941D01*
X219712650Y-56442850D01*
X219502257Y-56401000D01*
X219287743Y-56401000D01*
X219077350Y-56442850D01*
X218879165Y-56524941D01*
X218700803Y-56644119D01*
X218549119Y-56795803D01*
X218429941Y-56974165D01*
X218347850Y-57172350D01*
X218306000Y-57382743D01*
X211127000Y-57382743D01*
X211127000Y-54842743D01*
X218306000Y-54842743D01*
X218306000Y-55057257D01*
X218347850Y-55267650D01*
X218429941Y-55465835D01*
X218549119Y-55644197D01*
X218700803Y-55795881D01*
X218879165Y-55915059D01*
X219077350Y-55997150D01*
X219287743Y-56039000D01*
X219502257Y-56039000D01*
X219712650Y-55997150D01*
X219910835Y-55915059D01*
X220089197Y-55795881D01*
X220240881Y-55644197D01*
X220360059Y-55465835D01*
X220442150Y-55267650D01*
X220484000Y-55057257D01*
X220484000Y-54842743D01*
X229556000Y-54842743D01*
X229556000Y-55057257D01*
X229597850Y-55267650D01*
X229679941Y-55465835D01*
X229799119Y-55644197D01*
X229950803Y-55795881D01*
X230129165Y-55915059D01*
X230327350Y-55997150D01*
X230537743Y-56039000D01*
X230752257Y-56039000D01*
X230962650Y-55997150D01*
X231160835Y-55915059D01*
X231339197Y-55795881D01*
X231490881Y-55644197D01*
X231610059Y-55465835D01*
X231692150Y-55267650D01*
X231734000Y-55057257D01*
X231734000Y-54842743D01*
X231692150Y-54632350D01*
X231610059Y-54434165D01*
X231490881Y-54255803D01*
X231339197Y-54104119D01*
X231160835Y-53984941D01*
X230962650Y-53902850D01*
X230752257Y-53861000D01*
X230537743Y-53861000D01*
X230327350Y-53902850D01*
X230129165Y-53984941D01*
X229950803Y-54104119D01*
X229799119Y-54255803D01*
X229679941Y-54434165D01*
X229597850Y-54632350D01*
X229556000Y-54842743D01*
X220484000Y-54842743D01*
X220442150Y-54632350D01*
X220360059Y-54434165D01*
X220240881Y-54255803D01*
X220089197Y-54104119D01*
X219910835Y-53984941D01*
X219712650Y-53902850D01*
X219502257Y-53861000D01*
X219287743Y-53861000D01*
X219077350Y-53902850D01*
X218879165Y-53984941D01*
X218700803Y-54104119D01*
X218549119Y-54255803D01*
X218429941Y-54434165D01*
X218347850Y-54632350D01*
X218306000Y-54842743D01*
X211127000Y-54842743D01*
X211127000Y-52459937D01*
X211183423Y-52442822D01*
X211266289Y-52398529D01*
X211338921Y-52338921D01*
X211368611Y-52302743D01*
X218306000Y-52302743D01*
X218306000Y-52517257D01*
X218347850Y-52727650D01*
X218429941Y-52925835D01*
X218549119Y-53104197D01*
X218700803Y-53255881D01*
X218879165Y-53375059D01*
X219077350Y-53457150D01*
X219287743Y-53499000D01*
X219502257Y-53499000D01*
X219712650Y-53457150D01*
X219910835Y-53375059D01*
X220089197Y-53255881D01*
X220240881Y-53104197D01*
X220360059Y-52925835D01*
X220442150Y-52727650D01*
X220484000Y-52517257D01*
X220484000Y-52302743D01*
X229556000Y-52302743D01*
X229556000Y-52517257D01*
X229597850Y-52727650D01*
X229679941Y-52925835D01*
X229799119Y-53104197D01*
X229950803Y-53255881D01*
X230129165Y-53375059D01*
X230327350Y-53457150D01*
X230537743Y-53499000D01*
X230752257Y-53499000D01*
X230962650Y-53457150D01*
X231160835Y-53375059D01*
X231339197Y-53255881D01*
X231490881Y-53104197D01*
X231610059Y-52925835D01*
X231692150Y-52727650D01*
X231734000Y-52517257D01*
X231734000Y-52302743D01*
X231692150Y-52092350D01*
X231610059Y-51894165D01*
X231490881Y-51715803D01*
X231339197Y-51564119D01*
X231160835Y-51444941D01*
X230962650Y-51362850D01*
X230752257Y-51321000D01*
X230537743Y-51321000D01*
X230327350Y-51362850D01*
X230129165Y-51444941D01*
X229950803Y-51564119D01*
X229799119Y-51715803D01*
X229679941Y-51894165D01*
X229597850Y-52092350D01*
X229556000Y-52302743D01*
X220484000Y-52302743D01*
X220442150Y-52092350D01*
X220360059Y-51894165D01*
X220240881Y-51715803D01*
X220089197Y-51564119D01*
X219910835Y-51444941D01*
X219712650Y-51362850D01*
X219502257Y-51321000D01*
X219287743Y-51321000D01*
X219077350Y-51362850D01*
X218879165Y-51444941D01*
X218700803Y-51564119D01*
X218549119Y-51715803D01*
X218429941Y-51894165D01*
X218347850Y-52092350D01*
X218306000Y-52302743D01*
X211368611Y-52302743D01*
X211398529Y-52266289D01*
X211442822Y-52183423D01*
X211470097Y-52093508D01*
X211479307Y-52000000D01*
X211477000Y-51976577D01*
X211477000Y-47023326D01*
X211489204Y-46898861D01*
X211518579Y-46801568D01*
X211566287Y-46711841D01*
X211630517Y-46633089D01*
X211708820Y-46568310D01*
X211798216Y-46519974D01*
X211895296Y-46489923D01*
X212037966Y-46474927D01*
X212050214Y-46475013D01*
X212056842Y-46474363D01*
X212250939Y-46453962D01*
X212293303Y-46445266D01*
X212335755Y-46437168D01*
X212342126Y-46435244D01*
X212342132Y-46435243D01*
X212342138Y-46435241D01*
X212528568Y-46377531D01*
X212568418Y-46360780D01*
X212608508Y-46344583D01*
X212614384Y-46341458D01*
X212614389Y-46341456D01*
X212614393Y-46341453D01*
X212786065Y-46248631D01*
X212821936Y-46224436D01*
X212858084Y-46200782D01*
X212863236Y-46196580D01*
X212863244Y-46196574D01*
X212863251Y-46196567D01*
X213013623Y-46072168D01*
X213044076Y-46041502D01*
X213074975Y-46011244D01*
X213079214Y-46006118D01*
X213079220Y-46006112D01*
X213079224Y-46006105D01*
X213202569Y-45854870D01*
X213226489Y-45818867D01*
X213250920Y-45783188D01*
X213254084Y-45777334D01*
X213254087Y-45777330D01*
X213254089Y-45777326D01*
X213345712Y-45605007D01*
X213362190Y-45565028D01*
X213379218Y-45525300D01*
X213381187Y-45518939D01*
X213381188Y-45518937D01*
X213381189Y-45518930D01*
X213437597Y-45332102D01*
X213446000Y-45289663D01*
X213454983Y-45247405D01*
X213455677Y-45240788D01*
X213455679Y-45240780D01*
X213455679Y-45240772D01*
X213474723Y-45046548D01*
X213474723Y-45046541D01*
X213477000Y-45023423D01*
X213477000Y-40477000D01*
X237523000Y-40477000D01*
X237523001Y-45023423D01*
G37*
X237523001Y-45023423D02*
X237525030Y-45044025D01*
X237524987Y-45050214D01*
X237525637Y-45056842D01*
X237546038Y-45250939D01*
X237554734Y-45293303D01*
X237562832Y-45335755D01*
X237564756Y-45342126D01*
X237564757Y-45342132D01*
X237564759Y-45342138D01*
X237622469Y-45528568D01*
X237639220Y-45568418D01*
X237655417Y-45608508D01*
X237658542Y-45614384D01*
X237658544Y-45614389D01*
X237658547Y-45614393D01*
X237751369Y-45786065D01*
X237775564Y-45821936D01*
X237799218Y-45858084D01*
X237803420Y-45863236D01*
X237803426Y-45863244D01*
X237803433Y-45863251D01*
X237927832Y-46013623D01*
X237958498Y-46044076D01*
X237988756Y-46074975D01*
X237993882Y-46079214D01*
X237993888Y-46079220D01*
X237993895Y-46079224D01*
X238145130Y-46202569D01*
X238181133Y-46226489D01*
X238216812Y-46250920D01*
X238222666Y-46254084D01*
X238222670Y-46254087D01*
X238222674Y-46254089D01*
X238394993Y-46345712D01*
X238434972Y-46362190D01*
X238474700Y-46379218D01*
X238481056Y-46381185D01*
X238481063Y-46381188D01*
X238481070Y-46381189D01*
X238667898Y-46437597D01*
X238710337Y-46446000D01*
X238752595Y-46454983D01*
X238759212Y-46455677D01*
X238759220Y-46455679D01*
X238759228Y-46455679D01*
X238953452Y-46474723D01*
X239101139Y-46489204D01*
X239198432Y-46518579D01*
X239288159Y-46566287D01*
X239366911Y-46630517D01*
X239431690Y-46708820D01*
X239480026Y-46798216D01*
X239510077Y-46895296D01*
X239523000Y-47018248D01*
X239523001Y-69023000D01*
X227923423Y-69023000D01*
X227900000Y-69020693D01*
X227876578Y-69023000D01*
X227876577Y-69023000D01*
X227806492Y-69029903D01*
X227716577Y-69057178D01*
X227633711Y-69101471D01*
X227561079Y-69161079D01*
X227501471Y-69233711D01*
X227457178Y-69316577D01*
X227440063Y-69373000D01*
X222359937Y-69373000D01*
X222342822Y-69316577D01*
X222298529Y-69233711D01*
X222238921Y-69161079D01*
X222166289Y-69101471D01*
X222083423Y-69057178D01*
X221993508Y-69029903D01*
X221923423Y-69023000D01*
X221900000Y-69020693D01*
X221876578Y-69023000D01*
X211477000Y-69023000D01*
X211477000Y-58023423D01*
X211479307Y-58000000D01*
X211470097Y-57906492D01*
X211442822Y-57816577D01*
X211398529Y-57733711D01*
X211338921Y-57661079D01*
X211266289Y-57601471D01*
X211183423Y-57557178D01*
X211127000Y-57540063D01*
X211127000Y-57382743D01*
X218306000Y-57382743D01*
X218306000Y-57597257D01*
X218347850Y-57807650D01*
X218429941Y-58005835D01*
X218549119Y-58184197D01*
X218700803Y-58335881D01*
X218879165Y-58455059D01*
X219077350Y-58537150D01*
X219287743Y-58579000D01*
X219502257Y-58579000D01*
X219712650Y-58537150D01*
X219910835Y-58455059D01*
X220089197Y-58335881D01*
X220240881Y-58184197D01*
X220360059Y-58005835D01*
X220442150Y-57807650D01*
X220484000Y-57597257D01*
X220484000Y-57382743D01*
X229556000Y-57382743D01*
X229556000Y-57597257D01*
X229597850Y-57807650D01*
X229679941Y-58005835D01*
X229799119Y-58184197D01*
X229950803Y-58335881D01*
X230129165Y-58455059D01*
X230327350Y-58537150D01*
X230537743Y-58579000D01*
X230752257Y-58579000D01*
X230962650Y-58537150D01*
X231160835Y-58455059D01*
X231339197Y-58335881D01*
X231490881Y-58184197D01*
X231610059Y-58005835D01*
X231692150Y-57807650D01*
X231734000Y-57597257D01*
X231734000Y-57382743D01*
X231692150Y-57172350D01*
X231610059Y-56974165D01*
X231490881Y-56795803D01*
X231339197Y-56644119D01*
X231160835Y-56524941D01*
X230962650Y-56442850D01*
X230752257Y-56401000D01*
X230537743Y-56401000D01*
X230327350Y-56442850D01*
X230129165Y-56524941D01*
X229950803Y-56644119D01*
X229799119Y-56795803D01*
X229679941Y-56974165D01*
X229597850Y-57172350D01*
X229556000Y-57382743D01*
X220484000Y-57382743D01*
X220442150Y-57172350D01*
X220360059Y-56974165D01*
X220240881Y-56795803D01*
X220089197Y-56644119D01*
X219910835Y-56524941D01*
X219712650Y-56442850D01*
X219502257Y-56401000D01*
X219287743Y-56401000D01*
X219077350Y-56442850D01*
X218879165Y-56524941D01*
X218700803Y-56644119D01*
X218549119Y-56795803D01*
X218429941Y-56974165D01*
X218347850Y-57172350D01*
X218306000Y-57382743D01*
X211127000Y-57382743D01*
X211127000Y-54842743D01*
X218306000Y-54842743D01*
X218306000Y-55057257D01*
X218347850Y-55267650D01*
X218429941Y-55465835D01*
X218549119Y-55644197D01*
X218700803Y-55795881D01*
X218879165Y-55915059D01*
X219077350Y-55997150D01*
X219287743Y-56039000D01*
X219502257Y-56039000D01*
X219712650Y-55997150D01*
X219910835Y-55915059D01*
X220089197Y-55795881D01*
X220240881Y-55644197D01*
X220360059Y-55465835D01*
X220442150Y-55267650D01*
X220484000Y-55057257D01*
X220484000Y-54842743D01*
X229556000Y-54842743D01*
X229556000Y-55057257D01*
X229597850Y-55267650D01*
X229679941Y-55465835D01*
X229799119Y-55644197D01*
X229950803Y-55795881D01*
X230129165Y-55915059D01*
X230327350Y-55997150D01*
X230537743Y-56039000D01*
X230752257Y-56039000D01*
X230962650Y-55997150D01*
X231160835Y-55915059D01*
X231339197Y-55795881D01*
X231490881Y-55644197D01*
X231610059Y-55465835D01*
X231692150Y-55267650D01*
X231734000Y-55057257D01*
X231734000Y-54842743D01*
X231692150Y-54632350D01*
X231610059Y-54434165D01*
X231490881Y-54255803D01*
X231339197Y-54104119D01*
X231160835Y-53984941D01*
X230962650Y-53902850D01*
X230752257Y-53861000D01*
X230537743Y-53861000D01*
X230327350Y-53902850D01*
X230129165Y-53984941D01*
X229950803Y-54104119D01*
X229799119Y-54255803D01*
X229679941Y-54434165D01*
X229597850Y-54632350D01*
X229556000Y-54842743D01*
X220484000Y-54842743D01*
X220442150Y-54632350D01*
X220360059Y-54434165D01*
X220240881Y-54255803D01*
X220089197Y-54104119D01*
X219910835Y-53984941D01*
X219712650Y-53902850D01*
X219502257Y-53861000D01*
X219287743Y-53861000D01*
X219077350Y-53902850D01*
X218879165Y-53984941D01*
X218700803Y-54104119D01*
X218549119Y-54255803D01*
X218429941Y-54434165D01*
X218347850Y-54632350D01*
X218306000Y-54842743D01*
X211127000Y-54842743D01*
X211127000Y-52459937D01*
X211183423Y-52442822D01*
X211266289Y-52398529D01*
X211338921Y-52338921D01*
X211368611Y-52302743D01*
X218306000Y-52302743D01*
X218306000Y-52517257D01*
X218347850Y-52727650D01*
X218429941Y-52925835D01*
X218549119Y-53104197D01*
X218700803Y-53255881D01*
X218879165Y-53375059D01*
X219077350Y-53457150D01*
X219287743Y-53499000D01*
X219502257Y-53499000D01*
X219712650Y-53457150D01*
X219910835Y-53375059D01*
X220089197Y-53255881D01*
X220240881Y-53104197D01*
X220360059Y-52925835D01*
X220442150Y-52727650D01*
X220484000Y-52517257D01*
X220484000Y-52302743D01*
X229556000Y-52302743D01*
X229556000Y-52517257D01*
X229597850Y-52727650D01*
X229679941Y-52925835D01*
X229799119Y-53104197D01*
X229950803Y-53255881D01*
X230129165Y-53375059D01*
X230327350Y-53457150D01*
X230537743Y-53499000D01*
X230752257Y-53499000D01*
X230962650Y-53457150D01*
X231160835Y-53375059D01*
X231339197Y-53255881D01*
X231490881Y-53104197D01*
X231610059Y-52925835D01*
X231692150Y-52727650D01*
X231734000Y-52517257D01*
X231734000Y-52302743D01*
X231692150Y-52092350D01*
X231610059Y-51894165D01*
X231490881Y-51715803D01*
X231339197Y-51564119D01*
X231160835Y-51444941D01*
X230962650Y-51362850D01*
X230752257Y-51321000D01*
X230537743Y-51321000D01*
X230327350Y-51362850D01*
X230129165Y-51444941D01*
X229950803Y-51564119D01*
X229799119Y-51715803D01*
X229679941Y-51894165D01*
X229597850Y-52092350D01*
X229556000Y-52302743D01*
X220484000Y-52302743D01*
X220442150Y-52092350D01*
X220360059Y-51894165D01*
X220240881Y-51715803D01*
X220089197Y-51564119D01*
X219910835Y-51444941D01*
X219712650Y-51362850D01*
X219502257Y-51321000D01*
X219287743Y-51321000D01*
X219077350Y-51362850D01*
X218879165Y-51444941D01*
X218700803Y-51564119D01*
X218549119Y-51715803D01*
X218429941Y-51894165D01*
X218347850Y-52092350D01*
X218306000Y-52302743D01*
X211368611Y-52302743D01*
X211398529Y-52266289D01*
X211442822Y-52183423D01*
X211470097Y-52093508D01*
X211479307Y-52000000D01*
X211477000Y-51976577D01*
X211477000Y-47023326D01*
X211489204Y-46898861D01*
X211518579Y-46801568D01*
X211566287Y-46711841D01*
X211630517Y-46633089D01*
X211708820Y-46568310D01*
X211798216Y-46519974D01*
X211895296Y-46489923D01*
X212037966Y-46474927D01*
X212050214Y-46475013D01*
X212056842Y-46474363D01*
X212250939Y-46453962D01*
X212293303Y-46445266D01*
X212335755Y-46437168D01*
X212342126Y-46435244D01*
X212342132Y-46435243D01*
X212342138Y-46435241D01*
X212528568Y-46377531D01*
X212568418Y-46360780D01*
X212608508Y-46344583D01*
X212614384Y-46341458D01*
X212614389Y-46341456D01*
X212614393Y-46341453D01*
X212786065Y-46248631D01*
X212821936Y-46224436D01*
X212858084Y-46200782D01*
X212863236Y-46196580D01*
X212863244Y-46196574D01*
X212863251Y-46196567D01*
X213013623Y-46072168D01*
X213044076Y-46041502D01*
X213074975Y-46011244D01*
X213079214Y-46006118D01*
X213079220Y-46006112D01*
X213079224Y-46006105D01*
X213202569Y-45854870D01*
X213226489Y-45818867D01*
X213250920Y-45783188D01*
X213254084Y-45777334D01*
X213254087Y-45777330D01*
X213254089Y-45777326D01*
X213345712Y-45605007D01*
X213362190Y-45565028D01*
X213379218Y-45525300D01*
X213381187Y-45518939D01*
X213381188Y-45518937D01*
X213381189Y-45518930D01*
X213437597Y-45332102D01*
X213446000Y-45289663D01*
X213454983Y-45247405D01*
X213455677Y-45240788D01*
X213455679Y-45240780D01*
X213455679Y-45240772D01*
X213474723Y-45046548D01*
X213474723Y-45046541D01*
X213477000Y-45023423D01*
X213477000Y-40477000D01*
X237523000Y-40477000D01*
X237523001Y-45023423D01*
G36*
X191557178Y-75683423D02*
G01*
X191601471Y-75766289D01*
X191661079Y-75838921D01*
X191733711Y-75898529D01*
X191816577Y-75942822D01*
X191906492Y-75970097D01*
X192000000Y-75979307D01*
X192023422Y-75977000D01*
X201523000Y-75977000D01*
X201523001Y-80523423D01*
X201525030Y-80544025D01*
X201524987Y-80550214D01*
X201525637Y-80556842D01*
X201546038Y-80750939D01*
X201554734Y-80793303D01*
X201562832Y-80835755D01*
X201564756Y-80842126D01*
X201564757Y-80842132D01*
X201564759Y-80842138D01*
X201622469Y-81028568D01*
X201639220Y-81068418D01*
X201655417Y-81108508D01*
X201658542Y-81114384D01*
X201658544Y-81114389D01*
X201658547Y-81114393D01*
X201751369Y-81286065D01*
X201775564Y-81321936D01*
X201799218Y-81358084D01*
X201803420Y-81363236D01*
X201803426Y-81363244D01*
X201803433Y-81363251D01*
X201927832Y-81513623D01*
X201958498Y-81544076D01*
X201988756Y-81574975D01*
X201993882Y-81579214D01*
X201993888Y-81579220D01*
X201993895Y-81579224D01*
X202145130Y-81702569D01*
X202181133Y-81726489D01*
X202216812Y-81750920D01*
X202222666Y-81754084D01*
X202222670Y-81754087D01*
X202222674Y-81754089D01*
X202394993Y-81845712D01*
X202434972Y-81862190D01*
X202474700Y-81879218D01*
X202481056Y-81881185D01*
X202481063Y-81881188D01*
X202481070Y-81881189D01*
X202667898Y-81937597D01*
X202710337Y-81946000D01*
X202752595Y-81954983D01*
X202759212Y-81955677D01*
X202759220Y-81955679D01*
X202759228Y-81955679D01*
X202953452Y-81974723D01*
X203101139Y-81989204D01*
X203198432Y-82018579D01*
X203288159Y-82066287D01*
X203366911Y-82130517D01*
X203431690Y-82208820D01*
X203480026Y-82298216D01*
X203510077Y-82395296D01*
X203523001Y-82518257D01*
X203523000Y-86976577D01*
X203520693Y-87000000D01*
X203529903Y-87093508D01*
X203557178Y-87183423D01*
X203574486Y-87215803D01*
X203601471Y-87266289D01*
X203661079Y-87338921D01*
X203733711Y-87398529D01*
X203816577Y-87442822D01*
X203873000Y-87459937D01*
X203873000Y-92540063D01*
X203816577Y-92557178D01*
X203733711Y-92601471D01*
X203661079Y-92661079D01*
X203601471Y-92733711D01*
X203557178Y-92816577D01*
X203529903Y-92906492D01*
X203520693Y-93000000D01*
X203523000Y-93023423D01*
X203523001Y-104523000D01*
X192023423Y-104523000D01*
X192000000Y-104520693D01*
X191976578Y-104523000D01*
X191976577Y-104523000D01*
X191906492Y-104529903D01*
X191816577Y-104557178D01*
X191733711Y-104601471D01*
X191661079Y-104661079D01*
X191601471Y-104733711D01*
X191557178Y-104816577D01*
X191540063Y-104873000D01*
X186459937Y-104873000D01*
X186442822Y-104816577D01*
X186398529Y-104733711D01*
X186338921Y-104661079D01*
X186266289Y-104601471D01*
X186183423Y-104557178D01*
X186093508Y-104529903D01*
X186023423Y-104523000D01*
X186000000Y-104520693D01*
X185976578Y-104523000D01*
X175477000Y-104523000D01*
X175477000Y-93023423D01*
X175479307Y-93000000D01*
X175470097Y-92906492D01*
X175462893Y-92882743D01*
X182306000Y-92882743D01*
X182306000Y-93097257D01*
X182347850Y-93307650D01*
X182429941Y-93505835D01*
X182549119Y-93684197D01*
X182700803Y-93835881D01*
X182879165Y-93955059D01*
X183077350Y-94037150D01*
X183287743Y-94079000D01*
X183502257Y-94079000D01*
X183712650Y-94037150D01*
X183910835Y-93955059D01*
X184089197Y-93835881D01*
X184240881Y-93684197D01*
X184360059Y-93505835D01*
X184442150Y-93307650D01*
X184484000Y-93097257D01*
X184484000Y-92882743D01*
X193556000Y-92882743D01*
X193556000Y-93097257D01*
X193597850Y-93307650D01*
X193679941Y-93505835D01*
X193799119Y-93684197D01*
X193950803Y-93835881D01*
X194129165Y-93955059D01*
X194327350Y-94037150D01*
X194537743Y-94079000D01*
X194752257Y-94079000D01*
X194962650Y-94037150D01*
X195160835Y-93955059D01*
X195339197Y-93835881D01*
X195490881Y-93684197D01*
X195610059Y-93505835D01*
X195692150Y-93307650D01*
X195734000Y-93097257D01*
X195734000Y-92882743D01*
X195692150Y-92672350D01*
X195610059Y-92474165D01*
X195490881Y-92295803D01*
X195339197Y-92144119D01*
X195160835Y-92024941D01*
X194962650Y-91942850D01*
X194752257Y-91901000D01*
X194537743Y-91901000D01*
X194327350Y-91942850D01*
X194129165Y-92024941D01*
X193950803Y-92144119D01*
X193799119Y-92295803D01*
X193679941Y-92474165D01*
X193597850Y-92672350D01*
X193556000Y-92882743D01*
X184484000Y-92882743D01*
X184442150Y-92672350D01*
X184360059Y-92474165D01*
X184240881Y-92295803D01*
X184089197Y-92144119D01*
X183910835Y-92024941D01*
X183712650Y-91942850D01*
X183502257Y-91901000D01*
X183287743Y-91901000D01*
X183077350Y-91942850D01*
X182879165Y-92024941D01*
X182700803Y-92144119D01*
X182549119Y-92295803D01*
X182429941Y-92474165D01*
X182347850Y-92672350D01*
X182306000Y-92882743D01*
X175462893Y-92882743D01*
X175442822Y-92816577D01*
X175398529Y-92733711D01*
X175338921Y-92661079D01*
X175266289Y-92601471D01*
X175183423Y-92557178D01*
X175127000Y-92540063D01*
X175127000Y-90342743D01*
X182306000Y-90342743D01*
X182306000Y-90557257D01*
X182347850Y-90767650D01*
X182429941Y-90965835D01*
X182549119Y-91144197D01*
X182700803Y-91295881D01*
X182879165Y-91415059D01*
X183077350Y-91497150D01*
X183287743Y-91539000D01*
X183502257Y-91539000D01*
X183712650Y-91497150D01*
X183910835Y-91415059D01*
X184089197Y-91295881D01*
X184240881Y-91144197D01*
X184360059Y-90965835D01*
X184442150Y-90767650D01*
X184484000Y-90557257D01*
X184484000Y-90342743D01*
X193556000Y-90342743D01*
X193556000Y-90557257D01*
X193597850Y-90767650D01*
X193679941Y-90965835D01*
X193799119Y-91144197D01*
X193950803Y-91295881D01*
X194129165Y-91415059D01*
X194327350Y-91497150D01*
X194537743Y-91539000D01*
X194752257Y-91539000D01*
X194962650Y-91497150D01*
X195160835Y-91415059D01*
X195339197Y-91295881D01*
X195490881Y-91144197D01*
X195610059Y-90965835D01*
X195692150Y-90767650D01*
X195734000Y-90557257D01*
X195734000Y-90342743D01*
X195692150Y-90132350D01*
X195610059Y-89934165D01*
X195490881Y-89755803D01*
X195339197Y-89604119D01*
X195160835Y-89484941D01*
X194962650Y-89402850D01*
X194752257Y-89361000D01*
X194537743Y-89361000D01*
X194327350Y-89402850D01*
X194129165Y-89484941D01*
X193950803Y-89604119D01*
X193799119Y-89755803D01*
X193679941Y-89934165D01*
X193597850Y-90132350D01*
X193556000Y-90342743D01*
X184484000Y-90342743D01*
X184442150Y-90132350D01*
X184360059Y-89934165D01*
X184240881Y-89755803D01*
X184089197Y-89604119D01*
X183910835Y-89484941D01*
X183712650Y-89402850D01*
X183502257Y-89361000D01*
X183287743Y-89361000D01*
X183077350Y-89402850D01*
X182879165Y-89484941D01*
X182700803Y-89604119D01*
X182549119Y-89755803D01*
X182429941Y-89934165D01*
X182347850Y-90132350D01*
X182306000Y-90342743D01*
X175127000Y-90342743D01*
X175127000Y-87802743D01*
X182306000Y-87802743D01*
X182306000Y-88017257D01*
X182347850Y-88227650D01*
X182429941Y-88425835D01*
X182549119Y-88604197D01*
X182700803Y-88755881D01*
X182879165Y-88875059D01*
X183077350Y-88957150D01*
X183287743Y-88999000D01*
X183502257Y-88999000D01*
X183712650Y-88957150D01*
X183910835Y-88875059D01*
X184089197Y-88755881D01*
X184240881Y-88604197D01*
X184360059Y-88425835D01*
X184442150Y-88227650D01*
X184484000Y-88017257D01*
X184484000Y-87802743D01*
X193556000Y-87802743D01*
X193556000Y-88017257D01*
X193597850Y-88227650D01*
X193679941Y-88425835D01*
X193799119Y-88604197D01*
X193950803Y-88755881D01*
X194129165Y-88875059D01*
X194327350Y-88957150D01*
X194537743Y-88999000D01*
X194752257Y-88999000D01*
X194962650Y-88957150D01*
X195160835Y-88875059D01*
X195339197Y-88755881D01*
X195490881Y-88604197D01*
X195610059Y-88425835D01*
X195692150Y-88227650D01*
X195734000Y-88017257D01*
X195734000Y-87802743D01*
X195692150Y-87592350D01*
X195610059Y-87394165D01*
X195490881Y-87215803D01*
X195339197Y-87064119D01*
X195160835Y-86944941D01*
X194962650Y-86862850D01*
X194752257Y-86821000D01*
X194537743Y-86821000D01*
X194327350Y-86862850D01*
X194129165Y-86944941D01*
X193950803Y-87064119D01*
X193799119Y-87215803D01*
X193679941Y-87394165D01*
X193597850Y-87592350D01*
X193556000Y-87802743D01*
X184484000Y-87802743D01*
X184442150Y-87592350D01*
X184360059Y-87394165D01*
X184240881Y-87215803D01*
X184089197Y-87064119D01*
X183910835Y-86944941D01*
X183712650Y-86862850D01*
X183502257Y-86821000D01*
X183287743Y-86821000D01*
X183077350Y-86862850D01*
X182879165Y-86944941D01*
X182700803Y-87064119D01*
X182549119Y-87215803D01*
X182429941Y-87394165D01*
X182347850Y-87592350D01*
X182306000Y-87802743D01*
X175127000Y-87802743D01*
X175127000Y-87459937D01*
X175183423Y-87442822D01*
X175266289Y-87398529D01*
X175338921Y-87338921D01*
X175398529Y-87266289D01*
X175442822Y-87183423D01*
X175470097Y-87093508D01*
X175479307Y-87000000D01*
X175477000Y-86976577D01*
X175477000Y-82523326D01*
X175489204Y-82398861D01*
X175518579Y-82301568D01*
X175566287Y-82211841D01*
X175630517Y-82133089D01*
X175708820Y-82068310D01*
X175798216Y-82019974D01*
X175895296Y-81989923D01*
X176037966Y-81974927D01*
X176050214Y-81975013D01*
X176056842Y-81974363D01*
X176250939Y-81953962D01*
X176293303Y-81945266D01*
X176335755Y-81937168D01*
X176342126Y-81935244D01*
X176342132Y-81935243D01*
X176342138Y-81935241D01*
X176528568Y-81877531D01*
X176568418Y-81860780D01*
X176608508Y-81844583D01*
X176614384Y-81841458D01*
X176614389Y-81841456D01*
X176614393Y-81841453D01*
X176786065Y-81748631D01*
X176821936Y-81724436D01*
X176858084Y-81700782D01*
X176863236Y-81696580D01*
X176863244Y-81696574D01*
X176863251Y-81696567D01*
X177013623Y-81572168D01*
X177044076Y-81541502D01*
X177074975Y-81511244D01*
X177079214Y-81506118D01*
X177079220Y-81506112D01*
X177079224Y-81506105D01*
X177202569Y-81354870D01*
X177226489Y-81318867D01*
X177250920Y-81283188D01*
X177254084Y-81277334D01*
X177254087Y-81277330D01*
X177254089Y-81277326D01*
X177345712Y-81105007D01*
X177362190Y-81065028D01*
X177379218Y-81025300D01*
X177381187Y-81018939D01*
X177381188Y-81018937D01*
X177381189Y-81018930D01*
X177437597Y-80832102D01*
X177446000Y-80789663D01*
X177454983Y-80747405D01*
X177455677Y-80740788D01*
X177455679Y-80740780D01*
X177455679Y-80740772D01*
X177474723Y-80546548D01*
X177474723Y-80546541D01*
X177477000Y-80523423D01*
X177477000Y-75977000D01*
X185976577Y-75977000D01*
X186000000Y-75979307D01*
X186023422Y-75977000D01*
X186023423Y-75977000D01*
X186093508Y-75970097D01*
X186183423Y-75942822D01*
X186266289Y-75898529D01*
X186338921Y-75838921D01*
X186398529Y-75766289D01*
X186442822Y-75683423D01*
X186459937Y-75627000D01*
X191540063Y-75627000D01*
X191557178Y-75683423D01*
G37*
X191557178Y-75683423D02*
X191601471Y-75766289D01*
X191661079Y-75838921D01*
X191733711Y-75898529D01*
X191816577Y-75942822D01*
X191906492Y-75970097D01*
X192000000Y-75979307D01*
X192023422Y-75977000D01*
X201523000Y-75977000D01*
X201523001Y-80523423D01*
X201525030Y-80544025D01*
X201524987Y-80550214D01*
X201525637Y-80556842D01*
X201546038Y-80750939D01*
X201554734Y-80793303D01*
X201562832Y-80835755D01*
X201564756Y-80842126D01*
X201564757Y-80842132D01*
X201564759Y-80842138D01*
X201622469Y-81028568D01*
X201639220Y-81068418D01*
X201655417Y-81108508D01*
X201658542Y-81114384D01*
X201658544Y-81114389D01*
X201658547Y-81114393D01*
X201751369Y-81286065D01*
X201775564Y-81321936D01*
X201799218Y-81358084D01*
X201803420Y-81363236D01*
X201803426Y-81363244D01*
X201803433Y-81363251D01*
X201927832Y-81513623D01*
X201958498Y-81544076D01*
X201988756Y-81574975D01*
X201993882Y-81579214D01*
X201993888Y-81579220D01*
X201993895Y-81579224D01*
X202145130Y-81702569D01*
X202181133Y-81726489D01*
X202216812Y-81750920D01*
X202222666Y-81754084D01*
X202222670Y-81754087D01*
X202222674Y-81754089D01*
X202394993Y-81845712D01*
X202434972Y-81862190D01*
X202474700Y-81879218D01*
X202481056Y-81881185D01*
X202481063Y-81881188D01*
X202481070Y-81881189D01*
X202667898Y-81937597D01*
X202710337Y-81946000D01*
X202752595Y-81954983D01*
X202759212Y-81955677D01*
X202759220Y-81955679D01*
X202759228Y-81955679D01*
X202953452Y-81974723D01*
X203101139Y-81989204D01*
X203198432Y-82018579D01*
X203288159Y-82066287D01*
X203366911Y-82130517D01*
X203431690Y-82208820D01*
X203480026Y-82298216D01*
X203510077Y-82395296D01*
X203523001Y-82518257D01*
X203523000Y-86976577D01*
X203520693Y-87000000D01*
X203529903Y-87093508D01*
X203557178Y-87183423D01*
X203574486Y-87215803D01*
X203601471Y-87266289D01*
X203661079Y-87338921D01*
X203733711Y-87398529D01*
X203816577Y-87442822D01*
X203873000Y-87459937D01*
X203873000Y-92540063D01*
X203816577Y-92557178D01*
X203733711Y-92601471D01*
X203661079Y-92661079D01*
X203601471Y-92733711D01*
X203557178Y-92816577D01*
X203529903Y-92906492D01*
X203520693Y-93000000D01*
X203523000Y-93023423D01*
X203523001Y-104523000D01*
X192023423Y-104523000D01*
X192000000Y-104520693D01*
X191976578Y-104523000D01*
X191976577Y-104523000D01*
X191906492Y-104529903D01*
X191816577Y-104557178D01*
X191733711Y-104601471D01*
X191661079Y-104661079D01*
X191601471Y-104733711D01*
X191557178Y-104816577D01*
X191540063Y-104873000D01*
X186459937Y-104873000D01*
X186442822Y-104816577D01*
X186398529Y-104733711D01*
X186338921Y-104661079D01*
X186266289Y-104601471D01*
X186183423Y-104557178D01*
X186093508Y-104529903D01*
X186023423Y-104523000D01*
X186000000Y-104520693D01*
X185976578Y-104523000D01*
X175477000Y-104523000D01*
X175477000Y-93023423D01*
X175479307Y-93000000D01*
X175470097Y-92906492D01*
X175462893Y-92882743D01*
X182306000Y-92882743D01*
X182306000Y-93097257D01*
X182347850Y-93307650D01*
X182429941Y-93505835D01*
X182549119Y-93684197D01*
X182700803Y-93835881D01*
X182879165Y-93955059D01*
X183077350Y-94037150D01*
X183287743Y-94079000D01*
X183502257Y-94079000D01*
X183712650Y-94037150D01*
X183910835Y-93955059D01*
X184089197Y-93835881D01*
X184240881Y-93684197D01*
X184360059Y-93505835D01*
X184442150Y-93307650D01*
X184484000Y-93097257D01*
X184484000Y-92882743D01*
X193556000Y-92882743D01*
X193556000Y-93097257D01*
X193597850Y-93307650D01*
X193679941Y-93505835D01*
X193799119Y-93684197D01*
X193950803Y-93835881D01*
X194129165Y-93955059D01*
X194327350Y-94037150D01*
X194537743Y-94079000D01*
X194752257Y-94079000D01*
X194962650Y-94037150D01*
X195160835Y-93955059D01*
X195339197Y-93835881D01*
X195490881Y-93684197D01*
X195610059Y-93505835D01*
X195692150Y-93307650D01*
X195734000Y-93097257D01*
X195734000Y-92882743D01*
X195692150Y-92672350D01*
X195610059Y-92474165D01*
X195490881Y-92295803D01*
X195339197Y-92144119D01*
X195160835Y-92024941D01*
X194962650Y-91942850D01*
X194752257Y-91901000D01*
X194537743Y-91901000D01*
X194327350Y-91942850D01*
X194129165Y-92024941D01*
X193950803Y-92144119D01*
X193799119Y-92295803D01*
X193679941Y-92474165D01*
X193597850Y-92672350D01*
X193556000Y-92882743D01*
X184484000Y-92882743D01*
X184442150Y-92672350D01*
X184360059Y-92474165D01*
X184240881Y-92295803D01*
X184089197Y-92144119D01*
X183910835Y-92024941D01*
X183712650Y-91942850D01*
X183502257Y-91901000D01*
X183287743Y-91901000D01*
X183077350Y-91942850D01*
X182879165Y-92024941D01*
X182700803Y-92144119D01*
X182549119Y-92295803D01*
X182429941Y-92474165D01*
X182347850Y-92672350D01*
X182306000Y-92882743D01*
X175462893Y-92882743D01*
X175442822Y-92816577D01*
X175398529Y-92733711D01*
X175338921Y-92661079D01*
X175266289Y-92601471D01*
X175183423Y-92557178D01*
X175127000Y-92540063D01*
X175127000Y-90342743D01*
X182306000Y-90342743D01*
X182306000Y-90557257D01*
X182347850Y-90767650D01*
X182429941Y-90965835D01*
X182549119Y-91144197D01*
X182700803Y-91295881D01*
X182879165Y-91415059D01*
X183077350Y-91497150D01*
X183287743Y-91539000D01*
X183502257Y-91539000D01*
X183712650Y-91497150D01*
X183910835Y-91415059D01*
X184089197Y-91295881D01*
X184240881Y-91144197D01*
X184360059Y-90965835D01*
X184442150Y-90767650D01*
X184484000Y-90557257D01*
X184484000Y-90342743D01*
X193556000Y-90342743D01*
X193556000Y-90557257D01*
X193597850Y-90767650D01*
X193679941Y-90965835D01*
X193799119Y-91144197D01*
X193950803Y-91295881D01*
X194129165Y-91415059D01*
X194327350Y-91497150D01*
X194537743Y-91539000D01*
X194752257Y-91539000D01*
X194962650Y-91497150D01*
X195160835Y-91415059D01*
X195339197Y-91295881D01*
X195490881Y-91144197D01*
X195610059Y-90965835D01*
X195692150Y-90767650D01*
X195734000Y-90557257D01*
X195734000Y-90342743D01*
X195692150Y-90132350D01*
X195610059Y-89934165D01*
X195490881Y-89755803D01*
X195339197Y-89604119D01*
X195160835Y-89484941D01*
X194962650Y-89402850D01*
X194752257Y-89361000D01*
X194537743Y-89361000D01*
X194327350Y-89402850D01*
X194129165Y-89484941D01*
X193950803Y-89604119D01*
X193799119Y-89755803D01*
X193679941Y-89934165D01*
X193597850Y-90132350D01*
X193556000Y-90342743D01*
X184484000Y-90342743D01*
X184442150Y-90132350D01*
X184360059Y-89934165D01*
X184240881Y-89755803D01*
X184089197Y-89604119D01*
X183910835Y-89484941D01*
X183712650Y-89402850D01*
X183502257Y-89361000D01*
X183287743Y-89361000D01*
X183077350Y-89402850D01*
X182879165Y-89484941D01*
X182700803Y-89604119D01*
X182549119Y-89755803D01*
X182429941Y-89934165D01*
X182347850Y-90132350D01*
X182306000Y-90342743D01*
X175127000Y-90342743D01*
X175127000Y-87802743D01*
X182306000Y-87802743D01*
X182306000Y-88017257D01*
X182347850Y-88227650D01*
X182429941Y-88425835D01*
X182549119Y-88604197D01*
X182700803Y-88755881D01*
X182879165Y-88875059D01*
X183077350Y-88957150D01*
X183287743Y-88999000D01*
X183502257Y-88999000D01*
X183712650Y-88957150D01*
X183910835Y-88875059D01*
X184089197Y-88755881D01*
X184240881Y-88604197D01*
X184360059Y-88425835D01*
X184442150Y-88227650D01*
X184484000Y-88017257D01*
X184484000Y-87802743D01*
X193556000Y-87802743D01*
X193556000Y-88017257D01*
X193597850Y-88227650D01*
X193679941Y-88425835D01*
X193799119Y-88604197D01*
X193950803Y-88755881D01*
X194129165Y-88875059D01*
X194327350Y-88957150D01*
X194537743Y-88999000D01*
X194752257Y-88999000D01*
X194962650Y-88957150D01*
X195160835Y-88875059D01*
X195339197Y-88755881D01*
X195490881Y-88604197D01*
X195610059Y-88425835D01*
X195692150Y-88227650D01*
X195734000Y-88017257D01*
X195734000Y-87802743D01*
X195692150Y-87592350D01*
X195610059Y-87394165D01*
X195490881Y-87215803D01*
X195339197Y-87064119D01*
X195160835Y-86944941D01*
X194962650Y-86862850D01*
X194752257Y-86821000D01*
X194537743Y-86821000D01*
X194327350Y-86862850D01*
X194129165Y-86944941D01*
X193950803Y-87064119D01*
X193799119Y-87215803D01*
X193679941Y-87394165D01*
X193597850Y-87592350D01*
X193556000Y-87802743D01*
X184484000Y-87802743D01*
X184442150Y-87592350D01*
X184360059Y-87394165D01*
X184240881Y-87215803D01*
X184089197Y-87064119D01*
X183910835Y-86944941D01*
X183712650Y-86862850D01*
X183502257Y-86821000D01*
X183287743Y-86821000D01*
X183077350Y-86862850D01*
X182879165Y-86944941D01*
X182700803Y-87064119D01*
X182549119Y-87215803D01*
X182429941Y-87394165D01*
X182347850Y-87592350D01*
X182306000Y-87802743D01*
X175127000Y-87802743D01*
X175127000Y-87459937D01*
X175183423Y-87442822D01*
X175266289Y-87398529D01*
X175338921Y-87338921D01*
X175398529Y-87266289D01*
X175442822Y-87183423D01*
X175470097Y-87093508D01*
X175479307Y-87000000D01*
X175477000Y-86976577D01*
X175477000Y-82523326D01*
X175489204Y-82398861D01*
X175518579Y-82301568D01*
X175566287Y-82211841D01*
X175630517Y-82133089D01*
X175708820Y-82068310D01*
X175798216Y-82019974D01*
X175895296Y-81989923D01*
X176037966Y-81974927D01*
X176050214Y-81975013D01*
X176056842Y-81974363D01*
X176250939Y-81953962D01*
X176293303Y-81945266D01*
X176335755Y-81937168D01*
X176342126Y-81935244D01*
X176342132Y-81935243D01*
X176342138Y-81935241D01*
X176528568Y-81877531D01*
X176568418Y-81860780D01*
X176608508Y-81844583D01*
X176614384Y-81841458D01*
X176614389Y-81841456D01*
X176614393Y-81841453D01*
X176786065Y-81748631D01*
X176821936Y-81724436D01*
X176858084Y-81700782D01*
X176863236Y-81696580D01*
X176863244Y-81696574D01*
X176863251Y-81696567D01*
X177013623Y-81572168D01*
X177044076Y-81541502D01*
X177074975Y-81511244D01*
X177079214Y-81506118D01*
X177079220Y-81506112D01*
X177079224Y-81506105D01*
X177202569Y-81354870D01*
X177226489Y-81318867D01*
X177250920Y-81283188D01*
X177254084Y-81277334D01*
X177254087Y-81277330D01*
X177254089Y-81277326D01*
X177345712Y-81105007D01*
X177362190Y-81065028D01*
X177379218Y-81025300D01*
X177381187Y-81018939D01*
X177381188Y-81018937D01*
X177381189Y-81018930D01*
X177437597Y-80832102D01*
X177446000Y-80789663D01*
X177454983Y-80747405D01*
X177455677Y-80740788D01*
X177455679Y-80740780D01*
X177455679Y-80740772D01*
X177474723Y-80546548D01*
X177474723Y-80546541D01*
X177477000Y-80523423D01*
X177477000Y-75977000D01*
X185976577Y-75977000D01*
X186000000Y-75979307D01*
X186023422Y-75977000D01*
X186023423Y-75977000D01*
X186093508Y-75970097D01*
X186183423Y-75942822D01*
X186266289Y-75898529D01*
X186338921Y-75838921D01*
X186398529Y-75766289D01*
X186442822Y-75683423D01*
X186459937Y-75627000D01*
X191540063Y-75627000D01*
X191557178Y-75683423D01*
G36*
X201523001Y-45023423D02*
G01*
X201525030Y-45044025D01*
X201524987Y-45050214D01*
X201525637Y-45056842D01*
X201546038Y-45250939D01*
X201554734Y-45293303D01*
X201562832Y-45335755D01*
X201564756Y-45342126D01*
X201564757Y-45342132D01*
X201564759Y-45342138D01*
X201622469Y-45528568D01*
X201639220Y-45568418D01*
X201655417Y-45608508D01*
X201658542Y-45614384D01*
X201658544Y-45614389D01*
X201658547Y-45614393D01*
X201751369Y-45786065D01*
X201775564Y-45821936D01*
X201799218Y-45858084D01*
X201803420Y-45863236D01*
X201803426Y-45863244D01*
X201803433Y-45863251D01*
X201927832Y-46013623D01*
X201958498Y-46044076D01*
X201988756Y-46074975D01*
X201993882Y-46079214D01*
X201993888Y-46079220D01*
X201993895Y-46079224D01*
X202145130Y-46202569D01*
X202181133Y-46226489D01*
X202216812Y-46250920D01*
X202222666Y-46254084D01*
X202222670Y-46254087D01*
X202222674Y-46254089D01*
X202394993Y-46345712D01*
X202434972Y-46362190D01*
X202474700Y-46379218D01*
X202481056Y-46381185D01*
X202481063Y-46381188D01*
X202481070Y-46381189D01*
X202667898Y-46437597D01*
X202710337Y-46446000D01*
X202752595Y-46454983D01*
X202759212Y-46455677D01*
X202759220Y-46455679D01*
X202759228Y-46455679D01*
X202953452Y-46474723D01*
X203101139Y-46489204D01*
X203198432Y-46518579D01*
X203288159Y-46566287D01*
X203366911Y-46630517D01*
X203431690Y-46708820D01*
X203480026Y-46798216D01*
X203510077Y-46895296D01*
X203523001Y-47018257D01*
X203523000Y-51976577D01*
X203520693Y-52000000D01*
X203529903Y-52093508D01*
X203557178Y-52183423D01*
X203601471Y-52266289D01*
X203661079Y-52338921D01*
X203733711Y-52398529D01*
X203816577Y-52442822D01*
X203873000Y-52459937D01*
X203873000Y-57540063D01*
X203816577Y-57557178D01*
X203733711Y-57601471D01*
X203661079Y-57661079D01*
X203601471Y-57733711D01*
X203557178Y-57816577D01*
X203529903Y-57906492D01*
X203520693Y-58000000D01*
X203523000Y-58023423D01*
X203523001Y-69023000D01*
X192023423Y-69023000D01*
X192000000Y-69020693D01*
X191976578Y-69023000D01*
X191976577Y-69023000D01*
X191906492Y-69029903D01*
X191816577Y-69057178D01*
X191733711Y-69101471D01*
X191661079Y-69161079D01*
X191601471Y-69233711D01*
X191557178Y-69316577D01*
X191542669Y-69364409D01*
X186456267Y-69360901D01*
X186442822Y-69316577D01*
X186398529Y-69233711D01*
X186338921Y-69161079D01*
X186266289Y-69101471D01*
X186183423Y-69057178D01*
X186093508Y-69029903D01*
X186023423Y-69023000D01*
X186000000Y-69020693D01*
X185976578Y-69023000D01*
X175477000Y-69023000D01*
X175477000Y-58592743D01*
X182686000Y-58592743D01*
X182686000Y-58807257D01*
X182727850Y-59017650D01*
X182809941Y-59215835D01*
X182929119Y-59394197D01*
X183080803Y-59545881D01*
X183259165Y-59665059D01*
X183457350Y-59747150D01*
X183667743Y-59789000D01*
X183882257Y-59789000D01*
X184092650Y-59747150D01*
X184290835Y-59665059D01*
X184469197Y-59545881D01*
X184620881Y-59394197D01*
X184740059Y-59215835D01*
X184822150Y-59017650D01*
X184864000Y-58807257D01*
X184864000Y-58592743D01*
X193936000Y-58592743D01*
X193936000Y-58807257D01*
X193977850Y-59017650D01*
X194059941Y-59215835D01*
X194179119Y-59394197D01*
X194330803Y-59545881D01*
X194509165Y-59665059D01*
X194707350Y-59747150D01*
X194917743Y-59789000D01*
X195132257Y-59789000D01*
X195342650Y-59747150D01*
X195540835Y-59665059D01*
X195719197Y-59545881D01*
X195870881Y-59394197D01*
X195990059Y-59215835D01*
X196072150Y-59017650D01*
X196114000Y-58807257D01*
X196114000Y-58592743D01*
X196072150Y-58382350D01*
X195990059Y-58184165D01*
X195870881Y-58005803D01*
X195719197Y-57854119D01*
X195540835Y-57734941D01*
X195342650Y-57652850D01*
X195132257Y-57611000D01*
X194917743Y-57611000D01*
X194707350Y-57652850D01*
X194509165Y-57734941D01*
X194330803Y-57854119D01*
X194179119Y-58005803D01*
X194059941Y-58184165D01*
X193977850Y-58382350D01*
X193936000Y-58592743D01*
X184864000Y-58592743D01*
X184822150Y-58382350D01*
X184740059Y-58184165D01*
X184620881Y-58005803D01*
X184469197Y-57854119D01*
X184290835Y-57734941D01*
X184092650Y-57652850D01*
X183882257Y-57611000D01*
X183667743Y-57611000D01*
X183457350Y-57652850D01*
X183259165Y-57734941D01*
X183080803Y-57854119D01*
X182929119Y-58005803D01*
X182809941Y-58184165D01*
X182727850Y-58382350D01*
X182686000Y-58592743D01*
X175477000Y-58592743D01*
X175477000Y-58023423D01*
X175479307Y-58000000D01*
X175470097Y-57906492D01*
X175442822Y-57816577D01*
X175398529Y-57733711D01*
X175338921Y-57661079D01*
X175266289Y-57601471D01*
X175183423Y-57557178D01*
X175127000Y-57540063D01*
X175127000Y-56052743D01*
X182686000Y-56052743D01*
X182686000Y-56267257D01*
X182727850Y-56477650D01*
X182809941Y-56675835D01*
X182929119Y-56854197D01*
X183080803Y-57005881D01*
X183259165Y-57125059D01*
X183457350Y-57207150D01*
X183667743Y-57249000D01*
X183882257Y-57249000D01*
X184092650Y-57207150D01*
X184290835Y-57125059D01*
X184469197Y-57005881D01*
X184620881Y-56854197D01*
X184740059Y-56675835D01*
X184822150Y-56477650D01*
X184864000Y-56267257D01*
X184864000Y-56052743D01*
X193936000Y-56052743D01*
X193936000Y-56267257D01*
X193977850Y-56477650D01*
X194059941Y-56675835D01*
X194179119Y-56854197D01*
X194330803Y-57005881D01*
X194509165Y-57125059D01*
X194707350Y-57207150D01*
X194917743Y-57249000D01*
X195132257Y-57249000D01*
X195342650Y-57207150D01*
X195540835Y-57125059D01*
X195719197Y-57005881D01*
X195870881Y-56854197D01*
X195990059Y-56675835D01*
X196072150Y-56477650D01*
X196114000Y-56267257D01*
X196114000Y-56052743D01*
X196072150Y-55842350D01*
X195990059Y-55644165D01*
X195870881Y-55465803D01*
X195719197Y-55314119D01*
X195540835Y-55194941D01*
X195342650Y-55112850D01*
X195132257Y-55071000D01*
X194917743Y-55071000D01*
X194707350Y-55112850D01*
X194509165Y-55194941D01*
X194330803Y-55314119D01*
X194179119Y-55465803D01*
X194059941Y-55644165D01*
X193977850Y-55842350D01*
X193936000Y-56052743D01*
X184864000Y-56052743D01*
X184822150Y-55842350D01*
X184740059Y-55644165D01*
X184620881Y-55465803D01*
X184469197Y-55314119D01*
X184290835Y-55194941D01*
X184092650Y-55112850D01*
X183882257Y-55071000D01*
X183667743Y-55071000D01*
X183457350Y-55112850D01*
X183259165Y-55194941D01*
X183080803Y-55314119D01*
X182929119Y-55465803D01*
X182809941Y-55644165D01*
X182727850Y-55842350D01*
X182686000Y-56052743D01*
X175127000Y-56052743D01*
X175127000Y-53512743D01*
X182686000Y-53512743D01*
X182686000Y-53727257D01*
X182727850Y-53937650D01*
X182809941Y-54135835D01*
X182929119Y-54314197D01*
X183080803Y-54465881D01*
X183259165Y-54585059D01*
X183457350Y-54667150D01*
X183667743Y-54709000D01*
X183882257Y-54709000D01*
X184092650Y-54667150D01*
X184290835Y-54585059D01*
X184469197Y-54465881D01*
X184620881Y-54314197D01*
X184740059Y-54135835D01*
X184822150Y-53937650D01*
X184864000Y-53727257D01*
X184864000Y-53512743D01*
X193936000Y-53512743D01*
X193936000Y-53727257D01*
X193977850Y-53937650D01*
X194059941Y-54135835D01*
X194179119Y-54314197D01*
X194330803Y-54465881D01*
X194509165Y-54585059D01*
X194707350Y-54667150D01*
X194917743Y-54709000D01*
X195132257Y-54709000D01*
X195342650Y-54667150D01*
X195540835Y-54585059D01*
X195719197Y-54465881D01*
X195870881Y-54314197D01*
X195990059Y-54135835D01*
X196072150Y-53937650D01*
X196114000Y-53727257D01*
X196114000Y-53512743D01*
X196072150Y-53302350D01*
X195990059Y-53104165D01*
X195870881Y-52925803D01*
X195719197Y-52774119D01*
X195540835Y-52654941D01*
X195342650Y-52572850D01*
X195132257Y-52531000D01*
X194917743Y-52531000D01*
X194707350Y-52572850D01*
X194509165Y-52654941D01*
X194330803Y-52774119D01*
X194179119Y-52925803D01*
X194059941Y-53104165D01*
X193977850Y-53302350D01*
X193936000Y-53512743D01*
X184864000Y-53512743D01*
X184822150Y-53302350D01*
X184740059Y-53104165D01*
X184620881Y-52925803D01*
X184469197Y-52774119D01*
X184290835Y-52654941D01*
X184092650Y-52572850D01*
X183882257Y-52531000D01*
X183667743Y-52531000D01*
X183457350Y-52572850D01*
X183259165Y-52654941D01*
X183080803Y-52774119D01*
X182929119Y-52925803D01*
X182809941Y-53104165D01*
X182727850Y-53302350D01*
X182686000Y-53512743D01*
X175127000Y-53512743D01*
X175127000Y-52459937D01*
X175183423Y-52442822D01*
X175266289Y-52398529D01*
X175338921Y-52338921D01*
X175398529Y-52266289D01*
X175442822Y-52183423D01*
X175470097Y-52093508D01*
X175479307Y-52000000D01*
X175477000Y-51976577D01*
X175477000Y-47023326D01*
X175489204Y-46898861D01*
X175518579Y-46801568D01*
X175566287Y-46711841D01*
X175630517Y-46633089D01*
X175708820Y-46568310D01*
X175798216Y-46519974D01*
X175895296Y-46489923D01*
X176037966Y-46474927D01*
X176050214Y-46475013D01*
X176056842Y-46474363D01*
X176250939Y-46453962D01*
X176293303Y-46445266D01*
X176335755Y-46437168D01*
X176342126Y-46435244D01*
X176342132Y-46435243D01*
X176342138Y-46435241D01*
X176528568Y-46377531D01*
X176568418Y-46360780D01*
X176608508Y-46344583D01*
X176614384Y-46341458D01*
X176614389Y-46341456D01*
X176614393Y-46341453D01*
X176786065Y-46248631D01*
X176821936Y-46224436D01*
X176858084Y-46200782D01*
X176863236Y-46196580D01*
X176863244Y-46196574D01*
X176863251Y-46196567D01*
X177013623Y-46072168D01*
X177044076Y-46041502D01*
X177074975Y-46011244D01*
X177079214Y-46006118D01*
X177079220Y-46006112D01*
X177079224Y-46006105D01*
X177202569Y-45854870D01*
X177226489Y-45818867D01*
X177250920Y-45783188D01*
X177254084Y-45777334D01*
X177254087Y-45777330D01*
X177254089Y-45777326D01*
X177345712Y-45605007D01*
X177362190Y-45565028D01*
X177379218Y-45525300D01*
X177381187Y-45518939D01*
X177381188Y-45518937D01*
X177381189Y-45518930D01*
X177437597Y-45332102D01*
X177446000Y-45289663D01*
X177454983Y-45247405D01*
X177455677Y-45240788D01*
X177455679Y-45240780D01*
X177455679Y-45240772D01*
X177474723Y-45046548D01*
X177474723Y-45046541D01*
X177477000Y-45023423D01*
X177477000Y-40477000D01*
X201523000Y-40477000D01*
X201523001Y-45023423D01*
G37*
X201523001Y-45023423D02*
X201525030Y-45044025D01*
X201524987Y-45050214D01*
X201525637Y-45056842D01*
X201546038Y-45250939D01*
X201554734Y-45293303D01*
X201562832Y-45335755D01*
X201564756Y-45342126D01*
X201564757Y-45342132D01*
X201564759Y-45342138D01*
X201622469Y-45528568D01*
X201639220Y-45568418D01*
X201655417Y-45608508D01*
X201658542Y-45614384D01*
X201658544Y-45614389D01*
X201658547Y-45614393D01*
X201751369Y-45786065D01*
X201775564Y-45821936D01*
X201799218Y-45858084D01*
X201803420Y-45863236D01*
X201803426Y-45863244D01*
X201803433Y-45863251D01*
X201927832Y-46013623D01*
X201958498Y-46044076D01*
X201988756Y-46074975D01*
X201993882Y-46079214D01*
X201993888Y-46079220D01*
X201993895Y-46079224D01*
X202145130Y-46202569D01*
X202181133Y-46226489D01*
X202216812Y-46250920D01*
X202222666Y-46254084D01*
X202222670Y-46254087D01*
X202222674Y-46254089D01*
X202394993Y-46345712D01*
X202434972Y-46362190D01*
X202474700Y-46379218D01*
X202481056Y-46381185D01*
X202481063Y-46381188D01*
X202481070Y-46381189D01*
X202667898Y-46437597D01*
X202710337Y-46446000D01*
X202752595Y-46454983D01*
X202759212Y-46455677D01*
X202759220Y-46455679D01*
X202759228Y-46455679D01*
X202953452Y-46474723D01*
X203101139Y-46489204D01*
X203198432Y-46518579D01*
X203288159Y-46566287D01*
X203366911Y-46630517D01*
X203431690Y-46708820D01*
X203480026Y-46798216D01*
X203510077Y-46895296D01*
X203523001Y-47018257D01*
X203523000Y-51976577D01*
X203520693Y-52000000D01*
X203529903Y-52093508D01*
X203557178Y-52183423D01*
X203601471Y-52266289D01*
X203661079Y-52338921D01*
X203733711Y-52398529D01*
X203816577Y-52442822D01*
X203873000Y-52459937D01*
X203873000Y-57540063D01*
X203816577Y-57557178D01*
X203733711Y-57601471D01*
X203661079Y-57661079D01*
X203601471Y-57733711D01*
X203557178Y-57816577D01*
X203529903Y-57906492D01*
X203520693Y-58000000D01*
X203523000Y-58023423D01*
X203523001Y-69023000D01*
X192023423Y-69023000D01*
X192000000Y-69020693D01*
X191976578Y-69023000D01*
X191976577Y-69023000D01*
X191906492Y-69029903D01*
X191816577Y-69057178D01*
X191733711Y-69101471D01*
X191661079Y-69161079D01*
X191601471Y-69233711D01*
X191557178Y-69316577D01*
X191542669Y-69364409D01*
X186456267Y-69360901D01*
X186442822Y-69316577D01*
X186398529Y-69233711D01*
X186338921Y-69161079D01*
X186266289Y-69101471D01*
X186183423Y-69057178D01*
X186093508Y-69029903D01*
X186023423Y-69023000D01*
X186000000Y-69020693D01*
X185976578Y-69023000D01*
X175477000Y-69023000D01*
X175477000Y-58592743D01*
X182686000Y-58592743D01*
X182686000Y-58807257D01*
X182727850Y-59017650D01*
X182809941Y-59215835D01*
X182929119Y-59394197D01*
X183080803Y-59545881D01*
X183259165Y-59665059D01*
X183457350Y-59747150D01*
X183667743Y-59789000D01*
X183882257Y-59789000D01*
X184092650Y-59747150D01*
X184290835Y-59665059D01*
X184469197Y-59545881D01*
X184620881Y-59394197D01*
X184740059Y-59215835D01*
X184822150Y-59017650D01*
X184864000Y-58807257D01*
X184864000Y-58592743D01*
X193936000Y-58592743D01*
X193936000Y-58807257D01*
X193977850Y-59017650D01*
X194059941Y-59215835D01*
X194179119Y-59394197D01*
X194330803Y-59545881D01*
X194509165Y-59665059D01*
X194707350Y-59747150D01*
X194917743Y-59789000D01*
X195132257Y-59789000D01*
X195342650Y-59747150D01*
X195540835Y-59665059D01*
X195719197Y-59545881D01*
X195870881Y-59394197D01*
X195990059Y-59215835D01*
X196072150Y-59017650D01*
X196114000Y-58807257D01*
X196114000Y-58592743D01*
X196072150Y-58382350D01*
X195990059Y-58184165D01*
X195870881Y-58005803D01*
X195719197Y-57854119D01*
X195540835Y-57734941D01*
X195342650Y-57652850D01*
X195132257Y-57611000D01*
X194917743Y-57611000D01*
X194707350Y-57652850D01*
X194509165Y-57734941D01*
X194330803Y-57854119D01*
X194179119Y-58005803D01*
X194059941Y-58184165D01*
X193977850Y-58382350D01*
X193936000Y-58592743D01*
X184864000Y-58592743D01*
X184822150Y-58382350D01*
X184740059Y-58184165D01*
X184620881Y-58005803D01*
X184469197Y-57854119D01*
X184290835Y-57734941D01*
X184092650Y-57652850D01*
X183882257Y-57611000D01*
X183667743Y-57611000D01*
X183457350Y-57652850D01*
X183259165Y-57734941D01*
X183080803Y-57854119D01*
X182929119Y-58005803D01*
X182809941Y-58184165D01*
X182727850Y-58382350D01*
X182686000Y-58592743D01*
X175477000Y-58592743D01*
X175477000Y-58023423D01*
X175479307Y-58000000D01*
X175470097Y-57906492D01*
X175442822Y-57816577D01*
X175398529Y-57733711D01*
X175338921Y-57661079D01*
X175266289Y-57601471D01*
X175183423Y-57557178D01*
X175127000Y-57540063D01*
X175127000Y-56052743D01*
X182686000Y-56052743D01*
X182686000Y-56267257D01*
X182727850Y-56477650D01*
X182809941Y-56675835D01*
X182929119Y-56854197D01*
X183080803Y-57005881D01*
X183259165Y-57125059D01*
X183457350Y-57207150D01*
X183667743Y-57249000D01*
X183882257Y-57249000D01*
X184092650Y-57207150D01*
X184290835Y-57125059D01*
X184469197Y-57005881D01*
X184620881Y-56854197D01*
X184740059Y-56675835D01*
X184822150Y-56477650D01*
X184864000Y-56267257D01*
X184864000Y-56052743D01*
X193936000Y-56052743D01*
X193936000Y-56267257D01*
X193977850Y-56477650D01*
X194059941Y-56675835D01*
X194179119Y-56854197D01*
X194330803Y-57005881D01*
X194509165Y-57125059D01*
X194707350Y-57207150D01*
X194917743Y-57249000D01*
X195132257Y-57249000D01*
X195342650Y-57207150D01*
X195540835Y-57125059D01*
X195719197Y-57005881D01*
X195870881Y-56854197D01*
X195990059Y-56675835D01*
X196072150Y-56477650D01*
X196114000Y-56267257D01*
X196114000Y-56052743D01*
X196072150Y-55842350D01*
X195990059Y-55644165D01*
X195870881Y-55465803D01*
X195719197Y-55314119D01*
X195540835Y-55194941D01*
X195342650Y-55112850D01*
X195132257Y-55071000D01*
X194917743Y-55071000D01*
X194707350Y-55112850D01*
X194509165Y-55194941D01*
X194330803Y-55314119D01*
X194179119Y-55465803D01*
X194059941Y-55644165D01*
X193977850Y-55842350D01*
X193936000Y-56052743D01*
X184864000Y-56052743D01*
X184822150Y-55842350D01*
X184740059Y-55644165D01*
X184620881Y-55465803D01*
X184469197Y-55314119D01*
X184290835Y-55194941D01*
X184092650Y-55112850D01*
X183882257Y-55071000D01*
X183667743Y-55071000D01*
X183457350Y-55112850D01*
X183259165Y-55194941D01*
X183080803Y-55314119D01*
X182929119Y-55465803D01*
X182809941Y-55644165D01*
X182727850Y-55842350D01*
X182686000Y-56052743D01*
X175127000Y-56052743D01*
X175127000Y-53512743D01*
X182686000Y-53512743D01*
X182686000Y-53727257D01*
X182727850Y-53937650D01*
X182809941Y-54135835D01*
X182929119Y-54314197D01*
X183080803Y-54465881D01*
X183259165Y-54585059D01*
X183457350Y-54667150D01*
X183667743Y-54709000D01*
X183882257Y-54709000D01*
X184092650Y-54667150D01*
X184290835Y-54585059D01*
X184469197Y-54465881D01*
X184620881Y-54314197D01*
X184740059Y-54135835D01*
X184822150Y-53937650D01*
X184864000Y-53727257D01*
X184864000Y-53512743D01*
X193936000Y-53512743D01*
X193936000Y-53727257D01*
X193977850Y-53937650D01*
X194059941Y-54135835D01*
X194179119Y-54314197D01*
X194330803Y-54465881D01*
X194509165Y-54585059D01*
X194707350Y-54667150D01*
X194917743Y-54709000D01*
X195132257Y-54709000D01*
X195342650Y-54667150D01*
X195540835Y-54585059D01*
X195719197Y-54465881D01*
X195870881Y-54314197D01*
X195990059Y-54135835D01*
X196072150Y-53937650D01*
X196114000Y-53727257D01*
X196114000Y-53512743D01*
X196072150Y-53302350D01*
X195990059Y-53104165D01*
X195870881Y-52925803D01*
X195719197Y-52774119D01*
X195540835Y-52654941D01*
X195342650Y-52572850D01*
X195132257Y-52531000D01*
X194917743Y-52531000D01*
X194707350Y-52572850D01*
X194509165Y-52654941D01*
X194330803Y-52774119D01*
X194179119Y-52925803D01*
X194059941Y-53104165D01*
X193977850Y-53302350D01*
X193936000Y-53512743D01*
X184864000Y-53512743D01*
X184822150Y-53302350D01*
X184740059Y-53104165D01*
X184620881Y-52925803D01*
X184469197Y-52774119D01*
X184290835Y-52654941D01*
X184092650Y-52572850D01*
X183882257Y-52531000D01*
X183667743Y-52531000D01*
X183457350Y-52572850D01*
X183259165Y-52654941D01*
X183080803Y-52774119D01*
X182929119Y-52925803D01*
X182809941Y-53104165D01*
X182727850Y-53302350D01*
X182686000Y-53512743D01*
X175127000Y-53512743D01*
X175127000Y-52459937D01*
X175183423Y-52442822D01*
X175266289Y-52398529D01*
X175338921Y-52338921D01*
X175398529Y-52266289D01*
X175442822Y-52183423D01*
X175470097Y-52093508D01*
X175479307Y-52000000D01*
X175477000Y-51976577D01*
X175477000Y-47023326D01*
X175489204Y-46898861D01*
X175518579Y-46801568D01*
X175566287Y-46711841D01*
X175630517Y-46633089D01*
X175708820Y-46568310D01*
X175798216Y-46519974D01*
X175895296Y-46489923D01*
X176037966Y-46474927D01*
X176050214Y-46475013D01*
X176056842Y-46474363D01*
X176250939Y-46453962D01*
X176293303Y-46445266D01*
X176335755Y-46437168D01*
X176342126Y-46435244D01*
X176342132Y-46435243D01*
X176342138Y-46435241D01*
X176528568Y-46377531D01*
X176568418Y-46360780D01*
X176608508Y-46344583D01*
X176614384Y-46341458D01*
X176614389Y-46341456D01*
X176614393Y-46341453D01*
X176786065Y-46248631D01*
X176821936Y-46224436D01*
X176858084Y-46200782D01*
X176863236Y-46196580D01*
X176863244Y-46196574D01*
X176863251Y-46196567D01*
X177013623Y-46072168D01*
X177044076Y-46041502D01*
X177074975Y-46011244D01*
X177079214Y-46006118D01*
X177079220Y-46006112D01*
X177079224Y-46006105D01*
X177202569Y-45854870D01*
X177226489Y-45818867D01*
X177250920Y-45783188D01*
X177254084Y-45777334D01*
X177254087Y-45777330D01*
X177254089Y-45777326D01*
X177345712Y-45605007D01*
X177362190Y-45565028D01*
X177379218Y-45525300D01*
X177381187Y-45518939D01*
X177381188Y-45518937D01*
X177381189Y-45518930D01*
X177437597Y-45332102D01*
X177446000Y-45289663D01*
X177454983Y-45247405D01*
X177455677Y-45240788D01*
X177455679Y-45240780D01*
X177455679Y-45240772D01*
X177474723Y-45046548D01*
X177474723Y-45046541D01*
X177477000Y-45023423D01*
X177477000Y-40477000D01*
X201523000Y-40477000D01*
X201523001Y-45023423D01*
M02*
