G04 #@! TF.GenerationSoftware,KiCad,Pcbnew,5.1.5-52549c5~86~ubuntu16.04.1*
G04 #@! TF.CreationDate,2020-08-04T22:24:30-05:00*
G04 #@! TF.ProjectId,pressure_sensors,70726573-7375-4726-955f-73656e736f72,rev?*
G04 #@! TF.SameCoordinates,Original*
G04 #@! TF.FileFunction,Soldermask,Bot*
G04 #@! TF.FilePolarity,Negative*
%FSLAX46Y46*%
G04 Gerber Fmt 4.6, Leading zero omitted, Abs format (unit mm)*
G04 Created by KiCad (PCBNEW 5.1.5-52549c5~86~ubuntu16.04.1) date 2020-08-04 22:24:30*
%MOMM*%
%LPD*%
G04 APERTURE LIST*
%ADD10C,0.100000*%
G04 APERTURE END LIST*
D10*
G36*
X197810000Y-139810000D02*
G01*
X196410000Y-139810000D01*
X196410000Y-136260000D01*
X197810000Y-136260000D01*
X197810000Y-139810000D01*
G37*
G36*
X195270000Y-139810000D02*
G01*
X193870000Y-139810000D01*
X193870000Y-136260000D01*
X195270000Y-136260000D01*
X195270000Y-139810000D01*
G37*
G36*
X182570000Y-139810000D02*
G01*
X181170000Y-139810000D01*
X181170000Y-136260000D01*
X182570000Y-136260000D01*
X182570000Y-139810000D01*
G37*
G36*
X185110000Y-139810000D02*
G01*
X183710000Y-139810000D01*
X183710000Y-136260000D01*
X185110000Y-136260000D01*
X185110000Y-139810000D01*
G37*
G36*
X187650000Y-139810000D02*
G01*
X186250000Y-139810000D01*
X186250000Y-136260000D01*
X187650000Y-136260000D01*
X187650000Y-139810000D01*
G37*
G36*
X147570000Y-139810000D02*
G01*
X146170000Y-139810000D01*
X146170000Y-136260000D01*
X147570000Y-136260000D01*
X147570000Y-139810000D01*
G37*
G36*
X150110000Y-139810000D02*
G01*
X148710000Y-139810000D01*
X148710000Y-136260000D01*
X150110000Y-136260000D01*
X150110000Y-139810000D01*
G37*
G36*
X152650000Y-139810000D02*
G01*
X151250000Y-139810000D01*
X151250000Y-136260000D01*
X152650000Y-136260000D01*
X152650000Y-139810000D01*
G37*
G36*
X155190000Y-139810000D02*
G01*
X153790000Y-139810000D01*
X153790000Y-136260000D01*
X155190000Y-136260000D01*
X155190000Y-139810000D01*
G37*
G36*
X157730000Y-139810000D02*
G01*
X156330000Y-139810000D01*
X156330000Y-136260000D01*
X157730000Y-136260000D01*
X157730000Y-139810000D01*
G37*
G36*
X160270000Y-139810000D02*
G01*
X158870000Y-139810000D01*
X158870000Y-136260000D01*
X160270000Y-136260000D01*
X160270000Y-139810000D01*
G37*
G36*
X162810000Y-139810000D02*
G01*
X161410000Y-139810000D01*
X161410000Y-136260000D01*
X162810000Y-136260000D01*
X162810000Y-139810000D01*
G37*
G36*
X190190000Y-139810000D02*
G01*
X188790000Y-139810000D01*
X188790000Y-136260000D01*
X190190000Y-136260000D01*
X190190000Y-139810000D01*
G37*
G36*
X192730000Y-139810000D02*
G01*
X191330000Y-139810000D01*
X191330000Y-136260000D01*
X192730000Y-136260000D01*
X192730000Y-139810000D01*
G37*
G36*
X233820000Y-139800000D02*
G01*
X232420000Y-139800000D01*
X232420000Y-136250000D01*
X233820000Y-136250000D01*
X233820000Y-139800000D01*
G37*
G36*
X218580000Y-139800000D02*
G01*
X217180000Y-139800000D01*
X217180000Y-136250000D01*
X218580000Y-136250000D01*
X218580000Y-139800000D01*
G37*
G36*
X221120000Y-139800000D02*
G01*
X219720000Y-139800000D01*
X219720000Y-136250000D01*
X221120000Y-136250000D01*
X221120000Y-139800000D01*
G37*
G36*
X223660000Y-139800000D02*
G01*
X222260000Y-139800000D01*
X222260000Y-136250000D01*
X223660000Y-136250000D01*
X223660000Y-139800000D01*
G37*
G36*
X226200000Y-139800000D02*
G01*
X224800000Y-139800000D01*
X224800000Y-136250000D01*
X226200000Y-136250000D01*
X226200000Y-139800000D01*
G37*
G36*
X228740000Y-139800000D02*
G01*
X227340000Y-139800000D01*
X227340000Y-136250000D01*
X228740000Y-136250000D01*
X228740000Y-139800000D01*
G37*
G36*
X231280000Y-139800000D02*
G01*
X229880000Y-139800000D01*
X229880000Y-136250000D01*
X231280000Y-136250000D01*
X231280000Y-139800000D01*
G37*
G36*
X152650000Y-134760000D02*
G01*
X151250000Y-134760000D01*
X151250000Y-131210000D01*
X152650000Y-131210000D01*
X152650000Y-134760000D01*
G37*
G36*
X147570000Y-134760000D02*
G01*
X146170000Y-134760000D01*
X146170000Y-131210000D01*
X147570000Y-131210000D01*
X147570000Y-134760000D01*
G37*
G36*
X195270000Y-134760000D02*
G01*
X193870000Y-134760000D01*
X193870000Y-131210000D01*
X195270000Y-131210000D01*
X195270000Y-134760000D01*
G37*
G36*
X197810000Y-134760000D02*
G01*
X196410000Y-134760000D01*
X196410000Y-131210000D01*
X197810000Y-131210000D01*
X197810000Y-134760000D01*
G37*
G36*
X190190000Y-134760000D02*
G01*
X188790000Y-134760000D01*
X188790000Y-131210000D01*
X190190000Y-131210000D01*
X190190000Y-134760000D01*
G37*
G36*
X187650000Y-134760000D02*
G01*
X186250000Y-134760000D01*
X186250000Y-131210000D01*
X187650000Y-131210000D01*
X187650000Y-134760000D01*
G37*
G36*
X185110000Y-134760000D02*
G01*
X183710000Y-134760000D01*
X183710000Y-131210000D01*
X185110000Y-131210000D01*
X185110000Y-134760000D01*
G37*
G36*
X192730000Y-134760000D02*
G01*
X191330000Y-134760000D01*
X191330000Y-131210000D01*
X192730000Y-131210000D01*
X192730000Y-134760000D01*
G37*
G36*
X182570000Y-134760000D02*
G01*
X181170000Y-134760000D01*
X181170000Y-131210000D01*
X182570000Y-131210000D01*
X182570000Y-134760000D01*
G37*
G36*
X150110000Y-134760000D02*
G01*
X148710000Y-134760000D01*
X148710000Y-131210000D01*
X150110000Y-131210000D01*
X150110000Y-134760000D01*
G37*
G36*
X160270000Y-134760000D02*
G01*
X158870000Y-134760000D01*
X158870000Y-131210000D01*
X160270000Y-131210000D01*
X160270000Y-134760000D01*
G37*
G36*
X157730000Y-134760000D02*
G01*
X156330000Y-134760000D01*
X156330000Y-131210000D01*
X157730000Y-131210000D01*
X157730000Y-134760000D01*
G37*
G36*
X155190000Y-134760000D02*
G01*
X153790000Y-134760000D01*
X153790000Y-131210000D01*
X155190000Y-131210000D01*
X155190000Y-134760000D01*
G37*
G36*
X162810000Y-134760000D02*
G01*
X161410000Y-134760000D01*
X161410000Y-131210000D01*
X162810000Y-131210000D01*
X162810000Y-134760000D01*
G37*
G36*
X223660000Y-134750000D02*
G01*
X222260000Y-134750000D01*
X222260000Y-131200000D01*
X223660000Y-131200000D01*
X223660000Y-134750000D01*
G37*
G36*
X221120000Y-134750000D02*
G01*
X219720000Y-134750000D01*
X219720000Y-131200000D01*
X221120000Y-131200000D01*
X221120000Y-134750000D01*
G37*
G36*
X226200000Y-134750000D02*
G01*
X224800000Y-134750000D01*
X224800000Y-131200000D01*
X226200000Y-131200000D01*
X226200000Y-134750000D01*
G37*
G36*
X218580000Y-134750000D02*
G01*
X217180000Y-134750000D01*
X217180000Y-131200000D01*
X218580000Y-131200000D01*
X218580000Y-134750000D01*
G37*
G36*
X228740000Y-134750000D02*
G01*
X227340000Y-134750000D01*
X227340000Y-131200000D01*
X228740000Y-131200000D01*
X228740000Y-134750000D01*
G37*
G36*
X233820000Y-134750000D02*
G01*
X232420000Y-134750000D01*
X232420000Y-131200000D01*
X233820000Y-131200000D01*
X233820000Y-134750000D01*
G37*
G36*
X231280000Y-134750000D02*
G01*
X229880000Y-134750000D01*
X229880000Y-131200000D01*
X231280000Y-131200000D01*
X231280000Y-134750000D01*
G37*
G36*
X178594498Y-129252230D02*
G01*
X179031270Y-129433147D01*
X179424355Y-129695798D01*
X179758646Y-130030089D01*
X180021297Y-130423174D01*
X180202214Y-130859946D01*
X180294444Y-131323621D01*
X180294444Y-131796379D01*
X180202214Y-132260054D01*
X180021297Y-132696826D01*
X179758646Y-133089911D01*
X179424355Y-133424202D01*
X179031270Y-133686853D01*
X178594498Y-133867770D01*
X178130823Y-133960000D01*
X177658065Y-133960000D01*
X177194390Y-133867770D01*
X176757618Y-133686853D01*
X176364533Y-133424202D01*
X176030242Y-133089911D01*
X175767591Y-132696826D01*
X175586674Y-132260054D01*
X175494444Y-131796379D01*
X175494444Y-131323621D01*
X175586674Y-130859946D01*
X175767591Y-130423174D01*
X176030242Y-130030089D01*
X176364533Y-129695798D01*
X176757618Y-129433147D01*
X177194390Y-129252230D01*
X177658065Y-129160000D01*
X178130823Y-129160000D01*
X178594498Y-129252230D01*
G37*
G36*
X143594498Y-129252230D02*
G01*
X144031270Y-129433147D01*
X144424355Y-129695798D01*
X144758646Y-130030089D01*
X145021297Y-130423174D01*
X145202214Y-130859946D01*
X145294444Y-131323621D01*
X145294444Y-131796379D01*
X145202214Y-132260054D01*
X145021297Y-132696826D01*
X144758646Y-133089911D01*
X144424355Y-133424202D01*
X144031270Y-133686853D01*
X143594498Y-133867770D01*
X143130823Y-133960000D01*
X142658065Y-133960000D01*
X142194390Y-133867770D01*
X141757618Y-133686853D01*
X141364533Y-133424202D01*
X141030242Y-133089911D01*
X140767591Y-132696826D01*
X140586674Y-132260054D01*
X140494444Y-131796379D01*
X140494444Y-131323621D01*
X140586674Y-130859946D01*
X140767591Y-130423174D01*
X141030242Y-130030089D01*
X141364533Y-129695798D01*
X141757618Y-129433147D01*
X142194390Y-129252230D01*
X142658065Y-129160000D01*
X143130823Y-129160000D01*
X143594498Y-129252230D01*
G37*
G36*
X201705604Y-129252230D02*
G01*
X202142376Y-129433147D01*
X202535461Y-129695798D01*
X202869752Y-130030089D01*
X203132403Y-130423174D01*
X203313320Y-130859946D01*
X203405550Y-131323621D01*
X203405550Y-131796379D01*
X203313320Y-132260054D01*
X203132403Y-132696826D01*
X202869752Y-133089911D01*
X202535461Y-133424202D01*
X202142376Y-133686853D01*
X201705604Y-133867770D01*
X201241929Y-133960000D01*
X200769171Y-133960000D01*
X200305496Y-133867770D01*
X199868724Y-133686853D01*
X199475639Y-133424202D01*
X199141348Y-133089911D01*
X198878697Y-132696826D01*
X198697780Y-132260054D01*
X198605550Y-131796379D01*
X198605550Y-131323621D01*
X198697780Y-130859946D01*
X198878697Y-130423174D01*
X199141348Y-130030089D01*
X199475639Y-129695798D01*
X199868724Y-129433147D01*
X200305496Y-129252230D01*
X200769171Y-129160000D01*
X201241929Y-129160000D01*
X201705604Y-129252230D01*
G37*
G36*
X166705604Y-129252230D02*
G01*
X167142376Y-129433147D01*
X167535461Y-129695798D01*
X167869752Y-130030089D01*
X168132403Y-130423174D01*
X168313320Y-130859946D01*
X168405550Y-131323621D01*
X168405550Y-131796379D01*
X168313320Y-132260054D01*
X168132403Y-132696826D01*
X167869752Y-133089911D01*
X167535461Y-133424202D01*
X167142376Y-133686853D01*
X166705604Y-133867770D01*
X166241929Y-133960000D01*
X165769171Y-133960000D01*
X165305496Y-133867770D01*
X164868724Y-133686853D01*
X164475639Y-133424202D01*
X164141348Y-133089911D01*
X163878697Y-132696826D01*
X163697780Y-132260054D01*
X163605550Y-131796379D01*
X163605550Y-131323621D01*
X163697780Y-130859946D01*
X163878697Y-130423174D01*
X164141348Y-130030089D01*
X164475639Y-129695798D01*
X164868724Y-129433147D01*
X165305496Y-129252230D01*
X165769171Y-129160000D01*
X166241929Y-129160000D01*
X166705604Y-129252230D01*
G37*
G36*
X190923589Y-129330639D02*
G01*
X190973912Y-129345904D01*
X191020289Y-129370693D01*
X191060943Y-129404057D01*
X191094307Y-129444711D01*
X191119096Y-129491088D01*
X191134361Y-129541411D01*
X191140000Y-129598667D01*
X191140000Y-130401333D01*
X191134361Y-130458589D01*
X191119096Y-130508912D01*
X191094307Y-130555289D01*
X191060943Y-130595943D01*
X191020289Y-130629307D01*
X190973912Y-130654096D01*
X190923589Y-130669361D01*
X190866333Y-130675000D01*
X190138667Y-130675000D01*
X190081411Y-130669361D01*
X190031088Y-130654096D01*
X189984711Y-130629307D01*
X189944057Y-130595943D01*
X189910693Y-130555289D01*
X189885904Y-130508912D01*
X189870639Y-130458589D01*
X189865000Y-130401333D01*
X189865000Y-129598667D01*
X189870639Y-129541411D01*
X189885904Y-129491088D01*
X189910693Y-129444711D01*
X189944057Y-129404057D01*
X189984711Y-129370693D01*
X190031088Y-129345904D01*
X190081411Y-129330639D01*
X190138667Y-129325000D01*
X190866333Y-129325000D01*
X190923589Y-129330639D01*
G37*
G36*
X192498589Y-129330639D02*
G01*
X192548912Y-129345904D01*
X192595289Y-129370693D01*
X192635943Y-129404057D01*
X192669307Y-129444711D01*
X192694096Y-129491088D01*
X192709361Y-129541411D01*
X192715000Y-129598667D01*
X192715000Y-130401333D01*
X192709361Y-130458589D01*
X192694096Y-130508912D01*
X192669307Y-130555289D01*
X192635943Y-130595943D01*
X192595289Y-130629307D01*
X192548912Y-130654096D01*
X192498589Y-130669361D01*
X192441333Y-130675000D01*
X191713667Y-130675000D01*
X191656411Y-130669361D01*
X191606088Y-130654096D01*
X191559711Y-130629307D01*
X191519057Y-130595943D01*
X191485693Y-130555289D01*
X191460904Y-130508912D01*
X191445639Y-130458589D01*
X191440000Y-130401333D01*
X191440000Y-129598667D01*
X191445639Y-129541411D01*
X191460904Y-129491088D01*
X191485693Y-129444711D01*
X191519057Y-129404057D01*
X191559711Y-129370693D01*
X191606088Y-129345904D01*
X191656411Y-129330639D01*
X191713667Y-129325000D01*
X192441333Y-129325000D01*
X192498589Y-129330639D01*
G37*
G36*
X157498589Y-129330639D02*
G01*
X157548912Y-129345904D01*
X157595289Y-129370693D01*
X157635943Y-129404057D01*
X157669307Y-129444711D01*
X157694096Y-129491088D01*
X157709361Y-129541411D01*
X157715000Y-129598667D01*
X157715000Y-130401333D01*
X157709361Y-130458589D01*
X157694096Y-130508912D01*
X157669307Y-130555289D01*
X157635943Y-130595943D01*
X157595289Y-130629307D01*
X157548912Y-130654096D01*
X157498589Y-130669361D01*
X157441333Y-130675000D01*
X156713667Y-130675000D01*
X156656411Y-130669361D01*
X156606088Y-130654096D01*
X156559711Y-130629307D01*
X156519057Y-130595943D01*
X156485693Y-130555289D01*
X156460904Y-130508912D01*
X156445639Y-130458589D01*
X156440000Y-130401333D01*
X156440000Y-129598667D01*
X156445639Y-129541411D01*
X156460904Y-129491088D01*
X156485693Y-129444711D01*
X156519057Y-129404057D01*
X156559711Y-129370693D01*
X156606088Y-129345904D01*
X156656411Y-129330639D01*
X156713667Y-129325000D01*
X157441333Y-129325000D01*
X157498589Y-129330639D01*
G37*
G36*
X155923589Y-129330639D02*
G01*
X155973912Y-129345904D01*
X156020289Y-129370693D01*
X156060943Y-129404057D01*
X156094307Y-129444711D01*
X156119096Y-129491088D01*
X156134361Y-129541411D01*
X156140000Y-129598667D01*
X156140000Y-130401333D01*
X156134361Y-130458589D01*
X156119096Y-130508912D01*
X156094307Y-130555289D01*
X156060943Y-130595943D01*
X156020289Y-130629307D01*
X155973912Y-130654096D01*
X155923589Y-130669361D01*
X155866333Y-130675000D01*
X155138667Y-130675000D01*
X155081411Y-130669361D01*
X155031088Y-130654096D01*
X154984711Y-130629307D01*
X154944057Y-130595943D01*
X154910693Y-130555289D01*
X154885904Y-130508912D01*
X154870639Y-130458589D01*
X154865000Y-130401333D01*
X154865000Y-129598667D01*
X154870639Y-129541411D01*
X154885904Y-129491088D01*
X154910693Y-129444711D01*
X154944057Y-129404057D01*
X154984711Y-129370693D01*
X155031088Y-129345904D01*
X155081411Y-129330639D01*
X155138667Y-129325000D01*
X155866333Y-129325000D01*
X155923589Y-129330639D01*
G37*
G36*
X230925605Y-127064969D02*
G01*
X230925607Y-127064970D01*
X230925608Y-127064970D01*
X230976883Y-127086209D01*
X231100678Y-127137486D01*
X231100679Y-127137487D01*
X231258238Y-127242764D01*
X231392236Y-127376762D01*
X231454342Y-127469711D01*
X231497514Y-127534322D01*
X231540735Y-127638667D01*
X231565588Y-127698667D01*
X231570031Y-127709395D01*
X231607000Y-127895251D01*
X231607000Y-128084747D01*
X231570030Y-128270608D01*
X231548791Y-128321883D01*
X231497514Y-128445678D01*
X231497513Y-128445679D01*
X231392236Y-128603238D01*
X231258238Y-128737236D01*
X231132104Y-128821515D01*
X231100678Y-128842514D01*
X230976883Y-128893791D01*
X230925608Y-128915030D01*
X230925607Y-128915030D01*
X230925605Y-128915031D01*
X230739749Y-128952000D01*
X230550251Y-128952000D01*
X230364395Y-128915031D01*
X230364393Y-128915030D01*
X230364392Y-128915030D01*
X230313117Y-128893791D01*
X230189322Y-128842514D01*
X230157896Y-128821515D01*
X230031762Y-128737236D01*
X229897764Y-128603238D01*
X229792487Y-128445679D01*
X229792486Y-128445678D01*
X229741209Y-128321883D01*
X229719970Y-128270608D01*
X229683000Y-128084747D01*
X229683000Y-127895251D01*
X229719969Y-127709395D01*
X229724413Y-127698667D01*
X229749265Y-127638667D01*
X229792486Y-127534322D01*
X229835658Y-127469711D01*
X229897764Y-127376762D01*
X230031762Y-127242764D01*
X230189321Y-127137487D01*
X230189322Y-127137486D01*
X230313117Y-127086209D01*
X230364392Y-127064970D01*
X230364393Y-127064970D01*
X230364395Y-127064969D01*
X230550251Y-127028000D01*
X230739749Y-127028000D01*
X230925605Y-127064969D01*
G37*
G36*
X219675605Y-127064969D02*
G01*
X219675607Y-127064970D01*
X219675608Y-127064970D01*
X219726883Y-127086209D01*
X219850678Y-127137486D01*
X219850679Y-127137487D01*
X220008238Y-127242764D01*
X220142236Y-127376762D01*
X220204342Y-127469711D01*
X220247514Y-127534322D01*
X220290735Y-127638667D01*
X220315588Y-127698667D01*
X220320031Y-127709395D01*
X220357000Y-127895251D01*
X220357000Y-128084747D01*
X220320030Y-128270608D01*
X220298791Y-128321883D01*
X220247514Y-128445678D01*
X220247513Y-128445679D01*
X220142236Y-128603238D01*
X220008238Y-128737236D01*
X219882104Y-128821515D01*
X219850678Y-128842514D01*
X219726883Y-128893791D01*
X219675608Y-128915030D01*
X219675607Y-128915030D01*
X219675605Y-128915031D01*
X219489749Y-128952000D01*
X219300251Y-128952000D01*
X219114395Y-128915031D01*
X219114393Y-128915030D01*
X219114392Y-128915030D01*
X219063117Y-128893791D01*
X218939322Y-128842514D01*
X218907896Y-128821515D01*
X218781762Y-128737236D01*
X218647764Y-128603238D01*
X218542487Y-128445679D01*
X218542486Y-128445678D01*
X218491209Y-128321883D01*
X218469970Y-128270608D01*
X218433000Y-128084747D01*
X218433000Y-127895251D01*
X218469969Y-127709395D01*
X218474413Y-127698667D01*
X218499265Y-127638667D01*
X218542486Y-127534322D01*
X218585658Y-127469711D01*
X218647764Y-127376762D01*
X218781762Y-127242764D01*
X218939321Y-127137487D01*
X218939322Y-127137486D01*
X219063117Y-127086209D01*
X219114392Y-127064970D01*
X219114393Y-127064970D01*
X219114395Y-127064969D01*
X219300251Y-127028000D01*
X219489749Y-127028000D01*
X219675605Y-127064969D01*
G37*
G36*
X192745000Y-128790000D02*
G01*
X190895000Y-128790000D01*
X190895000Y-125990000D01*
X192745000Y-125990000D01*
X192745000Y-128790000D01*
G37*
G36*
X186845000Y-128790000D02*
G01*
X184995000Y-128790000D01*
X184995000Y-125990000D01*
X186845000Y-125990000D01*
X186845000Y-128790000D01*
G37*
G36*
X151845000Y-128790000D02*
G01*
X149995000Y-128790000D01*
X149995000Y-125990000D01*
X151845000Y-125990000D01*
X151845000Y-128790000D01*
G37*
G36*
X157745000Y-128790000D02*
G01*
X155895000Y-128790000D01*
X155895000Y-125990000D01*
X157745000Y-125990000D01*
X157745000Y-128790000D01*
G37*
G36*
X228258589Y-127430639D02*
G01*
X228308912Y-127445904D01*
X228355289Y-127470693D01*
X228395943Y-127504057D01*
X228429307Y-127544711D01*
X228454096Y-127591088D01*
X228469361Y-127641411D01*
X228475000Y-127698667D01*
X228475000Y-128501333D01*
X228469361Y-128558589D01*
X228454096Y-128608912D01*
X228429307Y-128655289D01*
X228395943Y-128695943D01*
X228355289Y-128729307D01*
X228308912Y-128754096D01*
X228258589Y-128769361D01*
X228201333Y-128775000D01*
X227473667Y-128775000D01*
X227416411Y-128769361D01*
X227366088Y-128754096D01*
X227319711Y-128729307D01*
X227279057Y-128695943D01*
X227245693Y-128655289D01*
X227220904Y-128608912D01*
X227205639Y-128558589D01*
X227200000Y-128501333D01*
X227200000Y-127698667D01*
X227205639Y-127641411D01*
X227220904Y-127591088D01*
X227245693Y-127544711D01*
X227279057Y-127504057D01*
X227319711Y-127470693D01*
X227366088Y-127445904D01*
X227416411Y-127430639D01*
X227473667Y-127425000D01*
X228201333Y-127425000D01*
X228258589Y-127430639D01*
G37*
G36*
X226683589Y-127430639D02*
G01*
X226733912Y-127445904D01*
X226780289Y-127470693D01*
X226820943Y-127504057D01*
X226854307Y-127544711D01*
X226879096Y-127591088D01*
X226894361Y-127641411D01*
X226900000Y-127698667D01*
X226900000Y-128501333D01*
X226894361Y-128558589D01*
X226879096Y-128608912D01*
X226854307Y-128655289D01*
X226820943Y-128695943D01*
X226780289Y-128729307D01*
X226733912Y-128754096D01*
X226683589Y-128769361D01*
X226626333Y-128775000D01*
X225898667Y-128775000D01*
X225841411Y-128769361D01*
X225791088Y-128754096D01*
X225744711Y-128729307D01*
X225704057Y-128695943D01*
X225670693Y-128655289D01*
X225645904Y-128608912D01*
X225630639Y-128558589D01*
X225625000Y-128501333D01*
X225625000Y-127698667D01*
X225630639Y-127641411D01*
X225645904Y-127591088D01*
X225670693Y-127544711D01*
X225704057Y-127504057D01*
X225744711Y-127470693D01*
X225791088Y-127445904D01*
X225841411Y-127430639D01*
X225898667Y-127425000D01*
X226626333Y-127425000D01*
X226683589Y-127430639D01*
G37*
G36*
X234508589Y-127370639D02*
G01*
X234558912Y-127385904D01*
X234605289Y-127410693D01*
X234645943Y-127444057D01*
X234679307Y-127484711D01*
X234704096Y-127531088D01*
X234719361Y-127581411D01*
X234725000Y-127638667D01*
X234725000Y-128441333D01*
X234719361Y-128498589D01*
X234704096Y-128548912D01*
X234679307Y-128595289D01*
X234645943Y-128635943D01*
X234605289Y-128669307D01*
X234558912Y-128694096D01*
X234508589Y-128709361D01*
X234451333Y-128715000D01*
X233723667Y-128715000D01*
X233666411Y-128709361D01*
X233616088Y-128694096D01*
X233569711Y-128669307D01*
X233529057Y-128635943D01*
X233495693Y-128595289D01*
X233470904Y-128548912D01*
X233455639Y-128498589D01*
X233450000Y-128441333D01*
X233450000Y-127638667D01*
X233455639Y-127581411D01*
X233470904Y-127531088D01*
X233495693Y-127484711D01*
X233529057Y-127444057D01*
X233569711Y-127410693D01*
X233616088Y-127385904D01*
X233666411Y-127370639D01*
X233723667Y-127365000D01*
X234451333Y-127365000D01*
X234508589Y-127370639D01*
G37*
G36*
X232933589Y-127370639D02*
G01*
X232983912Y-127385904D01*
X233030289Y-127410693D01*
X233070943Y-127444057D01*
X233104307Y-127484711D01*
X233129096Y-127531088D01*
X233144361Y-127581411D01*
X233150000Y-127638667D01*
X233150000Y-128441333D01*
X233144361Y-128498589D01*
X233129096Y-128548912D01*
X233104307Y-128595289D01*
X233070943Y-128635943D01*
X233030289Y-128669307D01*
X232983912Y-128694096D01*
X232933589Y-128709361D01*
X232876333Y-128715000D01*
X232148667Y-128715000D01*
X232091411Y-128709361D01*
X232041088Y-128694096D01*
X231994711Y-128669307D01*
X231954057Y-128635943D01*
X231920693Y-128595289D01*
X231895904Y-128548912D01*
X231880639Y-128498589D01*
X231875000Y-128441333D01*
X231875000Y-127638667D01*
X231880639Y-127581411D01*
X231895904Y-127531088D01*
X231920693Y-127484711D01*
X231954057Y-127444057D01*
X231994711Y-127410693D01*
X232041088Y-127385904D01*
X232091411Y-127370639D01*
X232148667Y-127365000D01*
X232876333Y-127365000D01*
X232933589Y-127370639D01*
G37*
G36*
X194958589Y-127355639D02*
G01*
X195008912Y-127370904D01*
X195055289Y-127395693D01*
X195095943Y-127429057D01*
X195129307Y-127469711D01*
X195154096Y-127516088D01*
X195169361Y-127566411D01*
X195175000Y-127623667D01*
X195175000Y-128351333D01*
X195169361Y-128408589D01*
X195154096Y-128458912D01*
X195129307Y-128505289D01*
X195095943Y-128545943D01*
X195055289Y-128579307D01*
X195008912Y-128604096D01*
X194958589Y-128619361D01*
X194901333Y-128625000D01*
X194098667Y-128625000D01*
X194041411Y-128619361D01*
X193991088Y-128604096D01*
X193944711Y-128579307D01*
X193904057Y-128545943D01*
X193870693Y-128505289D01*
X193845904Y-128458912D01*
X193830639Y-128408589D01*
X193825000Y-128351333D01*
X193825000Y-127623667D01*
X193830639Y-127566411D01*
X193845904Y-127516088D01*
X193870693Y-127469711D01*
X193904057Y-127429057D01*
X193944711Y-127395693D01*
X193991088Y-127370904D01*
X194041411Y-127355639D01*
X194098667Y-127350000D01*
X194901333Y-127350000D01*
X194958589Y-127355639D01*
G37*
G36*
X159958589Y-127355639D02*
G01*
X160008912Y-127370904D01*
X160055289Y-127395693D01*
X160095943Y-127429057D01*
X160129307Y-127469711D01*
X160154096Y-127516088D01*
X160169361Y-127566411D01*
X160175000Y-127623667D01*
X160175000Y-128351333D01*
X160169361Y-128408589D01*
X160154096Y-128458912D01*
X160129307Y-128505289D01*
X160095943Y-128545943D01*
X160055289Y-128579307D01*
X160008912Y-128604096D01*
X159958589Y-128619361D01*
X159901333Y-128625000D01*
X159098667Y-128625000D01*
X159041411Y-128619361D01*
X158991088Y-128604096D01*
X158944711Y-128579307D01*
X158904057Y-128545943D01*
X158870693Y-128505289D01*
X158845904Y-128458912D01*
X158830639Y-128408589D01*
X158825000Y-128351333D01*
X158825000Y-127623667D01*
X158830639Y-127566411D01*
X158845904Y-127516088D01*
X158870693Y-127469711D01*
X158904057Y-127429057D01*
X158944711Y-127395693D01*
X158991088Y-127370904D01*
X159041411Y-127355639D01*
X159098667Y-127350000D01*
X159901333Y-127350000D01*
X159958589Y-127355639D01*
G37*
G36*
X159958589Y-125780639D02*
G01*
X160008912Y-125795904D01*
X160055289Y-125820693D01*
X160095943Y-125854057D01*
X160129307Y-125894711D01*
X160154096Y-125941088D01*
X160169361Y-125991411D01*
X160175000Y-126048667D01*
X160175000Y-126776333D01*
X160169361Y-126833589D01*
X160154096Y-126883912D01*
X160129307Y-126930289D01*
X160095943Y-126970943D01*
X160055289Y-127004307D01*
X160008912Y-127029096D01*
X159958589Y-127044361D01*
X159901333Y-127050000D01*
X159098667Y-127050000D01*
X159041411Y-127044361D01*
X158991088Y-127029096D01*
X158944711Y-127004307D01*
X158904057Y-126970943D01*
X158870693Y-126930289D01*
X158845904Y-126883912D01*
X158830639Y-126833589D01*
X158825000Y-126776333D01*
X158825000Y-126048667D01*
X158830639Y-125991411D01*
X158845904Y-125941088D01*
X158870693Y-125894711D01*
X158904057Y-125854057D01*
X158944711Y-125820693D01*
X158991088Y-125795904D01*
X159041411Y-125780639D01*
X159098667Y-125775000D01*
X159901333Y-125775000D01*
X159958589Y-125780639D01*
G37*
G36*
X194958589Y-125780639D02*
G01*
X195008912Y-125795904D01*
X195055289Y-125820693D01*
X195095943Y-125854057D01*
X195129307Y-125894711D01*
X195154096Y-125941088D01*
X195169361Y-125991411D01*
X195175000Y-126048667D01*
X195175000Y-126776333D01*
X195169361Y-126833589D01*
X195154096Y-126883912D01*
X195129307Y-126930289D01*
X195095943Y-126970943D01*
X195055289Y-127004307D01*
X195008912Y-127029096D01*
X194958589Y-127044361D01*
X194901333Y-127050000D01*
X194098667Y-127050000D01*
X194041411Y-127044361D01*
X193991088Y-127029096D01*
X193944711Y-127004307D01*
X193904057Y-126970943D01*
X193870693Y-126930289D01*
X193845904Y-126883912D01*
X193830639Y-126833589D01*
X193825000Y-126776333D01*
X193825000Y-126048667D01*
X193830639Y-125991411D01*
X193845904Y-125941088D01*
X193870693Y-125894711D01*
X193904057Y-125854057D01*
X193944711Y-125820693D01*
X193991088Y-125795904D01*
X194041411Y-125780639D01*
X194098667Y-125775000D01*
X194901333Y-125775000D01*
X194958589Y-125780639D01*
G37*
G36*
X222875000Y-126830000D02*
G01*
X221025000Y-126830000D01*
X221025000Y-124030000D01*
X222875000Y-124030000D01*
X222875000Y-126830000D01*
G37*
G36*
X228775000Y-126830000D02*
G01*
X226925000Y-126830000D01*
X226925000Y-124030000D01*
X228775000Y-124030000D01*
X228775000Y-126830000D01*
G37*
G36*
X219675605Y-124524969D02*
G01*
X219675607Y-124524970D01*
X219675608Y-124524970D01*
X219726883Y-124546209D01*
X219850678Y-124597486D01*
X219850679Y-124597487D01*
X220008238Y-124702764D01*
X220142236Y-124836762D01*
X220217172Y-124948912D01*
X220247514Y-124994322D01*
X220287450Y-125090737D01*
X220319634Y-125168435D01*
X220320031Y-125169395D01*
X220357000Y-125355251D01*
X220357000Y-125544749D01*
X220320031Y-125730605D01*
X220247514Y-125905678D01*
X220226515Y-125937104D01*
X220142236Y-126063238D01*
X220008238Y-126197236D01*
X219882104Y-126281515D01*
X219850678Y-126302514D01*
X219726883Y-126353791D01*
X219675608Y-126375030D01*
X219675607Y-126375030D01*
X219675605Y-126375031D01*
X219489749Y-126412000D01*
X219300251Y-126412000D01*
X219114395Y-126375031D01*
X219114393Y-126375030D01*
X219114392Y-126375030D01*
X219063117Y-126353791D01*
X218939322Y-126302514D01*
X218907896Y-126281515D01*
X218781762Y-126197236D01*
X218647764Y-126063238D01*
X218563485Y-125937104D01*
X218542486Y-125905678D01*
X218469969Y-125730605D01*
X218433000Y-125544749D01*
X218433000Y-125355251D01*
X218469969Y-125169395D01*
X218470367Y-125168435D01*
X218502550Y-125090737D01*
X218542486Y-124994322D01*
X218572828Y-124948912D01*
X218647764Y-124836762D01*
X218781762Y-124702764D01*
X218939321Y-124597487D01*
X218939322Y-124597486D01*
X219063117Y-124546209D01*
X219114392Y-124524970D01*
X219114393Y-124524970D01*
X219114395Y-124524969D01*
X219300251Y-124488000D01*
X219489749Y-124488000D01*
X219675605Y-124524969D01*
G37*
G36*
X230925605Y-124524969D02*
G01*
X230925607Y-124524970D01*
X230925608Y-124524970D01*
X230976883Y-124546209D01*
X231100678Y-124597486D01*
X231100679Y-124597487D01*
X231258238Y-124702764D01*
X231392236Y-124836762D01*
X231467172Y-124948912D01*
X231497514Y-124994322D01*
X231537450Y-125090737D01*
X231569634Y-125168435D01*
X231570031Y-125169395D01*
X231607000Y-125355251D01*
X231607000Y-125544749D01*
X231570031Y-125730605D01*
X231497514Y-125905678D01*
X231476515Y-125937104D01*
X231392236Y-126063238D01*
X231258238Y-126197236D01*
X231132104Y-126281515D01*
X231100678Y-126302514D01*
X230976883Y-126353791D01*
X230925608Y-126375030D01*
X230925607Y-126375030D01*
X230925605Y-126375031D01*
X230739749Y-126412000D01*
X230550251Y-126412000D01*
X230364395Y-126375031D01*
X230364393Y-126375030D01*
X230364392Y-126375030D01*
X230313117Y-126353791D01*
X230189322Y-126302514D01*
X230157896Y-126281515D01*
X230031762Y-126197236D01*
X229897764Y-126063238D01*
X229813485Y-125937104D01*
X229792486Y-125905678D01*
X229719969Y-125730605D01*
X229683000Y-125544749D01*
X229683000Y-125355251D01*
X229719969Y-125169395D01*
X229720367Y-125168435D01*
X229752550Y-125090737D01*
X229792486Y-124994322D01*
X229822828Y-124948912D01*
X229897764Y-124836762D01*
X230031762Y-124702764D01*
X230189321Y-124597487D01*
X230189322Y-124597486D01*
X230313117Y-124546209D01*
X230364392Y-124524970D01*
X230364393Y-124524970D01*
X230364395Y-124524969D01*
X230550251Y-124488000D01*
X230739749Y-124488000D01*
X230925605Y-124524969D01*
G37*
G36*
X156633589Y-124110639D02*
G01*
X156683912Y-124125904D01*
X156730289Y-124150693D01*
X156770943Y-124184057D01*
X156804307Y-124224711D01*
X156829096Y-124271088D01*
X156844361Y-124321411D01*
X156850000Y-124378667D01*
X156850000Y-125181333D01*
X156844361Y-125238589D01*
X156829096Y-125288912D01*
X156804307Y-125335289D01*
X156770943Y-125375943D01*
X156730289Y-125409307D01*
X156683912Y-125434096D01*
X156633589Y-125449361D01*
X156576333Y-125455000D01*
X155848667Y-125455000D01*
X155791411Y-125449361D01*
X155741088Y-125434096D01*
X155694711Y-125409307D01*
X155654057Y-125375943D01*
X155620693Y-125335289D01*
X155595904Y-125288912D01*
X155580639Y-125238589D01*
X155575000Y-125181333D01*
X155575000Y-124378667D01*
X155580639Y-124321411D01*
X155595904Y-124271088D01*
X155620693Y-124224711D01*
X155654057Y-124184057D01*
X155694711Y-124150693D01*
X155741088Y-124125904D01*
X155791411Y-124110639D01*
X155848667Y-124105000D01*
X156576333Y-124105000D01*
X156633589Y-124110639D01*
G37*
G36*
X158208589Y-124110639D02*
G01*
X158258912Y-124125904D01*
X158305289Y-124150693D01*
X158345943Y-124184057D01*
X158379307Y-124224711D01*
X158404096Y-124271088D01*
X158419361Y-124321411D01*
X158425000Y-124378667D01*
X158425000Y-125181333D01*
X158419361Y-125238589D01*
X158404096Y-125288912D01*
X158379307Y-125335289D01*
X158345943Y-125375943D01*
X158305289Y-125409307D01*
X158258912Y-125434096D01*
X158208589Y-125449361D01*
X158151333Y-125455000D01*
X157423667Y-125455000D01*
X157366411Y-125449361D01*
X157316088Y-125434096D01*
X157269711Y-125409307D01*
X157229057Y-125375943D01*
X157195693Y-125335289D01*
X157170904Y-125288912D01*
X157155639Y-125238589D01*
X157150000Y-125181333D01*
X157150000Y-124378667D01*
X157155639Y-124321411D01*
X157170904Y-124271088D01*
X157195693Y-124224711D01*
X157229057Y-124184057D01*
X157269711Y-124150693D01*
X157316088Y-124125904D01*
X157366411Y-124110639D01*
X157423667Y-124105000D01*
X158151333Y-124105000D01*
X158208589Y-124110639D01*
G37*
G36*
X193208589Y-124110639D02*
G01*
X193258912Y-124125904D01*
X193305289Y-124150693D01*
X193345943Y-124184057D01*
X193379307Y-124224711D01*
X193404096Y-124271088D01*
X193419361Y-124321411D01*
X193425000Y-124378667D01*
X193425000Y-125181333D01*
X193419361Y-125238589D01*
X193404096Y-125288912D01*
X193379307Y-125335289D01*
X193345943Y-125375943D01*
X193305289Y-125409307D01*
X193258912Y-125434096D01*
X193208589Y-125449361D01*
X193151333Y-125455000D01*
X192423667Y-125455000D01*
X192366411Y-125449361D01*
X192316088Y-125434096D01*
X192269711Y-125409307D01*
X192229057Y-125375943D01*
X192195693Y-125335289D01*
X192170904Y-125288912D01*
X192155639Y-125238589D01*
X192150000Y-125181333D01*
X192150000Y-124378667D01*
X192155639Y-124321411D01*
X192170904Y-124271088D01*
X192195693Y-124224711D01*
X192229057Y-124184057D01*
X192269711Y-124150693D01*
X192316088Y-124125904D01*
X192366411Y-124110639D01*
X192423667Y-124105000D01*
X193151333Y-124105000D01*
X193208589Y-124110639D01*
G37*
G36*
X191633589Y-124110639D02*
G01*
X191683912Y-124125904D01*
X191730289Y-124150693D01*
X191770943Y-124184057D01*
X191804307Y-124224711D01*
X191829096Y-124271088D01*
X191844361Y-124321411D01*
X191850000Y-124378667D01*
X191850000Y-125181333D01*
X191844361Y-125238589D01*
X191829096Y-125288912D01*
X191804307Y-125335289D01*
X191770943Y-125375943D01*
X191730289Y-125409307D01*
X191683912Y-125434096D01*
X191633589Y-125449361D01*
X191576333Y-125455000D01*
X190848667Y-125455000D01*
X190791411Y-125449361D01*
X190741088Y-125434096D01*
X190694711Y-125409307D01*
X190654057Y-125375943D01*
X190620693Y-125335289D01*
X190595904Y-125288912D01*
X190580639Y-125238589D01*
X190575000Y-125181333D01*
X190575000Y-124378667D01*
X190580639Y-124321411D01*
X190595904Y-124271088D01*
X190620693Y-124224711D01*
X190654057Y-124184057D01*
X190694711Y-124150693D01*
X190741088Y-124125904D01*
X190791411Y-124110639D01*
X190848667Y-124105000D01*
X191576333Y-124105000D01*
X191633589Y-124110639D01*
G37*
G36*
X153548589Y-124080639D02*
G01*
X153598912Y-124095904D01*
X153645289Y-124120693D01*
X153685943Y-124154057D01*
X153719307Y-124194711D01*
X153744096Y-124241088D01*
X153759361Y-124291411D01*
X153765000Y-124348667D01*
X153765000Y-125151333D01*
X153759361Y-125208589D01*
X153744096Y-125258912D01*
X153719307Y-125305289D01*
X153685943Y-125345943D01*
X153645289Y-125379307D01*
X153598912Y-125404096D01*
X153548589Y-125419361D01*
X153491333Y-125425000D01*
X152763667Y-125425000D01*
X152706411Y-125419361D01*
X152656088Y-125404096D01*
X152609711Y-125379307D01*
X152569057Y-125345943D01*
X152535693Y-125305289D01*
X152510904Y-125258912D01*
X152495639Y-125208589D01*
X152490000Y-125151333D01*
X152490000Y-124348667D01*
X152495639Y-124291411D01*
X152510904Y-124241088D01*
X152535693Y-124194711D01*
X152569057Y-124154057D01*
X152609711Y-124120693D01*
X152656088Y-124095904D01*
X152706411Y-124080639D01*
X152763667Y-124075000D01*
X153491333Y-124075000D01*
X153548589Y-124080639D01*
G37*
G36*
X186973589Y-124080639D02*
G01*
X187023912Y-124095904D01*
X187070289Y-124120693D01*
X187110943Y-124154057D01*
X187144307Y-124194711D01*
X187169096Y-124241088D01*
X187184361Y-124291411D01*
X187190000Y-124348667D01*
X187190000Y-125151333D01*
X187184361Y-125208589D01*
X187169096Y-125258912D01*
X187144307Y-125305289D01*
X187110943Y-125345943D01*
X187070289Y-125379307D01*
X187023912Y-125404096D01*
X186973589Y-125419361D01*
X186916333Y-125425000D01*
X186188667Y-125425000D01*
X186131411Y-125419361D01*
X186081088Y-125404096D01*
X186034711Y-125379307D01*
X185994057Y-125345943D01*
X185960693Y-125305289D01*
X185935904Y-125258912D01*
X185920639Y-125208589D01*
X185915000Y-125151333D01*
X185915000Y-124348667D01*
X185920639Y-124291411D01*
X185935904Y-124241088D01*
X185960693Y-124194711D01*
X185994057Y-124154057D01*
X186034711Y-124120693D01*
X186081088Y-124095904D01*
X186131411Y-124080639D01*
X186188667Y-124075000D01*
X186916333Y-124075000D01*
X186973589Y-124080639D01*
G37*
G36*
X188548589Y-124080639D02*
G01*
X188598912Y-124095904D01*
X188645289Y-124120693D01*
X188685943Y-124154057D01*
X188719307Y-124194711D01*
X188744096Y-124241088D01*
X188759361Y-124291411D01*
X188765000Y-124348667D01*
X188765000Y-125151333D01*
X188759361Y-125208589D01*
X188744096Y-125258912D01*
X188719307Y-125305289D01*
X188685943Y-125345943D01*
X188645289Y-125379307D01*
X188598912Y-125404096D01*
X188548589Y-125419361D01*
X188491333Y-125425000D01*
X187763667Y-125425000D01*
X187706411Y-125419361D01*
X187656088Y-125404096D01*
X187609711Y-125379307D01*
X187569057Y-125345943D01*
X187535693Y-125305289D01*
X187510904Y-125258912D01*
X187495639Y-125208589D01*
X187490000Y-125151333D01*
X187490000Y-124348667D01*
X187495639Y-124291411D01*
X187510904Y-124241088D01*
X187535693Y-124194711D01*
X187569057Y-124154057D01*
X187609711Y-124120693D01*
X187656088Y-124095904D01*
X187706411Y-124080639D01*
X187763667Y-124075000D01*
X188491333Y-124075000D01*
X188548589Y-124080639D01*
G37*
G36*
X151973589Y-124080639D02*
G01*
X152023912Y-124095904D01*
X152070289Y-124120693D01*
X152110943Y-124154057D01*
X152144307Y-124194711D01*
X152169096Y-124241088D01*
X152184361Y-124291411D01*
X152190000Y-124348667D01*
X152190000Y-125151333D01*
X152184361Y-125208589D01*
X152169096Y-125258912D01*
X152144307Y-125305289D01*
X152110943Y-125345943D01*
X152070289Y-125379307D01*
X152023912Y-125404096D01*
X151973589Y-125419361D01*
X151916333Y-125425000D01*
X151188667Y-125425000D01*
X151131411Y-125419361D01*
X151081088Y-125404096D01*
X151034711Y-125379307D01*
X150994057Y-125345943D01*
X150960693Y-125305289D01*
X150935904Y-125258912D01*
X150920639Y-125208589D01*
X150915000Y-125151333D01*
X150915000Y-124348667D01*
X150920639Y-124291411D01*
X150935904Y-124241088D01*
X150960693Y-124194711D01*
X150994057Y-124154057D01*
X151034711Y-124120693D01*
X151081088Y-124095904D01*
X151131411Y-124080639D01*
X151188667Y-124075000D01*
X151916333Y-124075000D01*
X151973589Y-124080639D01*
G37*
G36*
X217938589Y-123845639D02*
G01*
X217988912Y-123860904D01*
X218035289Y-123885693D01*
X218075943Y-123919057D01*
X218109307Y-123959711D01*
X218134096Y-124006088D01*
X218149361Y-124056411D01*
X218155000Y-124113667D01*
X218155000Y-124841333D01*
X218149361Y-124898589D01*
X218134096Y-124948912D01*
X218109307Y-124995289D01*
X218075943Y-125035943D01*
X218035289Y-125069307D01*
X217988912Y-125094096D01*
X217938589Y-125109361D01*
X217881333Y-125115000D01*
X217078667Y-125115000D01*
X217021411Y-125109361D01*
X216971088Y-125094096D01*
X216924711Y-125069307D01*
X216884057Y-125035943D01*
X216850693Y-124995289D01*
X216825904Y-124948912D01*
X216810639Y-124898589D01*
X216805000Y-124841333D01*
X216805000Y-124113667D01*
X216810639Y-124056411D01*
X216825904Y-124006088D01*
X216850693Y-123959711D01*
X216884057Y-123919057D01*
X216924711Y-123885693D01*
X216971088Y-123860904D01*
X217021411Y-123845639D01*
X217078667Y-123840000D01*
X217881333Y-123840000D01*
X217938589Y-123845639D01*
G37*
G36*
X230925605Y-121984969D02*
G01*
X230925607Y-121984970D01*
X230925608Y-121984970D01*
X230976883Y-122006209D01*
X231100678Y-122057486D01*
X231100679Y-122057487D01*
X231258238Y-122162764D01*
X231392236Y-122296762D01*
X231433394Y-122358360D01*
X231497514Y-122454322D01*
X231570031Y-122629395D01*
X231607000Y-122815251D01*
X231607000Y-123004749D01*
X231570031Y-123190605D01*
X231497514Y-123365678D01*
X231497513Y-123365679D01*
X231392236Y-123523238D01*
X231258238Y-123657236D01*
X231132104Y-123741515D01*
X231100678Y-123762514D01*
X231035993Y-123789307D01*
X230925608Y-123835030D01*
X230925607Y-123835030D01*
X230925605Y-123835031D01*
X230739749Y-123872000D01*
X230550251Y-123872000D01*
X230364395Y-123835031D01*
X230364393Y-123835030D01*
X230364392Y-123835030D01*
X230254007Y-123789307D01*
X230189322Y-123762514D01*
X230157896Y-123741515D01*
X230031762Y-123657236D01*
X229897764Y-123523238D01*
X229792487Y-123365679D01*
X229792486Y-123365678D01*
X229719969Y-123190605D01*
X229683000Y-123004749D01*
X229683000Y-122815251D01*
X229719969Y-122629395D01*
X229792486Y-122454322D01*
X229856606Y-122358360D01*
X229897764Y-122296762D01*
X230031762Y-122162764D01*
X230189321Y-122057487D01*
X230189322Y-122057486D01*
X230313117Y-122006209D01*
X230364392Y-121984970D01*
X230364393Y-121984970D01*
X230364395Y-121984969D01*
X230550251Y-121948000D01*
X230739749Y-121948000D01*
X230925605Y-121984969D01*
G37*
G36*
X219675605Y-121984969D02*
G01*
X219675607Y-121984970D01*
X219675608Y-121984970D01*
X219726883Y-122006209D01*
X219850678Y-122057486D01*
X219850679Y-122057487D01*
X220008238Y-122162764D01*
X220142236Y-122296762D01*
X220183394Y-122358360D01*
X220247514Y-122454322D01*
X220320031Y-122629395D01*
X220357000Y-122815251D01*
X220357000Y-123004749D01*
X220320031Y-123190605D01*
X220247514Y-123365678D01*
X220247513Y-123365679D01*
X220142236Y-123523238D01*
X220008238Y-123657236D01*
X219882104Y-123741515D01*
X219850678Y-123762514D01*
X219785993Y-123789307D01*
X219675608Y-123835030D01*
X219675607Y-123835030D01*
X219675605Y-123835031D01*
X219489749Y-123872000D01*
X219300251Y-123872000D01*
X219114395Y-123835031D01*
X219114393Y-123835030D01*
X219114392Y-123835030D01*
X219004007Y-123789307D01*
X218939322Y-123762514D01*
X218907896Y-123741515D01*
X218781762Y-123657236D01*
X218647764Y-123523238D01*
X218542487Y-123365679D01*
X218542486Y-123365678D01*
X218469969Y-123190605D01*
X218433000Y-123004749D01*
X218433000Y-122815251D01*
X218469969Y-122629395D01*
X218542486Y-122454322D01*
X218606606Y-122358360D01*
X218647764Y-122296762D01*
X218781762Y-122162764D01*
X218939321Y-122057487D01*
X218939322Y-122057486D01*
X219063117Y-122006209D01*
X219114392Y-121984970D01*
X219114393Y-121984970D01*
X219114395Y-121984969D01*
X219300251Y-121948000D01*
X219489749Y-121948000D01*
X219675605Y-121984969D01*
G37*
G36*
X185086089Y-122520639D02*
G01*
X185136412Y-122535904D01*
X185182789Y-122560693D01*
X185223443Y-122594057D01*
X185256807Y-122634711D01*
X185281596Y-122681088D01*
X185296861Y-122731411D01*
X185302500Y-122788667D01*
X185302500Y-123591333D01*
X185296861Y-123648589D01*
X185281596Y-123698912D01*
X185256807Y-123745289D01*
X185223443Y-123785943D01*
X185182789Y-123819307D01*
X185136412Y-123844096D01*
X185086089Y-123859361D01*
X185028833Y-123865000D01*
X184301167Y-123865000D01*
X184243911Y-123859361D01*
X184193588Y-123844096D01*
X184147211Y-123819307D01*
X184106557Y-123785943D01*
X184073193Y-123745289D01*
X184048404Y-123698912D01*
X184033139Y-123648589D01*
X184027500Y-123591333D01*
X184027500Y-122788667D01*
X184033139Y-122731411D01*
X184048404Y-122681088D01*
X184073193Y-122634711D01*
X184106557Y-122594057D01*
X184147211Y-122560693D01*
X184193588Y-122535904D01*
X184243911Y-122520639D01*
X184301167Y-122515000D01*
X185028833Y-122515000D01*
X185086089Y-122520639D01*
G37*
G36*
X183511089Y-122520639D02*
G01*
X183561412Y-122535904D01*
X183607789Y-122560693D01*
X183648443Y-122594057D01*
X183681807Y-122634711D01*
X183706596Y-122681088D01*
X183721861Y-122731411D01*
X183727500Y-122788667D01*
X183727500Y-123591333D01*
X183721861Y-123648589D01*
X183706596Y-123698912D01*
X183681807Y-123745289D01*
X183648443Y-123785943D01*
X183607789Y-123819307D01*
X183561412Y-123844096D01*
X183511089Y-123859361D01*
X183453833Y-123865000D01*
X182726167Y-123865000D01*
X182668911Y-123859361D01*
X182618588Y-123844096D01*
X182572211Y-123819307D01*
X182531557Y-123785943D01*
X182498193Y-123745289D01*
X182473404Y-123698912D01*
X182458139Y-123648589D01*
X182452500Y-123591333D01*
X182452500Y-122788667D01*
X182458139Y-122731411D01*
X182473404Y-122681088D01*
X182498193Y-122634711D01*
X182531557Y-122594057D01*
X182572211Y-122560693D01*
X182618588Y-122535904D01*
X182668911Y-122520639D01*
X182726167Y-122515000D01*
X183453833Y-122515000D01*
X183511089Y-122520639D01*
G37*
G36*
X148511089Y-122520639D02*
G01*
X148561412Y-122535904D01*
X148607789Y-122560693D01*
X148648443Y-122594057D01*
X148681807Y-122634711D01*
X148706596Y-122681088D01*
X148721861Y-122731411D01*
X148727500Y-122788667D01*
X148727500Y-123591333D01*
X148721861Y-123648589D01*
X148706596Y-123698912D01*
X148681807Y-123745289D01*
X148648443Y-123785943D01*
X148607789Y-123819307D01*
X148561412Y-123844096D01*
X148511089Y-123859361D01*
X148453833Y-123865000D01*
X147726167Y-123865000D01*
X147668911Y-123859361D01*
X147618588Y-123844096D01*
X147572211Y-123819307D01*
X147531557Y-123785943D01*
X147498193Y-123745289D01*
X147473404Y-123698912D01*
X147458139Y-123648589D01*
X147452500Y-123591333D01*
X147452500Y-122788667D01*
X147458139Y-122731411D01*
X147473404Y-122681088D01*
X147498193Y-122634711D01*
X147531557Y-122594057D01*
X147572211Y-122560693D01*
X147618588Y-122535904D01*
X147668911Y-122520639D01*
X147726167Y-122515000D01*
X148453833Y-122515000D01*
X148511089Y-122520639D01*
G37*
G36*
X150086089Y-122520639D02*
G01*
X150136412Y-122535904D01*
X150182789Y-122560693D01*
X150223443Y-122594057D01*
X150256807Y-122634711D01*
X150281596Y-122681088D01*
X150296861Y-122731411D01*
X150302500Y-122788667D01*
X150302500Y-123591333D01*
X150296861Y-123648589D01*
X150281596Y-123698912D01*
X150256807Y-123745289D01*
X150223443Y-123785943D01*
X150182789Y-123819307D01*
X150136412Y-123844096D01*
X150086089Y-123859361D01*
X150028833Y-123865000D01*
X149301167Y-123865000D01*
X149243911Y-123859361D01*
X149193588Y-123844096D01*
X149147211Y-123819307D01*
X149106557Y-123785943D01*
X149073193Y-123745289D01*
X149048404Y-123698912D01*
X149033139Y-123648589D01*
X149027500Y-123591333D01*
X149027500Y-122788667D01*
X149033139Y-122731411D01*
X149048404Y-122681088D01*
X149073193Y-122634711D01*
X149106557Y-122594057D01*
X149147211Y-122560693D01*
X149193588Y-122535904D01*
X149243911Y-122520639D01*
X149301167Y-122515000D01*
X150028833Y-122515000D01*
X150086089Y-122520639D01*
G37*
G36*
X186993589Y-122490639D02*
G01*
X187043912Y-122505904D01*
X187090289Y-122530693D01*
X187130943Y-122564057D01*
X187164307Y-122604711D01*
X187189096Y-122651088D01*
X187204361Y-122701411D01*
X187210000Y-122758667D01*
X187210000Y-123561333D01*
X187204361Y-123618589D01*
X187189096Y-123668912D01*
X187164307Y-123715289D01*
X187130943Y-123755943D01*
X187090289Y-123789307D01*
X187043912Y-123814096D01*
X186993589Y-123829361D01*
X186936333Y-123835000D01*
X186208667Y-123835000D01*
X186151411Y-123829361D01*
X186101088Y-123814096D01*
X186054711Y-123789307D01*
X186014057Y-123755943D01*
X185980693Y-123715289D01*
X185955904Y-123668912D01*
X185940639Y-123618589D01*
X185935000Y-123561333D01*
X185935000Y-122758667D01*
X185940639Y-122701411D01*
X185955904Y-122651088D01*
X185980693Y-122604711D01*
X186014057Y-122564057D01*
X186054711Y-122530693D01*
X186101088Y-122505904D01*
X186151411Y-122490639D01*
X186208667Y-122485000D01*
X186936333Y-122485000D01*
X186993589Y-122490639D01*
G37*
G36*
X153568589Y-122490639D02*
G01*
X153618912Y-122505904D01*
X153665289Y-122530693D01*
X153705943Y-122564057D01*
X153739307Y-122604711D01*
X153764096Y-122651088D01*
X153779361Y-122701411D01*
X153785000Y-122758667D01*
X153785000Y-123561333D01*
X153779361Y-123618589D01*
X153764096Y-123668912D01*
X153739307Y-123715289D01*
X153705943Y-123755943D01*
X153665289Y-123789307D01*
X153618912Y-123814096D01*
X153568589Y-123829361D01*
X153511333Y-123835000D01*
X152783667Y-123835000D01*
X152726411Y-123829361D01*
X152676088Y-123814096D01*
X152629711Y-123789307D01*
X152589057Y-123755943D01*
X152555693Y-123715289D01*
X152530904Y-123668912D01*
X152515639Y-123618589D01*
X152510000Y-123561333D01*
X152510000Y-122758667D01*
X152515639Y-122701411D01*
X152530904Y-122651088D01*
X152555693Y-122604711D01*
X152589057Y-122564057D01*
X152629711Y-122530693D01*
X152676088Y-122505904D01*
X152726411Y-122490639D01*
X152783667Y-122485000D01*
X153511333Y-122485000D01*
X153568589Y-122490639D01*
G37*
G36*
X151993589Y-122490639D02*
G01*
X152043912Y-122505904D01*
X152090289Y-122530693D01*
X152130943Y-122564057D01*
X152164307Y-122604711D01*
X152189096Y-122651088D01*
X152204361Y-122701411D01*
X152210000Y-122758667D01*
X152210000Y-123561333D01*
X152204361Y-123618589D01*
X152189096Y-123668912D01*
X152164307Y-123715289D01*
X152130943Y-123755943D01*
X152090289Y-123789307D01*
X152043912Y-123814096D01*
X151993589Y-123829361D01*
X151936333Y-123835000D01*
X151208667Y-123835000D01*
X151151411Y-123829361D01*
X151101088Y-123814096D01*
X151054711Y-123789307D01*
X151014057Y-123755943D01*
X150980693Y-123715289D01*
X150955904Y-123668912D01*
X150940639Y-123618589D01*
X150935000Y-123561333D01*
X150935000Y-122758667D01*
X150940639Y-122701411D01*
X150955904Y-122651088D01*
X150980693Y-122604711D01*
X151014057Y-122564057D01*
X151054711Y-122530693D01*
X151101088Y-122505904D01*
X151151411Y-122490639D01*
X151208667Y-122485000D01*
X151936333Y-122485000D01*
X151993589Y-122490639D01*
G37*
G36*
X188568589Y-122490639D02*
G01*
X188618912Y-122505904D01*
X188665289Y-122530693D01*
X188705943Y-122564057D01*
X188739307Y-122604711D01*
X188764096Y-122651088D01*
X188779361Y-122701411D01*
X188785000Y-122758667D01*
X188785000Y-123561333D01*
X188779361Y-123618589D01*
X188764096Y-123668912D01*
X188739307Y-123715289D01*
X188705943Y-123755943D01*
X188665289Y-123789307D01*
X188618912Y-123814096D01*
X188568589Y-123829361D01*
X188511333Y-123835000D01*
X187783667Y-123835000D01*
X187726411Y-123829361D01*
X187676088Y-123814096D01*
X187629711Y-123789307D01*
X187589057Y-123755943D01*
X187555693Y-123715289D01*
X187530904Y-123668912D01*
X187515639Y-123618589D01*
X187510000Y-123561333D01*
X187510000Y-122758667D01*
X187515639Y-122701411D01*
X187530904Y-122651088D01*
X187555693Y-122604711D01*
X187589057Y-122564057D01*
X187629711Y-122530693D01*
X187676088Y-122505904D01*
X187726411Y-122490639D01*
X187783667Y-122485000D01*
X188511333Y-122485000D01*
X188568589Y-122490639D01*
G37*
G36*
X217938589Y-122270639D02*
G01*
X217988912Y-122285904D01*
X218035289Y-122310693D01*
X218075943Y-122344057D01*
X218109307Y-122384711D01*
X218134096Y-122431088D01*
X218149361Y-122481411D01*
X218155000Y-122538667D01*
X218155000Y-123266333D01*
X218149361Y-123323589D01*
X218134096Y-123373912D01*
X218109307Y-123420289D01*
X218075943Y-123460943D01*
X218035289Y-123494307D01*
X217988912Y-123519096D01*
X217938589Y-123534361D01*
X217881333Y-123540000D01*
X217078667Y-123540000D01*
X217021411Y-123534361D01*
X216971088Y-123519096D01*
X216924711Y-123494307D01*
X216884057Y-123460943D01*
X216850693Y-123420289D01*
X216825904Y-123373912D01*
X216810639Y-123323589D01*
X216805000Y-123266333D01*
X216805000Y-122538667D01*
X216810639Y-122481411D01*
X216825904Y-122431088D01*
X216850693Y-122384711D01*
X216884057Y-122344057D01*
X216924711Y-122310693D01*
X216971088Y-122285904D01*
X217021411Y-122270639D01*
X217078667Y-122265000D01*
X217881333Y-122265000D01*
X217938589Y-122270639D01*
G37*
G36*
X225226089Y-122100639D02*
G01*
X225276412Y-122115904D01*
X225322789Y-122140693D01*
X225363443Y-122174057D01*
X225396807Y-122214711D01*
X225421596Y-122261088D01*
X225436861Y-122311411D01*
X225442500Y-122368667D01*
X225442500Y-123171333D01*
X225436861Y-123228589D01*
X225421596Y-123278912D01*
X225396807Y-123325289D01*
X225363443Y-123365943D01*
X225322789Y-123399307D01*
X225276412Y-123424096D01*
X225226089Y-123439361D01*
X225168833Y-123445000D01*
X224441167Y-123445000D01*
X224383911Y-123439361D01*
X224333588Y-123424096D01*
X224287211Y-123399307D01*
X224246557Y-123365943D01*
X224213193Y-123325289D01*
X224188404Y-123278912D01*
X224173139Y-123228589D01*
X224167500Y-123171333D01*
X224167500Y-122368667D01*
X224173139Y-122311411D01*
X224188404Y-122261088D01*
X224213193Y-122214711D01*
X224246557Y-122174057D01*
X224287211Y-122140693D01*
X224333588Y-122115904D01*
X224383911Y-122100639D01*
X224441167Y-122095000D01*
X225168833Y-122095000D01*
X225226089Y-122100639D01*
G37*
G36*
X223651089Y-122100639D02*
G01*
X223701412Y-122115904D01*
X223747789Y-122140693D01*
X223788443Y-122174057D01*
X223821807Y-122214711D01*
X223846596Y-122261088D01*
X223861861Y-122311411D01*
X223867500Y-122368667D01*
X223867500Y-123171333D01*
X223861861Y-123228589D01*
X223846596Y-123278912D01*
X223821807Y-123325289D01*
X223788443Y-123365943D01*
X223747789Y-123399307D01*
X223701412Y-123424096D01*
X223651089Y-123439361D01*
X223593833Y-123445000D01*
X222866167Y-123445000D01*
X222808911Y-123439361D01*
X222758588Y-123424096D01*
X222712211Y-123399307D01*
X222671557Y-123365943D01*
X222638193Y-123325289D01*
X222613404Y-123278912D01*
X222598139Y-123228589D01*
X222592500Y-123171333D01*
X222592500Y-122368667D01*
X222598139Y-122311411D01*
X222613404Y-122261088D01*
X222638193Y-122214711D01*
X222671557Y-122174057D01*
X222712211Y-122140693D01*
X222758588Y-122115904D01*
X222808911Y-122100639D01*
X222866167Y-122095000D01*
X223593833Y-122095000D01*
X223651089Y-122100639D01*
G37*
G36*
X228368589Y-122090639D02*
G01*
X228418912Y-122105904D01*
X228465289Y-122130693D01*
X228505943Y-122164057D01*
X228539307Y-122204711D01*
X228564096Y-122251088D01*
X228579361Y-122301411D01*
X228585000Y-122358667D01*
X228585000Y-123161333D01*
X228579361Y-123218589D01*
X228564096Y-123268912D01*
X228539307Y-123315289D01*
X228505943Y-123355943D01*
X228465289Y-123389307D01*
X228418912Y-123414096D01*
X228368589Y-123429361D01*
X228311333Y-123435000D01*
X227583667Y-123435000D01*
X227526411Y-123429361D01*
X227476088Y-123414096D01*
X227429711Y-123389307D01*
X227389057Y-123355943D01*
X227355693Y-123315289D01*
X227330904Y-123268912D01*
X227315639Y-123218589D01*
X227310000Y-123161333D01*
X227310000Y-122358667D01*
X227315639Y-122301411D01*
X227330904Y-122251088D01*
X227355693Y-122204711D01*
X227389057Y-122164057D01*
X227429711Y-122130693D01*
X227476088Y-122105904D01*
X227526411Y-122090639D01*
X227583667Y-122085000D01*
X228311333Y-122085000D01*
X228368589Y-122090639D01*
G37*
G36*
X226793589Y-122090639D02*
G01*
X226843912Y-122105904D01*
X226890289Y-122130693D01*
X226930943Y-122164057D01*
X226964307Y-122204711D01*
X226989096Y-122251088D01*
X227004361Y-122301411D01*
X227010000Y-122358667D01*
X227010000Y-123161333D01*
X227004361Y-123218589D01*
X226989096Y-123268912D01*
X226964307Y-123315289D01*
X226930943Y-123355943D01*
X226890289Y-123389307D01*
X226843912Y-123414096D01*
X226793589Y-123429361D01*
X226736333Y-123435000D01*
X226008667Y-123435000D01*
X225951411Y-123429361D01*
X225901088Y-123414096D01*
X225854711Y-123389307D01*
X225814057Y-123355943D01*
X225780693Y-123315289D01*
X225755904Y-123268912D01*
X225740639Y-123218589D01*
X225735000Y-123161333D01*
X225735000Y-122358667D01*
X225740639Y-122301411D01*
X225755904Y-122251088D01*
X225780693Y-122204711D01*
X225814057Y-122164057D01*
X225854711Y-122130693D01*
X225901088Y-122105904D01*
X225951411Y-122090639D01*
X226008667Y-122085000D01*
X226736333Y-122085000D01*
X226793589Y-122090639D01*
G37*
G36*
X158455090Y-120079215D02*
G01*
X158551689Y-120098429D01*
X158733678Y-120173811D01*
X158897463Y-120283249D01*
X159036751Y-120422537D01*
X159146189Y-120586322D01*
X159221571Y-120768311D01*
X159260000Y-120961509D01*
X159260000Y-121158491D01*
X159221571Y-121351689D01*
X159146189Y-121533678D01*
X159036751Y-121697463D01*
X158897463Y-121836751D01*
X158733678Y-121946189D01*
X158551689Y-122021571D01*
X158455090Y-122040786D01*
X158358493Y-122060000D01*
X158161507Y-122060000D01*
X158064910Y-122040786D01*
X157968311Y-122021571D01*
X157786322Y-121946189D01*
X157622537Y-121836751D01*
X157483249Y-121697463D01*
X157373811Y-121533678D01*
X157298429Y-121351689D01*
X157260000Y-121158491D01*
X157260000Y-120961509D01*
X157298429Y-120768311D01*
X157373811Y-120586322D01*
X157483249Y-120422537D01*
X157622537Y-120283249D01*
X157786322Y-120173811D01*
X157968311Y-120098429D01*
X158064910Y-120079215D01*
X158161507Y-120060000D01*
X158358493Y-120060000D01*
X158455090Y-120079215D01*
G37*
G36*
X160995090Y-120079215D02*
G01*
X161091689Y-120098429D01*
X161273678Y-120173811D01*
X161437463Y-120283249D01*
X161576751Y-120422537D01*
X161686189Y-120586322D01*
X161761571Y-120768311D01*
X161800000Y-120961509D01*
X161800000Y-121158491D01*
X161761571Y-121351689D01*
X161686189Y-121533678D01*
X161576751Y-121697463D01*
X161437463Y-121836751D01*
X161273678Y-121946189D01*
X161091689Y-122021571D01*
X160995090Y-122040786D01*
X160898493Y-122060000D01*
X160701507Y-122060000D01*
X160604910Y-122040786D01*
X160508311Y-122021571D01*
X160326322Y-121946189D01*
X160162537Y-121836751D01*
X160023249Y-121697463D01*
X159913811Y-121533678D01*
X159838429Y-121351689D01*
X159800000Y-121158491D01*
X159800000Y-120961509D01*
X159838429Y-120768311D01*
X159913811Y-120586322D01*
X160023249Y-120422537D01*
X160162537Y-120283249D01*
X160326322Y-120173811D01*
X160508311Y-120098429D01*
X160604910Y-120079215D01*
X160701507Y-120060000D01*
X160898493Y-120060000D01*
X160995090Y-120079215D01*
G37*
G36*
X153375090Y-120079215D02*
G01*
X153471689Y-120098429D01*
X153653678Y-120173811D01*
X153817463Y-120283249D01*
X153956751Y-120422537D01*
X154066189Y-120586322D01*
X154141571Y-120768311D01*
X154180000Y-120961509D01*
X154180000Y-121158491D01*
X154141571Y-121351689D01*
X154066189Y-121533678D01*
X153956751Y-121697463D01*
X153817463Y-121836751D01*
X153653678Y-121946189D01*
X153471689Y-122021571D01*
X153375090Y-122040786D01*
X153278493Y-122060000D01*
X153081507Y-122060000D01*
X152984910Y-122040786D01*
X152888311Y-122021571D01*
X152706322Y-121946189D01*
X152542537Y-121836751D01*
X152403249Y-121697463D01*
X152293811Y-121533678D01*
X152218429Y-121351689D01*
X152180000Y-121158491D01*
X152180000Y-120961509D01*
X152218429Y-120768311D01*
X152293811Y-120586322D01*
X152403249Y-120422537D01*
X152542537Y-120283249D01*
X152706322Y-120173811D01*
X152888311Y-120098429D01*
X152984910Y-120079215D01*
X153081507Y-120060000D01*
X153278493Y-120060000D01*
X153375090Y-120079215D01*
G37*
G36*
X155915090Y-120079215D02*
G01*
X156011689Y-120098429D01*
X156193678Y-120173811D01*
X156357463Y-120283249D01*
X156496751Y-120422537D01*
X156606189Y-120586322D01*
X156681571Y-120768311D01*
X156720000Y-120961509D01*
X156720000Y-121158491D01*
X156681571Y-121351689D01*
X156606189Y-121533678D01*
X156496751Y-121697463D01*
X156357463Y-121836751D01*
X156193678Y-121946189D01*
X156011689Y-122021571D01*
X155915090Y-122040786D01*
X155818493Y-122060000D01*
X155621507Y-122060000D01*
X155524910Y-122040786D01*
X155428311Y-122021571D01*
X155246322Y-121946189D01*
X155082537Y-121836751D01*
X154943249Y-121697463D01*
X154833811Y-121533678D01*
X154758429Y-121351689D01*
X154720000Y-121158491D01*
X154720000Y-120961509D01*
X154758429Y-120768311D01*
X154833811Y-120586322D01*
X154943249Y-120422537D01*
X155082537Y-120283249D01*
X155246322Y-120173811D01*
X155428311Y-120098429D01*
X155524910Y-120079215D01*
X155621507Y-120060000D01*
X155818493Y-120060000D01*
X155915090Y-120079215D01*
G37*
G36*
X149100000Y-122060000D02*
G01*
X147100000Y-122060000D01*
X147100000Y-120060000D01*
X149100000Y-120060000D01*
X149100000Y-122060000D01*
G37*
G36*
X184100000Y-122060000D02*
G01*
X182100000Y-122060000D01*
X182100000Y-120060000D01*
X184100000Y-120060000D01*
X184100000Y-122060000D01*
G37*
G36*
X185835090Y-120079215D02*
G01*
X185931689Y-120098429D01*
X186113678Y-120173811D01*
X186277463Y-120283249D01*
X186416751Y-120422537D01*
X186526189Y-120586322D01*
X186601571Y-120768311D01*
X186640000Y-120961509D01*
X186640000Y-121158491D01*
X186601571Y-121351689D01*
X186526189Y-121533678D01*
X186416751Y-121697463D01*
X186277463Y-121836751D01*
X186113678Y-121946189D01*
X185931689Y-122021571D01*
X185835090Y-122040786D01*
X185738493Y-122060000D01*
X185541507Y-122060000D01*
X185444910Y-122040786D01*
X185348311Y-122021571D01*
X185166322Y-121946189D01*
X185002537Y-121836751D01*
X184863249Y-121697463D01*
X184753811Y-121533678D01*
X184678429Y-121351689D01*
X184640000Y-121158491D01*
X184640000Y-120961509D01*
X184678429Y-120768311D01*
X184753811Y-120586322D01*
X184863249Y-120422537D01*
X185002537Y-120283249D01*
X185166322Y-120173811D01*
X185348311Y-120098429D01*
X185444910Y-120079215D01*
X185541507Y-120060000D01*
X185738493Y-120060000D01*
X185835090Y-120079215D01*
G37*
G36*
X188375090Y-120079215D02*
G01*
X188471689Y-120098429D01*
X188653678Y-120173811D01*
X188817463Y-120283249D01*
X188956751Y-120422537D01*
X189066189Y-120586322D01*
X189141571Y-120768311D01*
X189180000Y-120961509D01*
X189180000Y-121158491D01*
X189141571Y-121351689D01*
X189066189Y-121533678D01*
X188956751Y-121697463D01*
X188817463Y-121836751D01*
X188653678Y-121946189D01*
X188471689Y-122021571D01*
X188375090Y-122040786D01*
X188278493Y-122060000D01*
X188081507Y-122060000D01*
X187984910Y-122040786D01*
X187888311Y-122021571D01*
X187706322Y-121946189D01*
X187542537Y-121836751D01*
X187403249Y-121697463D01*
X187293811Y-121533678D01*
X187218429Y-121351689D01*
X187180000Y-121158491D01*
X187180000Y-120961509D01*
X187218429Y-120768311D01*
X187293811Y-120586322D01*
X187403249Y-120422537D01*
X187542537Y-120283249D01*
X187706322Y-120173811D01*
X187888311Y-120098429D01*
X187984910Y-120079215D01*
X188081507Y-120060000D01*
X188278493Y-120060000D01*
X188375090Y-120079215D01*
G37*
G36*
X190915090Y-120079215D02*
G01*
X191011689Y-120098429D01*
X191193678Y-120173811D01*
X191357463Y-120283249D01*
X191496751Y-120422537D01*
X191606189Y-120586322D01*
X191681571Y-120768311D01*
X191720000Y-120961509D01*
X191720000Y-121158491D01*
X191681571Y-121351689D01*
X191606189Y-121533678D01*
X191496751Y-121697463D01*
X191357463Y-121836751D01*
X191193678Y-121946189D01*
X191011689Y-122021571D01*
X190915090Y-122040786D01*
X190818493Y-122060000D01*
X190621507Y-122060000D01*
X190524910Y-122040786D01*
X190428311Y-122021571D01*
X190246322Y-121946189D01*
X190082537Y-121836751D01*
X189943249Y-121697463D01*
X189833811Y-121533678D01*
X189758429Y-121351689D01*
X189720000Y-121158491D01*
X189720000Y-120961509D01*
X189758429Y-120768311D01*
X189833811Y-120586322D01*
X189943249Y-120422537D01*
X190082537Y-120283249D01*
X190246322Y-120173811D01*
X190428311Y-120098429D01*
X190524910Y-120079215D01*
X190621507Y-120060000D01*
X190818493Y-120060000D01*
X190915090Y-120079215D01*
G37*
G36*
X193455090Y-120079215D02*
G01*
X193551689Y-120098429D01*
X193733678Y-120173811D01*
X193897463Y-120283249D01*
X194036751Y-120422537D01*
X194146189Y-120586322D01*
X194221571Y-120768311D01*
X194260000Y-120961509D01*
X194260000Y-121158491D01*
X194221571Y-121351689D01*
X194146189Y-121533678D01*
X194036751Y-121697463D01*
X193897463Y-121836751D01*
X193733678Y-121946189D01*
X193551689Y-122021571D01*
X193455090Y-122040786D01*
X193358493Y-122060000D01*
X193161507Y-122060000D01*
X193064910Y-122040786D01*
X192968311Y-122021571D01*
X192786322Y-121946189D01*
X192622537Y-121836751D01*
X192483249Y-121697463D01*
X192373811Y-121533678D01*
X192298429Y-121351689D01*
X192260000Y-121158491D01*
X192260000Y-120961509D01*
X192298429Y-120768311D01*
X192373811Y-120586322D01*
X192483249Y-120422537D01*
X192622537Y-120283249D01*
X192786322Y-120173811D01*
X192968311Y-120098429D01*
X193064910Y-120079215D01*
X193161507Y-120060000D01*
X193358493Y-120060000D01*
X193455090Y-120079215D01*
G37*
G36*
X195995090Y-120079215D02*
G01*
X196091689Y-120098429D01*
X196273678Y-120173811D01*
X196437463Y-120283249D01*
X196576751Y-120422537D01*
X196686189Y-120586322D01*
X196761571Y-120768311D01*
X196800000Y-120961509D01*
X196800000Y-121158491D01*
X196761571Y-121351689D01*
X196686189Y-121533678D01*
X196576751Y-121697463D01*
X196437463Y-121836751D01*
X196273678Y-121946189D01*
X196091689Y-122021571D01*
X195995090Y-122040786D01*
X195898493Y-122060000D01*
X195701507Y-122060000D01*
X195604910Y-122040786D01*
X195508311Y-122021571D01*
X195326322Y-121946189D01*
X195162537Y-121836751D01*
X195023249Y-121697463D01*
X194913811Y-121533678D01*
X194838429Y-121351689D01*
X194800000Y-121158491D01*
X194800000Y-120961509D01*
X194838429Y-120768311D01*
X194913811Y-120586322D01*
X195023249Y-120422537D01*
X195162537Y-120283249D01*
X195326322Y-120173811D01*
X195508311Y-120098429D01*
X195604910Y-120079215D01*
X195701507Y-120060000D01*
X195898493Y-120060000D01*
X195995090Y-120079215D01*
G37*
G36*
X150835090Y-120079215D02*
G01*
X150931689Y-120098429D01*
X151113678Y-120173811D01*
X151277463Y-120283249D01*
X151416751Y-120422537D01*
X151526189Y-120586322D01*
X151601571Y-120768311D01*
X151640000Y-120961509D01*
X151640000Y-121158491D01*
X151601571Y-121351689D01*
X151526189Y-121533678D01*
X151416751Y-121697463D01*
X151277463Y-121836751D01*
X151113678Y-121946189D01*
X150931689Y-122021571D01*
X150835090Y-122040786D01*
X150738493Y-122060000D01*
X150541507Y-122060000D01*
X150444910Y-122040786D01*
X150348311Y-122021571D01*
X150166322Y-121946189D01*
X150002537Y-121836751D01*
X149863249Y-121697463D01*
X149753811Y-121533678D01*
X149678429Y-121351689D01*
X149640000Y-121158491D01*
X149640000Y-120961509D01*
X149678429Y-120768311D01*
X149753811Y-120586322D01*
X149863249Y-120422537D01*
X150002537Y-120283249D01*
X150166322Y-120173811D01*
X150348311Y-120098429D01*
X150444910Y-120079215D01*
X150541507Y-120060000D01*
X150738493Y-120060000D01*
X150835090Y-120079215D01*
G37*
G36*
X186390000Y-119310000D02*
G01*
X184990000Y-119310000D01*
X184990000Y-115760000D01*
X186390000Y-115760000D01*
X186390000Y-119310000D01*
G37*
G36*
X156470000Y-119310000D02*
G01*
X155070000Y-119310000D01*
X155070000Y-115760000D01*
X156470000Y-115760000D01*
X156470000Y-119310000D01*
G37*
G36*
X188930000Y-119310000D02*
G01*
X187530000Y-119310000D01*
X187530000Y-115760000D01*
X188930000Y-115760000D01*
X188930000Y-119310000D01*
G37*
G36*
X191470000Y-119310000D02*
G01*
X190070000Y-119310000D01*
X190070000Y-115760000D01*
X191470000Y-115760000D01*
X191470000Y-119310000D01*
G37*
G36*
X194010000Y-119310000D02*
G01*
X192610000Y-119310000D01*
X192610000Y-115760000D01*
X194010000Y-115760000D01*
X194010000Y-119310000D01*
G37*
G36*
X151390000Y-119310000D02*
G01*
X149990000Y-119310000D01*
X149990000Y-115760000D01*
X151390000Y-115760000D01*
X151390000Y-119310000D01*
G37*
G36*
X153930000Y-119310000D02*
G01*
X152530000Y-119310000D01*
X152530000Y-115760000D01*
X153930000Y-115760000D01*
X153930000Y-119310000D01*
G37*
G36*
X159010000Y-119310000D02*
G01*
X157610000Y-119310000D01*
X157610000Y-115760000D01*
X159010000Y-115760000D01*
X159010000Y-119310000D01*
G37*
G36*
X222400000Y-119300000D02*
G01*
X221000000Y-119300000D01*
X221000000Y-115750000D01*
X222400000Y-115750000D01*
X222400000Y-119300000D01*
G37*
G36*
X230020000Y-119300000D02*
G01*
X228620000Y-119300000D01*
X228620000Y-115750000D01*
X230020000Y-115750000D01*
X230020000Y-119300000D01*
G37*
G36*
X227480000Y-119300000D02*
G01*
X226080000Y-119300000D01*
X226080000Y-115750000D01*
X227480000Y-115750000D01*
X227480000Y-119300000D01*
G37*
G36*
X224940000Y-119300000D02*
G01*
X223540000Y-119300000D01*
X223540000Y-115750000D01*
X224940000Y-115750000D01*
X224940000Y-119300000D01*
G37*
G36*
X156470000Y-114260000D02*
G01*
X155070000Y-114260000D01*
X155070000Y-110710000D01*
X156470000Y-110710000D01*
X156470000Y-114260000D01*
G37*
G36*
X159010000Y-114260000D02*
G01*
X157610000Y-114260000D01*
X157610000Y-110710000D01*
X159010000Y-110710000D01*
X159010000Y-114260000D01*
G37*
G36*
X153930000Y-114260000D02*
G01*
X152530000Y-114260000D01*
X152530000Y-110710000D01*
X153930000Y-110710000D01*
X153930000Y-114260000D01*
G37*
G36*
X151390000Y-114260000D02*
G01*
X149990000Y-114260000D01*
X149990000Y-110710000D01*
X151390000Y-110710000D01*
X151390000Y-114260000D01*
G37*
G36*
X186390000Y-114260000D02*
G01*
X184990000Y-114260000D01*
X184990000Y-110710000D01*
X186390000Y-110710000D01*
X186390000Y-114260000D01*
G37*
G36*
X188930000Y-114260000D02*
G01*
X187530000Y-114260000D01*
X187530000Y-110710000D01*
X188930000Y-110710000D01*
X188930000Y-114260000D01*
G37*
G36*
X191470000Y-114260000D02*
G01*
X190070000Y-114260000D01*
X190070000Y-110710000D01*
X191470000Y-110710000D01*
X191470000Y-114260000D01*
G37*
G36*
X194010000Y-114260000D02*
G01*
X192610000Y-114260000D01*
X192610000Y-110710000D01*
X194010000Y-110710000D01*
X194010000Y-114260000D01*
G37*
G36*
X230020000Y-114250000D02*
G01*
X228620000Y-114250000D01*
X228620000Y-110700000D01*
X230020000Y-110700000D01*
X230020000Y-114250000D01*
G37*
G36*
X227480000Y-114250000D02*
G01*
X226080000Y-114250000D01*
X226080000Y-110700000D01*
X227480000Y-110700000D01*
X227480000Y-114250000D01*
G37*
G36*
X222400000Y-114250000D02*
G01*
X221000000Y-114250000D01*
X221000000Y-110700000D01*
X222400000Y-110700000D01*
X222400000Y-114250000D01*
G37*
G36*
X224940000Y-114250000D02*
G01*
X223540000Y-114250000D01*
X223540000Y-110700000D01*
X224940000Y-110700000D01*
X224940000Y-114250000D01*
G37*
G36*
X150120000Y-104800000D02*
G01*
X148720000Y-104800000D01*
X148720000Y-101250000D01*
X150120000Y-101250000D01*
X150120000Y-104800000D01*
G37*
G36*
X152660000Y-104800000D02*
G01*
X151260000Y-104800000D01*
X151260000Y-101250000D01*
X152660000Y-101250000D01*
X152660000Y-104800000D01*
G37*
G36*
X155200000Y-104800000D02*
G01*
X153800000Y-104800000D01*
X153800000Y-101250000D01*
X155200000Y-101250000D01*
X155200000Y-104800000D01*
G37*
G36*
X160280000Y-104800000D02*
G01*
X158880000Y-104800000D01*
X158880000Y-101250000D01*
X160280000Y-101250000D01*
X160280000Y-104800000D01*
G37*
G36*
X157740000Y-104800000D02*
G01*
X156340000Y-104800000D01*
X156340000Y-101250000D01*
X157740000Y-101250000D01*
X157740000Y-104800000D01*
G37*
G36*
X162820000Y-104800000D02*
G01*
X161420000Y-104800000D01*
X161420000Y-101250000D01*
X162820000Y-101250000D01*
X162820000Y-104800000D01*
G37*
G36*
X226200000Y-104800000D02*
G01*
X224800000Y-104800000D01*
X224800000Y-101250000D01*
X226200000Y-101250000D01*
X226200000Y-104800000D01*
G37*
G36*
X233820000Y-104800000D02*
G01*
X232420000Y-104800000D01*
X232420000Y-101250000D01*
X233820000Y-101250000D01*
X233820000Y-104800000D01*
G37*
G36*
X228740000Y-104800000D02*
G01*
X227340000Y-104800000D01*
X227340000Y-101250000D01*
X228740000Y-101250000D01*
X228740000Y-104800000D01*
G37*
G36*
X231280000Y-104800000D02*
G01*
X229880000Y-104800000D01*
X229880000Y-101250000D01*
X231280000Y-101250000D01*
X231280000Y-104800000D01*
G37*
G36*
X223660000Y-104800000D02*
G01*
X222260000Y-104800000D01*
X222260000Y-101250000D01*
X223660000Y-101250000D01*
X223660000Y-104800000D01*
G37*
G36*
X197820000Y-104800000D02*
G01*
X196420000Y-104800000D01*
X196420000Y-101250000D01*
X197820000Y-101250000D01*
X197820000Y-104800000D01*
G37*
G36*
X195280000Y-104800000D02*
G01*
X193880000Y-104800000D01*
X193880000Y-101250000D01*
X195280000Y-101250000D01*
X195280000Y-104800000D01*
G37*
G36*
X192740000Y-104800000D02*
G01*
X191340000Y-104800000D01*
X191340000Y-101250000D01*
X192740000Y-101250000D01*
X192740000Y-104800000D01*
G37*
G36*
X187660000Y-104800000D02*
G01*
X186260000Y-104800000D01*
X186260000Y-101250000D01*
X187660000Y-101250000D01*
X187660000Y-104800000D01*
G37*
G36*
X185120000Y-104800000D02*
G01*
X183720000Y-104800000D01*
X183720000Y-101250000D01*
X185120000Y-101250000D01*
X185120000Y-104800000D01*
G37*
G36*
X182580000Y-104800000D02*
G01*
X181180000Y-104800000D01*
X181180000Y-101250000D01*
X182580000Y-101250000D01*
X182580000Y-104800000D01*
G37*
G36*
X218580000Y-104800000D02*
G01*
X217180000Y-104800000D01*
X217180000Y-101250000D01*
X218580000Y-101250000D01*
X218580000Y-104800000D01*
G37*
G36*
X221120000Y-104800000D02*
G01*
X219720000Y-104800000D01*
X219720000Y-101250000D01*
X221120000Y-101250000D01*
X221120000Y-104800000D01*
G37*
G36*
X190200000Y-104800000D02*
G01*
X188800000Y-104800000D01*
X188800000Y-101250000D01*
X190200000Y-101250000D01*
X190200000Y-104800000D01*
G37*
G36*
X147580000Y-104800000D02*
G01*
X146180000Y-104800000D01*
X146180000Y-101250000D01*
X147580000Y-101250000D01*
X147580000Y-104800000D01*
G37*
G36*
X190200000Y-99750000D02*
G01*
X188800000Y-99750000D01*
X188800000Y-96200000D01*
X190200000Y-96200000D01*
X190200000Y-99750000D01*
G37*
G36*
X150120000Y-99750000D02*
G01*
X148720000Y-99750000D01*
X148720000Y-96200000D01*
X150120000Y-96200000D01*
X150120000Y-99750000D01*
G37*
G36*
X187660000Y-99750000D02*
G01*
X186260000Y-99750000D01*
X186260000Y-96200000D01*
X187660000Y-96200000D01*
X187660000Y-99750000D01*
G37*
G36*
X185120000Y-99750000D02*
G01*
X183720000Y-99750000D01*
X183720000Y-96200000D01*
X185120000Y-96200000D01*
X185120000Y-99750000D01*
G37*
G36*
X182580000Y-99750000D02*
G01*
X181180000Y-99750000D01*
X181180000Y-96200000D01*
X182580000Y-96200000D01*
X182580000Y-99750000D01*
G37*
G36*
X233820000Y-99750000D02*
G01*
X232420000Y-99750000D01*
X232420000Y-96200000D01*
X233820000Y-96200000D01*
X233820000Y-99750000D01*
G37*
G36*
X231280000Y-99750000D02*
G01*
X229880000Y-99750000D01*
X229880000Y-96200000D01*
X231280000Y-96200000D01*
X231280000Y-99750000D01*
G37*
G36*
X218580000Y-99750000D02*
G01*
X217180000Y-99750000D01*
X217180000Y-96200000D01*
X218580000Y-96200000D01*
X218580000Y-99750000D01*
G37*
G36*
X221120000Y-99750000D02*
G01*
X219720000Y-99750000D01*
X219720000Y-96200000D01*
X221120000Y-96200000D01*
X221120000Y-99750000D01*
G37*
G36*
X228740000Y-99750000D02*
G01*
X227340000Y-99750000D01*
X227340000Y-96200000D01*
X228740000Y-96200000D01*
X228740000Y-99750000D01*
G37*
G36*
X223660000Y-99750000D02*
G01*
X222260000Y-99750000D01*
X222260000Y-96200000D01*
X223660000Y-96200000D01*
X223660000Y-99750000D01*
G37*
G36*
X192740000Y-99750000D02*
G01*
X191340000Y-99750000D01*
X191340000Y-96200000D01*
X192740000Y-96200000D01*
X192740000Y-99750000D01*
G37*
G36*
X195280000Y-99750000D02*
G01*
X193880000Y-99750000D01*
X193880000Y-96200000D01*
X195280000Y-96200000D01*
X195280000Y-99750000D01*
G37*
G36*
X197820000Y-99750000D02*
G01*
X196420000Y-99750000D01*
X196420000Y-96200000D01*
X197820000Y-96200000D01*
X197820000Y-99750000D01*
G37*
G36*
X147580000Y-99750000D02*
G01*
X146180000Y-99750000D01*
X146180000Y-96200000D01*
X147580000Y-96200000D01*
X147580000Y-99750000D01*
G37*
G36*
X155200000Y-99750000D02*
G01*
X153800000Y-99750000D01*
X153800000Y-96200000D01*
X155200000Y-96200000D01*
X155200000Y-99750000D01*
G37*
G36*
X226200000Y-99750000D02*
G01*
X224800000Y-99750000D01*
X224800000Y-96200000D01*
X226200000Y-96200000D01*
X226200000Y-99750000D01*
G37*
G36*
X162820000Y-99750000D02*
G01*
X161420000Y-99750000D01*
X161420000Y-96200000D01*
X162820000Y-96200000D01*
X162820000Y-99750000D01*
G37*
G36*
X157740000Y-99750000D02*
G01*
X156340000Y-99750000D01*
X156340000Y-96200000D01*
X157740000Y-96200000D01*
X157740000Y-99750000D01*
G37*
G36*
X160280000Y-99750000D02*
G01*
X158880000Y-99750000D01*
X158880000Y-96200000D01*
X160280000Y-96200000D01*
X160280000Y-99750000D01*
G37*
G36*
X152660000Y-99750000D02*
G01*
X151260000Y-99750000D01*
X151260000Y-96200000D01*
X152660000Y-96200000D01*
X152660000Y-99750000D01*
G37*
G36*
X148675605Y-92064969D02*
G01*
X148675607Y-92064970D01*
X148675608Y-92064970D01*
X148726883Y-92086209D01*
X148850678Y-92137486D01*
X148850679Y-92137487D01*
X149008238Y-92242764D01*
X149142236Y-92376762D01*
X149204998Y-92470693D01*
X149247514Y-92534322D01*
X149271027Y-92591088D01*
X149315588Y-92698667D01*
X149320031Y-92709395D01*
X149357000Y-92895251D01*
X149357000Y-93084749D01*
X149320031Y-93270605D01*
X149247514Y-93445678D01*
X149247513Y-93445679D01*
X149142236Y-93603238D01*
X149008238Y-93737236D01*
X148882104Y-93821515D01*
X148850678Y-93842514D01*
X148726883Y-93893791D01*
X148675608Y-93915030D01*
X148675607Y-93915030D01*
X148675605Y-93915031D01*
X148489749Y-93952000D01*
X148300251Y-93952000D01*
X148114395Y-93915031D01*
X148114393Y-93915030D01*
X148114392Y-93915030D01*
X148063117Y-93893791D01*
X147939322Y-93842514D01*
X147907896Y-93821515D01*
X147781762Y-93737236D01*
X147647764Y-93603238D01*
X147542487Y-93445679D01*
X147542486Y-93445678D01*
X147469969Y-93270605D01*
X147433000Y-93084749D01*
X147433000Y-92895251D01*
X147469969Y-92709395D01*
X147474413Y-92698667D01*
X147518973Y-92591088D01*
X147542486Y-92534322D01*
X147585002Y-92470693D01*
X147647764Y-92376762D01*
X147781762Y-92242764D01*
X147939321Y-92137487D01*
X147939322Y-92137486D01*
X148063117Y-92086209D01*
X148114392Y-92064970D01*
X148114393Y-92064970D01*
X148114395Y-92064969D01*
X148300251Y-92028000D01*
X148489749Y-92028000D01*
X148675605Y-92064969D01*
G37*
G36*
X183675605Y-92064969D02*
G01*
X183675607Y-92064970D01*
X183675608Y-92064970D01*
X183726883Y-92086209D01*
X183850678Y-92137486D01*
X183850679Y-92137487D01*
X184008238Y-92242764D01*
X184142236Y-92376762D01*
X184204998Y-92470693D01*
X184247514Y-92534322D01*
X184271027Y-92591088D01*
X184315588Y-92698667D01*
X184320031Y-92709395D01*
X184357000Y-92895251D01*
X184357000Y-93084749D01*
X184320031Y-93270605D01*
X184247514Y-93445678D01*
X184247513Y-93445679D01*
X184142236Y-93603238D01*
X184008238Y-93737236D01*
X183882104Y-93821515D01*
X183850678Y-93842514D01*
X183726883Y-93893791D01*
X183675608Y-93915030D01*
X183675607Y-93915030D01*
X183675605Y-93915031D01*
X183489749Y-93952000D01*
X183300251Y-93952000D01*
X183114395Y-93915031D01*
X183114393Y-93915030D01*
X183114392Y-93915030D01*
X183063117Y-93893791D01*
X182939322Y-93842514D01*
X182907896Y-93821515D01*
X182781762Y-93737236D01*
X182647764Y-93603238D01*
X182542487Y-93445679D01*
X182542486Y-93445678D01*
X182469969Y-93270605D01*
X182433000Y-93084749D01*
X182433000Y-92895251D01*
X182469969Y-92709395D01*
X182474413Y-92698667D01*
X182518973Y-92591088D01*
X182542486Y-92534322D01*
X182585002Y-92470693D01*
X182647764Y-92376762D01*
X182781762Y-92242764D01*
X182939321Y-92137487D01*
X182939322Y-92137486D01*
X183063117Y-92086209D01*
X183114392Y-92064970D01*
X183114393Y-92064970D01*
X183114395Y-92064969D01*
X183300251Y-92028000D01*
X183489749Y-92028000D01*
X183675605Y-92064969D01*
G37*
G36*
X194925605Y-92064969D02*
G01*
X194925607Y-92064970D01*
X194925608Y-92064970D01*
X194976883Y-92086209D01*
X195100678Y-92137486D01*
X195100679Y-92137487D01*
X195258238Y-92242764D01*
X195392236Y-92376762D01*
X195454998Y-92470693D01*
X195497514Y-92534322D01*
X195521027Y-92591088D01*
X195565588Y-92698667D01*
X195570031Y-92709395D01*
X195607000Y-92895251D01*
X195607000Y-93084749D01*
X195570031Y-93270605D01*
X195497514Y-93445678D01*
X195497513Y-93445679D01*
X195392236Y-93603238D01*
X195258238Y-93737236D01*
X195132104Y-93821515D01*
X195100678Y-93842514D01*
X194976883Y-93893791D01*
X194925608Y-93915030D01*
X194925607Y-93915030D01*
X194925605Y-93915031D01*
X194739749Y-93952000D01*
X194550251Y-93952000D01*
X194364395Y-93915031D01*
X194364393Y-93915030D01*
X194364392Y-93915030D01*
X194313117Y-93893791D01*
X194189322Y-93842514D01*
X194157896Y-93821515D01*
X194031762Y-93737236D01*
X193897764Y-93603238D01*
X193792487Y-93445679D01*
X193792486Y-93445678D01*
X193719969Y-93270605D01*
X193683000Y-93084749D01*
X193683000Y-92895251D01*
X193719969Y-92709395D01*
X193724413Y-92698667D01*
X193768973Y-92591088D01*
X193792486Y-92534322D01*
X193835002Y-92470693D01*
X193897764Y-92376762D01*
X194031762Y-92242764D01*
X194189321Y-92137487D01*
X194189322Y-92137486D01*
X194313117Y-92086209D01*
X194364392Y-92064970D01*
X194364393Y-92064970D01*
X194364395Y-92064969D01*
X194550251Y-92028000D01*
X194739749Y-92028000D01*
X194925605Y-92064969D01*
G37*
G36*
X230925605Y-92064969D02*
G01*
X230925607Y-92064970D01*
X230925608Y-92064970D01*
X230976883Y-92086209D01*
X231100678Y-92137486D01*
X231100679Y-92137487D01*
X231258238Y-92242764D01*
X231392236Y-92376762D01*
X231454998Y-92470693D01*
X231497514Y-92534322D01*
X231521027Y-92591088D01*
X231565588Y-92698667D01*
X231570031Y-92709395D01*
X231607000Y-92895251D01*
X231607000Y-93084749D01*
X231570031Y-93270605D01*
X231497514Y-93445678D01*
X231497513Y-93445679D01*
X231392236Y-93603238D01*
X231258238Y-93737236D01*
X231132104Y-93821515D01*
X231100678Y-93842514D01*
X230976883Y-93893791D01*
X230925608Y-93915030D01*
X230925607Y-93915030D01*
X230925605Y-93915031D01*
X230739749Y-93952000D01*
X230550251Y-93952000D01*
X230364395Y-93915031D01*
X230364393Y-93915030D01*
X230364392Y-93915030D01*
X230313117Y-93893791D01*
X230189322Y-93842514D01*
X230157896Y-93821515D01*
X230031762Y-93737236D01*
X229897764Y-93603238D01*
X229792487Y-93445679D01*
X229792486Y-93445678D01*
X229719969Y-93270605D01*
X229683000Y-93084749D01*
X229683000Y-92895251D01*
X229719969Y-92709395D01*
X229724413Y-92698667D01*
X229768973Y-92591088D01*
X229792486Y-92534322D01*
X229835002Y-92470693D01*
X229897764Y-92376762D01*
X230031762Y-92242764D01*
X230189321Y-92137487D01*
X230189322Y-92137486D01*
X230313117Y-92086209D01*
X230364392Y-92064970D01*
X230364393Y-92064970D01*
X230364395Y-92064969D01*
X230550251Y-92028000D01*
X230739749Y-92028000D01*
X230925605Y-92064969D01*
G37*
G36*
X159925605Y-92064969D02*
G01*
X159925607Y-92064970D01*
X159925608Y-92064970D01*
X159976883Y-92086209D01*
X160100678Y-92137486D01*
X160100679Y-92137487D01*
X160258238Y-92242764D01*
X160392236Y-92376762D01*
X160454998Y-92470693D01*
X160497514Y-92534322D01*
X160521027Y-92591088D01*
X160565588Y-92698667D01*
X160570031Y-92709395D01*
X160607000Y-92895251D01*
X160607000Y-93084749D01*
X160570031Y-93270605D01*
X160497514Y-93445678D01*
X160497513Y-93445679D01*
X160392236Y-93603238D01*
X160258238Y-93737236D01*
X160132104Y-93821515D01*
X160100678Y-93842514D01*
X159976883Y-93893791D01*
X159925608Y-93915030D01*
X159925607Y-93915030D01*
X159925605Y-93915031D01*
X159739749Y-93952000D01*
X159550251Y-93952000D01*
X159364395Y-93915031D01*
X159364393Y-93915030D01*
X159364392Y-93915030D01*
X159313117Y-93893791D01*
X159189322Y-93842514D01*
X159157896Y-93821515D01*
X159031762Y-93737236D01*
X158897764Y-93603238D01*
X158792487Y-93445679D01*
X158792486Y-93445678D01*
X158719969Y-93270605D01*
X158683000Y-93084749D01*
X158683000Y-92895251D01*
X158719969Y-92709395D01*
X158724413Y-92698667D01*
X158768973Y-92591088D01*
X158792486Y-92534322D01*
X158835002Y-92470693D01*
X158897764Y-92376762D01*
X159031762Y-92242764D01*
X159189321Y-92137487D01*
X159189322Y-92137486D01*
X159313117Y-92086209D01*
X159364392Y-92064970D01*
X159364393Y-92064970D01*
X159364395Y-92064969D01*
X159550251Y-92028000D01*
X159739749Y-92028000D01*
X159925605Y-92064969D01*
G37*
G36*
X219675605Y-92064969D02*
G01*
X219675607Y-92064970D01*
X219675608Y-92064970D01*
X219726883Y-92086209D01*
X219850678Y-92137486D01*
X219850679Y-92137487D01*
X220008238Y-92242764D01*
X220142236Y-92376762D01*
X220204998Y-92470693D01*
X220247514Y-92534322D01*
X220271027Y-92591088D01*
X220315588Y-92698667D01*
X220320031Y-92709395D01*
X220357000Y-92895251D01*
X220357000Y-93084749D01*
X220320031Y-93270605D01*
X220247514Y-93445678D01*
X220247513Y-93445679D01*
X220142236Y-93603238D01*
X220008238Y-93737236D01*
X219882104Y-93821515D01*
X219850678Y-93842514D01*
X219726883Y-93893791D01*
X219675608Y-93915030D01*
X219675607Y-93915030D01*
X219675605Y-93915031D01*
X219489749Y-93952000D01*
X219300251Y-93952000D01*
X219114395Y-93915031D01*
X219114393Y-93915030D01*
X219114392Y-93915030D01*
X219063117Y-93893791D01*
X218939322Y-93842514D01*
X218907896Y-93821515D01*
X218781762Y-93737236D01*
X218647764Y-93603238D01*
X218542487Y-93445679D01*
X218542486Y-93445678D01*
X218469969Y-93270605D01*
X218433000Y-93084749D01*
X218433000Y-92895251D01*
X218469969Y-92709395D01*
X218474413Y-92698667D01*
X218518973Y-92591088D01*
X218542486Y-92534322D01*
X218585002Y-92470693D01*
X218647764Y-92376762D01*
X218781762Y-92242764D01*
X218939321Y-92137487D01*
X218939322Y-92137486D01*
X219063117Y-92086209D01*
X219114392Y-92064970D01*
X219114393Y-92064970D01*
X219114395Y-92064969D01*
X219300251Y-92028000D01*
X219489749Y-92028000D01*
X219675605Y-92064969D01*
G37*
G36*
X228258589Y-92430639D02*
G01*
X228308912Y-92445904D01*
X228355289Y-92470693D01*
X228395943Y-92504057D01*
X228429307Y-92544711D01*
X228454096Y-92591088D01*
X228469361Y-92641411D01*
X228475000Y-92698667D01*
X228475000Y-93501333D01*
X228469361Y-93558589D01*
X228454096Y-93608912D01*
X228429307Y-93655289D01*
X228395943Y-93695943D01*
X228355289Y-93729307D01*
X228308912Y-93754096D01*
X228258589Y-93769361D01*
X228201333Y-93775000D01*
X227473667Y-93775000D01*
X227416411Y-93769361D01*
X227366088Y-93754096D01*
X227319711Y-93729307D01*
X227279057Y-93695943D01*
X227245693Y-93655289D01*
X227220904Y-93608912D01*
X227205639Y-93558589D01*
X227200000Y-93501333D01*
X227200000Y-92698667D01*
X227205639Y-92641411D01*
X227220904Y-92591088D01*
X227245693Y-92544711D01*
X227279057Y-92504057D01*
X227319711Y-92470693D01*
X227366088Y-92445904D01*
X227416411Y-92430639D01*
X227473667Y-92425000D01*
X228201333Y-92425000D01*
X228258589Y-92430639D01*
G37*
G36*
X226683589Y-92430639D02*
G01*
X226733912Y-92445904D01*
X226780289Y-92470693D01*
X226820943Y-92504057D01*
X226854307Y-92544711D01*
X226879096Y-92591088D01*
X226894361Y-92641411D01*
X226900000Y-92698667D01*
X226900000Y-93501333D01*
X226894361Y-93558589D01*
X226879096Y-93608912D01*
X226854307Y-93655289D01*
X226820943Y-93695943D01*
X226780289Y-93729307D01*
X226733912Y-93754096D01*
X226683589Y-93769361D01*
X226626333Y-93775000D01*
X225898667Y-93775000D01*
X225841411Y-93769361D01*
X225791088Y-93754096D01*
X225744711Y-93729307D01*
X225704057Y-93695943D01*
X225670693Y-93655289D01*
X225645904Y-93608912D01*
X225630639Y-93558589D01*
X225625000Y-93501333D01*
X225625000Y-92698667D01*
X225630639Y-92641411D01*
X225645904Y-92591088D01*
X225670693Y-92544711D01*
X225704057Y-92504057D01*
X225744711Y-92470693D01*
X225791088Y-92445904D01*
X225841411Y-92430639D01*
X225898667Y-92425000D01*
X226626333Y-92425000D01*
X226683589Y-92430639D01*
G37*
G36*
X192258589Y-92430639D02*
G01*
X192308912Y-92445904D01*
X192355289Y-92470693D01*
X192395943Y-92504057D01*
X192429307Y-92544711D01*
X192454096Y-92591088D01*
X192469361Y-92641411D01*
X192475000Y-92698667D01*
X192475000Y-93501333D01*
X192469361Y-93558589D01*
X192454096Y-93608912D01*
X192429307Y-93655289D01*
X192395943Y-93695943D01*
X192355289Y-93729307D01*
X192308912Y-93754096D01*
X192258589Y-93769361D01*
X192201333Y-93775000D01*
X191473667Y-93775000D01*
X191416411Y-93769361D01*
X191366088Y-93754096D01*
X191319711Y-93729307D01*
X191279057Y-93695943D01*
X191245693Y-93655289D01*
X191220904Y-93608912D01*
X191205639Y-93558589D01*
X191200000Y-93501333D01*
X191200000Y-92698667D01*
X191205639Y-92641411D01*
X191220904Y-92591088D01*
X191245693Y-92544711D01*
X191279057Y-92504057D01*
X191319711Y-92470693D01*
X191366088Y-92445904D01*
X191416411Y-92430639D01*
X191473667Y-92425000D01*
X192201333Y-92425000D01*
X192258589Y-92430639D01*
G37*
G36*
X190683589Y-92430639D02*
G01*
X190733912Y-92445904D01*
X190780289Y-92470693D01*
X190820943Y-92504057D01*
X190854307Y-92544711D01*
X190879096Y-92591088D01*
X190894361Y-92641411D01*
X190900000Y-92698667D01*
X190900000Y-93501333D01*
X190894361Y-93558589D01*
X190879096Y-93608912D01*
X190854307Y-93655289D01*
X190820943Y-93695943D01*
X190780289Y-93729307D01*
X190733912Y-93754096D01*
X190683589Y-93769361D01*
X190626333Y-93775000D01*
X189898667Y-93775000D01*
X189841411Y-93769361D01*
X189791088Y-93754096D01*
X189744711Y-93729307D01*
X189704057Y-93695943D01*
X189670693Y-93655289D01*
X189645904Y-93608912D01*
X189630639Y-93558589D01*
X189625000Y-93501333D01*
X189625000Y-92698667D01*
X189630639Y-92641411D01*
X189645904Y-92591088D01*
X189670693Y-92544711D01*
X189704057Y-92504057D01*
X189744711Y-92470693D01*
X189791088Y-92445904D01*
X189841411Y-92430639D01*
X189898667Y-92425000D01*
X190626333Y-92425000D01*
X190683589Y-92430639D01*
G37*
G36*
X157258589Y-92430639D02*
G01*
X157308912Y-92445904D01*
X157355289Y-92470693D01*
X157395943Y-92504057D01*
X157429307Y-92544711D01*
X157454096Y-92591088D01*
X157469361Y-92641411D01*
X157475000Y-92698667D01*
X157475000Y-93501333D01*
X157469361Y-93558589D01*
X157454096Y-93608912D01*
X157429307Y-93655289D01*
X157395943Y-93695943D01*
X157355289Y-93729307D01*
X157308912Y-93754096D01*
X157258589Y-93769361D01*
X157201333Y-93775000D01*
X156473667Y-93775000D01*
X156416411Y-93769361D01*
X156366088Y-93754096D01*
X156319711Y-93729307D01*
X156279057Y-93695943D01*
X156245693Y-93655289D01*
X156220904Y-93608912D01*
X156205639Y-93558589D01*
X156200000Y-93501333D01*
X156200000Y-92698667D01*
X156205639Y-92641411D01*
X156220904Y-92591088D01*
X156245693Y-92544711D01*
X156279057Y-92504057D01*
X156319711Y-92470693D01*
X156366088Y-92445904D01*
X156416411Y-92430639D01*
X156473667Y-92425000D01*
X157201333Y-92425000D01*
X157258589Y-92430639D01*
G37*
G36*
X155683589Y-92430639D02*
G01*
X155733912Y-92445904D01*
X155780289Y-92470693D01*
X155820943Y-92504057D01*
X155854307Y-92544711D01*
X155879096Y-92591088D01*
X155894361Y-92641411D01*
X155900000Y-92698667D01*
X155900000Y-93501333D01*
X155894361Y-93558589D01*
X155879096Y-93608912D01*
X155854307Y-93655289D01*
X155820943Y-93695943D01*
X155780289Y-93729307D01*
X155733912Y-93754096D01*
X155683589Y-93769361D01*
X155626333Y-93775000D01*
X154898667Y-93775000D01*
X154841411Y-93769361D01*
X154791088Y-93754096D01*
X154744711Y-93729307D01*
X154704057Y-93695943D01*
X154670693Y-93655289D01*
X154645904Y-93608912D01*
X154630639Y-93558589D01*
X154625000Y-93501333D01*
X154625000Y-92698667D01*
X154630639Y-92641411D01*
X154645904Y-92591088D01*
X154670693Y-92544711D01*
X154704057Y-92504057D01*
X154744711Y-92470693D01*
X154791088Y-92445904D01*
X154841411Y-92430639D01*
X154898667Y-92425000D01*
X155626333Y-92425000D01*
X155683589Y-92430639D01*
G37*
G36*
X161933589Y-92370639D02*
G01*
X161983912Y-92385904D01*
X162030289Y-92410693D01*
X162070943Y-92444057D01*
X162104307Y-92484711D01*
X162129096Y-92531088D01*
X162144361Y-92581411D01*
X162150000Y-92638667D01*
X162150000Y-93441333D01*
X162144361Y-93498589D01*
X162129096Y-93548912D01*
X162104307Y-93595289D01*
X162070943Y-93635943D01*
X162030289Y-93669307D01*
X161983912Y-93694096D01*
X161933589Y-93709361D01*
X161876333Y-93715000D01*
X161148667Y-93715000D01*
X161091411Y-93709361D01*
X161041088Y-93694096D01*
X160994711Y-93669307D01*
X160954057Y-93635943D01*
X160920693Y-93595289D01*
X160895904Y-93548912D01*
X160880639Y-93498589D01*
X160875000Y-93441333D01*
X160875000Y-92638667D01*
X160880639Y-92581411D01*
X160895904Y-92531088D01*
X160920693Y-92484711D01*
X160954057Y-92444057D01*
X160994711Y-92410693D01*
X161041088Y-92385904D01*
X161091411Y-92370639D01*
X161148667Y-92365000D01*
X161876333Y-92365000D01*
X161933589Y-92370639D01*
G37*
G36*
X232933589Y-92370639D02*
G01*
X232983912Y-92385904D01*
X233030289Y-92410693D01*
X233070943Y-92444057D01*
X233104307Y-92484711D01*
X233129096Y-92531088D01*
X233144361Y-92581411D01*
X233150000Y-92638667D01*
X233150000Y-93441333D01*
X233144361Y-93498589D01*
X233129096Y-93548912D01*
X233104307Y-93595289D01*
X233070943Y-93635943D01*
X233030289Y-93669307D01*
X232983912Y-93694096D01*
X232933589Y-93709361D01*
X232876333Y-93715000D01*
X232148667Y-93715000D01*
X232091411Y-93709361D01*
X232041088Y-93694096D01*
X231994711Y-93669307D01*
X231954057Y-93635943D01*
X231920693Y-93595289D01*
X231895904Y-93548912D01*
X231880639Y-93498589D01*
X231875000Y-93441333D01*
X231875000Y-92638667D01*
X231880639Y-92581411D01*
X231895904Y-92531088D01*
X231920693Y-92484711D01*
X231954057Y-92444057D01*
X231994711Y-92410693D01*
X232041088Y-92385904D01*
X232091411Y-92370639D01*
X232148667Y-92365000D01*
X232876333Y-92365000D01*
X232933589Y-92370639D01*
G37*
G36*
X163508589Y-92370639D02*
G01*
X163558912Y-92385904D01*
X163605289Y-92410693D01*
X163645943Y-92444057D01*
X163679307Y-92484711D01*
X163704096Y-92531088D01*
X163719361Y-92581411D01*
X163725000Y-92638667D01*
X163725000Y-93441333D01*
X163719361Y-93498589D01*
X163704096Y-93548912D01*
X163679307Y-93595289D01*
X163645943Y-93635943D01*
X163605289Y-93669307D01*
X163558912Y-93694096D01*
X163508589Y-93709361D01*
X163451333Y-93715000D01*
X162723667Y-93715000D01*
X162666411Y-93709361D01*
X162616088Y-93694096D01*
X162569711Y-93669307D01*
X162529057Y-93635943D01*
X162495693Y-93595289D01*
X162470904Y-93548912D01*
X162455639Y-93498589D01*
X162450000Y-93441333D01*
X162450000Y-92638667D01*
X162455639Y-92581411D01*
X162470904Y-92531088D01*
X162495693Y-92484711D01*
X162529057Y-92444057D01*
X162569711Y-92410693D01*
X162616088Y-92385904D01*
X162666411Y-92370639D01*
X162723667Y-92365000D01*
X163451333Y-92365000D01*
X163508589Y-92370639D01*
G37*
G36*
X198508589Y-92370639D02*
G01*
X198558912Y-92385904D01*
X198605289Y-92410693D01*
X198645943Y-92444057D01*
X198679307Y-92484711D01*
X198704096Y-92531088D01*
X198719361Y-92581411D01*
X198725000Y-92638667D01*
X198725000Y-93441333D01*
X198719361Y-93498589D01*
X198704096Y-93548912D01*
X198679307Y-93595289D01*
X198645943Y-93635943D01*
X198605289Y-93669307D01*
X198558912Y-93694096D01*
X198508589Y-93709361D01*
X198451333Y-93715000D01*
X197723667Y-93715000D01*
X197666411Y-93709361D01*
X197616088Y-93694096D01*
X197569711Y-93669307D01*
X197529057Y-93635943D01*
X197495693Y-93595289D01*
X197470904Y-93548912D01*
X197455639Y-93498589D01*
X197450000Y-93441333D01*
X197450000Y-92638667D01*
X197455639Y-92581411D01*
X197470904Y-92531088D01*
X197495693Y-92484711D01*
X197529057Y-92444057D01*
X197569711Y-92410693D01*
X197616088Y-92385904D01*
X197666411Y-92370639D01*
X197723667Y-92365000D01*
X198451333Y-92365000D01*
X198508589Y-92370639D01*
G37*
G36*
X196933589Y-92370639D02*
G01*
X196983912Y-92385904D01*
X197030289Y-92410693D01*
X197070943Y-92444057D01*
X197104307Y-92484711D01*
X197129096Y-92531088D01*
X197144361Y-92581411D01*
X197150000Y-92638667D01*
X197150000Y-93441333D01*
X197144361Y-93498589D01*
X197129096Y-93548912D01*
X197104307Y-93595289D01*
X197070943Y-93635943D01*
X197030289Y-93669307D01*
X196983912Y-93694096D01*
X196933589Y-93709361D01*
X196876333Y-93715000D01*
X196148667Y-93715000D01*
X196091411Y-93709361D01*
X196041088Y-93694096D01*
X195994711Y-93669307D01*
X195954057Y-93635943D01*
X195920693Y-93595289D01*
X195895904Y-93548912D01*
X195880639Y-93498589D01*
X195875000Y-93441333D01*
X195875000Y-92638667D01*
X195880639Y-92581411D01*
X195895904Y-92531088D01*
X195920693Y-92484711D01*
X195954057Y-92444057D01*
X195994711Y-92410693D01*
X196041088Y-92385904D01*
X196091411Y-92370639D01*
X196148667Y-92365000D01*
X196876333Y-92365000D01*
X196933589Y-92370639D01*
G37*
G36*
X234508589Y-92370639D02*
G01*
X234558912Y-92385904D01*
X234605289Y-92410693D01*
X234645943Y-92444057D01*
X234679307Y-92484711D01*
X234704096Y-92531088D01*
X234719361Y-92581411D01*
X234725000Y-92638667D01*
X234725000Y-93441333D01*
X234719361Y-93498589D01*
X234704096Y-93548912D01*
X234679307Y-93595289D01*
X234645943Y-93635943D01*
X234605289Y-93669307D01*
X234558912Y-93694096D01*
X234508589Y-93709361D01*
X234451333Y-93715000D01*
X233723667Y-93715000D01*
X233666411Y-93709361D01*
X233616088Y-93694096D01*
X233569711Y-93669307D01*
X233529057Y-93635943D01*
X233495693Y-93595289D01*
X233470904Y-93548912D01*
X233455639Y-93498589D01*
X233450000Y-93441333D01*
X233450000Y-92638667D01*
X233455639Y-92581411D01*
X233470904Y-92531088D01*
X233495693Y-92484711D01*
X233529057Y-92444057D01*
X233569711Y-92410693D01*
X233616088Y-92385904D01*
X233666411Y-92370639D01*
X233723667Y-92365000D01*
X234451333Y-92365000D01*
X234508589Y-92370639D01*
G37*
G36*
X192775000Y-91830000D02*
G01*
X190925000Y-91830000D01*
X190925000Y-89030000D01*
X192775000Y-89030000D01*
X192775000Y-91830000D01*
G37*
G36*
X186875000Y-91830000D02*
G01*
X185025000Y-91830000D01*
X185025000Y-89030000D01*
X186875000Y-89030000D01*
X186875000Y-91830000D01*
G37*
G36*
X222875000Y-91830000D02*
G01*
X221025000Y-91830000D01*
X221025000Y-89030000D01*
X222875000Y-89030000D01*
X222875000Y-91830000D01*
G37*
G36*
X228775000Y-91830000D02*
G01*
X226925000Y-91830000D01*
X226925000Y-89030000D01*
X228775000Y-89030000D01*
X228775000Y-91830000D01*
G37*
G36*
X157775000Y-91830000D02*
G01*
X155925000Y-91830000D01*
X155925000Y-89030000D01*
X157775000Y-89030000D01*
X157775000Y-91830000D01*
G37*
G36*
X151875000Y-91830000D02*
G01*
X150025000Y-91830000D01*
X150025000Y-89030000D01*
X151875000Y-89030000D01*
X151875000Y-91830000D01*
G37*
G36*
X159925605Y-89524969D02*
G01*
X159925607Y-89524970D01*
X159925608Y-89524970D01*
X159976883Y-89546209D01*
X160100678Y-89597486D01*
X160100679Y-89597487D01*
X160258238Y-89702764D01*
X160392236Y-89836762D01*
X160467172Y-89948912D01*
X160497514Y-89994322D01*
X160570031Y-90169395D01*
X160607000Y-90355251D01*
X160607000Y-90544749D01*
X160570031Y-90730605D01*
X160497514Y-90905678D01*
X160497513Y-90905679D01*
X160392236Y-91063238D01*
X160258238Y-91197236D01*
X160132104Y-91281515D01*
X160100678Y-91302514D01*
X159976883Y-91353791D01*
X159925608Y-91375030D01*
X159925607Y-91375030D01*
X159925605Y-91375031D01*
X159739749Y-91412000D01*
X159550251Y-91412000D01*
X159364395Y-91375031D01*
X159364393Y-91375030D01*
X159364392Y-91375030D01*
X159313117Y-91353791D01*
X159189322Y-91302514D01*
X159157896Y-91281515D01*
X159031762Y-91197236D01*
X158897764Y-91063238D01*
X158792487Y-90905679D01*
X158792486Y-90905678D01*
X158719969Y-90730605D01*
X158683000Y-90544749D01*
X158683000Y-90355251D01*
X158719969Y-90169395D01*
X158792486Y-89994322D01*
X158822828Y-89948912D01*
X158897764Y-89836762D01*
X159031762Y-89702764D01*
X159189321Y-89597487D01*
X159189322Y-89597486D01*
X159313117Y-89546209D01*
X159364392Y-89524970D01*
X159364393Y-89524970D01*
X159364395Y-89524969D01*
X159550251Y-89488000D01*
X159739749Y-89488000D01*
X159925605Y-89524969D01*
G37*
G36*
X148675605Y-89524969D02*
G01*
X148675607Y-89524970D01*
X148675608Y-89524970D01*
X148726883Y-89546209D01*
X148850678Y-89597486D01*
X148850679Y-89597487D01*
X149008238Y-89702764D01*
X149142236Y-89836762D01*
X149217172Y-89948912D01*
X149247514Y-89994322D01*
X149320031Y-90169395D01*
X149357000Y-90355251D01*
X149357000Y-90544749D01*
X149320031Y-90730605D01*
X149247514Y-90905678D01*
X149247513Y-90905679D01*
X149142236Y-91063238D01*
X149008238Y-91197236D01*
X148882104Y-91281515D01*
X148850678Y-91302514D01*
X148726883Y-91353791D01*
X148675608Y-91375030D01*
X148675607Y-91375030D01*
X148675605Y-91375031D01*
X148489749Y-91412000D01*
X148300251Y-91412000D01*
X148114395Y-91375031D01*
X148114393Y-91375030D01*
X148114392Y-91375030D01*
X148063117Y-91353791D01*
X147939322Y-91302514D01*
X147907896Y-91281515D01*
X147781762Y-91197236D01*
X147647764Y-91063238D01*
X147542487Y-90905679D01*
X147542486Y-90905678D01*
X147469969Y-90730605D01*
X147433000Y-90544749D01*
X147433000Y-90355251D01*
X147469969Y-90169395D01*
X147542486Y-89994322D01*
X147572828Y-89948912D01*
X147647764Y-89836762D01*
X147781762Y-89702764D01*
X147939321Y-89597487D01*
X147939322Y-89597486D01*
X148063117Y-89546209D01*
X148114392Y-89524970D01*
X148114393Y-89524970D01*
X148114395Y-89524969D01*
X148300251Y-89488000D01*
X148489749Y-89488000D01*
X148675605Y-89524969D01*
G37*
G36*
X183675605Y-89524969D02*
G01*
X183675607Y-89524970D01*
X183675608Y-89524970D01*
X183726883Y-89546209D01*
X183850678Y-89597486D01*
X183850679Y-89597487D01*
X184008238Y-89702764D01*
X184142236Y-89836762D01*
X184217172Y-89948912D01*
X184247514Y-89994322D01*
X184320031Y-90169395D01*
X184357000Y-90355251D01*
X184357000Y-90544749D01*
X184320031Y-90730605D01*
X184247514Y-90905678D01*
X184247513Y-90905679D01*
X184142236Y-91063238D01*
X184008238Y-91197236D01*
X183882104Y-91281515D01*
X183850678Y-91302514D01*
X183726883Y-91353791D01*
X183675608Y-91375030D01*
X183675607Y-91375030D01*
X183675605Y-91375031D01*
X183489749Y-91412000D01*
X183300251Y-91412000D01*
X183114395Y-91375031D01*
X183114393Y-91375030D01*
X183114392Y-91375030D01*
X183063117Y-91353791D01*
X182939322Y-91302514D01*
X182907896Y-91281515D01*
X182781762Y-91197236D01*
X182647764Y-91063238D01*
X182542487Y-90905679D01*
X182542486Y-90905678D01*
X182469969Y-90730605D01*
X182433000Y-90544749D01*
X182433000Y-90355251D01*
X182469969Y-90169395D01*
X182542486Y-89994322D01*
X182572828Y-89948912D01*
X182647764Y-89836762D01*
X182781762Y-89702764D01*
X182939321Y-89597487D01*
X182939322Y-89597486D01*
X183063117Y-89546209D01*
X183114392Y-89524970D01*
X183114393Y-89524970D01*
X183114395Y-89524969D01*
X183300251Y-89488000D01*
X183489749Y-89488000D01*
X183675605Y-89524969D01*
G37*
G36*
X230925605Y-89524969D02*
G01*
X230925607Y-89524970D01*
X230925608Y-89524970D01*
X230976883Y-89546209D01*
X231100678Y-89597486D01*
X231100679Y-89597487D01*
X231258238Y-89702764D01*
X231392236Y-89836762D01*
X231467172Y-89948912D01*
X231497514Y-89994322D01*
X231570031Y-90169395D01*
X231607000Y-90355251D01*
X231607000Y-90544749D01*
X231570031Y-90730605D01*
X231497514Y-90905678D01*
X231497513Y-90905679D01*
X231392236Y-91063238D01*
X231258238Y-91197236D01*
X231132104Y-91281515D01*
X231100678Y-91302514D01*
X230976883Y-91353791D01*
X230925608Y-91375030D01*
X230925607Y-91375030D01*
X230925605Y-91375031D01*
X230739749Y-91412000D01*
X230550251Y-91412000D01*
X230364395Y-91375031D01*
X230364393Y-91375030D01*
X230364392Y-91375030D01*
X230313117Y-91353791D01*
X230189322Y-91302514D01*
X230157896Y-91281515D01*
X230031762Y-91197236D01*
X229897764Y-91063238D01*
X229792487Y-90905679D01*
X229792486Y-90905678D01*
X229719969Y-90730605D01*
X229683000Y-90544749D01*
X229683000Y-90355251D01*
X229719969Y-90169395D01*
X229792486Y-89994322D01*
X229822828Y-89948912D01*
X229897764Y-89836762D01*
X230031762Y-89702764D01*
X230189321Y-89597487D01*
X230189322Y-89597486D01*
X230313117Y-89546209D01*
X230364392Y-89524970D01*
X230364393Y-89524970D01*
X230364395Y-89524969D01*
X230550251Y-89488000D01*
X230739749Y-89488000D01*
X230925605Y-89524969D01*
G37*
G36*
X219675605Y-89524969D02*
G01*
X219675607Y-89524970D01*
X219675608Y-89524970D01*
X219726883Y-89546209D01*
X219850678Y-89597486D01*
X219850679Y-89597487D01*
X220008238Y-89702764D01*
X220142236Y-89836762D01*
X220217172Y-89948912D01*
X220247514Y-89994322D01*
X220320031Y-90169395D01*
X220357000Y-90355251D01*
X220357000Y-90544749D01*
X220320031Y-90730605D01*
X220247514Y-90905678D01*
X220247513Y-90905679D01*
X220142236Y-91063238D01*
X220008238Y-91197236D01*
X219882104Y-91281515D01*
X219850678Y-91302514D01*
X219726883Y-91353791D01*
X219675608Y-91375030D01*
X219675607Y-91375030D01*
X219675605Y-91375031D01*
X219489749Y-91412000D01*
X219300251Y-91412000D01*
X219114395Y-91375031D01*
X219114393Y-91375030D01*
X219114392Y-91375030D01*
X219063117Y-91353791D01*
X218939322Y-91302514D01*
X218907896Y-91281515D01*
X218781762Y-91197236D01*
X218647764Y-91063238D01*
X218542487Y-90905679D01*
X218542486Y-90905678D01*
X218469969Y-90730605D01*
X218433000Y-90544749D01*
X218433000Y-90355251D01*
X218469969Y-90169395D01*
X218542486Y-89994322D01*
X218572828Y-89948912D01*
X218647764Y-89836762D01*
X218781762Y-89702764D01*
X218939321Y-89597487D01*
X218939322Y-89597486D01*
X219063117Y-89546209D01*
X219114392Y-89524970D01*
X219114393Y-89524970D01*
X219114395Y-89524969D01*
X219300251Y-89488000D01*
X219489749Y-89488000D01*
X219675605Y-89524969D01*
G37*
G36*
X194925605Y-89524969D02*
G01*
X194925607Y-89524970D01*
X194925608Y-89524970D01*
X194976883Y-89546209D01*
X195100678Y-89597486D01*
X195100679Y-89597487D01*
X195258238Y-89702764D01*
X195392236Y-89836762D01*
X195467172Y-89948912D01*
X195497514Y-89994322D01*
X195570031Y-90169395D01*
X195607000Y-90355251D01*
X195607000Y-90544749D01*
X195570031Y-90730605D01*
X195497514Y-90905678D01*
X195497513Y-90905679D01*
X195392236Y-91063238D01*
X195258238Y-91197236D01*
X195132104Y-91281515D01*
X195100678Y-91302514D01*
X194976883Y-91353791D01*
X194925608Y-91375030D01*
X194925607Y-91375030D01*
X194925605Y-91375031D01*
X194739749Y-91412000D01*
X194550251Y-91412000D01*
X194364395Y-91375031D01*
X194364393Y-91375030D01*
X194364392Y-91375030D01*
X194313117Y-91353791D01*
X194189322Y-91302514D01*
X194157896Y-91281515D01*
X194031762Y-91197236D01*
X193897764Y-91063238D01*
X193792487Y-90905679D01*
X193792486Y-90905678D01*
X193719969Y-90730605D01*
X193683000Y-90544749D01*
X193683000Y-90355251D01*
X193719969Y-90169395D01*
X193792486Y-89994322D01*
X193822828Y-89948912D01*
X193897764Y-89836762D01*
X194031762Y-89702764D01*
X194189321Y-89597487D01*
X194189322Y-89597486D01*
X194313117Y-89546209D01*
X194364392Y-89524970D01*
X194364393Y-89524970D01*
X194364395Y-89524969D01*
X194550251Y-89488000D01*
X194739749Y-89488000D01*
X194925605Y-89524969D01*
G37*
G36*
X181938589Y-88845639D02*
G01*
X181988912Y-88860904D01*
X182035289Y-88885693D01*
X182075943Y-88919057D01*
X182109307Y-88959711D01*
X182134096Y-89006088D01*
X182149361Y-89056411D01*
X182155000Y-89113667D01*
X182155000Y-89841333D01*
X182149361Y-89898589D01*
X182134096Y-89948912D01*
X182109307Y-89995289D01*
X182075943Y-90035943D01*
X182035289Y-90069307D01*
X181988912Y-90094096D01*
X181938589Y-90109361D01*
X181881333Y-90115000D01*
X181078667Y-90115000D01*
X181021411Y-90109361D01*
X180971088Y-90094096D01*
X180924711Y-90069307D01*
X180884057Y-90035943D01*
X180850693Y-89995289D01*
X180825904Y-89948912D01*
X180810639Y-89898589D01*
X180805000Y-89841333D01*
X180805000Y-89113667D01*
X180810639Y-89056411D01*
X180825904Y-89006088D01*
X180850693Y-88959711D01*
X180884057Y-88919057D01*
X180924711Y-88885693D01*
X180971088Y-88860904D01*
X181021411Y-88845639D01*
X181078667Y-88840000D01*
X181881333Y-88840000D01*
X181938589Y-88845639D01*
G37*
G36*
X146938589Y-88845639D02*
G01*
X146988912Y-88860904D01*
X147035289Y-88885693D01*
X147075943Y-88919057D01*
X147109307Y-88959711D01*
X147134096Y-89006088D01*
X147149361Y-89056411D01*
X147155000Y-89113667D01*
X147155000Y-89841333D01*
X147149361Y-89898589D01*
X147134096Y-89948912D01*
X147109307Y-89995289D01*
X147075943Y-90035943D01*
X147035289Y-90069307D01*
X146988912Y-90094096D01*
X146938589Y-90109361D01*
X146881333Y-90115000D01*
X146078667Y-90115000D01*
X146021411Y-90109361D01*
X145971088Y-90094096D01*
X145924711Y-90069307D01*
X145884057Y-90035943D01*
X145850693Y-89995289D01*
X145825904Y-89948912D01*
X145810639Y-89898589D01*
X145805000Y-89841333D01*
X145805000Y-89113667D01*
X145810639Y-89056411D01*
X145825904Y-89006088D01*
X145850693Y-88959711D01*
X145884057Y-88919057D01*
X145924711Y-88885693D01*
X145971088Y-88860904D01*
X146021411Y-88845639D01*
X146078667Y-88840000D01*
X146881333Y-88840000D01*
X146938589Y-88845639D01*
G37*
G36*
X217938589Y-88845639D02*
G01*
X217988912Y-88860904D01*
X218035289Y-88885693D01*
X218075943Y-88919057D01*
X218109307Y-88959711D01*
X218134096Y-89006088D01*
X218149361Y-89056411D01*
X218155000Y-89113667D01*
X218155000Y-89841333D01*
X218149361Y-89898589D01*
X218134096Y-89948912D01*
X218109307Y-89995289D01*
X218075943Y-90035943D01*
X218035289Y-90069307D01*
X217988912Y-90094096D01*
X217938589Y-90109361D01*
X217881333Y-90115000D01*
X217078667Y-90115000D01*
X217021411Y-90109361D01*
X216971088Y-90094096D01*
X216924711Y-90069307D01*
X216884057Y-90035943D01*
X216850693Y-89995289D01*
X216825904Y-89948912D01*
X216810639Y-89898589D01*
X216805000Y-89841333D01*
X216805000Y-89113667D01*
X216810639Y-89056411D01*
X216825904Y-89006088D01*
X216850693Y-88959711D01*
X216884057Y-88919057D01*
X216924711Y-88885693D01*
X216971088Y-88860904D01*
X217021411Y-88845639D01*
X217078667Y-88840000D01*
X217881333Y-88840000D01*
X217938589Y-88845639D01*
G37*
G36*
X148675605Y-86984969D02*
G01*
X148675607Y-86984970D01*
X148675608Y-86984970D01*
X148726883Y-87006209D01*
X148850678Y-87057486D01*
X148850679Y-87057487D01*
X149008238Y-87162764D01*
X149142236Y-87296762D01*
X149183394Y-87358360D01*
X149247514Y-87454322D01*
X149320031Y-87629395D01*
X149357000Y-87815251D01*
X149357000Y-88004749D01*
X149320031Y-88190605D01*
X149247514Y-88365678D01*
X149247513Y-88365679D01*
X149142236Y-88523238D01*
X149008238Y-88657236D01*
X148882104Y-88741515D01*
X148850678Y-88762514D01*
X148726883Y-88813791D01*
X148675608Y-88835030D01*
X148675607Y-88835030D01*
X148675605Y-88835031D01*
X148489749Y-88872000D01*
X148300251Y-88872000D01*
X148114395Y-88835031D01*
X148114393Y-88835030D01*
X148114392Y-88835030D01*
X148063117Y-88813791D01*
X147939322Y-88762514D01*
X147907896Y-88741515D01*
X147781762Y-88657236D01*
X147647764Y-88523238D01*
X147542487Y-88365679D01*
X147542486Y-88365678D01*
X147469969Y-88190605D01*
X147433000Y-88004749D01*
X147433000Y-87815251D01*
X147469969Y-87629395D01*
X147542486Y-87454322D01*
X147606606Y-87358360D01*
X147647764Y-87296762D01*
X147781762Y-87162764D01*
X147939321Y-87057487D01*
X147939322Y-87057486D01*
X148063117Y-87006209D01*
X148114392Y-86984970D01*
X148114393Y-86984970D01*
X148114395Y-86984969D01*
X148300251Y-86948000D01*
X148489749Y-86948000D01*
X148675605Y-86984969D01*
G37*
G36*
X194925605Y-86984969D02*
G01*
X194925607Y-86984970D01*
X194925608Y-86984970D01*
X194976883Y-87006209D01*
X195100678Y-87057486D01*
X195100679Y-87057487D01*
X195258238Y-87162764D01*
X195392236Y-87296762D01*
X195433394Y-87358360D01*
X195497514Y-87454322D01*
X195570031Y-87629395D01*
X195607000Y-87815251D01*
X195607000Y-88004749D01*
X195570031Y-88190605D01*
X195497514Y-88365678D01*
X195497513Y-88365679D01*
X195392236Y-88523238D01*
X195258238Y-88657236D01*
X195132104Y-88741515D01*
X195100678Y-88762514D01*
X194976883Y-88813791D01*
X194925608Y-88835030D01*
X194925607Y-88835030D01*
X194925605Y-88835031D01*
X194739749Y-88872000D01*
X194550251Y-88872000D01*
X194364395Y-88835031D01*
X194364393Y-88835030D01*
X194364392Y-88835030D01*
X194313117Y-88813791D01*
X194189322Y-88762514D01*
X194157896Y-88741515D01*
X194031762Y-88657236D01*
X193897764Y-88523238D01*
X193792487Y-88365679D01*
X193792486Y-88365678D01*
X193719969Y-88190605D01*
X193683000Y-88004749D01*
X193683000Y-87815251D01*
X193719969Y-87629395D01*
X193792486Y-87454322D01*
X193856606Y-87358360D01*
X193897764Y-87296762D01*
X194031762Y-87162764D01*
X194189321Y-87057487D01*
X194189322Y-87057486D01*
X194313117Y-87006209D01*
X194364392Y-86984970D01*
X194364393Y-86984970D01*
X194364395Y-86984969D01*
X194550251Y-86948000D01*
X194739749Y-86948000D01*
X194925605Y-86984969D01*
G37*
G36*
X183675605Y-86984969D02*
G01*
X183675607Y-86984970D01*
X183675608Y-86984970D01*
X183726883Y-87006209D01*
X183850678Y-87057486D01*
X183850679Y-87057487D01*
X184008238Y-87162764D01*
X184142236Y-87296762D01*
X184183394Y-87358360D01*
X184247514Y-87454322D01*
X184320031Y-87629395D01*
X184357000Y-87815251D01*
X184357000Y-88004749D01*
X184320031Y-88190605D01*
X184247514Y-88365678D01*
X184247513Y-88365679D01*
X184142236Y-88523238D01*
X184008238Y-88657236D01*
X183882104Y-88741515D01*
X183850678Y-88762514D01*
X183726883Y-88813791D01*
X183675608Y-88835030D01*
X183675607Y-88835030D01*
X183675605Y-88835031D01*
X183489749Y-88872000D01*
X183300251Y-88872000D01*
X183114395Y-88835031D01*
X183114393Y-88835030D01*
X183114392Y-88835030D01*
X183063117Y-88813791D01*
X182939322Y-88762514D01*
X182907896Y-88741515D01*
X182781762Y-88657236D01*
X182647764Y-88523238D01*
X182542487Y-88365679D01*
X182542486Y-88365678D01*
X182469969Y-88190605D01*
X182433000Y-88004749D01*
X182433000Y-87815251D01*
X182469969Y-87629395D01*
X182542486Y-87454322D01*
X182606606Y-87358360D01*
X182647764Y-87296762D01*
X182781762Y-87162764D01*
X182939321Y-87057487D01*
X182939322Y-87057486D01*
X183063117Y-87006209D01*
X183114392Y-86984970D01*
X183114393Y-86984970D01*
X183114395Y-86984969D01*
X183300251Y-86948000D01*
X183489749Y-86948000D01*
X183675605Y-86984969D01*
G37*
G36*
X159925605Y-86984969D02*
G01*
X159925607Y-86984970D01*
X159925608Y-86984970D01*
X159976883Y-87006209D01*
X160100678Y-87057486D01*
X160100679Y-87057487D01*
X160258238Y-87162764D01*
X160392236Y-87296762D01*
X160433394Y-87358360D01*
X160497514Y-87454322D01*
X160570031Y-87629395D01*
X160607000Y-87815251D01*
X160607000Y-88004749D01*
X160570031Y-88190605D01*
X160497514Y-88365678D01*
X160497513Y-88365679D01*
X160392236Y-88523238D01*
X160258238Y-88657236D01*
X160132104Y-88741515D01*
X160100678Y-88762514D01*
X159976883Y-88813791D01*
X159925608Y-88835030D01*
X159925607Y-88835030D01*
X159925605Y-88835031D01*
X159739749Y-88872000D01*
X159550251Y-88872000D01*
X159364395Y-88835031D01*
X159364393Y-88835030D01*
X159364392Y-88835030D01*
X159313117Y-88813791D01*
X159189322Y-88762514D01*
X159157896Y-88741515D01*
X159031762Y-88657236D01*
X158897764Y-88523238D01*
X158792487Y-88365679D01*
X158792486Y-88365678D01*
X158719969Y-88190605D01*
X158683000Y-88004749D01*
X158683000Y-87815251D01*
X158719969Y-87629395D01*
X158792486Y-87454322D01*
X158856606Y-87358360D01*
X158897764Y-87296762D01*
X159031762Y-87162764D01*
X159189321Y-87057487D01*
X159189322Y-87057486D01*
X159313117Y-87006209D01*
X159364392Y-86984970D01*
X159364393Y-86984970D01*
X159364395Y-86984969D01*
X159550251Y-86948000D01*
X159739749Y-86948000D01*
X159925605Y-86984969D01*
G37*
G36*
X219675605Y-86984969D02*
G01*
X219675607Y-86984970D01*
X219675608Y-86984970D01*
X219726883Y-87006209D01*
X219850678Y-87057486D01*
X219850679Y-87057487D01*
X220008238Y-87162764D01*
X220142236Y-87296762D01*
X220183394Y-87358360D01*
X220247514Y-87454322D01*
X220320031Y-87629395D01*
X220357000Y-87815251D01*
X220357000Y-88004749D01*
X220320031Y-88190605D01*
X220247514Y-88365678D01*
X220247513Y-88365679D01*
X220142236Y-88523238D01*
X220008238Y-88657236D01*
X219882104Y-88741515D01*
X219850678Y-88762514D01*
X219726883Y-88813791D01*
X219675608Y-88835030D01*
X219675607Y-88835030D01*
X219675605Y-88835031D01*
X219489749Y-88872000D01*
X219300251Y-88872000D01*
X219114395Y-88835031D01*
X219114393Y-88835030D01*
X219114392Y-88835030D01*
X219063117Y-88813791D01*
X218939322Y-88762514D01*
X218907896Y-88741515D01*
X218781762Y-88657236D01*
X218647764Y-88523238D01*
X218542487Y-88365679D01*
X218542486Y-88365678D01*
X218469969Y-88190605D01*
X218433000Y-88004749D01*
X218433000Y-87815251D01*
X218469969Y-87629395D01*
X218542486Y-87454322D01*
X218606606Y-87358360D01*
X218647764Y-87296762D01*
X218781762Y-87162764D01*
X218939321Y-87057487D01*
X218939322Y-87057486D01*
X219063117Y-87006209D01*
X219114392Y-86984970D01*
X219114393Y-86984970D01*
X219114395Y-86984969D01*
X219300251Y-86948000D01*
X219489749Y-86948000D01*
X219675605Y-86984969D01*
G37*
G36*
X230925605Y-86984969D02*
G01*
X230925607Y-86984970D01*
X230925608Y-86984970D01*
X230976883Y-87006209D01*
X231100678Y-87057486D01*
X231100679Y-87057487D01*
X231258238Y-87162764D01*
X231392236Y-87296762D01*
X231433394Y-87358360D01*
X231497514Y-87454322D01*
X231570031Y-87629395D01*
X231607000Y-87815251D01*
X231607000Y-88004749D01*
X231570031Y-88190605D01*
X231497514Y-88365678D01*
X231497513Y-88365679D01*
X231392236Y-88523238D01*
X231258238Y-88657236D01*
X231132104Y-88741515D01*
X231100678Y-88762514D01*
X230976883Y-88813791D01*
X230925608Y-88835030D01*
X230925607Y-88835030D01*
X230925605Y-88835031D01*
X230739749Y-88872000D01*
X230550251Y-88872000D01*
X230364395Y-88835031D01*
X230364393Y-88835030D01*
X230364392Y-88835030D01*
X230313117Y-88813791D01*
X230189322Y-88762514D01*
X230157896Y-88741515D01*
X230031762Y-88657236D01*
X229897764Y-88523238D01*
X229792487Y-88365679D01*
X229792486Y-88365678D01*
X229719969Y-88190605D01*
X229683000Y-88004749D01*
X229683000Y-87815251D01*
X229719969Y-87629395D01*
X229792486Y-87454322D01*
X229856606Y-87358360D01*
X229897764Y-87296762D01*
X230031762Y-87162764D01*
X230189321Y-87057487D01*
X230189322Y-87057486D01*
X230313117Y-87006209D01*
X230364392Y-86984970D01*
X230364393Y-86984970D01*
X230364395Y-86984969D01*
X230550251Y-86948000D01*
X230739749Y-86948000D01*
X230925605Y-86984969D01*
G37*
G36*
X217938589Y-87270639D02*
G01*
X217988912Y-87285904D01*
X218035289Y-87310693D01*
X218075943Y-87344057D01*
X218109307Y-87384711D01*
X218134096Y-87431088D01*
X218149361Y-87481411D01*
X218155000Y-87538667D01*
X218155000Y-88266333D01*
X218149361Y-88323589D01*
X218134096Y-88373912D01*
X218109307Y-88420289D01*
X218075943Y-88460943D01*
X218035289Y-88494307D01*
X217988912Y-88519096D01*
X217938589Y-88534361D01*
X217881333Y-88540000D01*
X217078667Y-88540000D01*
X217021411Y-88534361D01*
X216971088Y-88519096D01*
X216924711Y-88494307D01*
X216884057Y-88460943D01*
X216850693Y-88420289D01*
X216825904Y-88373912D01*
X216810639Y-88323589D01*
X216805000Y-88266333D01*
X216805000Y-87538667D01*
X216810639Y-87481411D01*
X216825904Y-87431088D01*
X216850693Y-87384711D01*
X216884057Y-87344057D01*
X216924711Y-87310693D01*
X216971088Y-87285904D01*
X217021411Y-87270639D01*
X217078667Y-87265000D01*
X217881333Y-87265000D01*
X217938589Y-87270639D01*
G37*
G36*
X146938589Y-87270639D02*
G01*
X146988912Y-87285904D01*
X147035289Y-87310693D01*
X147075943Y-87344057D01*
X147109307Y-87384711D01*
X147134096Y-87431088D01*
X147149361Y-87481411D01*
X147155000Y-87538667D01*
X147155000Y-88266333D01*
X147149361Y-88323589D01*
X147134096Y-88373912D01*
X147109307Y-88420289D01*
X147075943Y-88460943D01*
X147035289Y-88494307D01*
X146988912Y-88519096D01*
X146938589Y-88534361D01*
X146881333Y-88540000D01*
X146078667Y-88540000D01*
X146021411Y-88534361D01*
X145971088Y-88519096D01*
X145924711Y-88494307D01*
X145884057Y-88460943D01*
X145850693Y-88420289D01*
X145825904Y-88373912D01*
X145810639Y-88323589D01*
X145805000Y-88266333D01*
X145805000Y-87538667D01*
X145810639Y-87481411D01*
X145825904Y-87431088D01*
X145850693Y-87384711D01*
X145884057Y-87344057D01*
X145924711Y-87310693D01*
X145971088Y-87285904D01*
X146021411Y-87270639D01*
X146078667Y-87265000D01*
X146881333Y-87265000D01*
X146938589Y-87270639D01*
G37*
G36*
X181938589Y-87270639D02*
G01*
X181988912Y-87285904D01*
X182035289Y-87310693D01*
X182075943Y-87344057D01*
X182109307Y-87384711D01*
X182134096Y-87431088D01*
X182149361Y-87481411D01*
X182155000Y-87538667D01*
X182155000Y-88266333D01*
X182149361Y-88323589D01*
X182134096Y-88373912D01*
X182109307Y-88420289D01*
X182075943Y-88460943D01*
X182035289Y-88494307D01*
X181988912Y-88519096D01*
X181938589Y-88534361D01*
X181881333Y-88540000D01*
X181078667Y-88540000D01*
X181021411Y-88534361D01*
X180971088Y-88519096D01*
X180924711Y-88494307D01*
X180884057Y-88460943D01*
X180850693Y-88420289D01*
X180825904Y-88373912D01*
X180810639Y-88323589D01*
X180805000Y-88266333D01*
X180805000Y-87538667D01*
X180810639Y-87481411D01*
X180825904Y-87431088D01*
X180850693Y-87384711D01*
X180884057Y-87344057D01*
X180924711Y-87310693D01*
X180971088Y-87285904D01*
X181021411Y-87270639D01*
X181078667Y-87265000D01*
X181881333Y-87265000D01*
X181938589Y-87270639D01*
G37*
G36*
X187651089Y-87100639D02*
G01*
X187701412Y-87115904D01*
X187747789Y-87140693D01*
X187788443Y-87174057D01*
X187821807Y-87214711D01*
X187846596Y-87261088D01*
X187861861Y-87311411D01*
X187867500Y-87368667D01*
X187867500Y-88171333D01*
X187861861Y-88228589D01*
X187846596Y-88278912D01*
X187821807Y-88325289D01*
X187788443Y-88365943D01*
X187747789Y-88399307D01*
X187701412Y-88424096D01*
X187651089Y-88439361D01*
X187593833Y-88445000D01*
X186866167Y-88445000D01*
X186808911Y-88439361D01*
X186758588Y-88424096D01*
X186712211Y-88399307D01*
X186671557Y-88365943D01*
X186638193Y-88325289D01*
X186613404Y-88278912D01*
X186598139Y-88228589D01*
X186592500Y-88171333D01*
X186592500Y-87368667D01*
X186598139Y-87311411D01*
X186613404Y-87261088D01*
X186638193Y-87214711D01*
X186671557Y-87174057D01*
X186712211Y-87140693D01*
X186758588Y-87115904D01*
X186808911Y-87100639D01*
X186866167Y-87095000D01*
X187593833Y-87095000D01*
X187651089Y-87100639D01*
G37*
G36*
X154226089Y-87100639D02*
G01*
X154276412Y-87115904D01*
X154322789Y-87140693D01*
X154363443Y-87174057D01*
X154396807Y-87214711D01*
X154421596Y-87261088D01*
X154436861Y-87311411D01*
X154442500Y-87368667D01*
X154442500Y-88171333D01*
X154436861Y-88228589D01*
X154421596Y-88278912D01*
X154396807Y-88325289D01*
X154363443Y-88365943D01*
X154322789Y-88399307D01*
X154276412Y-88424096D01*
X154226089Y-88439361D01*
X154168833Y-88445000D01*
X153441167Y-88445000D01*
X153383911Y-88439361D01*
X153333588Y-88424096D01*
X153287211Y-88399307D01*
X153246557Y-88365943D01*
X153213193Y-88325289D01*
X153188404Y-88278912D01*
X153173139Y-88228589D01*
X153167500Y-88171333D01*
X153167500Y-87368667D01*
X153173139Y-87311411D01*
X153188404Y-87261088D01*
X153213193Y-87214711D01*
X153246557Y-87174057D01*
X153287211Y-87140693D01*
X153333588Y-87115904D01*
X153383911Y-87100639D01*
X153441167Y-87095000D01*
X154168833Y-87095000D01*
X154226089Y-87100639D01*
G37*
G36*
X152651089Y-87100639D02*
G01*
X152701412Y-87115904D01*
X152747789Y-87140693D01*
X152788443Y-87174057D01*
X152821807Y-87214711D01*
X152846596Y-87261088D01*
X152861861Y-87311411D01*
X152867500Y-87368667D01*
X152867500Y-88171333D01*
X152861861Y-88228589D01*
X152846596Y-88278912D01*
X152821807Y-88325289D01*
X152788443Y-88365943D01*
X152747789Y-88399307D01*
X152701412Y-88424096D01*
X152651089Y-88439361D01*
X152593833Y-88445000D01*
X151866167Y-88445000D01*
X151808911Y-88439361D01*
X151758588Y-88424096D01*
X151712211Y-88399307D01*
X151671557Y-88365943D01*
X151638193Y-88325289D01*
X151613404Y-88278912D01*
X151598139Y-88228589D01*
X151592500Y-88171333D01*
X151592500Y-87368667D01*
X151598139Y-87311411D01*
X151613404Y-87261088D01*
X151638193Y-87214711D01*
X151671557Y-87174057D01*
X151712211Y-87140693D01*
X151758588Y-87115904D01*
X151808911Y-87100639D01*
X151866167Y-87095000D01*
X152593833Y-87095000D01*
X152651089Y-87100639D01*
G37*
G36*
X225226089Y-87100639D02*
G01*
X225276412Y-87115904D01*
X225322789Y-87140693D01*
X225363443Y-87174057D01*
X225396807Y-87214711D01*
X225421596Y-87261088D01*
X225436861Y-87311411D01*
X225442500Y-87368667D01*
X225442500Y-88171333D01*
X225436861Y-88228589D01*
X225421596Y-88278912D01*
X225396807Y-88325289D01*
X225363443Y-88365943D01*
X225322789Y-88399307D01*
X225276412Y-88424096D01*
X225226089Y-88439361D01*
X225168833Y-88445000D01*
X224441167Y-88445000D01*
X224383911Y-88439361D01*
X224333588Y-88424096D01*
X224287211Y-88399307D01*
X224246557Y-88365943D01*
X224213193Y-88325289D01*
X224188404Y-88278912D01*
X224173139Y-88228589D01*
X224167500Y-88171333D01*
X224167500Y-87368667D01*
X224173139Y-87311411D01*
X224188404Y-87261088D01*
X224213193Y-87214711D01*
X224246557Y-87174057D01*
X224287211Y-87140693D01*
X224333588Y-87115904D01*
X224383911Y-87100639D01*
X224441167Y-87095000D01*
X225168833Y-87095000D01*
X225226089Y-87100639D01*
G37*
G36*
X189226089Y-87100639D02*
G01*
X189276412Y-87115904D01*
X189322789Y-87140693D01*
X189363443Y-87174057D01*
X189396807Y-87214711D01*
X189421596Y-87261088D01*
X189436861Y-87311411D01*
X189442500Y-87368667D01*
X189442500Y-88171333D01*
X189436861Y-88228589D01*
X189421596Y-88278912D01*
X189396807Y-88325289D01*
X189363443Y-88365943D01*
X189322789Y-88399307D01*
X189276412Y-88424096D01*
X189226089Y-88439361D01*
X189168833Y-88445000D01*
X188441167Y-88445000D01*
X188383911Y-88439361D01*
X188333588Y-88424096D01*
X188287211Y-88399307D01*
X188246557Y-88365943D01*
X188213193Y-88325289D01*
X188188404Y-88278912D01*
X188173139Y-88228589D01*
X188167500Y-88171333D01*
X188167500Y-87368667D01*
X188173139Y-87311411D01*
X188188404Y-87261088D01*
X188213193Y-87214711D01*
X188246557Y-87174057D01*
X188287211Y-87140693D01*
X188333588Y-87115904D01*
X188383911Y-87100639D01*
X188441167Y-87095000D01*
X189168833Y-87095000D01*
X189226089Y-87100639D01*
G37*
G36*
X223651089Y-87100639D02*
G01*
X223701412Y-87115904D01*
X223747789Y-87140693D01*
X223788443Y-87174057D01*
X223821807Y-87214711D01*
X223846596Y-87261088D01*
X223861861Y-87311411D01*
X223867500Y-87368667D01*
X223867500Y-88171333D01*
X223861861Y-88228589D01*
X223846596Y-88278912D01*
X223821807Y-88325289D01*
X223788443Y-88365943D01*
X223747789Y-88399307D01*
X223701412Y-88424096D01*
X223651089Y-88439361D01*
X223593833Y-88445000D01*
X222866167Y-88445000D01*
X222808911Y-88439361D01*
X222758588Y-88424096D01*
X222712211Y-88399307D01*
X222671557Y-88365943D01*
X222638193Y-88325289D01*
X222613404Y-88278912D01*
X222598139Y-88228589D01*
X222592500Y-88171333D01*
X222592500Y-87368667D01*
X222598139Y-87311411D01*
X222613404Y-87261088D01*
X222638193Y-87214711D01*
X222671557Y-87174057D01*
X222712211Y-87140693D01*
X222758588Y-87115904D01*
X222808911Y-87100639D01*
X222866167Y-87095000D01*
X223593833Y-87095000D01*
X223651089Y-87100639D01*
G37*
G36*
X157368589Y-87090639D02*
G01*
X157418912Y-87105904D01*
X157465289Y-87130693D01*
X157505943Y-87164057D01*
X157539307Y-87204711D01*
X157564096Y-87251088D01*
X157579361Y-87301411D01*
X157585000Y-87358667D01*
X157585000Y-88161333D01*
X157579361Y-88218589D01*
X157564096Y-88268912D01*
X157539307Y-88315289D01*
X157505943Y-88355943D01*
X157465289Y-88389307D01*
X157418912Y-88414096D01*
X157368589Y-88429361D01*
X157311333Y-88435000D01*
X156583667Y-88435000D01*
X156526411Y-88429361D01*
X156476088Y-88414096D01*
X156429711Y-88389307D01*
X156389057Y-88355943D01*
X156355693Y-88315289D01*
X156330904Y-88268912D01*
X156315639Y-88218589D01*
X156310000Y-88161333D01*
X156310000Y-87358667D01*
X156315639Y-87301411D01*
X156330904Y-87251088D01*
X156355693Y-87204711D01*
X156389057Y-87164057D01*
X156429711Y-87130693D01*
X156476088Y-87105904D01*
X156526411Y-87090639D01*
X156583667Y-87085000D01*
X157311333Y-87085000D01*
X157368589Y-87090639D01*
G37*
G36*
X155793589Y-87090639D02*
G01*
X155843912Y-87105904D01*
X155890289Y-87130693D01*
X155930943Y-87164057D01*
X155964307Y-87204711D01*
X155989096Y-87251088D01*
X156004361Y-87301411D01*
X156010000Y-87358667D01*
X156010000Y-88161333D01*
X156004361Y-88218589D01*
X155989096Y-88268912D01*
X155964307Y-88315289D01*
X155930943Y-88355943D01*
X155890289Y-88389307D01*
X155843912Y-88414096D01*
X155793589Y-88429361D01*
X155736333Y-88435000D01*
X155008667Y-88435000D01*
X154951411Y-88429361D01*
X154901088Y-88414096D01*
X154854711Y-88389307D01*
X154814057Y-88355943D01*
X154780693Y-88315289D01*
X154755904Y-88268912D01*
X154740639Y-88218589D01*
X154735000Y-88161333D01*
X154735000Y-87358667D01*
X154740639Y-87301411D01*
X154755904Y-87251088D01*
X154780693Y-87204711D01*
X154814057Y-87164057D01*
X154854711Y-87130693D01*
X154901088Y-87105904D01*
X154951411Y-87090639D01*
X155008667Y-87085000D01*
X155736333Y-87085000D01*
X155793589Y-87090639D01*
G37*
G36*
X228368589Y-87090639D02*
G01*
X228418912Y-87105904D01*
X228465289Y-87130693D01*
X228505943Y-87164057D01*
X228539307Y-87204711D01*
X228564096Y-87251088D01*
X228579361Y-87301411D01*
X228585000Y-87358667D01*
X228585000Y-88161333D01*
X228579361Y-88218589D01*
X228564096Y-88268912D01*
X228539307Y-88315289D01*
X228505943Y-88355943D01*
X228465289Y-88389307D01*
X228418912Y-88414096D01*
X228368589Y-88429361D01*
X228311333Y-88435000D01*
X227583667Y-88435000D01*
X227526411Y-88429361D01*
X227476088Y-88414096D01*
X227429711Y-88389307D01*
X227389057Y-88355943D01*
X227355693Y-88315289D01*
X227330904Y-88268912D01*
X227315639Y-88218589D01*
X227310000Y-88161333D01*
X227310000Y-87358667D01*
X227315639Y-87301411D01*
X227330904Y-87251088D01*
X227355693Y-87204711D01*
X227389057Y-87164057D01*
X227429711Y-87130693D01*
X227476088Y-87105904D01*
X227526411Y-87090639D01*
X227583667Y-87085000D01*
X228311333Y-87085000D01*
X228368589Y-87090639D01*
G37*
G36*
X226793589Y-87090639D02*
G01*
X226843912Y-87105904D01*
X226890289Y-87130693D01*
X226930943Y-87164057D01*
X226964307Y-87204711D01*
X226989096Y-87251088D01*
X227004361Y-87301411D01*
X227010000Y-87358667D01*
X227010000Y-88161333D01*
X227004361Y-88218589D01*
X226989096Y-88268912D01*
X226964307Y-88315289D01*
X226930943Y-88355943D01*
X226890289Y-88389307D01*
X226843912Y-88414096D01*
X226793589Y-88429361D01*
X226736333Y-88435000D01*
X226008667Y-88435000D01*
X225951411Y-88429361D01*
X225901088Y-88414096D01*
X225854711Y-88389307D01*
X225814057Y-88355943D01*
X225780693Y-88315289D01*
X225755904Y-88268912D01*
X225740639Y-88218589D01*
X225735000Y-88161333D01*
X225735000Y-87358667D01*
X225740639Y-87301411D01*
X225755904Y-87251088D01*
X225780693Y-87204711D01*
X225814057Y-87164057D01*
X225854711Y-87130693D01*
X225901088Y-87105904D01*
X225951411Y-87090639D01*
X226008667Y-87085000D01*
X226736333Y-87085000D01*
X226793589Y-87090639D01*
G37*
G36*
X192368589Y-87090639D02*
G01*
X192418912Y-87105904D01*
X192465289Y-87130693D01*
X192505943Y-87164057D01*
X192539307Y-87204711D01*
X192564096Y-87251088D01*
X192579361Y-87301411D01*
X192585000Y-87358667D01*
X192585000Y-88161333D01*
X192579361Y-88218589D01*
X192564096Y-88268912D01*
X192539307Y-88315289D01*
X192505943Y-88355943D01*
X192465289Y-88389307D01*
X192418912Y-88414096D01*
X192368589Y-88429361D01*
X192311333Y-88435000D01*
X191583667Y-88435000D01*
X191526411Y-88429361D01*
X191476088Y-88414096D01*
X191429711Y-88389307D01*
X191389057Y-88355943D01*
X191355693Y-88315289D01*
X191330904Y-88268912D01*
X191315639Y-88218589D01*
X191310000Y-88161333D01*
X191310000Y-87358667D01*
X191315639Y-87301411D01*
X191330904Y-87251088D01*
X191355693Y-87204711D01*
X191389057Y-87164057D01*
X191429711Y-87130693D01*
X191476088Y-87105904D01*
X191526411Y-87090639D01*
X191583667Y-87085000D01*
X192311333Y-87085000D01*
X192368589Y-87090639D01*
G37*
G36*
X190793589Y-87090639D02*
G01*
X190843912Y-87105904D01*
X190890289Y-87130693D01*
X190930943Y-87164057D01*
X190964307Y-87204711D01*
X190989096Y-87251088D01*
X191004361Y-87301411D01*
X191010000Y-87358667D01*
X191010000Y-88161333D01*
X191004361Y-88218589D01*
X190989096Y-88268912D01*
X190964307Y-88315289D01*
X190930943Y-88355943D01*
X190890289Y-88389307D01*
X190843912Y-88414096D01*
X190793589Y-88429361D01*
X190736333Y-88435000D01*
X190008667Y-88435000D01*
X189951411Y-88429361D01*
X189901088Y-88414096D01*
X189854711Y-88389307D01*
X189814057Y-88355943D01*
X189780693Y-88315289D01*
X189755904Y-88268912D01*
X189740639Y-88218589D01*
X189735000Y-88161333D01*
X189735000Y-87358667D01*
X189740639Y-87301411D01*
X189755904Y-87251088D01*
X189780693Y-87204711D01*
X189814057Y-87164057D01*
X189854711Y-87130693D01*
X189901088Y-87105904D01*
X189951411Y-87090639D01*
X190008667Y-87085000D01*
X190736333Y-87085000D01*
X190793589Y-87090639D01*
G37*
G36*
X186400000Y-84300000D02*
G01*
X185000000Y-84300000D01*
X185000000Y-80750000D01*
X186400000Y-80750000D01*
X186400000Y-84300000D01*
G37*
G36*
X151400000Y-84300000D02*
G01*
X150000000Y-84300000D01*
X150000000Y-80750000D01*
X151400000Y-80750000D01*
X151400000Y-84300000D01*
G37*
G36*
X153940000Y-84300000D02*
G01*
X152540000Y-84300000D01*
X152540000Y-80750000D01*
X153940000Y-80750000D01*
X153940000Y-84300000D01*
G37*
G36*
X222400000Y-84300000D02*
G01*
X221000000Y-84300000D01*
X221000000Y-80750000D01*
X222400000Y-80750000D01*
X222400000Y-84300000D01*
G37*
G36*
X227480000Y-84300000D02*
G01*
X226080000Y-84300000D01*
X226080000Y-80750000D01*
X227480000Y-80750000D01*
X227480000Y-84300000D01*
G37*
G36*
X230020000Y-84300000D02*
G01*
X228620000Y-84300000D01*
X228620000Y-80750000D01*
X230020000Y-80750000D01*
X230020000Y-84300000D01*
G37*
G36*
X156480000Y-84300000D02*
G01*
X155080000Y-84300000D01*
X155080000Y-80750000D01*
X156480000Y-80750000D01*
X156480000Y-84300000D01*
G37*
G36*
X159020000Y-84300000D02*
G01*
X157620000Y-84300000D01*
X157620000Y-80750000D01*
X159020000Y-80750000D01*
X159020000Y-84300000D01*
G37*
G36*
X188940000Y-84300000D02*
G01*
X187540000Y-84300000D01*
X187540000Y-80750000D01*
X188940000Y-80750000D01*
X188940000Y-84300000D01*
G37*
G36*
X191480000Y-84300000D02*
G01*
X190080000Y-84300000D01*
X190080000Y-80750000D01*
X191480000Y-80750000D01*
X191480000Y-84300000D01*
G37*
G36*
X194020000Y-84300000D02*
G01*
X192620000Y-84300000D01*
X192620000Y-80750000D01*
X194020000Y-80750000D01*
X194020000Y-84300000D01*
G37*
G36*
X224940000Y-84300000D02*
G01*
X223540000Y-84300000D01*
X223540000Y-80750000D01*
X224940000Y-80750000D01*
X224940000Y-84300000D01*
G37*
G36*
X156480000Y-79250000D02*
G01*
X155080000Y-79250000D01*
X155080000Y-75700000D01*
X156480000Y-75700000D01*
X156480000Y-79250000D01*
G37*
G36*
X230020000Y-79250000D02*
G01*
X228620000Y-79250000D01*
X228620000Y-75700000D01*
X230020000Y-75700000D01*
X230020000Y-79250000D01*
G37*
G36*
X227480000Y-79250000D02*
G01*
X226080000Y-79250000D01*
X226080000Y-75700000D01*
X227480000Y-75700000D01*
X227480000Y-79250000D01*
G37*
G36*
X224940000Y-79250000D02*
G01*
X223540000Y-79250000D01*
X223540000Y-75700000D01*
X224940000Y-75700000D01*
X224940000Y-79250000D01*
G37*
G36*
X222400000Y-79250000D02*
G01*
X221000000Y-79250000D01*
X221000000Y-75700000D01*
X222400000Y-75700000D01*
X222400000Y-79250000D01*
G37*
G36*
X151400000Y-79250000D02*
G01*
X150000000Y-79250000D01*
X150000000Y-75700000D01*
X151400000Y-75700000D01*
X151400000Y-79250000D01*
G37*
G36*
X191480000Y-79250000D02*
G01*
X190080000Y-79250000D01*
X190080000Y-75700000D01*
X191480000Y-75700000D01*
X191480000Y-79250000D01*
G37*
G36*
X188940000Y-79250000D02*
G01*
X187540000Y-79250000D01*
X187540000Y-75700000D01*
X188940000Y-75700000D01*
X188940000Y-79250000D01*
G37*
G36*
X186400000Y-79250000D02*
G01*
X185000000Y-79250000D01*
X185000000Y-75700000D01*
X186400000Y-75700000D01*
X186400000Y-79250000D01*
G37*
G36*
X153940000Y-79250000D02*
G01*
X152540000Y-79250000D01*
X152540000Y-75700000D01*
X153940000Y-75700000D01*
X153940000Y-79250000D01*
G37*
G36*
X159020000Y-79250000D02*
G01*
X157620000Y-79250000D01*
X157620000Y-75700000D01*
X159020000Y-75700000D01*
X159020000Y-79250000D01*
G37*
G36*
X194020000Y-79250000D02*
G01*
X192620000Y-79250000D01*
X192620000Y-75700000D01*
X194020000Y-75700000D01*
X194020000Y-79250000D01*
G37*
G36*
X233820000Y-69300000D02*
G01*
X232420000Y-69300000D01*
X232420000Y-65750000D01*
X233820000Y-65750000D01*
X233820000Y-69300000D01*
G37*
G36*
X231280000Y-69300000D02*
G01*
X229880000Y-69300000D01*
X229880000Y-65750000D01*
X231280000Y-65750000D01*
X231280000Y-69300000D01*
G37*
G36*
X228740000Y-69300000D02*
G01*
X227340000Y-69300000D01*
X227340000Y-65750000D01*
X228740000Y-65750000D01*
X228740000Y-69300000D01*
G37*
G36*
X223660000Y-69300000D02*
G01*
X222260000Y-69300000D01*
X222260000Y-65750000D01*
X223660000Y-65750000D01*
X223660000Y-69300000D01*
G37*
G36*
X226200000Y-69300000D02*
G01*
X224800000Y-69300000D01*
X224800000Y-65750000D01*
X226200000Y-65750000D01*
X226200000Y-69300000D01*
G37*
G36*
X162820000Y-69300000D02*
G01*
X161420000Y-69300000D01*
X161420000Y-65750000D01*
X162820000Y-65750000D01*
X162820000Y-69300000D01*
G37*
G36*
X185120000Y-69300000D02*
G01*
X183720000Y-69300000D01*
X183720000Y-65750000D01*
X185120000Y-65750000D01*
X185120000Y-69300000D01*
G37*
G36*
X187660000Y-69300000D02*
G01*
X186260000Y-69300000D01*
X186260000Y-65750000D01*
X187660000Y-65750000D01*
X187660000Y-69300000D01*
G37*
G36*
X190200000Y-69300000D02*
G01*
X188800000Y-69300000D01*
X188800000Y-65750000D01*
X190200000Y-65750000D01*
X190200000Y-69300000D01*
G37*
G36*
X192740000Y-69300000D02*
G01*
X191340000Y-69300000D01*
X191340000Y-65750000D01*
X192740000Y-65750000D01*
X192740000Y-69300000D01*
G37*
G36*
X197820000Y-69300000D02*
G01*
X196420000Y-69300000D01*
X196420000Y-65750000D01*
X197820000Y-65750000D01*
X197820000Y-69300000D01*
G37*
G36*
X195280000Y-69300000D02*
G01*
X193880000Y-69300000D01*
X193880000Y-65750000D01*
X195280000Y-65750000D01*
X195280000Y-69300000D01*
G37*
G36*
X221120000Y-69300000D02*
G01*
X219720000Y-69300000D01*
X219720000Y-65750000D01*
X221120000Y-65750000D01*
X221120000Y-69300000D01*
G37*
G36*
X152660000Y-69300000D02*
G01*
X151260000Y-69300000D01*
X151260000Y-65750000D01*
X152660000Y-65750000D01*
X152660000Y-69300000D01*
G37*
G36*
X147580000Y-69300000D02*
G01*
X146180000Y-69300000D01*
X146180000Y-65750000D01*
X147580000Y-65750000D01*
X147580000Y-69300000D01*
G37*
G36*
X218580000Y-69300000D02*
G01*
X217180000Y-69300000D01*
X217180000Y-65750000D01*
X218580000Y-65750000D01*
X218580000Y-69300000D01*
G37*
G36*
X150120000Y-69300000D02*
G01*
X148720000Y-69300000D01*
X148720000Y-65750000D01*
X150120000Y-65750000D01*
X150120000Y-69300000D01*
G37*
G36*
X182580000Y-69300000D02*
G01*
X181180000Y-69300000D01*
X181180000Y-65750000D01*
X182580000Y-65750000D01*
X182580000Y-69300000D01*
G37*
G36*
X155200000Y-69300000D02*
G01*
X153800000Y-69300000D01*
X153800000Y-65750000D01*
X155200000Y-65750000D01*
X155200000Y-69300000D01*
G37*
G36*
X157740000Y-69300000D02*
G01*
X156340000Y-69300000D01*
X156340000Y-65750000D01*
X157740000Y-65750000D01*
X157740000Y-69300000D01*
G37*
G36*
X160280000Y-69300000D02*
G01*
X158880000Y-69300000D01*
X158880000Y-65750000D01*
X160280000Y-65750000D01*
X160280000Y-69300000D01*
G37*
G36*
X226200000Y-64250000D02*
G01*
X224800000Y-64250000D01*
X224800000Y-60700000D01*
X226200000Y-60700000D01*
X226200000Y-64250000D01*
G37*
G36*
X150120000Y-64250000D02*
G01*
X148720000Y-64250000D01*
X148720000Y-60700000D01*
X150120000Y-60700000D01*
X150120000Y-64250000D01*
G37*
G36*
X147580000Y-64250000D02*
G01*
X146180000Y-64250000D01*
X146180000Y-60700000D01*
X147580000Y-60700000D01*
X147580000Y-64250000D01*
G37*
G36*
X155200000Y-64250000D02*
G01*
X153800000Y-64250000D01*
X153800000Y-60700000D01*
X155200000Y-60700000D01*
X155200000Y-64250000D01*
G37*
G36*
X157740000Y-64250000D02*
G01*
X156340000Y-64250000D01*
X156340000Y-60700000D01*
X157740000Y-60700000D01*
X157740000Y-64250000D01*
G37*
G36*
X160280000Y-64250000D02*
G01*
X158880000Y-64250000D01*
X158880000Y-60700000D01*
X160280000Y-60700000D01*
X160280000Y-64250000D01*
G37*
G36*
X162820000Y-64250000D02*
G01*
X161420000Y-64250000D01*
X161420000Y-60700000D01*
X162820000Y-60700000D01*
X162820000Y-64250000D01*
G37*
G36*
X218580000Y-64250000D02*
G01*
X217180000Y-64250000D01*
X217180000Y-60700000D01*
X218580000Y-60700000D01*
X218580000Y-64250000D01*
G37*
G36*
X221120000Y-64250000D02*
G01*
X219720000Y-64250000D01*
X219720000Y-60700000D01*
X221120000Y-60700000D01*
X221120000Y-64250000D01*
G37*
G36*
X223660000Y-64250000D02*
G01*
X222260000Y-64250000D01*
X222260000Y-60700000D01*
X223660000Y-60700000D01*
X223660000Y-64250000D01*
G37*
G36*
X228740000Y-64250000D02*
G01*
X227340000Y-64250000D01*
X227340000Y-60700000D01*
X228740000Y-60700000D01*
X228740000Y-64250000D01*
G37*
G36*
X190200000Y-64250000D02*
G01*
X188800000Y-64250000D01*
X188800000Y-60700000D01*
X190200000Y-60700000D01*
X190200000Y-64250000D01*
G37*
G36*
X192740000Y-64250000D02*
G01*
X191340000Y-64250000D01*
X191340000Y-60700000D01*
X192740000Y-60700000D01*
X192740000Y-64250000D01*
G37*
G36*
X187660000Y-64250000D02*
G01*
X186260000Y-64250000D01*
X186260000Y-60700000D01*
X187660000Y-60700000D01*
X187660000Y-64250000D01*
G37*
G36*
X195280000Y-64250000D02*
G01*
X193880000Y-64250000D01*
X193880000Y-60700000D01*
X195280000Y-60700000D01*
X195280000Y-64250000D01*
G37*
G36*
X185120000Y-64250000D02*
G01*
X183720000Y-64250000D01*
X183720000Y-60700000D01*
X185120000Y-60700000D01*
X185120000Y-64250000D01*
G37*
G36*
X152660000Y-64250000D02*
G01*
X151260000Y-64250000D01*
X151260000Y-60700000D01*
X152660000Y-60700000D01*
X152660000Y-64250000D01*
G37*
G36*
X197820000Y-64250000D02*
G01*
X196420000Y-64250000D01*
X196420000Y-60700000D01*
X197820000Y-60700000D01*
X197820000Y-64250000D01*
G37*
G36*
X233820000Y-64250000D02*
G01*
X232420000Y-64250000D01*
X232420000Y-60700000D01*
X233820000Y-60700000D01*
X233820000Y-64250000D01*
G37*
G36*
X182580000Y-64250000D02*
G01*
X181180000Y-64250000D01*
X181180000Y-60700000D01*
X182580000Y-60700000D01*
X182580000Y-64250000D01*
G37*
G36*
X231280000Y-64250000D02*
G01*
X229880000Y-64250000D01*
X229880000Y-60700000D01*
X231280000Y-60700000D01*
X231280000Y-64250000D01*
G37*
G36*
X149055605Y-57774969D02*
G01*
X149055607Y-57774970D01*
X149055608Y-57774970D01*
X149106883Y-57796209D01*
X149230678Y-57847486D01*
X149230679Y-57847487D01*
X149388238Y-57952764D01*
X149522236Y-58086762D01*
X149593954Y-58194096D01*
X149627514Y-58244322D01*
X149630171Y-58250737D01*
X149698224Y-58415031D01*
X149700031Y-58419395D01*
X149737000Y-58605251D01*
X149737000Y-58794749D01*
X149700031Y-58980605D01*
X149627514Y-59155678D01*
X149627513Y-59155679D01*
X149522236Y-59313238D01*
X149388238Y-59447236D01*
X149262104Y-59531515D01*
X149230678Y-59552514D01*
X149106883Y-59603791D01*
X149055608Y-59625030D01*
X149055607Y-59625030D01*
X149055605Y-59625031D01*
X148869749Y-59662000D01*
X148680251Y-59662000D01*
X148494395Y-59625031D01*
X148494393Y-59625030D01*
X148494392Y-59625030D01*
X148443117Y-59603791D01*
X148319322Y-59552514D01*
X148287896Y-59531515D01*
X148161762Y-59447236D01*
X148027764Y-59313238D01*
X147922487Y-59155679D01*
X147922486Y-59155678D01*
X147849969Y-58980605D01*
X147813000Y-58794749D01*
X147813000Y-58605251D01*
X147849969Y-58419395D01*
X147851777Y-58415031D01*
X147919829Y-58250737D01*
X147922486Y-58244322D01*
X147956046Y-58194096D01*
X148027764Y-58086762D01*
X148161762Y-57952764D01*
X148319321Y-57847487D01*
X148319322Y-57847486D01*
X148443117Y-57796209D01*
X148494392Y-57774970D01*
X148494393Y-57774970D01*
X148494395Y-57774969D01*
X148680251Y-57738000D01*
X148869749Y-57738000D01*
X149055605Y-57774969D01*
G37*
G36*
X160305605Y-57774969D02*
G01*
X160305607Y-57774970D01*
X160305608Y-57774970D01*
X160356883Y-57796209D01*
X160480678Y-57847486D01*
X160480679Y-57847487D01*
X160638238Y-57952764D01*
X160772236Y-58086762D01*
X160843954Y-58194096D01*
X160877514Y-58244322D01*
X160880171Y-58250737D01*
X160948224Y-58415031D01*
X160950031Y-58419395D01*
X160987000Y-58605251D01*
X160987000Y-58794749D01*
X160950031Y-58980605D01*
X160877514Y-59155678D01*
X160877513Y-59155679D01*
X160772236Y-59313238D01*
X160638238Y-59447236D01*
X160512104Y-59531515D01*
X160480678Y-59552514D01*
X160356883Y-59603791D01*
X160305608Y-59625030D01*
X160305607Y-59625030D01*
X160305605Y-59625031D01*
X160119749Y-59662000D01*
X159930251Y-59662000D01*
X159744395Y-59625031D01*
X159744393Y-59625030D01*
X159744392Y-59625030D01*
X159693117Y-59603791D01*
X159569322Y-59552514D01*
X159537896Y-59531515D01*
X159411762Y-59447236D01*
X159277764Y-59313238D01*
X159172487Y-59155679D01*
X159172486Y-59155678D01*
X159099969Y-58980605D01*
X159063000Y-58794749D01*
X159063000Y-58605251D01*
X159099969Y-58419395D01*
X159101777Y-58415031D01*
X159169829Y-58250737D01*
X159172486Y-58244322D01*
X159206046Y-58194096D01*
X159277764Y-58086762D01*
X159411762Y-57952764D01*
X159569321Y-57847487D01*
X159569322Y-57847486D01*
X159693117Y-57796209D01*
X159744392Y-57774970D01*
X159744393Y-57774970D01*
X159744395Y-57774969D01*
X159930251Y-57738000D01*
X160119749Y-57738000D01*
X160305605Y-57774969D01*
G37*
G36*
X184055605Y-57774969D02*
G01*
X184055607Y-57774970D01*
X184055608Y-57774970D01*
X184106883Y-57796209D01*
X184230678Y-57847486D01*
X184230679Y-57847487D01*
X184388238Y-57952764D01*
X184522236Y-58086762D01*
X184593954Y-58194096D01*
X184627514Y-58244322D01*
X184630171Y-58250737D01*
X184698224Y-58415031D01*
X184700031Y-58419395D01*
X184737000Y-58605251D01*
X184737000Y-58794749D01*
X184700031Y-58980605D01*
X184627514Y-59155678D01*
X184627513Y-59155679D01*
X184522236Y-59313238D01*
X184388238Y-59447236D01*
X184262104Y-59531515D01*
X184230678Y-59552514D01*
X184106883Y-59603791D01*
X184055608Y-59625030D01*
X184055607Y-59625030D01*
X184055605Y-59625031D01*
X183869749Y-59662000D01*
X183680251Y-59662000D01*
X183494395Y-59625031D01*
X183494393Y-59625030D01*
X183494392Y-59625030D01*
X183443117Y-59603791D01*
X183319322Y-59552514D01*
X183287896Y-59531515D01*
X183161762Y-59447236D01*
X183027764Y-59313238D01*
X182922487Y-59155679D01*
X182922486Y-59155678D01*
X182849969Y-58980605D01*
X182813000Y-58794749D01*
X182813000Y-58605251D01*
X182849969Y-58419395D01*
X182851777Y-58415031D01*
X182919829Y-58250737D01*
X182922486Y-58244322D01*
X182956046Y-58194096D01*
X183027764Y-58086762D01*
X183161762Y-57952764D01*
X183319321Y-57847487D01*
X183319322Y-57847486D01*
X183443117Y-57796209D01*
X183494392Y-57774970D01*
X183494393Y-57774970D01*
X183494395Y-57774969D01*
X183680251Y-57738000D01*
X183869749Y-57738000D01*
X184055605Y-57774969D01*
G37*
G36*
X195305605Y-57774969D02*
G01*
X195305607Y-57774970D01*
X195305608Y-57774970D01*
X195356883Y-57796209D01*
X195480678Y-57847486D01*
X195480679Y-57847487D01*
X195638238Y-57952764D01*
X195772236Y-58086762D01*
X195843954Y-58194096D01*
X195877514Y-58244322D01*
X195880171Y-58250737D01*
X195948224Y-58415031D01*
X195950031Y-58419395D01*
X195987000Y-58605251D01*
X195987000Y-58794749D01*
X195950031Y-58980605D01*
X195877514Y-59155678D01*
X195877513Y-59155679D01*
X195772236Y-59313238D01*
X195638238Y-59447236D01*
X195512104Y-59531515D01*
X195480678Y-59552514D01*
X195356883Y-59603791D01*
X195305608Y-59625030D01*
X195305607Y-59625030D01*
X195305605Y-59625031D01*
X195119749Y-59662000D01*
X194930251Y-59662000D01*
X194744395Y-59625031D01*
X194744393Y-59625030D01*
X194744392Y-59625030D01*
X194693117Y-59603791D01*
X194569322Y-59552514D01*
X194537896Y-59531515D01*
X194411762Y-59447236D01*
X194277764Y-59313238D01*
X194172487Y-59155679D01*
X194172486Y-59155678D01*
X194099969Y-58980605D01*
X194063000Y-58794749D01*
X194063000Y-58605251D01*
X194099969Y-58419395D01*
X194101777Y-58415031D01*
X194169829Y-58250737D01*
X194172486Y-58244322D01*
X194206046Y-58194096D01*
X194277764Y-58086762D01*
X194411762Y-57952764D01*
X194569321Y-57847487D01*
X194569322Y-57847486D01*
X194693117Y-57796209D01*
X194744392Y-57774970D01*
X194744393Y-57774970D01*
X194744395Y-57774969D01*
X194930251Y-57738000D01*
X195119749Y-57738000D01*
X195305605Y-57774969D01*
G37*
G36*
X219675605Y-56564969D02*
G01*
X219675607Y-56564970D01*
X219675608Y-56564970D01*
X219726883Y-56586209D01*
X219850678Y-56637486D01*
X219850679Y-56637487D01*
X220008238Y-56742764D01*
X220142236Y-56876762D01*
X220204998Y-56970693D01*
X220247514Y-57034322D01*
X220268518Y-57085031D01*
X220315588Y-57198667D01*
X220320031Y-57209395D01*
X220357000Y-57395251D01*
X220357000Y-57584749D01*
X220326517Y-57738000D01*
X220320030Y-57770608D01*
X220318223Y-57774970D01*
X220247514Y-57945678D01*
X220247513Y-57945679D01*
X220142236Y-58103238D01*
X220008238Y-58237236D01*
X219882104Y-58321515D01*
X219850678Y-58342514D01*
X219726883Y-58393791D01*
X219675608Y-58415030D01*
X219675607Y-58415030D01*
X219675605Y-58415031D01*
X219489749Y-58452000D01*
X219300251Y-58452000D01*
X219114395Y-58415031D01*
X219114393Y-58415030D01*
X219114392Y-58415030D01*
X219063117Y-58393791D01*
X218939322Y-58342514D01*
X218907896Y-58321515D01*
X218781762Y-58237236D01*
X218647764Y-58103238D01*
X218542487Y-57945679D01*
X218542486Y-57945678D01*
X218471777Y-57774970D01*
X218469970Y-57770608D01*
X218463484Y-57738000D01*
X218433000Y-57584749D01*
X218433000Y-57395251D01*
X218469969Y-57209395D01*
X218474413Y-57198667D01*
X218521482Y-57085031D01*
X218542486Y-57034322D01*
X218585002Y-56970693D01*
X218647764Y-56876762D01*
X218781762Y-56742764D01*
X218939321Y-56637487D01*
X218939322Y-56637486D01*
X219063117Y-56586209D01*
X219114392Y-56564970D01*
X219114393Y-56564970D01*
X219114395Y-56564969D01*
X219300251Y-56528000D01*
X219489749Y-56528000D01*
X219675605Y-56564969D01*
G37*
G36*
X230925605Y-56564969D02*
G01*
X230925607Y-56564970D01*
X230925608Y-56564970D01*
X230976883Y-56586209D01*
X231100678Y-56637486D01*
X231100679Y-56637487D01*
X231258238Y-56742764D01*
X231392236Y-56876762D01*
X231454998Y-56970693D01*
X231497514Y-57034322D01*
X231518518Y-57085031D01*
X231565588Y-57198667D01*
X231570031Y-57209395D01*
X231607000Y-57395251D01*
X231607000Y-57584749D01*
X231576517Y-57738000D01*
X231570030Y-57770608D01*
X231568223Y-57774970D01*
X231497514Y-57945678D01*
X231497513Y-57945679D01*
X231392236Y-58103238D01*
X231258238Y-58237236D01*
X231132104Y-58321515D01*
X231100678Y-58342514D01*
X230976883Y-58393791D01*
X230925608Y-58415030D01*
X230925607Y-58415030D01*
X230925605Y-58415031D01*
X230739749Y-58452000D01*
X230550251Y-58452000D01*
X230364395Y-58415031D01*
X230364393Y-58415030D01*
X230364392Y-58415030D01*
X230313117Y-58393791D01*
X230189322Y-58342514D01*
X230157896Y-58321515D01*
X230031762Y-58237236D01*
X229897764Y-58103238D01*
X229792487Y-57945679D01*
X229792486Y-57945678D01*
X229721777Y-57774970D01*
X229719970Y-57770608D01*
X229713484Y-57738000D01*
X229683000Y-57584749D01*
X229683000Y-57395251D01*
X229719969Y-57209395D01*
X229724413Y-57198667D01*
X229771482Y-57085031D01*
X229792486Y-57034322D01*
X229835002Y-56970693D01*
X229897764Y-56876762D01*
X230031762Y-56742764D01*
X230189321Y-56637487D01*
X230189322Y-56637486D01*
X230313117Y-56586209D01*
X230364392Y-56564970D01*
X230364393Y-56564970D01*
X230364395Y-56564969D01*
X230550251Y-56528000D01*
X230739749Y-56528000D01*
X230925605Y-56564969D01*
G37*
G36*
X228258589Y-56930639D02*
G01*
X228308912Y-56945904D01*
X228355289Y-56970693D01*
X228395943Y-57004057D01*
X228429307Y-57044711D01*
X228454096Y-57091088D01*
X228469361Y-57141411D01*
X228475000Y-57198667D01*
X228475000Y-58001333D01*
X228469361Y-58058589D01*
X228454096Y-58108912D01*
X228429307Y-58155289D01*
X228395943Y-58195943D01*
X228355289Y-58229307D01*
X228308912Y-58254096D01*
X228258589Y-58269361D01*
X228201333Y-58275000D01*
X227473667Y-58275000D01*
X227416411Y-58269361D01*
X227366088Y-58254096D01*
X227319711Y-58229307D01*
X227279057Y-58195943D01*
X227245693Y-58155289D01*
X227220904Y-58108912D01*
X227205639Y-58058589D01*
X227200000Y-58001333D01*
X227200000Y-57198667D01*
X227205639Y-57141411D01*
X227220904Y-57091088D01*
X227245693Y-57044711D01*
X227279057Y-57004057D01*
X227319711Y-56970693D01*
X227366088Y-56945904D01*
X227416411Y-56930639D01*
X227473667Y-56925000D01*
X228201333Y-56925000D01*
X228258589Y-56930639D01*
G37*
G36*
X226683589Y-56930639D02*
G01*
X226733912Y-56945904D01*
X226780289Y-56970693D01*
X226820943Y-57004057D01*
X226854307Y-57044711D01*
X226879096Y-57091088D01*
X226894361Y-57141411D01*
X226900000Y-57198667D01*
X226900000Y-58001333D01*
X226894361Y-58058589D01*
X226879096Y-58108912D01*
X226854307Y-58155289D01*
X226820943Y-58195943D01*
X226780289Y-58229307D01*
X226733912Y-58254096D01*
X226683589Y-58269361D01*
X226626333Y-58275000D01*
X225898667Y-58275000D01*
X225841411Y-58269361D01*
X225791088Y-58254096D01*
X225744711Y-58229307D01*
X225704057Y-58195943D01*
X225670693Y-58155289D01*
X225645904Y-58108912D01*
X225630639Y-58058589D01*
X225625000Y-58001333D01*
X225625000Y-57198667D01*
X225630639Y-57141411D01*
X225645904Y-57091088D01*
X225670693Y-57044711D01*
X225704057Y-57004057D01*
X225744711Y-56970693D01*
X225791088Y-56945904D01*
X225841411Y-56930639D01*
X225898667Y-56925000D01*
X226626333Y-56925000D01*
X226683589Y-56930639D01*
G37*
G36*
X232933589Y-56870639D02*
G01*
X232983912Y-56885904D01*
X233030289Y-56910693D01*
X233070943Y-56944057D01*
X233104307Y-56984711D01*
X233129096Y-57031088D01*
X233144361Y-57081411D01*
X233150000Y-57138667D01*
X233150000Y-57941333D01*
X233144361Y-57998589D01*
X233129096Y-58048912D01*
X233104307Y-58095289D01*
X233070943Y-58135943D01*
X233030289Y-58169307D01*
X232983912Y-58194096D01*
X232933589Y-58209361D01*
X232876333Y-58215000D01*
X232148667Y-58215000D01*
X232091411Y-58209361D01*
X232041088Y-58194096D01*
X231994711Y-58169307D01*
X231954057Y-58135943D01*
X231920693Y-58095289D01*
X231895904Y-58048912D01*
X231880639Y-57998589D01*
X231875000Y-57941333D01*
X231875000Y-57138667D01*
X231880639Y-57081411D01*
X231895904Y-57031088D01*
X231920693Y-56984711D01*
X231954057Y-56944057D01*
X231994711Y-56910693D01*
X232041088Y-56885904D01*
X232091411Y-56870639D01*
X232148667Y-56865000D01*
X232876333Y-56865000D01*
X232933589Y-56870639D01*
G37*
G36*
X234508589Y-56870639D02*
G01*
X234558912Y-56885904D01*
X234605289Y-56910693D01*
X234645943Y-56944057D01*
X234679307Y-56984711D01*
X234704096Y-57031088D01*
X234719361Y-57081411D01*
X234725000Y-57138667D01*
X234725000Y-57941333D01*
X234719361Y-57998589D01*
X234704096Y-58048912D01*
X234679307Y-58095289D01*
X234645943Y-58135943D01*
X234605289Y-58169307D01*
X234558912Y-58194096D01*
X234508589Y-58209361D01*
X234451333Y-58215000D01*
X233723667Y-58215000D01*
X233666411Y-58209361D01*
X233616088Y-58194096D01*
X233569711Y-58169307D01*
X233529057Y-58135943D01*
X233495693Y-58095289D01*
X233470904Y-58048912D01*
X233455639Y-57998589D01*
X233450000Y-57941333D01*
X233450000Y-57138667D01*
X233455639Y-57081411D01*
X233470904Y-57031088D01*
X233495693Y-56984711D01*
X233529057Y-56944057D01*
X233569711Y-56910693D01*
X233616088Y-56885904D01*
X233666411Y-56870639D01*
X233723667Y-56865000D01*
X234451333Y-56865000D01*
X234508589Y-56870639D01*
G37*
G36*
X149055605Y-55234969D02*
G01*
X149055607Y-55234970D01*
X149055608Y-55234970D01*
X149106883Y-55256209D01*
X149230678Y-55307486D01*
X149230679Y-55307487D01*
X149388238Y-55412764D01*
X149522236Y-55546762D01*
X149600680Y-55664162D01*
X149627514Y-55704322D01*
X149641841Y-55738911D01*
X149698224Y-55875031D01*
X149700031Y-55879395D01*
X149737000Y-56065251D01*
X149737000Y-56254749D01*
X149700031Y-56440605D01*
X149627514Y-56615678D01*
X149606515Y-56647104D01*
X149522236Y-56773238D01*
X149388238Y-56907236D01*
X149272288Y-56984711D01*
X149230678Y-57012514D01*
X149111762Y-57061770D01*
X149055608Y-57085030D01*
X149055607Y-57085030D01*
X149055605Y-57085031D01*
X148869749Y-57122000D01*
X148680251Y-57122000D01*
X148494395Y-57085031D01*
X148494393Y-57085030D01*
X148494392Y-57085030D01*
X148438238Y-57061770D01*
X148319322Y-57012514D01*
X148277712Y-56984711D01*
X148161762Y-56907236D01*
X148027764Y-56773238D01*
X147943485Y-56647104D01*
X147922486Y-56615678D01*
X147849969Y-56440605D01*
X147813000Y-56254749D01*
X147813000Y-56065251D01*
X147849969Y-55879395D01*
X147851777Y-55875031D01*
X147908159Y-55738911D01*
X147922486Y-55704322D01*
X147949320Y-55664162D01*
X148027764Y-55546762D01*
X148161762Y-55412764D01*
X148319321Y-55307487D01*
X148319322Y-55307486D01*
X148443117Y-55256209D01*
X148494392Y-55234970D01*
X148494393Y-55234970D01*
X148494395Y-55234969D01*
X148680251Y-55198000D01*
X148869749Y-55198000D01*
X149055605Y-55234969D01*
G37*
G36*
X160305605Y-55234969D02*
G01*
X160305607Y-55234970D01*
X160305608Y-55234970D01*
X160356883Y-55256209D01*
X160480678Y-55307486D01*
X160480679Y-55307487D01*
X160638238Y-55412764D01*
X160772236Y-55546762D01*
X160850680Y-55664162D01*
X160877514Y-55704322D01*
X160891841Y-55738911D01*
X160948224Y-55875031D01*
X160950031Y-55879395D01*
X160987000Y-56065251D01*
X160987000Y-56254749D01*
X160950031Y-56440605D01*
X160877514Y-56615678D01*
X160856515Y-56647104D01*
X160772236Y-56773238D01*
X160638238Y-56907236D01*
X160522288Y-56984711D01*
X160480678Y-57012514D01*
X160361762Y-57061770D01*
X160305608Y-57085030D01*
X160305607Y-57085030D01*
X160305605Y-57085031D01*
X160119749Y-57122000D01*
X159930251Y-57122000D01*
X159744395Y-57085031D01*
X159744393Y-57085030D01*
X159744392Y-57085030D01*
X159688238Y-57061770D01*
X159569322Y-57012514D01*
X159527712Y-56984711D01*
X159411762Y-56907236D01*
X159277764Y-56773238D01*
X159193485Y-56647104D01*
X159172486Y-56615678D01*
X159099969Y-56440605D01*
X159063000Y-56254749D01*
X159063000Y-56065251D01*
X159099969Y-55879395D01*
X159101777Y-55875031D01*
X159158159Y-55738911D01*
X159172486Y-55704322D01*
X159199320Y-55664162D01*
X159277764Y-55546762D01*
X159411762Y-55412764D01*
X159569321Y-55307487D01*
X159569322Y-55307486D01*
X159693117Y-55256209D01*
X159744392Y-55234970D01*
X159744393Y-55234970D01*
X159744395Y-55234969D01*
X159930251Y-55198000D01*
X160119749Y-55198000D01*
X160305605Y-55234969D01*
G37*
G36*
X195305605Y-55234969D02*
G01*
X195305607Y-55234970D01*
X195305608Y-55234970D01*
X195356883Y-55256209D01*
X195480678Y-55307486D01*
X195480679Y-55307487D01*
X195638238Y-55412764D01*
X195772236Y-55546762D01*
X195850680Y-55664162D01*
X195877514Y-55704322D01*
X195891841Y-55738911D01*
X195948224Y-55875031D01*
X195950031Y-55879395D01*
X195987000Y-56065251D01*
X195987000Y-56254749D01*
X195950031Y-56440605D01*
X195877514Y-56615678D01*
X195856515Y-56647104D01*
X195772236Y-56773238D01*
X195638238Y-56907236D01*
X195522288Y-56984711D01*
X195480678Y-57012514D01*
X195361762Y-57061770D01*
X195305608Y-57085030D01*
X195305607Y-57085030D01*
X195305605Y-57085031D01*
X195119749Y-57122000D01*
X194930251Y-57122000D01*
X194744395Y-57085031D01*
X194744393Y-57085030D01*
X194744392Y-57085030D01*
X194688238Y-57061770D01*
X194569322Y-57012514D01*
X194527712Y-56984711D01*
X194411762Y-56907236D01*
X194277764Y-56773238D01*
X194193485Y-56647104D01*
X194172486Y-56615678D01*
X194099969Y-56440605D01*
X194063000Y-56254749D01*
X194063000Y-56065251D01*
X194099969Y-55879395D01*
X194101777Y-55875031D01*
X194158159Y-55738911D01*
X194172486Y-55704322D01*
X194199320Y-55664162D01*
X194277764Y-55546762D01*
X194411762Y-55412764D01*
X194569321Y-55307487D01*
X194569322Y-55307486D01*
X194693117Y-55256209D01*
X194744392Y-55234970D01*
X194744393Y-55234970D01*
X194744395Y-55234969D01*
X194930251Y-55198000D01*
X195119749Y-55198000D01*
X195305605Y-55234969D01*
G37*
G36*
X184055605Y-55234969D02*
G01*
X184055607Y-55234970D01*
X184055608Y-55234970D01*
X184106883Y-55256209D01*
X184230678Y-55307486D01*
X184230679Y-55307487D01*
X184388238Y-55412764D01*
X184522236Y-55546762D01*
X184600680Y-55664162D01*
X184627514Y-55704322D01*
X184641841Y-55738911D01*
X184698224Y-55875031D01*
X184700031Y-55879395D01*
X184737000Y-56065251D01*
X184737000Y-56254749D01*
X184700031Y-56440605D01*
X184627514Y-56615678D01*
X184606515Y-56647104D01*
X184522236Y-56773238D01*
X184388238Y-56907236D01*
X184272288Y-56984711D01*
X184230678Y-57012514D01*
X184111762Y-57061770D01*
X184055608Y-57085030D01*
X184055607Y-57085030D01*
X184055605Y-57085031D01*
X183869749Y-57122000D01*
X183680251Y-57122000D01*
X183494395Y-57085031D01*
X183494393Y-57085030D01*
X183494392Y-57085030D01*
X183438238Y-57061770D01*
X183319322Y-57012514D01*
X183277712Y-56984711D01*
X183161762Y-56907236D01*
X183027764Y-56773238D01*
X182943485Y-56647104D01*
X182922486Y-56615678D01*
X182849969Y-56440605D01*
X182813000Y-56254749D01*
X182813000Y-56065251D01*
X182849969Y-55879395D01*
X182851777Y-55875031D01*
X182908159Y-55738911D01*
X182922486Y-55704322D01*
X182949320Y-55664162D01*
X183027764Y-55546762D01*
X183161762Y-55412764D01*
X183319321Y-55307487D01*
X183319322Y-55307486D01*
X183443117Y-55256209D01*
X183494392Y-55234970D01*
X183494393Y-55234970D01*
X183494395Y-55234969D01*
X183680251Y-55198000D01*
X183869749Y-55198000D01*
X184055605Y-55234969D01*
G37*
G36*
X162818589Y-55528139D02*
G01*
X162868912Y-55543404D01*
X162915289Y-55568193D01*
X162955943Y-55601557D01*
X162989307Y-55642211D01*
X163014096Y-55688588D01*
X163029361Y-55738911D01*
X163035000Y-55796167D01*
X163035000Y-56523833D01*
X163029361Y-56581089D01*
X163014096Y-56631412D01*
X162989307Y-56677789D01*
X162955943Y-56718443D01*
X162915289Y-56751807D01*
X162868912Y-56776596D01*
X162818589Y-56791861D01*
X162761333Y-56797500D01*
X161958667Y-56797500D01*
X161901411Y-56791861D01*
X161851088Y-56776596D01*
X161804711Y-56751807D01*
X161764057Y-56718443D01*
X161730693Y-56677789D01*
X161705904Y-56631412D01*
X161690639Y-56581089D01*
X161685000Y-56523833D01*
X161685000Y-55796167D01*
X161690639Y-55738911D01*
X161705904Y-55688588D01*
X161730693Y-55642211D01*
X161764057Y-55601557D01*
X161804711Y-55568193D01*
X161851088Y-55543404D01*
X161901411Y-55528139D01*
X161958667Y-55522500D01*
X162761333Y-55522500D01*
X162818589Y-55528139D01*
G37*
G36*
X197818589Y-55528139D02*
G01*
X197868912Y-55543404D01*
X197915289Y-55568193D01*
X197955943Y-55601557D01*
X197989307Y-55642211D01*
X198014096Y-55688588D01*
X198029361Y-55738911D01*
X198035000Y-55796167D01*
X198035000Y-56523833D01*
X198029361Y-56581089D01*
X198014096Y-56631412D01*
X197989307Y-56677789D01*
X197955943Y-56718443D01*
X197915289Y-56751807D01*
X197868912Y-56776596D01*
X197818589Y-56791861D01*
X197761333Y-56797500D01*
X196958667Y-56797500D01*
X196901411Y-56791861D01*
X196851088Y-56776596D01*
X196804711Y-56751807D01*
X196764057Y-56718443D01*
X196730693Y-56677789D01*
X196705904Y-56631412D01*
X196690639Y-56581089D01*
X196685000Y-56523833D01*
X196685000Y-55796167D01*
X196690639Y-55738911D01*
X196705904Y-55688588D01*
X196730693Y-55642211D01*
X196764057Y-55601557D01*
X196804711Y-55568193D01*
X196851088Y-55543404D01*
X196901411Y-55528139D01*
X196958667Y-55522500D01*
X197761333Y-55522500D01*
X197818589Y-55528139D01*
G37*
G36*
X228775000Y-56330000D02*
G01*
X226925000Y-56330000D01*
X226925000Y-53530000D01*
X228775000Y-53530000D01*
X228775000Y-56330000D01*
G37*
G36*
X222875000Y-56330000D02*
G01*
X221025000Y-56330000D01*
X221025000Y-53530000D01*
X222875000Y-53530000D01*
X222875000Y-56330000D01*
G37*
G36*
X219675605Y-54024969D02*
G01*
X219675607Y-54024970D01*
X219675608Y-54024970D01*
X219679439Y-54026557D01*
X219850678Y-54097486D01*
X219850679Y-54097487D01*
X220008238Y-54202764D01*
X220142236Y-54336762D01*
X220217172Y-54448912D01*
X220247514Y-54494322D01*
X220320031Y-54669395D01*
X220357000Y-54855251D01*
X220357000Y-55044749D01*
X220322765Y-55216861D01*
X220320030Y-55230608D01*
X220318223Y-55234970D01*
X220247514Y-55405678D01*
X220247513Y-55405679D01*
X220142236Y-55563238D01*
X220008238Y-55697236D01*
X219885772Y-55779065D01*
X219850678Y-55802514D01*
X219757160Y-55841250D01*
X219675608Y-55875030D01*
X219675607Y-55875030D01*
X219675605Y-55875031D01*
X219489749Y-55912000D01*
X219300251Y-55912000D01*
X219114395Y-55875031D01*
X219114393Y-55875030D01*
X219114392Y-55875030D01*
X219032840Y-55841250D01*
X218939322Y-55802514D01*
X218904228Y-55779065D01*
X218781762Y-55697236D01*
X218647764Y-55563238D01*
X218542487Y-55405679D01*
X218542486Y-55405678D01*
X218471777Y-55234970D01*
X218469970Y-55230608D01*
X218467236Y-55216861D01*
X218433000Y-55044749D01*
X218433000Y-54855251D01*
X218469969Y-54669395D01*
X218542486Y-54494322D01*
X218572828Y-54448912D01*
X218647764Y-54336762D01*
X218781762Y-54202764D01*
X218939321Y-54097487D01*
X218939322Y-54097486D01*
X219110561Y-54026557D01*
X219114392Y-54024970D01*
X219114393Y-54024970D01*
X219114395Y-54024969D01*
X219300251Y-53988000D01*
X219489749Y-53988000D01*
X219675605Y-54024969D01*
G37*
G36*
X230925605Y-54024969D02*
G01*
X230925607Y-54024970D01*
X230925608Y-54024970D01*
X230929439Y-54026557D01*
X231100678Y-54097486D01*
X231100679Y-54097487D01*
X231258238Y-54202764D01*
X231392236Y-54336762D01*
X231467172Y-54448912D01*
X231497514Y-54494322D01*
X231570031Y-54669395D01*
X231607000Y-54855251D01*
X231607000Y-55044749D01*
X231572765Y-55216861D01*
X231570030Y-55230608D01*
X231568223Y-55234970D01*
X231497514Y-55405678D01*
X231497513Y-55405679D01*
X231392236Y-55563238D01*
X231258238Y-55697236D01*
X231135772Y-55779065D01*
X231100678Y-55802514D01*
X231007160Y-55841250D01*
X230925608Y-55875030D01*
X230925607Y-55875030D01*
X230925605Y-55875031D01*
X230739749Y-55912000D01*
X230550251Y-55912000D01*
X230364395Y-55875031D01*
X230364393Y-55875030D01*
X230364392Y-55875030D01*
X230282840Y-55841250D01*
X230189322Y-55802514D01*
X230154228Y-55779065D01*
X230031762Y-55697236D01*
X229897764Y-55563238D01*
X229792487Y-55405679D01*
X229792486Y-55405678D01*
X229721777Y-55234970D01*
X229719970Y-55230608D01*
X229717236Y-55216861D01*
X229683000Y-55044749D01*
X229683000Y-54855251D01*
X229719969Y-54669395D01*
X229792486Y-54494322D01*
X229822828Y-54448912D01*
X229897764Y-54336762D01*
X230031762Y-54202764D01*
X230189321Y-54097487D01*
X230189322Y-54097486D01*
X230360561Y-54026557D01*
X230364392Y-54024970D01*
X230364393Y-54024970D01*
X230364395Y-54024969D01*
X230550251Y-53988000D01*
X230739749Y-53988000D01*
X230925605Y-54024969D01*
G37*
G36*
X162818589Y-53953139D02*
G01*
X162868912Y-53968404D01*
X162915289Y-53993193D01*
X162955943Y-54026557D01*
X162989307Y-54067211D01*
X163014096Y-54113588D01*
X163029361Y-54163911D01*
X163035000Y-54221167D01*
X163035000Y-54948833D01*
X163029361Y-55006089D01*
X163014096Y-55056412D01*
X162989307Y-55102789D01*
X162955943Y-55143443D01*
X162915289Y-55176807D01*
X162868912Y-55201596D01*
X162818589Y-55216861D01*
X162761333Y-55222500D01*
X161958667Y-55222500D01*
X161901411Y-55216861D01*
X161851088Y-55201596D01*
X161804711Y-55176807D01*
X161764057Y-55143443D01*
X161730693Y-55102789D01*
X161705904Y-55056412D01*
X161690639Y-55006089D01*
X161685000Y-54948833D01*
X161685000Y-54221167D01*
X161690639Y-54163911D01*
X161705904Y-54113588D01*
X161730693Y-54067211D01*
X161764057Y-54026557D01*
X161804711Y-53993193D01*
X161851088Y-53968404D01*
X161901411Y-53953139D01*
X161958667Y-53947500D01*
X162761333Y-53947500D01*
X162818589Y-53953139D01*
G37*
G36*
X197818589Y-53953139D02*
G01*
X197868912Y-53968404D01*
X197915289Y-53993193D01*
X197955943Y-54026557D01*
X197989307Y-54067211D01*
X198014096Y-54113588D01*
X198029361Y-54163911D01*
X198035000Y-54221167D01*
X198035000Y-54948833D01*
X198029361Y-55006089D01*
X198014096Y-55056412D01*
X197989307Y-55102789D01*
X197955943Y-55143443D01*
X197915289Y-55176807D01*
X197868912Y-55201596D01*
X197818589Y-55216861D01*
X197761333Y-55222500D01*
X196958667Y-55222500D01*
X196901411Y-55216861D01*
X196851088Y-55201596D01*
X196804711Y-55176807D01*
X196764057Y-55143443D01*
X196730693Y-55102789D01*
X196705904Y-55056412D01*
X196690639Y-55006089D01*
X196685000Y-54948833D01*
X196685000Y-54221167D01*
X196690639Y-54163911D01*
X196705904Y-54113588D01*
X196730693Y-54067211D01*
X196764057Y-54026557D01*
X196804711Y-53993193D01*
X196851088Y-53968404D01*
X196901411Y-53953139D01*
X196958667Y-53947500D01*
X197761333Y-53947500D01*
X197818589Y-53953139D01*
G37*
G36*
X217938589Y-53345639D02*
G01*
X217988912Y-53360904D01*
X218035289Y-53385693D01*
X218075943Y-53419057D01*
X218109307Y-53459711D01*
X218134096Y-53506088D01*
X218149361Y-53556411D01*
X218155000Y-53613667D01*
X218155000Y-54341333D01*
X218149361Y-54398589D01*
X218134096Y-54448912D01*
X218109307Y-54495289D01*
X218075943Y-54535943D01*
X218035289Y-54569307D01*
X217988912Y-54594096D01*
X217938589Y-54609361D01*
X217881333Y-54615000D01*
X217078667Y-54615000D01*
X217021411Y-54609361D01*
X216971088Y-54594096D01*
X216924711Y-54569307D01*
X216884057Y-54535943D01*
X216850693Y-54495289D01*
X216825904Y-54448912D01*
X216810639Y-54398589D01*
X216805000Y-54341333D01*
X216805000Y-53613667D01*
X216810639Y-53556411D01*
X216825904Y-53506088D01*
X216850693Y-53459711D01*
X216884057Y-53419057D01*
X216924711Y-53385693D01*
X216971088Y-53360904D01*
X217021411Y-53345639D01*
X217078667Y-53340000D01*
X217881333Y-53340000D01*
X217938589Y-53345639D01*
G37*
G36*
X149055605Y-52694969D02*
G01*
X149055607Y-52694970D01*
X149055608Y-52694970D01*
X149106883Y-52716209D01*
X149230678Y-52767486D01*
X149230679Y-52767487D01*
X149388238Y-52872764D01*
X149522236Y-53006762D01*
X149606515Y-53132896D01*
X149627514Y-53164322D01*
X149668186Y-53262513D01*
X149698224Y-53335031D01*
X149700031Y-53339395D01*
X149737000Y-53525251D01*
X149737000Y-53714749D01*
X149700031Y-53900605D01*
X149627514Y-54075678D01*
X149606515Y-54107104D01*
X149522236Y-54233238D01*
X149388238Y-54367236D01*
X149266001Y-54448912D01*
X149230678Y-54472514D01*
X149112076Y-54521640D01*
X149055608Y-54545030D01*
X149055607Y-54545030D01*
X149055605Y-54545031D01*
X148869749Y-54582000D01*
X148680251Y-54582000D01*
X148494395Y-54545031D01*
X148494393Y-54545030D01*
X148494392Y-54545030D01*
X148437924Y-54521640D01*
X148319322Y-54472514D01*
X148283999Y-54448912D01*
X148161762Y-54367236D01*
X148027764Y-54233238D01*
X147943485Y-54107104D01*
X147922486Y-54075678D01*
X147849969Y-53900605D01*
X147813000Y-53714749D01*
X147813000Y-53525251D01*
X147849969Y-53339395D01*
X147851777Y-53335031D01*
X147881814Y-53262513D01*
X147922486Y-53164322D01*
X147943485Y-53132896D01*
X148027764Y-53006762D01*
X148161762Y-52872764D01*
X148319321Y-52767487D01*
X148319322Y-52767486D01*
X148443117Y-52716209D01*
X148494392Y-52694970D01*
X148494393Y-52694970D01*
X148494395Y-52694969D01*
X148680251Y-52658000D01*
X148869749Y-52658000D01*
X149055605Y-52694969D01*
G37*
G36*
X160305605Y-52694969D02*
G01*
X160305607Y-52694970D01*
X160305608Y-52694970D01*
X160356883Y-52716209D01*
X160480678Y-52767486D01*
X160480679Y-52767487D01*
X160638238Y-52872764D01*
X160772236Y-53006762D01*
X160856515Y-53132896D01*
X160877514Y-53164322D01*
X160918186Y-53262513D01*
X160948224Y-53335031D01*
X160950031Y-53339395D01*
X160987000Y-53525251D01*
X160987000Y-53714749D01*
X160950031Y-53900605D01*
X160877514Y-54075678D01*
X160856515Y-54107104D01*
X160772236Y-54233238D01*
X160638238Y-54367236D01*
X160516001Y-54448912D01*
X160480678Y-54472514D01*
X160362076Y-54521640D01*
X160305608Y-54545030D01*
X160305607Y-54545030D01*
X160305605Y-54545031D01*
X160119749Y-54582000D01*
X159930251Y-54582000D01*
X159744395Y-54545031D01*
X159744393Y-54545030D01*
X159744392Y-54545030D01*
X159687924Y-54521640D01*
X159569322Y-54472514D01*
X159533999Y-54448912D01*
X159411762Y-54367236D01*
X159277764Y-54233238D01*
X159193485Y-54107104D01*
X159172486Y-54075678D01*
X159099969Y-53900605D01*
X159063000Y-53714749D01*
X159063000Y-53525251D01*
X159099969Y-53339395D01*
X159101777Y-53335031D01*
X159131814Y-53262513D01*
X159172486Y-53164322D01*
X159193485Y-53132896D01*
X159277764Y-53006762D01*
X159411762Y-52872764D01*
X159569321Y-52767487D01*
X159569322Y-52767486D01*
X159693117Y-52716209D01*
X159744392Y-52694970D01*
X159744393Y-52694970D01*
X159744395Y-52694969D01*
X159930251Y-52658000D01*
X160119749Y-52658000D01*
X160305605Y-52694969D01*
G37*
G36*
X195305605Y-52694969D02*
G01*
X195305607Y-52694970D01*
X195305608Y-52694970D01*
X195356883Y-52716209D01*
X195480678Y-52767486D01*
X195480679Y-52767487D01*
X195638238Y-52872764D01*
X195772236Y-53006762D01*
X195856515Y-53132896D01*
X195877514Y-53164322D01*
X195918186Y-53262513D01*
X195948224Y-53335031D01*
X195950031Y-53339395D01*
X195987000Y-53525251D01*
X195987000Y-53714749D01*
X195950031Y-53900605D01*
X195877514Y-54075678D01*
X195856515Y-54107104D01*
X195772236Y-54233238D01*
X195638238Y-54367236D01*
X195516001Y-54448912D01*
X195480678Y-54472514D01*
X195362076Y-54521640D01*
X195305608Y-54545030D01*
X195305607Y-54545030D01*
X195305605Y-54545031D01*
X195119749Y-54582000D01*
X194930251Y-54582000D01*
X194744395Y-54545031D01*
X194744393Y-54545030D01*
X194744392Y-54545030D01*
X194687924Y-54521640D01*
X194569322Y-54472514D01*
X194533999Y-54448912D01*
X194411762Y-54367236D01*
X194277764Y-54233238D01*
X194193485Y-54107104D01*
X194172486Y-54075678D01*
X194099969Y-53900605D01*
X194063000Y-53714749D01*
X194063000Y-53525251D01*
X194099969Y-53339395D01*
X194101777Y-53335031D01*
X194131814Y-53262513D01*
X194172486Y-53164322D01*
X194193485Y-53132896D01*
X194277764Y-53006762D01*
X194411762Y-52872764D01*
X194569321Y-52767487D01*
X194569322Y-52767486D01*
X194693117Y-52716209D01*
X194744392Y-52694970D01*
X194744393Y-52694970D01*
X194744395Y-52694969D01*
X194930251Y-52658000D01*
X195119749Y-52658000D01*
X195305605Y-52694969D01*
G37*
G36*
X184055605Y-52694969D02*
G01*
X184055607Y-52694970D01*
X184055608Y-52694970D01*
X184106883Y-52716209D01*
X184230678Y-52767486D01*
X184230679Y-52767487D01*
X184388238Y-52872764D01*
X184522236Y-53006762D01*
X184606515Y-53132896D01*
X184627514Y-53164322D01*
X184668186Y-53262513D01*
X184698224Y-53335031D01*
X184700031Y-53339395D01*
X184737000Y-53525251D01*
X184737000Y-53714749D01*
X184700031Y-53900605D01*
X184627514Y-54075678D01*
X184606515Y-54107104D01*
X184522236Y-54233238D01*
X184388238Y-54367236D01*
X184266001Y-54448912D01*
X184230678Y-54472514D01*
X184112076Y-54521640D01*
X184055608Y-54545030D01*
X184055607Y-54545030D01*
X184055605Y-54545031D01*
X183869749Y-54582000D01*
X183680251Y-54582000D01*
X183494395Y-54545031D01*
X183494393Y-54545030D01*
X183494392Y-54545030D01*
X183437924Y-54521640D01*
X183319322Y-54472514D01*
X183283999Y-54448912D01*
X183161762Y-54367236D01*
X183027764Y-54233238D01*
X182943485Y-54107104D01*
X182922486Y-54075678D01*
X182849969Y-53900605D01*
X182813000Y-53714749D01*
X182813000Y-53525251D01*
X182849969Y-53339395D01*
X182851777Y-53335031D01*
X182881814Y-53262513D01*
X182922486Y-53164322D01*
X182943485Y-53132896D01*
X183027764Y-53006762D01*
X183161762Y-52872764D01*
X183319321Y-52767487D01*
X183319322Y-52767486D01*
X183443117Y-52716209D01*
X183494392Y-52694970D01*
X183494393Y-52694970D01*
X183494395Y-52694969D01*
X183680251Y-52658000D01*
X183869749Y-52658000D01*
X184055605Y-52694969D01*
G37*
G36*
X230925605Y-51484969D02*
G01*
X230925607Y-51484970D01*
X230925608Y-51484970D01*
X230976883Y-51506209D01*
X231100678Y-51557486D01*
X231100679Y-51557487D01*
X231258238Y-51662764D01*
X231392236Y-51796762D01*
X231433394Y-51858360D01*
X231497514Y-51954322D01*
X231570031Y-52129395D01*
X231607000Y-52315251D01*
X231607000Y-52504749D01*
X231570463Y-52688435D01*
X231570030Y-52690608D01*
X231568223Y-52694970D01*
X231497514Y-52865678D01*
X231497513Y-52865679D01*
X231392236Y-53023238D01*
X231258238Y-53157236D01*
X231132104Y-53241515D01*
X231100678Y-53262514D01*
X230976883Y-53313791D01*
X230925608Y-53335030D01*
X230925607Y-53335030D01*
X230925605Y-53335031D01*
X230739749Y-53372000D01*
X230550251Y-53372000D01*
X230364395Y-53335031D01*
X230364393Y-53335030D01*
X230364392Y-53335030D01*
X230313117Y-53313791D01*
X230189322Y-53262514D01*
X230157896Y-53241515D01*
X230031762Y-53157236D01*
X229897764Y-53023238D01*
X229792487Y-52865679D01*
X229792486Y-52865678D01*
X229721777Y-52694970D01*
X229719970Y-52690608D01*
X229719538Y-52688435D01*
X229683000Y-52504749D01*
X229683000Y-52315251D01*
X229719969Y-52129395D01*
X229792486Y-51954322D01*
X229856606Y-51858360D01*
X229897764Y-51796762D01*
X230031762Y-51662764D01*
X230189321Y-51557487D01*
X230189322Y-51557486D01*
X230313117Y-51506209D01*
X230364392Y-51484970D01*
X230364393Y-51484970D01*
X230364395Y-51484969D01*
X230550251Y-51448000D01*
X230739749Y-51448000D01*
X230925605Y-51484969D01*
G37*
G36*
X219675605Y-51484969D02*
G01*
X219675607Y-51484970D01*
X219675608Y-51484970D01*
X219726883Y-51506209D01*
X219850678Y-51557486D01*
X219850679Y-51557487D01*
X220008238Y-51662764D01*
X220142236Y-51796762D01*
X220183394Y-51858360D01*
X220247514Y-51954322D01*
X220320031Y-52129395D01*
X220357000Y-52315251D01*
X220357000Y-52504749D01*
X220320463Y-52688435D01*
X220320030Y-52690608D01*
X220318223Y-52694970D01*
X220247514Y-52865678D01*
X220247513Y-52865679D01*
X220142236Y-53023238D01*
X220008238Y-53157236D01*
X219882104Y-53241515D01*
X219850678Y-53262514D01*
X219726883Y-53313791D01*
X219675608Y-53335030D01*
X219675607Y-53335030D01*
X219675605Y-53335031D01*
X219489749Y-53372000D01*
X219300251Y-53372000D01*
X219114395Y-53335031D01*
X219114393Y-53335030D01*
X219114392Y-53335030D01*
X219063117Y-53313791D01*
X218939322Y-53262514D01*
X218907896Y-53241515D01*
X218781762Y-53157236D01*
X218647764Y-53023238D01*
X218542487Y-52865679D01*
X218542486Y-52865678D01*
X218471777Y-52694970D01*
X218469970Y-52690608D01*
X218469538Y-52688435D01*
X218433000Y-52504749D01*
X218433000Y-52315251D01*
X218469969Y-52129395D01*
X218542486Y-51954322D01*
X218606606Y-51858360D01*
X218647764Y-51796762D01*
X218781762Y-51662764D01*
X218939321Y-51557487D01*
X218939322Y-51557486D01*
X219063117Y-51506209D01*
X219114392Y-51484970D01*
X219114393Y-51484970D01*
X219114395Y-51484969D01*
X219300251Y-51448000D01*
X219489749Y-51448000D01*
X219675605Y-51484969D01*
G37*
G36*
X217938589Y-51770639D02*
G01*
X217988912Y-51785904D01*
X218035289Y-51810693D01*
X218075943Y-51844057D01*
X218109307Y-51884711D01*
X218134096Y-51931088D01*
X218149361Y-51981411D01*
X218155000Y-52038667D01*
X218155000Y-52766333D01*
X218149361Y-52823589D01*
X218134096Y-52873912D01*
X218109307Y-52920289D01*
X218075943Y-52960943D01*
X218035289Y-52994307D01*
X217988912Y-53019096D01*
X217938589Y-53034361D01*
X217881333Y-53040000D01*
X217078667Y-53040000D01*
X217021411Y-53034361D01*
X216971088Y-53019096D01*
X216924711Y-52994307D01*
X216884057Y-52960943D01*
X216850693Y-52920289D01*
X216825904Y-52873912D01*
X216810639Y-52823589D01*
X216805000Y-52766333D01*
X216805000Y-52038667D01*
X216810639Y-51981411D01*
X216825904Y-51931088D01*
X216850693Y-51884711D01*
X216884057Y-51844057D01*
X216924711Y-51810693D01*
X216971088Y-51785904D01*
X217021411Y-51770639D01*
X217078667Y-51765000D01*
X217881333Y-51765000D01*
X217938589Y-51770639D01*
G37*
G36*
X223651089Y-51600639D02*
G01*
X223701412Y-51615904D01*
X223747789Y-51640693D01*
X223788443Y-51674057D01*
X223821807Y-51714711D01*
X223846596Y-51761088D01*
X223861861Y-51811411D01*
X223867500Y-51868667D01*
X223867500Y-52671333D01*
X223861861Y-52728589D01*
X223846596Y-52778912D01*
X223821807Y-52825289D01*
X223788443Y-52865943D01*
X223747789Y-52899307D01*
X223701412Y-52924096D01*
X223651089Y-52939361D01*
X223593833Y-52945000D01*
X222866167Y-52945000D01*
X222808911Y-52939361D01*
X222758588Y-52924096D01*
X222712211Y-52899307D01*
X222671557Y-52865943D01*
X222638193Y-52825289D01*
X222613404Y-52778912D01*
X222598139Y-52728589D01*
X222592500Y-52671333D01*
X222592500Y-51868667D01*
X222598139Y-51811411D01*
X222613404Y-51761088D01*
X222638193Y-51714711D01*
X222671557Y-51674057D01*
X222712211Y-51640693D01*
X222758588Y-51615904D01*
X222808911Y-51600639D01*
X222866167Y-51595000D01*
X223593833Y-51595000D01*
X223651089Y-51600639D01*
G37*
G36*
X225226089Y-51600639D02*
G01*
X225276412Y-51615904D01*
X225322789Y-51640693D01*
X225363443Y-51674057D01*
X225396807Y-51714711D01*
X225421596Y-51761088D01*
X225436861Y-51811411D01*
X225442500Y-51868667D01*
X225442500Y-52671333D01*
X225436861Y-52728589D01*
X225421596Y-52778912D01*
X225396807Y-52825289D01*
X225363443Y-52865943D01*
X225322789Y-52899307D01*
X225276412Y-52924096D01*
X225226089Y-52939361D01*
X225168833Y-52945000D01*
X224441167Y-52945000D01*
X224383911Y-52939361D01*
X224333588Y-52924096D01*
X224287211Y-52899307D01*
X224246557Y-52865943D01*
X224213193Y-52825289D01*
X224188404Y-52778912D01*
X224173139Y-52728589D01*
X224167500Y-52671333D01*
X224167500Y-51868667D01*
X224173139Y-51811411D01*
X224188404Y-51761088D01*
X224213193Y-51714711D01*
X224246557Y-51674057D01*
X224287211Y-51640693D01*
X224333588Y-51615904D01*
X224383911Y-51600639D01*
X224441167Y-51595000D01*
X225168833Y-51595000D01*
X225226089Y-51600639D01*
G37*
G36*
X228368589Y-51590639D02*
G01*
X228418912Y-51605904D01*
X228465289Y-51630693D01*
X228505943Y-51664057D01*
X228539307Y-51704711D01*
X228564096Y-51751088D01*
X228579361Y-51801411D01*
X228585000Y-51858667D01*
X228585000Y-52661333D01*
X228579361Y-52718589D01*
X228564096Y-52768912D01*
X228539307Y-52815289D01*
X228505943Y-52855943D01*
X228465289Y-52889307D01*
X228418912Y-52914096D01*
X228368589Y-52929361D01*
X228311333Y-52935000D01*
X227583667Y-52935000D01*
X227526411Y-52929361D01*
X227476088Y-52914096D01*
X227429711Y-52889307D01*
X227389057Y-52855943D01*
X227355693Y-52815289D01*
X227330904Y-52768912D01*
X227315639Y-52718589D01*
X227310000Y-52661333D01*
X227310000Y-51858667D01*
X227315639Y-51801411D01*
X227330904Y-51751088D01*
X227355693Y-51704711D01*
X227389057Y-51664057D01*
X227429711Y-51630693D01*
X227476088Y-51605904D01*
X227526411Y-51590639D01*
X227583667Y-51585000D01*
X228311333Y-51585000D01*
X228368589Y-51590639D01*
G37*
G36*
X226793589Y-51590639D02*
G01*
X226843912Y-51605904D01*
X226890289Y-51630693D01*
X226930943Y-51664057D01*
X226964307Y-51704711D01*
X226989096Y-51751088D01*
X227004361Y-51801411D01*
X227010000Y-51858667D01*
X227010000Y-52661333D01*
X227004361Y-52718589D01*
X226989096Y-52768912D01*
X226964307Y-52815289D01*
X226930943Y-52855943D01*
X226890289Y-52889307D01*
X226843912Y-52914096D01*
X226793589Y-52929361D01*
X226736333Y-52935000D01*
X226008667Y-52935000D01*
X225951411Y-52929361D01*
X225901088Y-52914096D01*
X225854711Y-52889307D01*
X225814057Y-52855943D01*
X225780693Y-52815289D01*
X225755904Y-52768912D01*
X225740639Y-52718589D01*
X225735000Y-52661333D01*
X225735000Y-51858667D01*
X225740639Y-51801411D01*
X225755904Y-51751088D01*
X225780693Y-51704711D01*
X225814057Y-51664057D01*
X225854711Y-51630693D01*
X225901088Y-51605904D01*
X225951411Y-51590639D01*
X226008667Y-51585000D01*
X226736333Y-51585000D01*
X226793589Y-51590639D01*
G37*
G36*
X227480000Y-48800000D02*
G01*
X226080000Y-48800000D01*
X226080000Y-45250000D01*
X227480000Y-45250000D01*
X227480000Y-48800000D01*
G37*
G36*
X156480000Y-48800000D02*
G01*
X155080000Y-48800000D01*
X155080000Y-45250000D01*
X156480000Y-45250000D01*
X156480000Y-48800000D01*
G37*
G36*
X153940000Y-48800000D02*
G01*
X152540000Y-48800000D01*
X152540000Y-45250000D01*
X153940000Y-45250000D01*
X153940000Y-48800000D01*
G37*
G36*
X151400000Y-48800000D02*
G01*
X150000000Y-48800000D01*
X150000000Y-45250000D01*
X151400000Y-45250000D01*
X151400000Y-48800000D01*
G37*
G36*
X194020000Y-48800000D02*
G01*
X192620000Y-48800000D01*
X192620000Y-45250000D01*
X194020000Y-45250000D01*
X194020000Y-48800000D01*
G37*
G36*
X191480000Y-48800000D02*
G01*
X190080000Y-48800000D01*
X190080000Y-45250000D01*
X191480000Y-45250000D01*
X191480000Y-48800000D01*
G37*
G36*
X186400000Y-48800000D02*
G01*
X185000000Y-48800000D01*
X185000000Y-45250000D01*
X186400000Y-45250000D01*
X186400000Y-48800000D01*
G37*
G36*
X222400000Y-48800000D02*
G01*
X221000000Y-48800000D01*
X221000000Y-45250000D01*
X222400000Y-45250000D01*
X222400000Y-48800000D01*
G37*
G36*
X224940000Y-48800000D02*
G01*
X223540000Y-48800000D01*
X223540000Y-45250000D01*
X224940000Y-45250000D01*
X224940000Y-48800000D01*
G37*
G36*
X230020000Y-48800000D02*
G01*
X228620000Y-48800000D01*
X228620000Y-45250000D01*
X230020000Y-45250000D01*
X230020000Y-48800000D01*
G37*
G36*
X159020000Y-48800000D02*
G01*
X157620000Y-48800000D01*
X157620000Y-45250000D01*
X159020000Y-45250000D01*
X159020000Y-48800000D01*
G37*
G36*
X188940000Y-48800000D02*
G01*
X187540000Y-48800000D01*
X187540000Y-45250000D01*
X188940000Y-45250000D01*
X188940000Y-48800000D01*
G37*
G36*
X159020000Y-43750000D02*
G01*
X157620000Y-43750000D01*
X157620000Y-40200000D01*
X159020000Y-40200000D01*
X159020000Y-43750000D01*
G37*
G36*
X156480000Y-43750000D02*
G01*
X155080000Y-43750000D01*
X155080000Y-40200000D01*
X156480000Y-40200000D01*
X156480000Y-43750000D01*
G37*
G36*
X230020000Y-43750000D02*
G01*
X228620000Y-43750000D01*
X228620000Y-40200000D01*
X230020000Y-40200000D01*
X230020000Y-43750000D01*
G37*
G36*
X151400000Y-43750000D02*
G01*
X150000000Y-43750000D01*
X150000000Y-40200000D01*
X151400000Y-40200000D01*
X151400000Y-43750000D01*
G37*
G36*
X227480000Y-43750000D02*
G01*
X226080000Y-43750000D01*
X226080000Y-40200000D01*
X227480000Y-40200000D01*
X227480000Y-43750000D01*
G37*
G36*
X194020000Y-43750000D02*
G01*
X192620000Y-43750000D01*
X192620000Y-40200000D01*
X194020000Y-40200000D01*
X194020000Y-43750000D01*
G37*
G36*
X224940000Y-43750000D02*
G01*
X223540000Y-43750000D01*
X223540000Y-40200000D01*
X224940000Y-40200000D01*
X224940000Y-43750000D01*
G37*
G36*
X191480000Y-43750000D02*
G01*
X190080000Y-43750000D01*
X190080000Y-40200000D01*
X191480000Y-40200000D01*
X191480000Y-43750000D01*
G37*
G36*
X188940000Y-43750000D02*
G01*
X187540000Y-43750000D01*
X187540000Y-40200000D01*
X188940000Y-40200000D01*
X188940000Y-43750000D01*
G37*
G36*
X153940000Y-43750000D02*
G01*
X152540000Y-43750000D01*
X152540000Y-40200000D01*
X153940000Y-40200000D01*
X153940000Y-43750000D01*
G37*
G36*
X186400000Y-43750000D02*
G01*
X185000000Y-43750000D01*
X185000000Y-40200000D01*
X186400000Y-40200000D01*
X186400000Y-43750000D01*
G37*
G36*
X222400000Y-43750000D02*
G01*
X221000000Y-43750000D01*
X221000000Y-40200000D01*
X222400000Y-40200000D01*
X222400000Y-43750000D01*
G37*
M02*
