M48
; DRILL file {KiCad 5.1.5-52549c5~86~ubuntu16.04.1} date Tue 04 Aug 2020 10:24:44 PM -05
; FORMAT={3:3/ absolute / metric / suppress leading zeros}
; #@! TF.CreationDate,2020-08-04T22:24:44-05:00
; #@! TF.GenerationSoftware,Kicad,Pcbnew,5.1.5-52549c5~86~ubuntu16.04.1
; #@! TF.FileFunction,Plated,1,4,PTH
FMAT,2
METRIC,TZ
T1C0.762
T2C0.900
T3C4.040
%
G90
G05
T1
X219395Y-87910
X219395Y-90450
X219395Y-92990
X230645Y-87910
X230645Y-90450
X230645Y-92990
X183395Y-87910
X183395Y-90450
X183395Y-92990
X194645Y-87910
X194645Y-90450
X194645Y-92990
X219395Y-52410
X219395Y-54950
X219395Y-57490
X230645Y-52410
X230645Y-54950
X230645Y-57490
X219395Y-122910
X219395Y-125450
X219395Y-127990
X230645Y-122910
X230645Y-125450
X230645Y-127990
X148775Y-53620
X148775Y-56160
X148775Y-58700
X160025Y-53620
X160025Y-56160
X160025Y-58700
X183775Y-53620
X183775Y-56160
X183775Y-58700
X195025Y-53620
X195025Y-56160
X195025Y-58700
X148395Y-87910
X148395Y-90450
X148395Y-92990
X159645Y-87910
X159645Y-90450
X159645Y-92990
T2
X148100Y-121060
X150640Y-121060
X153180Y-121060
X155720Y-121060
X158260Y-121060
X160800Y-121060
X183100Y-121060
X185640Y-121060
X188180Y-121060
X190720Y-121060
X193260Y-121060
X195800Y-121060
T3
X142894Y-131560
X166006Y-131560
X177894Y-131560
X201006Y-131560
T0
M30
