G04 #@! TF.GenerationSoftware,KiCad,Pcbnew,5.1.5-52549c5~86~ubuntu16.04.1*
G04 #@! TF.CreationDate,2020-08-04T22:24:30-05:00*
G04 #@! TF.ProjectId,pressure_sensors,70726573-7375-4726-955f-73656e736f72,rev?*
G04 #@! TF.SameCoordinates,Original*
G04 #@! TF.FileFunction,Soldermask,Top*
G04 #@! TF.FilePolarity,Negative*
%FSLAX46Y46*%
G04 Gerber Fmt 4.6, Leading zero omitted, Abs format (unit mm)*
G04 Created by KiCad (PCBNEW 5.1.5-52549c5~86~ubuntu16.04.1) date 2020-08-04 22:24:30*
%MOMM*%
%LPD*%
G04 APERTURE LIST*
%ADD10C,0.100000*%
G04 APERTURE END LIST*
D10*
G36*
X201705604Y-129252230D02*
G01*
X202142376Y-129433147D01*
X202535461Y-129695798D01*
X202869752Y-130030089D01*
X203132403Y-130423174D01*
X203313320Y-130859946D01*
X203405550Y-131323621D01*
X203405550Y-131796379D01*
X203313320Y-132260054D01*
X203132403Y-132696826D01*
X202869752Y-133089911D01*
X202535461Y-133424202D01*
X202142376Y-133686853D01*
X201705604Y-133867770D01*
X201241929Y-133960000D01*
X200769171Y-133960000D01*
X200305496Y-133867770D01*
X199868724Y-133686853D01*
X199475639Y-133424202D01*
X199141348Y-133089911D01*
X198878697Y-132696826D01*
X198697780Y-132260054D01*
X198605550Y-131796379D01*
X198605550Y-131323621D01*
X198697780Y-130859946D01*
X198878697Y-130423174D01*
X199141348Y-130030089D01*
X199475639Y-129695798D01*
X199868724Y-129433147D01*
X200305496Y-129252230D01*
X200769171Y-129160000D01*
X201241929Y-129160000D01*
X201705604Y-129252230D01*
G37*
G36*
X166705604Y-129252230D02*
G01*
X167142376Y-129433147D01*
X167535461Y-129695798D01*
X167869752Y-130030089D01*
X168132403Y-130423174D01*
X168313320Y-130859946D01*
X168405550Y-131323621D01*
X168405550Y-131796379D01*
X168313320Y-132260054D01*
X168132403Y-132696826D01*
X167869752Y-133089911D01*
X167535461Y-133424202D01*
X167142376Y-133686853D01*
X166705604Y-133867770D01*
X166241929Y-133960000D01*
X165769171Y-133960000D01*
X165305496Y-133867770D01*
X164868724Y-133686853D01*
X164475639Y-133424202D01*
X164141348Y-133089911D01*
X163878697Y-132696826D01*
X163697780Y-132260054D01*
X163605550Y-131796379D01*
X163605550Y-131323621D01*
X163697780Y-130859946D01*
X163878697Y-130423174D01*
X164141348Y-130030089D01*
X164475639Y-129695798D01*
X164868724Y-129433147D01*
X165305496Y-129252230D01*
X165769171Y-129160000D01*
X166241929Y-129160000D01*
X166705604Y-129252230D01*
G37*
G36*
X143594498Y-129252230D02*
G01*
X144031270Y-129433147D01*
X144424355Y-129695798D01*
X144758646Y-130030089D01*
X145021297Y-130423174D01*
X145202214Y-130859946D01*
X145294444Y-131323621D01*
X145294444Y-131796379D01*
X145202214Y-132260054D01*
X145021297Y-132696826D01*
X144758646Y-133089911D01*
X144424355Y-133424202D01*
X144031270Y-133686853D01*
X143594498Y-133867770D01*
X143130823Y-133960000D01*
X142658065Y-133960000D01*
X142194390Y-133867770D01*
X141757618Y-133686853D01*
X141364533Y-133424202D01*
X141030242Y-133089911D01*
X140767591Y-132696826D01*
X140586674Y-132260054D01*
X140494444Y-131796379D01*
X140494444Y-131323621D01*
X140586674Y-130859946D01*
X140767591Y-130423174D01*
X141030242Y-130030089D01*
X141364533Y-129695798D01*
X141757618Y-129433147D01*
X142194390Y-129252230D01*
X142658065Y-129160000D01*
X143130823Y-129160000D01*
X143594498Y-129252230D01*
G37*
G36*
X178594498Y-129252230D02*
G01*
X179031270Y-129433147D01*
X179424355Y-129695798D01*
X179758646Y-130030089D01*
X180021297Y-130423174D01*
X180202214Y-130859946D01*
X180294444Y-131323621D01*
X180294444Y-131796379D01*
X180202214Y-132260054D01*
X180021297Y-132696826D01*
X179758646Y-133089911D01*
X179424355Y-133424202D01*
X179031270Y-133686853D01*
X178594498Y-133867770D01*
X178130823Y-133960000D01*
X177658065Y-133960000D01*
X177194390Y-133867770D01*
X176757618Y-133686853D01*
X176364533Y-133424202D01*
X176030242Y-133089911D01*
X175767591Y-132696826D01*
X175586674Y-132260054D01*
X175494444Y-131796379D01*
X175494444Y-131323621D01*
X175586674Y-130859946D01*
X175767591Y-130423174D01*
X176030242Y-130030089D01*
X176364533Y-129695798D01*
X176757618Y-129433147D01*
X177194390Y-129252230D01*
X177658065Y-129160000D01*
X178130823Y-129160000D01*
X178594498Y-129252230D01*
G37*
G36*
X230925605Y-127064969D02*
G01*
X230925607Y-127064970D01*
X230925608Y-127064970D01*
X230976883Y-127086209D01*
X231100678Y-127137486D01*
X231100679Y-127137487D01*
X231258238Y-127242764D01*
X231392236Y-127376762D01*
X231476515Y-127502896D01*
X231497514Y-127534322D01*
X231570031Y-127709395D01*
X231607000Y-127895251D01*
X231607000Y-128084749D01*
X231570031Y-128270605D01*
X231497514Y-128445678D01*
X231497513Y-128445679D01*
X231392236Y-128603238D01*
X231258238Y-128737236D01*
X231132104Y-128821515D01*
X231100678Y-128842514D01*
X230976883Y-128893791D01*
X230925608Y-128915030D01*
X230925607Y-128915030D01*
X230925605Y-128915031D01*
X230739749Y-128952000D01*
X230550251Y-128952000D01*
X230364395Y-128915031D01*
X230364393Y-128915030D01*
X230364392Y-128915030D01*
X230313117Y-128893791D01*
X230189322Y-128842514D01*
X230157896Y-128821515D01*
X230031762Y-128737236D01*
X229897764Y-128603238D01*
X229792487Y-128445679D01*
X229792486Y-128445678D01*
X229719969Y-128270605D01*
X229683000Y-128084749D01*
X229683000Y-127895251D01*
X229719969Y-127709395D01*
X229792486Y-127534322D01*
X229813485Y-127502896D01*
X229897764Y-127376762D01*
X230031762Y-127242764D01*
X230189321Y-127137487D01*
X230189322Y-127137486D01*
X230313117Y-127086209D01*
X230364392Y-127064970D01*
X230364393Y-127064970D01*
X230364395Y-127064969D01*
X230550251Y-127028000D01*
X230739749Y-127028000D01*
X230925605Y-127064969D01*
G37*
G36*
X219675605Y-127064969D02*
G01*
X219675607Y-127064970D01*
X219675608Y-127064970D01*
X219726883Y-127086209D01*
X219850678Y-127137486D01*
X219850679Y-127137487D01*
X220008238Y-127242764D01*
X220142236Y-127376762D01*
X220226515Y-127502896D01*
X220247514Y-127534322D01*
X220320031Y-127709395D01*
X220357000Y-127895251D01*
X220357000Y-128084749D01*
X220320031Y-128270605D01*
X220247514Y-128445678D01*
X220247513Y-128445679D01*
X220142236Y-128603238D01*
X220008238Y-128737236D01*
X219882104Y-128821515D01*
X219850678Y-128842514D01*
X219726883Y-128893791D01*
X219675608Y-128915030D01*
X219675607Y-128915030D01*
X219675605Y-128915031D01*
X219489749Y-128952000D01*
X219300251Y-128952000D01*
X219114395Y-128915031D01*
X219114393Y-128915030D01*
X219114392Y-128915030D01*
X219063117Y-128893791D01*
X218939322Y-128842514D01*
X218907896Y-128821515D01*
X218781762Y-128737236D01*
X218647764Y-128603238D01*
X218542487Y-128445679D01*
X218542486Y-128445678D01*
X218469969Y-128270605D01*
X218433000Y-128084749D01*
X218433000Y-127895251D01*
X218469969Y-127709395D01*
X218542486Y-127534322D01*
X218563485Y-127502896D01*
X218647764Y-127376762D01*
X218781762Y-127242764D01*
X218939321Y-127137487D01*
X218939322Y-127137486D01*
X219063117Y-127086209D01*
X219114392Y-127064970D01*
X219114393Y-127064970D01*
X219114395Y-127064969D01*
X219300251Y-127028000D01*
X219489749Y-127028000D01*
X219675605Y-127064969D01*
G37*
G36*
X219675605Y-124524969D02*
G01*
X219675607Y-124524970D01*
X219675608Y-124524970D01*
X219726883Y-124546209D01*
X219850678Y-124597486D01*
X219850679Y-124597487D01*
X220008238Y-124702764D01*
X220142236Y-124836762D01*
X220226515Y-124962896D01*
X220247514Y-124994322D01*
X220320031Y-125169395D01*
X220357000Y-125355251D01*
X220357000Y-125544749D01*
X220320031Y-125730605D01*
X220247514Y-125905678D01*
X220247513Y-125905679D01*
X220142236Y-126063238D01*
X220008238Y-126197236D01*
X219882104Y-126281515D01*
X219850678Y-126302514D01*
X219726883Y-126353791D01*
X219675608Y-126375030D01*
X219675607Y-126375030D01*
X219675605Y-126375031D01*
X219489749Y-126412000D01*
X219300251Y-126412000D01*
X219114395Y-126375031D01*
X219114393Y-126375030D01*
X219114392Y-126375030D01*
X219063117Y-126353791D01*
X218939322Y-126302514D01*
X218907896Y-126281515D01*
X218781762Y-126197236D01*
X218647764Y-126063238D01*
X218542487Y-125905679D01*
X218542486Y-125905678D01*
X218469969Y-125730605D01*
X218433000Y-125544749D01*
X218433000Y-125355251D01*
X218469969Y-125169395D01*
X218542486Y-124994322D01*
X218563485Y-124962896D01*
X218647764Y-124836762D01*
X218781762Y-124702764D01*
X218939321Y-124597487D01*
X218939322Y-124597486D01*
X219063117Y-124546209D01*
X219114392Y-124524970D01*
X219114393Y-124524970D01*
X219114395Y-124524969D01*
X219300251Y-124488000D01*
X219489749Y-124488000D01*
X219675605Y-124524969D01*
G37*
G36*
X230925605Y-124524969D02*
G01*
X230925607Y-124524970D01*
X230925608Y-124524970D01*
X230976883Y-124546209D01*
X231100678Y-124597486D01*
X231100679Y-124597487D01*
X231258238Y-124702764D01*
X231392236Y-124836762D01*
X231476515Y-124962896D01*
X231497514Y-124994322D01*
X231570031Y-125169395D01*
X231607000Y-125355251D01*
X231607000Y-125544749D01*
X231570031Y-125730605D01*
X231497514Y-125905678D01*
X231497513Y-125905679D01*
X231392236Y-126063238D01*
X231258238Y-126197236D01*
X231132104Y-126281515D01*
X231100678Y-126302514D01*
X230976883Y-126353791D01*
X230925608Y-126375030D01*
X230925607Y-126375030D01*
X230925605Y-126375031D01*
X230739749Y-126412000D01*
X230550251Y-126412000D01*
X230364395Y-126375031D01*
X230364393Y-126375030D01*
X230364392Y-126375030D01*
X230313117Y-126353791D01*
X230189322Y-126302514D01*
X230157896Y-126281515D01*
X230031762Y-126197236D01*
X229897764Y-126063238D01*
X229792487Y-125905679D01*
X229792486Y-125905678D01*
X229719969Y-125730605D01*
X229683000Y-125544749D01*
X229683000Y-125355251D01*
X229719969Y-125169395D01*
X229792486Y-124994322D01*
X229813485Y-124962896D01*
X229897764Y-124836762D01*
X230031762Y-124702764D01*
X230189321Y-124597487D01*
X230189322Y-124597486D01*
X230313117Y-124546209D01*
X230364392Y-124524970D01*
X230364393Y-124524970D01*
X230364395Y-124524969D01*
X230550251Y-124488000D01*
X230739749Y-124488000D01*
X230925605Y-124524969D01*
G37*
G36*
X219675605Y-121984969D02*
G01*
X219675607Y-121984970D01*
X219675608Y-121984970D01*
X219726883Y-122006209D01*
X219850678Y-122057486D01*
X219850679Y-122057487D01*
X220008238Y-122162764D01*
X220142236Y-122296762D01*
X220226515Y-122422896D01*
X220247514Y-122454322D01*
X220320031Y-122629395D01*
X220357000Y-122815251D01*
X220357000Y-123004749D01*
X220320031Y-123190605D01*
X220247514Y-123365678D01*
X220247513Y-123365679D01*
X220142236Y-123523238D01*
X220008238Y-123657236D01*
X219882104Y-123741515D01*
X219850678Y-123762514D01*
X219726883Y-123813791D01*
X219675608Y-123835030D01*
X219675607Y-123835030D01*
X219675605Y-123835031D01*
X219489749Y-123872000D01*
X219300251Y-123872000D01*
X219114395Y-123835031D01*
X219114393Y-123835030D01*
X219114392Y-123835030D01*
X219063117Y-123813791D01*
X218939322Y-123762514D01*
X218907896Y-123741515D01*
X218781762Y-123657236D01*
X218647764Y-123523238D01*
X218542487Y-123365679D01*
X218542486Y-123365678D01*
X218469969Y-123190605D01*
X218433000Y-123004749D01*
X218433000Y-122815251D01*
X218469969Y-122629395D01*
X218542486Y-122454322D01*
X218563485Y-122422896D01*
X218647764Y-122296762D01*
X218781762Y-122162764D01*
X218939321Y-122057487D01*
X218939322Y-122057486D01*
X219063117Y-122006209D01*
X219114392Y-121984970D01*
X219114393Y-121984970D01*
X219114395Y-121984969D01*
X219300251Y-121948000D01*
X219489749Y-121948000D01*
X219675605Y-121984969D01*
G37*
G36*
X230925605Y-121984969D02*
G01*
X230925607Y-121984970D01*
X230925608Y-121984970D01*
X230976883Y-122006209D01*
X231100678Y-122057486D01*
X231100679Y-122057487D01*
X231258238Y-122162764D01*
X231392236Y-122296762D01*
X231476515Y-122422896D01*
X231497514Y-122454322D01*
X231570031Y-122629395D01*
X231607000Y-122815251D01*
X231607000Y-123004749D01*
X231570031Y-123190605D01*
X231497514Y-123365678D01*
X231497513Y-123365679D01*
X231392236Y-123523238D01*
X231258238Y-123657236D01*
X231132104Y-123741515D01*
X231100678Y-123762514D01*
X230976883Y-123813791D01*
X230925608Y-123835030D01*
X230925607Y-123835030D01*
X230925605Y-123835031D01*
X230739749Y-123872000D01*
X230550251Y-123872000D01*
X230364395Y-123835031D01*
X230364393Y-123835030D01*
X230364392Y-123835030D01*
X230313117Y-123813791D01*
X230189322Y-123762514D01*
X230157896Y-123741515D01*
X230031762Y-123657236D01*
X229897764Y-123523238D01*
X229792487Y-123365679D01*
X229792486Y-123365678D01*
X229719969Y-123190605D01*
X229683000Y-123004749D01*
X229683000Y-122815251D01*
X229719969Y-122629395D01*
X229792486Y-122454322D01*
X229813485Y-122422896D01*
X229897764Y-122296762D01*
X230031762Y-122162764D01*
X230189321Y-122057487D01*
X230189322Y-122057486D01*
X230313117Y-122006209D01*
X230364392Y-121984970D01*
X230364393Y-121984970D01*
X230364395Y-121984969D01*
X230550251Y-121948000D01*
X230739749Y-121948000D01*
X230925605Y-121984969D01*
G37*
G36*
X185835090Y-120079215D02*
G01*
X185931689Y-120098429D01*
X186113678Y-120173811D01*
X186277463Y-120283249D01*
X186416751Y-120422537D01*
X186526189Y-120586322D01*
X186601571Y-120768311D01*
X186640000Y-120961509D01*
X186640000Y-121158491D01*
X186601571Y-121351689D01*
X186526189Y-121533678D01*
X186416751Y-121697463D01*
X186277463Y-121836751D01*
X186113678Y-121946189D01*
X185931689Y-122021571D01*
X185835090Y-122040786D01*
X185738493Y-122060000D01*
X185541507Y-122060000D01*
X185444910Y-122040786D01*
X185348311Y-122021571D01*
X185166322Y-121946189D01*
X185002537Y-121836751D01*
X184863249Y-121697463D01*
X184753811Y-121533678D01*
X184678429Y-121351689D01*
X184640000Y-121158491D01*
X184640000Y-120961509D01*
X184678429Y-120768311D01*
X184753811Y-120586322D01*
X184863249Y-120422537D01*
X185002537Y-120283249D01*
X185166322Y-120173811D01*
X185348311Y-120098429D01*
X185444910Y-120079215D01*
X185541507Y-120060000D01*
X185738493Y-120060000D01*
X185835090Y-120079215D01*
G37*
G36*
X150835090Y-120079215D02*
G01*
X150931689Y-120098429D01*
X151113678Y-120173811D01*
X151277463Y-120283249D01*
X151416751Y-120422537D01*
X151526189Y-120586322D01*
X151601571Y-120768311D01*
X151640000Y-120961509D01*
X151640000Y-121158491D01*
X151601571Y-121351689D01*
X151526189Y-121533678D01*
X151416751Y-121697463D01*
X151277463Y-121836751D01*
X151113678Y-121946189D01*
X150931689Y-122021571D01*
X150835090Y-122040786D01*
X150738493Y-122060000D01*
X150541507Y-122060000D01*
X150444910Y-122040786D01*
X150348311Y-122021571D01*
X150166322Y-121946189D01*
X150002537Y-121836751D01*
X149863249Y-121697463D01*
X149753811Y-121533678D01*
X149678429Y-121351689D01*
X149640000Y-121158491D01*
X149640000Y-120961509D01*
X149678429Y-120768311D01*
X149753811Y-120586322D01*
X149863249Y-120422537D01*
X150002537Y-120283249D01*
X150166322Y-120173811D01*
X150348311Y-120098429D01*
X150444910Y-120079215D01*
X150541507Y-120060000D01*
X150738493Y-120060000D01*
X150835090Y-120079215D01*
G37*
G36*
X153375090Y-120079215D02*
G01*
X153471689Y-120098429D01*
X153653678Y-120173811D01*
X153817463Y-120283249D01*
X153956751Y-120422537D01*
X154066189Y-120586322D01*
X154141571Y-120768311D01*
X154180000Y-120961509D01*
X154180000Y-121158491D01*
X154141571Y-121351689D01*
X154066189Y-121533678D01*
X153956751Y-121697463D01*
X153817463Y-121836751D01*
X153653678Y-121946189D01*
X153471689Y-122021571D01*
X153375090Y-122040786D01*
X153278493Y-122060000D01*
X153081507Y-122060000D01*
X152984910Y-122040786D01*
X152888311Y-122021571D01*
X152706322Y-121946189D01*
X152542537Y-121836751D01*
X152403249Y-121697463D01*
X152293811Y-121533678D01*
X152218429Y-121351689D01*
X152180000Y-121158491D01*
X152180000Y-120961509D01*
X152218429Y-120768311D01*
X152293811Y-120586322D01*
X152403249Y-120422537D01*
X152542537Y-120283249D01*
X152706322Y-120173811D01*
X152888311Y-120098429D01*
X152984910Y-120079215D01*
X153081507Y-120060000D01*
X153278493Y-120060000D01*
X153375090Y-120079215D01*
G37*
G36*
X155915090Y-120079215D02*
G01*
X156011689Y-120098429D01*
X156193678Y-120173811D01*
X156357463Y-120283249D01*
X156496751Y-120422537D01*
X156606189Y-120586322D01*
X156681571Y-120768311D01*
X156720000Y-120961509D01*
X156720000Y-121158491D01*
X156681571Y-121351689D01*
X156606189Y-121533678D01*
X156496751Y-121697463D01*
X156357463Y-121836751D01*
X156193678Y-121946189D01*
X156011689Y-122021571D01*
X155915090Y-122040786D01*
X155818493Y-122060000D01*
X155621507Y-122060000D01*
X155524910Y-122040786D01*
X155428311Y-122021571D01*
X155246322Y-121946189D01*
X155082537Y-121836751D01*
X154943249Y-121697463D01*
X154833811Y-121533678D01*
X154758429Y-121351689D01*
X154720000Y-121158491D01*
X154720000Y-120961509D01*
X154758429Y-120768311D01*
X154833811Y-120586322D01*
X154943249Y-120422537D01*
X155082537Y-120283249D01*
X155246322Y-120173811D01*
X155428311Y-120098429D01*
X155524910Y-120079215D01*
X155621507Y-120060000D01*
X155818493Y-120060000D01*
X155915090Y-120079215D01*
G37*
G36*
X158455090Y-120079215D02*
G01*
X158551689Y-120098429D01*
X158733678Y-120173811D01*
X158897463Y-120283249D01*
X159036751Y-120422537D01*
X159146189Y-120586322D01*
X159221571Y-120768311D01*
X159260000Y-120961509D01*
X159260000Y-121158491D01*
X159221571Y-121351689D01*
X159146189Y-121533678D01*
X159036751Y-121697463D01*
X158897463Y-121836751D01*
X158733678Y-121946189D01*
X158551689Y-122021571D01*
X158455090Y-122040786D01*
X158358493Y-122060000D01*
X158161507Y-122060000D01*
X158064910Y-122040786D01*
X157968311Y-122021571D01*
X157786322Y-121946189D01*
X157622537Y-121836751D01*
X157483249Y-121697463D01*
X157373811Y-121533678D01*
X157298429Y-121351689D01*
X157260000Y-121158491D01*
X157260000Y-120961509D01*
X157298429Y-120768311D01*
X157373811Y-120586322D01*
X157483249Y-120422537D01*
X157622537Y-120283249D01*
X157786322Y-120173811D01*
X157968311Y-120098429D01*
X158064910Y-120079215D01*
X158161507Y-120060000D01*
X158358493Y-120060000D01*
X158455090Y-120079215D01*
G37*
G36*
X160995090Y-120079215D02*
G01*
X161091689Y-120098429D01*
X161273678Y-120173811D01*
X161437463Y-120283249D01*
X161576751Y-120422537D01*
X161686189Y-120586322D01*
X161761571Y-120768311D01*
X161800000Y-120961509D01*
X161800000Y-121158491D01*
X161761571Y-121351689D01*
X161686189Y-121533678D01*
X161576751Y-121697463D01*
X161437463Y-121836751D01*
X161273678Y-121946189D01*
X161091689Y-122021571D01*
X160995090Y-122040786D01*
X160898493Y-122060000D01*
X160701507Y-122060000D01*
X160604910Y-122040786D01*
X160508311Y-122021571D01*
X160326322Y-121946189D01*
X160162537Y-121836751D01*
X160023249Y-121697463D01*
X159913811Y-121533678D01*
X159838429Y-121351689D01*
X159800000Y-121158491D01*
X159800000Y-120961509D01*
X159838429Y-120768311D01*
X159913811Y-120586322D01*
X160023249Y-120422537D01*
X160162537Y-120283249D01*
X160326322Y-120173811D01*
X160508311Y-120098429D01*
X160604910Y-120079215D01*
X160701507Y-120060000D01*
X160898493Y-120060000D01*
X160995090Y-120079215D01*
G37*
G36*
X184100000Y-122060000D02*
G01*
X182100000Y-122060000D01*
X182100000Y-120060000D01*
X184100000Y-120060000D01*
X184100000Y-122060000D01*
G37*
G36*
X188375090Y-120079215D02*
G01*
X188471689Y-120098429D01*
X188653678Y-120173811D01*
X188817463Y-120283249D01*
X188956751Y-120422537D01*
X189066189Y-120586322D01*
X189141571Y-120768311D01*
X189180000Y-120961509D01*
X189180000Y-121158491D01*
X189141571Y-121351689D01*
X189066189Y-121533678D01*
X188956751Y-121697463D01*
X188817463Y-121836751D01*
X188653678Y-121946189D01*
X188471689Y-122021571D01*
X188375090Y-122040786D01*
X188278493Y-122060000D01*
X188081507Y-122060000D01*
X187984910Y-122040786D01*
X187888311Y-122021571D01*
X187706322Y-121946189D01*
X187542537Y-121836751D01*
X187403249Y-121697463D01*
X187293811Y-121533678D01*
X187218429Y-121351689D01*
X187180000Y-121158491D01*
X187180000Y-120961509D01*
X187218429Y-120768311D01*
X187293811Y-120586322D01*
X187403249Y-120422537D01*
X187542537Y-120283249D01*
X187706322Y-120173811D01*
X187888311Y-120098429D01*
X187984910Y-120079215D01*
X188081507Y-120060000D01*
X188278493Y-120060000D01*
X188375090Y-120079215D01*
G37*
G36*
X190915090Y-120079215D02*
G01*
X191011689Y-120098429D01*
X191193678Y-120173811D01*
X191357463Y-120283249D01*
X191496751Y-120422537D01*
X191606189Y-120586322D01*
X191681571Y-120768311D01*
X191720000Y-120961509D01*
X191720000Y-121158491D01*
X191681571Y-121351689D01*
X191606189Y-121533678D01*
X191496751Y-121697463D01*
X191357463Y-121836751D01*
X191193678Y-121946189D01*
X191011689Y-122021571D01*
X190915090Y-122040786D01*
X190818493Y-122060000D01*
X190621507Y-122060000D01*
X190524910Y-122040786D01*
X190428311Y-122021571D01*
X190246322Y-121946189D01*
X190082537Y-121836751D01*
X189943249Y-121697463D01*
X189833811Y-121533678D01*
X189758429Y-121351689D01*
X189720000Y-121158491D01*
X189720000Y-120961509D01*
X189758429Y-120768311D01*
X189833811Y-120586322D01*
X189943249Y-120422537D01*
X190082537Y-120283249D01*
X190246322Y-120173811D01*
X190428311Y-120098429D01*
X190524910Y-120079215D01*
X190621507Y-120060000D01*
X190818493Y-120060000D01*
X190915090Y-120079215D01*
G37*
G36*
X193455090Y-120079215D02*
G01*
X193551689Y-120098429D01*
X193733678Y-120173811D01*
X193897463Y-120283249D01*
X194036751Y-120422537D01*
X194146189Y-120586322D01*
X194221571Y-120768311D01*
X194260000Y-120961509D01*
X194260000Y-121158491D01*
X194221571Y-121351689D01*
X194146189Y-121533678D01*
X194036751Y-121697463D01*
X193897463Y-121836751D01*
X193733678Y-121946189D01*
X193551689Y-122021571D01*
X193455090Y-122040786D01*
X193358493Y-122060000D01*
X193161507Y-122060000D01*
X193064910Y-122040786D01*
X192968311Y-122021571D01*
X192786322Y-121946189D01*
X192622537Y-121836751D01*
X192483249Y-121697463D01*
X192373811Y-121533678D01*
X192298429Y-121351689D01*
X192260000Y-121158491D01*
X192260000Y-120961509D01*
X192298429Y-120768311D01*
X192373811Y-120586322D01*
X192483249Y-120422537D01*
X192622537Y-120283249D01*
X192786322Y-120173811D01*
X192968311Y-120098429D01*
X193064910Y-120079215D01*
X193161507Y-120060000D01*
X193358493Y-120060000D01*
X193455090Y-120079215D01*
G37*
G36*
X149100000Y-122060000D02*
G01*
X147100000Y-122060000D01*
X147100000Y-120060000D01*
X149100000Y-120060000D01*
X149100000Y-122060000D01*
G37*
G36*
X195995090Y-120079215D02*
G01*
X196091689Y-120098429D01*
X196273678Y-120173811D01*
X196437463Y-120283249D01*
X196576751Y-120422537D01*
X196686189Y-120586322D01*
X196761571Y-120768311D01*
X196800000Y-120961509D01*
X196800000Y-121158491D01*
X196761571Y-121351689D01*
X196686189Y-121533678D01*
X196576751Y-121697463D01*
X196437463Y-121836751D01*
X196273678Y-121946189D01*
X196091689Y-122021571D01*
X195995090Y-122040786D01*
X195898493Y-122060000D01*
X195701507Y-122060000D01*
X195604910Y-122040786D01*
X195508311Y-122021571D01*
X195326322Y-121946189D01*
X195162537Y-121836751D01*
X195023249Y-121697463D01*
X194913811Y-121533678D01*
X194838429Y-121351689D01*
X194800000Y-121158491D01*
X194800000Y-120961509D01*
X194838429Y-120768311D01*
X194913811Y-120586322D01*
X195023249Y-120422537D01*
X195162537Y-120283249D01*
X195326322Y-120173811D01*
X195508311Y-120098429D01*
X195604910Y-120079215D01*
X195701507Y-120060000D01*
X195898493Y-120060000D01*
X195995090Y-120079215D01*
G37*
G36*
X230925605Y-92064969D02*
G01*
X230925607Y-92064970D01*
X230925608Y-92064970D01*
X230976883Y-92086209D01*
X231100678Y-92137486D01*
X231100679Y-92137487D01*
X231258238Y-92242764D01*
X231392236Y-92376762D01*
X231476515Y-92502896D01*
X231497514Y-92534322D01*
X231570031Y-92709395D01*
X231607000Y-92895251D01*
X231607000Y-93084749D01*
X231570031Y-93270605D01*
X231497514Y-93445678D01*
X231497513Y-93445679D01*
X231392236Y-93603238D01*
X231258238Y-93737236D01*
X231132104Y-93821515D01*
X231100678Y-93842514D01*
X230976883Y-93893791D01*
X230925608Y-93915030D01*
X230925607Y-93915030D01*
X230925605Y-93915031D01*
X230739749Y-93952000D01*
X230550251Y-93952000D01*
X230364395Y-93915031D01*
X230364393Y-93915030D01*
X230364392Y-93915030D01*
X230313117Y-93893791D01*
X230189322Y-93842514D01*
X230157896Y-93821515D01*
X230031762Y-93737236D01*
X229897764Y-93603238D01*
X229792487Y-93445679D01*
X229792486Y-93445678D01*
X229719969Y-93270605D01*
X229683000Y-93084749D01*
X229683000Y-92895251D01*
X229719969Y-92709395D01*
X229792486Y-92534322D01*
X229813485Y-92502896D01*
X229897764Y-92376762D01*
X230031762Y-92242764D01*
X230189321Y-92137487D01*
X230189322Y-92137486D01*
X230313117Y-92086209D01*
X230364392Y-92064970D01*
X230364393Y-92064970D01*
X230364395Y-92064969D01*
X230550251Y-92028000D01*
X230739749Y-92028000D01*
X230925605Y-92064969D01*
G37*
G36*
X219675605Y-92064969D02*
G01*
X219675607Y-92064970D01*
X219675608Y-92064970D01*
X219726883Y-92086209D01*
X219850678Y-92137486D01*
X219850679Y-92137487D01*
X220008238Y-92242764D01*
X220142236Y-92376762D01*
X220226515Y-92502896D01*
X220247514Y-92534322D01*
X220320031Y-92709395D01*
X220357000Y-92895251D01*
X220357000Y-93084749D01*
X220320031Y-93270605D01*
X220247514Y-93445678D01*
X220247513Y-93445679D01*
X220142236Y-93603238D01*
X220008238Y-93737236D01*
X219882104Y-93821515D01*
X219850678Y-93842514D01*
X219726883Y-93893791D01*
X219675608Y-93915030D01*
X219675607Y-93915030D01*
X219675605Y-93915031D01*
X219489749Y-93952000D01*
X219300251Y-93952000D01*
X219114395Y-93915031D01*
X219114393Y-93915030D01*
X219114392Y-93915030D01*
X219063117Y-93893791D01*
X218939322Y-93842514D01*
X218907896Y-93821515D01*
X218781762Y-93737236D01*
X218647764Y-93603238D01*
X218542487Y-93445679D01*
X218542486Y-93445678D01*
X218469969Y-93270605D01*
X218433000Y-93084749D01*
X218433000Y-92895251D01*
X218469969Y-92709395D01*
X218542486Y-92534322D01*
X218563485Y-92502896D01*
X218647764Y-92376762D01*
X218781762Y-92242764D01*
X218939321Y-92137487D01*
X218939322Y-92137486D01*
X219063117Y-92086209D01*
X219114392Y-92064970D01*
X219114393Y-92064970D01*
X219114395Y-92064969D01*
X219300251Y-92028000D01*
X219489749Y-92028000D01*
X219675605Y-92064969D01*
G37*
G36*
X194925605Y-92064969D02*
G01*
X194925607Y-92064970D01*
X194925608Y-92064970D01*
X194976883Y-92086209D01*
X195100678Y-92137486D01*
X195100679Y-92137487D01*
X195258238Y-92242764D01*
X195392236Y-92376762D01*
X195476515Y-92502896D01*
X195497514Y-92534322D01*
X195570031Y-92709395D01*
X195607000Y-92895251D01*
X195607000Y-93084749D01*
X195570031Y-93270605D01*
X195497514Y-93445678D01*
X195497513Y-93445679D01*
X195392236Y-93603238D01*
X195258238Y-93737236D01*
X195132104Y-93821515D01*
X195100678Y-93842514D01*
X194976883Y-93893791D01*
X194925608Y-93915030D01*
X194925607Y-93915030D01*
X194925605Y-93915031D01*
X194739749Y-93952000D01*
X194550251Y-93952000D01*
X194364395Y-93915031D01*
X194364393Y-93915030D01*
X194364392Y-93915030D01*
X194313117Y-93893791D01*
X194189322Y-93842514D01*
X194157896Y-93821515D01*
X194031762Y-93737236D01*
X193897764Y-93603238D01*
X193792487Y-93445679D01*
X193792486Y-93445678D01*
X193719969Y-93270605D01*
X193683000Y-93084749D01*
X193683000Y-92895251D01*
X193719969Y-92709395D01*
X193792486Y-92534322D01*
X193813485Y-92502896D01*
X193897764Y-92376762D01*
X194031762Y-92242764D01*
X194189321Y-92137487D01*
X194189322Y-92137486D01*
X194313117Y-92086209D01*
X194364392Y-92064970D01*
X194364393Y-92064970D01*
X194364395Y-92064969D01*
X194550251Y-92028000D01*
X194739749Y-92028000D01*
X194925605Y-92064969D01*
G37*
G36*
X148675605Y-92064969D02*
G01*
X148675607Y-92064970D01*
X148675608Y-92064970D01*
X148726883Y-92086209D01*
X148850678Y-92137486D01*
X148850679Y-92137487D01*
X149008238Y-92242764D01*
X149142236Y-92376762D01*
X149226515Y-92502896D01*
X149247514Y-92534322D01*
X149320031Y-92709395D01*
X149357000Y-92895251D01*
X149357000Y-93084749D01*
X149320031Y-93270605D01*
X149247514Y-93445678D01*
X149247513Y-93445679D01*
X149142236Y-93603238D01*
X149008238Y-93737236D01*
X148882104Y-93821515D01*
X148850678Y-93842514D01*
X148726883Y-93893791D01*
X148675608Y-93915030D01*
X148675607Y-93915030D01*
X148675605Y-93915031D01*
X148489749Y-93952000D01*
X148300251Y-93952000D01*
X148114395Y-93915031D01*
X148114393Y-93915030D01*
X148114392Y-93915030D01*
X148063117Y-93893791D01*
X147939322Y-93842514D01*
X147907896Y-93821515D01*
X147781762Y-93737236D01*
X147647764Y-93603238D01*
X147542487Y-93445679D01*
X147542486Y-93445678D01*
X147469969Y-93270605D01*
X147433000Y-93084749D01*
X147433000Y-92895251D01*
X147469969Y-92709395D01*
X147542486Y-92534322D01*
X147563485Y-92502896D01*
X147647764Y-92376762D01*
X147781762Y-92242764D01*
X147939321Y-92137487D01*
X147939322Y-92137486D01*
X148063117Y-92086209D01*
X148114392Y-92064970D01*
X148114393Y-92064970D01*
X148114395Y-92064969D01*
X148300251Y-92028000D01*
X148489749Y-92028000D01*
X148675605Y-92064969D01*
G37*
G36*
X159925605Y-92064969D02*
G01*
X159925607Y-92064970D01*
X159925608Y-92064970D01*
X159976883Y-92086209D01*
X160100678Y-92137486D01*
X160100679Y-92137487D01*
X160258238Y-92242764D01*
X160392236Y-92376762D01*
X160476515Y-92502896D01*
X160497514Y-92534322D01*
X160570031Y-92709395D01*
X160607000Y-92895251D01*
X160607000Y-93084749D01*
X160570031Y-93270605D01*
X160497514Y-93445678D01*
X160497513Y-93445679D01*
X160392236Y-93603238D01*
X160258238Y-93737236D01*
X160132104Y-93821515D01*
X160100678Y-93842514D01*
X159976883Y-93893791D01*
X159925608Y-93915030D01*
X159925607Y-93915030D01*
X159925605Y-93915031D01*
X159739749Y-93952000D01*
X159550251Y-93952000D01*
X159364395Y-93915031D01*
X159364393Y-93915030D01*
X159364392Y-93915030D01*
X159313117Y-93893791D01*
X159189322Y-93842514D01*
X159157896Y-93821515D01*
X159031762Y-93737236D01*
X158897764Y-93603238D01*
X158792487Y-93445679D01*
X158792486Y-93445678D01*
X158719969Y-93270605D01*
X158683000Y-93084749D01*
X158683000Y-92895251D01*
X158719969Y-92709395D01*
X158792486Y-92534322D01*
X158813485Y-92502896D01*
X158897764Y-92376762D01*
X159031762Y-92242764D01*
X159189321Y-92137487D01*
X159189322Y-92137486D01*
X159313117Y-92086209D01*
X159364392Y-92064970D01*
X159364393Y-92064970D01*
X159364395Y-92064969D01*
X159550251Y-92028000D01*
X159739749Y-92028000D01*
X159925605Y-92064969D01*
G37*
G36*
X183675605Y-92064969D02*
G01*
X183675607Y-92064970D01*
X183675608Y-92064970D01*
X183726883Y-92086209D01*
X183850678Y-92137486D01*
X183850679Y-92137487D01*
X184008238Y-92242764D01*
X184142236Y-92376762D01*
X184226515Y-92502896D01*
X184247514Y-92534322D01*
X184320031Y-92709395D01*
X184357000Y-92895251D01*
X184357000Y-93084749D01*
X184320031Y-93270605D01*
X184247514Y-93445678D01*
X184247513Y-93445679D01*
X184142236Y-93603238D01*
X184008238Y-93737236D01*
X183882104Y-93821515D01*
X183850678Y-93842514D01*
X183726883Y-93893791D01*
X183675608Y-93915030D01*
X183675607Y-93915030D01*
X183675605Y-93915031D01*
X183489749Y-93952000D01*
X183300251Y-93952000D01*
X183114395Y-93915031D01*
X183114393Y-93915030D01*
X183114392Y-93915030D01*
X183063117Y-93893791D01*
X182939322Y-93842514D01*
X182907896Y-93821515D01*
X182781762Y-93737236D01*
X182647764Y-93603238D01*
X182542487Y-93445679D01*
X182542486Y-93445678D01*
X182469969Y-93270605D01*
X182433000Y-93084749D01*
X182433000Y-92895251D01*
X182469969Y-92709395D01*
X182542486Y-92534322D01*
X182563485Y-92502896D01*
X182647764Y-92376762D01*
X182781762Y-92242764D01*
X182939321Y-92137487D01*
X182939322Y-92137486D01*
X183063117Y-92086209D01*
X183114392Y-92064970D01*
X183114393Y-92064970D01*
X183114395Y-92064969D01*
X183300251Y-92028000D01*
X183489749Y-92028000D01*
X183675605Y-92064969D01*
G37*
G36*
X219675605Y-89524969D02*
G01*
X219675607Y-89524970D01*
X219675608Y-89524970D01*
X219726883Y-89546209D01*
X219850678Y-89597486D01*
X219850679Y-89597487D01*
X220008238Y-89702764D01*
X220142236Y-89836762D01*
X220226515Y-89962896D01*
X220247514Y-89994322D01*
X220320031Y-90169395D01*
X220357000Y-90355251D01*
X220357000Y-90544749D01*
X220320031Y-90730605D01*
X220247514Y-90905678D01*
X220247513Y-90905679D01*
X220142236Y-91063238D01*
X220008238Y-91197236D01*
X219882104Y-91281515D01*
X219850678Y-91302514D01*
X219726883Y-91353791D01*
X219675608Y-91375030D01*
X219675607Y-91375030D01*
X219675605Y-91375031D01*
X219489749Y-91412000D01*
X219300251Y-91412000D01*
X219114395Y-91375031D01*
X219114393Y-91375030D01*
X219114392Y-91375030D01*
X219063117Y-91353791D01*
X218939322Y-91302514D01*
X218907896Y-91281515D01*
X218781762Y-91197236D01*
X218647764Y-91063238D01*
X218542487Y-90905679D01*
X218542486Y-90905678D01*
X218469969Y-90730605D01*
X218433000Y-90544749D01*
X218433000Y-90355251D01*
X218469969Y-90169395D01*
X218542486Y-89994322D01*
X218563485Y-89962896D01*
X218647764Y-89836762D01*
X218781762Y-89702764D01*
X218939321Y-89597487D01*
X218939322Y-89597486D01*
X219063117Y-89546209D01*
X219114392Y-89524970D01*
X219114393Y-89524970D01*
X219114395Y-89524969D01*
X219300251Y-89488000D01*
X219489749Y-89488000D01*
X219675605Y-89524969D01*
G37*
G36*
X159925605Y-89524969D02*
G01*
X159925607Y-89524970D01*
X159925608Y-89524970D01*
X159976883Y-89546209D01*
X160100678Y-89597486D01*
X160100679Y-89597487D01*
X160258238Y-89702764D01*
X160392236Y-89836762D01*
X160476515Y-89962896D01*
X160497514Y-89994322D01*
X160570031Y-90169395D01*
X160607000Y-90355251D01*
X160607000Y-90544749D01*
X160570031Y-90730605D01*
X160497514Y-90905678D01*
X160497513Y-90905679D01*
X160392236Y-91063238D01*
X160258238Y-91197236D01*
X160132104Y-91281515D01*
X160100678Y-91302514D01*
X159976883Y-91353791D01*
X159925608Y-91375030D01*
X159925607Y-91375030D01*
X159925605Y-91375031D01*
X159739749Y-91412000D01*
X159550251Y-91412000D01*
X159364395Y-91375031D01*
X159364393Y-91375030D01*
X159364392Y-91375030D01*
X159313117Y-91353791D01*
X159189322Y-91302514D01*
X159157896Y-91281515D01*
X159031762Y-91197236D01*
X158897764Y-91063238D01*
X158792487Y-90905679D01*
X158792486Y-90905678D01*
X158719969Y-90730605D01*
X158683000Y-90544749D01*
X158683000Y-90355251D01*
X158719969Y-90169395D01*
X158792486Y-89994322D01*
X158813485Y-89962896D01*
X158897764Y-89836762D01*
X159031762Y-89702764D01*
X159189321Y-89597487D01*
X159189322Y-89597486D01*
X159313117Y-89546209D01*
X159364392Y-89524970D01*
X159364393Y-89524970D01*
X159364395Y-89524969D01*
X159550251Y-89488000D01*
X159739749Y-89488000D01*
X159925605Y-89524969D01*
G37*
G36*
X183675605Y-89524969D02*
G01*
X183675607Y-89524970D01*
X183675608Y-89524970D01*
X183726883Y-89546209D01*
X183850678Y-89597486D01*
X183850679Y-89597487D01*
X184008238Y-89702764D01*
X184142236Y-89836762D01*
X184226515Y-89962896D01*
X184247514Y-89994322D01*
X184320031Y-90169395D01*
X184357000Y-90355251D01*
X184357000Y-90544749D01*
X184320031Y-90730605D01*
X184247514Y-90905678D01*
X184247513Y-90905679D01*
X184142236Y-91063238D01*
X184008238Y-91197236D01*
X183882104Y-91281515D01*
X183850678Y-91302514D01*
X183726883Y-91353791D01*
X183675608Y-91375030D01*
X183675607Y-91375030D01*
X183675605Y-91375031D01*
X183489749Y-91412000D01*
X183300251Y-91412000D01*
X183114395Y-91375031D01*
X183114393Y-91375030D01*
X183114392Y-91375030D01*
X183063117Y-91353791D01*
X182939322Y-91302514D01*
X182907896Y-91281515D01*
X182781762Y-91197236D01*
X182647764Y-91063238D01*
X182542487Y-90905679D01*
X182542486Y-90905678D01*
X182469969Y-90730605D01*
X182433000Y-90544749D01*
X182433000Y-90355251D01*
X182469969Y-90169395D01*
X182542486Y-89994322D01*
X182563485Y-89962896D01*
X182647764Y-89836762D01*
X182781762Y-89702764D01*
X182939321Y-89597487D01*
X182939322Y-89597486D01*
X183063117Y-89546209D01*
X183114392Y-89524970D01*
X183114393Y-89524970D01*
X183114395Y-89524969D01*
X183300251Y-89488000D01*
X183489749Y-89488000D01*
X183675605Y-89524969D01*
G37*
G36*
X230925605Y-89524969D02*
G01*
X230925607Y-89524970D01*
X230925608Y-89524970D01*
X230976883Y-89546209D01*
X231100678Y-89597486D01*
X231100679Y-89597487D01*
X231258238Y-89702764D01*
X231392236Y-89836762D01*
X231476515Y-89962896D01*
X231497514Y-89994322D01*
X231570031Y-90169395D01*
X231607000Y-90355251D01*
X231607000Y-90544749D01*
X231570031Y-90730605D01*
X231497514Y-90905678D01*
X231497513Y-90905679D01*
X231392236Y-91063238D01*
X231258238Y-91197236D01*
X231132104Y-91281515D01*
X231100678Y-91302514D01*
X230976883Y-91353791D01*
X230925608Y-91375030D01*
X230925607Y-91375030D01*
X230925605Y-91375031D01*
X230739749Y-91412000D01*
X230550251Y-91412000D01*
X230364395Y-91375031D01*
X230364393Y-91375030D01*
X230364392Y-91375030D01*
X230313117Y-91353791D01*
X230189322Y-91302514D01*
X230157896Y-91281515D01*
X230031762Y-91197236D01*
X229897764Y-91063238D01*
X229792487Y-90905679D01*
X229792486Y-90905678D01*
X229719969Y-90730605D01*
X229683000Y-90544749D01*
X229683000Y-90355251D01*
X229719969Y-90169395D01*
X229792486Y-89994322D01*
X229813485Y-89962896D01*
X229897764Y-89836762D01*
X230031762Y-89702764D01*
X230189321Y-89597487D01*
X230189322Y-89597486D01*
X230313117Y-89546209D01*
X230364392Y-89524970D01*
X230364393Y-89524970D01*
X230364395Y-89524969D01*
X230550251Y-89488000D01*
X230739749Y-89488000D01*
X230925605Y-89524969D01*
G37*
G36*
X148675605Y-89524969D02*
G01*
X148675607Y-89524970D01*
X148675608Y-89524970D01*
X148726883Y-89546209D01*
X148850678Y-89597486D01*
X148850679Y-89597487D01*
X149008238Y-89702764D01*
X149142236Y-89836762D01*
X149226515Y-89962896D01*
X149247514Y-89994322D01*
X149320031Y-90169395D01*
X149357000Y-90355251D01*
X149357000Y-90544749D01*
X149320031Y-90730605D01*
X149247514Y-90905678D01*
X149247513Y-90905679D01*
X149142236Y-91063238D01*
X149008238Y-91197236D01*
X148882104Y-91281515D01*
X148850678Y-91302514D01*
X148726883Y-91353791D01*
X148675608Y-91375030D01*
X148675607Y-91375030D01*
X148675605Y-91375031D01*
X148489749Y-91412000D01*
X148300251Y-91412000D01*
X148114395Y-91375031D01*
X148114393Y-91375030D01*
X148114392Y-91375030D01*
X148063117Y-91353791D01*
X147939322Y-91302514D01*
X147907896Y-91281515D01*
X147781762Y-91197236D01*
X147647764Y-91063238D01*
X147542487Y-90905679D01*
X147542486Y-90905678D01*
X147469969Y-90730605D01*
X147433000Y-90544749D01*
X147433000Y-90355251D01*
X147469969Y-90169395D01*
X147542486Y-89994322D01*
X147563485Y-89962896D01*
X147647764Y-89836762D01*
X147781762Y-89702764D01*
X147939321Y-89597487D01*
X147939322Y-89597486D01*
X148063117Y-89546209D01*
X148114392Y-89524970D01*
X148114393Y-89524970D01*
X148114395Y-89524969D01*
X148300251Y-89488000D01*
X148489749Y-89488000D01*
X148675605Y-89524969D01*
G37*
G36*
X194925605Y-89524969D02*
G01*
X194925607Y-89524970D01*
X194925608Y-89524970D01*
X194976883Y-89546209D01*
X195100678Y-89597486D01*
X195100679Y-89597487D01*
X195258238Y-89702764D01*
X195392236Y-89836762D01*
X195476515Y-89962896D01*
X195497514Y-89994322D01*
X195570031Y-90169395D01*
X195607000Y-90355251D01*
X195607000Y-90544749D01*
X195570031Y-90730605D01*
X195497514Y-90905678D01*
X195497513Y-90905679D01*
X195392236Y-91063238D01*
X195258238Y-91197236D01*
X195132104Y-91281515D01*
X195100678Y-91302514D01*
X194976883Y-91353791D01*
X194925608Y-91375030D01*
X194925607Y-91375030D01*
X194925605Y-91375031D01*
X194739749Y-91412000D01*
X194550251Y-91412000D01*
X194364395Y-91375031D01*
X194364393Y-91375030D01*
X194364392Y-91375030D01*
X194313117Y-91353791D01*
X194189322Y-91302514D01*
X194157896Y-91281515D01*
X194031762Y-91197236D01*
X193897764Y-91063238D01*
X193792487Y-90905679D01*
X193792486Y-90905678D01*
X193719969Y-90730605D01*
X193683000Y-90544749D01*
X193683000Y-90355251D01*
X193719969Y-90169395D01*
X193792486Y-89994322D01*
X193813485Y-89962896D01*
X193897764Y-89836762D01*
X194031762Y-89702764D01*
X194189321Y-89597487D01*
X194189322Y-89597486D01*
X194313117Y-89546209D01*
X194364392Y-89524970D01*
X194364393Y-89524970D01*
X194364395Y-89524969D01*
X194550251Y-89488000D01*
X194739749Y-89488000D01*
X194925605Y-89524969D01*
G37*
G36*
X194925605Y-86984969D02*
G01*
X194925607Y-86984970D01*
X194925608Y-86984970D01*
X194976883Y-87006209D01*
X195100678Y-87057486D01*
X195100679Y-87057487D01*
X195258238Y-87162764D01*
X195392236Y-87296762D01*
X195476515Y-87422896D01*
X195497514Y-87454322D01*
X195570031Y-87629395D01*
X195607000Y-87815251D01*
X195607000Y-88004749D01*
X195570031Y-88190605D01*
X195497514Y-88365678D01*
X195497513Y-88365679D01*
X195392236Y-88523238D01*
X195258238Y-88657236D01*
X195132104Y-88741515D01*
X195100678Y-88762514D01*
X194976883Y-88813791D01*
X194925608Y-88835030D01*
X194925607Y-88835030D01*
X194925605Y-88835031D01*
X194739749Y-88872000D01*
X194550251Y-88872000D01*
X194364395Y-88835031D01*
X194364393Y-88835030D01*
X194364392Y-88835030D01*
X194313117Y-88813791D01*
X194189322Y-88762514D01*
X194157896Y-88741515D01*
X194031762Y-88657236D01*
X193897764Y-88523238D01*
X193792487Y-88365679D01*
X193792486Y-88365678D01*
X193719969Y-88190605D01*
X193683000Y-88004749D01*
X193683000Y-87815251D01*
X193719969Y-87629395D01*
X193792486Y-87454322D01*
X193813485Y-87422896D01*
X193897764Y-87296762D01*
X194031762Y-87162764D01*
X194189321Y-87057487D01*
X194189322Y-87057486D01*
X194313117Y-87006209D01*
X194364392Y-86984970D01*
X194364393Y-86984970D01*
X194364395Y-86984969D01*
X194550251Y-86948000D01*
X194739749Y-86948000D01*
X194925605Y-86984969D01*
G37*
G36*
X230925605Y-86984969D02*
G01*
X230925607Y-86984970D01*
X230925608Y-86984970D01*
X230976883Y-87006209D01*
X231100678Y-87057486D01*
X231100679Y-87057487D01*
X231258238Y-87162764D01*
X231392236Y-87296762D01*
X231476515Y-87422896D01*
X231497514Y-87454322D01*
X231570031Y-87629395D01*
X231607000Y-87815251D01*
X231607000Y-88004749D01*
X231570031Y-88190605D01*
X231497514Y-88365678D01*
X231497513Y-88365679D01*
X231392236Y-88523238D01*
X231258238Y-88657236D01*
X231132104Y-88741515D01*
X231100678Y-88762514D01*
X230976883Y-88813791D01*
X230925608Y-88835030D01*
X230925607Y-88835030D01*
X230925605Y-88835031D01*
X230739749Y-88872000D01*
X230550251Y-88872000D01*
X230364395Y-88835031D01*
X230364393Y-88835030D01*
X230364392Y-88835030D01*
X230313117Y-88813791D01*
X230189322Y-88762514D01*
X230157896Y-88741515D01*
X230031762Y-88657236D01*
X229897764Y-88523238D01*
X229792487Y-88365679D01*
X229792486Y-88365678D01*
X229719969Y-88190605D01*
X229683000Y-88004749D01*
X229683000Y-87815251D01*
X229719969Y-87629395D01*
X229792486Y-87454322D01*
X229813485Y-87422896D01*
X229897764Y-87296762D01*
X230031762Y-87162764D01*
X230189321Y-87057487D01*
X230189322Y-87057486D01*
X230313117Y-87006209D01*
X230364392Y-86984970D01*
X230364393Y-86984970D01*
X230364395Y-86984969D01*
X230550251Y-86948000D01*
X230739749Y-86948000D01*
X230925605Y-86984969D01*
G37*
G36*
X219675605Y-86984969D02*
G01*
X219675607Y-86984970D01*
X219675608Y-86984970D01*
X219726883Y-87006209D01*
X219850678Y-87057486D01*
X219850679Y-87057487D01*
X220008238Y-87162764D01*
X220142236Y-87296762D01*
X220226515Y-87422896D01*
X220247514Y-87454322D01*
X220320031Y-87629395D01*
X220357000Y-87815251D01*
X220357000Y-88004749D01*
X220320031Y-88190605D01*
X220247514Y-88365678D01*
X220247513Y-88365679D01*
X220142236Y-88523238D01*
X220008238Y-88657236D01*
X219882104Y-88741515D01*
X219850678Y-88762514D01*
X219726883Y-88813791D01*
X219675608Y-88835030D01*
X219675607Y-88835030D01*
X219675605Y-88835031D01*
X219489749Y-88872000D01*
X219300251Y-88872000D01*
X219114395Y-88835031D01*
X219114393Y-88835030D01*
X219114392Y-88835030D01*
X219063117Y-88813791D01*
X218939322Y-88762514D01*
X218907896Y-88741515D01*
X218781762Y-88657236D01*
X218647764Y-88523238D01*
X218542487Y-88365679D01*
X218542486Y-88365678D01*
X218469969Y-88190605D01*
X218433000Y-88004749D01*
X218433000Y-87815251D01*
X218469969Y-87629395D01*
X218542486Y-87454322D01*
X218563485Y-87422896D01*
X218647764Y-87296762D01*
X218781762Y-87162764D01*
X218939321Y-87057487D01*
X218939322Y-87057486D01*
X219063117Y-87006209D01*
X219114392Y-86984970D01*
X219114393Y-86984970D01*
X219114395Y-86984969D01*
X219300251Y-86948000D01*
X219489749Y-86948000D01*
X219675605Y-86984969D01*
G37*
G36*
X183675605Y-86984969D02*
G01*
X183675607Y-86984970D01*
X183675608Y-86984970D01*
X183726883Y-87006209D01*
X183850678Y-87057486D01*
X183850679Y-87057487D01*
X184008238Y-87162764D01*
X184142236Y-87296762D01*
X184226515Y-87422896D01*
X184247514Y-87454322D01*
X184320031Y-87629395D01*
X184357000Y-87815251D01*
X184357000Y-88004749D01*
X184320031Y-88190605D01*
X184247514Y-88365678D01*
X184247513Y-88365679D01*
X184142236Y-88523238D01*
X184008238Y-88657236D01*
X183882104Y-88741515D01*
X183850678Y-88762514D01*
X183726883Y-88813791D01*
X183675608Y-88835030D01*
X183675607Y-88835030D01*
X183675605Y-88835031D01*
X183489749Y-88872000D01*
X183300251Y-88872000D01*
X183114395Y-88835031D01*
X183114393Y-88835030D01*
X183114392Y-88835030D01*
X183063117Y-88813791D01*
X182939322Y-88762514D01*
X182907896Y-88741515D01*
X182781762Y-88657236D01*
X182647764Y-88523238D01*
X182542487Y-88365679D01*
X182542486Y-88365678D01*
X182469969Y-88190605D01*
X182433000Y-88004749D01*
X182433000Y-87815251D01*
X182469969Y-87629395D01*
X182542486Y-87454322D01*
X182563485Y-87422896D01*
X182647764Y-87296762D01*
X182781762Y-87162764D01*
X182939321Y-87057487D01*
X182939322Y-87057486D01*
X183063117Y-87006209D01*
X183114392Y-86984970D01*
X183114393Y-86984970D01*
X183114395Y-86984969D01*
X183300251Y-86948000D01*
X183489749Y-86948000D01*
X183675605Y-86984969D01*
G37*
G36*
X159925605Y-86984969D02*
G01*
X159925607Y-86984970D01*
X159925608Y-86984970D01*
X159976883Y-87006209D01*
X160100678Y-87057486D01*
X160100679Y-87057487D01*
X160258238Y-87162764D01*
X160392236Y-87296762D01*
X160476515Y-87422896D01*
X160497514Y-87454322D01*
X160570031Y-87629395D01*
X160607000Y-87815251D01*
X160607000Y-88004749D01*
X160570031Y-88190605D01*
X160497514Y-88365678D01*
X160497513Y-88365679D01*
X160392236Y-88523238D01*
X160258238Y-88657236D01*
X160132104Y-88741515D01*
X160100678Y-88762514D01*
X159976883Y-88813791D01*
X159925608Y-88835030D01*
X159925607Y-88835030D01*
X159925605Y-88835031D01*
X159739749Y-88872000D01*
X159550251Y-88872000D01*
X159364395Y-88835031D01*
X159364393Y-88835030D01*
X159364392Y-88835030D01*
X159313117Y-88813791D01*
X159189322Y-88762514D01*
X159157896Y-88741515D01*
X159031762Y-88657236D01*
X158897764Y-88523238D01*
X158792487Y-88365679D01*
X158792486Y-88365678D01*
X158719969Y-88190605D01*
X158683000Y-88004749D01*
X158683000Y-87815251D01*
X158719969Y-87629395D01*
X158792486Y-87454322D01*
X158813485Y-87422896D01*
X158897764Y-87296762D01*
X159031762Y-87162764D01*
X159189321Y-87057487D01*
X159189322Y-87057486D01*
X159313117Y-87006209D01*
X159364392Y-86984970D01*
X159364393Y-86984970D01*
X159364395Y-86984969D01*
X159550251Y-86948000D01*
X159739749Y-86948000D01*
X159925605Y-86984969D01*
G37*
G36*
X148675605Y-86984969D02*
G01*
X148675607Y-86984970D01*
X148675608Y-86984970D01*
X148726883Y-87006209D01*
X148850678Y-87057486D01*
X148850679Y-87057487D01*
X149008238Y-87162764D01*
X149142236Y-87296762D01*
X149226515Y-87422896D01*
X149247514Y-87454322D01*
X149320031Y-87629395D01*
X149357000Y-87815251D01*
X149357000Y-88004749D01*
X149320031Y-88190605D01*
X149247514Y-88365678D01*
X149247513Y-88365679D01*
X149142236Y-88523238D01*
X149008238Y-88657236D01*
X148882104Y-88741515D01*
X148850678Y-88762514D01*
X148726883Y-88813791D01*
X148675608Y-88835030D01*
X148675607Y-88835030D01*
X148675605Y-88835031D01*
X148489749Y-88872000D01*
X148300251Y-88872000D01*
X148114395Y-88835031D01*
X148114393Y-88835030D01*
X148114392Y-88835030D01*
X148063117Y-88813791D01*
X147939322Y-88762514D01*
X147907896Y-88741515D01*
X147781762Y-88657236D01*
X147647764Y-88523238D01*
X147542487Y-88365679D01*
X147542486Y-88365678D01*
X147469969Y-88190605D01*
X147433000Y-88004749D01*
X147433000Y-87815251D01*
X147469969Y-87629395D01*
X147542486Y-87454322D01*
X147563485Y-87422896D01*
X147647764Y-87296762D01*
X147781762Y-87162764D01*
X147939321Y-87057487D01*
X147939322Y-87057486D01*
X148063117Y-87006209D01*
X148114392Y-86984970D01*
X148114393Y-86984970D01*
X148114395Y-86984969D01*
X148300251Y-86948000D01*
X148489749Y-86948000D01*
X148675605Y-86984969D01*
G37*
G36*
X195305605Y-57774969D02*
G01*
X195305607Y-57774970D01*
X195305608Y-57774970D01*
X195356883Y-57796209D01*
X195480678Y-57847486D01*
X195480679Y-57847487D01*
X195638238Y-57952764D01*
X195772236Y-58086762D01*
X195856515Y-58212896D01*
X195877514Y-58244322D01*
X195918186Y-58342513D01*
X195948224Y-58415031D01*
X195950031Y-58419395D01*
X195987000Y-58605251D01*
X195987000Y-58794749D01*
X195950031Y-58980605D01*
X195877514Y-59155678D01*
X195877513Y-59155679D01*
X195772236Y-59313238D01*
X195638238Y-59447236D01*
X195512104Y-59531515D01*
X195480678Y-59552514D01*
X195356883Y-59603791D01*
X195305608Y-59625030D01*
X195305607Y-59625030D01*
X195305605Y-59625031D01*
X195119749Y-59662000D01*
X194930251Y-59662000D01*
X194744395Y-59625031D01*
X194744393Y-59625030D01*
X194744392Y-59625030D01*
X194693117Y-59603791D01*
X194569322Y-59552514D01*
X194537896Y-59531515D01*
X194411762Y-59447236D01*
X194277764Y-59313238D01*
X194172487Y-59155679D01*
X194172486Y-59155678D01*
X194099969Y-58980605D01*
X194063000Y-58794749D01*
X194063000Y-58605251D01*
X194099969Y-58419395D01*
X194101777Y-58415031D01*
X194131814Y-58342513D01*
X194172486Y-58244322D01*
X194193485Y-58212896D01*
X194277764Y-58086762D01*
X194411762Y-57952764D01*
X194569321Y-57847487D01*
X194569322Y-57847486D01*
X194693117Y-57796209D01*
X194744392Y-57774970D01*
X194744393Y-57774970D01*
X194744395Y-57774969D01*
X194930251Y-57738000D01*
X195119749Y-57738000D01*
X195305605Y-57774969D01*
G37*
G36*
X184055605Y-57774969D02*
G01*
X184055607Y-57774970D01*
X184055608Y-57774970D01*
X184106883Y-57796209D01*
X184230678Y-57847486D01*
X184230679Y-57847487D01*
X184388238Y-57952764D01*
X184522236Y-58086762D01*
X184606515Y-58212896D01*
X184627514Y-58244322D01*
X184668186Y-58342513D01*
X184698224Y-58415031D01*
X184700031Y-58419395D01*
X184737000Y-58605251D01*
X184737000Y-58794749D01*
X184700031Y-58980605D01*
X184627514Y-59155678D01*
X184627513Y-59155679D01*
X184522236Y-59313238D01*
X184388238Y-59447236D01*
X184262104Y-59531515D01*
X184230678Y-59552514D01*
X184106883Y-59603791D01*
X184055608Y-59625030D01*
X184055607Y-59625030D01*
X184055605Y-59625031D01*
X183869749Y-59662000D01*
X183680251Y-59662000D01*
X183494395Y-59625031D01*
X183494393Y-59625030D01*
X183494392Y-59625030D01*
X183443117Y-59603791D01*
X183319322Y-59552514D01*
X183287896Y-59531515D01*
X183161762Y-59447236D01*
X183027764Y-59313238D01*
X182922487Y-59155679D01*
X182922486Y-59155678D01*
X182849969Y-58980605D01*
X182813000Y-58794749D01*
X182813000Y-58605251D01*
X182849969Y-58419395D01*
X182851777Y-58415031D01*
X182881814Y-58342513D01*
X182922486Y-58244322D01*
X182943485Y-58212896D01*
X183027764Y-58086762D01*
X183161762Y-57952764D01*
X183319321Y-57847487D01*
X183319322Y-57847486D01*
X183443117Y-57796209D01*
X183494392Y-57774970D01*
X183494393Y-57774970D01*
X183494395Y-57774969D01*
X183680251Y-57738000D01*
X183869749Y-57738000D01*
X184055605Y-57774969D01*
G37*
G36*
X160305605Y-57774969D02*
G01*
X160305607Y-57774970D01*
X160305608Y-57774970D01*
X160356883Y-57796209D01*
X160480678Y-57847486D01*
X160480679Y-57847487D01*
X160638238Y-57952764D01*
X160772236Y-58086762D01*
X160856515Y-58212896D01*
X160877514Y-58244322D01*
X160918186Y-58342513D01*
X160948224Y-58415031D01*
X160950031Y-58419395D01*
X160987000Y-58605251D01*
X160987000Y-58794749D01*
X160950031Y-58980605D01*
X160877514Y-59155678D01*
X160877513Y-59155679D01*
X160772236Y-59313238D01*
X160638238Y-59447236D01*
X160512104Y-59531515D01*
X160480678Y-59552514D01*
X160356883Y-59603791D01*
X160305608Y-59625030D01*
X160305607Y-59625030D01*
X160305605Y-59625031D01*
X160119749Y-59662000D01*
X159930251Y-59662000D01*
X159744395Y-59625031D01*
X159744393Y-59625030D01*
X159744392Y-59625030D01*
X159693117Y-59603791D01*
X159569322Y-59552514D01*
X159537896Y-59531515D01*
X159411762Y-59447236D01*
X159277764Y-59313238D01*
X159172487Y-59155679D01*
X159172486Y-59155678D01*
X159099969Y-58980605D01*
X159063000Y-58794749D01*
X159063000Y-58605251D01*
X159099969Y-58419395D01*
X159101777Y-58415031D01*
X159131814Y-58342513D01*
X159172486Y-58244322D01*
X159193485Y-58212896D01*
X159277764Y-58086762D01*
X159411762Y-57952764D01*
X159569321Y-57847487D01*
X159569322Y-57847486D01*
X159693117Y-57796209D01*
X159744392Y-57774970D01*
X159744393Y-57774970D01*
X159744395Y-57774969D01*
X159930251Y-57738000D01*
X160119749Y-57738000D01*
X160305605Y-57774969D01*
G37*
G36*
X149055605Y-57774969D02*
G01*
X149055607Y-57774970D01*
X149055608Y-57774970D01*
X149106883Y-57796209D01*
X149230678Y-57847486D01*
X149230679Y-57847487D01*
X149388238Y-57952764D01*
X149522236Y-58086762D01*
X149606515Y-58212896D01*
X149627514Y-58244322D01*
X149668186Y-58342513D01*
X149698224Y-58415031D01*
X149700031Y-58419395D01*
X149737000Y-58605251D01*
X149737000Y-58794749D01*
X149700031Y-58980605D01*
X149627514Y-59155678D01*
X149627513Y-59155679D01*
X149522236Y-59313238D01*
X149388238Y-59447236D01*
X149262104Y-59531515D01*
X149230678Y-59552514D01*
X149106883Y-59603791D01*
X149055608Y-59625030D01*
X149055607Y-59625030D01*
X149055605Y-59625031D01*
X148869749Y-59662000D01*
X148680251Y-59662000D01*
X148494395Y-59625031D01*
X148494393Y-59625030D01*
X148494392Y-59625030D01*
X148443117Y-59603791D01*
X148319322Y-59552514D01*
X148287896Y-59531515D01*
X148161762Y-59447236D01*
X148027764Y-59313238D01*
X147922487Y-59155679D01*
X147922486Y-59155678D01*
X147849969Y-58980605D01*
X147813000Y-58794749D01*
X147813000Y-58605251D01*
X147849969Y-58419395D01*
X147851777Y-58415031D01*
X147881814Y-58342513D01*
X147922486Y-58244322D01*
X147943485Y-58212896D01*
X148027764Y-58086762D01*
X148161762Y-57952764D01*
X148319321Y-57847487D01*
X148319322Y-57847486D01*
X148443117Y-57796209D01*
X148494392Y-57774970D01*
X148494393Y-57774970D01*
X148494395Y-57774969D01*
X148680251Y-57738000D01*
X148869749Y-57738000D01*
X149055605Y-57774969D01*
G37*
G36*
X230925605Y-56564969D02*
G01*
X230925607Y-56564970D01*
X230925608Y-56564970D01*
X230976883Y-56586209D01*
X231100678Y-56637486D01*
X231100679Y-56637487D01*
X231258238Y-56742764D01*
X231392236Y-56876762D01*
X231476515Y-57002896D01*
X231497514Y-57034322D01*
X231570031Y-57209395D01*
X231607000Y-57395251D01*
X231607000Y-57584749D01*
X231576517Y-57738000D01*
X231570030Y-57770608D01*
X231568223Y-57774970D01*
X231497514Y-57945678D01*
X231497513Y-57945679D01*
X231392236Y-58103238D01*
X231258238Y-58237236D01*
X231132104Y-58321515D01*
X231100678Y-58342514D01*
X230976883Y-58393791D01*
X230925608Y-58415030D01*
X230925607Y-58415030D01*
X230925605Y-58415031D01*
X230739749Y-58452000D01*
X230550251Y-58452000D01*
X230364395Y-58415031D01*
X230364393Y-58415030D01*
X230364392Y-58415030D01*
X230313117Y-58393791D01*
X230189322Y-58342514D01*
X230157896Y-58321515D01*
X230031762Y-58237236D01*
X229897764Y-58103238D01*
X229792487Y-57945679D01*
X229792486Y-57945678D01*
X229721777Y-57774970D01*
X229719970Y-57770608D01*
X229713484Y-57738000D01*
X229683000Y-57584749D01*
X229683000Y-57395251D01*
X229719969Y-57209395D01*
X229792486Y-57034322D01*
X229813485Y-57002896D01*
X229897764Y-56876762D01*
X230031762Y-56742764D01*
X230189321Y-56637487D01*
X230189322Y-56637486D01*
X230313117Y-56586209D01*
X230364392Y-56564970D01*
X230364393Y-56564970D01*
X230364395Y-56564969D01*
X230550251Y-56528000D01*
X230739749Y-56528000D01*
X230925605Y-56564969D01*
G37*
G36*
X219675605Y-56564969D02*
G01*
X219675607Y-56564970D01*
X219675608Y-56564970D01*
X219726883Y-56586209D01*
X219850678Y-56637486D01*
X219850679Y-56637487D01*
X220008238Y-56742764D01*
X220142236Y-56876762D01*
X220226515Y-57002896D01*
X220247514Y-57034322D01*
X220320031Y-57209395D01*
X220357000Y-57395251D01*
X220357000Y-57584749D01*
X220326517Y-57738000D01*
X220320030Y-57770608D01*
X220318223Y-57774970D01*
X220247514Y-57945678D01*
X220247513Y-57945679D01*
X220142236Y-58103238D01*
X220008238Y-58237236D01*
X219882104Y-58321515D01*
X219850678Y-58342514D01*
X219726883Y-58393791D01*
X219675608Y-58415030D01*
X219675607Y-58415030D01*
X219675605Y-58415031D01*
X219489749Y-58452000D01*
X219300251Y-58452000D01*
X219114395Y-58415031D01*
X219114393Y-58415030D01*
X219114392Y-58415030D01*
X219063117Y-58393791D01*
X218939322Y-58342514D01*
X218907896Y-58321515D01*
X218781762Y-58237236D01*
X218647764Y-58103238D01*
X218542487Y-57945679D01*
X218542486Y-57945678D01*
X218471777Y-57774970D01*
X218469970Y-57770608D01*
X218463484Y-57738000D01*
X218433000Y-57584749D01*
X218433000Y-57395251D01*
X218469969Y-57209395D01*
X218542486Y-57034322D01*
X218563485Y-57002896D01*
X218647764Y-56876762D01*
X218781762Y-56742764D01*
X218939321Y-56637487D01*
X218939322Y-56637486D01*
X219063117Y-56586209D01*
X219114392Y-56564970D01*
X219114393Y-56564970D01*
X219114395Y-56564969D01*
X219300251Y-56528000D01*
X219489749Y-56528000D01*
X219675605Y-56564969D01*
G37*
G36*
X184055605Y-55234969D02*
G01*
X184055607Y-55234970D01*
X184055608Y-55234970D01*
X184106883Y-55256209D01*
X184230678Y-55307486D01*
X184230679Y-55307487D01*
X184388238Y-55412764D01*
X184522236Y-55546762D01*
X184606515Y-55672896D01*
X184627514Y-55704322D01*
X184668186Y-55802513D01*
X184698224Y-55875031D01*
X184700031Y-55879395D01*
X184737000Y-56065251D01*
X184737000Y-56254749D01*
X184700031Y-56440605D01*
X184627514Y-56615678D01*
X184606515Y-56647104D01*
X184522236Y-56773238D01*
X184388238Y-56907236D01*
X184262104Y-56991515D01*
X184230678Y-57012514D01*
X184178028Y-57034322D01*
X184055608Y-57085030D01*
X184055607Y-57085030D01*
X184055605Y-57085031D01*
X183869749Y-57122000D01*
X183680251Y-57122000D01*
X183494395Y-57085031D01*
X183494393Y-57085030D01*
X183494392Y-57085030D01*
X183371972Y-57034322D01*
X183319322Y-57012514D01*
X183287896Y-56991515D01*
X183161762Y-56907236D01*
X183027764Y-56773238D01*
X182943485Y-56647104D01*
X182922486Y-56615678D01*
X182849969Y-56440605D01*
X182813000Y-56254749D01*
X182813000Y-56065251D01*
X182849969Y-55879395D01*
X182851777Y-55875031D01*
X182881814Y-55802513D01*
X182922486Y-55704322D01*
X182943485Y-55672896D01*
X183027764Y-55546762D01*
X183161762Y-55412764D01*
X183319321Y-55307487D01*
X183319322Y-55307486D01*
X183443117Y-55256209D01*
X183494392Y-55234970D01*
X183494393Y-55234970D01*
X183494395Y-55234969D01*
X183680251Y-55198000D01*
X183869749Y-55198000D01*
X184055605Y-55234969D01*
G37*
G36*
X195305605Y-55234969D02*
G01*
X195305607Y-55234970D01*
X195305608Y-55234970D01*
X195356883Y-55256209D01*
X195480678Y-55307486D01*
X195480679Y-55307487D01*
X195638238Y-55412764D01*
X195772236Y-55546762D01*
X195856515Y-55672896D01*
X195877514Y-55704322D01*
X195918186Y-55802513D01*
X195948224Y-55875031D01*
X195950031Y-55879395D01*
X195987000Y-56065251D01*
X195987000Y-56254749D01*
X195950031Y-56440605D01*
X195877514Y-56615678D01*
X195856515Y-56647104D01*
X195772236Y-56773238D01*
X195638238Y-56907236D01*
X195512104Y-56991515D01*
X195480678Y-57012514D01*
X195428028Y-57034322D01*
X195305608Y-57085030D01*
X195305607Y-57085030D01*
X195305605Y-57085031D01*
X195119749Y-57122000D01*
X194930251Y-57122000D01*
X194744395Y-57085031D01*
X194744393Y-57085030D01*
X194744392Y-57085030D01*
X194621972Y-57034322D01*
X194569322Y-57012514D01*
X194537896Y-56991515D01*
X194411762Y-56907236D01*
X194277764Y-56773238D01*
X194193485Y-56647104D01*
X194172486Y-56615678D01*
X194099969Y-56440605D01*
X194063000Y-56254749D01*
X194063000Y-56065251D01*
X194099969Y-55879395D01*
X194101777Y-55875031D01*
X194131814Y-55802513D01*
X194172486Y-55704322D01*
X194193485Y-55672896D01*
X194277764Y-55546762D01*
X194411762Y-55412764D01*
X194569321Y-55307487D01*
X194569322Y-55307486D01*
X194693117Y-55256209D01*
X194744392Y-55234970D01*
X194744393Y-55234970D01*
X194744395Y-55234969D01*
X194930251Y-55198000D01*
X195119749Y-55198000D01*
X195305605Y-55234969D01*
G37*
G36*
X160305605Y-55234969D02*
G01*
X160305607Y-55234970D01*
X160305608Y-55234970D01*
X160356883Y-55256209D01*
X160480678Y-55307486D01*
X160480679Y-55307487D01*
X160638238Y-55412764D01*
X160772236Y-55546762D01*
X160856515Y-55672896D01*
X160877514Y-55704322D01*
X160918186Y-55802513D01*
X160948224Y-55875031D01*
X160950031Y-55879395D01*
X160987000Y-56065251D01*
X160987000Y-56254749D01*
X160950031Y-56440605D01*
X160877514Y-56615678D01*
X160856515Y-56647104D01*
X160772236Y-56773238D01*
X160638238Y-56907236D01*
X160512104Y-56991515D01*
X160480678Y-57012514D01*
X160428028Y-57034322D01*
X160305608Y-57085030D01*
X160305607Y-57085030D01*
X160305605Y-57085031D01*
X160119749Y-57122000D01*
X159930251Y-57122000D01*
X159744395Y-57085031D01*
X159744393Y-57085030D01*
X159744392Y-57085030D01*
X159621972Y-57034322D01*
X159569322Y-57012514D01*
X159537896Y-56991515D01*
X159411762Y-56907236D01*
X159277764Y-56773238D01*
X159193485Y-56647104D01*
X159172486Y-56615678D01*
X159099969Y-56440605D01*
X159063000Y-56254749D01*
X159063000Y-56065251D01*
X159099969Y-55879395D01*
X159101777Y-55875031D01*
X159131814Y-55802513D01*
X159172486Y-55704322D01*
X159193485Y-55672896D01*
X159277764Y-55546762D01*
X159411762Y-55412764D01*
X159569321Y-55307487D01*
X159569322Y-55307486D01*
X159693117Y-55256209D01*
X159744392Y-55234970D01*
X159744393Y-55234970D01*
X159744395Y-55234969D01*
X159930251Y-55198000D01*
X160119749Y-55198000D01*
X160305605Y-55234969D01*
G37*
G36*
X149055605Y-55234969D02*
G01*
X149055607Y-55234970D01*
X149055608Y-55234970D01*
X149106883Y-55256209D01*
X149230678Y-55307486D01*
X149230679Y-55307487D01*
X149388238Y-55412764D01*
X149522236Y-55546762D01*
X149606515Y-55672896D01*
X149627514Y-55704322D01*
X149668186Y-55802513D01*
X149698224Y-55875031D01*
X149700031Y-55879395D01*
X149737000Y-56065251D01*
X149737000Y-56254749D01*
X149700031Y-56440605D01*
X149627514Y-56615678D01*
X149606515Y-56647104D01*
X149522236Y-56773238D01*
X149388238Y-56907236D01*
X149262104Y-56991515D01*
X149230678Y-57012514D01*
X149178028Y-57034322D01*
X149055608Y-57085030D01*
X149055607Y-57085030D01*
X149055605Y-57085031D01*
X148869749Y-57122000D01*
X148680251Y-57122000D01*
X148494395Y-57085031D01*
X148494393Y-57085030D01*
X148494392Y-57085030D01*
X148371972Y-57034322D01*
X148319322Y-57012514D01*
X148287896Y-56991515D01*
X148161762Y-56907236D01*
X148027764Y-56773238D01*
X147943485Y-56647104D01*
X147922486Y-56615678D01*
X147849969Y-56440605D01*
X147813000Y-56254749D01*
X147813000Y-56065251D01*
X147849969Y-55879395D01*
X147851777Y-55875031D01*
X147881814Y-55802513D01*
X147922486Y-55704322D01*
X147943485Y-55672896D01*
X148027764Y-55546762D01*
X148161762Y-55412764D01*
X148319321Y-55307487D01*
X148319322Y-55307486D01*
X148443117Y-55256209D01*
X148494392Y-55234970D01*
X148494393Y-55234970D01*
X148494395Y-55234969D01*
X148680251Y-55198000D01*
X148869749Y-55198000D01*
X149055605Y-55234969D01*
G37*
G36*
X230925605Y-54024969D02*
G01*
X230925607Y-54024970D01*
X230925608Y-54024970D01*
X230976883Y-54046209D01*
X231100678Y-54097486D01*
X231100679Y-54097487D01*
X231258238Y-54202764D01*
X231392236Y-54336762D01*
X231476515Y-54462896D01*
X231497514Y-54494322D01*
X231570031Y-54669395D01*
X231607000Y-54855251D01*
X231607000Y-55044749D01*
X231576517Y-55198000D01*
X231570030Y-55230608D01*
X231568223Y-55234970D01*
X231497514Y-55405678D01*
X231497513Y-55405679D01*
X231392236Y-55563238D01*
X231258238Y-55697236D01*
X231132104Y-55781515D01*
X231100678Y-55802514D01*
X230976883Y-55853791D01*
X230925608Y-55875030D01*
X230925607Y-55875030D01*
X230925605Y-55875031D01*
X230739749Y-55912000D01*
X230550251Y-55912000D01*
X230364395Y-55875031D01*
X230364393Y-55875030D01*
X230364392Y-55875030D01*
X230313117Y-55853791D01*
X230189322Y-55802514D01*
X230157896Y-55781515D01*
X230031762Y-55697236D01*
X229897764Y-55563238D01*
X229792487Y-55405679D01*
X229792486Y-55405678D01*
X229721777Y-55234970D01*
X229719970Y-55230608D01*
X229713484Y-55198000D01*
X229683000Y-55044749D01*
X229683000Y-54855251D01*
X229719969Y-54669395D01*
X229792486Y-54494322D01*
X229813485Y-54462896D01*
X229897764Y-54336762D01*
X230031762Y-54202764D01*
X230189321Y-54097487D01*
X230189322Y-54097486D01*
X230313117Y-54046209D01*
X230364392Y-54024970D01*
X230364393Y-54024970D01*
X230364395Y-54024969D01*
X230550251Y-53988000D01*
X230739749Y-53988000D01*
X230925605Y-54024969D01*
G37*
G36*
X219675605Y-54024969D02*
G01*
X219675607Y-54024970D01*
X219675608Y-54024970D01*
X219726883Y-54046209D01*
X219850678Y-54097486D01*
X219850679Y-54097487D01*
X220008238Y-54202764D01*
X220142236Y-54336762D01*
X220226515Y-54462896D01*
X220247514Y-54494322D01*
X220320031Y-54669395D01*
X220357000Y-54855251D01*
X220357000Y-55044749D01*
X220326517Y-55198000D01*
X220320030Y-55230608D01*
X220318223Y-55234970D01*
X220247514Y-55405678D01*
X220247513Y-55405679D01*
X220142236Y-55563238D01*
X220008238Y-55697236D01*
X219882104Y-55781515D01*
X219850678Y-55802514D01*
X219726883Y-55853791D01*
X219675608Y-55875030D01*
X219675607Y-55875030D01*
X219675605Y-55875031D01*
X219489749Y-55912000D01*
X219300251Y-55912000D01*
X219114395Y-55875031D01*
X219114393Y-55875030D01*
X219114392Y-55875030D01*
X219063117Y-55853791D01*
X218939322Y-55802514D01*
X218907896Y-55781515D01*
X218781762Y-55697236D01*
X218647764Y-55563238D01*
X218542487Y-55405679D01*
X218542486Y-55405678D01*
X218471777Y-55234970D01*
X218469970Y-55230608D01*
X218463484Y-55198000D01*
X218433000Y-55044749D01*
X218433000Y-54855251D01*
X218469969Y-54669395D01*
X218542486Y-54494322D01*
X218563485Y-54462896D01*
X218647764Y-54336762D01*
X218781762Y-54202764D01*
X218939321Y-54097487D01*
X218939322Y-54097486D01*
X219063117Y-54046209D01*
X219114392Y-54024970D01*
X219114393Y-54024970D01*
X219114395Y-54024969D01*
X219300251Y-53988000D01*
X219489749Y-53988000D01*
X219675605Y-54024969D01*
G37*
G36*
X195305605Y-52694969D02*
G01*
X195305607Y-52694970D01*
X195305608Y-52694970D01*
X195356883Y-52716209D01*
X195480678Y-52767486D01*
X195480679Y-52767487D01*
X195638238Y-52872764D01*
X195772236Y-53006762D01*
X195856515Y-53132896D01*
X195877514Y-53164322D01*
X195918186Y-53262513D01*
X195948224Y-53335031D01*
X195950031Y-53339395D01*
X195987000Y-53525251D01*
X195987000Y-53714749D01*
X195950031Y-53900605D01*
X195877514Y-54075678D01*
X195856515Y-54107104D01*
X195772236Y-54233238D01*
X195638238Y-54367236D01*
X195512104Y-54451515D01*
X195480678Y-54472514D01*
X195428028Y-54494322D01*
X195305608Y-54545030D01*
X195305607Y-54545030D01*
X195305605Y-54545031D01*
X195119749Y-54582000D01*
X194930251Y-54582000D01*
X194744395Y-54545031D01*
X194744393Y-54545030D01*
X194744392Y-54545030D01*
X194621972Y-54494322D01*
X194569322Y-54472514D01*
X194537896Y-54451515D01*
X194411762Y-54367236D01*
X194277764Y-54233238D01*
X194193485Y-54107104D01*
X194172486Y-54075678D01*
X194099969Y-53900605D01*
X194063000Y-53714749D01*
X194063000Y-53525251D01*
X194099969Y-53339395D01*
X194101777Y-53335031D01*
X194131814Y-53262513D01*
X194172486Y-53164322D01*
X194193485Y-53132896D01*
X194277764Y-53006762D01*
X194411762Y-52872764D01*
X194569321Y-52767487D01*
X194569322Y-52767486D01*
X194693117Y-52716209D01*
X194744392Y-52694970D01*
X194744393Y-52694970D01*
X194744395Y-52694969D01*
X194930251Y-52658000D01*
X195119749Y-52658000D01*
X195305605Y-52694969D01*
G37*
G36*
X160305605Y-52694969D02*
G01*
X160305607Y-52694970D01*
X160305608Y-52694970D01*
X160356883Y-52716209D01*
X160480678Y-52767486D01*
X160480679Y-52767487D01*
X160638238Y-52872764D01*
X160772236Y-53006762D01*
X160856515Y-53132896D01*
X160877514Y-53164322D01*
X160918186Y-53262513D01*
X160948224Y-53335031D01*
X160950031Y-53339395D01*
X160987000Y-53525251D01*
X160987000Y-53714749D01*
X160950031Y-53900605D01*
X160877514Y-54075678D01*
X160856515Y-54107104D01*
X160772236Y-54233238D01*
X160638238Y-54367236D01*
X160512104Y-54451515D01*
X160480678Y-54472514D01*
X160428028Y-54494322D01*
X160305608Y-54545030D01*
X160305607Y-54545030D01*
X160305605Y-54545031D01*
X160119749Y-54582000D01*
X159930251Y-54582000D01*
X159744395Y-54545031D01*
X159744393Y-54545030D01*
X159744392Y-54545030D01*
X159621972Y-54494322D01*
X159569322Y-54472514D01*
X159537896Y-54451515D01*
X159411762Y-54367236D01*
X159277764Y-54233238D01*
X159193485Y-54107104D01*
X159172486Y-54075678D01*
X159099969Y-53900605D01*
X159063000Y-53714749D01*
X159063000Y-53525251D01*
X159099969Y-53339395D01*
X159101777Y-53335031D01*
X159131814Y-53262513D01*
X159172486Y-53164322D01*
X159193485Y-53132896D01*
X159277764Y-53006762D01*
X159411762Y-52872764D01*
X159569321Y-52767487D01*
X159569322Y-52767486D01*
X159693117Y-52716209D01*
X159744392Y-52694970D01*
X159744393Y-52694970D01*
X159744395Y-52694969D01*
X159930251Y-52658000D01*
X160119749Y-52658000D01*
X160305605Y-52694969D01*
G37*
G36*
X184055605Y-52694969D02*
G01*
X184055607Y-52694970D01*
X184055608Y-52694970D01*
X184106883Y-52716209D01*
X184230678Y-52767486D01*
X184230679Y-52767487D01*
X184388238Y-52872764D01*
X184522236Y-53006762D01*
X184606515Y-53132896D01*
X184627514Y-53164322D01*
X184668186Y-53262513D01*
X184698224Y-53335031D01*
X184700031Y-53339395D01*
X184737000Y-53525251D01*
X184737000Y-53714749D01*
X184700031Y-53900605D01*
X184627514Y-54075678D01*
X184606515Y-54107104D01*
X184522236Y-54233238D01*
X184388238Y-54367236D01*
X184262104Y-54451515D01*
X184230678Y-54472514D01*
X184178028Y-54494322D01*
X184055608Y-54545030D01*
X184055607Y-54545030D01*
X184055605Y-54545031D01*
X183869749Y-54582000D01*
X183680251Y-54582000D01*
X183494395Y-54545031D01*
X183494393Y-54545030D01*
X183494392Y-54545030D01*
X183371972Y-54494322D01*
X183319322Y-54472514D01*
X183287896Y-54451515D01*
X183161762Y-54367236D01*
X183027764Y-54233238D01*
X182943485Y-54107104D01*
X182922486Y-54075678D01*
X182849969Y-53900605D01*
X182813000Y-53714749D01*
X182813000Y-53525251D01*
X182849969Y-53339395D01*
X182851777Y-53335031D01*
X182881814Y-53262513D01*
X182922486Y-53164322D01*
X182943485Y-53132896D01*
X183027764Y-53006762D01*
X183161762Y-52872764D01*
X183319321Y-52767487D01*
X183319322Y-52767486D01*
X183443117Y-52716209D01*
X183494392Y-52694970D01*
X183494393Y-52694970D01*
X183494395Y-52694969D01*
X183680251Y-52658000D01*
X183869749Y-52658000D01*
X184055605Y-52694969D01*
G37*
G36*
X149055605Y-52694969D02*
G01*
X149055607Y-52694970D01*
X149055608Y-52694970D01*
X149106883Y-52716209D01*
X149230678Y-52767486D01*
X149230679Y-52767487D01*
X149388238Y-52872764D01*
X149522236Y-53006762D01*
X149606515Y-53132896D01*
X149627514Y-53164322D01*
X149668186Y-53262513D01*
X149698224Y-53335031D01*
X149700031Y-53339395D01*
X149737000Y-53525251D01*
X149737000Y-53714749D01*
X149700031Y-53900605D01*
X149627514Y-54075678D01*
X149606515Y-54107104D01*
X149522236Y-54233238D01*
X149388238Y-54367236D01*
X149262104Y-54451515D01*
X149230678Y-54472514D01*
X149178028Y-54494322D01*
X149055608Y-54545030D01*
X149055607Y-54545030D01*
X149055605Y-54545031D01*
X148869749Y-54582000D01*
X148680251Y-54582000D01*
X148494395Y-54545031D01*
X148494393Y-54545030D01*
X148494392Y-54545030D01*
X148371972Y-54494322D01*
X148319322Y-54472514D01*
X148287896Y-54451515D01*
X148161762Y-54367236D01*
X148027764Y-54233238D01*
X147943485Y-54107104D01*
X147922486Y-54075678D01*
X147849969Y-53900605D01*
X147813000Y-53714749D01*
X147813000Y-53525251D01*
X147849969Y-53339395D01*
X147851777Y-53335031D01*
X147881814Y-53262513D01*
X147922486Y-53164322D01*
X147943485Y-53132896D01*
X148027764Y-53006762D01*
X148161762Y-52872764D01*
X148319321Y-52767487D01*
X148319322Y-52767486D01*
X148443117Y-52716209D01*
X148494392Y-52694970D01*
X148494393Y-52694970D01*
X148494395Y-52694969D01*
X148680251Y-52658000D01*
X148869749Y-52658000D01*
X149055605Y-52694969D01*
G37*
G36*
X219675605Y-51484969D02*
G01*
X219675607Y-51484970D01*
X219675608Y-51484970D01*
X219726883Y-51506209D01*
X219850678Y-51557486D01*
X219850679Y-51557487D01*
X220008238Y-51662764D01*
X220142236Y-51796762D01*
X220226515Y-51922896D01*
X220247514Y-51954322D01*
X220320031Y-52129395D01*
X220357000Y-52315251D01*
X220357000Y-52504749D01*
X220326517Y-52658000D01*
X220320030Y-52690608D01*
X220318223Y-52694970D01*
X220247514Y-52865678D01*
X220247513Y-52865679D01*
X220142236Y-53023238D01*
X220008238Y-53157236D01*
X219882104Y-53241515D01*
X219850678Y-53262514D01*
X219726883Y-53313791D01*
X219675608Y-53335030D01*
X219675607Y-53335030D01*
X219675605Y-53335031D01*
X219489749Y-53372000D01*
X219300251Y-53372000D01*
X219114395Y-53335031D01*
X219114393Y-53335030D01*
X219114392Y-53335030D01*
X219063117Y-53313791D01*
X218939322Y-53262514D01*
X218907896Y-53241515D01*
X218781762Y-53157236D01*
X218647764Y-53023238D01*
X218542487Y-52865679D01*
X218542486Y-52865678D01*
X218471777Y-52694970D01*
X218469970Y-52690608D01*
X218463484Y-52658000D01*
X218433000Y-52504749D01*
X218433000Y-52315251D01*
X218469969Y-52129395D01*
X218542486Y-51954322D01*
X218563485Y-51922896D01*
X218647764Y-51796762D01*
X218781762Y-51662764D01*
X218939321Y-51557487D01*
X218939322Y-51557486D01*
X219063117Y-51506209D01*
X219114392Y-51484970D01*
X219114393Y-51484970D01*
X219114395Y-51484969D01*
X219300251Y-51448000D01*
X219489749Y-51448000D01*
X219675605Y-51484969D01*
G37*
G36*
X230925605Y-51484969D02*
G01*
X230925607Y-51484970D01*
X230925608Y-51484970D01*
X230976883Y-51506209D01*
X231100678Y-51557486D01*
X231100679Y-51557487D01*
X231258238Y-51662764D01*
X231392236Y-51796762D01*
X231476515Y-51922896D01*
X231497514Y-51954322D01*
X231570031Y-52129395D01*
X231607000Y-52315251D01*
X231607000Y-52504749D01*
X231576517Y-52658000D01*
X231570030Y-52690608D01*
X231568223Y-52694970D01*
X231497514Y-52865678D01*
X231497513Y-52865679D01*
X231392236Y-53023238D01*
X231258238Y-53157236D01*
X231132104Y-53241515D01*
X231100678Y-53262514D01*
X230976883Y-53313791D01*
X230925608Y-53335030D01*
X230925607Y-53335030D01*
X230925605Y-53335031D01*
X230739749Y-53372000D01*
X230550251Y-53372000D01*
X230364395Y-53335031D01*
X230364393Y-53335030D01*
X230364392Y-53335030D01*
X230313117Y-53313791D01*
X230189322Y-53262514D01*
X230157896Y-53241515D01*
X230031762Y-53157236D01*
X229897764Y-53023238D01*
X229792487Y-52865679D01*
X229792486Y-52865678D01*
X229721777Y-52694970D01*
X229719970Y-52690608D01*
X229713484Y-52658000D01*
X229683000Y-52504749D01*
X229683000Y-52315251D01*
X229719969Y-52129395D01*
X229792486Y-51954322D01*
X229813485Y-51922896D01*
X229897764Y-51796762D01*
X230031762Y-51662764D01*
X230189321Y-51557487D01*
X230189322Y-51557486D01*
X230313117Y-51506209D01*
X230364392Y-51484970D01*
X230364393Y-51484970D01*
X230364395Y-51484969D01*
X230550251Y-51448000D01*
X230739749Y-51448000D01*
X230925605Y-51484969D01*
G37*
M02*
